M48
; DRILL file {KiCad (6.0.2)} date Tue Jul 26 11:38:27 2022
; FORMAT={-:-/ absolute / metric / decimal}
; #@! TF.CreationDate,2022-07-26T11:38:27+02:00
; #@! TF.GenerationSoftware,Kicad,Pcbnew,(6.0.2)
; #@! TF.FileFunction,Plated,1,2,PTH
FMAT,2
METRIC
; #@! TA.AperFunction,Plated,PTH,ViaDrill
T1C0.400
; #@! TA.AperFunction,Plated,PTH,ComponentDrill
T2C1.000
; #@! TA.AperFunction,Plated,PTH,ComponentDrill
T3C1.040
; #@! TA.AperFunction,Plated,PTH,ComponentDrill
T4C1.200
%
G90
G05
T1
X73.6Y-111.25
X74.19Y-85.28
X74.19Y-90.33
X74.19Y-98.19
X74.19Y-106.12
X75.18Y-79.54
X76.9Y-87.05
X76.9Y-89.05
X76.9Y-91.05
X76.9Y-93.05
X76.9Y-95.05
X76.9Y-97.05
X76.9Y-99.05
X76.9Y-101.05
X77.6Y-113.3
X83.925Y-112.325
X85.65Y-87.55
X89.25Y-94.95
X89.85Y-82.95
X91.6Y-77.7
X92.447Y-91.393
X97.6Y-91.4
X108.68Y-113.15
X112.6Y-110.77
X121.3Y-84.5
X131.45Y-91.6
T2
X84.46Y-108.1
X87.0Y-108.1
X125.945Y-104.0
X128.485Y-104.0
X131.025Y-104.0
T3
X85.89Y-74.177
X85.89Y-99.578
X88.43Y-74.177
X88.43Y-99.578
X90.97Y-74.177
X90.97Y-99.578
X93.51Y-74.177
X93.51Y-99.578
X96.05Y-74.177
X96.05Y-99.578
X98.59Y-74.177
X98.59Y-99.578
X101.13Y-74.177
X101.13Y-99.578
X103.67Y-74.177
X103.67Y-99.578
X106.21Y-74.177
X106.21Y-99.578
X108.75Y-74.177
X108.75Y-99.578
X111.29Y-74.177
X111.29Y-99.578
X113.83Y-74.177
X113.83Y-99.578
X116.37Y-74.177
X116.37Y-99.578
X118.91Y-74.177
X118.91Y-99.578
X121.45Y-74.177
X121.45Y-99.578
X123.99Y-74.177
X123.99Y-99.578
X126.53Y-74.177
X126.53Y-99.578
X129.07Y-74.177
X129.07Y-99.578
X131.61Y-74.177
X131.61Y-99.578
T4
X63.0Y-78.0
X63.0Y-81.5
X63.0Y-86.0
X63.0Y-89.5
X63.0Y-94.0
X63.0Y-97.5
X63.0Y-102.0
X63.0Y-105.5
X63.0Y-110.0
X63.0Y-113.5
X69.45Y-68.5
X69.45Y-123.0
X72.95Y-68.5
X72.95Y-123.0
X77.45Y-68.5
X77.45Y-123.0
X80.95Y-68.5
X80.95Y-123.0
X85.45Y-68.5
X85.45Y-123.0
X88.95Y-68.5
X88.95Y-123.0
X92.45Y-68.5
X92.45Y-123.0
X95.95Y-68.5
X95.95Y-123.0
X118.55Y-68.5
X118.6Y-123.0
X122.05Y-68.5
X122.1Y-123.0
X125.55Y-68.5
X125.6Y-123.0
X130.05Y-68.5
X130.1Y-123.0
X133.55Y-68.5
X133.6Y-123.0
X137.05Y-68.5
X137.1Y-123.0
X143.55Y-75.0
X143.55Y-78.5
X143.55Y-82.0
X143.55Y-86.5
X143.55Y-90.0
X143.55Y-93.5
X143.55Y-98.0
X143.55Y-101.5
X143.55Y-105.0
X143.55Y-109.5
X143.55Y-113.0
X143.55Y-116.5
T0
M30
