%FSLAX45Y45*%
G04 Gerber Fmt 4.5, Leading zero omitted, Abs format (unit mm)*
G04 Created by KiCad (PCBNEW (6.0.2)) date 2022-07-27 12:55:24*
%MOMM*%
%LPD*%
G01*
G04 APERTURE LIST*
%TA.AperFunction,Profile*%
%ADD10C,0.100000*%
%TD*%
%ADD11C,0.200000*%
%ADD12C,0.100000*%
G04 APERTURE END LIST*
D10*
X5800000Y-11800000D02*
X10945000Y-11800000D01*
X10945000Y-11800000D02*
X10945000Y-14300000D01*
X10945000Y-14300000D02*
X5800000Y-14300000D01*
X5800000Y-14300000D02*
X5800000Y-11800000D01*
D11*
D12*
X5950000Y-11950000D02*
X6050000Y-12050000D01*
X6050000Y-11950000D02*
X5950000Y-12050000D01*
X5950000Y-12204000D02*
X6050000Y-12304000D01*
X6050000Y-12204000D02*
X5950000Y-12304000D01*
X5950000Y-12458000D02*
X6050000Y-12558000D01*
X6050000Y-12458000D02*
X5950000Y-12558000D01*
X6204000Y-11950000D02*
X6304000Y-12050000D01*
X6304000Y-11950000D02*
X6204000Y-12050000D01*
X6204000Y-12204000D02*
X6304000Y-12304000D01*
X6304000Y-12204000D02*
X6204000Y-12304000D01*
X6204000Y-12458000D02*
X6304000Y-12558000D01*
X6304000Y-12458000D02*
X6204000Y-12558000D01*
X8195000Y-14050000D02*
X8295000Y-14150000D01*
X8295000Y-14050000D02*
X8195000Y-14150000D01*
X8449000Y-14050000D02*
X8549000Y-14150000D01*
X8549000Y-14050000D02*
X8449000Y-14150000D01*
X10440000Y-11950000D02*
X10540000Y-12050000D01*
X10540000Y-11950000D02*
X10440000Y-12050000D01*
X10440000Y-12204000D02*
X10540000Y-12304000D01*
X10540000Y-12204000D02*
X10440000Y-12304000D01*
X10440000Y-12458000D02*
X10540000Y-12558000D01*
X10540000Y-12458000D02*
X10440000Y-12558000D01*
X10694000Y-11950000D02*
X10794000Y-12050000D01*
X10794000Y-11950000D02*
X10694000Y-12050000D01*
X10694000Y-12204000D02*
X10794000Y-12304000D01*
X10794000Y-12204000D02*
X10694000Y-12304000D01*
X10694000Y-12458000D02*
X10794000Y-12558000D01*
X10794000Y-12458000D02*
X10694000Y-12558000D01*
D11*
X6052619Y-14615476D02*
X6052619Y-14415476D01*
X6100238Y-14415476D01*
X6128809Y-14425000D01*
X6147857Y-14444048D01*
X6157381Y-14463095D01*
X6166905Y-14501190D01*
X6166905Y-14529762D01*
X6157381Y-14567857D01*
X6147857Y-14586905D01*
X6128809Y-14605952D01*
X6100238Y-14615476D01*
X6052619Y-14615476D01*
X6252619Y-14615476D02*
X6252619Y-14482143D01*
X6252619Y-14520238D02*
X6262143Y-14501190D01*
X6271667Y-14491667D01*
X6290714Y-14482143D01*
X6309762Y-14482143D01*
X6376428Y-14615476D02*
X6376428Y-14482143D01*
X6376428Y-14415476D02*
X6366905Y-14425000D01*
X6376428Y-14434524D01*
X6385952Y-14425000D01*
X6376428Y-14415476D01*
X6376428Y-14434524D01*
X6500238Y-14615476D02*
X6481190Y-14605952D01*
X6471667Y-14586905D01*
X6471667Y-14415476D01*
X6605000Y-14615476D02*
X6585952Y-14605952D01*
X6576428Y-14586905D01*
X6576428Y-14415476D01*
X6833571Y-14615476D02*
X6833571Y-14415476D01*
X6900238Y-14558333D01*
X6966905Y-14415476D01*
X6966905Y-14615476D01*
X7147857Y-14615476D02*
X7147857Y-14510714D01*
X7138333Y-14491667D01*
X7119286Y-14482143D01*
X7081190Y-14482143D01*
X7062143Y-14491667D01*
X7147857Y-14605952D02*
X7128809Y-14615476D01*
X7081190Y-14615476D01*
X7062143Y-14605952D01*
X7052619Y-14586905D01*
X7052619Y-14567857D01*
X7062143Y-14548809D01*
X7081190Y-14539286D01*
X7128809Y-14539286D01*
X7147857Y-14529762D01*
X7243095Y-14482143D02*
X7243095Y-14682143D01*
X7243095Y-14491667D02*
X7262143Y-14482143D01*
X7300238Y-14482143D01*
X7319286Y-14491667D01*
X7328809Y-14501190D01*
X7338333Y-14520238D01*
X7338333Y-14577381D01*
X7328809Y-14596428D01*
X7319286Y-14605952D01*
X7300238Y-14615476D01*
X7262143Y-14615476D01*
X7243095Y-14605952D01*
X7424048Y-14596428D02*
X7433571Y-14605952D01*
X7424048Y-14615476D01*
X7414524Y-14605952D01*
X7424048Y-14596428D01*
X7424048Y-14615476D01*
X7424048Y-14491667D02*
X7433571Y-14501190D01*
X7424048Y-14510714D01*
X7414524Y-14501190D01*
X7424048Y-14491667D01*
X7424048Y-14510714D01*
D12*
X5695000Y-14895000D02*
X5795000Y-14995000D01*
X5795000Y-14895000D02*
X5695000Y-14995000D01*
D11*
X6157381Y-15035476D02*
X6043095Y-15035476D01*
X6100238Y-15035476D02*
X6100238Y-14835476D01*
X6081190Y-14864048D01*
X6062143Y-14883095D01*
X6043095Y-14892619D01*
X6243095Y-15016428D02*
X6252619Y-15025952D01*
X6243095Y-15035476D01*
X6233571Y-15025952D01*
X6243095Y-15016428D01*
X6243095Y-15035476D01*
X6376428Y-14835476D02*
X6395476Y-14835476D01*
X6414524Y-14845000D01*
X6424048Y-14854524D01*
X6433571Y-14873571D01*
X6443095Y-14911667D01*
X6443095Y-14959286D01*
X6433571Y-14997381D01*
X6424048Y-15016428D01*
X6414524Y-15025952D01*
X6395476Y-15035476D01*
X6376428Y-15035476D01*
X6357381Y-15025952D01*
X6347857Y-15016428D01*
X6338333Y-14997381D01*
X6328809Y-14959286D01*
X6328809Y-14911667D01*
X6338333Y-14873571D01*
X6347857Y-14854524D01*
X6357381Y-14845000D01*
X6376428Y-14835476D01*
X6566905Y-14835476D02*
X6585952Y-14835476D01*
X6605000Y-14845000D01*
X6614524Y-14854524D01*
X6624048Y-14873571D01*
X6633571Y-14911667D01*
X6633571Y-14959286D01*
X6624048Y-14997381D01*
X6614524Y-15016428D01*
X6605000Y-15025952D01*
X6585952Y-15035476D01*
X6566905Y-15035476D01*
X6547857Y-15025952D01*
X6538333Y-15016428D01*
X6528809Y-14997381D01*
X6519286Y-14959286D01*
X6519286Y-14911667D01*
X6528809Y-14873571D01*
X6538333Y-14854524D01*
X6547857Y-14845000D01*
X6566905Y-14835476D01*
X6757381Y-14835476D02*
X6776428Y-14835476D01*
X6795476Y-14845000D01*
X6805000Y-14854524D01*
X6814524Y-14873571D01*
X6824048Y-14911667D01*
X6824048Y-14959286D01*
X6814524Y-14997381D01*
X6805000Y-15016428D01*
X6795476Y-15025952D01*
X6776428Y-15035476D01*
X6757381Y-15035476D01*
X6738333Y-15025952D01*
X6728809Y-15016428D01*
X6719286Y-14997381D01*
X6709762Y-14959286D01*
X6709762Y-14911667D01*
X6719286Y-14873571D01*
X6728809Y-14854524D01*
X6738333Y-14845000D01*
X6757381Y-14835476D01*
X6909762Y-15035476D02*
X6909762Y-14902143D01*
X6909762Y-14921190D02*
X6919286Y-14911667D01*
X6938333Y-14902143D01*
X6966905Y-14902143D01*
X6985952Y-14911667D01*
X6995476Y-14930714D01*
X6995476Y-15035476D01*
X6995476Y-14930714D02*
X7005000Y-14911667D01*
X7024048Y-14902143D01*
X7052619Y-14902143D01*
X7071667Y-14911667D01*
X7081190Y-14930714D01*
X7081190Y-15035476D01*
X7176428Y-15035476D02*
X7176428Y-14902143D01*
X7176428Y-14921190D02*
X7185952Y-14911667D01*
X7205000Y-14902143D01*
X7233571Y-14902143D01*
X7252619Y-14911667D01*
X7262143Y-14930714D01*
X7262143Y-15035476D01*
X7262143Y-14930714D02*
X7271667Y-14911667D01*
X7290714Y-14902143D01*
X7319286Y-14902143D01*
X7338333Y-14911667D01*
X7347857Y-14930714D01*
X7347857Y-15035476D01*
X7738333Y-14825952D02*
X7566905Y-15083095D01*
X7995476Y-14835476D02*
X8014524Y-14835476D01*
X8033571Y-14845000D01*
X8043095Y-14854524D01*
X8052619Y-14873571D01*
X8062143Y-14911667D01*
X8062143Y-14959286D01*
X8052619Y-14997381D01*
X8043095Y-15016428D01*
X8033571Y-15025952D01*
X8014524Y-15035476D01*
X7995476Y-15035476D01*
X7976428Y-15025952D01*
X7966905Y-15016428D01*
X7957381Y-14997381D01*
X7947857Y-14959286D01*
X7947857Y-14911667D01*
X7957381Y-14873571D01*
X7966905Y-14854524D01*
X7976428Y-14845000D01*
X7995476Y-14835476D01*
X8147857Y-15016428D02*
X8157381Y-15025952D01*
X8147857Y-15035476D01*
X8138333Y-15025952D01*
X8147857Y-15016428D01*
X8147857Y-15035476D01*
X8281190Y-14835476D02*
X8300238Y-14835476D01*
X8319286Y-14845000D01*
X8328809Y-14854524D01*
X8338333Y-14873571D01*
X8347857Y-14911667D01*
X8347857Y-14959286D01*
X8338333Y-14997381D01*
X8328809Y-15016428D01*
X8319286Y-15025952D01*
X8300238Y-15035476D01*
X8281190Y-15035476D01*
X8262143Y-15025952D01*
X8252619Y-15016428D01*
X8243095Y-14997381D01*
X8233571Y-14959286D01*
X8233571Y-14911667D01*
X8243095Y-14873571D01*
X8252619Y-14854524D01*
X8262143Y-14845000D01*
X8281190Y-14835476D01*
X8414524Y-14835476D02*
X8538333Y-14835476D01*
X8471667Y-14911667D01*
X8500238Y-14911667D01*
X8519286Y-14921190D01*
X8528810Y-14930714D01*
X8538333Y-14949762D01*
X8538333Y-14997381D01*
X8528810Y-15016428D01*
X8519286Y-15025952D01*
X8500238Y-15035476D01*
X8443095Y-15035476D01*
X8424048Y-15025952D01*
X8414524Y-15016428D01*
X8633571Y-15035476D02*
X8671667Y-15035476D01*
X8690714Y-15025952D01*
X8700238Y-15016428D01*
X8719286Y-14987857D01*
X8728810Y-14949762D01*
X8728810Y-14873571D01*
X8719286Y-14854524D01*
X8709762Y-14845000D01*
X8690714Y-14835476D01*
X8652619Y-14835476D01*
X8633571Y-14845000D01*
X8624048Y-14854524D01*
X8614524Y-14873571D01*
X8614524Y-14921190D01*
X8624048Y-14940238D01*
X8633571Y-14949762D01*
X8652619Y-14959286D01*
X8690714Y-14959286D01*
X8709762Y-14949762D01*
X8719286Y-14940238D01*
X8728810Y-14921190D01*
X8900238Y-14902143D02*
X8900238Y-15035476D01*
X8852619Y-14825952D02*
X8805000Y-14968809D01*
X8928810Y-14968809D01*
X8995476Y-14835476D02*
X8995476Y-14873571D01*
X9071667Y-14835476D02*
X9071667Y-14873571D01*
X9366905Y-15111667D02*
X9357381Y-15102143D01*
X9338333Y-15073571D01*
X9328810Y-15054524D01*
X9319286Y-15025952D01*
X9309762Y-14978333D01*
X9309762Y-14940238D01*
X9319286Y-14892619D01*
X9328810Y-14864048D01*
X9338333Y-14845000D01*
X9357381Y-14816428D01*
X9366905Y-14806905D01*
X9547857Y-15035476D02*
X9433571Y-15035476D01*
X9490714Y-15035476D02*
X9490714Y-14835476D01*
X9471667Y-14864048D01*
X9452619Y-14883095D01*
X9433571Y-14892619D01*
X9719286Y-14902143D02*
X9719286Y-15035476D01*
X9671667Y-14825952D02*
X9624048Y-14968809D01*
X9747857Y-14968809D01*
X9976429Y-15035476D02*
X9976429Y-14835476D01*
X10062143Y-15035476D02*
X10062143Y-14930714D01*
X10052619Y-14911667D01*
X10033571Y-14902143D01*
X10005000Y-14902143D01*
X9985952Y-14911667D01*
X9976429Y-14921190D01*
X10185952Y-15035476D02*
X10166905Y-15025952D01*
X10157381Y-15016428D01*
X10147857Y-14997381D01*
X10147857Y-14940238D01*
X10157381Y-14921190D01*
X10166905Y-14911667D01*
X10185952Y-14902143D01*
X10214524Y-14902143D01*
X10233571Y-14911667D01*
X10243095Y-14921190D01*
X10252619Y-14940238D01*
X10252619Y-14997381D01*
X10243095Y-15016428D01*
X10233571Y-15025952D01*
X10214524Y-15035476D01*
X10185952Y-15035476D01*
X10366905Y-15035476D02*
X10347857Y-15025952D01*
X10338333Y-15006905D01*
X10338333Y-14835476D01*
X10519286Y-15025952D02*
X10500238Y-15035476D01*
X10462143Y-15035476D01*
X10443095Y-15025952D01*
X10433571Y-15006905D01*
X10433571Y-14930714D01*
X10443095Y-14911667D01*
X10462143Y-14902143D01*
X10500238Y-14902143D01*
X10519286Y-14911667D01*
X10528810Y-14930714D01*
X10528810Y-14949762D01*
X10433571Y-14968809D01*
X10605000Y-15025952D02*
X10624048Y-15035476D01*
X10662143Y-15035476D01*
X10681190Y-15025952D01*
X10690714Y-15006905D01*
X10690714Y-14997381D01*
X10681190Y-14978333D01*
X10662143Y-14968809D01*
X10633571Y-14968809D01*
X10614524Y-14959286D01*
X10605000Y-14940238D01*
X10605000Y-14930714D01*
X10614524Y-14911667D01*
X10633571Y-14902143D01*
X10662143Y-14902143D01*
X10681190Y-14911667D01*
X10757381Y-15111667D02*
X10766905Y-15102143D01*
X10785952Y-15073571D01*
X10795476Y-15054524D01*
X10805000Y-15025952D01*
X10814524Y-14978333D01*
X10814524Y-14940238D01*
X10805000Y-14892619D01*
X10795476Y-14864048D01*
X10785952Y-14845000D01*
X10766905Y-14816428D01*
X10757381Y-14806905D01*
M02*
