G04 #@! TF.GenerationSoftware,KiCad,Pcbnew,(6.0.2)*
G04 #@! TF.CreationDate,2022-07-27T12:55:18+02:00*
G04 #@! TF.ProjectId,DC-DC-Converter,44432d44-432d-4436-9f6e-766572746572,rev?*
G04 #@! TF.SameCoordinates,Original*
G04 #@! TF.FileFunction,Copper,L2,Bot*
G04 #@! TF.FilePolarity,Positive*
%FSLAX46Y46*%
G04 Gerber Fmt 4.6, Leading zero omitted, Abs format (unit mm)*
G04 Created by KiCad (PCBNEW (6.0.2)) date 2022-07-27 12:55:18*
%MOMM*%
%LPD*%
G01*
G04 APERTURE LIST*
G04 #@! TA.AperFunction,ComponentPad*
%ADD10O,1.700000X1.700000*%
G04 #@! TD*
G04 #@! TA.AperFunction,ComponentPad*
%ADD11R,1.700000X1.700000*%
G04 #@! TD*
G04 APERTURE END LIST*
D10*
X107440000Y-125080000D03*
X104900000Y-125080000D03*
X107440000Y-122540000D03*
X104900000Y-122540000D03*
X107440000Y-120000000D03*
D11*
X104900000Y-120000000D03*
D10*
X62540000Y-125080000D03*
X60000000Y-125080000D03*
X62540000Y-122540000D03*
X60000000Y-122540000D03*
X62540000Y-120000000D03*
D11*
X60000000Y-120000000D03*
D10*
X84990000Y-141000000D03*
D11*
X82450000Y-141000000D03*
G04 #@! TA.AperFunction,Conductor*
G36*
X103749396Y-118528002D02*
G01*
X103795889Y-118581658D01*
X103805993Y-118651932D01*
X103776499Y-118716512D01*
X103756840Y-118734826D01*
X103694276Y-118781715D01*
X103681715Y-118794276D01*
X103605214Y-118896351D01*
X103596676Y-118911946D01*
X103551522Y-119032394D01*
X103547895Y-119047649D01*
X103542369Y-119098514D01*
X103542000Y-119105328D01*
X103542000Y-119727885D01*
X103546475Y-119743124D01*
X103547865Y-119744329D01*
X103555548Y-119746000D01*
X105028000Y-119746000D01*
X105096121Y-119766002D01*
X105142614Y-119819658D01*
X105154000Y-119872000D01*
X105154000Y-126398517D01*
X105158064Y-126412359D01*
X105171478Y-126414393D01*
X105178184Y-126413534D01*
X105188262Y-126411392D01*
X105392255Y-126350191D01*
X105401842Y-126346433D01*
X105593095Y-126252739D01*
X105601945Y-126247464D01*
X105775328Y-126123792D01*
X105783200Y-126117139D01*
X105934052Y-125966812D01*
X105940730Y-125958965D01*
X106068022Y-125781819D01*
X106069279Y-125782722D01*
X106116373Y-125739362D01*
X106186311Y-125727145D01*
X106251751Y-125754678D01*
X106279579Y-125786511D01*
X106339987Y-125885088D01*
X106486250Y-126053938D01*
X106658126Y-126196632D01*
X106851000Y-126309338D01*
X107059692Y-126389030D01*
X107064760Y-126390061D01*
X107064763Y-126390062D01*
X107159862Y-126409410D01*
X107278597Y-126433567D01*
X107283772Y-126433757D01*
X107283774Y-126433757D01*
X107496673Y-126441564D01*
X107496677Y-126441564D01*
X107501837Y-126441753D01*
X107506957Y-126441097D01*
X107506959Y-126441097D01*
X107718288Y-126414025D01*
X107718289Y-126414025D01*
X107723416Y-126413368D01*
X107728366Y-126411883D01*
X107932429Y-126350661D01*
X107932434Y-126350659D01*
X107937384Y-126349174D01*
X108137994Y-126250896D01*
X108319860Y-126121173D01*
X108478096Y-125963489D01*
X108608453Y-125782077D01*
X108621995Y-125754678D01*
X108703043Y-125590687D01*
X108751156Y-125538480D01*
X108819857Y-125520573D01*
X108887334Y-125542651D01*
X108932162Y-125597705D01*
X108942000Y-125646514D01*
X108942000Y-142366000D01*
X108921998Y-142434121D01*
X108868342Y-142480614D01*
X108816000Y-142492000D01*
X85575004Y-142492000D01*
X85506883Y-142471998D01*
X85460390Y-142418342D01*
X85450286Y-142348068D01*
X85479780Y-142283488D01*
X85519571Y-142252849D01*
X85683095Y-142172739D01*
X85691945Y-142167464D01*
X85865328Y-142043792D01*
X85873200Y-142037139D01*
X86024052Y-141886812D01*
X86030730Y-141878965D01*
X86155003Y-141706020D01*
X86160313Y-141697183D01*
X86254670Y-141506267D01*
X86258469Y-141496672D01*
X86320377Y-141292910D01*
X86322555Y-141282837D01*
X86323986Y-141271962D01*
X86321775Y-141257778D01*
X86308617Y-141254000D01*
X84862000Y-141254000D01*
X84793879Y-141233998D01*
X84747386Y-141180342D01*
X84736000Y-141128000D01*
X84736000Y-140727885D01*
X85244000Y-140727885D01*
X85248475Y-140743124D01*
X85249865Y-140744329D01*
X85257548Y-140746000D01*
X86308344Y-140746000D01*
X86321875Y-140742027D01*
X86323180Y-140732947D01*
X86281214Y-140565875D01*
X86277894Y-140556124D01*
X86192972Y-140360814D01*
X86188105Y-140351739D01*
X86072426Y-140172926D01*
X86066136Y-140164757D01*
X85922806Y-140007240D01*
X85915273Y-140000215D01*
X85748139Y-139868222D01*
X85739552Y-139862517D01*
X85553117Y-139759599D01*
X85543705Y-139755369D01*
X85342959Y-139684280D01*
X85332988Y-139681646D01*
X85261837Y-139668972D01*
X85248540Y-139670432D01*
X85244000Y-139684989D01*
X85244000Y-140727885D01*
X84736000Y-140727885D01*
X84736000Y-139683102D01*
X84732082Y-139669758D01*
X84717806Y-139667771D01*
X84679324Y-139673660D01*
X84669288Y-139676051D01*
X84466868Y-139742212D01*
X84457359Y-139746209D01*
X84268463Y-139844542D01*
X84259738Y-139850036D01*
X84089433Y-139977905D01*
X84081726Y-139984748D01*
X84004478Y-140065584D01*
X83942954Y-140101014D01*
X83872042Y-140097557D01*
X83814255Y-140056311D01*
X83795402Y-140022763D01*
X83753767Y-139911703D01*
X83750615Y-139903295D01*
X83663261Y-139786739D01*
X83546705Y-139699385D01*
X83410316Y-139648255D01*
X83348134Y-139641500D01*
X81551866Y-139641500D01*
X81489684Y-139648255D01*
X81353295Y-139699385D01*
X81236739Y-139786739D01*
X81149385Y-139903295D01*
X81098255Y-140039684D01*
X81091500Y-140101866D01*
X81091500Y-141898134D01*
X81098255Y-141960316D01*
X81149385Y-142096705D01*
X81236739Y-142213261D01*
X81243919Y-142218642D01*
X81243920Y-142218643D01*
X81306006Y-142265174D01*
X81348521Y-142322033D01*
X81353547Y-142392852D01*
X81319487Y-142455145D01*
X81257155Y-142489135D01*
X81230441Y-142492000D01*
X58634000Y-142492000D01*
X58565879Y-142471998D01*
X58519386Y-142418342D01*
X58508000Y-142366000D01*
X58508000Y-125660595D01*
X58528002Y-125592474D01*
X58581658Y-125545981D01*
X58651932Y-125535877D01*
X58716512Y-125565371D01*
X58750743Y-125613191D01*
X58781770Y-125689603D01*
X58786413Y-125698794D01*
X58897694Y-125880388D01*
X58903777Y-125888699D01*
X59043213Y-126049667D01*
X59050580Y-126056883D01*
X59214434Y-126192916D01*
X59222881Y-126198831D01*
X59406756Y-126306279D01*
X59416042Y-126310729D01*
X59615001Y-126386703D01*
X59624899Y-126389579D01*
X59728250Y-126410606D01*
X59742299Y-126409410D01*
X59746000Y-126399065D01*
X59746000Y-119872000D01*
X59766002Y-119803879D01*
X59819658Y-119757386D01*
X59872000Y-119746000D01*
X60128000Y-119746000D01*
X60196121Y-119766002D01*
X60242614Y-119819658D01*
X60254000Y-119872000D01*
X60254000Y-126398517D01*
X60258064Y-126412359D01*
X60271478Y-126414393D01*
X60278184Y-126413534D01*
X60288262Y-126411392D01*
X60492255Y-126350191D01*
X60501842Y-126346433D01*
X60693095Y-126252739D01*
X60701945Y-126247464D01*
X60875328Y-126123792D01*
X60883200Y-126117139D01*
X61034052Y-125966812D01*
X61040730Y-125958965D01*
X61168022Y-125781819D01*
X61169279Y-125782722D01*
X61216373Y-125739362D01*
X61286311Y-125727145D01*
X61351751Y-125754678D01*
X61379579Y-125786511D01*
X61439987Y-125885088D01*
X61586250Y-126053938D01*
X61758126Y-126196632D01*
X61951000Y-126309338D01*
X62159692Y-126389030D01*
X62164760Y-126390061D01*
X62164763Y-126390062D01*
X62259862Y-126409410D01*
X62378597Y-126433567D01*
X62383772Y-126433757D01*
X62383774Y-126433757D01*
X62596673Y-126441564D01*
X62596677Y-126441564D01*
X62601837Y-126441753D01*
X62606957Y-126441097D01*
X62606959Y-126441097D01*
X62818288Y-126414025D01*
X62818289Y-126414025D01*
X62823416Y-126413368D01*
X62828366Y-126411883D01*
X63032429Y-126350661D01*
X63032434Y-126350659D01*
X63037384Y-126349174D01*
X63237994Y-126250896D01*
X63419860Y-126121173D01*
X63578096Y-125963489D01*
X63708453Y-125782077D01*
X63721995Y-125754678D01*
X63805136Y-125586453D01*
X63805137Y-125586451D01*
X63807430Y-125581811D01*
X63872370Y-125368069D01*
X63875017Y-125347966D01*
X103568257Y-125347966D01*
X103598565Y-125482446D01*
X103601645Y-125492275D01*
X103681770Y-125689603D01*
X103686413Y-125698794D01*
X103797694Y-125880388D01*
X103803777Y-125888699D01*
X103943213Y-126049667D01*
X103950580Y-126056883D01*
X104114434Y-126192916D01*
X104122881Y-126198831D01*
X104306756Y-126306279D01*
X104316042Y-126310729D01*
X104515001Y-126386703D01*
X104524899Y-126389579D01*
X104628250Y-126410606D01*
X104642299Y-126409410D01*
X104646000Y-126399065D01*
X104646000Y-125352115D01*
X104641525Y-125336876D01*
X104640135Y-125335671D01*
X104632452Y-125334000D01*
X103583225Y-125334000D01*
X103569694Y-125337973D01*
X103568257Y-125347966D01*
X63875017Y-125347966D01*
X63901529Y-125146590D01*
X63903156Y-125080000D01*
X63884852Y-124857361D01*
X63874006Y-124814183D01*
X103564389Y-124814183D01*
X103565912Y-124822607D01*
X103578292Y-124826000D01*
X104627885Y-124826000D01*
X104643124Y-124821525D01*
X104644329Y-124820135D01*
X104646000Y-124812452D01*
X104646000Y-122812115D01*
X104641525Y-122796876D01*
X104640135Y-122795671D01*
X104632452Y-122794000D01*
X103583225Y-122794000D01*
X103569694Y-122797973D01*
X103568257Y-122807966D01*
X103598565Y-122942446D01*
X103601645Y-122952275D01*
X103681770Y-123149603D01*
X103686413Y-123158794D01*
X103797694Y-123340388D01*
X103803777Y-123348699D01*
X103943213Y-123509667D01*
X103950580Y-123516883D01*
X104114434Y-123652916D01*
X104122881Y-123658831D01*
X104192479Y-123699501D01*
X104241203Y-123751140D01*
X104254274Y-123820923D01*
X104227543Y-123886694D01*
X104187087Y-123920053D01*
X104178462Y-123924542D01*
X104169738Y-123930036D01*
X103999433Y-124057905D01*
X103991726Y-124064748D01*
X103844590Y-124218717D01*
X103838104Y-124226727D01*
X103718098Y-124402649D01*
X103713000Y-124411623D01*
X103623338Y-124604783D01*
X103619775Y-124614470D01*
X103564389Y-124814183D01*
X63874006Y-124814183D01*
X63830431Y-124640702D01*
X63741354Y-124435840D01*
X63620014Y-124248277D01*
X63469670Y-124083051D01*
X63465619Y-124079852D01*
X63465615Y-124079848D01*
X63298414Y-123947800D01*
X63298410Y-123947798D01*
X63294359Y-123944598D01*
X63253053Y-123921796D01*
X63203084Y-123871364D01*
X63188312Y-123801921D01*
X63213428Y-123735516D01*
X63240780Y-123708909D01*
X63284603Y-123677650D01*
X63419860Y-123581173D01*
X63578096Y-123423489D01*
X63708453Y-123242077D01*
X63721995Y-123214678D01*
X63805136Y-123046453D01*
X63805137Y-123046451D01*
X63807430Y-123041811D01*
X63872370Y-122828069D01*
X63901529Y-122606590D01*
X63903156Y-122540000D01*
X63884852Y-122317361D01*
X63830431Y-122100702D01*
X63741354Y-121895840D01*
X63620014Y-121708277D01*
X63469670Y-121543051D01*
X63465619Y-121539852D01*
X63465615Y-121539848D01*
X63298414Y-121407800D01*
X63298410Y-121407798D01*
X63294359Y-121404598D01*
X63253053Y-121381796D01*
X63203084Y-121331364D01*
X63188312Y-121261921D01*
X63213428Y-121195516D01*
X63240780Y-121168909D01*
X63304440Y-121123501D01*
X63419860Y-121041173D01*
X63566877Y-120894669D01*
X103542001Y-120894669D01*
X103542371Y-120901490D01*
X103547895Y-120952352D01*
X103551521Y-120967604D01*
X103596676Y-121088054D01*
X103605214Y-121103649D01*
X103681715Y-121205724D01*
X103694276Y-121218285D01*
X103796351Y-121294786D01*
X103811946Y-121303324D01*
X103921337Y-121344333D01*
X103978101Y-121386975D01*
X104002801Y-121453536D01*
X103987594Y-121522885D01*
X103968201Y-121549366D01*
X103844590Y-121678717D01*
X103838104Y-121686727D01*
X103718098Y-121862649D01*
X103713000Y-121871623D01*
X103623338Y-122064783D01*
X103619775Y-122074470D01*
X103564389Y-122274183D01*
X103565912Y-122282607D01*
X103578292Y-122286000D01*
X104627885Y-122286000D01*
X104643124Y-122281525D01*
X104644329Y-122280135D01*
X104646000Y-122272452D01*
X104646000Y-120272115D01*
X104641525Y-120256876D01*
X104640135Y-120255671D01*
X104632452Y-120254000D01*
X103560116Y-120254000D01*
X103544877Y-120258475D01*
X103543672Y-120259865D01*
X103542001Y-120267548D01*
X103542001Y-120894669D01*
X63566877Y-120894669D01*
X63578096Y-120883489D01*
X63708453Y-120702077D01*
X63807430Y-120501811D01*
X63872370Y-120288069D01*
X63901529Y-120066590D01*
X63903156Y-120000000D01*
X63884852Y-119777361D01*
X63830431Y-119560702D01*
X63741354Y-119355840D01*
X63620014Y-119168277D01*
X63469670Y-119003051D01*
X63465619Y-118999852D01*
X63465615Y-118999848D01*
X63298414Y-118867800D01*
X63298410Y-118867798D01*
X63294359Y-118864598D01*
X63280306Y-118856840D01*
X63166970Y-118794276D01*
X63098789Y-118756638D01*
X63093919Y-118754913D01*
X63093909Y-118754909D01*
X63087874Y-118752772D01*
X63030338Y-118711178D01*
X63004423Y-118645080D01*
X63018358Y-118575464D01*
X63067717Y-118524433D01*
X63129935Y-118508000D01*
X103681275Y-118508000D01*
X103749396Y-118528002D01*
G37*
G04 #@! TD.AperFunction*
M02*
