G04 #@! TF.GenerationSoftware,KiCad,Pcbnew,(6.0.2)*
G04 #@! TF.CreationDate,2023-09-26T16:39:09+02:00*
G04 #@! TF.ProjectId,PCB_Layout_MOSFET,5043425f-4c61-4796-9f75-745f4d4f5346,rev?*
G04 #@! TF.SameCoordinates,Original*
G04 #@! TF.FileFunction,Legend,Top*
G04 #@! TF.FilePolarity,Positive*
%FSLAX46Y46*%
G04 Gerber Fmt 4.6, Leading zero omitted, Abs format (unit mm)*
G04 Created by KiCad (PCBNEW (6.0.2)) date 2023-09-26 16:39:09*
%MOMM*%
%LPD*%
G01*
G04 APERTURE LIST*
G04 Aperture macros list*
%AMRoundRect*
0 Rectangle with rounded corners*
0 $1 Rounding radius*
0 $2 $3 $4 $5 $6 $7 $8 $9 X,Y pos of 4 corners*
0 Add a 4 corners polygon primitive as box body*
4,1,4,$2,$3,$4,$5,$6,$7,$8,$9,$2,$3,0*
0 Add four circle primitives for the rounded corners*
1,1,$1+$1,$2,$3*
1,1,$1+$1,$4,$5*
1,1,$1+$1,$6,$7*
1,1,$1+$1,$8,$9*
0 Add four rect primitives between the rounded corners*
20,1,$1+$1,$2,$3,$4,$5,0*
20,1,$1+$1,$4,$5,$6,$7,0*
20,1,$1+$1,$6,$7,$8,$9,0*
20,1,$1+$1,$8,$9,$2,$3,0*%
G04 Aperture macros list end*
%ADD10C,0.391228*%
%ADD11C,0.100000*%
%ADD12C,0.150000*%
%ADD13C,0.254000*%
%ADD14C,0.120000*%
%ADD15C,0.200000*%
%ADD16C,0.160000*%
%ADD17C,0.250000*%
%ADD18C,0.127000*%
%ADD19C,0.400000*%
%ADD20RoundRect,0.250000X-0.262500X-0.450000X0.262500X-0.450000X0.262500X0.450000X-0.262500X0.450000X0*%
%ADD21C,2.500000*%
%ADD22R,2.500000X1.800000*%
%ADD23R,2.400000X2.400000*%
%ADD24C,2.400000*%
%ADD25RoundRect,0.250000X-0.450000X0.262500X-0.450000X-0.262500X0.450000X-0.262500X0.450000X0.262500X0*%
%ADD26R,0.700000X1.550000*%
%ADD27C,4.300000*%
%ADD28RoundRect,0.250000X0.375000X1.075000X-0.375000X1.075000X-0.375000X-1.075000X0.375000X-1.075000X0*%
%ADD29RoundRect,0.225000X-0.225000X-0.250000X0.225000X-0.250000X0.225000X0.250000X-0.225000X0.250000X0*%
%ADD30R,0.400000X0.400000*%
%ADD31R,0.400000X0.300000*%
%ADD32R,2.650000X2.200000*%
%ADD33RoundRect,0.250000X-1.500000X-0.550000X1.500000X-0.550000X1.500000X0.550000X-1.500000X0.550000X0*%
%ADD34R,0.300000X0.400000*%
%ADD35R,2.200000X2.650000*%
%ADD36RoundRect,0.250000X-0.475000X0.250000X-0.475000X-0.250000X0.475000X-0.250000X0.475000X0.250000X0*%
%ADD37RoundRect,0.250000X-1.950000X-1.000000X1.950000X-1.000000X1.950000X1.000000X-1.950000X1.000000X0*%
%ADD38R,1.800000X2.500000*%
%ADD39R,0.300000X0.750000*%
%ADD40R,2.550000X1.850000*%
%ADD41RoundRect,0.250000X0.475000X-0.250000X0.475000X0.250000X-0.475000X0.250000X-0.475000X-0.250000X0*%
%ADD42R,1.560000X1.560000*%
%ADD43C,1.560000*%
%ADD44RoundRect,0.250000X-0.312500X-0.625000X0.312500X-0.625000X0.312500X0.625000X-0.312500X0.625000X0*%
%ADD45RoundRect,0.225000X0.250000X-0.225000X0.250000X0.225000X-0.250000X0.225000X-0.250000X-0.225000X0*%
%ADD46R,1.600000X1.400000*%
%ADD47C,1.800000*%
%ADD48C,1.700000*%
%ADD49R,2.400000X2.800000*%
%ADD50R,1.525000X0.650000*%
%ADD51RoundRect,0.250000X0.262500X0.450000X-0.262500X0.450000X-0.262500X-0.450000X0.262500X-0.450000X0*%
%ADD52RoundRect,0.250000X-0.850000X0.375000X-0.850000X-0.375000X0.850000X-0.375000X0.850000X0.375000X0*%
%ADD53RoundRect,0.218750X-0.256250X0.218750X-0.256250X-0.218750X0.256250X-0.218750X0.256250X0.218750X0*%
%ADD54RoundRect,0.250000X0.450000X-0.262500X0.450000X0.262500X-0.450000X0.262500X-0.450000X-0.262500X0*%
%ADD55RoundRect,0.200000X0.200000X0.275000X-0.200000X0.275000X-0.200000X-0.275000X0.200000X-0.275000X0*%
%ADD56RoundRect,0.225000X0.225000X0.250000X-0.225000X0.250000X-0.225000X-0.250000X0.225000X-0.250000X0*%
%ADD57RoundRect,0.250000X1.500000X0.550000X-1.500000X0.550000X-1.500000X-0.550000X1.500000X-0.550000X0*%
%ADD58R,0.650000X1.525000*%
%ADD59RoundRect,0.225000X-0.250000X0.225000X-0.250000X-0.225000X0.250000X-0.225000X0.250000X0.225000X0*%
G04 APERTURE END LIST*
D10*
X130995614Y-84100000D02*
G75*
G03*
X130995614Y-84100000I-195614J0D01*
G01*
X113895614Y-111300000D02*
G75*
G03*
X113895614Y-111300000I-195614J0D01*
G01*
D11*
X113100000Y-66700000D02*
X113100000Y-68900000D01*
D10*
X133795614Y-74200000D02*
G75*
G03*
X133795614Y-74200000I-195614J0D01*
G01*
X87795614Y-93400000D02*
G75*
G03*
X87795614Y-93400000I-195614J0D01*
G01*
D11*
X116000000Y-65500000D02*
X116000000Y-68700000D01*
X94350000Y-122050000D02*
X94350000Y-120050000D01*
D12*
X138028571Y-92426190D02*
X138028571Y-92092857D01*
X138552380Y-91950000D02*
X138552380Y-92426190D01*
X137552380Y-92426190D01*
X137552380Y-91950000D01*
X138504761Y-91569047D02*
X138552380Y-91426190D01*
X138552380Y-91188095D01*
X138504761Y-91092857D01*
X138457142Y-91045238D01*
X138361904Y-90997619D01*
X138266666Y-90997619D01*
X138171428Y-91045238D01*
X138123809Y-91092857D01*
X138076190Y-91188095D01*
X138028571Y-91378571D01*
X137980952Y-91473809D01*
X137933333Y-91521428D01*
X137838095Y-91569047D01*
X137742857Y-91569047D01*
X137647619Y-91521428D01*
X137600000Y-91473809D01*
X137552380Y-91378571D01*
X137552380Y-91140476D01*
X137600000Y-90997619D01*
X138552380Y-90569047D02*
X137552380Y-90569047D01*
X137552380Y-90188095D01*
X137600000Y-90092857D01*
X137647619Y-90045238D01*
X137742857Y-89997619D01*
X137885714Y-89997619D01*
X137980952Y-90045238D01*
X138028571Y-90092857D01*
X138076190Y-90188095D01*
X138076190Y-90569047D01*
X137552380Y-89664285D02*
X137552380Y-89045238D01*
X137933333Y-89378571D01*
X137933333Y-89235714D01*
X137980952Y-89140476D01*
X138028571Y-89092857D01*
X138123809Y-89045238D01*
X138361904Y-89045238D01*
X138457142Y-89092857D01*
X138504761Y-89140476D01*
X138552380Y-89235714D01*
X138552380Y-89521428D01*
X138504761Y-89616666D01*
X138457142Y-89664285D01*
X137647619Y-88664285D02*
X137600000Y-88616666D01*
X137552380Y-88521428D01*
X137552380Y-88283333D01*
X137600000Y-88188095D01*
X137647619Y-88140476D01*
X137742857Y-88092857D01*
X137838095Y-88092857D01*
X137980952Y-88140476D01*
X138552380Y-88711904D01*
X138552380Y-88092857D01*
X138266666Y-86950000D02*
X138266666Y-86473809D01*
X138552380Y-87045238D02*
X137552380Y-86711904D01*
X138552380Y-86378571D01*
X137885714Y-86045238D02*
X138552380Y-86045238D01*
X137980952Y-86045238D02*
X137933333Y-85997619D01*
X137885714Y-85902380D01*
X137885714Y-85759523D01*
X137933333Y-85664285D01*
X138028571Y-85616666D01*
X138552380Y-85616666D01*
X137885714Y-85283333D02*
X137885714Y-84902380D01*
X137552380Y-85140476D02*
X138409523Y-85140476D01*
X138504761Y-85092857D01*
X138552380Y-84997619D01*
X138552380Y-84902380D01*
X138504761Y-84188095D02*
X138552380Y-84283333D01*
X138552380Y-84473809D01*
X138504761Y-84569047D01*
X138409523Y-84616666D01*
X138028571Y-84616666D01*
X137933333Y-84569047D01*
X137885714Y-84473809D01*
X137885714Y-84283333D01*
X137933333Y-84188095D01*
X138028571Y-84140476D01*
X138123809Y-84140476D01*
X138219047Y-84616666D01*
X137885714Y-83711904D02*
X138552380Y-83711904D01*
X137980952Y-83711904D02*
X137933333Y-83664285D01*
X137885714Y-83569047D01*
X137885714Y-83426190D01*
X137933333Y-83330952D01*
X138028571Y-83283333D01*
X138552380Y-83283333D01*
X137885714Y-82807142D02*
X138552380Y-82807142D01*
X137980952Y-82807142D02*
X137933333Y-82759523D01*
X137885714Y-82664285D01*
X137885714Y-82521428D01*
X137933333Y-82426190D01*
X138028571Y-82378571D01*
X138552380Y-82378571D01*
X138552380Y-81473809D02*
X138028571Y-81473809D01*
X137933333Y-81521428D01*
X137885714Y-81616666D01*
X137885714Y-81807142D01*
X137933333Y-81902380D01*
X138504761Y-81473809D02*
X138552380Y-81569047D01*
X138552380Y-81807142D01*
X138504761Y-81902380D01*
X138409523Y-81950000D01*
X138314285Y-81950000D01*
X138219047Y-81902380D01*
X138171428Y-81807142D01*
X138171428Y-81569047D01*
X138123809Y-81473809D01*
X99957142Y-94819047D02*
X100004761Y-94866666D01*
X100052380Y-95009523D01*
X100052380Y-95104761D01*
X100004761Y-95247619D01*
X99909523Y-95342857D01*
X99814285Y-95390476D01*
X99623809Y-95438095D01*
X99480952Y-95438095D01*
X99290476Y-95390476D01*
X99195238Y-95342857D01*
X99100000Y-95247619D01*
X99052380Y-95104761D01*
X99052380Y-95009523D01*
X99100000Y-94866666D01*
X99147619Y-94819047D01*
X100052380Y-94390476D02*
X99052380Y-94390476D01*
X99052380Y-94152380D01*
X99100000Y-94009523D01*
X99195238Y-93914285D01*
X99290476Y-93866666D01*
X99480952Y-93819047D01*
X99623809Y-93819047D01*
X99814285Y-93866666D01*
X99909523Y-93914285D01*
X100004761Y-94009523D01*
X100052380Y-94152380D01*
X100052380Y-94390476D01*
X99385714Y-92961904D02*
X100052380Y-92961904D01*
X99004761Y-93200000D02*
X99719047Y-93438095D01*
X99719047Y-92819047D01*
X99052380Y-92247619D02*
X99052380Y-92152380D01*
X99100000Y-92057142D01*
X99147619Y-92009523D01*
X99242857Y-91961904D01*
X99433333Y-91914285D01*
X99671428Y-91914285D01*
X99861904Y-91961904D01*
X99957142Y-92009523D01*
X100004761Y-92057142D01*
X100052380Y-92152380D01*
X100052380Y-92247619D01*
X100004761Y-92342857D01*
X99957142Y-92390476D01*
X99861904Y-92438095D01*
X99671428Y-92485714D01*
X99433333Y-92485714D01*
X99242857Y-92438095D01*
X99147619Y-92390476D01*
X99100000Y-92342857D01*
X99052380Y-92247619D01*
X99052380Y-91009523D02*
X99052380Y-91485714D01*
X99528571Y-91533333D01*
X99480952Y-91485714D01*
X99433333Y-91390476D01*
X99433333Y-91152380D01*
X99480952Y-91057142D01*
X99528571Y-91009523D01*
X99623809Y-90961904D01*
X99861904Y-90961904D01*
X99957142Y-91009523D01*
X100004761Y-91057142D01*
X100052380Y-91152380D01*
X100052380Y-91390476D01*
X100004761Y-91485714D01*
X99957142Y-91533333D01*
X100052380Y-90009523D02*
X100052380Y-90580952D01*
X100052380Y-90295238D02*
X99052380Y-90295238D01*
X99195238Y-90390476D01*
X99290476Y-90485714D01*
X99338095Y-90580952D01*
X99528571Y-89247619D02*
X99576190Y-89104761D01*
X99623809Y-89057142D01*
X99719047Y-89009523D01*
X99861904Y-89009523D01*
X99957142Y-89057142D01*
X100004761Y-89104761D01*
X100052380Y-89200000D01*
X100052380Y-89580952D01*
X99052380Y-89580952D01*
X99052380Y-89247619D01*
X99100000Y-89152380D01*
X99147619Y-89104761D01*
X99242857Y-89057142D01*
X99338095Y-89057142D01*
X99433333Y-89104761D01*
X99480952Y-89152380D01*
X99528571Y-89247619D01*
X99528571Y-89580952D01*
X100052380Y-88580952D02*
X99052380Y-88580952D01*
X99766666Y-88247619D01*
X99052380Y-87914285D01*
X100052380Y-87914285D01*
X100052380Y-87390476D02*
X100052380Y-87200000D01*
X100004761Y-87104761D01*
X99957142Y-87057142D01*
X99814285Y-86961904D01*
X99623809Y-86914285D01*
X99242857Y-86914285D01*
X99147619Y-86961904D01*
X99100000Y-87009523D01*
X99052380Y-87104761D01*
X99052380Y-87295238D01*
X99100000Y-87390476D01*
X99147619Y-87438095D01*
X99242857Y-87485714D01*
X99480952Y-87485714D01*
X99576190Y-87438095D01*
X99623809Y-87390476D01*
X99671428Y-87295238D01*
X99671428Y-87104761D01*
X99623809Y-87009523D01*
X99576190Y-86961904D01*
X99480952Y-86914285D01*
X99052380Y-86057142D02*
X99052380Y-86247619D01*
X99100000Y-86342857D01*
X99147619Y-86390476D01*
X99290476Y-86485714D01*
X99480952Y-86533333D01*
X99861904Y-86533333D01*
X99957142Y-86485714D01*
X100004761Y-86438095D01*
X100052380Y-86342857D01*
X100052380Y-86152380D01*
X100004761Y-86057142D01*
X99957142Y-86009523D01*
X99861904Y-85961904D01*
X99623809Y-85961904D01*
X99528571Y-86009523D01*
X99480952Y-86057142D01*
X99433333Y-86152380D01*
X99433333Y-86342857D01*
X99480952Y-86438095D01*
X99528571Y-86485714D01*
X99623809Y-86533333D01*
X138299761Y-116190476D02*
X138347380Y-116047619D01*
X138347380Y-115809523D01*
X138299761Y-115714285D01*
X138252142Y-115666666D01*
X138156904Y-115619047D01*
X138061666Y-115619047D01*
X137966428Y-115666666D01*
X137918809Y-115714285D01*
X137871190Y-115809523D01*
X137823571Y-116000000D01*
X137775952Y-116095238D01*
X137728333Y-116142857D01*
X137633095Y-116190476D01*
X137537857Y-116190476D01*
X137442619Y-116142857D01*
X137395000Y-116095238D01*
X137347380Y-116000000D01*
X137347380Y-115761904D01*
X137395000Y-115619047D01*
X138299761Y-114809523D02*
X138347380Y-114904761D01*
X138347380Y-115095238D01*
X138299761Y-115190476D01*
X138204523Y-115238095D01*
X137823571Y-115238095D01*
X137728333Y-115190476D01*
X137680714Y-115095238D01*
X137680714Y-114904761D01*
X137728333Y-114809523D01*
X137823571Y-114761904D01*
X137918809Y-114761904D01*
X138014047Y-115238095D01*
X137680714Y-114333333D02*
X138347380Y-114333333D01*
X137775952Y-114333333D02*
X137728333Y-114285714D01*
X137680714Y-114190476D01*
X137680714Y-114047619D01*
X137728333Y-113952380D01*
X137823571Y-113904761D01*
X138347380Y-113904761D01*
X138299761Y-113476190D02*
X138347380Y-113380952D01*
X138347380Y-113190476D01*
X138299761Y-113095238D01*
X138204523Y-113047619D01*
X138156904Y-113047619D01*
X138061666Y-113095238D01*
X138014047Y-113190476D01*
X138014047Y-113333333D01*
X137966428Y-113428571D01*
X137871190Y-113476190D01*
X137823571Y-113476190D01*
X137728333Y-113428571D01*
X137680714Y-113333333D01*
X137680714Y-113190476D01*
X137728333Y-113095238D01*
X138347380Y-112476190D02*
X138299761Y-112571428D01*
X138252142Y-112619047D01*
X138156904Y-112666666D01*
X137871190Y-112666666D01*
X137775952Y-112619047D01*
X137728333Y-112571428D01*
X137680714Y-112476190D01*
X137680714Y-112333333D01*
X137728333Y-112238095D01*
X137775952Y-112190476D01*
X137871190Y-112142857D01*
X138156904Y-112142857D01*
X138252142Y-112190476D01*
X138299761Y-112238095D01*
X138347380Y-112333333D01*
X138347380Y-112476190D01*
X138347380Y-111714285D02*
X137680714Y-111714285D01*
X137871190Y-111714285D02*
X137775952Y-111666666D01*
X137728333Y-111619047D01*
X137680714Y-111523809D01*
X137680714Y-111428571D01*
X137347380Y-109904761D02*
X137347380Y-110095238D01*
X137395000Y-110190476D01*
X137442619Y-110238095D01*
X137585476Y-110333333D01*
X137775952Y-110380952D01*
X138156904Y-110380952D01*
X138252142Y-110333333D01*
X138299761Y-110285714D01*
X138347380Y-110190476D01*
X138347380Y-110000000D01*
X138299761Y-109904761D01*
X138252142Y-109857142D01*
X138156904Y-109809523D01*
X137918809Y-109809523D01*
X137823571Y-109857142D01*
X137775952Y-109904761D01*
X137728333Y-110000000D01*
X137728333Y-110190476D01*
X137775952Y-110285714D01*
X137823571Y-110333333D01*
X137918809Y-110380952D01*
X139005000Y-117642857D02*
X138957380Y-117738095D01*
X138957380Y-117880952D01*
X139005000Y-118023809D01*
X139100238Y-118119047D01*
X139195476Y-118166666D01*
X139385952Y-118214285D01*
X139528809Y-118214285D01*
X139719285Y-118166666D01*
X139814523Y-118119047D01*
X139909761Y-118023809D01*
X139957380Y-117880952D01*
X139957380Y-117785714D01*
X139909761Y-117642857D01*
X139862142Y-117595238D01*
X139528809Y-117595238D01*
X139528809Y-117785714D01*
X139957380Y-117166666D02*
X138957380Y-117166666D01*
X139957380Y-116595238D01*
X138957380Y-116595238D01*
X139957380Y-116119047D02*
X138957380Y-116119047D01*
X138957380Y-115880952D01*
X139005000Y-115738095D01*
X139100238Y-115642857D01*
X139195476Y-115595238D01*
X139385952Y-115547619D01*
X139528809Y-115547619D01*
X139719285Y-115595238D01*
X139814523Y-115642857D01*
X139909761Y-115738095D01*
X139957380Y-115880952D01*
X139957380Y-116119047D01*
X138957380Y-114452380D02*
X138957380Y-113833333D01*
X139338333Y-114166666D01*
X139338333Y-114023809D01*
X139385952Y-113928571D01*
X139433571Y-113880952D01*
X139528809Y-113833333D01*
X139766904Y-113833333D01*
X139862142Y-113880952D01*
X139909761Y-113928571D01*
X139957380Y-114023809D01*
X139957380Y-114309523D01*
X139909761Y-114404761D01*
X139862142Y-114452380D01*
X138957380Y-113547619D02*
X139957380Y-113214285D01*
X138957380Y-112880952D01*
X138957380Y-112642857D02*
X138957380Y-112023809D01*
X139338333Y-112357142D01*
X139338333Y-112214285D01*
X139385952Y-112119047D01*
X139433571Y-112071428D01*
X139528809Y-112023809D01*
X139766904Y-112023809D01*
X139862142Y-112071428D01*
X139909761Y-112119047D01*
X139957380Y-112214285D01*
X139957380Y-112500000D01*
X139909761Y-112595238D01*
X139862142Y-112642857D01*
X139957380Y-110833333D02*
X138957380Y-110833333D01*
X138957380Y-110595238D01*
X139005000Y-110452380D01*
X139100238Y-110357142D01*
X139195476Y-110309523D01*
X139385952Y-110261904D01*
X139528809Y-110261904D01*
X139719285Y-110309523D01*
X139814523Y-110357142D01*
X139909761Y-110452380D01*
X139957380Y-110595238D01*
X139957380Y-110833333D01*
X139671666Y-109880952D02*
X139671666Y-109404761D01*
X139957380Y-109976190D02*
X138957380Y-109642857D01*
X139957380Y-109309523D01*
X138957380Y-109119047D02*
X138957380Y-108547619D01*
X139957380Y-108833333D02*
X138957380Y-108833333D01*
X139671666Y-108261904D02*
X139671666Y-107785714D01*
X139957380Y-108357142D02*
X138957380Y-108023809D01*
X139957380Y-107690476D01*
X119407142Y-91219047D02*
X119454761Y-91266666D01*
X119502380Y-91409523D01*
X119502380Y-91504761D01*
X119454761Y-91647619D01*
X119359523Y-91742857D01*
X119264285Y-91790476D01*
X119073809Y-91838095D01*
X118930952Y-91838095D01*
X118740476Y-91790476D01*
X118645238Y-91742857D01*
X118550000Y-91647619D01*
X118502380Y-91504761D01*
X118502380Y-91409523D01*
X118550000Y-91266666D01*
X118597619Y-91219047D01*
X119502380Y-90790476D02*
X118502380Y-90790476D01*
X118502380Y-90552380D01*
X118550000Y-90409523D01*
X118645238Y-90314285D01*
X118740476Y-90266666D01*
X118930952Y-90219047D01*
X119073809Y-90219047D01*
X119264285Y-90266666D01*
X119359523Y-90314285D01*
X119454761Y-90409523D01*
X119502380Y-90552380D01*
X119502380Y-90790476D01*
X118835714Y-89361904D02*
X119502380Y-89361904D01*
X118454761Y-89600000D02*
X119169047Y-89838095D01*
X119169047Y-89219047D01*
X118502380Y-88647619D02*
X118502380Y-88552380D01*
X118550000Y-88457142D01*
X118597619Y-88409523D01*
X118692857Y-88361904D01*
X118883333Y-88314285D01*
X119121428Y-88314285D01*
X119311904Y-88361904D01*
X119407142Y-88409523D01*
X119454761Y-88457142D01*
X119502380Y-88552380D01*
X119502380Y-88647619D01*
X119454761Y-88742857D01*
X119407142Y-88790476D01*
X119311904Y-88838095D01*
X119121428Y-88885714D01*
X118883333Y-88885714D01*
X118692857Y-88838095D01*
X118597619Y-88790476D01*
X118550000Y-88742857D01*
X118502380Y-88647619D01*
X118502380Y-87409523D02*
X118502380Y-87885714D01*
X118978571Y-87933333D01*
X118930952Y-87885714D01*
X118883333Y-87790476D01*
X118883333Y-87552380D01*
X118930952Y-87457142D01*
X118978571Y-87409523D01*
X119073809Y-87361904D01*
X119311904Y-87361904D01*
X119407142Y-87409523D01*
X119454761Y-87457142D01*
X119502380Y-87552380D01*
X119502380Y-87790476D01*
X119454761Y-87885714D01*
X119407142Y-87933333D01*
X119502380Y-86409523D02*
X119502380Y-86980952D01*
X119502380Y-86695238D02*
X118502380Y-86695238D01*
X118645238Y-86790476D01*
X118740476Y-86885714D01*
X118788095Y-86980952D01*
X118978571Y-85647619D02*
X119026190Y-85504761D01*
X119073809Y-85457142D01*
X119169047Y-85409523D01*
X119311904Y-85409523D01*
X119407142Y-85457142D01*
X119454761Y-85504761D01*
X119502380Y-85600000D01*
X119502380Y-85980952D01*
X118502380Y-85980952D01*
X118502380Y-85647619D01*
X118550000Y-85552380D01*
X118597619Y-85504761D01*
X118692857Y-85457142D01*
X118788095Y-85457142D01*
X118883333Y-85504761D01*
X118930952Y-85552380D01*
X118978571Y-85647619D01*
X118978571Y-85980952D01*
X119502380Y-84980952D02*
X118502380Y-84980952D01*
X119216666Y-84647619D01*
X118502380Y-84314285D01*
X119502380Y-84314285D01*
X119502380Y-83790476D02*
X119502380Y-83600000D01*
X119454761Y-83504761D01*
X119407142Y-83457142D01*
X119264285Y-83361904D01*
X119073809Y-83314285D01*
X118692857Y-83314285D01*
X118597619Y-83361904D01*
X118550000Y-83409523D01*
X118502380Y-83504761D01*
X118502380Y-83695238D01*
X118550000Y-83790476D01*
X118597619Y-83838095D01*
X118692857Y-83885714D01*
X118930952Y-83885714D01*
X119026190Y-83838095D01*
X119073809Y-83790476D01*
X119121428Y-83695238D01*
X119121428Y-83504761D01*
X119073809Y-83409523D01*
X119026190Y-83361904D01*
X118930952Y-83314285D01*
X118502380Y-82457142D02*
X118502380Y-82647619D01*
X118550000Y-82742857D01*
X118597619Y-82790476D01*
X118740476Y-82885714D01*
X118930952Y-82933333D01*
X119311904Y-82933333D01*
X119407142Y-82885714D01*
X119454761Y-82838095D01*
X119502380Y-82742857D01*
X119502380Y-82552380D01*
X119454761Y-82457142D01*
X119407142Y-82409523D01*
X119311904Y-82361904D01*
X119073809Y-82361904D01*
X118978571Y-82409523D01*
X118930952Y-82457142D01*
X118883333Y-82552380D01*
X118883333Y-82742857D01*
X118930952Y-82838095D01*
X118978571Y-82885714D01*
X119073809Y-82933333D01*
X86895238Y-101703571D02*
X87228571Y-101703571D01*
X87371428Y-102227380D02*
X86895238Y-102227380D01*
X86895238Y-101227380D01*
X87371428Y-101227380D01*
X87752380Y-102179761D02*
X87895238Y-102227380D01*
X88133333Y-102227380D01*
X88228571Y-102179761D01*
X88276190Y-102132142D01*
X88323809Y-102036904D01*
X88323809Y-101941666D01*
X88276190Y-101846428D01*
X88228571Y-101798809D01*
X88133333Y-101751190D01*
X87942857Y-101703571D01*
X87847619Y-101655952D01*
X87800000Y-101608333D01*
X87752380Y-101513095D01*
X87752380Y-101417857D01*
X87800000Y-101322619D01*
X87847619Y-101275000D01*
X87942857Y-101227380D01*
X88180952Y-101227380D01*
X88323809Y-101275000D01*
X88752380Y-102227380D02*
X88752380Y-101227380D01*
X89133333Y-101227380D01*
X89228571Y-101275000D01*
X89276190Y-101322619D01*
X89323809Y-101417857D01*
X89323809Y-101560714D01*
X89276190Y-101655952D01*
X89228571Y-101703571D01*
X89133333Y-101751190D01*
X88752380Y-101751190D01*
X89657142Y-101227380D02*
X90276190Y-101227380D01*
X89942857Y-101608333D01*
X90085714Y-101608333D01*
X90180952Y-101655952D01*
X90228571Y-101703571D01*
X90276190Y-101798809D01*
X90276190Y-102036904D01*
X90228571Y-102132142D01*
X90180952Y-102179761D01*
X90085714Y-102227380D01*
X89800000Y-102227380D01*
X89704761Y-102179761D01*
X89657142Y-102132142D01*
X90657142Y-101322619D02*
X90704761Y-101275000D01*
X90800000Y-101227380D01*
X91038095Y-101227380D01*
X91133333Y-101275000D01*
X91180952Y-101322619D01*
X91228571Y-101417857D01*
X91228571Y-101513095D01*
X91180952Y-101655952D01*
X90609523Y-102227380D01*
X91228571Y-102227380D01*
X92419047Y-102227380D02*
X92419047Y-101227380D01*
X92657142Y-101227380D01*
X92800000Y-101275000D01*
X92895238Y-101370238D01*
X92942857Y-101465476D01*
X92990476Y-101655952D01*
X92990476Y-101798809D01*
X92942857Y-101989285D01*
X92895238Y-102084523D01*
X92800000Y-102179761D01*
X92657142Y-102227380D01*
X92419047Y-102227380D01*
X93800000Y-102179761D02*
X93704761Y-102227380D01*
X93514285Y-102227380D01*
X93419047Y-102179761D01*
X93371428Y-102084523D01*
X93371428Y-101703571D01*
X93419047Y-101608333D01*
X93514285Y-101560714D01*
X93704761Y-101560714D01*
X93800000Y-101608333D01*
X93847619Y-101703571D01*
X93847619Y-101798809D01*
X93371428Y-101894047D01*
X94180952Y-101560714D02*
X94419047Y-102227380D01*
X94657142Y-101560714D01*
X95800000Y-102227380D02*
X95800000Y-101227380D01*
X96371428Y-102227380D02*
X95942857Y-101655952D01*
X96371428Y-101227380D02*
X95800000Y-101798809D01*
X96800000Y-102227380D02*
X96800000Y-101560714D01*
X96800000Y-101227380D02*
X96752380Y-101275000D01*
X96800000Y-101322619D01*
X96847619Y-101275000D01*
X96800000Y-101227380D01*
X96800000Y-101322619D01*
X97133333Y-101560714D02*
X97514285Y-101560714D01*
X97276190Y-101227380D02*
X97276190Y-102084523D01*
X97323809Y-102179761D01*
X97419047Y-102227380D01*
X97514285Y-102227380D01*
X99180952Y-102132142D02*
X99133333Y-102179761D01*
X98990476Y-102227380D01*
X98895238Y-102227380D01*
X98752380Y-102179761D01*
X98657142Y-102084523D01*
X98609523Y-101989285D01*
X98561904Y-101798809D01*
X98561904Y-101655952D01*
X98609523Y-101465476D01*
X98657142Y-101370238D01*
X98752380Y-101275000D01*
X98895238Y-101227380D01*
X98990476Y-101227380D01*
X99133333Y-101275000D01*
X99180952Y-101322619D01*
X100228571Y-101227380D02*
X100561904Y-102227380D01*
X100895238Y-101227380D01*
X101657142Y-101560714D02*
X101657142Y-102227380D01*
X101419047Y-101179761D02*
X101180952Y-101894047D01*
X101799999Y-101894047D01*
X83728571Y-90973809D02*
X83728571Y-90640476D01*
X84252380Y-90497619D02*
X84252380Y-90973809D01*
X83252380Y-90973809D01*
X83252380Y-90497619D01*
X84204761Y-90116666D02*
X84252380Y-89973809D01*
X84252380Y-89735714D01*
X84204761Y-89640476D01*
X84157142Y-89592857D01*
X84061904Y-89545238D01*
X83966666Y-89545238D01*
X83871428Y-89592857D01*
X83823809Y-89640476D01*
X83776190Y-89735714D01*
X83728571Y-89926190D01*
X83680952Y-90021428D01*
X83633333Y-90069047D01*
X83538095Y-90116666D01*
X83442857Y-90116666D01*
X83347619Y-90069047D01*
X83300000Y-90021428D01*
X83252380Y-89926190D01*
X83252380Y-89688095D01*
X83300000Y-89545238D01*
X84252380Y-89116666D02*
X83252380Y-89116666D01*
X83252380Y-88735714D01*
X83300000Y-88640476D01*
X83347619Y-88592857D01*
X83442857Y-88545238D01*
X83585714Y-88545238D01*
X83680952Y-88592857D01*
X83728571Y-88640476D01*
X83776190Y-88735714D01*
X83776190Y-89116666D01*
X83252380Y-88211904D02*
X83252380Y-87592857D01*
X83633333Y-87926190D01*
X83633333Y-87783333D01*
X83680952Y-87688095D01*
X83728571Y-87640476D01*
X83823809Y-87592857D01*
X84061904Y-87592857D01*
X84157142Y-87640476D01*
X84204761Y-87688095D01*
X84252380Y-87783333D01*
X84252380Y-88069047D01*
X84204761Y-88164285D01*
X84157142Y-88211904D01*
X83347619Y-87211904D02*
X83300000Y-87164285D01*
X83252380Y-87069047D01*
X83252380Y-86830952D01*
X83300000Y-86735714D01*
X83347619Y-86688095D01*
X83442857Y-86640476D01*
X83538095Y-86640476D01*
X83680952Y-86688095D01*
X84252380Y-87259523D01*
X84252380Y-86640476D01*
X83252380Y-85450000D02*
X84061904Y-85450000D01*
X84157142Y-85402380D01*
X84204761Y-85354761D01*
X84252380Y-85259523D01*
X84252380Y-85069047D01*
X84204761Y-84973809D01*
X84157142Y-84926190D01*
X84061904Y-84878571D01*
X83252380Y-84878571D01*
X84204761Y-84450000D02*
X84252380Y-84307142D01*
X84252380Y-84069047D01*
X84204761Y-83973809D01*
X84157142Y-83926190D01*
X84061904Y-83878571D01*
X83966666Y-83878571D01*
X83871428Y-83926190D01*
X83823809Y-83973809D01*
X83776190Y-84069047D01*
X83728571Y-84259523D01*
X83680952Y-84354761D01*
X83633333Y-84402380D01*
X83538095Y-84450000D01*
X83442857Y-84450000D01*
X83347619Y-84402380D01*
X83300000Y-84354761D01*
X83252380Y-84259523D01*
X83252380Y-84021428D01*
X83300000Y-83878571D01*
X83728571Y-83116666D02*
X83776190Y-82973809D01*
X83823809Y-82926190D01*
X83919047Y-82878571D01*
X84061904Y-82878571D01*
X84157142Y-82926190D01*
X84204761Y-82973809D01*
X84252380Y-83069047D01*
X84252380Y-83450000D01*
X83252380Y-83450000D01*
X83252380Y-83116666D01*
X83300000Y-83021428D01*
X83347619Y-82973809D01*
X83442857Y-82926190D01*
X83538095Y-82926190D01*
X83633333Y-82973809D01*
X83680952Y-83021428D01*
X83728571Y-83116666D01*
X83728571Y-83450000D01*
X79533333Y-97752380D02*
X79200000Y-97276190D01*
X78961904Y-97752380D02*
X78961904Y-96752380D01*
X79342857Y-96752380D01*
X79438095Y-96800000D01*
X79485714Y-96847619D01*
X79533333Y-96942857D01*
X79533333Y-97085714D01*
X79485714Y-97180952D01*
X79438095Y-97228571D01*
X79342857Y-97276190D01*
X78961904Y-97276190D01*
X80009523Y-97752380D02*
X80200000Y-97752380D01*
X80295238Y-97704761D01*
X80342857Y-97657142D01*
X80438095Y-97514285D01*
X80485714Y-97323809D01*
X80485714Y-96942857D01*
X80438095Y-96847619D01*
X80390476Y-96800000D01*
X80295238Y-96752380D01*
X80104761Y-96752380D01*
X80009523Y-96800000D01*
X79961904Y-96847619D01*
X79914285Y-96942857D01*
X79914285Y-97180952D01*
X79961904Y-97276190D01*
X80009523Y-97323809D01*
X80104761Y-97371428D01*
X80295238Y-97371428D01*
X80390476Y-97323809D01*
X80438095Y-97276190D01*
X80485714Y-97180952D01*
X132344761Y-97963333D02*
X132392380Y-97820476D01*
X132392380Y-97582380D01*
X132344761Y-97487142D01*
X132297142Y-97439523D01*
X132201904Y-97391904D01*
X132106666Y-97391904D01*
X132011428Y-97439523D01*
X131963809Y-97487142D01*
X131916190Y-97582380D01*
X131868571Y-97772857D01*
X131820952Y-97868095D01*
X131773333Y-97915714D01*
X131678095Y-97963333D01*
X131582857Y-97963333D01*
X131487619Y-97915714D01*
X131440000Y-97868095D01*
X131392380Y-97772857D01*
X131392380Y-97534761D01*
X131440000Y-97391904D01*
X131392380Y-97058571D02*
X132392380Y-96820476D01*
X131678095Y-96630000D01*
X132392380Y-96439523D01*
X131392380Y-96201428D01*
X131487619Y-95868095D02*
X131440000Y-95820476D01*
X131392380Y-95725238D01*
X131392380Y-95487142D01*
X131440000Y-95391904D01*
X131487619Y-95344285D01*
X131582857Y-95296666D01*
X131678095Y-95296666D01*
X131820952Y-95344285D01*
X132392380Y-95915714D01*
X132392380Y-95296666D01*
X82961904Y-117952380D02*
X82961904Y-116952380D01*
X83200000Y-116952380D01*
X83342857Y-117000000D01*
X83438095Y-117095238D01*
X83485714Y-117190476D01*
X83533333Y-117380952D01*
X83533333Y-117523809D01*
X83485714Y-117714285D01*
X83438095Y-117809523D01*
X83342857Y-117904761D01*
X83200000Y-117952380D01*
X82961904Y-117952380D01*
X84104761Y-117380952D02*
X84009523Y-117333333D01*
X83961904Y-117285714D01*
X83914285Y-117190476D01*
X83914285Y-117142857D01*
X83961904Y-117047619D01*
X84009523Y-117000000D01*
X84104761Y-116952380D01*
X84295238Y-116952380D01*
X84390476Y-117000000D01*
X84438095Y-117047619D01*
X84485714Y-117142857D01*
X84485714Y-117190476D01*
X84438095Y-117285714D01*
X84390476Y-117333333D01*
X84295238Y-117380952D01*
X84104761Y-117380952D01*
X84009523Y-117428571D01*
X83961904Y-117476190D01*
X83914285Y-117571428D01*
X83914285Y-117761904D01*
X83961904Y-117857142D01*
X84009523Y-117904761D01*
X84104761Y-117952380D01*
X84295238Y-117952380D01*
X84390476Y-117904761D01*
X84438095Y-117857142D01*
X84485714Y-117761904D01*
X84485714Y-117571428D01*
X84438095Y-117476190D01*
X84390476Y-117428571D01*
X84295238Y-117380952D01*
X80557142Y-109252380D02*
X80223809Y-108776190D01*
X79985714Y-109252380D02*
X79985714Y-108252380D01*
X80366666Y-108252380D01*
X80461904Y-108300000D01*
X80509523Y-108347619D01*
X80557142Y-108442857D01*
X80557142Y-108585714D01*
X80509523Y-108680952D01*
X80461904Y-108728571D01*
X80366666Y-108776190D01*
X79985714Y-108776190D01*
X81509523Y-109252380D02*
X80938095Y-109252380D01*
X81223809Y-109252380D02*
X81223809Y-108252380D01*
X81128571Y-108395238D01*
X81033333Y-108490476D01*
X80938095Y-108538095D01*
X82461904Y-109252380D02*
X81890476Y-109252380D01*
X82176190Y-109252380D02*
X82176190Y-108252380D01*
X82080952Y-108395238D01*
X81985714Y-108490476D01*
X81890476Y-108538095D01*
X77583333Y-81452380D02*
X77250000Y-80976190D01*
X77011904Y-81452380D02*
X77011904Y-80452380D01*
X77392857Y-80452380D01*
X77488095Y-80500000D01*
X77535714Y-80547619D01*
X77583333Y-80642857D01*
X77583333Y-80785714D01*
X77535714Y-80880952D01*
X77488095Y-80928571D01*
X77392857Y-80976190D01*
X77011904Y-80976190D01*
X78488095Y-80452380D02*
X78011904Y-80452380D01*
X77964285Y-80928571D01*
X78011904Y-80880952D01*
X78107142Y-80833333D01*
X78345238Y-80833333D01*
X78440476Y-80880952D01*
X78488095Y-80928571D01*
X78535714Y-81023809D01*
X78535714Y-81261904D01*
X78488095Y-81357142D01*
X78440476Y-81404761D01*
X78345238Y-81452380D01*
X78107142Y-81452380D01*
X78011904Y-81404761D01*
X77964285Y-81357142D01*
X109857142Y-112252380D02*
X109523809Y-111776190D01*
X109285714Y-112252380D02*
X109285714Y-111252380D01*
X109666666Y-111252380D01*
X109761904Y-111300000D01*
X109809523Y-111347619D01*
X109857142Y-111442857D01*
X109857142Y-111585714D01*
X109809523Y-111680952D01*
X109761904Y-111728571D01*
X109666666Y-111776190D01*
X109285714Y-111776190D01*
X110238095Y-111347619D02*
X110285714Y-111300000D01*
X110380952Y-111252380D01*
X110619047Y-111252380D01*
X110714285Y-111300000D01*
X110761904Y-111347619D01*
X110809523Y-111442857D01*
X110809523Y-111538095D01*
X110761904Y-111680952D01*
X110190476Y-112252380D01*
X110809523Y-112252380D01*
X111190476Y-111347619D02*
X111238095Y-111300000D01*
X111333333Y-111252380D01*
X111571428Y-111252380D01*
X111666666Y-111300000D01*
X111714285Y-111347619D01*
X111761904Y-111442857D01*
X111761904Y-111538095D01*
X111714285Y-111680952D01*
X111142857Y-112252380D01*
X111761904Y-112252380D01*
X119457142Y-95652380D02*
X119123809Y-95176190D01*
X118885714Y-95652380D02*
X118885714Y-94652380D01*
X119266666Y-94652380D01*
X119361904Y-94700000D01*
X119409523Y-94747619D01*
X119457142Y-94842857D01*
X119457142Y-94985714D01*
X119409523Y-95080952D01*
X119361904Y-95128571D01*
X119266666Y-95176190D01*
X118885714Y-95176190D01*
X119838095Y-94747619D02*
X119885714Y-94700000D01*
X119980952Y-94652380D01*
X120219047Y-94652380D01*
X120314285Y-94700000D01*
X120361904Y-94747619D01*
X120409523Y-94842857D01*
X120409523Y-94938095D01*
X120361904Y-95080952D01*
X119790476Y-95652380D01*
X120409523Y-95652380D01*
X120742857Y-94652380D02*
X121409523Y-94652380D01*
X120980952Y-95652380D01*
X81033333Y-91952380D02*
X80700000Y-91476190D01*
X80461904Y-91952380D02*
X80461904Y-90952380D01*
X80842857Y-90952380D01*
X80938095Y-91000000D01*
X80985714Y-91047619D01*
X81033333Y-91142857D01*
X81033333Y-91285714D01*
X80985714Y-91380952D01*
X80938095Y-91428571D01*
X80842857Y-91476190D01*
X80461904Y-91476190D01*
X81604761Y-91380952D02*
X81509523Y-91333333D01*
X81461904Y-91285714D01*
X81414285Y-91190476D01*
X81414285Y-91142857D01*
X81461904Y-91047619D01*
X81509523Y-91000000D01*
X81604761Y-90952380D01*
X81795238Y-90952380D01*
X81890476Y-91000000D01*
X81938095Y-91047619D01*
X81985714Y-91142857D01*
X81985714Y-91190476D01*
X81938095Y-91285714D01*
X81890476Y-91333333D01*
X81795238Y-91380952D01*
X81604761Y-91380952D01*
X81509523Y-91428571D01*
X81461904Y-91476190D01*
X81414285Y-91571428D01*
X81414285Y-91761904D01*
X81461904Y-91857142D01*
X81509523Y-91904761D01*
X81604761Y-91952380D01*
X81795238Y-91952380D01*
X81890476Y-91904761D01*
X81938095Y-91857142D01*
X81985714Y-91761904D01*
X81985714Y-91571428D01*
X81938095Y-91476190D01*
X81890476Y-91428571D01*
X81795238Y-91380952D01*
X75033333Y-91252380D02*
X74700000Y-90776190D01*
X74461904Y-91252380D02*
X74461904Y-90252380D01*
X74842857Y-90252380D01*
X74938095Y-90300000D01*
X74985714Y-90347619D01*
X75033333Y-90442857D01*
X75033333Y-90585714D01*
X74985714Y-90680952D01*
X74938095Y-90728571D01*
X74842857Y-90776190D01*
X74461904Y-90776190D01*
X75366666Y-90252380D02*
X75985714Y-90252380D01*
X75652380Y-90633333D01*
X75795238Y-90633333D01*
X75890476Y-90680952D01*
X75938095Y-90728571D01*
X75985714Y-90823809D01*
X75985714Y-91061904D01*
X75938095Y-91157142D01*
X75890476Y-91204761D01*
X75795238Y-91252380D01*
X75509523Y-91252380D01*
X75414285Y-91204761D01*
X75366666Y-91157142D01*
D13*
X92310238Y-86424523D02*
X92310238Y-85154523D01*
X93640714Y-86303571D02*
X93580238Y-86364047D01*
X93398809Y-86424523D01*
X93277857Y-86424523D01*
X93096428Y-86364047D01*
X92975476Y-86243095D01*
X92915000Y-86122142D01*
X92854523Y-85880238D01*
X92854523Y-85698809D01*
X92915000Y-85456904D01*
X92975476Y-85335952D01*
X93096428Y-85215000D01*
X93277857Y-85154523D01*
X93398809Y-85154523D01*
X93580238Y-85215000D01*
X93640714Y-85275476D01*
X94729285Y-85577857D02*
X94729285Y-86424523D01*
X94426904Y-85094047D02*
X94124523Y-86001190D01*
X94910714Y-86001190D01*
D12*
X120183333Y-114702380D02*
X119707142Y-114702380D01*
X119707142Y-113702380D01*
X121040476Y-114702380D02*
X120469047Y-114702380D01*
X120754761Y-114702380D02*
X120754761Y-113702380D01*
X120659523Y-113845238D01*
X120564285Y-113940476D01*
X120469047Y-113988095D01*
X89232142Y-112757142D02*
X89184523Y-112804761D01*
X89041666Y-112852380D01*
X88946428Y-112852380D01*
X88803571Y-112804761D01*
X88708333Y-112709523D01*
X88660714Y-112614285D01*
X88613095Y-112423809D01*
X88613095Y-112280952D01*
X88660714Y-112090476D01*
X88708333Y-111995238D01*
X88803571Y-111900000D01*
X88946428Y-111852380D01*
X89041666Y-111852380D01*
X89184523Y-111900000D01*
X89232142Y-111947619D01*
X90184523Y-112852380D02*
X89613095Y-112852380D01*
X89898809Y-112852380D02*
X89898809Y-111852380D01*
X89803571Y-111995238D01*
X89708333Y-112090476D01*
X89613095Y-112138095D01*
X90565476Y-111947619D02*
X90613095Y-111900000D01*
X90708333Y-111852380D01*
X90946428Y-111852380D01*
X91041666Y-111900000D01*
X91089285Y-111947619D01*
X91136904Y-112042857D01*
X91136904Y-112138095D01*
X91089285Y-112280952D01*
X90517857Y-112852380D01*
X91136904Y-112852380D01*
X72904761Y-76947619D02*
X72809523Y-76900000D01*
X72714285Y-76804761D01*
X72571428Y-76661904D01*
X72476190Y-76614285D01*
X72380952Y-76614285D01*
X72428571Y-76852380D02*
X72333333Y-76804761D01*
X72238095Y-76709523D01*
X72190476Y-76519047D01*
X72190476Y-76185714D01*
X72238095Y-75995238D01*
X72333333Y-75900000D01*
X72428571Y-75852380D01*
X72619047Y-75852380D01*
X72714285Y-75900000D01*
X72809523Y-75995238D01*
X72857142Y-76185714D01*
X72857142Y-76519047D01*
X72809523Y-76709523D01*
X72714285Y-76804761D01*
X72619047Y-76852380D01*
X72428571Y-76852380D01*
X73809523Y-76852380D02*
X73238095Y-76852380D01*
X73523809Y-76852380D02*
X73523809Y-75852380D01*
X73428571Y-75995238D01*
X73333333Y-76090476D01*
X73238095Y-76138095D01*
X114557142Y-65152380D02*
X114223809Y-64676190D01*
X113985714Y-65152380D02*
X113985714Y-64152380D01*
X114366666Y-64152380D01*
X114461904Y-64200000D01*
X114509523Y-64247619D01*
X114557142Y-64342857D01*
X114557142Y-64485714D01*
X114509523Y-64580952D01*
X114461904Y-64628571D01*
X114366666Y-64676190D01*
X113985714Y-64676190D01*
X114890476Y-64152380D02*
X115509523Y-64152380D01*
X115176190Y-64533333D01*
X115319047Y-64533333D01*
X115414285Y-64580952D01*
X115461904Y-64628571D01*
X115509523Y-64723809D01*
X115509523Y-64961904D01*
X115461904Y-65057142D01*
X115414285Y-65104761D01*
X115319047Y-65152380D01*
X115033333Y-65152380D01*
X114938095Y-65104761D01*
X114890476Y-65057142D01*
X116461904Y-65152380D02*
X115890476Y-65152380D01*
X116176190Y-65152380D02*
X116176190Y-64152380D01*
X116080952Y-64295238D01*
X115985714Y-64390476D01*
X115890476Y-64438095D01*
X122237142Y-102057142D02*
X122189523Y-102104761D01*
X122046666Y-102152380D01*
X121951428Y-102152380D01*
X121808571Y-102104761D01*
X121713333Y-102009523D01*
X121665714Y-101914285D01*
X121618095Y-101723809D01*
X121618095Y-101580952D01*
X121665714Y-101390476D01*
X121713333Y-101295238D01*
X121808571Y-101200000D01*
X121951428Y-101152380D01*
X122046666Y-101152380D01*
X122189523Y-101200000D01*
X122237142Y-101247619D01*
X123189523Y-102152380D02*
X122618095Y-102152380D01*
X122903809Y-102152380D02*
X122903809Y-101152380D01*
X122808571Y-101295238D01*
X122713333Y-101390476D01*
X122618095Y-101438095D01*
X123522857Y-101152380D02*
X124141904Y-101152380D01*
X123808571Y-101533333D01*
X123951428Y-101533333D01*
X124046666Y-101580952D01*
X124094285Y-101628571D01*
X124141904Y-101723809D01*
X124141904Y-101961904D01*
X124094285Y-102057142D01*
X124046666Y-102104761D01*
X123951428Y-102152380D01*
X123665714Y-102152380D01*
X123570476Y-102104761D01*
X123522857Y-102057142D01*
X74604761Y-112047619D02*
X74509523Y-112000000D01*
X74414285Y-111904761D01*
X74271428Y-111761904D01*
X74176190Y-111714285D01*
X74080952Y-111714285D01*
X74128571Y-111952380D02*
X74033333Y-111904761D01*
X73938095Y-111809523D01*
X73890476Y-111619047D01*
X73890476Y-111285714D01*
X73938095Y-111095238D01*
X74033333Y-111000000D01*
X74128571Y-110952380D01*
X74319047Y-110952380D01*
X74414285Y-111000000D01*
X74509523Y-111095238D01*
X74557142Y-111285714D01*
X74557142Y-111619047D01*
X74509523Y-111809523D01*
X74414285Y-111904761D01*
X74319047Y-111952380D01*
X74128571Y-111952380D01*
X74890476Y-110952380D02*
X75557142Y-110952380D01*
X75128571Y-111952380D01*
X86457142Y-86857142D02*
X86409523Y-86904761D01*
X86266666Y-86952380D01*
X86171428Y-86952380D01*
X86028571Y-86904761D01*
X85933333Y-86809523D01*
X85885714Y-86714285D01*
X85838095Y-86523809D01*
X85838095Y-86380952D01*
X85885714Y-86190476D01*
X85933333Y-86095238D01*
X86028571Y-86000000D01*
X86171428Y-85952380D01*
X86266666Y-85952380D01*
X86409523Y-86000000D01*
X86457142Y-86047619D01*
X87409523Y-86952380D02*
X86838095Y-86952380D01*
X87123809Y-86952380D02*
X87123809Y-85952380D01*
X87028571Y-86095238D01*
X86933333Y-86190476D01*
X86838095Y-86238095D01*
X88361904Y-86952380D02*
X87790476Y-86952380D01*
X88076190Y-86952380D02*
X88076190Y-85952380D01*
X87980952Y-86095238D01*
X87885714Y-86190476D01*
X87790476Y-86238095D01*
X122633333Y-116907142D02*
X122585714Y-116954761D01*
X122442857Y-117002380D01*
X122347619Y-117002380D01*
X122204761Y-116954761D01*
X122109523Y-116859523D01*
X122061904Y-116764285D01*
X122014285Y-116573809D01*
X122014285Y-116430952D01*
X122061904Y-116240476D01*
X122109523Y-116145238D01*
X122204761Y-116050000D01*
X122347619Y-116002380D01*
X122442857Y-116002380D01*
X122585714Y-116050000D01*
X122633333Y-116097619D01*
X123109523Y-117002380D02*
X123300000Y-117002380D01*
X123395238Y-116954761D01*
X123442857Y-116907142D01*
X123538095Y-116764285D01*
X123585714Y-116573809D01*
X123585714Y-116192857D01*
X123538095Y-116097619D01*
X123490476Y-116050000D01*
X123395238Y-116002380D01*
X123204761Y-116002380D01*
X123109523Y-116050000D01*
X123061904Y-116097619D01*
X123014285Y-116192857D01*
X123014285Y-116430952D01*
X123061904Y-116526190D01*
X123109523Y-116573809D01*
X123204761Y-116621428D01*
X123395238Y-116621428D01*
X123490476Y-116573809D01*
X123538095Y-116526190D01*
X123585714Y-116430952D01*
X115115714Y-102482380D02*
X115115714Y-101482380D01*
X115353809Y-101482380D01*
X115496666Y-101530000D01*
X115591904Y-101625238D01*
X115639523Y-101720476D01*
X115687142Y-101910952D01*
X115687142Y-102053809D01*
X115639523Y-102244285D01*
X115591904Y-102339523D01*
X115496666Y-102434761D01*
X115353809Y-102482380D01*
X115115714Y-102482380D01*
X116639523Y-102482380D02*
X116068095Y-102482380D01*
X116353809Y-102482380D02*
X116353809Y-101482380D01*
X116258571Y-101625238D01*
X116163333Y-101720476D01*
X116068095Y-101768095D01*
X117258571Y-101482380D02*
X117353809Y-101482380D01*
X117449047Y-101530000D01*
X117496666Y-101577619D01*
X117544285Y-101672857D01*
X117591904Y-101863333D01*
X117591904Y-102101428D01*
X117544285Y-102291904D01*
X117496666Y-102387142D01*
X117449047Y-102434761D01*
X117353809Y-102482380D01*
X117258571Y-102482380D01*
X117163333Y-102434761D01*
X117115714Y-102387142D01*
X117068095Y-102291904D01*
X117020476Y-102101428D01*
X117020476Y-101863333D01*
X117068095Y-101672857D01*
X117115714Y-101577619D01*
X117163333Y-101530000D01*
X117258571Y-101482380D01*
X80233333Y-87952380D02*
X79900000Y-87476190D01*
X79661904Y-87952380D02*
X79661904Y-86952380D01*
X80042857Y-86952380D01*
X80138095Y-87000000D01*
X80185714Y-87047619D01*
X80233333Y-87142857D01*
X80233333Y-87285714D01*
X80185714Y-87380952D01*
X80138095Y-87428571D01*
X80042857Y-87476190D01*
X79661904Y-87476190D01*
X80566666Y-86952380D02*
X81233333Y-86952380D01*
X80804761Y-87952380D01*
D13*
X89624523Y-124239761D02*
X88354523Y-124239761D01*
X89503571Y-122909285D02*
X89564047Y-122969761D01*
X89624523Y-123151190D01*
X89624523Y-123272142D01*
X89564047Y-123453571D01*
X89443095Y-123574523D01*
X89322142Y-123635000D01*
X89080238Y-123695476D01*
X88898809Y-123695476D01*
X88656904Y-123635000D01*
X88535952Y-123574523D01*
X88415000Y-123453571D01*
X88354523Y-123272142D01*
X88354523Y-123151190D01*
X88415000Y-122969761D01*
X88475476Y-122909285D01*
X89624523Y-121699761D02*
X89624523Y-122425476D01*
X89624523Y-122062619D02*
X88354523Y-122062619D01*
X88535952Y-122183571D01*
X88656904Y-122304523D01*
X88717380Y-122425476D01*
D12*
X70361904Y-91852380D02*
X70361904Y-90852380D01*
X70600000Y-90852380D01*
X70742857Y-90900000D01*
X70838095Y-90995238D01*
X70885714Y-91090476D01*
X70933333Y-91280952D01*
X70933333Y-91423809D01*
X70885714Y-91614285D01*
X70838095Y-91709523D01*
X70742857Y-91804761D01*
X70600000Y-91852380D01*
X70361904Y-91852380D01*
X71266666Y-90852380D02*
X71885714Y-90852380D01*
X71552380Y-91233333D01*
X71695238Y-91233333D01*
X71790476Y-91280952D01*
X71838095Y-91328571D01*
X71885714Y-91423809D01*
X71885714Y-91661904D01*
X71838095Y-91757142D01*
X71790476Y-91804761D01*
X71695238Y-91852380D01*
X71409523Y-91852380D01*
X71314285Y-91804761D01*
X71266666Y-91757142D01*
X103057142Y-104152380D02*
X102723809Y-103676190D01*
X102485714Y-104152380D02*
X102485714Y-103152380D01*
X102866666Y-103152380D01*
X102961904Y-103200000D01*
X103009523Y-103247619D01*
X103057142Y-103342857D01*
X103057142Y-103485714D01*
X103009523Y-103580952D01*
X102961904Y-103628571D01*
X102866666Y-103676190D01*
X102485714Y-103676190D01*
X103438095Y-103247619D02*
X103485714Y-103200000D01*
X103580952Y-103152380D01*
X103819047Y-103152380D01*
X103914285Y-103200000D01*
X103961904Y-103247619D01*
X104009523Y-103342857D01*
X104009523Y-103438095D01*
X103961904Y-103580952D01*
X103390476Y-104152380D01*
X104009523Y-104152380D01*
X104342857Y-103152380D02*
X104961904Y-103152380D01*
X104628571Y-103533333D01*
X104771428Y-103533333D01*
X104866666Y-103580952D01*
X104914285Y-103628571D01*
X104961904Y-103723809D01*
X104961904Y-103961904D01*
X104914285Y-104057142D01*
X104866666Y-104104761D01*
X104771428Y-104152380D01*
X104485714Y-104152380D01*
X104390476Y-104104761D01*
X104342857Y-104057142D01*
X79757142Y-107252380D02*
X79423809Y-106776190D01*
X79185714Y-107252380D02*
X79185714Y-106252380D01*
X79566666Y-106252380D01*
X79661904Y-106300000D01*
X79709523Y-106347619D01*
X79757142Y-106442857D01*
X79757142Y-106585714D01*
X79709523Y-106680952D01*
X79661904Y-106728571D01*
X79566666Y-106776190D01*
X79185714Y-106776190D01*
X80709523Y-107252380D02*
X80138095Y-107252380D01*
X80423809Y-107252380D02*
X80423809Y-106252380D01*
X80328571Y-106395238D01*
X80233333Y-106490476D01*
X80138095Y-106538095D01*
X81328571Y-106252380D02*
X81423809Y-106252380D01*
X81519047Y-106300000D01*
X81566666Y-106347619D01*
X81614285Y-106442857D01*
X81661904Y-106633333D01*
X81661904Y-106871428D01*
X81614285Y-107061904D01*
X81566666Y-107157142D01*
X81519047Y-107204761D01*
X81423809Y-107252380D01*
X81328571Y-107252380D01*
X81233333Y-107204761D01*
X81185714Y-107157142D01*
X81138095Y-107061904D01*
X81090476Y-106871428D01*
X81090476Y-106633333D01*
X81138095Y-106442857D01*
X81185714Y-106347619D01*
X81233333Y-106300000D01*
X81328571Y-106252380D01*
X130757142Y-91457142D02*
X130709523Y-91504761D01*
X130566666Y-91552380D01*
X130471428Y-91552380D01*
X130328571Y-91504761D01*
X130233333Y-91409523D01*
X130185714Y-91314285D01*
X130138095Y-91123809D01*
X130138095Y-90980952D01*
X130185714Y-90790476D01*
X130233333Y-90695238D01*
X130328571Y-90600000D01*
X130471428Y-90552380D01*
X130566666Y-90552380D01*
X130709523Y-90600000D01*
X130757142Y-90647619D01*
X131709523Y-91552380D02*
X131138095Y-91552380D01*
X131423809Y-91552380D02*
X131423809Y-90552380D01*
X131328571Y-90695238D01*
X131233333Y-90790476D01*
X131138095Y-90838095D01*
X132328571Y-90552380D02*
X132423809Y-90552380D01*
X132519047Y-90600000D01*
X132566666Y-90647619D01*
X132614285Y-90742857D01*
X132661904Y-90933333D01*
X132661904Y-91171428D01*
X132614285Y-91361904D01*
X132566666Y-91457142D01*
X132519047Y-91504761D01*
X132423809Y-91552380D01*
X132328571Y-91552380D01*
X132233333Y-91504761D01*
X132185714Y-91457142D01*
X132138095Y-91361904D01*
X132090476Y-91171428D01*
X132090476Y-90933333D01*
X132138095Y-90742857D01*
X132185714Y-90647619D01*
X132233333Y-90600000D01*
X132328571Y-90552380D01*
X78704761Y-114447619D02*
X78609523Y-114400000D01*
X78514285Y-114304761D01*
X78371428Y-114161904D01*
X78276190Y-114114285D01*
X78180952Y-114114285D01*
X78228571Y-114352380D02*
X78133333Y-114304761D01*
X78038095Y-114209523D01*
X77990476Y-114019047D01*
X77990476Y-113685714D01*
X78038095Y-113495238D01*
X78133333Y-113400000D01*
X78228571Y-113352380D01*
X78419047Y-113352380D01*
X78514285Y-113400000D01*
X78609523Y-113495238D01*
X78657142Y-113685714D01*
X78657142Y-114019047D01*
X78609523Y-114209523D01*
X78514285Y-114304761D01*
X78419047Y-114352380D01*
X78228571Y-114352380D01*
X79228571Y-113780952D02*
X79133333Y-113733333D01*
X79085714Y-113685714D01*
X79038095Y-113590476D01*
X79038095Y-113542857D01*
X79085714Y-113447619D01*
X79133333Y-113400000D01*
X79228571Y-113352380D01*
X79419047Y-113352380D01*
X79514285Y-113400000D01*
X79561904Y-113447619D01*
X79609523Y-113542857D01*
X79609523Y-113590476D01*
X79561904Y-113685714D01*
X79514285Y-113733333D01*
X79419047Y-113780952D01*
X79228571Y-113780952D01*
X79133333Y-113828571D01*
X79085714Y-113876190D01*
X79038095Y-113971428D01*
X79038095Y-114161904D01*
X79085714Y-114257142D01*
X79133333Y-114304761D01*
X79228571Y-114352380D01*
X79419047Y-114352380D01*
X79514285Y-114304761D01*
X79561904Y-114257142D01*
X79609523Y-114161904D01*
X79609523Y-113971428D01*
X79561904Y-113876190D01*
X79514285Y-113828571D01*
X79419047Y-113780952D01*
X81752380Y-77466666D02*
X81276190Y-77800000D01*
X81752380Y-78038095D02*
X80752380Y-78038095D01*
X80752380Y-77657142D01*
X80800000Y-77561904D01*
X80847619Y-77514285D01*
X80942857Y-77466666D01*
X81085714Y-77466666D01*
X81180952Y-77514285D01*
X81228571Y-77561904D01*
X81276190Y-77657142D01*
X81276190Y-78038095D01*
X81752380Y-76514285D02*
X81752380Y-77085714D01*
X81752380Y-76800000D02*
X80752380Y-76800000D01*
X80895238Y-76895238D01*
X80990476Y-76990476D01*
X81038095Y-77085714D01*
X82861904Y-74452380D02*
X82861904Y-73452380D01*
X83100000Y-73452380D01*
X83242857Y-73500000D01*
X83338095Y-73595238D01*
X83385714Y-73690476D01*
X83433333Y-73880952D01*
X83433333Y-74023809D01*
X83385714Y-74214285D01*
X83338095Y-74309523D01*
X83242857Y-74404761D01*
X83100000Y-74452380D01*
X82861904Y-74452380D01*
X83909523Y-74452380D02*
X84100000Y-74452380D01*
X84195238Y-74404761D01*
X84242857Y-74357142D01*
X84338095Y-74214285D01*
X84385714Y-74023809D01*
X84385714Y-73642857D01*
X84338095Y-73547619D01*
X84290476Y-73500000D01*
X84195238Y-73452380D01*
X84004761Y-73452380D01*
X83909523Y-73500000D01*
X83861904Y-73547619D01*
X83814285Y-73642857D01*
X83814285Y-73880952D01*
X83861904Y-73976190D01*
X83909523Y-74023809D01*
X84004761Y-74071428D01*
X84195238Y-74071428D01*
X84290476Y-74023809D01*
X84338095Y-73976190D01*
X84385714Y-73880952D01*
X75104761Y-92947619D02*
X75009523Y-92900000D01*
X74914285Y-92804761D01*
X74771428Y-92661904D01*
X74676190Y-92614285D01*
X74580952Y-92614285D01*
X74628571Y-92852380D02*
X74533333Y-92804761D01*
X74438095Y-92709523D01*
X74390476Y-92519047D01*
X74390476Y-92185714D01*
X74438095Y-91995238D01*
X74533333Y-91900000D01*
X74628571Y-91852380D01*
X74819047Y-91852380D01*
X74914285Y-91900000D01*
X75009523Y-91995238D01*
X75057142Y-92185714D01*
X75057142Y-92519047D01*
X75009523Y-92709523D01*
X74914285Y-92804761D01*
X74819047Y-92852380D01*
X74628571Y-92852380D01*
X75914285Y-92185714D02*
X75914285Y-92852380D01*
X75676190Y-91804761D02*
X75438095Y-92519047D01*
X76057142Y-92519047D01*
X84638095Y-101227380D02*
X84638095Y-102036904D01*
X84685714Y-102132142D01*
X84733333Y-102179761D01*
X84828571Y-102227380D01*
X85019047Y-102227380D01*
X85114285Y-102179761D01*
X85161904Y-102132142D01*
X85209523Y-102036904D01*
X85209523Y-101227380D01*
X86209523Y-102227380D02*
X85638095Y-102227380D01*
X85923809Y-102227380D02*
X85923809Y-101227380D01*
X85828571Y-101370238D01*
X85733333Y-101465476D01*
X85638095Y-101513095D01*
X97657142Y-125302380D02*
X97323809Y-124826190D01*
X97085714Y-125302380D02*
X97085714Y-124302380D01*
X97466666Y-124302380D01*
X97561904Y-124350000D01*
X97609523Y-124397619D01*
X97657142Y-124492857D01*
X97657142Y-124635714D01*
X97609523Y-124730952D01*
X97561904Y-124778571D01*
X97466666Y-124826190D01*
X97085714Y-124826190D01*
X97990476Y-124302380D02*
X98609523Y-124302380D01*
X98276190Y-124683333D01*
X98419047Y-124683333D01*
X98514285Y-124730952D01*
X98561904Y-124778571D01*
X98609523Y-124873809D01*
X98609523Y-125111904D01*
X98561904Y-125207142D01*
X98514285Y-125254761D01*
X98419047Y-125302380D01*
X98133333Y-125302380D01*
X98038095Y-125254761D01*
X97990476Y-125207142D01*
X98942857Y-124302380D02*
X99561904Y-124302380D01*
X99228571Y-124683333D01*
X99371428Y-124683333D01*
X99466666Y-124730952D01*
X99514285Y-124778571D01*
X99561904Y-124873809D01*
X99561904Y-125111904D01*
X99514285Y-125207142D01*
X99466666Y-125254761D01*
X99371428Y-125302380D01*
X99085714Y-125302380D01*
X98990476Y-125254761D01*
X98942857Y-125207142D01*
X88433333Y-115757142D02*
X88385714Y-115804761D01*
X88242857Y-115852380D01*
X88147619Y-115852380D01*
X88004761Y-115804761D01*
X87909523Y-115709523D01*
X87861904Y-115614285D01*
X87814285Y-115423809D01*
X87814285Y-115280952D01*
X87861904Y-115090476D01*
X87909523Y-114995238D01*
X88004761Y-114900000D01*
X88147619Y-114852380D01*
X88242857Y-114852380D01*
X88385714Y-114900000D01*
X88433333Y-114947619D01*
X89290476Y-115185714D02*
X89290476Y-115852380D01*
X89052380Y-114804761D02*
X88814285Y-115519047D01*
X89433333Y-115519047D01*
X74604761Y-109447619D02*
X74509523Y-109400000D01*
X74414285Y-109304761D01*
X74271428Y-109161904D01*
X74176190Y-109114285D01*
X74080952Y-109114285D01*
X74128571Y-109352380D02*
X74033333Y-109304761D01*
X73938095Y-109209523D01*
X73890476Y-109019047D01*
X73890476Y-108685714D01*
X73938095Y-108495238D01*
X74033333Y-108400000D01*
X74128571Y-108352380D01*
X74319047Y-108352380D01*
X74414285Y-108400000D01*
X74509523Y-108495238D01*
X74557142Y-108685714D01*
X74557142Y-109019047D01*
X74509523Y-109209523D01*
X74414285Y-109304761D01*
X74319047Y-109352380D01*
X74128571Y-109352380D01*
X75414285Y-108352380D02*
X75223809Y-108352380D01*
X75128571Y-108400000D01*
X75080952Y-108447619D01*
X74985714Y-108590476D01*
X74938095Y-108780952D01*
X74938095Y-109161904D01*
X74985714Y-109257142D01*
X75033333Y-109304761D01*
X75128571Y-109352380D01*
X75319047Y-109352380D01*
X75414285Y-109304761D01*
X75461904Y-109257142D01*
X75509523Y-109161904D01*
X75509523Y-108923809D01*
X75461904Y-108828571D01*
X75414285Y-108780952D01*
X75319047Y-108733333D01*
X75128571Y-108733333D01*
X75033333Y-108780952D01*
X74985714Y-108828571D01*
X74938095Y-108923809D01*
X85583333Y-118657142D02*
X85535714Y-118704761D01*
X85392857Y-118752380D01*
X85297619Y-118752380D01*
X85154761Y-118704761D01*
X85059523Y-118609523D01*
X85011904Y-118514285D01*
X84964285Y-118323809D01*
X84964285Y-118180952D01*
X85011904Y-117990476D01*
X85059523Y-117895238D01*
X85154761Y-117800000D01*
X85297619Y-117752380D01*
X85392857Y-117752380D01*
X85535714Y-117800000D01*
X85583333Y-117847619D01*
X85916666Y-117752380D02*
X86535714Y-117752380D01*
X86202380Y-118133333D01*
X86345238Y-118133333D01*
X86440476Y-118180952D01*
X86488095Y-118228571D01*
X86535714Y-118323809D01*
X86535714Y-118561904D01*
X86488095Y-118657142D01*
X86440476Y-118704761D01*
X86345238Y-118752380D01*
X86059523Y-118752380D01*
X85964285Y-118704761D01*
X85916666Y-118657142D01*
X103666666Y-72004761D02*
X103809523Y-72052380D01*
X104047619Y-72052380D01*
X104142857Y-72004761D01*
X104190476Y-71957142D01*
X104238095Y-71861904D01*
X104238095Y-71766666D01*
X104190476Y-71671428D01*
X104142857Y-71623809D01*
X104047619Y-71576190D01*
X103857142Y-71528571D01*
X103761904Y-71480952D01*
X103714285Y-71433333D01*
X103666666Y-71338095D01*
X103666666Y-71242857D01*
X103714285Y-71147619D01*
X103761904Y-71100000D01*
X103857142Y-71052380D01*
X104095238Y-71052380D01*
X104238095Y-71100000D01*
X104571428Y-71052380D02*
X104809523Y-72052380D01*
X105000000Y-71338095D01*
X105190476Y-72052380D01*
X105428571Y-71052380D01*
X106333333Y-72052380D02*
X105761904Y-72052380D01*
X106047619Y-72052380D02*
X106047619Y-71052380D01*
X105952380Y-71195238D01*
X105857142Y-71290476D01*
X105761904Y-71338095D01*
X70604761Y-76947619D02*
X70509523Y-76900000D01*
X70414285Y-76804761D01*
X70271428Y-76661904D01*
X70176190Y-76614285D01*
X70080952Y-76614285D01*
X70128571Y-76852380D02*
X70033333Y-76804761D01*
X69938095Y-76709523D01*
X69890476Y-76519047D01*
X69890476Y-76185714D01*
X69938095Y-75995238D01*
X70033333Y-75900000D01*
X70128571Y-75852380D01*
X70319047Y-75852380D01*
X70414285Y-75900000D01*
X70509523Y-75995238D01*
X70557142Y-76185714D01*
X70557142Y-76519047D01*
X70509523Y-76709523D01*
X70414285Y-76804761D01*
X70319047Y-76852380D01*
X70128571Y-76852380D01*
X70938095Y-75947619D02*
X70985714Y-75900000D01*
X71080952Y-75852380D01*
X71319047Y-75852380D01*
X71414285Y-75900000D01*
X71461904Y-75947619D01*
X71509523Y-76042857D01*
X71509523Y-76138095D01*
X71461904Y-76280952D01*
X70890476Y-76852380D01*
X71509523Y-76852380D01*
X79133333Y-85352380D02*
X78800000Y-84876190D01*
X78561904Y-85352380D02*
X78561904Y-84352380D01*
X78942857Y-84352380D01*
X79038095Y-84400000D01*
X79085714Y-84447619D01*
X79133333Y-84542857D01*
X79133333Y-84685714D01*
X79085714Y-84780952D01*
X79038095Y-84828571D01*
X78942857Y-84876190D01*
X78561904Y-84876190D01*
X79990476Y-84352380D02*
X79800000Y-84352380D01*
X79704761Y-84400000D01*
X79657142Y-84447619D01*
X79561904Y-84590476D01*
X79514285Y-84780952D01*
X79514285Y-85161904D01*
X79561904Y-85257142D01*
X79609523Y-85304761D01*
X79704761Y-85352380D01*
X79895238Y-85352380D01*
X79990476Y-85304761D01*
X80038095Y-85257142D01*
X80085714Y-85161904D01*
X80085714Y-84923809D01*
X80038095Y-84828571D01*
X79990476Y-84780952D01*
X79895238Y-84733333D01*
X79704761Y-84733333D01*
X79609523Y-84780952D01*
X79561904Y-84828571D01*
X79514285Y-84923809D01*
X86304761Y-77647619D02*
X86209523Y-77600000D01*
X86114285Y-77504761D01*
X85971428Y-77361904D01*
X85876190Y-77314285D01*
X85780952Y-77314285D01*
X85828571Y-77552380D02*
X85733333Y-77504761D01*
X85638095Y-77409523D01*
X85590476Y-77219047D01*
X85590476Y-76885714D01*
X85638095Y-76695238D01*
X85733333Y-76600000D01*
X85828571Y-76552380D01*
X86019047Y-76552380D01*
X86114285Y-76600000D01*
X86209523Y-76695238D01*
X86257142Y-76885714D01*
X86257142Y-77219047D01*
X86209523Y-77409523D01*
X86114285Y-77504761D01*
X86019047Y-77552380D01*
X85828571Y-77552380D01*
X86733333Y-77552380D02*
X86923809Y-77552380D01*
X87019047Y-77504761D01*
X87066666Y-77457142D01*
X87161904Y-77314285D01*
X87209523Y-77123809D01*
X87209523Y-76742857D01*
X87161904Y-76647619D01*
X87114285Y-76600000D01*
X87019047Y-76552380D01*
X86828571Y-76552380D01*
X86733333Y-76600000D01*
X86685714Y-76647619D01*
X86638095Y-76742857D01*
X86638095Y-76980952D01*
X86685714Y-77076190D01*
X86733333Y-77123809D01*
X86828571Y-77171428D01*
X87019047Y-77171428D01*
X87114285Y-77123809D01*
X87161904Y-77076190D01*
X87209523Y-76980952D01*
X83644642Y-107402380D02*
X83311309Y-106926190D01*
X83073214Y-107402380D02*
X83073214Y-106402380D01*
X83454166Y-106402380D01*
X83549404Y-106450000D01*
X83597023Y-106497619D01*
X83644642Y-106592857D01*
X83644642Y-106735714D01*
X83597023Y-106830952D01*
X83549404Y-106878571D01*
X83454166Y-106926190D01*
X83073214Y-106926190D01*
X84597023Y-107402380D02*
X84025595Y-107402380D01*
X84311309Y-107402380D02*
X84311309Y-106402380D01*
X84216071Y-106545238D01*
X84120833Y-106640476D01*
X84025595Y-106688095D01*
X85454166Y-106402380D02*
X85263690Y-106402380D01*
X85168452Y-106450000D01*
X85120833Y-106497619D01*
X85025595Y-106640476D01*
X84977976Y-106830952D01*
X84977976Y-107211904D01*
X85025595Y-107307142D01*
X85073214Y-107354761D01*
X85168452Y-107402380D01*
X85358928Y-107402380D01*
X85454166Y-107354761D01*
X85501785Y-107307142D01*
X85549404Y-107211904D01*
X85549404Y-106973809D01*
X85501785Y-106878571D01*
X85454166Y-106830952D01*
X85358928Y-106783333D01*
X85168452Y-106783333D01*
X85073214Y-106830952D01*
X85025595Y-106878571D01*
X84977976Y-106973809D01*
X115533333Y-109157142D02*
X115485714Y-109204761D01*
X115342857Y-109252380D01*
X115247619Y-109252380D01*
X115104761Y-109204761D01*
X115009523Y-109109523D01*
X114961904Y-109014285D01*
X114914285Y-108823809D01*
X114914285Y-108680952D01*
X114961904Y-108490476D01*
X115009523Y-108395238D01*
X115104761Y-108300000D01*
X115247619Y-108252380D01*
X115342857Y-108252380D01*
X115485714Y-108300000D01*
X115533333Y-108347619D01*
X116104761Y-108680952D02*
X116009523Y-108633333D01*
X115961904Y-108585714D01*
X115914285Y-108490476D01*
X115914285Y-108442857D01*
X115961904Y-108347619D01*
X116009523Y-108300000D01*
X116104761Y-108252380D01*
X116295238Y-108252380D01*
X116390476Y-108300000D01*
X116438095Y-108347619D01*
X116485714Y-108442857D01*
X116485714Y-108490476D01*
X116438095Y-108585714D01*
X116390476Y-108633333D01*
X116295238Y-108680952D01*
X116104761Y-108680952D01*
X116009523Y-108728571D01*
X115961904Y-108776190D01*
X115914285Y-108871428D01*
X115914285Y-109061904D01*
X115961904Y-109157142D01*
X116009523Y-109204761D01*
X116104761Y-109252380D01*
X116295238Y-109252380D01*
X116390476Y-109204761D01*
X116438095Y-109157142D01*
X116485714Y-109061904D01*
X116485714Y-108871428D01*
X116438095Y-108776190D01*
X116390476Y-108728571D01*
X116295238Y-108680952D01*
X71204761Y-99047619D02*
X71109523Y-99000000D01*
X71014285Y-98904761D01*
X70871428Y-98761904D01*
X70776190Y-98714285D01*
X70680952Y-98714285D01*
X70728571Y-98952380D02*
X70633333Y-98904761D01*
X70538095Y-98809523D01*
X70490476Y-98619047D01*
X70490476Y-98285714D01*
X70538095Y-98095238D01*
X70633333Y-98000000D01*
X70728571Y-97952380D01*
X70919047Y-97952380D01*
X71014285Y-98000000D01*
X71109523Y-98095238D01*
X71157142Y-98285714D01*
X71157142Y-98619047D01*
X71109523Y-98809523D01*
X71014285Y-98904761D01*
X70919047Y-98952380D01*
X70728571Y-98952380D01*
X72061904Y-97952380D02*
X71585714Y-97952380D01*
X71538095Y-98428571D01*
X71585714Y-98380952D01*
X71680952Y-98333333D01*
X71919047Y-98333333D01*
X72014285Y-98380952D01*
X72061904Y-98428571D01*
X72109523Y-98523809D01*
X72109523Y-98761904D01*
X72061904Y-98857142D01*
X72014285Y-98904761D01*
X71919047Y-98952380D01*
X71680952Y-98952380D01*
X71585714Y-98904761D01*
X71538095Y-98857142D01*
X90433333Y-115707142D02*
X90385714Y-115754761D01*
X90242857Y-115802380D01*
X90147619Y-115802380D01*
X90004761Y-115754761D01*
X89909523Y-115659523D01*
X89861904Y-115564285D01*
X89814285Y-115373809D01*
X89814285Y-115230952D01*
X89861904Y-115040476D01*
X89909523Y-114945238D01*
X90004761Y-114850000D01*
X90147619Y-114802380D01*
X90242857Y-114802380D01*
X90385714Y-114850000D01*
X90433333Y-114897619D01*
X91338095Y-114802380D02*
X90861904Y-114802380D01*
X90814285Y-115278571D01*
X90861904Y-115230952D01*
X90957142Y-115183333D01*
X91195238Y-115183333D01*
X91290476Y-115230952D01*
X91338095Y-115278571D01*
X91385714Y-115373809D01*
X91385714Y-115611904D01*
X91338095Y-115707142D01*
X91290476Y-115754761D01*
X91195238Y-115802380D01*
X90957142Y-115802380D01*
X90861904Y-115754761D01*
X90814285Y-115707142D01*
X79557142Y-99752380D02*
X79223809Y-99276190D01*
X78985714Y-99752380D02*
X78985714Y-98752380D01*
X79366666Y-98752380D01*
X79461904Y-98800000D01*
X79509523Y-98847619D01*
X79557142Y-98942857D01*
X79557142Y-99085714D01*
X79509523Y-99180952D01*
X79461904Y-99228571D01*
X79366666Y-99276190D01*
X78985714Y-99276190D01*
X80509523Y-99752380D02*
X79938095Y-99752380D01*
X80223809Y-99752380D02*
X80223809Y-98752380D01*
X80128571Y-98895238D01*
X80033333Y-98990476D01*
X79938095Y-99038095D01*
X80842857Y-98752380D02*
X81461904Y-98752380D01*
X81128571Y-99133333D01*
X81271428Y-99133333D01*
X81366666Y-99180952D01*
X81414285Y-99228571D01*
X81461904Y-99323809D01*
X81461904Y-99561904D01*
X81414285Y-99657142D01*
X81366666Y-99704761D01*
X81271428Y-99752380D01*
X80985714Y-99752380D01*
X80890476Y-99704761D01*
X80842857Y-99657142D01*
X80252380Y-111542857D02*
X79776190Y-111876190D01*
X80252380Y-112114285D02*
X79252380Y-112114285D01*
X79252380Y-111733333D01*
X79300000Y-111638095D01*
X79347619Y-111590476D01*
X79442857Y-111542857D01*
X79585714Y-111542857D01*
X79680952Y-111590476D01*
X79728571Y-111638095D01*
X79776190Y-111733333D01*
X79776190Y-112114285D01*
X80252380Y-110590476D02*
X80252380Y-111161904D01*
X80252380Y-110876190D02*
X79252380Y-110876190D01*
X79395238Y-110971428D01*
X79490476Y-111066666D01*
X79538095Y-111161904D01*
X79252380Y-109685714D02*
X79252380Y-110161904D01*
X79728571Y-110209523D01*
X79680952Y-110161904D01*
X79633333Y-110066666D01*
X79633333Y-109828571D01*
X79680952Y-109733333D01*
X79728571Y-109685714D01*
X79823809Y-109638095D01*
X80061904Y-109638095D01*
X80157142Y-109685714D01*
X80204761Y-109733333D01*
X80252380Y-109828571D01*
X80252380Y-110066666D01*
X80204761Y-110161904D01*
X80157142Y-110209523D01*
D13*
X122110238Y-82624523D02*
X122110238Y-81354523D01*
X123440714Y-82503571D02*
X123380238Y-82564047D01*
X123198809Y-82624523D01*
X123077857Y-82624523D01*
X122896428Y-82564047D01*
X122775476Y-82443095D01*
X122715000Y-82322142D01*
X122654523Y-82080238D01*
X122654523Y-81898809D01*
X122715000Y-81656904D01*
X122775476Y-81535952D01*
X122896428Y-81415000D01*
X123077857Y-81354523D01*
X123198809Y-81354523D01*
X123380238Y-81415000D01*
X123440714Y-81475476D01*
X123864047Y-81354523D02*
X124650238Y-81354523D01*
X124226904Y-81838333D01*
X124408333Y-81838333D01*
X124529285Y-81898809D01*
X124589761Y-81959285D01*
X124650238Y-82080238D01*
X124650238Y-82382619D01*
X124589761Y-82503571D01*
X124529285Y-82564047D01*
X124408333Y-82624523D01*
X124045476Y-82624523D01*
X123924523Y-82564047D01*
X123864047Y-82503571D01*
D12*
X65961904Y-117952380D02*
X65961904Y-116952380D01*
X66200000Y-116952380D01*
X66342857Y-117000000D01*
X66438095Y-117095238D01*
X66485714Y-117190476D01*
X66533333Y-117380952D01*
X66533333Y-117523809D01*
X66485714Y-117714285D01*
X66438095Y-117809523D01*
X66342857Y-117904761D01*
X66200000Y-117952380D01*
X65961904Y-117952380D01*
X66866666Y-116952380D02*
X67533333Y-116952380D01*
X67104761Y-117952380D01*
X81033333Y-94052380D02*
X80700000Y-93576190D01*
X80461904Y-94052380D02*
X80461904Y-93052380D01*
X80842857Y-93052380D01*
X80938095Y-93100000D01*
X80985714Y-93147619D01*
X81033333Y-93242857D01*
X81033333Y-93385714D01*
X80985714Y-93480952D01*
X80938095Y-93528571D01*
X80842857Y-93576190D01*
X80461904Y-93576190D01*
X81890476Y-93385714D02*
X81890476Y-94052380D01*
X81652380Y-93004761D02*
X81414285Y-93719047D01*
X82033333Y-93719047D01*
D13*
X112810238Y-113224523D02*
X112810238Y-111954523D01*
X114140714Y-113103571D02*
X114080238Y-113164047D01*
X113898809Y-113224523D01*
X113777857Y-113224523D01*
X113596428Y-113164047D01*
X113475476Y-113043095D01*
X113415000Y-112922142D01*
X113354523Y-112680238D01*
X113354523Y-112498809D01*
X113415000Y-112256904D01*
X113475476Y-112135952D01*
X113596428Y-112015000D01*
X113777857Y-111954523D01*
X113898809Y-111954523D01*
X114080238Y-112015000D01*
X114140714Y-112075476D01*
X114624523Y-112075476D02*
X114685000Y-112015000D01*
X114805952Y-111954523D01*
X115108333Y-111954523D01*
X115229285Y-112015000D01*
X115289761Y-112075476D01*
X115350238Y-112196428D01*
X115350238Y-112317380D01*
X115289761Y-112498809D01*
X114564047Y-113224523D01*
X115350238Y-113224523D01*
D12*
X95757142Y-97602380D02*
X95423809Y-97126190D01*
X95185714Y-97602380D02*
X95185714Y-96602380D01*
X95566666Y-96602380D01*
X95661904Y-96650000D01*
X95709523Y-96697619D01*
X95757142Y-96792857D01*
X95757142Y-96935714D01*
X95709523Y-97030952D01*
X95661904Y-97078571D01*
X95566666Y-97126190D01*
X95185714Y-97126190D01*
X96138095Y-96697619D02*
X96185714Y-96650000D01*
X96280952Y-96602380D01*
X96519047Y-96602380D01*
X96614285Y-96650000D01*
X96661904Y-96697619D01*
X96709523Y-96792857D01*
X96709523Y-96888095D01*
X96661904Y-97030952D01*
X96090476Y-97602380D01*
X96709523Y-97602380D01*
X97280952Y-97030952D02*
X97185714Y-96983333D01*
X97138095Y-96935714D01*
X97090476Y-96840476D01*
X97090476Y-96792857D01*
X97138095Y-96697619D01*
X97185714Y-96650000D01*
X97280952Y-96602380D01*
X97471428Y-96602380D01*
X97566666Y-96650000D01*
X97614285Y-96697619D01*
X97661904Y-96792857D01*
X97661904Y-96840476D01*
X97614285Y-96935714D01*
X97566666Y-96983333D01*
X97471428Y-97030952D01*
X97280952Y-97030952D01*
X97185714Y-97078571D01*
X97138095Y-97126190D01*
X97090476Y-97221428D01*
X97090476Y-97411904D01*
X97138095Y-97507142D01*
X97185714Y-97554761D01*
X97280952Y-97602380D01*
X97471428Y-97602380D01*
X97566666Y-97554761D01*
X97614285Y-97507142D01*
X97661904Y-97411904D01*
X97661904Y-97221428D01*
X97614285Y-97126190D01*
X97566666Y-97078571D01*
X97471428Y-97030952D01*
X121633333Y-106152380D02*
X121157142Y-106152380D01*
X121157142Y-105152380D01*
X121919047Y-105247619D02*
X121966666Y-105200000D01*
X122061904Y-105152380D01*
X122300000Y-105152380D01*
X122395238Y-105200000D01*
X122442857Y-105247619D01*
X122490476Y-105342857D01*
X122490476Y-105438095D01*
X122442857Y-105580952D01*
X121871428Y-106152380D01*
X122490476Y-106152380D01*
X90257142Y-79852380D02*
X89923809Y-79376190D01*
X89685714Y-79852380D02*
X89685714Y-78852380D01*
X90066666Y-78852380D01*
X90161904Y-78900000D01*
X90209523Y-78947619D01*
X90257142Y-79042857D01*
X90257142Y-79185714D01*
X90209523Y-79280952D01*
X90161904Y-79328571D01*
X90066666Y-79376190D01*
X89685714Y-79376190D01*
X91209523Y-79852380D02*
X90638095Y-79852380D01*
X90923809Y-79852380D02*
X90923809Y-78852380D01*
X90828571Y-78995238D01*
X90733333Y-79090476D01*
X90638095Y-79138095D01*
X91780952Y-79280952D02*
X91685714Y-79233333D01*
X91638095Y-79185714D01*
X91590476Y-79090476D01*
X91590476Y-79042857D01*
X91638095Y-78947619D01*
X91685714Y-78900000D01*
X91780952Y-78852380D01*
X91971428Y-78852380D01*
X92066666Y-78900000D01*
X92114285Y-78947619D01*
X92161904Y-79042857D01*
X92161904Y-79090476D01*
X92114285Y-79185714D01*
X92066666Y-79233333D01*
X91971428Y-79280952D01*
X91780952Y-79280952D01*
X91685714Y-79328571D01*
X91638095Y-79376190D01*
X91590476Y-79471428D01*
X91590476Y-79661904D01*
X91638095Y-79757142D01*
X91685714Y-79804761D01*
X91780952Y-79852380D01*
X91971428Y-79852380D01*
X92066666Y-79804761D01*
X92114285Y-79757142D01*
X92161904Y-79661904D01*
X92161904Y-79471428D01*
X92114285Y-79376190D01*
X92066666Y-79328571D01*
X91971428Y-79280952D01*
X97585714Y-117902380D02*
X97585714Y-116902380D01*
X97823809Y-116902380D01*
X97966666Y-116950000D01*
X98061904Y-117045238D01*
X98109523Y-117140476D01*
X98157142Y-117330952D01*
X98157142Y-117473809D01*
X98109523Y-117664285D01*
X98061904Y-117759523D01*
X97966666Y-117854761D01*
X97823809Y-117902380D01*
X97585714Y-117902380D01*
X99109523Y-117902380D02*
X98538095Y-117902380D01*
X98823809Y-117902380D02*
X98823809Y-116902380D01*
X98728571Y-117045238D01*
X98633333Y-117140476D01*
X98538095Y-117188095D01*
X100061904Y-117902380D02*
X99490476Y-117902380D01*
X99776190Y-117902380D02*
X99776190Y-116902380D01*
X99680952Y-117045238D01*
X99585714Y-117140476D01*
X99490476Y-117188095D01*
X110657142Y-66452380D02*
X110323809Y-65976190D01*
X110085714Y-66452380D02*
X110085714Y-65452380D01*
X110466666Y-65452380D01*
X110561904Y-65500000D01*
X110609523Y-65547619D01*
X110657142Y-65642857D01*
X110657142Y-65785714D01*
X110609523Y-65880952D01*
X110561904Y-65928571D01*
X110466666Y-65976190D01*
X110085714Y-65976190D01*
X110990476Y-65452380D02*
X111609523Y-65452380D01*
X111276190Y-65833333D01*
X111419047Y-65833333D01*
X111514285Y-65880952D01*
X111561904Y-65928571D01*
X111609523Y-66023809D01*
X111609523Y-66261904D01*
X111561904Y-66357142D01*
X111514285Y-66404761D01*
X111419047Y-66452380D01*
X111133333Y-66452380D01*
X111038095Y-66404761D01*
X110990476Y-66357142D01*
X111990476Y-65547619D02*
X112038095Y-65500000D01*
X112133333Y-65452380D01*
X112371428Y-65452380D01*
X112466666Y-65500000D01*
X112514285Y-65547619D01*
X112561904Y-65642857D01*
X112561904Y-65738095D01*
X112514285Y-65880952D01*
X111942857Y-66452380D01*
X112561904Y-66452380D01*
X113357142Y-77852380D02*
X113023809Y-77376190D01*
X112785714Y-77852380D02*
X112785714Y-76852380D01*
X113166666Y-76852380D01*
X113261904Y-76900000D01*
X113309523Y-76947619D01*
X113357142Y-77042857D01*
X113357142Y-77185714D01*
X113309523Y-77280952D01*
X113261904Y-77328571D01*
X113166666Y-77376190D01*
X112785714Y-77376190D01*
X113738095Y-76947619D02*
X113785714Y-76900000D01*
X113880952Y-76852380D01*
X114119047Y-76852380D01*
X114214285Y-76900000D01*
X114261904Y-76947619D01*
X114309523Y-77042857D01*
X114309523Y-77138095D01*
X114261904Y-77280952D01*
X113690476Y-77852380D01*
X114309523Y-77852380D01*
X115166666Y-77185714D02*
X115166666Y-77852380D01*
X114928571Y-76804761D02*
X114690476Y-77519047D01*
X115309523Y-77519047D01*
X123357142Y-95652380D02*
X123023809Y-95176190D01*
X122785714Y-95652380D02*
X122785714Y-94652380D01*
X123166666Y-94652380D01*
X123261904Y-94700000D01*
X123309523Y-94747619D01*
X123357142Y-94842857D01*
X123357142Y-94985714D01*
X123309523Y-95080952D01*
X123261904Y-95128571D01*
X123166666Y-95176190D01*
X122785714Y-95176190D01*
X123738095Y-94747619D02*
X123785714Y-94700000D01*
X123880952Y-94652380D01*
X124119047Y-94652380D01*
X124214285Y-94700000D01*
X124261904Y-94747619D01*
X124309523Y-94842857D01*
X124309523Y-94938095D01*
X124261904Y-95080952D01*
X123690476Y-95652380D01*
X124309523Y-95652380D01*
X125166666Y-94652380D02*
X124976190Y-94652380D01*
X124880952Y-94700000D01*
X124833333Y-94747619D01*
X124738095Y-94890476D01*
X124690476Y-95080952D01*
X124690476Y-95461904D01*
X124738095Y-95557142D01*
X124785714Y-95604761D01*
X124880952Y-95652380D01*
X125071428Y-95652380D01*
X125166666Y-95604761D01*
X125214285Y-95557142D01*
X125261904Y-95461904D01*
X125261904Y-95223809D01*
X125214285Y-95128571D01*
X125166666Y-95080952D01*
X125071428Y-95033333D01*
X124880952Y-95033333D01*
X124785714Y-95080952D01*
X124738095Y-95128571D01*
X124690476Y-95223809D01*
X112357142Y-104152380D02*
X112023809Y-103676190D01*
X111785714Y-104152380D02*
X111785714Y-103152380D01*
X112166666Y-103152380D01*
X112261904Y-103200000D01*
X112309523Y-103247619D01*
X112357142Y-103342857D01*
X112357142Y-103485714D01*
X112309523Y-103580952D01*
X112261904Y-103628571D01*
X112166666Y-103676190D01*
X111785714Y-103676190D01*
X112738095Y-103247619D02*
X112785714Y-103200000D01*
X112880952Y-103152380D01*
X113119047Y-103152380D01*
X113214285Y-103200000D01*
X113261904Y-103247619D01*
X113309523Y-103342857D01*
X113309523Y-103438095D01*
X113261904Y-103580952D01*
X112690476Y-104152380D01*
X113309523Y-104152380D01*
X113928571Y-103152380D02*
X114023809Y-103152380D01*
X114119047Y-103200000D01*
X114166666Y-103247619D01*
X114214285Y-103342857D01*
X114261904Y-103533333D01*
X114261904Y-103771428D01*
X114214285Y-103961904D01*
X114166666Y-104057142D01*
X114119047Y-104104761D01*
X114023809Y-104152380D01*
X113928571Y-104152380D01*
X113833333Y-104104761D01*
X113785714Y-104057142D01*
X113738095Y-103961904D01*
X113690476Y-103771428D01*
X113690476Y-103533333D01*
X113738095Y-103342857D01*
X113785714Y-103247619D01*
X113833333Y-103200000D01*
X113928571Y-103152380D01*
X113657142Y-66452380D02*
X113323809Y-65976190D01*
X113085714Y-66452380D02*
X113085714Y-65452380D01*
X113466666Y-65452380D01*
X113561904Y-65500000D01*
X113609523Y-65547619D01*
X113657142Y-65642857D01*
X113657142Y-65785714D01*
X113609523Y-65880952D01*
X113561904Y-65928571D01*
X113466666Y-65976190D01*
X113085714Y-65976190D01*
X113990476Y-65452380D02*
X114609523Y-65452380D01*
X114276190Y-65833333D01*
X114419047Y-65833333D01*
X114514285Y-65880952D01*
X114561904Y-65928571D01*
X114609523Y-66023809D01*
X114609523Y-66261904D01*
X114561904Y-66357142D01*
X114514285Y-66404761D01*
X114419047Y-66452380D01*
X114133333Y-66452380D01*
X114038095Y-66404761D01*
X113990476Y-66357142D01*
X115228571Y-65452380D02*
X115323809Y-65452380D01*
X115419047Y-65500000D01*
X115466666Y-65547619D01*
X115514285Y-65642857D01*
X115561904Y-65833333D01*
X115561904Y-66071428D01*
X115514285Y-66261904D01*
X115466666Y-66357142D01*
X115419047Y-66404761D01*
X115323809Y-66452380D01*
X115228571Y-66452380D01*
X115133333Y-66404761D01*
X115085714Y-66357142D01*
X115038095Y-66261904D01*
X114990476Y-66071428D01*
X114990476Y-65833333D01*
X115038095Y-65642857D01*
X115085714Y-65547619D01*
X115133333Y-65500000D01*
X115228571Y-65452380D01*
X79757142Y-105152380D02*
X79423809Y-104676190D01*
X79185714Y-105152380D02*
X79185714Y-104152380D01*
X79566666Y-104152380D01*
X79661904Y-104200000D01*
X79709523Y-104247619D01*
X79757142Y-104342857D01*
X79757142Y-104485714D01*
X79709523Y-104580952D01*
X79661904Y-104628571D01*
X79566666Y-104676190D01*
X79185714Y-104676190D01*
X80709523Y-105152380D02*
X80138095Y-105152380D01*
X80423809Y-105152380D02*
X80423809Y-104152380D01*
X80328571Y-104295238D01*
X80233333Y-104390476D01*
X80138095Y-104438095D01*
X81566666Y-104485714D02*
X81566666Y-105152380D01*
X81328571Y-104104761D02*
X81090476Y-104819047D01*
X81709523Y-104819047D01*
X93907142Y-123352380D02*
X93573809Y-122876190D01*
X93335714Y-123352380D02*
X93335714Y-122352380D01*
X93716666Y-122352380D01*
X93811904Y-122400000D01*
X93859523Y-122447619D01*
X93907142Y-122542857D01*
X93907142Y-122685714D01*
X93859523Y-122780952D01*
X93811904Y-122828571D01*
X93716666Y-122876190D01*
X93335714Y-122876190D01*
X94240476Y-122352380D02*
X94859523Y-122352380D01*
X94526190Y-122733333D01*
X94669047Y-122733333D01*
X94764285Y-122780952D01*
X94811904Y-122828571D01*
X94859523Y-122923809D01*
X94859523Y-123161904D01*
X94811904Y-123257142D01*
X94764285Y-123304761D01*
X94669047Y-123352380D01*
X94383333Y-123352380D01*
X94288095Y-123304761D01*
X94240476Y-123257142D01*
X95764285Y-122352380D02*
X95288095Y-122352380D01*
X95240476Y-122828571D01*
X95288095Y-122780952D01*
X95383333Y-122733333D01*
X95621428Y-122733333D01*
X95716666Y-122780952D01*
X95764285Y-122828571D01*
X95811904Y-122923809D01*
X95811904Y-123161904D01*
X95764285Y-123257142D01*
X95716666Y-123304761D01*
X95621428Y-123352380D01*
X95383333Y-123352380D01*
X95288095Y-123304761D01*
X95240476Y-123257142D01*
X93757142Y-126552380D02*
X93423809Y-126076190D01*
X93185714Y-126552380D02*
X93185714Y-125552380D01*
X93566666Y-125552380D01*
X93661904Y-125600000D01*
X93709523Y-125647619D01*
X93757142Y-125742857D01*
X93757142Y-125885714D01*
X93709523Y-125980952D01*
X93661904Y-126028571D01*
X93566666Y-126076190D01*
X93185714Y-126076190D01*
X94709523Y-126552380D02*
X94138095Y-126552380D01*
X94423809Y-126552380D02*
X94423809Y-125552380D01*
X94328571Y-125695238D01*
X94233333Y-125790476D01*
X94138095Y-125838095D01*
X95185714Y-126552380D02*
X95376190Y-126552380D01*
X95471428Y-126504761D01*
X95519047Y-126457142D01*
X95614285Y-126314285D01*
X95661904Y-126123809D01*
X95661904Y-125742857D01*
X95614285Y-125647619D01*
X95566666Y-125600000D01*
X95471428Y-125552380D01*
X95280952Y-125552380D01*
X95185714Y-125600000D01*
X95138095Y-125647619D01*
X95090476Y-125742857D01*
X95090476Y-125980952D01*
X95138095Y-126076190D01*
X95185714Y-126123809D01*
X95280952Y-126171428D01*
X95471428Y-126171428D01*
X95566666Y-126123809D01*
X95614285Y-126076190D01*
X95661904Y-125980952D01*
X80633333Y-83352380D02*
X80300000Y-82876190D01*
X80061904Y-83352380D02*
X80061904Y-82352380D01*
X80442857Y-82352380D01*
X80538095Y-82400000D01*
X80585714Y-82447619D01*
X80633333Y-82542857D01*
X80633333Y-82685714D01*
X80585714Y-82780952D01*
X80538095Y-82828571D01*
X80442857Y-82876190D01*
X80061904Y-82876190D01*
X81014285Y-82447619D02*
X81061904Y-82400000D01*
X81157142Y-82352380D01*
X81395238Y-82352380D01*
X81490476Y-82400000D01*
X81538095Y-82447619D01*
X81585714Y-82542857D01*
X81585714Y-82638095D01*
X81538095Y-82780952D01*
X80966666Y-83352380D01*
X81585714Y-83352380D01*
X73704761Y-84847619D02*
X73609523Y-84800000D01*
X73514285Y-84704761D01*
X73371428Y-84561904D01*
X73276190Y-84514285D01*
X73180952Y-84514285D01*
X73228571Y-84752380D02*
X73133333Y-84704761D01*
X73038095Y-84609523D01*
X72990476Y-84419047D01*
X72990476Y-84085714D01*
X73038095Y-83895238D01*
X73133333Y-83800000D01*
X73228571Y-83752380D01*
X73419047Y-83752380D01*
X73514285Y-83800000D01*
X73609523Y-83895238D01*
X73657142Y-84085714D01*
X73657142Y-84419047D01*
X73609523Y-84609523D01*
X73514285Y-84704761D01*
X73419047Y-84752380D01*
X73228571Y-84752380D01*
X73990476Y-83752380D02*
X74609523Y-83752380D01*
X74276190Y-84133333D01*
X74419047Y-84133333D01*
X74514285Y-84180952D01*
X74561904Y-84228571D01*
X74609523Y-84323809D01*
X74609523Y-84561904D01*
X74561904Y-84657142D01*
X74514285Y-84704761D01*
X74419047Y-84752380D01*
X74133333Y-84752380D01*
X74038095Y-84704761D01*
X73990476Y-84657142D01*
X84883333Y-125357142D02*
X84835714Y-125404761D01*
X84692857Y-125452380D01*
X84597619Y-125452380D01*
X84454761Y-125404761D01*
X84359523Y-125309523D01*
X84311904Y-125214285D01*
X84264285Y-125023809D01*
X84264285Y-124880952D01*
X84311904Y-124690476D01*
X84359523Y-124595238D01*
X84454761Y-124500000D01*
X84597619Y-124452380D01*
X84692857Y-124452380D01*
X84835714Y-124500000D01*
X84883333Y-124547619D01*
X85835714Y-125452380D02*
X85264285Y-125452380D01*
X85550000Y-125452380D02*
X85550000Y-124452380D01*
X85454761Y-124595238D01*
X85359523Y-124690476D01*
X85264285Y-124738095D01*
X108157142Y-72052380D02*
X107823809Y-71576190D01*
X107585714Y-72052380D02*
X107585714Y-71052380D01*
X107966666Y-71052380D01*
X108061904Y-71100000D01*
X108109523Y-71147619D01*
X108157142Y-71242857D01*
X108157142Y-71385714D01*
X108109523Y-71480952D01*
X108061904Y-71528571D01*
X107966666Y-71576190D01*
X107585714Y-71576190D01*
X108538095Y-71147619D02*
X108585714Y-71100000D01*
X108680952Y-71052380D01*
X108919047Y-71052380D01*
X109014285Y-71100000D01*
X109061904Y-71147619D01*
X109109523Y-71242857D01*
X109109523Y-71338095D01*
X109061904Y-71480952D01*
X108490476Y-72052380D01*
X109109523Y-72052380D01*
X109585714Y-72052380D02*
X109776190Y-72052380D01*
X109871428Y-72004761D01*
X109919047Y-71957142D01*
X110014285Y-71814285D01*
X110061904Y-71623809D01*
X110061904Y-71242857D01*
X110014285Y-71147619D01*
X109966666Y-71100000D01*
X109871428Y-71052380D01*
X109680952Y-71052380D01*
X109585714Y-71100000D01*
X109538095Y-71147619D01*
X109490476Y-71242857D01*
X109490476Y-71480952D01*
X109538095Y-71576190D01*
X109585714Y-71623809D01*
X109680952Y-71671428D01*
X109871428Y-71671428D01*
X109966666Y-71623809D01*
X110014285Y-71576190D01*
X110061904Y-71480952D01*
X71552380Y-105238095D02*
X70552380Y-105238095D01*
X70552380Y-105000000D01*
X70600000Y-104857142D01*
X70695238Y-104761904D01*
X70790476Y-104714285D01*
X70980952Y-104666666D01*
X71123809Y-104666666D01*
X71314285Y-104714285D01*
X71409523Y-104761904D01*
X71504761Y-104857142D01*
X71552380Y-105000000D01*
X71552380Y-105238095D01*
X70552380Y-103761904D02*
X70552380Y-104238095D01*
X71028571Y-104285714D01*
X70980952Y-104238095D01*
X70933333Y-104142857D01*
X70933333Y-103904761D01*
X70980952Y-103809523D01*
X71028571Y-103761904D01*
X71123809Y-103714285D01*
X71361904Y-103714285D01*
X71457142Y-103761904D01*
X71504761Y-103809523D01*
X71552380Y-103904761D01*
X71552380Y-104142857D01*
X71504761Y-104238095D01*
X71457142Y-104285714D01*
X89202380Y-110592857D02*
X88726190Y-110926190D01*
X89202380Y-111164285D02*
X88202380Y-111164285D01*
X88202380Y-110783333D01*
X88250000Y-110688095D01*
X88297619Y-110640476D01*
X88392857Y-110592857D01*
X88535714Y-110592857D01*
X88630952Y-110640476D01*
X88678571Y-110688095D01*
X88726190Y-110783333D01*
X88726190Y-111164285D01*
X88202380Y-110259523D02*
X88202380Y-109640476D01*
X88583333Y-109973809D01*
X88583333Y-109830952D01*
X88630952Y-109735714D01*
X88678571Y-109688095D01*
X88773809Y-109640476D01*
X89011904Y-109640476D01*
X89107142Y-109688095D01*
X89154761Y-109735714D01*
X89202380Y-109830952D01*
X89202380Y-110116666D01*
X89154761Y-110211904D01*
X89107142Y-110259523D01*
X88202380Y-108783333D02*
X88202380Y-108973809D01*
X88250000Y-109069047D01*
X88297619Y-109116666D01*
X88440476Y-109211904D01*
X88630952Y-109259523D01*
X89011904Y-109259523D01*
X89107142Y-109211904D01*
X89154761Y-109164285D01*
X89202380Y-109069047D01*
X89202380Y-108878571D01*
X89154761Y-108783333D01*
X89107142Y-108735714D01*
X89011904Y-108688095D01*
X88773809Y-108688095D01*
X88678571Y-108735714D01*
X88630952Y-108783333D01*
X88583333Y-108878571D01*
X88583333Y-109069047D01*
X88630952Y-109164285D01*
X88678571Y-109211904D01*
X88773809Y-109259523D01*
X103257142Y-114502380D02*
X102923809Y-114026190D01*
X102685714Y-114502380D02*
X102685714Y-113502380D01*
X103066666Y-113502380D01*
X103161904Y-113550000D01*
X103209523Y-113597619D01*
X103257142Y-113692857D01*
X103257142Y-113835714D01*
X103209523Y-113930952D01*
X103161904Y-113978571D01*
X103066666Y-114026190D01*
X102685714Y-114026190D01*
X103638095Y-113597619D02*
X103685714Y-113550000D01*
X103780952Y-113502380D01*
X104019047Y-113502380D01*
X104114285Y-113550000D01*
X104161904Y-113597619D01*
X104209523Y-113692857D01*
X104209523Y-113788095D01*
X104161904Y-113930952D01*
X103590476Y-114502380D01*
X104209523Y-114502380D01*
X105161904Y-114502380D02*
X104590476Y-114502380D01*
X104876190Y-114502380D02*
X104876190Y-113502380D01*
X104780952Y-113645238D01*
X104685714Y-113740476D01*
X104590476Y-113788095D01*
X101833333Y-105657142D02*
X101785714Y-105704761D01*
X101642857Y-105752380D01*
X101547619Y-105752380D01*
X101404761Y-105704761D01*
X101309523Y-105609523D01*
X101261904Y-105514285D01*
X101214285Y-105323809D01*
X101214285Y-105180952D01*
X101261904Y-104990476D01*
X101309523Y-104895238D01*
X101404761Y-104800000D01*
X101547619Y-104752380D01*
X101642857Y-104752380D01*
X101785714Y-104800000D01*
X101833333Y-104847619D01*
X102166666Y-104752380D02*
X102833333Y-104752380D01*
X102404761Y-105752380D01*
X91833333Y-123257142D02*
X91785714Y-123304761D01*
X91642857Y-123352380D01*
X91547619Y-123352380D01*
X91404761Y-123304761D01*
X91309523Y-123209523D01*
X91261904Y-123114285D01*
X91214285Y-122923809D01*
X91214285Y-122780952D01*
X91261904Y-122590476D01*
X91309523Y-122495238D01*
X91404761Y-122400000D01*
X91547619Y-122352380D01*
X91642857Y-122352380D01*
X91785714Y-122400000D01*
X91833333Y-122447619D01*
X92690476Y-122352380D02*
X92500000Y-122352380D01*
X92404761Y-122400000D01*
X92357142Y-122447619D01*
X92261904Y-122590476D01*
X92214285Y-122780952D01*
X92214285Y-123161904D01*
X92261904Y-123257142D01*
X92309523Y-123304761D01*
X92404761Y-123352380D01*
X92595238Y-123352380D01*
X92690476Y-123304761D01*
X92738095Y-123257142D01*
X92785714Y-123161904D01*
X92785714Y-122923809D01*
X92738095Y-122828571D01*
X92690476Y-122780952D01*
X92595238Y-122733333D01*
X92404761Y-122733333D01*
X92309523Y-122780952D01*
X92261904Y-122828571D01*
X92214285Y-122923809D01*
X126557142Y-95652380D02*
X126223809Y-95176190D01*
X125985714Y-95652380D02*
X125985714Y-94652380D01*
X126366666Y-94652380D01*
X126461904Y-94700000D01*
X126509523Y-94747619D01*
X126557142Y-94842857D01*
X126557142Y-94985714D01*
X126509523Y-95080952D01*
X126461904Y-95128571D01*
X126366666Y-95176190D01*
X125985714Y-95176190D01*
X126938095Y-94747619D02*
X126985714Y-94700000D01*
X127080952Y-94652380D01*
X127319047Y-94652380D01*
X127414285Y-94700000D01*
X127461904Y-94747619D01*
X127509523Y-94842857D01*
X127509523Y-94938095D01*
X127461904Y-95080952D01*
X126890476Y-95652380D01*
X127509523Y-95652380D01*
X128414285Y-94652380D02*
X127938095Y-94652380D01*
X127890476Y-95128571D01*
X127938095Y-95080952D01*
X128033333Y-95033333D01*
X128271428Y-95033333D01*
X128366666Y-95080952D01*
X128414285Y-95128571D01*
X128461904Y-95223809D01*
X128461904Y-95461904D01*
X128414285Y-95557142D01*
X128366666Y-95604761D01*
X128271428Y-95652380D01*
X128033333Y-95652380D01*
X127938095Y-95604761D01*
X127890476Y-95557142D01*
X98207142Y-120752380D02*
X97873809Y-120276190D01*
X97635714Y-120752380D02*
X97635714Y-119752380D01*
X98016666Y-119752380D01*
X98111904Y-119800000D01*
X98159523Y-119847619D01*
X98207142Y-119942857D01*
X98207142Y-120085714D01*
X98159523Y-120180952D01*
X98111904Y-120228571D01*
X98016666Y-120276190D01*
X97635714Y-120276190D01*
X98540476Y-119752380D02*
X99159523Y-119752380D01*
X98826190Y-120133333D01*
X98969047Y-120133333D01*
X99064285Y-120180952D01*
X99111904Y-120228571D01*
X99159523Y-120323809D01*
X99159523Y-120561904D01*
X99111904Y-120657142D01*
X99064285Y-120704761D01*
X98969047Y-120752380D01*
X98683333Y-120752380D01*
X98588095Y-120704761D01*
X98540476Y-120657142D01*
X100016666Y-120085714D02*
X100016666Y-120752380D01*
X99778571Y-119704761D02*
X99540476Y-120419047D01*
X100159523Y-120419047D01*
X94407142Y-107252380D02*
X94073809Y-106776190D01*
X93835714Y-107252380D02*
X93835714Y-106252380D01*
X94216666Y-106252380D01*
X94311904Y-106300000D01*
X94359523Y-106347619D01*
X94407142Y-106442857D01*
X94407142Y-106585714D01*
X94359523Y-106680952D01*
X94311904Y-106728571D01*
X94216666Y-106776190D01*
X93835714Y-106776190D01*
X94740476Y-106252380D02*
X95359523Y-106252380D01*
X95026190Y-106633333D01*
X95169047Y-106633333D01*
X95264285Y-106680952D01*
X95311904Y-106728571D01*
X95359523Y-106823809D01*
X95359523Y-107061904D01*
X95311904Y-107157142D01*
X95264285Y-107204761D01*
X95169047Y-107252380D01*
X94883333Y-107252380D01*
X94788095Y-107204761D01*
X94740476Y-107157142D01*
X95692857Y-106252380D02*
X96359523Y-106252380D01*
X95930952Y-107252380D01*
X65961904Y-73652380D02*
X65961904Y-72652380D01*
X66200000Y-72652380D01*
X66342857Y-72700000D01*
X66438095Y-72795238D01*
X66485714Y-72890476D01*
X66533333Y-73080952D01*
X66533333Y-73223809D01*
X66485714Y-73414285D01*
X66438095Y-73509523D01*
X66342857Y-73604761D01*
X66200000Y-73652380D01*
X65961904Y-73652380D01*
X67485714Y-73652380D02*
X66914285Y-73652380D01*
X67200000Y-73652380D02*
X67200000Y-72652380D01*
X67104761Y-72795238D01*
X67009523Y-72890476D01*
X66914285Y-72938095D01*
X65961904Y-75852380D02*
X65961904Y-74852380D01*
X66200000Y-74852380D01*
X66342857Y-74900000D01*
X66438095Y-74995238D01*
X66485714Y-75090476D01*
X66533333Y-75280952D01*
X66533333Y-75423809D01*
X66485714Y-75614285D01*
X66438095Y-75709523D01*
X66342857Y-75804761D01*
X66200000Y-75852380D01*
X65961904Y-75852380D01*
X66914285Y-74947619D02*
X66961904Y-74900000D01*
X67057142Y-74852380D01*
X67295238Y-74852380D01*
X67390476Y-74900000D01*
X67438095Y-74947619D01*
X67485714Y-75042857D01*
X67485714Y-75138095D01*
X67438095Y-75280952D01*
X66866666Y-75852380D01*
X67485714Y-75852380D01*
X90257142Y-81852380D02*
X89923809Y-81376190D01*
X89685714Y-81852380D02*
X89685714Y-80852380D01*
X90066666Y-80852380D01*
X90161904Y-80900000D01*
X90209523Y-80947619D01*
X90257142Y-81042857D01*
X90257142Y-81185714D01*
X90209523Y-81280952D01*
X90161904Y-81328571D01*
X90066666Y-81376190D01*
X89685714Y-81376190D01*
X91209523Y-81852380D02*
X90638095Y-81852380D01*
X90923809Y-81852380D02*
X90923809Y-80852380D01*
X90828571Y-80995238D01*
X90733333Y-81090476D01*
X90638095Y-81138095D01*
X91542857Y-80852380D02*
X92209523Y-80852380D01*
X91780952Y-81852380D01*
D13*
X94110238Y-109574523D02*
X94110238Y-108304523D01*
X95440714Y-109453571D02*
X95380238Y-109514047D01*
X95198809Y-109574523D01*
X95077857Y-109574523D01*
X94896428Y-109514047D01*
X94775476Y-109393095D01*
X94715000Y-109272142D01*
X94654523Y-109030238D01*
X94654523Y-108848809D01*
X94715000Y-108606904D01*
X94775476Y-108485952D01*
X94896428Y-108365000D01*
X95077857Y-108304523D01*
X95198809Y-108304523D01*
X95380238Y-108365000D01*
X95440714Y-108425476D01*
X96589761Y-108304523D02*
X95985000Y-108304523D01*
X95924523Y-108909285D01*
X95985000Y-108848809D01*
X96105952Y-108788333D01*
X96408333Y-108788333D01*
X96529285Y-108848809D01*
X96589761Y-108909285D01*
X96650238Y-109030238D01*
X96650238Y-109332619D01*
X96589761Y-109453571D01*
X96529285Y-109514047D01*
X96408333Y-109574523D01*
X96105952Y-109574523D01*
X95985000Y-109514047D01*
X95924523Y-109453571D01*
D12*
X71352380Y-114138095D02*
X70352380Y-114138095D01*
X70352380Y-113900000D01*
X70400000Y-113757142D01*
X70495238Y-113661904D01*
X70590476Y-113614285D01*
X70780952Y-113566666D01*
X70923809Y-113566666D01*
X71114285Y-113614285D01*
X71209523Y-113661904D01*
X71304761Y-113757142D01*
X71352380Y-113900000D01*
X71352380Y-114138095D01*
X70352380Y-112709523D02*
X70352380Y-112900000D01*
X70400000Y-112995238D01*
X70447619Y-113042857D01*
X70590476Y-113138095D01*
X70780952Y-113185714D01*
X71161904Y-113185714D01*
X71257142Y-113138095D01*
X71304761Y-113090476D01*
X71352380Y-112995238D01*
X71352380Y-112804761D01*
X71304761Y-112709523D01*
X71257142Y-112661904D01*
X71161904Y-112614285D01*
X70923809Y-112614285D01*
X70828571Y-112661904D01*
X70780952Y-112709523D01*
X70733333Y-112804761D01*
X70733333Y-112995238D01*
X70780952Y-113090476D01*
X70828571Y-113138095D01*
X70923809Y-113185714D01*
X84533333Y-122207142D02*
X84485714Y-122254761D01*
X84342857Y-122302380D01*
X84247619Y-122302380D01*
X84104761Y-122254761D01*
X84009523Y-122159523D01*
X83961904Y-122064285D01*
X83914285Y-121873809D01*
X83914285Y-121730952D01*
X83961904Y-121540476D01*
X84009523Y-121445238D01*
X84104761Y-121350000D01*
X84247619Y-121302380D01*
X84342857Y-121302380D01*
X84485714Y-121350000D01*
X84533333Y-121397619D01*
X84914285Y-121397619D02*
X84961904Y-121350000D01*
X85057142Y-121302380D01*
X85295238Y-121302380D01*
X85390476Y-121350000D01*
X85438095Y-121397619D01*
X85485714Y-121492857D01*
X85485714Y-121588095D01*
X85438095Y-121730952D01*
X84866666Y-122302380D01*
X85485714Y-122302380D01*
X70461904Y-97352380D02*
X70461904Y-96352380D01*
X70700000Y-96352380D01*
X70842857Y-96400000D01*
X70938095Y-96495238D01*
X70985714Y-96590476D01*
X71033333Y-96780952D01*
X71033333Y-96923809D01*
X70985714Y-97114285D01*
X70938095Y-97209523D01*
X70842857Y-97304761D01*
X70700000Y-97352380D01*
X70461904Y-97352380D01*
X71890476Y-96685714D02*
X71890476Y-97352380D01*
X71652380Y-96304761D02*
X71414285Y-97019047D01*
X72033333Y-97019047D01*
X82452380Y-111542857D02*
X81976190Y-111876190D01*
X82452380Y-112114285D02*
X81452380Y-112114285D01*
X81452380Y-111733333D01*
X81500000Y-111638095D01*
X81547619Y-111590476D01*
X81642857Y-111542857D01*
X81785714Y-111542857D01*
X81880952Y-111590476D01*
X81928571Y-111638095D01*
X81976190Y-111733333D01*
X81976190Y-112114285D01*
X82452380Y-110590476D02*
X82452380Y-111161904D01*
X82452380Y-110876190D02*
X81452380Y-110876190D01*
X81595238Y-110971428D01*
X81690476Y-111066666D01*
X81738095Y-111161904D01*
X81547619Y-110209523D02*
X81500000Y-110161904D01*
X81452380Y-110066666D01*
X81452380Y-109828571D01*
X81500000Y-109733333D01*
X81547619Y-109685714D01*
X81642857Y-109638095D01*
X81738095Y-109638095D01*
X81880952Y-109685714D01*
X82452380Y-110257142D01*
X82452380Y-109638095D01*
D14*
X75972936Y-96565000D02*
X76427064Y-96565000D01*
X75972936Y-98035000D02*
X76427064Y-98035000D01*
X133050000Y-107400000D02*
X140250000Y-107400000D01*
X140250000Y-107400000D02*
X140250000Y-94000000D01*
X140250000Y-94000000D02*
X133050000Y-94000000D01*
X133050000Y-94000000D02*
X133050000Y-107400000D01*
X82650000Y-119150000D02*
X77250000Y-119150000D01*
X82650000Y-115850000D02*
X77250000Y-115850000D01*
X82650000Y-119150000D02*
X82650000Y-115850000D01*
X144731000Y-98975000D02*
X144824000Y-99069000D01*
X140390000Y-106810000D02*
X140390000Y-96190000D01*
X144731000Y-102475000D02*
X144824000Y-102569000D01*
X140390000Y-96190000D02*
X148110000Y-96190000D01*
X140390000Y-106810000D02*
X148110000Y-106810000D01*
X144491000Y-99145000D02*
X144619000Y-99274000D01*
X147710000Y-107050000D02*
X148350000Y-107050000D01*
X144491000Y-102645000D02*
X144619000Y-102774000D01*
X148350000Y-107050000D02*
X148350000Y-106650000D01*
X142481000Y-96725000D02*
X142609000Y-96854000D01*
X142275000Y-96930000D02*
X142369000Y-97024000D01*
X148110000Y-106810000D02*
X148110000Y-96190000D01*
X147650000Y-106810000D02*
X147650000Y-96190000D01*
X142481000Y-100225000D02*
X142609000Y-100354000D01*
X142275000Y-100430000D02*
X142369000Y-100524000D01*
X146550000Y-106810000D02*
X146550000Y-96190000D01*
X142109999Y-104134000D02*
G75*
G03*
X142124642Y-105889894I1439999J-866000D01*
G01*
X144441000Y-103575000D02*
G75*
G03*
X142659807Y-103574496I-891000J-1425003D01*
G01*
X144990000Y-105866000D02*
G75*
G03*
X145230099Y-104971326I-1440014J866003D01*
G01*
X142684000Y-106440001D02*
G75*
G03*
X144439894Y-106425358I866000J1439999D01*
G01*
X145230000Y-105000000D02*
G75*
G03*
X144974721Y-104109736I-1679990J3D01*
G01*
X145230000Y-101500000D02*
G75*
G03*
X145230000Y-101500000I-1680000J0D01*
G01*
X145230000Y-98000000D02*
G75*
G03*
X145230000Y-98000000I-1680000J0D01*
G01*
X77072936Y-108115000D02*
X77527064Y-108115000D01*
X77072936Y-109585000D02*
X77527064Y-109585000D01*
X78972936Y-80135000D02*
X79427064Y-80135000D01*
X78972936Y-78665000D02*
X79427064Y-78665000D01*
X127360000Y-63940000D02*
X116740000Y-63940000D01*
X127360000Y-71660000D02*
X127360000Y-63940000D01*
X127360000Y-71660000D02*
X116740000Y-71660000D01*
X120775000Y-69569000D02*
X120904000Y-69441000D01*
X127360000Y-64400000D02*
X116740000Y-64400000D01*
X120980000Y-69775000D02*
X121074000Y-69681000D01*
X117480000Y-69775000D02*
X117574000Y-69681000D01*
X127600000Y-63700000D02*
X127200000Y-63700000D01*
X123025000Y-67319000D02*
X123119000Y-67226000D01*
X127360000Y-65500000D02*
X116740000Y-65500000D01*
X119525000Y-67319000D02*
X119619000Y-67226000D01*
X116740000Y-71660000D02*
X116740000Y-63940000D01*
X117275000Y-69569000D02*
X117404000Y-69441000D01*
X127600000Y-64340000D02*
X127600000Y-63700000D01*
X123195000Y-67559000D02*
X123324000Y-67431000D01*
X119695000Y-67559000D02*
X119824000Y-67431000D01*
X126416000Y-67060000D02*
G75*
G03*
X125521326Y-66819901I-866003J-1440014D01*
G01*
X124684000Y-69940001D02*
G75*
G03*
X126439894Y-69925358I866000J1439999D01*
G01*
X125550000Y-66820000D02*
G75*
G03*
X124659736Y-67075279I-3J-1679990D01*
G01*
X124125000Y-67609000D02*
G75*
G03*
X124124496Y-69390193I1425003J-891000D01*
G01*
X126990001Y-69366000D02*
G75*
G03*
X126975358Y-67610106I-1439999J866000D01*
G01*
X120230000Y-68500000D02*
G75*
G03*
X120230000Y-68500000I-1680000J0D01*
G01*
X123730000Y-68500000D02*
G75*
G03*
X123730000Y-68500000I-1680000J0D01*
G01*
X142481000Y-111725000D02*
X142609000Y-111854000D01*
X144491000Y-114145000D02*
X144619000Y-114274000D01*
X142481000Y-108225000D02*
X142609000Y-108354000D01*
X144491000Y-110645000D02*
X144619000Y-110774000D01*
X147710000Y-118550000D02*
X148350000Y-118550000D01*
X146550000Y-118310000D02*
X146550000Y-107690000D01*
X148350000Y-118550000D02*
X148350000Y-118150000D01*
X144731000Y-113975000D02*
X144824000Y-114069000D01*
X140390000Y-118310000D02*
X148110000Y-118310000D01*
X142275000Y-111930000D02*
X142369000Y-112024000D01*
X148110000Y-118310000D02*
X148110000Y-107690000D01*
X147650000Y-118310000D02*
X147650000Y-107690000D01*
X144731000Y-110475000D02*
X144824000Y-110569000D01*
X140390000Y-107690000D02*
X148110000Y-107690000D01*
X142275000Y-108430000D02*
X142369000Y-108524000D01*
X140390000Y-118310000D02*
X140390000Y-107690000D01*
X142684000Y-117940001D02*
G75*
G03*
X144439894Y-117925358I866000J1439999D01*
G01*
X144990000Y-117366000D02*
G75*
G03*
X145230099Y-116471326I-1440014J866003D01*
G01*
X145230000Y-116500000D02*
G75*
G03*
X144974721Y-115609736I-1679990J3D01*
G01*
X142109999Y-115634000D02*
G75*
G03*
X142124642Y-117389894I1439999J-866000D01*
G01*
X144441000Y-115075000D02*
G75*
G03*
X142659807Y-115074496I-891000J-1425003D01*
G01*
X145230000Y-113000000D02*
G75*
G03*
X145230000Y-113000000I-1680000J0D01*
G01*
X145230000Y-109500000D02*
G75*
G03*
X145230000Y-109500000I-1680000J0D01*
G01*
X107122936Y-111015000D02*
X107577064Y-111015000D01*
X107122936Y-112485000D02*
X107577064Y-112485000D01*
X119022936Y-97485000D02*
X119477064Y-97485000D01*
X119022936Y-96015000D02*
X119477064Y-96015000D01*
X77672936Y-90815000D02*
X78127064Y-90815000D01*
X77672936Y-92285000D02*
X78127064Y-92285000D01*
X75635000Y-88172936D02*
X75635000Y-88627064D01*
X74165000Y-88172936D02*
X74165000Y-88627064D01*
D15*
X98500000Y-89050000D02*
X98500000Y-92250000D01*
X98500000Y-92250000D02*
X88600000Y-92250000D01*
X88600000Y-92250000D02*
X88600000Y-89050000D01*
X88405000Y-94150000D02*
X88405000Y-92600000D01*
X88600000Y-89050000D02*
X98500000Y-89050000D01*
D14*
X86595000Y-67559000D02*
X86724000Y-67431000D01*
X84380000Y-69775000D02*
X84474000Y-69681000D01*
X91380000Y-69775000D02*
X91474000Y-69681000D01*
X98000000Y-64340000D02*
X98000000Y-63700000D01*
X87880000Y-69775000D02*
X87974000Y-69681000D01*
X97760000Y-64400000D02*
X83640000Y-64400000D01*
X89925000Y-67319000D02*
X90019000Y-67226000D01*
X93595000Y-67559000D02*
X93724000Y-67431000D01*
X83640000Y-71660000D02*
X83640000Y-63940000D01*
X84175000Y-69569000D02*
X84304000Y-69441000D01*
X97760000Y-63940000D02*
X83640000Y-63940000D01*
X91175000Y-69569000D02*
X91304000Y-69441000D01*
X90095000Y-67559000D02*
X90224000Y-67431000D01*
X87675000Y-69569000D02*
X87804000Y-69441000D01*
X97760000Y-71660000D02*
X83640000Y-71660000D01*
X98000000Y-63700000D02*
X97600000Y-63700000D01*
X97760000Y-71660000D02*
X97760000Y-63940000D01*
X86425000Y-67319000D02*
X86519000Y-67226000D01*
X97760000Y-65500000D02*
X83640000Y-65500000D01*
X93425000Y-67319000D02*
X93519000Y-67226000D01*
X97390001Y-69366000D02*
G75*
G03*
X97375358Y-67610106I-1439999J866000D01*
G01*
X95084000Y-69940001D02*
G75*
G03*
X96839894Y-69925358I866000J1439999D01*
G01*
X96816000Y-67060000D02*
G75*
G03*
X95921326Y-66819901I-866003J-1440014D01*
G01*
X94525000Y-67609000D02*
G75*
G03*
X94524496Y-69390193I1425003J-891000D01*
G01*
X95950000Y-66820000D02*
G75*
G03*
X95059736Y-67075279I-3J-1679990D01*
G01*
X90630000Y-68500000D02*
G75*
G03*
X90630000Y-68500000I-1680000J0D01*
G01*
X87130000Y-68500000D02*
G75*
G03*
X87130000Y-68500000I-1680000J0D01*
G01*
X94130000Y-68500000D02*
G75*
G03*
X94130000Y-68500000I-1680000J0D01*
G01*
X121002064Y-113360000D02*
X119797936Y-113360000D01*
X121002064Y-110640000D02*
X119797936Y-110640000D01*
X90009420Y-113340000D02*
X90290580Y-113340000D01*
X90009420Y-114360000D02*
X90290580Y-114360000D01*
X74050000Y-79400000D02*
X74050000Y-76300000D01*
X77150000Y-76300000D02*
X77150000Y-79400000D01*
D16*
X74180000Y-79725000D02*
G75*
G03*
X74180000Y-79725000I-80000J0D01*
G01*
D14*
X115935000Y-70272936D02*
X115935000Y-70727064D01*
X114465000Y-70272936D02*
X114465000Y-70727064D01*
X74020000Y-121725000D02*
X73926000Y-121819000D01*
X67640000Y-119840000D02*
X67640000Y-127560000D01*
X71975000Y-124181000D02*
X71881000Y-124274000D01*
X67640000Y-119840000D02*
X74760000Y-119840000D01*
X67400000Y-127160000D02*
X67400000Y-127800000D01*
X67640000Y-127560000D02*
X74760000Y-127560000D01*
X71805000Y-123941000D02*
X71676000Y-124069000D01*
X67640000Y-126000000D02*
X74760000Y-126000000D01*
X67640000Y-127100000D02*
X74760000Y-127100000D01*
X74225000Y-121931000D02*
X74096000Y-122059000D01*
X74760000Y-119840000D02*
X74760000Y-127560000D01*
X67400000Y-127800000D02*
X67800000Y-127800000D01*
X68009999Y-122134000D02*
G75*
G03*
X68024642Y-123889894I1439999J-866000D01*
G01*
X70875000Y-123891000D02*
G75*
G03*
X70875504Y-122109807I-1425003J891000D01*
G01*
X70316000Y-121559999D02*
G75*
G03*
X68560106Y-121574642I-866000J-1439999D01*
G01*
X68584000Y-124440000D02*
G75*
G03*
X69478674Y-124680099I866003J1440014D01*
G01*
X69450000Y-124680000D02*
G75*
G03*
X70340264Y-124424721I3J1679990D01*
G01*
X74630000Y-123000000D02*
G75*
G03*
X74630000Y-123000000I-1680000J0D01*
G01*
X142275000Y-77430000D02*
X142369000Y-77524000D01*
X147710000Y-84050000D02*
X148350000Y-84050000D01*
X142481000Y-77225000D02*
X142609000Y-77354000D01*
X144491000Y-79645000D02*
X144619000Y-79774000D01*
X148350000Y-84050000D02*
X148350000Y-83650000D01*
X140390000Y-83810000D02*
X148110000Y-83810000D01*
X142275000Y-73930000D02*
X142369000Y-74024000D01*
X140390000Y-83810000D02*
X140390000Y-73190000D01*
X146550000Y-83810000D02*
X146550000Y-73190000D01*
X148110000Y-83810000D02*
X148110000Y-73190000D01*
X147650000Y-83810000D02*
X147650000Y-73190000D01*
X140390000Y-73190000D02*
X148110000Y-73190000D01*
X142481000Y-73725000D02*
X142609000Y-73854000D01*
X144731000Y-79475000D02*
X144824000Y-79569000D01*
X144491000Y-76145000D02*
X144619000Y-76274000D01*
X144731000Y-75975000D02*
X144824000Y-76069000D01*
X144990000Y-82866000D02*
G75*
G03*
X145230099Y-81971326I-1440014J866003D01*
G01*
X144441000Y-80575000D02*
G75*
G03*
X142659807Y-80574496I-891000J-1425003D01*
G01*
X142684000Y-83440001D02*
G75*
G03*
X144439894Y-83425358I866000J1439999D01*
G01*
X142109999Y-81134000D02*
G75*
G03*
X142124642Y-82889894I1439999J-866000D01*
G01*
X145230000Y-82000000D02*
G75*
G03*
X144974721Y-81109736I-1679990J3D01*
G01*
X145230000Y-78500000D02*
G75*
G03*
X145230000Y-78500000I-1680000J0D01*
G01*
X145230000Y-75000000D02*
G75*
G03*
X145230000Y-75000000I-1680000J0D01*
G01*
X123362500Y-102852500D02*
X124150000Y-102852500D01*
X124390000Y-102354437D02*
X125454437Y-101290000D01*
X125454437Y-108110000D02*
X131210000Y-108110000D01*
X124390000Y-107045563D02*
X125454437Y-108110000D01*
X124390000Y-102354437D02*
X124390000Y-103640000D01*
X123756250Y-102458750D02*
X123756250Y-103246250D01*
X131210000Y-101290000D02*
X131210000Y-103640000D01*
X124390000Y-107045563D02*
X124390000Y-105760000D01*
X125454437Y-101290000D02*
X131210000Y-101290000D01*
X131210000Y-108110000D02*
X131210000Y-105760000D01*
X71920000Y-112350000D02*
X75020000Y-112350000D01*
X75020000Y-115450000D02*
X71920000Y-115450000D01*
D16*
X75425000Y-115400000D02*
G75*
G03*
X75425000Y-115400000I-80000J0D01*
G01*
D14*
X86415000Y-88613748D02*
X86415000Y-89136252D01*
X87885000Y-88613748D02*
X87885000Y-89136252D01*
X122667500Y-111090000D02*
X123917500Y-111090000D01*
X124157500Y-118145563D02*
X124157500Y-115360000D01*
X134877500Y-119210000D02*
X134877500Y-115360000D01*
X124157500Y-109554437D02*
X124157500Y-112340000D01*
X123292500Y-110465000D02*
X123292500Y-111715000D01*
X125221937Y-108490000D02*
X134877500Y-108490000D01*
X124157500Y-109554437D02*
X125221937Y-108490000D01*
X124157500Y-118145563D02*
X125221937Y-119210000D01*
X125221937Y-119210000D02*
X134877500Y-119210000D01*
X134877500Y-108490000D02*
X134877500Y-112340000D01*
X58900000Y-84190000D02*
X58900000Y-91310000D01*
X60000000Y-84190000D02*
X60000000Y-91310000D01*
X64069000Y-90775000D02*
X63941000Y-90646000D01*
X66160000Y-84190000D02*
X66160000Y-91310000D01*
X64275000Y-90570000D02*
X64181000Y-90476000D01*
X66160000Y-84190000D02*
X58440000Y-84190000D01*
X62059000Y-88355000D02*
X61931000Y-88226000D01*
X58840000Y-83950000D02*
X58200000Y-83950000D01*
X61819000Y-88525000D02*
X61726000Y-88431000D01*
X66160000Y-91310000D02*
X58440000Y-91310000D01*
X58200000Y-83950000D02*
X58200000Y-84350000D01*
X58440000Y-84190000D02*
X58440000Y-91310000D01*
X61320000Y-86000000D02*
G75*
G03*
X61575279Y-86890264I1679990J-3D01*
G01*
X62109000Y-87425000D02*
G75*
G03*
X63890193Y-87425504I891000J1425003D01*
G01*
X64440001Y-86866000D02*
G75*
G03*
X64425358Y-85110106I-1439999J866000D01*
G01*
X63866000Y-84559999D02*
G75*
G03*
X62110106Y-84574642I-866000J-1439999D01*
G01*
X61560000Y-85134000D02*
G75*
G03*
X61319901Y-86028674I1440014J-866003D01*
G01*
X64680000Y-89500000D02*
G75*
G03*
X64680000Y-89500000I-1680000J0D01*
G01*
X120150000Y-109850000D02*
X120150000Y-104450000D01*
X116850000Y-109850000D02*
X116850000Y-104450000D01*
X116850000Y-109850000D02*
X120150000Y-109850000D01*
X77472936Y-88222500D02*
X77927064Y-88222500D01*
X77472936Y-86752500D02*
X77927064Y-86752500D01*
D17*
X87525000Y-125150000D02*
G75*
G03*
X87525000Y-125150000I-125000J0D01*
G01*
D14*
X70150000Y-91150000D02*
X70150000Y-85750000D01*
X66850000Y-91150000D02*
X70150000Y-91150000D01*
X66850000Y-91150000D02*
X66850000Y-85750000D01*
X106322936Y-103415000D02*
X106777064Y-103415000D01*
X106322936Y-104885000D02*
X106777064Y-104885000D01*
X138860000Y-71660000D02*
X128240000Y-71660000D01*
X128980000Y-69775000D02*
X129074000Y-69681000D01*
X139100000Y-64340000D02*
X139100000Y-63700000D01*
X138860000Y-64400000D02*
X128240000Y-64400000D01*
X138860000Y-65500000D02*
X128240000Y-65500000D01*
X139100000Y-63700000D02*
X138700000Y-63700000D01*
X128240000Y-71660000D02*
X128240000Y-63940000D01*
X128775000Y-69569000D02*
X128904000Y-69441000D01*
X131025000Y-67319000D02*
X131119000Y-67226000D01*
X134695000Y-67559000D02*
X134824000Y-67431000D01*
X131195000Y-67559000D02*
X131324000Y-67431000D01*
X132480000Y-69775000D02*
X132574000Y-69681000D01*
X134525000Y-67319000D02*
X134619000Y-67226000D01*
X138860000Y-63940000D02*
X128240000Y-63940000D01*
X132275000Y-69569000D02*
X132404000Y-69441000D01*
X138860000Y-71660000D02*
X138860000Y-63940000D01*
X137050000Y-66820000D02*
G75*
G03*
X136159736Y-67075279I-3J-1679990D01*
G01*
X136184000Y-69940001D02*
G75*
G03*
X137939894Y-69925358I866000J1439999D01*
G01*
X138490001Y-69366000D02*
G75*
G03*
X138475358Y-67610106I-1439999J866000D01*
G01*
X137916000Y-67060000D02*
G75*
G03*
X137021326Y-66819901I-866003J-1440014D01*
G01*
X135625000Y-67609000D02*
G75*
G03*
X135624496Y-69390193I1425003J-891000D01*
G01*
X135230000Y-68500000D02*
G75*
G03*
X135230000Y-68500000I-1680000J0D01*
G01*
X131730000Y-68500000D02*
G75*
G03*
X131730000Y-68500000I-1680000J0D01*
G01*
X76322936Y-107535000D02*
X76777064Y-107535000D01*
X76322936Y-106065000D02*
X76777064Y-106065000D01*
X128290000Y-126000000D02*
X138910000Y-126000000D01*
X138170000Y-121725000D02*
X138076000Y-121819000D01*
X128290000Y-119840000D02*
X128290000Y-127560000D01*
X138375000Y-121931000D02*
X138246000Y-122059000D01*
X128290000Y-127100000D02*
X138910000Y-127100000D01*
X134670000Y-121725000D02*
X134576000Y-121819000D01*
X128290000Y-119840000D02*
X138910000Y-119840000D01*
X136125000Y-124181000D02*
X136031000Y-124274000D01*
X132455000Y-123941000D02*
X132326000Y-124069000D01*
X128050000Y-127800000D02*
X128450000Y-127800000D01*
X128290000Y-127560000D02*
X138910000Y-127560000D01*
X138910000Y-119840000D02*
X138910000Y-127560000D01*
X134875000Y-121931000D02*
X134746000Y-122059000D01*
X132625000Y-124181000D02*
X132531000Y-124274000D01*
X135955000Y-123941000D02*
X135826000Y-124069000D01*
X128050000Y-127160000D02*
X128050000Y-127800000D01*
X128659999Y-122134000D02*
G75*
G03*
X128674642Y-123889894I1439999J-866000D01*
G01*
X130966000Y-121559999D02*
G75*
G03*
X129210106Y-121574642I-866000J-1439999D01*
G01*
X129234000Y-124440000D02*
G75*
G03*
X130128674Y-124680099I866003J1440014D01*
G01*
X130100000Y-124680000D02*
G75*
G03*
X130990264Y-124424721I3J1679990D01*
G01*
X131525000Y-123891000D02*
G75*
G03*
X131525504Y-122109807I-1425003J891000D01*
G01*
X135280000Y-123000000D02*
G75*
G03*
X135280000Y-123000000I-1680000J0D01*
G01*
X138780000Y-123000000D02*
G75*
G03*
X138780000Y-123000000I-1680000J0D01*
G01*
X130665000Y-88911252D02*
X130665000Y-88388748D01*
X132135000Y-88911252D02*
X132135000Y-88388748D01*
X80275000Y-112350000D02*
X83375000Y-112350000D01*
X83375000Y-115450000D02*
X80275000Y-115450000D01*
D16*
X83780000Y-115400000D02*
G75*
G03*
X83780000Y-115400000I-80000J0D01*
G01*
D14*
X78972936Y-78085000D02*
X79427064Y-78085000D01*
X78972936Y-76615000D02*
X79427064Y-76615000D01*
X75850000Y-72350000D02*
X81250000Y-72350000D01*
X75850000Y-75650000D02*
X81250000Y-75650000D01*
X75850000Y-72350000D02*
X75850000Y-75650000D01*
X82225000Y-121931000D02*
X82096000Y-122059000D01*
X79975000Y-124181000D02*
X79881000Y-124274000D01*
X75640000Y-127560000D02*
X82760000Y-127560000D01*
X82760000Y-119840000D02*
X82760000Y-127560000D01*
X79805000Y-123941000D02*
X79676000Y-124069000D01*
X75640000Y-119840000D02*
X82760000Y-119840000D01*
X75400000Y-127160000D02*
X75400000Y-127800000D01*
X75400000Y-127800000D02*
X75800000Y-127800000D01*
X75640000Y-119840000D02*
X75640000Y-127560000D01*
X82020000Y-121725000D02*
X81926000Y-121819000D01*
X75640000Y-126000000D02*
X82760000Y-126000000D01*
X75640000Y-127100000D02*
X82760000Y-127100000D01*
X76009999Y-122134000D02*
G75*
G03*
X76024642Y-123889894I1439999J-866000D01*
G01*
X78875000Y-123891000D02*
G75*
G03*
X78875504Y-122109807I-1425003J891000D01*
G01*
X78316000Y-121559999D02*
G75*
G03*
X76560106Y-121574642I-866000J-1439999D01*
G01*
X77450000Y-124680000D02*
G75*
G03*
X78340264Y-124424721I3J1679990D01*
G01*
X76584000Y-124440000D02*
G75*
G03*
X77478674Y-124680099I866003J1440014D01*
G01*
X82630000Y-123000000D02*
G75*
G03*
X82630000Y-123000000I-1680000J0D01*
G01*
X70700000Y-92200000D02*
X73800000Y-92200000D01*
X73800000Y-95300000D02*
X70700000Y-95300000D01*
D16*
X74205000Y-95250000D02*
G75*
G03*
X74205000Y-95250000I-80000J0D01*
G01*
D18*
X139000000Y-72927500D02*
X139000000Y-92277500D01*
X84600000Y-72927500D02*
X139000000Y-72927500D01*
X132350000Y-100827500D02*
X84600000Y-100827500D01*
D14*
X97572936Y-122090000D02*
X99027064Y-122090000D01*
X97572936Y-123910000D02*
X99027064Y-123910000D01*
X89560000Y-118450580D02*
X89560000Y-118169420D01*
X88540000Y-118450580D02*
X88540000Y-118169420D01*
X73650000Y-108325000D02*
X73650000Y-111425000D01*
X70550000Y-111425000D02*
X70550000Y-108325000D01*
D16*
X73680000Y-108000000D02*
G75*
G03*
X73680000Y-108000000I-80000J0D01*
G01*
D14*
X88007500Y-118450580D02*
X88007500Y-118169420D01*
X86987500Y-118450580D02*
X86987500Y-118169420D01*
X110100000Y-69800000D02*
X110100000Y-70800000D01*
X102000000Y-64250000D02*
X108000000Y-64250000D01*
X110100000Y-70800000D02*
X109100000Y-70800000D01*
X101900000Y-68800000D02*
X101900000Y-66200000D01*
X102100000Y-70750000D02*
X107900000Y-70750000D01*
X108100000Y-68800000D02*
X108100000Y-66200000D01*
X73600000Y-77470000D02*
X73600000Y-80570000D01*
X70500000Y-80570000D02*
X70500000Y-77470000D01*
D16*
X70630000Y-80895000D02*
G75*
G03*
X70630000Y-80895000I-80000J0D01*
G01*
D14*
X76372936Y-84165000D02*
X76827064Y-84165000D01*
X76372936Y-85635000D02*
X76827064Y-85635000D01*
X85050000Y-76300000D02*
X85050000Y-79400000D01*
X81950000Y-79400000D02*
X81950000Y-76300000D01*
D16*
X82080000Y-79725000D02*
G75*
G03*
X82080000Y-79725000I-80000J0D01*
G01*
D14*
X84060436Y-109335000D02*
X84514564Y-109335000D01*
X84060436Y-107865000D02*
X84514564Y-107865000D01*
X116485000Y-106611252D02*
X116485000Y-106088748D01*
X115015000Y-106611252D02*
X115015000Y-106088748D01*
X70755000Y-99400000D02*
X73855000Y-99400000D01*
X73855000Y-102500000D02*
X70755000Y-102500000D01*
D16*
X74260000Y-102450000D02*
G75*
G03*
X74260000Y-102450000I-80000J0D01*
G01*
D14*
X91107500Y-118450580D02*
X91107500Y-118169420D01*
X90087500Y-118450580D02*
X90087500Y-118169420D01*
X75972936Y-100035000D02*
X76427064Y-100035000D01*
X75972936Y-98565000D02*
X76427064Y-98565000D01*
X77072936Y-111585000D02*
X77527064Y-111585000D01*
X77072936Y-110115000D02*
X77527064Y-110115000D01*
D15*
X129950000Y-85277500D02*
X129950000Y-88477500D01*
X130145000Y-83377500D02*
X130145000Y-84927500D01*
X120050000Y-85277500D02*
X129950000Y-85277500D01*
X129950000Y-88477500D02*
X120050000Y-88477500D01*
X120050000Y-88477500D02*
X120050000Y-85277500D01*
D14*
X74650000Y-115850000D02*
X69250000Y-115850000D01*
X74650000Y-119150000D02*
X69250000Y-119150000D01*
X74650000Y-119150000D02*
X74650000Y-115850000D01*
X58440000Y-108190000D02*
X58440000Y-115310000D01*
X64275000Y-114570000D02*
X64181000Y-114476000D01*
X66160000Y-115310000D02*
X58440000Y-115310000D01*
X58900000Y-108190000D02*
X58900000Y-115310000D01*
X58840000Y-107950000D02*
X58200000Y-107950000D01*
X64069000Y-114775000D02*
X63941000Y-114646000D01*
X66160000Y-108190000D02*
X66160000Y-115310000D01*
X61819000Y-112525000D02*
X61726000Y-112431000D01*
X62059000Y-112355000D02*
X61931000Y-112226000D01*
X60000000Y-108190000D02*
X60000000Y-115310000D01*
X66160000Y-108190000D02*
X58440000Y-108190000D01*
X58200000Y-107950000D02*
X58200000Y-108350000D01*
X64440001Y-110866000D02*
G75*
G03*
X64425358Y-109110106I-1439999J866000D01*
G01*
X61560000Y-109134000D02*
G75*
G03*
X61319901Y-110028674I1440014J-866003D01*
G01*
X63866000Y-108559999D02*
G75*
G03*
X62110106Y-108574642I-866000J-1439999D01*
G01*
X61320000Y-110000000D02*
G75*
G03*
X61575279Y-110890264I1679990J-3D01*
G01*
X62109000Y-111425000D02*
G75*
G03*
X63890193Y-111425504I891000J1425003D01*
G01*
X64680000Y-113500000D02*
G75*
G03*
X64680000Y-113500000I-1680000J0D01*
G01*
X77672936Y-94335000D02*
X78127064Y-94335000D01*
X77672936Y-92865000D02*
X78127064Y-92865000D01*
D18*
X105707500Y-116150000D02*
X103357500Y-116150000D01*
X112357500Y-123300000D02*
X112357500Y-120400000D01*
X103357500Y-116150000D02*
X103357500Y-117200000D01*
X112357500Y-117200000D02*
X112357500Y-115100000D01*
X105707500Y-115650000D02*
X105707500Y-116150000D01*
X103357500Y-129900000D02*
X112357500Y-129900000D01*
X103357500Y-120400000D02*
X103357500Y-123300000D01*
X112357500Y-129900000D02*
X112357500Y-126500000D01*
X103357500Y-126500000D02*
X103357500Y-129900000D01*
X112357500Y-115100000D02*
X109157500Y-115100000D01*
X109157500Y-115100000D02*
X109157500Y-115650000D01*
X109157500Y-115650000D02*
X105707500Y-115650000D01*
D19*
X100367500Y-118800000D02*
G75*
G03*
X100367500Y-118800000I-200000J0D01*
G01*
D14*
X64069000Y-82775000D02*
X63941000Y-82646000D01*
X60000000Y-76190000D02*
X60000000Y-83310000D01*
X62059000Y-80355000D02*
X61931000Y-80226000D01*
X66160000Y-76190000D02*
X58440000Y-76190000D01*
X58200000Y-75950000D02*
X58200000Y-76350000D01*
X58440000Y-76190000D02*
X58440000Y-83310000D01*
X64275000Y-82570000D02*
X64181000Y-82476000D01*
X61819000Y-80525000D02*
X61726000Y-80431000D01*
X66160000Y-76190000D02*
X66160000Y-83310000D01*
X58900000Y-76190000D02*
X58900000Y-83310000D01*
X66160000Y-83310000D02*
X58440000Y-83310000D01*
X58840000Y-75950000D02*
X58200000Y-75950000D01*
X62109000Y-79425000D02*
G75*
G03*
X63890193Y-79425504I891000J1425003D01*
G01*
X63866000Y-76559999D02*
G75*
G03*
X62110106Y-76574642I-866000J-1439999D01*
G01*
X64440001Y-78866000D02*
G75*
G03*
X64425358Y-77110106I-1439999J866000D01*
G01*
X61560000Y-77134000D02*
G75*
G03*
X61319901Y-78028674I1440014J-866003D01*
G01*
X61320000Y-78000000D02*
G75*
G03*
X61575279Y-78890264I1679990J-3D01*
G01*
X64680000Y-81500000D02*
G75*
G03*
X64680000Y-81500000I-1680000J0D01*
G01*
D15*
X112600000Y-105500000D02*
X112600000Y-110400000D01*
X112600000Y-110400000D02*
X109400000Y-110400000D01*
X109400000Y-110400000D02*
X109400000Y-105500000D01*
X114475000Y-110530000D02*
X112950000Y-110530000D01*
X109400000Y-105500000D02*
X112600000Y-105500000D01*
D14*
X96627064Y-96235000D02*
X96172936Y-96235000D01*
X96627064Y-94765000D02*
X96172936Y-94765000D01*
X120690000Y-108138748D02*
X120690000Y-108661252D01*
X122910000Y-108138748D02*
X122910000Y-108661252D01*
X86772936Y-80135000D02*
X87227064Y-80135000D01*
X86772936Y-78665000D02*
X87227064Y-78665000D01*
X100235000Y-113690000D02*
X98765000Y-113690000D01*
X100235000Y-115975000D02*
X100235000Y-113690000D01*
X98765000Y-113690000D02*
X98765000Y-115975000D01*
X110022936Y-66765000D02*
X110477064Y-66765000D01*
X110022936Y-68235000D02*
X110477064Y-68235000D01*
X115615000Y-77627064D02*
X115615000Y-77172936D01*
X117085000Y-77627064D02*
X117085000Y-77172936D01*
X124455000Y-123941000D02*
X124326000Y-124069000D01*
X127410000Y-119840000D02*
X127410000Y-127560000D01*
X126875000Y-121931000D02*
X126746000Y-122059000D01*
X116550000Y-127160000D02*
X116550000Y-127800000D01*
X116790000Y-126000000D02*
X127410000Y-126000000D01*
X116790000Y-119840000D02*
X127410000Y-119840000D01*
X123170000Y-121725000D02*
X123076000Y-121819000D01*
X116550000Y-127800000D02*
X116950000Y-127800000D01*
X116790000Y-127100000D02*
X127410000Y-127100000D01*
X120955000Y-123941000D02*
X120826000Y-124069000D01*
X123375000Y-121931000D02*
X123246000Y-122059000D01*
X124625000Y-124181000D02*
X124531000Y-124274000D01*
X116790000Y-119840000D02*
X116790000Y-127560000D01*
X116790000Y-127560000D02*
X127410000Y-127560000D01*
X121125000Y-124181000D02*
X121031000Y-124274000D01*
X126670000Y-121725000D02*
X126576000Y-121819000D01*
X120025000Y-123891000D02*
G75*
G03*
X120025504Y-122109807I-1425003J891000D01*
G01*
X117159999Y-122134000D02*
G75*
G03*
X117174642Y-123889894I1439999J-866000D01*
G01*
X119466000Y-121559999D02*
G75*
G03*
X117710106Y-121574642I-866000J-1439999D01*
G01*
X118600000Y-124680000D02*
G75*
G03*
X119490264Y-124424721I3J1679990D01*
G01*
X117734000Y-124440000D02*
G75*
G03*
X118628674Y-124680099I866003J1440014D01*
G01*
X123780000Y-123000000D02*
G75*
G03*
X123780000Y-123000000I-1680000J0D01*
G01*
X127280000Y-123000000D02*
G75*
G03*
X127280000Y-123000000I-1680000J0D01*
G01*
X122772936Y-96015000D02*
X123227064Y-96015000D01*
X122772936Y-97485000D02*
X123227064Y-97485000D01*
X144731000Y-87475000D02*
X144824000Y-87569000D01*
X148110000Y-95310000D02*
X148110000Y-84690000D01*
X144491000Y-91145000D02*
X144619000Y-91274000D01*
X142275000Y-85430000D02*
X142369000Y-85524000D01*
X147710000Y-95550000D02*
X148350000Y-95550000D01*
X144491000Y-87645000D02*
X144619000Y-87774000D01*
X140390000Y-84690000D02*
X148110000Y-84690000D01*
X142481000Y-85225000D02*
X142609000Y-85354000D01*
X148350000Y-95550000D02*
X148350000Y-95150000D01*
X147650000Y-95310000D02*
X147650000Y-84690000D01*
X144731000Y-90975000D02*
X144824000Y-91069000D01*
X146550000Y-95310000D02*
X146550000Y-84690000D01*
X142275000Y-88930000D02*
X142369000Y-89024000D01*
X140390000Y-95310000D02*
X140390000Y-84690000D01*
X142481000Y-88725000D02*
X142609000Y-88854000D01*
X140390000Y-95310000D02*
X148110000Y-95310000D01*
X144441000Y-92075000D02*
G75*
G03*
X142659807Y-92074496I-891000J-1425003D01*
G01*
X142109999Y-92634000D02*
G75*
G03*
X142124642Y-94389894I1439999J-866000D01*
G01*
X142684000Y-94940001D02*
G75*
G03*
X144439894Y-94925358I866000J1439999D01*
G01*
X144990000Y-94366000D02*
G75*
G03*
X145230099Y-93471326I-1440014J866003D01*
G01*
X145230000Y-93500000D02*
G75*
G03*
X144974721Y-92609736I-1679990J3D01*
G01*
X145230000Y-90000000D02*
G75*
G03*
X145230000Y-90000000I-1680000J0D01*
G01*
X145230000Y-86500000D02*
G75*
G03*
X145230000Y-86500000I-1680000J0D01*
G01*
X109822936Y-103415000D02*
X110277064Y-103415000D01*
X109822936Y-104885000D02*
X110277064Y-104885000D01*
X112465000Y-70272936D02*
X112465000Y-70727064D01*
X113935000Y-70272936D02*
X113935000Y-70727064D01*
X76322936Y-105485000D02*
X76777064Y-105485000D01*
X76322936Y-104015000D02*
X76777064Y-104015000D01*
X58840000Y-91950000D02*
X58200000Y-91950000D01*
X66160000Y-92190000D02*
X58440000Y-92190000D01*
X58440000Y-92190000D02*
X58440000Y-99310000D01*
X64069000Y-98775000D02*
X63941000Y-98646000D01*
X58900000Y-92190000D02*
X58900000Y-99310000D01*
X64275000Y-98570000D02*
X64181000Y-98476000D01*
X61819000Y-96525000D02*
X61726000Y-96431000D01*
X62059000Y-96355000D02*
X61931000Y-96226000D01*
X66160000Y-99310000D02*
X58440000Y-99310000D01*
X60000000Y-92190000D02*
X60000000Y-99310000D01*
X58200000Y-91950000D02*
X58200000Y-92350000D01*
X66160000Y-92190000D02*
X66160000Y-99310000D01*
X64440001Y-94866000D02*
G75*
G03*
X64425358Y-93110106I-1439999J866000D01*
G01*
X63866000Y-92559999D02*
G75*
G03*
X62110106Y-92574642I-866000J-1439999D01*
G01*
X61320000Y-94000000D02*
G75*
G03*
X61575279Y-94890264I1679990J-3D01*
G01*
X61560000Y-93134000D02*
G75*
G03*
X61319901Y-94028674I1440014J-866003D01*
G01*
X62109000Y-95425000D02*
G75*
G03*
X63890193Y-95425504I891000J1425003D01*
G01*
X64680000Y-97500000D02*
G75*
G03*
X64680000Y-97500000I-1680000J0D01*
G01*
X93230436Y-118215000D02*
X93684564Y-118215000D01*
X93230436Y-119685000D02*
X93684564Y-119685000D01*
X90884758Y-125512500D02*
X90410242Y-125512500D01*
X90884758Y-126557500D02*
X90410242Y-126557500D01*
X77872936Y-82165000D02*
X78327064Y-82165000D01*
X77872936Y-83635000D02*
X78327064Y-83635000D01*
X70500000Y-88500000D02*
X70500000Y-85400000D01*
X73600000Y-85400000D02*
X73600000Y-88500000D01*
D16*
X70630000Y-88825000D02*
G75*
G03*
X70630000Y-88825000I-80000J0D01*
G01*
D14*
X87638080Y-125525000D02*
X87356920Y-125525000D01*
X87638080Y-126545000D02*
X87356920Y-126545000D01*
X111935000Y-70272936D02*
X111935000Y-70727064D01*
X110465000Y-70272936D02*
X110465000Y-70727064D01*
X66850000Y-107150000D02*
X66850000Y-101750000D01*
X70150000Y-107150000D02*
X70150000Y-101750000D01*
X66850000Y-107150000D02*
X70150000Y-107150000D01*
X74760000Y-71660000D02*
X67640000Y-71660000D01*
X75000000Y-64340000D02*
X75000000Y-63700000D01*
X74760000Y-63940000D02*
X67640000Y-63940000D01*
X75000000Y-63700000D02*
X74600000Y-63700000D01*
X67640000Y-71660000D02*
X67640000Y-63940000D01*
X74760000Y-65500000D02*
X67640000Y-65500000D01*
X70425000Y-67319000D02*
X70519000Y-67226000D01*
X74760000Y-71660000D02*
X74760000Y-63940000D01*
X70595000Y-67559000D02*
X70724000Y-67431000D01*
X68175000Y-69569000D02*
X68304000Y-69441000D01*
X68380000Y-69775000D02*
X68474000Y-69681000D01*
X74760000Y-64400000D02*
X67640000Y-64400000D01*
X71525000Y-67609000D02*
G75*
G03*
X71524496Y-69390193I1425003J-891000D01*
G01*
X72950000Y-66820000D02*
G75*
G03*
X72059736Y-67075279I-3J-1679990D01*
G01*
X74390001Y-69366000D02*
G75*
G03*
X74375358Y-67610106I-1439999J866000D01*
G01*
X73816000Y-67060000D02*
G75*
G03*
X72921326Y-66819901I-866003J-1440014D01*
G01*
X72084000Y-69940001D02*
G75*
G03*
X73839894Y-69925358I866000J1439999D01*
G01*
X71130000Y-68500000D02*
G75*
G03*
X71130000Y-68500000I-1680000J0D01*
G01*
X91185000Y-110177064D02*
X91185000Y-109722936D01*
X89715000Y-110177064D02*
X89715000Y-109722936D01*
X100665000Y-115277064D02*
X100665000Y-114822936D01*
X102135000Y-115277064D02*
X102135000Y-114822936D01*
X104295563Y-106190000D02*
X98540000Y-106190000D01*
X98540000Y-113010000D02*
X98540000Y-110660000D01*
X104295563Y-113010000D02*
X98540000Y-113010000D01*
X105360000Y-107254437D02*
X104295563Y-106190000D01*
X105360000Y-111945563D02*
X104295563Y-113010000D01*
X105360000Y-111945563D02*
X105360000Y-110660000D01*
X98540000Y-106190000D02*
X98540000Y-108540000D01*
X105360000Y-107254437D02*
X105360000Y-108540000D01*
X92259420Y-121860000D02*
X92540580Y-121860000D01*
X92259420Y-120840000D02*
X92540580Y-120840000D01*
X126977064Y-96015000D02*
X126522936Y-96015000D01*
X126977064Y-97485000D02*
X126522936Y-97485000D01*
X95615000Y-119635436D02*
X95615000Y-120089564D01*
X97085000Y-119635436D02*
X97085000Y-120089564D01*
X93285000Y-107572936D02*
X93285000Y-108027064D01*
X91815000Y-107572936D02*
X91815000Y-108027064D01*
X78595000Y-67559000D02*
X78724000Y-67431000D01*
X75640000Y-71660000D02*
X75640000Y-63940000D01*
X82760000Y-63940000D02*
X75640000Y-63940000D01*
X76380000Y-69775000D02*
X76474000Y-69681000D01*
X78425000Y-67319000D02*
X78519000Y-67226000D01*
X82760000Y-65500000D02*
X75640000Y-65500000D01*
X83000000Y-63700000D02*
X82600000Y-63700000D01*
X82760000Y-64400000D02*
X75640000Y-64400000D01*
X82760000Y-71660000D02*
X75640000Y-71660000D01*
X76175000Y-69569000D02*
X76304000Y-69441000D01*
X82760000Y-71660000D02*
X82760000Y-63940000D01*
X83000000Y-64340000D02*
X83000000Y-63700000D01*
X82390001Y-69366000D02*
G75*
G03*
X82375358Y-67610106I-1439999J866000D01*
G01*
X81816000Y-67060000D02*
G75*
G03*
X80921326Y-66819901I-866003J-1440014D01*
G01*
X80084000Y-69940001D02*
G75*
G03*
X81839894Y-69925358I866000J1439999D01*
G01*
X79525000Y-67609000D02*
G75*
G03*
X79524496Y-69390193I1425003J-891000D01*
G01*
X80950000Y-66820000D02*
G75*
G03*
X80059736Y-67075279I-3J-1679990D01*
G01*
X79130000Y-68500000D02*
G75*
G03*
X79130000Y-68500000I-1680000J0D01*
G01*
X67850000Y-75650000D02*
X73250000Y-75650000D01*
X67850000Y-72350000D02*
X67850000Y-75650000D01*
X67850000Y-72350000D02*
X73250000Y-72350000D01*
X66160000Y-100190000D02*
X58440000Y-100190000D01*
X61819000Y-104525000D02*
X61726000Y-104431000D01*
X64069000Y-106775000D02*
X63941000Y-106646000D01*
X58440000Y-100190000D02*
X58440000Y-107310000D01*
X60000000Y-100190000D02*
X60000000Y-107310000D01*
X58900000Y-100190000D02*
X58900000Y-107310000D01*
X66160000Y-107310000D02*
X58440000Y-107310000D01*
X64275000Y-106570000D02*
X64181000Y-106476000D01*
X58200000Y-99950000D02*
X58200000Y-100350000D01*
X58840000Y-99950000D02*
X58200000Y-99950000D01*
X62059000Y-104355000D02*
X61931000Y-104226000D01*
X66160000Y-100190000D02*
X66160000Y-107310000D01*
X62109000Y-103425000D02*
G75*
G03*
X63890193Y-103425504I891000J1425003D01*
G01*
X63866000Y-100559999D02*
G75*
G03*
X62110106Y-100574642I-866000J-1439999D01*
G01*
X61560000Y-101134000D02*
G75*
G03*
X61319901Y-102028674I1440014J-866003D01*
G01*
X61320000Y-102000000D02*
G75*
G03*
X61575279Y-102890264I1679990J-3D01*
G01*
X64440001Y-102866000D02*
G75*
G03*
X64425358Y-101110106I-1439999J866000D01*
G01*
X64680000Y-105500000D02*
G75*
G03*
X64680000Y-105500000I-1680000J0D01*
G01*
X66850000Y-83150000D02*
X66850000Y-77750000D01*
X66850000Y-83150000D02*
X70150000Y-83150000D01*
X70150000Y-83150000D02*
X70150000Y-77750000D01*
X86772936Y-80665000D02*
X87227064Y-80665000D01*
X86772936Y-82135000D02*
X87227064Y-82135000D01*
D15*
X96900000Y-112000000D02*
X96900000Y-115200000D01*
X92000000Y-115200000D02*
X92000000Y-112000000D01*
X92000000Y-112000000D02*
X96900000Y-112000000D01*
X96900000Y-115200000D02*
X92000000Y-115200000D01*
X91870000Y-117075000D02*
X91870000Y-115550000D01*
D14*
X70150000Y-115150000D02*
X70150000Y-109750000D01*
X66850000Y-115150000D02*
X66850000Y-109750000D01*
X66850000Y-115150000D02*
X70150000Y-115150000D01*
X85890000Y-122134420D02*
X85890000Y-122415580D01*
X86910000Y-122134420D02*
X86910000Y-122415580D01*
X70150000Y-99150000D02*
X70150000Y-93750000D01*
X66850000Y-99150000D02*
X66850000Y-93750000D01*
X66850000Y-99150000D02*
X70150000Y-99150000D01*
X84060436Y-111535000D02*
X84514564Y-111535000D01*
X84060436Y-110065000D02*
X84514564Y-110065000D01*
%LPC*%
D20*
X75287500Y-97300000D03*
X77112500Y-97300000D03*
D21*
X136650000Y-100700000D03*
X136650000Y-105400000D03*
X136650000Y-96000000D03*
D22*
X81250000Y-117500000D03*
X77250000Y-117500000D03*
D23*
X143550000Y-105000000D03*
D24*
X143550000Y-101500000D03*
X143550000Y-98000000D03*
D20*
X76387500Y-108850000D03*
X78212500Y-108850000D03*
X78287500Y-79400000D03*
X80112500Y-79400000D03*
D23*
X125550000Y-68500000D03*
D24*
X122050000Y-68500000D03*
X118550000Y-68500000D03*
D23*
X143550000Y-116500000D03*
D24*
X143550000Y-113000000D03*
X143550000Y-109500000D03*
D20*
X106437500Y-111750000D03*
X108262500Y-111750000D03*
X118337500Y-96750000D03*
X120162500Y-96750000D03*
X76987500Y-91550000D03*
X78812500Y-91550000D03*
D25*
X74900000Y-87487500D03*
X74900000Y-89312500D03*
D26*
X89105000Y-93375000D03*
X90375000Y-93375000D03*
X91645000Y-93375000D03*
X92915000Y-93375000D03*
X94185000Y-93375000D03*
X95455000Y-93375000D03*
X96725000Y-93375000D03*
X97995000Y-93375000D03*
X97995000Y-87925000D03*
X96725000Y-87925000D03*
X95455000Y-87925000D03*
X94185000Y-87925000D03*
X92915000Y-87925000D03*
X91645000Y-87925000D03*
X90375000Y-87925000D03*
X89105000Y-87925000D03*
D23*
X95950000Y-68500000D03*
D24*
X92450000Y-68500000D03*
X88950000Y-68500000D03*
X85450000Y-68500000D03*
D27*
X144000000Y-123500000D03*
D28*
X121800000Y-112000000D03*
X119000000Y-112000000D03*
D29*
X89375000Y-113850000D03*
X90925000Y-113850000D03*
D27*
X62500000Y-123500000D03*
D30*
X74625000Y-79400000D03*
X75275000Y-79400000D03*
X75925000Y-79400000D03*
X76575000Y-79400000D03*
D31*
X76575000Y-76250000D03*
X75925000Y-76250000D03*
X75275000Y-76250000D03*
X74625000Y-76250000D03*
D32*
X75600000Y-77500000D03*
D25*
X115200000Y-69587500D03*
X115200000Y-71412500D03*
D23*
X69450000Y-123000000D03*
D24*
X72950000Y-123000000D03*
D23*
X143550000Y-82000000D03*
D24*
X143550000Y-78500000D03*
X143550000Y-75000000D03*
D33*
X125100000Y-104700000D03*
X130500000Y-104700000D03*
D30*
X75020000Y-114875000D03*
X75020000Y-114225000D03*
X75020000Y-113575000D03*
X75020000Y-112925000D03*
D34*
X71870000Y-112925000D03*
X71870000Y-113575000D03*
X71870000Y-114225000D03*
X71870000Y-114875000D03*
D35*
X73120000Y-113900000D03*
D36*
X87150000Y-87925000D03*
X87150000Y-89825000D03*
D37*
X125317500Y-113850000D03*
X133717500Y-113850000D03*
D23*
X63000000Y-86000000D03*
D24*
X63000000Y-89500000D03*
D38*
X118500000Y-108450000D03*
X118500000Y-104450000D03*
D20*
X76787500Y-87487500D03*
X78612500Y-87487500D03*
D39*
X88050000Y-124500000D03*
X88550000Y-124500000D03*
X89050000Y-124500000D03*
X89550000Y-124500000D03*
X90050000Y-124500000D03*
X90050000Y-121500000D03*
X89550000Y-121500000D03*
X89050000Y-121500000D03*
X88550000Y-121500000D03*
X88050000Y-121500000D03*
D40*
X89050000Y-123000000D03*
D38*
X68500000Y-89750000D03*
X68500000Y-85750000D03*
D20*
X105637500Y-104150000D03*
X107462500Y-104150000D03*
D23*
X137050000Y-68500000D03*
D24*
X133550000Y-68500000D03*
X130050000Y-68500000D03*
D20*
X75637500Y-106800000D03*
X77462500Y-106800000D03*
D23*
X130100000Y-123000000D03*
D24*
X133600000Y-123000000D03*
X137100000Y-123000000D03*
D41*
X131400000Y-89600000D03*
X131400000Y-87700000D03*
D30*
X83375000Y-114875000D03*
X83375000Y-114225000D03*
X83375000Y-113575000D03*
X83375000Y-112925000D03*
D34*
X80225000Y-112925000D03*
X80225000Y-113575000D03*
X80225000Y-114225000D03*
X80225000Y-114875000D03*
D35*
X81475000Y-113900000D03*
D20*
X78287500Y-77350000D03*
X80112500Y-77350000D03*
D22*
X77250000Y-74000000D03*
X81250000Y-74000000D03*
D23*
X77450000Y-123000000D03*
D24*
X80950000Y-123000000D03*
D30*
X73800000Y-94725000D03*
X73800000Y-94075000D03*
X73800000Y-93425000D03*
X73800000Y-92775000D03*
D34*
X70650000Y-92775000D03*
X70650000Y-93425000D03*
X70650000Y-94075000D03*
X70650000Y-94725000D03*
D35*
X71900000Y-93750000D03*
D42*
X131610000Y-74177500D03*
D43*
X129070000Y-74177500D03*
X126530000Y-74177500D03*
X123990000Y-74177500D03*
X121450000Y-74177500D03*
X118910000Y-74177500D03*
X116370000Y-74177500D03*
X113830000Y-74177500D03*
X111290000Y-74177500D03*
X108750000Y-74177500D03*
X106210000Y-74177500D03*
X103670000Y-74177500D03*
X101130000Y-74177500D03*
X98590000Y-74177500D03*
X96050000Y-74177500D03*
X93510000Y-74177500D03*
X90970000Y-74177500D03*
X88430000Y-74177500D03*
X85890000Y-74177500D03*
X131610000Y-99577500D03*
X129070000Y-99577500D03*
X126530000Y-99577500D03*
X123990000Y-99577500D03*
X121450000Y-99577500D03*
X118910000Y-99577500D03*
X116370000Y-99577500D03*
X113830000Y-99577500D03*
X111290000Y-99577500D03*
X108750000Y-99577500D03*
X106210000Y-99577500D03*
X103670000Y-99577500D03*
X101130000Y-99577500D03*
X98590000Y-99577500D03*
X96050000Y-99577500D03*
X93510000Y-99577500D03*
X90970000Y-99577500D03*
X88430000Y-99577500D03*
X85890000Y-99577500D03*
D44*
X96837500Y-123000000D03*
X96837500Y-123000000D03*
X99762500Y-123000000D03*
X99762500Y-123000000D03*
D45*
X89050000Y-119085000D03*
X89050000Y-117535000D03*
D30*
X73075000Y-108325000D03*
X72425000Y-108325000D03*
X71775000Y-108325000D03*
X71125000Y-108325000D03*
D31*
X71125000Y-111475000D03*
X71775000Y-111475000D03*
X72425000Y-111475000D03*
X73075000Y-111475000D03*
D32*
X72100000Y-110225000D03*
D45*
X87497500Y-119085000D03*
X87497500Y-117535000D03*
D46*
X109000000Y-69750000D03*
X101000000Y-69750000D03*
X109000000Y-65250000D03*
X101000000Y-65250000D03*
D30*
X71075000Y-80570000D03*
X71725000Y-80570000D03*
X72375000Y-80570000D03*
X73025000Y-80570000D03*
D31*
X73025000Y-77420000D03*
X72375000Y-77420000D03*
X71725000Y-77420000D03*
X71075000Y-77420000D03*
D32*
X72050000Y-78670000D03*
D20*
X75687500Y-84900000D03*
X77512500Y-84900000D03*
D30*
X82525000Y-79400000D03*
X83175000Y-79400000D03*
X83825000Y-79400000D03*
X84475000Y-79400000D03*
D31*
X84475000Y-76250000D03*
X83825000Y-76250000D03*
X83175000Y-76250000D03*
X82525000Y-76250000D03*
D32*
X83500000Y-77500000D03*
D20*
X83375000Y-108600000D03*
X85200000Y-108600000D03*
D41*
X115750000Y-107300000D03*
X115750000Y-105400000D03*
D30*
X73855000Y-101925000D03*
X73855000Y-101275000D03*
X73855000Y-100625000D03*
X73855000Y-99975000D03*
D34*
X70705000Y-99975000D03*
X70705000Y-100625000D03*
X70705000Y-101275000D03*
X70705000Y-101925000D03*
D35*
X71955000Y-100950000D03*
D45*
X90597500Y-119085000D03*
X90597500Y-117535000D03*
D20*
X75287500Y-99300000D03*
X77112500Y-99300000D03*
X76387500Y-110850000D03*
X78212500Y-110850000D03*
D26*
X129445000Y-84152500D03*
X128175000Y-84152500D03*
X126905000Y-84152500D03*
X125635000Y-84152500D03*
X124365000Y-84152500D03*
X123095000Y-84152500D03*
X121825000Y-84152500D03*
X120555000Y-84152500D03*
X120555000Y-89602500D03*
X121825000Y-89602500D03*
X123095000Y-89602500D03*
X124365000Y-89602500D03*
X125635000Y-89602500D03*
X126905000Y-89602500D03*
X128175000Y-89602500D03*
X129445000Y-89602500D03*
D22*
X73250000Y-117500000D03*
X69250000Y-117500000D03*
D23*
X63000000Y-110000000D03*
D24*
X63000000Y-113500000D03*
D20*
X76987500Y-93600000D03*
X78812500Y-93600000D03*
D47*
X107857500Y-120400000D03*
D48*
X107857500Y-124900000D03*
D49*
X102157500Y-118800000D03*
X102157500Y-124900000D03*
X113557500Y-124900000D03*
X113557500Y-118800000D03*
D23*
X63000000Y-78000000D03*
D24*
X63000000Y-81500000D03*
D50*
X113712000Y-109855000D03*
X113712000Y-108585000D03*
X113712000Y-107315000D03*
X113712000Y-106045000D03*
X108288000Y-106045000D03*
X108288000Y-107315000D03*
X108288000Y-108585000D03*
X108288000Y-109855000D03*
D51*
X97312500Y-95500000D03*
X95487500Y-95500000D03*
D27*
X105850000Y-93650000D03*
D52*
X121800000Y-107325000D03*
X121800000Y-109475000D03*
D20*
X86087500Y-79400000D03*
X87912500Y-79400000D03*
D53*
X99500000Y-114387500D03*
X99500000Y-115962500D03*
D20*
X109337500Y-67500000D03*
X111162500Y-67500000D03*
D54*
X116350000Y-78312500D03*
X116350000Y-76487500D03*
D23*
X118600000Y-123000000D03*
D24*
X122100000Y-123000000D03*
X125600000Y-123000000D03*
D20*
X122087500Y-96750000D03*
X123912500Y-96750000D03*
D23*
X143550000Y-93500000D03*
D24*
X143550000Y-90000000D03*
X143550000Y-86500000D03*
D20*
X109137500Y-104150000D03*
X110962500Y-104150000D03*
D25*
X113200000Y-69587500D03*
X113200000Y-71412500D03*
D20*
X75637500Y-104750000D03*
X77462500Y-104750000D03*
D23*
X63000000Y-94000000D03*
D24*
X63000000Y-97500000D03*
D20*
X92545000Y-118950000D03*
X94370000Y-118950000D03*
D55*
X91472500Y-126035000D03*
X89822500Y-126035000D03*
D20*
X77187500Y-82900000D03*
X79012500Y-82900000D03*
D30*
X71075000Y-88500000D03*
X71725000Y-88500000D03*
X72375000Y-88500000D03*
X73025000Y-88500000D03*
D31*
X73025000Y-85350000D03*
X72375000Y-85350000D03*
X71725000Y-85350000D03*
X71075000Y-85350000D03*
D32*
X72050000Y-86600000D03*
D56*
X88272500Y-126035000D03*
X86722500Y-126035000D03*
D25*
X111200000Y-69587500D03*
X111200000Y-71412500D03*
D38*
X68500000Y-105750000D03*
X68500000Y-101750000D03*
D23*
X72950000Y-68500000D03*
D24*
X69450000Y-68500000D03*
D27*
X144000000Y-68000000D03*
D54*
X90450000Y-110862500D03*
X90450000Y-109037500D03*
X101400000Y-115962500D03*
X101400000Y-114137500D03*
D57*
X104650000Y-109600000D03*
X99250000Y-109600000D03*
D27*
X62500000Y-68000000D03*
D29*
X91625000Y-121350000D03*
X93175000Y-121350000D03*
D51*
X127662500Y-96750000D03*
X125837500Y-96750000D03*
D25*
X96350000Y-118950000D03*
X96350000Y-120775000D03*
X92550000Y-106887500D03*
X92550000Y-108712500D03*
D23*
X80950000Y-68500000D03*
D24*
X77450000Y-68500000D03*
D22*
X69250000Y-74000000D03*
X73250000Y-74000000D03*
D23*
X63000000Y-102000000D03*
D24*
X63000000Y-105500000D03*
D38*
X68500000Y-81750000D03*
X68500000Y-77750000D03*
D20*
X86087500Y-81400000D03*
X87912500Y-81400000D03*
D58*
X92545000Y-116312000D03*
X93815000Y-116312000D03*
X95085000Y-116312000D03*
X96355000Y-116312000D03*
X96355000Y-110888000D03*
X95085000Y-110888000D03*
X93815000Y-110888000D03*
X92545000Y-110888000D03*
D38*
X68500000Y-113750000D03*
X68500000Y-109750000D03*
D59*
X86400000Y-121500000D03*
X86400000Y-123050000D03*
D38*
X68500000Y-97750000D03*
X68500000Y-93750000D03*
D20*
X83375000Y-110800000D03*
X85200000Y-110800000D03*
M02*
