M48
; DRILL file {KiCad (6.0.2)} date Fri Aug  4 12:44:49 2023
; FORMAT={-:-/ absolute / metric / decimal}
; #@! TF.CreationDate,2023-08-04T12:44:49+02:00
; #@! TF.GenerationSoftware,Kicad,Pcbnew,(6.0.2)
; #@! TF.FileFunction,Plated,1,4,PTH
FMAT,2
METRIC
; #@! TA.AperFunction,Plated,PTH,ViaDrill
T1C0.400
; #@! TA.AperFunction,Plated,PTH,ComponentDrill
T2C1.040
; #@! TA.AperFunction,Plated,PTH,ComponentDrill
T3C1.200
%
G90
G05
T1
X65.275Y-104.075
X65.275Y-105.225
X65.275Y-106.425
X65.275Y-107.575
X65.3Y-96.125
X65.3Y-97.275
X65.3Y-98.475
X65.3Y-99.625
X65.3Y-112.05
X65.3Y-113.2
X65.3Y-114.4
X65.3Y-115.55
X65.325Y-80.1
X65.325Y-81.25
X65.325Y-82.45
X65.325Y-83.6
X65.325Y-88.1
X65.325Y-89.25
X65.325Y-90.45
X65.325Y-91.6
X66.475Y-104.075
X66.475Y-105.225
X66.475Y-106.425
X66.475Y-107.575
X66.5Y-96.125
X66.5Y-97.275
X66.5Y-98.475
X66.5Y-99.625
X66.5Y-112.05
X66.5Y-113.2
X66.5Y-114.4
X66.5Y-115.55
X66.525Y-80.1
X66.525Y-81.25
X66.525Y-82.45
X66.525Y-83.6
X66.525Y-88.1
X66.525Y-89.25
X66.525Y-90.45
X66.525Y-91.6
X67.2Y-70.8
X67.2Y-72.0
X68.35Y-70.8
X68.35Y-72.0
X69.55Y-70.8
X69.55Y-72.0
X70.65Y-89.3
X70.65Y-90.35
X70.7Y-70.8
X70.7Y-72.0
X71.2Y-81.4
X71.2Y-82.45
X71.2Y-83.5
X71.5Y-119.475
X71.5Y-120.675
X71.7Y-89.3
X71.7Y-90.35
X72.0Y-106.45
X72.0Y-107.5
X72.25Y-81.4
X72.25Y-82.45
X72.25Y-83.5
X72.65Y-119.475
X72.65Y-120.675
X72.75Y-89.3
X72.75Y-90.35
X73.05Y-106.45
X73.05Y-107.5
X73.85Y-119.475
X73.85Y-120.675
X74.1Y-106.45
X74.1Y-107.5
X74.6Y-93.65
X74.6Y-94.7
X74.6Y-95.75
X74.68Y-100.85
X74.68Y-101.9
X74.68Y-102.95
X74.75Y-80.2
X74.75Y-81.25
X74.75Y-82.3
X75.0Y-119.475
X75.0Y-120.675
X75.225Y-70.8
X75.225Y-72.0
X75.65Y-93.65
X75.65Y-94.7
X75.65Y-95.75
X75.73Y-100.85
X75.73Y-101.9
X75.73Y-102.95
X75.75Y-107.8
X75.8Y-80.2
X75.8Y-81.25
X75.8Y-82.3
X76.1Y-112.45
X76.1Y-113.5
X76.1Y-114.55
X76.375Y-70.8
X76.375Y-72.0
X76.875Y-89.6
X77.15Y-112.45
X77.15Y-113.5
X77.15Y-114.55
X77.35Y-93.825
X77.4Y-81.0
X77.575Y-70.8
X77.575Y-72.0
X78.29Y-76.06
X78.725Y-70.8
X78.725Y-72.0
X78.81Y-108.97
X78.85Y-99.92
X79.65Y-119.47
X79.65Y-120.67
X80.8Y-119.47
X80.8Y-120.67
X81.55Y-80.2
X81.55Y-81.25
X82.0Y-119.47
X82.0Y-120.67
X82.6Y-80.2
X82.6Y-81.25
X83.15Y-119.47
X83.15Y-120.67
X83.37Y-107.72
X83.65Y-80.2
X83.65Y-81.25
X84.5Y-112.65
X84.5Y-113.7
X84.5Y-114.75
X85.0Y-81.4
X85.55Y-112.65
X85.55Y-113.7
X85.55Y-114.75
X87.15Y-90.95
X90.7Y-115.95
X91.47Y-119.41
X92.0Y-112.5
X92.0Y-113.6
X93.0Y-107.5
X93.0Y-108.6
X93.0Y-109.75
X93.1Y-113.6
X93.1Y-117.85
X94.2Y-113.6
X94.25Y-107.5
X94.25Y-108.6
X94.25Y-109.75
X95.3Y-113.6
X95.5Y-107.5
X95.5Y-108.6
X95.5Y-109.75
X96.4Y-113.6
X96.7Y-92.0
X96.75Y-107.5
X96.75Y-108.6
X96.75Y-109.75
X97.275Y-118.325
X97.5Y-111.0
X97.5Y-113.6
X98.0Y-92.0
X98.0Y-107.5
X98.6Y-113.6
X99.25Y-107.5
X99.7Y-111.0
X99.7Y-112.5
X99.7Y-113.6
X100.05Y-114.86
X100.5Y-107.5
X100.75Y-111.0
X100.8Y-112.5
X100.8Y-113.6
X101.9Y-112.5
X101.9Y-113.6
X103.0Y-107.2
X103.0Y-108.3
X103.0Y-111.3
X103.0Y-112.5
X103.0Y-113.6
X104.1Y-107.2
X104.1Y-108.3
X104.1Y-111.3
X104.1Y-112.5
X104.1Y-113.6
X105.2Y-113.6
X105.63Y-105.45
X106.3Y-107.2
X106.3Y-108.3
X106.3Y-113.6
X107.4Y-113.6
X107.6Y-72.5
X108.5Y-113.6
X110.25Y-120.75
X110.25Y-122.25
X110.25Y-123.75
X110.25Y-125.25
X111.5Y-120.75
X111.5Y-122.25
X111.5Y-123.75
X111.5Y-125.25
X112.3Y-67.4
X112.3Y-68.5
X112.35Y-106.05
X112.75Y-115.0
X113.0Y-120.75
X113.0Y-122.25
X113.8Y-67.4
X113.8Y-68.5
X114.25Y-120.75
X114.25Y-122.25
X115.3Y-67.4
X115.3Y-68.5
X115.75Y-104.3
X115.75Y-117.75
X115.75Y-119.25
X115.75Y-120.75
X115.75Y-122.25
X115.75Y-123.75
X115.75Y-125.25
X117.0Y-117.75
X117.0Y-119.25
X118.25Y-117.75
X118.25Y-119.25
X118.25Y-120.75
X118.25Y-125.25
X118.35Y-95.45
X118.5Y-106.3
X119.5Y-117.75
X119.5Y-119.25
X119.5Y-120.75
X119.5Y-125.25
X120.55Y-85.55
X121.8Y-85.55
X122.1Y-95.45
X125.65Y-82.75
X127.65Y-98.05
X129.75Y-109.2
X129.75Y-110.45
X129.75Y-111.7
X131.0Y-109.2
X131.0Y-110.45
X131.0Y-111.7
X131.4Y-86.6
X132.25Y-109.2
X132.25Y-110.45
X132.25Y-111.7
X133.5Y-109.2
X133.5Y-110.45
X133.5Y-111.7
T2
X85.89Y-74.177
X85.89Y-99.578
X88.43Y-74.177
X88.43Y-99.578
X90.97Y-74.177
X90.97Y-99.578
X93.51Y-74.177
X93.51Y-99.578
X96.05Y-74.177
X96.05Y-99.578
X98.59Y-74.177
X98.59Y-99.578
X101.13Y-74.177
X101.13Y-99.578
X103.67Y-74.177
X103.67Y-99.578
X106.21Y-74.177
X106.21Y-99.578
X108.75Y-74.177
X108.75Y-99.578
X111.29Y-74.177
X111.29Y-99.578
X113.83Y-74.177
X113.83Y-99.578
X116.37Y-74.177
X116.37Y-99.578
X118.91Y-74.177
X118.91Y-99.578
X121.45Y-74.177
X121.45Y-99.578
X123.99Y-74.177
X123.99Y-99.578
X126.53Y-74.177
X126.53Y-99.578
X129.07Y-74.177
X129.07Y-99.578
X131.61Y-74.177
X131.61Y-99.578
T3
X63.0Y-78.0
X63.0Y-81.5
X63.0Y-86.0
X63.0Y-89.5
X63.0Y-94.0
X63.0Y-97.5
X63.0Y-102.0
X63.0Y-105.5
X63.0Y-110.0
X63.0Y-113.5
X69.45Y-68.5
X69.45Y-123.0
X72.95Y-68.5
X72.95Y-123.0
X77.45Y-68.5
X77.45Y-123.0
X80.95Y-68.5
X80.95Y-123.0
X85.45Y-68.5
X88.95Y-68.5
X92.45Y-68.5
X95.95Y-68.5
X118.55Y-68.5
X118.6Y-123.0
X122.05Y-68.5
X122.1Y-123.0
X125.55Y-68.5
X125.6Y-123.0
X130.05Y-68.5
X130.1Y-123.0
X133.55Y-68.5
X133.6Y-123.0
X137.05Y-68.5
X137.1Y-123.0
X143.55Y-75.0
X143.55Y-78.5
X143.55Y-82.0
X143.55Y-86.5
X143.55Y-90.0
X143.55Y-93.5
X143.55Y-98.0
X143.55Y-101.5
X143.55Y-105.0
X143.55Y-109.5
X143.55Y-113.0
X143.55Y-116.5
T0
M30
