%FSLAX45Y45*%
G04 Gerber Fmt 4.5, Leading zero omitted, Abs format (unit mm)*
G04 Created by KiCad (PCBNEW (6.0.2)) date 2023-08-04 12:45:14*
%MOMM*%
%LPD*%
G01*
G04 APERTURE LIST*
%TA.AperFunction,Profile*%
%ADD10C,0.200000*%
%TD*%
%ADD11C,0.200000*%
%ADD12C,0.040000*%
%ADD13C,0.104000*%
%ADD14C,0.120000*%
G04 APERTURE END LIST*
D10*
X14850000Y-6350000D02*
X5800000Y-6350000D01*
X5800000Y-6350000D02*
X5800000Y-12800000D01*
X5800000Y-12800000D02*
X14850000Y-12800000D01*
X14850000Y-12800000D02*
X14850000Y-6350000D01*
D11*
D12*
X6507500Y-10387500D02*
X6547500Y-10427500D01*
X6547500Y-10387500D02*
X6507500Y-10427500D01*
X6507500Y-10502500D02*
X6547500Y-10542500D01*
X6547500Y-10502500D02*
X6507500Y-10542500D01*
X6507500Y-10622500D02*
X6547500Y-10662500D01*
X6547500Y-10622500D02*
X6507500Y-10662500D01*
X6507500Y-10737500D02*
X6547500Y-10777500D01*
X6547500Y-10737500D02*
X6507500Y-10777500D01*
X6510000Y-9592500D02*
X6550000Y-9632500D01*
X6550000Y-9592500D02*
X6510000Y-9632500D01*
X6510000Y-9707500D02*
X6550000Y-9747500D01*
X6550000Y-9707500D02*
X6510000Y-9747500D01*
X6510000Y-9827500D02*
X6550000Y-9867500D01*
X6550000Y-9827500D02*
X6510000Y-9867500D01*
X6510000Y-9942500D02*
X6550000Y-9982500D01*
X6550000Y-9942500D02*
X6510000Y-9982500D01*
X6510000Y-11185000D02*
X6550000Y-11225000D01*
X6550000Y-11185000D02*
X6510000Y-11225000D01*
X6510000Y-11300000D02*
X6550000Y-11340000D01*
X6550000Y-11300000D02*
X6510000Y-11340000D01*
X6510000Y-11420000D02*
X6550000Y-11460000D01*
X6550000Y-11420000D02*
X6510000Y-11460000D01*
X6510000Y-11535000D02*
X6550000Y-11575000D01*
X6550000Y-11535000D02*
X6510000Y-11575000D01*
X6512500Y-7990000D02*
X6552500Y-8030000D01*
X6552500Y-7990000D02*
X6512500Y-8030000D01*
X6512500Y-8105000D02*
X6552500Y-8145000D01*
X6552500Y-8105000D02*
X6512500Y-8145000D01*
X6512500Y-8225000D02*
X6552500Y-8265000D01*
X6552500Y-8225000D02*
X6512500Y-8265000D01*
X6512500Y-8340000D02*
X6552500Y-8380000D01*
X6552500Y-8340000D02*
X6512500Y-8380000D01*
X6512500Y-8790000D02*
X6552500Y-8830000D01*
X6552500Y-8790000D02*
X6512500Y-8830000D01*
X6512500Y-8905000D02*
X6552500Y-8945000D01*
X6552500Y-8905000D02*
X6512500Y-8945000D01*
X6512500Y-9025000D02*
X6552500Y-9065000D01*
X6552500Y-9025000D02*
X6512500Y-9065000D01*
X6512500Y-9140000D02*
X6552500Y-9180000D01*
X6552500Y-9140000D02*
X6512500Y-9180000D01*
X6627500Y-10387500D02*
X6667500Y-10427500D01*
X6667500Y-10387500D02*
X6627500Y-10427500D01*
X6627500Y-10502500D02*
X6667500Y-10542500D01*
X6667500Y-10502500D02*
X6627500Y-10542500D01*
X6627500Y-10622500D02*
X6667500Y-10662500D01*
X6667500Y-10622500D02*
X6627500Y-10662500D01*
X6627500Y-10737500D02*
X6667500Y-10777500D01*
X6667500Y-10737500D02*
X6627500Y-10777500D01*
X6630000Y-9592500D02*
X6670000Y-9632500D01*
X6670000Y-9592500D02*
X6630000Y-9632500D01*
X6630000Y-9707500D02*
X6670000Y-9747500D01*
X6670000Y-9707500D02*
X6630000Y-9747500D01*
X6630000Y-9827500D02*
X6670000Y-9867500D01*
X6670000Y-9827500D02*
X6630000Y-9867500D01*
X6630000Y-9942500D02*
X6670000Y-9982500D01*
X6670000Y-9942500D02*
X6630000Y-9982500D01*
X6630000Y-11185000D02*
X6670000Y-11225000D01*
X6670000Y-11185000D02*
X6630000Y-11225000D01*
X6630000Y-11300000D02*
X6670000Y-11340000D01*
X6670000Y-11300000D02*
X6630000Y-11340000D01*
X6630000Y-11420000D02*
X6670000Y-11460000D01*
X6670000Y-11420000D02*
X6630000Y-11460000D01*
X6630000Y-11535000D02*
X6670000Y-11575000D01*
X6670000Y-11535000D02*
X6630000Y-11575000D01*
X6632500Y-7990000D02*
X6672500Y-8030000D01*
X6672500Y-7990000D02*
X6632500Y-8030000D01*
X6632500Y-8105000D02*
X6672500Y-8145000D01*
X6672500Y-8105000D02*
X6632500Y-8145000D01*
X6632500Y-8225000D02*
X6672500Y-8265000D01*
X6672500Y-8225000D02*
X6632500Y-8265000D01*
X6632500Y-8340000D02*
X6672500Y-8380000D01*
X6672500Y-8340000D02*
X6632500Y-8380000D01*
X6632500Y-8790000D02*
X6672500Y-8830000D01*
X6672500Y-8790000D02*
X6632500Y-8830000D01*
X6632500Y-8905000D02*
X6672500Y-8945000D01*
X6672500Y-8905000D02*
X6632500Y-8945000D01*
X6632500Y-9025000D02*
X6672500Y-9065000D01*
X6672500Y-9025000D02*
X6632500Y-9065000D01*
X6632500Y-9140000D02*
X6672500Y-9180000D01*
X6672500Y-9140000D02*
X6632500Y-9180000D01*
X6700000Y-7060000D02*
X6740000Y-7100000D01*
X6740000Y-7060000D02*
X6700000Y-7100000D01*
X6700000Y-7180000D02*
X6740000Y-7220000D01*
X6740000Y-7180000D02*
X6700000Y-7220000D01*
X6815000Y-7060000D02*
X6855000Y-7100000D01*
X6855000Y-7060000D02*
X6815000Y-7100000D01*
X6815000Y-7180000D02*
X6855000Y-7220000D01*
X6855000Y-7180000D02*
X6815000Y-7220000D01*
X6935000Y-7060000D02*
X6975000Y-7100000D01*
X6975000Y-7060000D02*
X6935000Y-7100000D01*
X6935000Y-7180000D02*
X6975000Y-7220000D01*
X6975000Y-7180000D02*
X6935000Y-7220000D01*
X7045000Y-8910000D02*
X7085000Y-8950000D01*
X7085000Y-8910000D02*
X7045000Y-8950000D01*
X7045000Y-9015000D02*
X7085000Y-9055000D01*
X7085000Y-9015000D02*
X7045000Y-9055000D01*
X7050000Y-7060000D02*
X7090000Y-7100000D01*
X7090000Y-7060000D02*
X7050000Y-7100000D01*
X7050000Y-7180000D02*
X7090000Y-7220000D01*
X7090000Y-7180000D02*
X7050000Y-7220000D01*
X7100000Y-8120000D02*
X7140000Y-8160000D01*
X7140000Y-8120000D02*
X7100000Y-8160000D01*
X7100000Y-8225000D02*
X7140000Y-8265000D01*
X7140000Y-8225000D02*
X7100000Y-8265000D01*
X7100000Y-8330000D02*
X7140000Y-8370000D01*
X7140000Y-8330000D02*
X7100000Y-8370000D01*
X7130000Y-11927500D02*
X7170000Y-11967500D01*
X7170000Y-11927500D02*
X7130000Y-11967500D01*
X7130000Y-12047500D02*
X7170000Y-12087500D01*
X7170000Y-12047500D02*
X7130000Y-12087500D01*
X7150000Y-8910000D02*
X7190000Y-8950000D01*
X7190000Y-8910000D02*
X7150000Y-8950000D01*
X7150000Y-9015000D02*
X7190000Y-9055000D01*
X7190000Y-9015000D02*
X7150000Y-9055000D01*
X7180000Y-10625000D02*
X7220000Y-10665000D01*
X7220000Y-10625000D02*
X7180000Y-10665000D01*
X7180000Y-10730000D02*
X7220000Y-10770000D01*
X7220000Y-10730000D02*
X7180000Y-10770000D01*
X7205000Y-8120000D02*
X7245000Y-8160000D01*
X7245000Y-8120000D02*
X7205000Y-8160000D01*
X7205000Y-8225000D02*
X7245000Y-8265000D01*
X7245000Y-8225000D02*
X7205000Y-8265000D01*
X7205000Y-8330000D02*
X7245000Y-8370000D01*
X7245000Y-8330000D02*
X7205000Y-8370000D01*
X7245000Y-11927500D02*
X7285000Y-11967500D01*
X7285000Y-11927500D02*
X7245000Y-11967500D01*
X7245000Y-12047500D02*
X7285000Y-12087500D01*
X7285000Y-12047500D02*
X7245000Y-12087500D01*
X7255000Y-8910000D02*
X7295000Y-8950000D01*
X7295000Y-8910000D02*
X7255000Y-8950000D01*
X7255000Y-9015000D02*
X7295000Y-9055000D01*
X7295000Y-9015000D02*
X7255000Y-9055000D01*
X7285000Y-10625000D02*
X7325000Y-10665000D01*
X7325000Y-10625000D02*
X7285000Y-10665000D01*
X7285000Y-10730000D02*
X7325000Y-10770000D01*
X7325000Y-10730000D02*
X7285000Y-10770000D01*
X7365000Y-11927500D02*
X7405000Y-11967500D01*
X7405000Y-11927500D02*
X7365000Y-11967500D01*
X7365000Y-12047500D02*
X7405000Y-12087500D01*
X7405000Y-12047500D02*
X7365000Y-12087500D01*
X7390000Y-10625000D02*
X7430000Y-10665000D01*
X7430000Y-10625000D02*
X7390000Y-10665000D01*
X7390000Y-10730000D02*
X7430000Y-10770000D01*
X7430000Y-10730000D02*
X7390000Y-10770000D01*
X7440000Y-9345000D02*
X7480000Y-9385000D01*
X7480000Y-9345000D02*
X7440000Y-9385000D01*
X7440000Y-9450000D02*
X7480000Y-9490000D01*
X7480000Y-9450000D02*
X7440000Y-9490000D01*
X7440000Y-9555000D02*
X7480000Y-9595000D01*
X7480000Y-9555000D02*
X7440000Y-9595000D01*
X7448000Y-10065000D02*
X7488000Y-10105000D01*
X7488000Y-10065000D02*
X7448000Y-10105000D01*
X7448000Y-10170000D02*
X7488000Y-10210000D01*
X7488000Y-10170000D02*
X7448000Y-10210000D01*
X7448000Y-10275000D02*
X7488000Y-10315000D01*
X7488000Y-10275000D02*
X7448000Y-10315000D01*
X7455000Y-8000000D02*
X7495000Y-8040000D01*
X7495000Y-8000000D02*
X7455000Y-8040000D01*
X7455000Y-8105000D02*
X7495000Y-8145000D01*
X7495000Y-8105000D02*
X7455000Y-8145000D01*
X7455000Y-8210000D02*
X7495000Y-8250000D01*
X7495000Y-8210000D02*
X7455000Y-8250000D01*
X7480000Y-11927500D02*
X7520000Y-11967500D01*
X7520000Y-11927500D02*
X7480000Y-11967500D01*
X7480000Y-12047500D02*
X7520000Y-12087500D01*
X7520000Y-12047500D02*
X7480000Y-12087500D01*
X7502500Y-7060000D02*
X7542500Y-7100000D01*
X7542500Y-7060000D02*
X7502500Y-7100000D01*
X7502500Y-7180000D02*
X7542500Y-7220000D01*
X7542500Y-7180000D02*
X7502500Y-7220000D01*
X7545000Y-9345000D02*
X7585000Y-9385000D01*
X7585000Y-9345000D02*
X7545000Y-9385000D01*
X7545000Y-9450000D02*
X7585000Y-9490000D01*
X7585000Y-9450000D02*
X7545000Y-9490000D01*
X7545000Y-9555000D02*
X7585000Y-9595000D01*
X7585000Y-9555000D02*
X7545000Y-9595000D01*
X7553000Y-10065000D02*
X7593000Y-10105000D01*
X7593000Y-10065000D02*
X7553000Y-10105000D01*
X7553000Y-10170000D02*
X7593000Y-10210000D01*
X7593000Y-10170000D02*
X7553000Y-10210000D01*
X7553000Y-10275000D02*
X7593000Y-10315000D01*
X7593000Y-10275000D02*
X7553000Y-10315000D01*
X7555000Y-10760000D02*
X7595000Y-10800000D01*
X7595000Y-10760000D02*
X7555000Y-10800000D01*
X7560000Y-8000000D02*
X7600000Y-8040000D01*
X7600000Y-8000000D02*
X7560000Y-8040000D01*
X7560000Y-8105000D02*
X7600000Y-8145000D01*
X7600000Y-8105000D02*
X7560000Y-8145000D01*
X7560000Y-8210000D02*
X7600000Y-8250000D01*
X7600000Y-8210000D02*
X7560000Y-8250000D01*
X7590000Y-11225000D02*
X7630000Y-11265000D01*
X7630000Y-11225000D02*
X7590000Y-11265000D01*
X7590000Y-11330000D02*
X7630000Y-11370000D01*
X7630000Y-11330000D02*
X7590000Y-11370000D01*
X7590000Y-11435000D02*
X7630000Y-11475000D01*
X7630000Y-11435000D02*
X7590000Y-11475000D01*
X7617500Y-7060000D02*
X7657500Y-7100000D01*
X7657500Y-7060000D02*
X7617500Y-7100000D01*
X7617500Y-7180000D02*
X7657500Y-7220000D01*
X7657500Y-7180000D02*
X7617500Y-7220000D01*
X7667500Y-8940000D02*
X7707500Y-8980000D01*
X7707500Y-8940000D02*
X7667500Y-8980000D01*
X7695000Y-11225000D02*
X7735000Y-11265000D01*
X7735000Y-11225000D02*
X7695000Y-11265000D01*
X7695000Y-11330000D02*
X7735000Y-11370000D01*
X7735000Y-11330000D02*
X7695000Y-11370000D01*
X7695000Y-11435000D02*
X7735000Y-11475000D01*
X7735000Y-11435000D02*
X7695000Y-11475000D01*
X7715000Y-9362500D02*
X7755000Y-9402500D01*
X7755000Y-9362500D02*
X7715000Y-9402500D01*
X7720000Y-8080000D02*
X7760000Y-8120000D01*
X7760000Y-8080000D02*
X7720000Y-8120000D01*
X7737500Y-7060000D02*
X7777500Y-7100000D01*
X7777500Y-7060000D02*
X7737500Y-7100000D01*
X7737500Y-7180000D02*
X7777500Y-7220000D01*
X7777500Y-7180000D02*
X7737500Y-7220000D01*
X7809000Y-7586000D02*
X7849000Y-7626000D01*
X7849000Y-7586000D02*
X7809000Y-7626000D01*
X7852500Y-7060000D02*
X7892500Y-7100000D01*
X7892500Y-7060000D02*
X7852500Y-7100000D01*
X7852500Y-7180000D02*
X7892500Y-7220000D01*
X7892500Y-7180000D02*
X7852500Y-7220000D01*
X7861000Y-10877000D02*
X7901000Y-10917000D01*
X7901000Y-10877000D02*
X7861000Y-10917000D01*
X7865000Y-9972000D02*
X7905000Y-10012000D01*
X7905000Y-9972000D02*
X7865000Y-10012000D01*
X7945000Y-11927000D02*
X7985000Y-11967000D01*
X7985000Y-11927000D02*
X7945000Y-11967000D01*
X7945000Y-12047000D02*
X7985000Y-12087000D01*
X7985000Y-12047000D02*
X7945000Y-12087000D01*
X8060000Y-11927000D02*
X8100000Y-11967000D01*
X8100000Y-11927000D02*
X8060000Y-11967000D01*
X8060000Y-12047000D02*
X8100000Y-12087000D01*
X8100000Y-12047000D02*
X8060000Y-12087000D01*
X8135000Y-8000000D02*
X8175000Y-8040000D01*
X8175000Y-8000000D02*
X8135000Y-8040000D01*
X8135000Y-8105000D02*
X8175000Y-8145000D01*
X8175000Y-8105000D02*
X8135000Y-8145000D01*
X8180000Y-11927000D02*
X8220000Y-11967000D01*
X8220000Y-11927000D02*
X8180000Y-11967000D01*
X8180000Y-12047000D02*
X8220000Y-12087000D01*
X8220000Y-12047000D02*
X8180000Y-12087000D01*
X8240000Y-8000000D02*
X8280000Y-8040000D01*
X8280000Y-8000000D02*
X8240000Y-8040000D01*
X8240000Y-8105000D02*
X8280000Y-8145000D01*
X8280000Y-8105000D02*
X8240000Y-8145000D01*
X8295000Y-11927000D02*
X8335000Y-11967000D01*
X8335000Y-11927000D02*
X8295000Y-11967000D01*
X8295000Y-12047000D02*
X8335000Y-12087000D01*
X8335000Y-12047000D02*
X8295000Y-12087000D01*
X8317000Y-10752000D02*
X8357000Y-10792000D01*
X8357000Y-10752000D02*
X8317000Y-10792000D01*
X8345000Y-8000000D02*
X8385000Y-8040000D01*
X8385000Y-8000000D02*
X8345000Y-8040000D01*
X8345000Y-8105000D02*
X8385000Y-8145000D01*
X8385000Y-8105000D02*
X8345000Y-8145000D01*
X8430000Y-11245000D02*
X8470000Y-11285000D01*
X8470000Y-11245000D02*
X8430000Y-11285000D01*
X8430000Y-11350000D02*
X8470000Y-11390000D01*
X8470000Y-11350000D02*
X8430000Y-11390000D01*
X8430000Y-11455000D02*
X8470000Y-11495000D01*
X8470000Y-11455000D02*
X8430000Y-11495000D01*
X8480000Y-8120000D02*
X8520000Y-8160000D01*
X8520000Y-8120000D02*
X8480000Y-8160000D01*
X8535000Y-11245000D02*
X8575000Y-11285000D01*
X8575000Y-11245000D02*
X8535000Y-11285000D01*
X8535000Y-11350000D02*
X8575000Y-11390000D01*
X8575000Y-11350000D02*
X8535000Y-11390000D01*
X8535000Y-11455000D02*
X8575000Y-11495000D01*
X8575000Y-11455000D02*
X8535000Y-11495000D01*
X8695000Y-9075000D02*
X8735000Y-9115000D01*
X8735000Y-9075000D02*
X8695000Y-9115000D01*
X9050000Y-11575000D02*
X9090000Y-11615000D01*
X9090000Y-11575000D02*
X9050000Y-11615000D01*
X9127000Y-11921000D02*
X9167000Y-11961000D01*
X9167000Y-11921000D02*
X9127000Y-11961000D01*
X9180000Y-11230000D02*
X9220000Y-11270000D01*
X9220000Y-11230000D02*
X9180000Y-11270000D01*
X9180000Y-11340000D02*
X9220000Y-11380000D01*
X9220000Y-11340000D02*
X9180000Y-11380000D01*
X9280000Y-10730000D02*
X9320000Y-10770000D01*
X9320000Y-10730000D02*
X9280000Y-10770000D01*
X9280000Y-10840000D02*
X9320000Y-10880000D01*
X9320000Y-10840000D02*
X9280000Y-10880000D01*
X9280000Y-10955000D02*
X9320000Y-10995000D01*
X9320000Y-10955000D02*
X9280000Y-10995000D01*
X9290000Y-11340000D02*
X9330000Y-11380000D01*
X9330000Y-11340000D02*
X9290000Y-11380000D01*
X9290000Y-11765000D02*
X9330000Y-11805000D01*
X9330000Y-11765000D02*
X9290000Y-11805000D01*
X9400000Y-11340000D02*
X9440000Y-11380000D01*
X9440000Y-11340000D02*
X9400000Y-11380000D01*
X9405000Y-10730000D02*
X9445000Y-10770000D01*
X9445000Y-10730000D02*
X9405000Y-10770000D01*
X9405000Y-10840000D02*
X9445000Y-10880000D01*
X9445000Y-10840000D02*
X9405000Y-10880000D01*
X9405000Y-10955000D02*
X9445000Y-10995000D01*
X9445000Y-10955000D02*
X9405000Y-10995000D01*
X9510000Y-11340000D02*
X9550000Y-11380000D01*
X9550000Y-11340000D02*
X9510000Y-11380000D01*
X9530000Y-10730000D02*
X9570000Y-10770000D01*
X9570000Y-10730000D02*
X9530000Y-10770000D01*
X9530000Y-10840000D02*
X9570000Y-10880000D01*
X9570000Y-10840000D02*
X9530000Y-10880000D01*
X9530000Y-10955000D02*
X9570000Y-10995000D01*
X9570000Y-10955000D02*
X9530000Y-10995000D01*
X9620000Y-11340000D02*
X9660000Y-11380000D01*
X9660000Y-11340000D02*
X9620000Y-11380000D01*
X9650000Y-9180000D02*
X9690000Y-9220000D01*
X9690000Y-9180000D02*
X9650000Y-9220000D01*
X9655000Y-10730000D02*
X9695000Y-10770000D01*
X9695000Y-10730000D02*
X9655000Y-10770000D01*
X9655000Y-10840000D02*
X9695000Y-10880000D01*
X9695000Y-10840000D02*
X9655000Y-10880000D01*
X9655000Y-10955000D02*
X9695000Y-10995000D01*
X9695000Y-10955000D02*
X9655000Y-10995000D01*
X9707500Y-11812500D02*
X9747500Y-11852500D01*
X9747500Y-11812500D02*
X9707500Y-11852500D01*
X9730000Y-11080000D02*
X9770000Y-11120000D01*
X9770000Y-11080000D02*
X9730000Y-11120000D01*
X9730000Y-11340000D02*
X9770000Y-11380000D01*
X9770000Y-11340000D02*
X9730000Y-11380000D01*
X9780000Y-9180000D02*
X9820000Y-9220000D01*
X9820000Y-9180000D02*
X9780000Y-9220000D01*
X9780000Y-10730000D02*
X9820000Y-10770000D01*
X9820000Y-10730000D02*
X9780000Y-10770000D01*
X9840000Y-11340000D02*
X9880000Y-11380000D01*
X9880000Y-11340000D02*
X9840000Y-11380000D01*
X9905000Y-10730000D02*
X9945000Y-10770000D01*
X9945000Y-10730000D02*
X9905000Y-10770000D01*
X9950000Y-11080000D02*
X9990000Y-11120000D01*
X9990000Y-11080000D02*
X9950000Y-11120000D01*
X9950000Y-11230000D02*
X9990000Y-11270000D01*
X9990000Y-11230000D02*
X9950000Y-11270000D01*
X9950000Y-11340000D02*
X9990000Y-11380000D01*
X9990000Y-11340000D02*
X9950000Y-11380000D01*
X9985000Y-11466000D02*
X10025000Y-11506000D01*
X10025000Y-11466000D02*
X9985000Y-11506000D01*
X10030000Y-10730000D02*
X10070000Y-10770000D01*
X10070000Y-10730000D02*
X10030000Y-10770000D01*
X10055000Y-11080000D02*
X10095000Y-11120000D01*
X10095000Y-11080000D02*
X10055000Y-11120000D01*
X10060000Y-11230000D02*
X10100000Y-11270000D01*
X10100000Y-11230000D02*
X10060000Y-11270000D01*
X10060000Y-11340000D02*
X10100000Y-11380000D01*
X10100000Y-11340000D02*
X10060000Y-11380000D01*
X10170000Y-11230000D02*
X10210000Y-11270000D01*
X10210000Y-11230000D02*
X10170000Y-11270000D01*
X10170000Y-11340000D02*
X10210000Y-11380000D01*
X10210000Y-11340000D02*
X10170000Y-11380000D01*
X10280000Y-10700000D02*
X10320000Y-10740000D01*
X10320000Y-10700000D02*
X10280000Y-10740000D01*
X10280000Y-10810000D02*
X10320000Y-10850000D01*
X10320000Y-10810000D02*
X10280000Y-10850000D01*
X10280000Y-11110000D02*
X10320000Y-11150000D01*
X10320000Y-11110000D02*
X10280000Y-11150000D01*
X10280000Y-11230000D02*
X10320000Y-11270000D01*
X10320000Y-11230000D02*
X10280000Y-11270000D01*
X10280000Y-11340000D02*
X10320000Y-11380000D01*
X10320000Y-11340000D02*
X10280000Y-11380000D01*
X10390000Y-10700000D02*
X10430000Y-10740000D01*
X10430000Y-10700000D02*
X10390000Y-10740000D01*
X10390000Y-10810000D02*
X10430000Y-10850000D01*
X10430000Y-10810000D02*
X10390000Y-10850000D01*
X10390000Y-11110000D02*
X10430000Y-11150000D01*
X10430000Y-11110000D02*
X10390000Y-11150000D01*
X10390000Y-11230000D02*
X10430000Y-11270000D01*
X10430000Y-11230000D02*
X10390000Y-11270000D01*
X10390000Y-11340000D02*
X10430000Y-11380000D01*
X10430000Y-11340000D02*
X10390000Y-11380000D01*
X10500000Y-11340000D02*
X10540000Y-11380000D01*
X10540000Y-11340000D02*
X10500000Y-11380000D01*
X10543000Y-10525000D02*
X10583000Y-10565000D01*
X10583000Y-10525000D02*
X10543000Y-10565000D01*
X10610000Y-10700000D02*
X10650000Y-10740000D01*
X10650000Y-10700000D02*
X10610000Y-10740000D01*
X10610000Y-10810000D02*
X10650000Y-10850000D01*
X10650000Y-10810000D02*
X10610000Y-10850000D01*
X10610000Y-11340000D02*
X10650000Y-11380000D01*
X10650000Y-11340000D02*
X10610000Y-11380000D01*
X10720000Y-11340000D02*
X10760000Y-11380000D01*
X10760000Y-11340000D02*
X10720000Y-11380000D01*
X10740000Y-7230000D02*
X10780000Y-7270000D01*
X10780000Y-7230000D02*
X10740000Y-7270000D01*
X10830000Y-11340000D02*
X10870000Y-11380000D01*
X10870000Y-11340000D02*
X10830000Y-11380000D01*
X11005000Y-12055000D02*
X11045000Y-12095000D01*
X11045000Y-12055000D02*
X11005000Y-12095000D01*
X11005000Y-12205000D02*
X11045000Y-12245000D01*
X11045000Y-12205000D02*
X11005000Y-12245000D01*
X11005000Y-12355000D02*
X11045000Y-12395000D01*
X11045000Y-12355000D02*
X11005000Y-12395000D01*
X11005000Y-12505000D02*
X11045000Y-12545000D01*
X11045000Y-12505000D02*
X11005000Y-12545000D01*
X11130000Y-12055000D02*
X11170000Y-12095000D01*
X11170000Y-12055000D02*
X11130000Y-12095000D01*
X11130000Y-12205000D02*
X11170000Y-12245000D01*
X11170000Y-12205000D02*
X11130000Y-12245000D01*
X11130000Y-12355000D02*
X11170000Y-12395000D01*
X11170000Y-12355000D02*
X11130000Y-12395000D01*
X11130000Y-12505000D02*
X11170000Y-12545000D01*
X11170000Y-12505000D02*
X11130000Y-12545000D01*
X11210000Y-6720000D02*
X11250000Y-6760000D01*
X11250000Y-6720000D02*
X11210000Y-6760000D01*
X11210000Y-6830000D02*
X11250000Y-6870000D01*
X11250000Y-6830000D02*
X11210000Y-6870000D01*
X11215000Y-10585000D02*
X11255000Y-10625000D01*
X11255000Y-10585000D02*
X11215000Y-10625000D01*
X11255000Y-11480000D02*
X11295000Y-11520000D01*
X11295000Y-11480000D02*
X11255000Y-11520000D01*
X11280000Y-12055000D02*
X11320000Y-12095000D01*
X11320000Y-12055000D02*
X11280000Y-12095000D01*
X11280000Y-12205000D02*
X11320000Y-12245000D01*
X11320000Y-12205000D02*
X11280000Y-12245000D01*
X11360000Y-6720000D02*
X11400000Y-6760000D01*
X11400000Y-6720000D02*
X11360000Y-6760000D01*
X11360000Y-6830000D02*
X11400000Y-6870000D01*
X11400000Y-6830000D02*
X11360000Y-6870000D01*
X11405000Y-12055000D02*
X11445000Y-12095000D01*
X11445000Y-12055000D02*
X11405000Y-12095000D01*
X11405000Y-12205000D02*
X11445000Y-12245000D01*
X11445000Y-12205000D02*
X11405000Y-12245000D01*
X11510000Y-6720000D02*
X11550000Y-6760000D01*
X11550000Y-6720000D02*
X11510000Y-6760000D01*
X11510000Y-6830000D02*
X11550000Y-6870000D01*
X11550000Y-6830000D02*
X11510000Y-6870000D01*
X11555000Y-10410000D02*
X11595000Y-10450000D01*
X11595000Y-10410000D02*
X11555000Y-10450000D01*
X11555000Y-11755000D02*
X11595000Y-11795000D01*
X11595000Y-11755000D02*
X11555000Y-11795000D01*
X11555000Y-11905000D02*
X11595000Y-11945000D01*
X11595000Y-11905000D02*
X11555000Y-11945000D01*
X11555000Y-12055000D02*
X11595000Y-12095000D01*
X11595000Y-12055000D02*
X11555000Y-12095000D01*
X11555000Y-12205000D02*
X11595000Y-12245000D01*
X11595000Y-12205000D02*
X11555000Y-12245000D01*
X11555000Y-12355000D02*
X11595000Y-12395000D01*
X11595000Y-12355000D02*
X11555000Y-12395000D01*
X11555000Y-12505000D02*
X11595000Y-12545000D01*
X11595000Y-12505000D02*
X11555000Y-12545000D01*
X11680000Y-11755000D02*
X11720000Y-11795000D01*
X11720000Y-11755000D02*
X11680000Y-11795000D01*
X11680000Y-11905000D02*
X11720000Y-11945000D01*
X11720000Y-11905000D02*
X11680000Y-11945000D01*
X11805000Y-11755000D02*
X11845000Y-11795000D01*
X11845000Y-11755000D02*
X11805000Y-11795000D01*
X11805000Y-11905000D02*
X11845000Y-11945000D01*
X11845000Y-11905000D02*
X11805000Y-11945000D01*
X11805000Y-12055000D02*
X11845000Y-12095000D01*
X11845000Y-12055000D02*
X11805000Y-12095000D01*
X11805000Y-12505000D02*
X11845000Y-12545000D01*
X11845000Y-12505000D02*
X11805000Y-12545000D01*
X11815000Y-9525000D02*
X11855000Y-9565000D01*
X11855000Y-9525000D02*
X11815000Y-9565000D01*
X11830000Y-10610000D02*
X11870000Y-10650000D01*
X11870000Y-10610000D02*
X11830000Y-10650000D01*
X11930000Y-11755000D02*
X11970000Y-11795000D01*
X11970000Y-11755000D02*
X11930000Y-11795000D01*
X11930000Y-11905000D02*
X11970000Y-11945000D01*
X11970000Y-11905000D02*
X11930000Y-11945000D01*
X11930000Y-12055000D02*
X11970000Y-12095000D01*
X11970000Y-12055000D02*
X11930000Y-12095000D01*
X11930000Y-12505000D02*
X11970000Y-12545000D01*
X11970000Y-12505000D02*
X11930000Y-12545000D01*
X12035000Y-8535000D02*
X12075000Y-8575000D01*
X12075000Y-8535000D02*
X12035000Y-8575000D01*
X12160000Y-8535000D02*
X12200000Y-8575000D01*
X12200000Y-8535000D02*
X12160000Y-8575000D01*
X12190000Y-9525000D02*
X12230000Y-9565000D01*
X12230000Y-9525000D02*
X12190000Y-9565000D01*
X12545000Y-8255000D02*
X12585000Y-8295000D01*
X12585000Y-8255000D02*
X12545000Y-8295000D01*
X12745000Y-9785000D02*
X12785000Y-9825000D01*
X12785000Y-9785000D02*
X12745000Y-9825000D01*
X12955000Y-10900000D02*
X12995000Y-10940000D01*
X12995000Y-10900000D02*
X12955000Y-10940000D01*
X12955000Y-11025000D02*
X12995000Y-11065000D01*
X12995000Y-11025000D02*
X12955000Y-11065000D01*
X12955000Y-11150000D02*
X12995000Y-11190000D01*
X12995000Y-11150000D02*
X12955000Y-11190000D01*
X13080000Y-10900000D02*
X13120000Y-10940000D01*
X13120000Y-10900000D02*
X13080000Y-10940000D01*
X13080000Y-11025000D02*
X13120000Y-11065000D01*
X13120000Y-11025000D02*
X13080000Y-11065000D01*
X13080000Y-11150000D02*
X13120000Y-11190000D01*
X13120000Y-11150000D02*
X13080000Y-11190000D01*
X13120000Y-8640000D02*
X13160000Y-8680000D01*
X13160000Y-8640000D02*
X13120000Y-8680000D01*
X13205000Y-10900000D02*
X13245000Y-10940000D01*
X13245000Y-10900000D02*
X13205000Y-10940000D01*
X13205000Y-11025000D02*
X13245000Y-11065000D01*
X13245000Y-11025000D02*
X13205000Y-11065000D01*
X13205000Y-11150000D02*
X13245000Y-11190000D01*
X13245000Y-11150000D02*
X13205000Y-11190000D01*
X13330000Y-10900000D02*
X13370000Y-10940000D01*
X13370000Y-10900000D02*
X13330000Y-10940000D01*
X13330000Y-11025000D02*
X13370000Y-11065000D01*
X13370000Y-11025000D02*
X13330000Y-11065000D01*
X13330000Y-11150000D02*
X13370000Y-11190000D01*
X13370000Y-11150000D02*
X13330000Y-11190000D01*
D13*
X8641000Y-7417750D02*
G75*
G03*
X8641000Y-7417750I-52000J0D01*
G01*
X8641000Y-9957750D02*
G75*
G03*
X8641000Y-9957750I-52000J0D01*
G01*
X8895000Y-7417750D02*
G75*
G03*
X8895000Y-7417750I-52000J0D01*
G01*
X8895000Y-9957750D02*
G75*
G03*
X8895000Y-9957750I-52000J0D01*
G01*
X9149000Y-7417750D02*
G75*
G03*
X9149000Y-7417750I-52000J0D01*
G01*
X9149000Y-9957750D02*
G75*
G03*
X9149000Y-9957750I-52000J0D01*
G01*
X9403000Y-7417750D02*
G75*
G03*
X9403000Y-7417750I-52000J0D01*
G01*
X9403000Y-9957750D02*
G75*
G03*
X9403000Y-9957750I-52000J0D01*
G01*
X9657000Y-7417750D02*
G75*
G03*
X9657000Y-7417750I-52000J0D01*
G01*
X9657000Y-9957750D02*
G75*
G03*
X9657000Y-9957750I-52000J0D01*
G01*
X9911000Y-7417750D02*
G75*
G03*
X9911000Y-7417750I-52000J0D01*
G01*
X9911000Y-9957750D02*
G75*
G03*
X9911000Y-9957750I-52000J0D01*
G01*
X10165000Y-7417750D02*
G75*
G03*
X10165000Y-7417750I-52000J0D01*
G01*
X10165000Y-9957750D02*
G75*
G03*
X10165000Y-9957750I-52000J0D01*
G01*
X10419000Y-7417750D02*
G75*
G03*
X10419000Y-7417750I-52000J0D01*
G01*
X10419000Y-9957750D02*
G75*
G03*
X10419000Y-9957750I-52000J0D01*
G01*
X10673000Y-7417750D02*
G75*
G03*
X10673000Y-7417750I-52000J0D01*
G01*
X10673000Y-9957750D02*
G75*
G03*
X10673000Y-9957750I-52000J0D01*
G01*
X10927000Y-7417750D02*
G75*
G03*
X10927000Y-7417750I-52000J0D01*
G01*
X10927000Y-9957750D02*
G75*
G03*
X10927000Y-9957750I-52000J0D01*
G01*
X11181000Y-7417750D02*
G75*
G03*
X11181000Y-7417750I-52000J0D01*
G01*
X11181000Y-9957750D02*
G75*
G03*
X11181000Y-9957750I-52000J0D01*
G01*
X11435000Y-7417750D02*
G75*
G03*
X11435000Y-7417750I-52000J0D01*
G01*
X11435000Y-9957750D02*
G75*
G03*
X11435000Y-9957750I-52000J0D01*
G01*
X11689000Y-7417750D02*
G75*
G03*
X11689000Y-7417750I-52000J0D01*
G01*
X11689000Y-9957750D02*
G75*
G03*
X11689000Y-9957750I-52000J0D01*
G01*
X11943000Y-7417750D02*
G75*
G03*
X11943000Y-7417750I-52000J0D01*
G01*
X11943000Y-9957750D02*
G75*
G03*
X11943000Y-9957750I-52000J0D01*
G01*
X12197000Y-7417750D02*
G75*
G03*
X12197000Y-7417750I-52000J0D01*
G01*
X12197000Y-9957750D02*
G75*
G03*
X12197000Y-9957750I-52000J0D01*
G01*
X12451000Y-7417750D02*
G75*
G03*
X12451000Y-7417750I-52000J0D01*
G01*
X12451000Y-9957750D02*
G75*
G03*
X12451000Y-9957750I-52000J0D01*
G01*
X12705000Y-7417750D02*
G75*
G03*
X12705000Y-7417750I-52000J0D01*
G01*
X12705000Y-9957750D02*
G75*
G03*
X12705000Y-9957750I-52000J0D01*
G01*
X12959000Y-7417750D02*
G75*
G03*
X12959000Y-7417750I-52000J0D01*
G01*
X12959000Y-9957750D02*
G75*
G03*
X12959000Y-9957750I-52000J0D01*
G01*
X13213000Y-7417750D02*
G75*
G03*
X13213000Y-7417750I-52000J0D01*
G01*
X13213000Y-9957750D02*
G75*
G03*
X13213000Y-9957750I-52000J0D01*
G01*
D14*
X6300000Y-7740000D02*
X6300000Y-7860000D01*
X6240000Y-7800000D02*
X6360000Y-7800000D01*
X6300000Y-8090000D02*
X6300000Y-8210000D01*
X6240000Y-8150000D02*
X6360000Y-8150000D01*
X6300000Y-8540000D02*
X6300000Y-8660000D01*
X6240000Y-8600000D02*
X6360000Y-8600000D01*
X6300000Y-8890000D02*
X6300000Y-9010000D01*
X6240000Y-8950000D02*
X6360000Y-8950000D01*
X6300000Y-9340000D02*
X6300000Y-9460000D01*
X6240000Y-9400000D02*
X6360000Y-9400000D01*
X6300000Y-9690000D02*
X6300000Y-9810000D01*
X6240000Y-9750000D02*
X6360000Y-9750000D01*
X6300000Y-10140000D02*
X6300000Y-10260000D01*
X6240000Y-10200000D02*
X6360000Y-10200000D01*
X6300000Y-10490000D02*
X6300000Y-10610000D01*
X6240000Y-10550000D02*
X6360000Y-10550000D01*
X6300000Y-10940000D02*
X6300000Y-11060000D01*
X6240000Y-11000000D02*
X6360000Y-11000000D01*
X6300000Y-11290000D02*
X6300000Y-11410000D01*
X6240000Y-11350000D02*
X6360000Y-11350000D01*
X6945000Y-6790000D02*
X6945000Y-6910000D01*
X6885000Y-6850000D02*
X7005000Y-6850000D01*
X6945000Y-12240000D02*
X6945000Y-12360000D01*
X6885000Y-12300000D02*
X7005000Y-12300000D01*
X7295000Y-6790000D02*
X7295000Y-6910000D01*
X7235000Y-6850000D02*
X7355000Y-6850000D01*
X7295000Y-12240000D02*
X7295000Y-12360000D01*
X7235000Y-12300000D02*
X7355000Y-12300000D01*
X7745000Y-6790000D02*
X7745000Y-6910000D01*
X7685000Y-6850000D02*
X7805000Y-6850000D01*
X7745000Y-12240000D02*
X7745000Y-12360000D01*
X7685000Y-12300000D02*
X7805000Y-12300000D01*
X8095000Y-6790000D02*
X8095000Y-6910000D01*
X8035000Y-6850000D02*
X8155000Y-6850000D01*
X8095000Y-12240000D02*
X8095000Y-12360000D01*
X8035000Y-12300000D02*
X8155000Y-12300000D01*
X8545000Y-6790000D02*
X8545000Y-6910000D01*
X8485000Y-6850000D02*
X8605000Y-6850000D01*
X8895000Y-6790000D02*
X8895000Y-6910000D01*
X8835000Y-6850000D02*
X8955000Y-6850000D01*
X9245000Y-6790000D02*
X9245000Y-6910000D01*
X9185000Y-6850000D02*
X9305000Y-6850000D01*
X9595000Y-6790000D02*
X9595000Y-6910000D01*
X9535000Y-6850000D02*
X9655000Y-6850000D01*
X11855000Y-6790000D02*
X11855000Y-6910000D01*
X11795000Y-6850000D02*
X11915000Y-6850000D01*
X11860000Y-12240000D02*
X11860000Y-12360000D01*
X11800000Y-12300000D02*
X11920000Y-12300000D01*
X12205000Y-6790000D02*
X12205000Y-6910000D01*
X12145000Y-6850000D02*
X12265000Y-6850000D01*
X12210000Y-12240000D02*
X12210000Y-12360000D01*
X12150000Y-12300000D02*
X12270000Y-12300000D01*
X12555000Y-6790000D02*
X12555000Y-6910000D01*
X12495000Y-6850000D02*
X12615000Y-6850000D01*
X12560000Y-12240000D02*
X12560000Y-12360000D01*
X12500000Y-12300000D02*
X12620000Y-12300000D01*
X13005000Y-6790000D02*
X13005000Y-6910000D01*
X12945000Y-6850000D02*
X13065000Y-6850000D01*
X13010000Y-12240000D02*
X13010000Y-12360000D01*
X12950000Y-12300000D02*
X13070000Y-12300000D01*
X13355000Y-6790000D02*
X13355000Y-6910000D01*
X13295000Y-6850000D02*
X13415000Y-6850000D01*
X13360000Y-12240000D02*
X13360000Y-12360000D01*
X13300000Y-12300000D02*
X13420000Y-12300000D01*
X13705000Y-6790000D02*
X13705000Y-6910000D01*
X13645000Y-6850000D02*
X13765000Y-6850000D01*
X13710000Y-12240000D02*
X13710000Y-12360000D01*
X13650000Y-12300000D02*
X13770000Y-12300000D01*
X14355000Y-7440000D02*
X14355000Y-7560000D01*
X14295000Y-7500000D02*
X14415000Y-7500000D01*
X14355000Y-7790000D02*
X14355000Y-7910000D01*
X14295000Y-7850000D02*
X14415000Y-7850000D01*
X14355000Y-8140000D02*
X14355000Y-8260000D01*
X14295000Y-8200000D02*
X14415000Y-8200000D01*
X14355000Y-8590000D02*
X14355000Y-8710000D01*
X14295000Y-8650000D02*
X14415000Y-8650000D01*
X14355000Y-8940000D02*
X14355000Y-9060000D01*
X14295000Y-9000000D02*
X14415000Y-9000000D01*
X14355000Y-9290000D02*
X14355000Y-9410000D01*
X14295000Y-9350000D02*
X14415000Y-9350000D01*
X14355000Y-9740000D02*
X14355000Y-9860000D01*
X14295000Y-9800000D02*
X14415000Y-9800000D01*
X14355000Y-10090000D02*
X14355000Y-10210000D01*
X14295000Y-10150000D02*
X14415000Y-10150000D01*
X14355000Y-10440000D02*
X14355000Y-10560000D01*
X14295000Y-10500000D02*
X14415000Y-10500000D01*
X14355000Y-10890000D02*
X14355000Y-11010000D01*
X14295000Y-10950000D02*
X14415000Y-10950000D01*
X14355000Y-11240000D02*
X14355000Y-11360000D01*
X14295000Y-11300000D02*
X14415000Y-11300000D01*
X14355000Y-11590000D02*
X14355000Y-11710000D01*
X14295000Y-11650000D02*
X14415000Y-11650000D01*
D11*
X6047619Y-13120476D02*
X6047619Y-12920476D01*
X6095238Y-12920476D01*
X6123809Y-12930000D01*
X6142857Y-12949048D01*
X6152381Y-12968095D01*
X6161905Y-13006190D01*
X6161905Y-13034762D01*
X6152381Y-13072857D01*
X6142857Y-13091905D01*
X6123809Y-13110952D01*
X6095238Y-13120476D01*
X6047619Y-13120476D01*
X6247619Y-13120476D02*
X6247619Y-12987143D01*
X6247619Y-13025238D02*
X6257143Y-13006190D01*
X6266667Y-12996667D01*
X6285714Y-12987143D01*
X6304762Y-12987143D01*
X6371428Y-13120476D02*
X6371428Y-12987143D01*
X6371428Y-12920476D02*
X6361905Y-12930000D01*
X6371428Y-12939524D01*
X6380952Y-12930000D01*
X6371428Y-12920476D01*
X6371428Y-12939524D01*
X6495238Y-13120476D02*
X6476190Y-13110952D01*
X6466667Y-13091905D01*
X6466667Y-12920476D01*
X6600000Y-13120476D02*
X6580952Y-13110952D01*
X6571428Y-13091905D01*
X6571428Y-12920476D01*
X6828571Y-13120476D02*
X6828571Y-12920476D01*
X6895238Y-13063333D01*
X6961905Y-12920476D01*
X6961905Y-13120476D01*
X7142857Y-13120476D02*
X7142857Y-13015714D01*
X7133333Y-12996667D01*
X7114286Y-12987143D01*
X7076190Y-12987143D01*
X7057143Y-12996667D01*
X7142857Y-13110952D02*
X7123809Y-13120476D01*
X7076190Y-13120476D01*
X7057143Y-13110952D01*
X7047619Y-13091905D01*
X7047619Y-13072857D01*
X7057143Y-13053809D01*
X7076190Y-13044286D01*
X7123809Y-13044286D01*
X7142857Y-13034762D01*
X7238095Y-12987143D02*
X7238095Y-13187143D01*
X7238095Y-12996667D02*
X7257143Y-12987143D01*
X7295238Y-12987143D01*
X7314286Y-12996667D01*
X7323809Y-13006190D01*
X7333333Y-13025238D01*
X7333333Y-13082381D01*
X7323809Y-13101428D01*
X7314286Y-13110952D01*
X7295238Y-13120476D01*
X7257143Y-13120476D01*
X7238095Y-13110952D01*
X7419048Y-13101428D02*
X7428571Y-13110952D01*
X7419048Y-13120476D01*
X7409524Y-13110952D01*
X7419048Y-13101428D01*
X7419048Y-13120476D01*
X7419048Y-12996667D02*
X7428571Y-13006190D01*
X7419048Y-13015714D01*
X7409524Y-13006190D01*
X7419048Y-12996667D01*
X7419048Y-13015714D01*
D12*
X5750000Y-13430000D02*
X5790000Y-13470000D01*
X5790000Y-13430000D02*
X5750000Y-13470000D01*
D11*
X6085714Y-13340476D02*
X6104762Y-13340476D01*
X6123809Y-13350000D01*
X6133333Y-13359524D01*
X6142857Y-13378571D01*
X6152381Y-13416667D01*
X6152381Y-13464286D01*
X6142857Y-13502381D01*
X6133333Y-13521428D01*
X6123809Y-13530952D01*
X6104762Y-13540476D01*
X6085714Y-13540476D01*
X6066667Y-13530952D01*
X6057143Y-13521428D01*
X6047619Y-13502381D01*
X6038095Y-13464286D01*
X6038095Y-13416667D01*
X6047619Y-13378571D01*
X6057143Y-13359524D01*
X6066667Y-13350000D01*
X6085714Y-13340476D01*
X6238095Y-13521428D02*
X6247619Y-13530952D01*
X6238095Y-13540476D01*
X6228571Y-13530952D01*
X6238095Y-13521428D01*
X6238095Y-13540476D01*
X6419048Y-13407143D02*
X6419048Y-13540476D01*
X6371428Y-13330952D02*
X6323809Y-13473809D01*
X6447619Y-13473809D01*
X6561905Y-13340476D02*
X6580952Y-13340476D01*
X6600000Y-13350000D01*
X6609524Y-13359524D01*
X6619048Y-13378571D01*
X6628571Y-13416667D01*
X6628571Y-13464286D01*
X6619048Y-13502381D01*
X6609524Y-13521428D01*
X6600000Y-13530952D01*
X6580952Y-13540476D01*
X6561905Y-13540476D01*
X6542857Y-13530952D01*
X6533333Y-13521428D01*
X6523809Y-13502381D01*
X6514286Y-13464286D01*
X6514286Y-13416667D01*
X6523809Y-13378571D01*
X6533333Y-13359524D01*
X6542857Y-13350000D01*
X6561905Y-13340476D01*
X6752381Y-13340476D02*
X6771428Y-13340476D01*
X6790476Y-13350000D01*
X6800000Y-13359524D01*
X6809524Y-13378571D01*
X6819048Y-13416667D01*
X6819048Y-13464286D01*
X6809524Y-13502381D01*
X6800000Y-13521428D01*
X6790476Y-13530952D01*
X6771428Y-13540476D01*
X6752381Y-13540476D01*
X6733333Y-13530952D01*
X6723809Y-13521428D01*
X6714286Y-13502381D01*
X6704762Y-13464286D01*
X6704762Y-13416667D01*
X6714286Y-13378571D01*
X6723809Y-13359524D01*
X6733333Y-13350000D01*
X6752381Y-13340476D01*
X6904762Y-13540476D02*
X6904762Y-13407143D01*
X6904762Y-13426190D02*
X6914286Y-13416667D01*
X6933333Y-13407143D01*
X6961905Y-13407143D01*
X6980952Y-13416667D01*
X6990476Y-13435714D01*
X6990476Y-13540476D01*
X6990476Y-13435714D02*
X7000000Y-13416667D01*
X7019048Y-13407143D01*
X7047619Y-13407143D01*
X7066667Y-13416667D01*
X7076190Y-13435714D01*
X7076190Y-13540476D01*
X7171428Y-13540476D02*
X7171428Y-13407143D01*
X7171428Y-13426190D02*
X7180952Y-13416667D01*
X7200000Y-13407143D01*
X7228571Y-13407143D01*
X7247619Y-13416667D01*
X7257143Y-13435714D01*
X7257143Y-13540476D01*
X7257143Y-13435714D02*
X7266667Y-13416667D01*
X7285714Y-13407143D01*
X7314286Y-13407143D01*
X7333333Y-13416667D01*
X7342857Y-13435714D01*
X7342857Y-13540476D01*
X7733333Y-13330952D02*
X7561905Y-13588095D01*
X7990476Y-13340476D02*
X8009524Y-13340476D01*
X8028571Y-13350000D01*
X8038095Y-13359524D01*
X8047619Y-13378571D01*
X8057143Y-13416667D01*
X8057143Y-13464286D01*
X8047619Y-13502381D01*
X8038095Y-13521428D01*
X8028571Y-13530952D01*
X8009524Y-13540476D01*
X7990476Y-13540476D01*
X7971428Y-13530952D01*
X7961905Y-13521428D01*
X7952381Y-13502381D01*
X7942857Y-13464286D01*
X7942857Y-13416667D01*
X7952381Y-13378571D01*
X7961905Y-13359524D01*
X7971428Y-13350000D01*
X7990476Y-13340476D01*
X8142857Y-13521428D02*
X8152381Y-13530952D01*
X8142857Y-13540476D01*
X8133333Y-13530952D01*
X8142857Y-13521428D01*
X8142857Y-13540476D01*
X8276190Y-13340476D02*
X8295238Y-13340476D01*
X8314286Y-13350000D01*
X8323809Y-13359524D01*
X8333333Y-13378571D01*
X8342857Y-13416667D01*
X8342857Y-13464286D01*
X8333333Y-13502381D01*
X8323809Y-13521428D01*
X8314286Y-13530952D01*
X8295238Y-13540476D01*
X8276190Y-13540476D01*
X8257143Y-13530952D01*
X8247619Y-13521428D01*
X8238095Y-13502381D01*
X8228571Y-13464286D01*
X8228571Y-13416667D01*
X8238095Y-13378571D01*
X8247619Y-13359524D01*
X8257143Y-13350000D01*
X8276190Y-13340476D01*
X8533333Y-13540476D02*
X8419048Y-13540476D01*
X8476190Y-13540476D02*
X8476190Y-13340476D01*
X8457143Y-13369048D01*
X8438095Y-13388095D01*
X8419048Y-13397619D01*
X8714286Y-13340476D02*
X8619048Y-13340476D01*
X8609524Y-13435714D01*
X8619048Y-13426190D01*
X8638095Y-13416667D01*
X8685714Y-13416667D01*
X8704762Y-13426190D01*
X8714286Y-13435714D01*
X8723810Y-13454762D01*
X8723810Y-13502381D01*
X8714286Y-13521428D01*
X8704762Y-13530952D01*
X8685714Y-13540476D01*
X8638095Y-13540476D01*
X8619048Y-13530952D01*
X8609524Y-13521428D01*
X8790476Y-13340476D02*
X8923810Y-13340476D01*
X8838095Y-13540476D01*
X8990476Y-13340476D02*
X8990476Y-13378571D01*
X9066667Y-13340476D02*
X9066667Y-13378571D01*
X9361905Y-13616667D02*
X9352381Y-13607143D01*
X9333333Y-13578571D01*
X9323810Y-13559524D01*
X9314286Y-13530952D01*
X9304762Y-13483333D01*
X9304762Y-13445238D01*
X9314286Y-13397619D01*
X9323810Y-13369048D01*
X9333333Y-13350000D01*
X9352381Y-13321428D01*
X9361905Y-13311905D01*
X9428571Y-13359524D02*
X9438095Y-13350000D01*
X9457143Y-13340476D01*
X9504762Y-13340476D01*
X9523810Y-13350000D01*
X9533333Y-13359524D01*
X9542857Y-13378571D01*
X9542857Y-13397619D01*
X9533333Y-13426190D01*
X9419048Y-13540476D01*
X9542857Y-13540476D01*
X9723810Y-13340476D02*
X9628571Y-13340476D01*
X9619048Y-13435714D01*
X9628571Y-13426190D01*
X9647619Y-13416667D01*
X9695238Y-13416667D01*
X9714286Y-13426190D01*
X9723810Y-13435714D01*
X9733333Y-13454762D01*
X9733333Y-13502381D01*
X9723810Y-13521428D01*
X9714286Y-13530952D01*
X9695238Y-13540476D01*
X9647619Y-13540476D01*
X9628571Y-13530952D01*
X9619048Y-13521428D01*
X9857143Y-13340476D02*
X9876190Y-13340476D01*
X9895238Y-13350000D01*
X9904762Y-13359524D01*
X9914286Y-13378571D01*
X9923810Y-13416667D01*
X9923810Y-13464286D01*
X9914286Y-13502381D01*
X9904762Y-13521428D01*
X9895238Y-13530952D01*
X9876190Y-13540476D01*
X9857143Y-13540476D01*
X9838095Y-13530952D01*
X9828571Y-13521428D01*
X9819048Y-13502381D01*
X9809524Y-13464286D01*
X9809524Y-13416667D01*
X9819048Y-13378571D01*
X9828571Y-13359524D01*
X9838095Y-13350000D01*
X9857143Y-13340476D01*
X10161905Y-13540476D02*
X10161905Y-13340476D01*
X10247619Y-13540476D02*
X10247619Y-13435714D01*
X10238095Y-13416667D01*
X10219048Y-13407143D01*
X10190476Y-13407143D01*
X10171429Y-13416667D01*
X10161905Y-13426190D01*
X10371429Y-13540476D02*
X10352381Y-13530952D01*
X10342857Y-13521428D01*
X10333333Y-13502381D01*
X10333333Y-13445238D01*
X10342857Y-13426190D01*
X10352381Y-13416667D01*
X10371429Y-13407143D01*
X10400000Y-13407143D01*
X10419048Y-13416667D01*
X10428571Y-13426190D01*
X10438095Y-13445238D01*
X10438095Y-13502381D01*
X10428571Y-13521428D01*
X10419048Y-13530952D01*
X10400000Y-13540476D01*
X10371429Y-13540476D01*
X10552381Y-13540476D02*
X10533333Y-13530952D01*
X10523810Y-13511905D01*
X10523810Y-13340476D01*
X10704762Y-13530952D02*
X10685714Y-13540476D01*
X10647619Y-13540476D01*
X10628571Y-13530952D01*
X10619048Y-13511905D01*
X10619048Y-13435714D01*
X10628571Y-13416667D01*
X10647619Y-13407143D01*
X10685714Y-13407143D01*
X10704762Y-13416667D01*
X10714286Y-13435714D01*
X10714286Y-13454762D01*
X10619048Y-13473809D01*
X10790476Y-13530952D02*
X10809524Y-13540476D01*
X10847619Y-13540476D01*
X10866667Y-13530952D01*
X10876190Y-13511905D01*
X10876190Y-13502381D01*
X10866667Y-13483333D01*
X10847619Y-13473809D01*
X10819048Y-13473809D01*
X10800000Y-13464286D01*
X10790476Y-13445238D01*
X10790476Y-13435714D01*
X10800000Y-13416667D01*
X10819048Y-13407143D01*
X10847619Y-13407143D01*
X10866667Y-13416667D01*
X10942857Y-13616667D02*
X10952381Y-13607143D01*
X10971429Y-13578571D01*
X10980952Y-13559524D01*
X10990476Y-13530952D01*
X11000000Y-13483333D01*
X11000000Y-13445238D01*
X10990476Y-13397619D01*
X10980952Y-13369048D01*
X10971429Y-13350000D01*
X10952381Y-13321428D01*
X10942857Y-13311905D01*
D13*
X5790000Y-13714000D02*
G75*
G03*
X5790000Y-13714000I-52000J0D01*
G01*
D11*
X6152381Y-13804476D02*
X6038095Y-13804476D01*
X6095238Y-13804476D02*
X6095238Y-13604476D01*
X6076190Y-13633048D01*
X6057143Y-13652095D01*
X6038095Y-13661619D01*
X6238095Y-13785428D02*
X6247619Y-13794952D01*
X6238095Y-13804476D01*
X6228571Y-13794952D01*
X6238095Y-13785428D01*
X6238095Y-13804476D01*
X6371428Y-13604476D02*
X6390476Y-13604476D01*
X6409524Y-13614000D01*
X6419048Y-13623524D01*
X6428571Y-13642571D01*
X6438095Y-13680667D01*
X6438095Y-13728286D01*
X6428571Y-13766381D01*
X6419048Y-13785428D01*
X6409524Y-13794952D01*
X6390476Y-13804476D01*
X6371428Y-13804476D01*
X6352381Y-13794952D01*
X6342857Y-13785428D01*
X6333333Y-13766381D01*
X6323809Y-13728286D01*
X6323809Y-13680667D01*
X6333333Y-13642571D01*
X6342857Y-13623524D01*
X6352381Y-13614000D01*
X6371428Y-13604476D01*
X6609524Y-13671143D02*
X6609524Y-13804476D01*
X6561905Y-13594952D02*
X6514286Y-13737809D01*
X6638095Y-13737809D01*
X6752381Y-13604476D02*
X6771428Y-13604476D01*
X6790476Y-13614000D01*
X6800000Y-13623524D01*
X6809524Y-13642571D01*
X6819048Y-13680667D01*
X6819048Y-13728286D01*
X6809524Y-13766381D01*
X6800000Y-13785428D01*
X6790476Y-13794952D01*
X6771428Y-13804476D01*
X6752381Y-13804476D01*
X6733333Y-13794952D01*
X6723809Y-13785428D01*
X6714286Y-13766381D01*
X6704762Y-13728286D01*
X6704762Y-13680667D01*
X6714286Y-13642571D01*
X6723809Y-13623524D01*
X6733333Y-13614000D01*
X6752381Y-13604476D01*
X6904762Y-13804476D02*
X6904762Y-13671143D01*
X6904762Y-13690190D02*
X6914286Y-13680667D01*
X6933333Y-13671143D01*
X6961905Y-13671143D01*
X6980952Y-13680667D01*
X6990476Y-13699714D01*
X6990476Y-13804476D01*
X6990476Y-13699714D02*
X7000000Y-13680667D01*
X7019048Y-13671143D01*
X7047619Y-13671143D01*
X7066667Y-13680667D01*
X7076190Y-13699714D01*
X7076190Y-13804476D01*
X7171428Y-13804476D02*
X7171428Y-13671143D01*
X7171428Y-13690190D02*
X7180952Y-13680667D01*
X7200000Y-13671143D01*
X7228571Y-13671143D01*
X7247619Y-13680667D01*
X7257143Y-13699714D01*
X7257143Y-13804476D01*
X7257143Y-13699714D02*
X7266667Y-13680667D01*
X7285714Y-13671143D01*
X7314286Y-13671143D01*
X7333333Y-13680667D01*
X7342857Y-13699714D01*
X7342857Y-13804476D01*
X7733333Y-13594952D02*
X7561905Y-13852095D01*
X7990476Y-13604476D02*
X8009524Y-13604476D01*
X8028571Y-13614000D01*
X8038095Y-13623524D01*
X8047619Y-13642571D01*
X8057143Y-13680667D01*
X8057143Y-13728286D01*
X8047619Y-13766381D01*
X8038095Y-13785428D01*
X8028571Y-13794952D01*
X8009524Y-13804476D01*
X7990476Y-13804476D01*
X7971428Y-13794952D01*
X7961905Y-13785428D01*
X7952381Y-13766381D01*
X7942857Y-13728286D01*
X7942857Y-13680667D01*
X7952381Y-13642571D01*
X7961905Y-13623524D01*
X7971428Y-13614000D01*
X7990476Y-13604476D01*
X8142857Y-13785428D02*
X8152381Y-13794952D01*
X8142857Y-13804476D01*
X8133333Y-13794952D01*
X8142857Y-13785428D01*
X8142857Y-13804476D01*
X8276190Y-13604476D02*
X8295238Y-13604476D01*
X8314286Y-13614000D01*
X8323809Y-13623524D01*
X8333333Y-13642571D01*
X8342857Y-13680667D01*
X8342857Y-13728286D01*
X8333333Y-13766381D01*
X8323809Y-13785428D01*
X8314286Y-13794952D01*
X8295238Y-13804476D01*
X8276190Y-13804476D01*
X8257143Y-13794952D01*
X8247619Y-13785428D01*
X8238095Y-13766381D01*
X8228571Y-13728286D01*
X8228571Y-13680667D01*
X8238095Y-13642571D01*
X8247619Y-13623524D01*
X8257143Y-13614000D01*
X8276190Y-13604476D01*
X8514286Y-13671143D02*
X8514286Y-13804476D01*
X8466667Y-13594952D02*
X8419048Y-13737809D01*
X8542857Y-13737809D01*
X8657143Y-13604476D02*
X8676190Y-13604476D01*
X8695238Y-13614000D01*
X8704762Y-13623524D01*
X8714286Y-13642571D01*
X8723810Y-13680667D01*
X8723810Y-13728286D01*
X8714286Y-13766381D01*
X8704762Y-13785428D01*
X8695238Y-13794952D01*
X8676190Y-13804476D01*
X8657143Y-13804476D01*
X8638095Y-13794952D01*
X8628571Y-13785428D01*
X8619048Y-13766381D01*
X8609524Y-13728286D01*
X8609524Y-13680667D01*
X8619048Y-13642571D01*
X8628571Y-13623524D01*
X8638095Y-13614000D01*
X8657143Y-13604476D01*
X8819048Y-13804476D02*
X8857143Y-13804476D01*
X8876190Y-13794952D01*
X8885714Y-13785428D01*
X8904762Y-13756857D01*
X8914286Y-13718762D01*
X8914286Y-13642571D01*
X8904762Y-13623524D01*
X8895238Y-13614000D01*
X8876190Y-13604476D01*
X8838095Y-13604476D01*
X8819048Y-13614000D01*
X8809524Y-13623524D01*
X8800000Y-13642571D01*
X8800000Y-13690190D01*
X8809524Y-13709238D01*
X8819048Y-13718762D01*
X8838095Y-13728286D01*
X8876190Y-13728286D01*
X8895238Y-13718762D01*
X8904762Y-13709238D01*
X8914286Y-13690190D01*
X8990476Y-13604476D02*
X8990476Y-13642571D01*
X9066667Y-13604476D02*
X9066667Y-13642571D01*
X9361905Y-13880667D02*
X9352381Y-13871143D01*
X9333333Y-13842571D01*
X9323810Y-13823524D01*
X9314286Y-13794952D01*
X9304762Y-13747333D01*
X9304762Y-13709238D01*
X9314286Y-13661619D01*
X9323810Y-13633048D01*
X9333333Y-13614000D01*
X9352381Y-13585428D01*
X9361905Y-13575905D01*
X9419048Y-13604476D02*
X9542857Y-13604476D01*
X9476190Y-13680667D01*
X9504762Y-13680667D01*
X9523810Y-13690190D01*
X9533333Y-13699714D01*
X9542857Y-13718762D01*
X9542857Y-13766381D01*
X9533333Y-13785428D01*
X9523810Y-13794952D01*
X9504762Y-13804476D01*
X9447619Y-13804476D01*
X9428571Y-13794952D01*
X9419048Y-13785428D01*
X9657143Y-13690190D02*
X9638095Y-13680667D01*
X9628571Y-13671143D01*
X9619048Y-13652095D01*
X9619048Y-13642571D01*
X9628571Y-13623524D01*
X9638095Y-13614000D01*
X9657143Y-13604476D01*
X9695238Y-13604476D01*
X9714286Y-13614000D01*
X9723810Y-13623524D01*
X9733333Y-13642571D01*
X9733333Y-13652095D01*
X9723810Y-13671143D01*
X9714286Y-13680667D01*
X9695238Y-13690190D01*
X9657143Y-13690190D01*
X9638095Y-13699714D01*
X9628571Y-13709238D01*
X9619048Y-13728286D01*
X9619048Y-13766381D01*
X9628571Y-13785428D01*
X9638095Y-13794952D01*
X9657143Y-13804476D01*
X9695238Y-13804476D01*
X9714286Y-13794952D01*
X9723810Y-13785428D01*
X9733333Y-13766381D01*
X9733333Y-13728286D01*
X9723810Y-13709238D01*
X9714286Y-13699714D01*
X9695238Y-13690190D01*
X9971429Y-13804476D02*
X9971429Y-13604476D01*
X10057143Y-13804476D02*
X10057143Y-13699714D01*
X10047619Y-13680667D01*
X10028571Y-13671143D01*
X10000000Y-13671143D01*
X9980952Y-13680667D01*
X9971429Y-13690190D01*
X10180952Y-13804476D02*
X10161905Y-13794952D01*
X10152381Y-13785428D01*
X10142857Y-13766381D01*
X10142857Y-13709238D01*
X10152381Y-13690190D01*
X10161905Y-13680667D01*
X10180952Y-13671143D01*
X10209524Y-13671143D01*
X10228571Y-13680667D01*
X10238095Y-13690190D01*
X10247619Y-13709238D01*
X10247619Y-13766381D01*
X10238095Y-13785428D01*
X10228571Y-13794952D01*
X10209524Y-13804476D01*
X10180952Y-13804476D01*
X10361905Y-13804476D02*
X10342857Y-13794952D01*
X10333333Y-13775905D01*
X10333333Y-13604476D01*
X10514286Y-13794952D02*
X10495238Y-13804476D01*
X10457143Y-13804476D01*
X10438095Y-13794952D01*
X10428571Y-13775905D01*
X10428571Y-13699714D01*
X10438095Y-13680667D01*
X10457143Y-13671143D01*
X10495238Y-13671143D01*
X10514286Y-13680667D01*
X10523810Y-13699714D01*
X10523810Y-13718762D01*
X10428571Y-13737809D01*
X10600000Y-13794952D02*
X10619048Y-13804476D01*
X10657143Y-13804476D01*
X10676190Y-13794952D01*
X10685714Y-13775905D01*
X10685714Y-13766381D01*
X10676190Y-13747333D01*
X10657143Y-13737809D01*
X10628571Y-13737809D01*
X10609524Y-13728286D01*
X10600000Y-13709238D01*
X10600000Y-13699714D01*
X10609524Y-13680667D01*
X10628571Y-13671143D01*
X10657143Y-13671143D01*
X10676190Y-13680667D01*
X10752381Y-13880667D02*
X10761905Y-13871143D01*
X10780952Y-13842571D01*
X10790476Y-13823524D01*
X10800000Y-13794952D01*
X10809524Y-13747333D01*
X10809524Y-13709238D01*
X10800000Y-13661619D01*
X10790476Y-13633048D01*
X10780952Y-13614000D01*
X10761905Y-13585428D01*
X10752381Y-13575905D01*
D14*
X5730000Y-13918000D02*
X5730000Y-14038000D01*
X5670000Y-13978000D02*
X5790000Y-13978000D01*
D11*
X6152381Y-14068476D02*
X6038095Y-14068476D01*
X6095238Y-14068476D02*
X6095238Y-13868476D01*
X6076190Y-13897048D01*
X6057143Y-13916095D01*
X6038095Y-13925619D01*
X6238095Y-14049428D02*
X6247619Y-14058952D01*
X6238095Y-14068476D01*
X6228571Y-14058952D01*
X6238095Y-14049428D01*
X6238095Y-14068476D01*
X6323809Y-13887524D02*
X6333333Y-13878000D01*
X6352381Y-13868476D01*
X6400000Y-13868476D01*
X6419048Y-13878000D01*
X6428571Y-13887524D01*
X6438095Y-13906571D01*
X6438095Y-13925619D01*
X6428571Y-13954190D01*
X6314286Y-14068476D01*
X6438095Y-14068476D01*
X6561905Y-13868476D02*
X6580952Y-13868476D01*
X6600000Y-13878000D01*
X6609524Y-13887524D01*
X6619048Y-13906571D01*
X6628571Y-13944667D01*
X6628571Y-13992286D01*
X6619048Y-14030381D01*
X6609524Y-14049428D01*
X6600000Y-14058952D01*
X6580952Y-14068476D01*
X6561905Y-14068476D01*
X6542857Y-14058952D01*
X6533333Y-14049428D01*
X6523809Y-14030381D01*
X6514286Y-13992286D01*
X6514286Y-13944667D01*
X6523809Y-13906571D01*
X6533333Y-13887524D01*
X6542857Y-13878000D01*
X6561905Y-13868476D01*
X6752381Y-13868476D02*
X6771428Y-13868476D01*
X6790476Y-13878000D01*
X6800000Y-13887524D01*
X6809524Y-13906571D01*
X6819048Y-13944667D01*
X6819048Y-13992286D01*
X6809524Y-14030381D01*
X6800000Y-14049428D01*
X6790476Y-14058952D01*
X6771428Y-14068476D01*
X6752381Y-14068476D01*
X6733333Y-14058952D01*
X6723809Y-14049428D01*
X6714286Y-14030381D01*
X6704762Y-13992286D01*
X6704762Y-13944667D01*
X6714286Y-13906571D01*
X6723809Y-13887524D01*
X6733333Y-13878000D01*
X6752381Y-13868476D01*
X6904762Y-14068476D02*
X6904762Y-13935143D01*
X6904762Y-13954190D02*
X6914286Y-13944667D01*
X6933333Y-13935143D01*
X6961905Y-13935143D01*
X6980952Y-13944667D01*
X6990476Y-13963714D01*
X6990476Y-14068476D01*
X6990476Y-13963714D02*
X7000000Y-13944667D01*
X7019048Y-13935143D01*
X7047619Y-13935143D01*
X7066667Y-13944667D01*
X7076190Y-13963714D01*
X7076190Y-14068476D01*
X7171428Y-14068476D02*
X7171428Y-13935143D01*
X7171428Y-13954190D02*
X7180952Y-13944667D01*
X7200000Y-13935143D01*
X7228571Y-13935143D01*
X7247619Y-13944667D01*
X7257143Y-13963714D01*
X7257143Y-14068476D01*
X7257143Y-13963714D02*
X7266667Y-13944667D01*
X7285714Y-13935143D01*
X7314286Y-13935143D01*
X7333333Y-13944667D01*
X7342857Y-13963714D01*
X7342857Y-14068476D01*
X7733333Y-13858952D02*
X7561905Y-14116095D01*
X7990476Y-13868476D02*
X8009524Y-13868476D01*
X8028571Y-13878000D01*
X8038095Y-13887524D01*
X8047619Y-13906571D01*
X8057143Y-13944667D01*
X8057143Y-13992286D01*
X8047619Y-14030381D01*
X8038095Y-14049428D01*
X8028571Y-14058952D01*
X8009524Y-14068476D01*
X7990476Y-14068476D01*
X7971428Y-14058952D01*
X7961905Y-14049428D01*
X7952381Y-14030381D01*
X7942857Y-13992286D01*
X7942857Y-13944667D01*
X7952381Y-13906571D01*
X7961905Y-13887524D01*
X7971428Y-13878000D01*
X7990476Y-13868476D01*
X8142857Y-14049428D02*
X8152381Y-14058952D01*
X8142857Y-14068476D01*
X8133333Y-14058952D01*
X8142857Y-14049428D01*
X8142857Y-14068476D01*
X8276190Y-13868476D02*
X8295238Y-13868476D01*
X8314286Y-13878000D01*
X8323809Y-13887524D01*
X8333333Y-13906571D01*
X8342857Y-13944667D01*
X8342857Y-13992286D01*
X8333333Y-14030381D01*
X8323809Y-14049428D01*
X8314286Y-14058952D01*
X8295238Y-14068476D01*
X8276190Y-14068476D01*
X8257143Y-14058952D01*
X8247619Y-14049428D01*
X8238095Y-14030381D01*
X8228571Y-13992286D01*
X8228571Y-13944667D01*
X8238095Y-13906571D01*
X8247619Y-13887524D01*
X8257143Y-13878000D01*
X8276190Y-13868476D01*
X8514286Y-13935143D02*
X8514286Y-14068476D01*
X8466667Y-13858952D02*
X8419048Y-14001809D01*
X8542857Y-14001809D01*
X8600000Y-13868476D02*
X8733333Y-13868476D01*
X8647619Y-14068476D01*
X8800000Y-13887524D02*
X8809524Y-13878000D01*
X8828571Y-13868476D01*
X8876190Y-13868476D01*
X8895238Y-13878000D01*
X8904762Y-13887524D01*
X8914286Y-13906571D01*
X8914286Y-13925619D01*
X8904762Y-13954190D01*
X8790476Y-14068476D01*
X8914286Y-14068476D01*
X8990476Y-13868476D02*
X8990476Y-13906571D01*
X9066667Y-13868476D02*
X9066667Y-13906571D01*
X9361905Y-14144667D02*
X9352381Y-14135143D01*
X9333333Y-14106571D01*
X9323810Y-14087524D01*
X9314286Y-14058952D01*
X9304762Y-14011333D01*
X9304762Y-13973238D01*
X9314286Y-13925619D01*
X9323810Y-13897048D01*
X9333333Y-13878000D01*
X9352381Y-13849428D01*
X9361905Y-13839905D01*
X9523810Y-13935143D02*
X9523810Y-14068476D01*
X9476190Y-13858952D02*
X9428571Y-14001809D01*
X9552381Y-14001809D01*
X9714286Y-13868476D02*
X9676190Y-13868476D01*
X9657143Y-13878000D01*
X9647619Y-13887524D01*
X9628571Y-13916095D01*
X9619048Y-13954190D01*
X9619048Y-14030381D01*
X9628571Y-14049428D01*
X9638095Y-14058952D01*
X9657143Y-14068476D01*
X9695238Y-14068476D01*
X9714286Y-14058952D01*
X9723810Y-14049428D01*
X9733333Y-14030381D01*
X9733333Y-13982762D01*
X9723810Y-13963714D01*
X9714286Y-13954190D01*
X9695238Y-13944667D01*
X9657143Y-13944667D01*
X9638095Y-13954190D01*
X9628571Y-13963714D01*
X9619048Y-13982762D01*
X9971429Y-14068476D02*
X9971429Y-13868476D01*
X10057143Y-14068476D02*
X10057143Y-13963714D01*
X10047619Y-13944667D01*
X10028571Y-13935143D01*
X10000000Y-13935143D01*
X9980952Y-13944667D01*
X9971429Y-13954190D01*
X10180952Y-14068476D02*
X10161905Y-14058952D01*
X10152381Y-14049428D01*
X10142857Y-14030381D01*
X10142857Y-13973238D01*
X10152381Y-13954190D01*
X10161905Y-13944667D01*
X10180952Y-13935143D01*
X10209524Y-13935143D01*
X10228571Y-13944667D01*
X10238095Y-13954190D01*
X10247619Y-13973238D01*
X10247619Y-14030381D01*
X10238095Y-14049428D01*
X10228571Y-14058952D01*
X10209524Y-14068476D01*
X10180952Y-14068476D01*
X10361905Y-14068476D02*
X10342857Y-14058952D01*
X10333333Y-14039905D01*
X10333333Y-13868476D01*
X10514286Y-14058952D02*
X10495238Y-14068476D01*
X10457143Y-14068476D01*
X10438095Y-14058952D01*
X10428571Y-14039905D01*
X10428571Y-13963714D01*
X10438095Y-13944667D01*
X10457143Y-13935143D01*
X10495238Y-13935143D01*
X10514286Y-13944667D01*
X10523810Y-13963714D01*
X10523810Y-13982762D01*
X10428571Y-14001809D01*
X10600000Y-14058952D02*
X10619048Y-14068476D01*
X10657143Y-14068476D01*
X10676190Y-14058952D01*
X10685714Y-14039905D01*
X10685714Y-14030381D01*
X10676190Y-14011333D01*
X10657143Y-14001809D01*
X10628571Y-14001809D01*
X10609524Y-13992286D01*
X10600000Y-13973238D01*
X10600000Y-13963714D01*
X10609524Y-13944667D01*
X10628571Y-13935143D01*
X10657143Y-13935143D01*
X10676190Y-13944667D01*
X10752381Y-14144667D02*
X10761905Y-14135143D01*
X10780952Y-14106571D01*
X10790476Y-14087524D01*
X10800000Y-14058952D01*
X10809524Y-14011333D01*
X10809524Y-13973238D01*
X10800000Y-13925619D01*
X10790476Y-13897048D01*
X10780952Y-13878000D01*
X10761905Y-13849428D01*
X10752381Y-13839905D01*
M02*
