G04 #@! TF.GenerationSoftware,KiCad,Pcbnew,(6.0.2)*
G04 #@! TF.CreationDate,2023-08-04T12:43:31+02:00*
G04 #@! TF.ProjectId,PCB_Layout_MOSFET,5043425f-4c61-4796-9f75-745f4d4f5346,rev?*
G04 #@! TF.SameCoordinates,Original*
G04 #@! TF.FileFunction,Legend,Bot*
G04 #@! TF.FilePolarity,Positive*
%FSLAX46Y46*%
G04 Gerber Fmt 4.6, Leading zero omitted, Abs format (unit mm)*
G04 Created by KiCad (PCBNEW (6.0.2)) date 2023-08-04 12:43:31*
%MOMM*%
%LPD*%
G01*
G04 APERTURE LIST*
%ADD10C,0.150000*%
%ADD11C,0.120000*%
%ADD12R,2.400000X2.400000*%
%ADD13C,2.400000*%
%ADD14C,4.300000*%
%ADD15R,1.560000X1.560000*%
%ADD16C,1.560000*%
%ADD17C,1.700000*%
%ADD18C,1.800000*%
%ADD19C,2.000000*%
G04 APERTURE END LIST*
D10*
X147000238Y-81740476D02*
X146952619Y-81597619D01*
X146952619Y-81359523D01*
X147000238Y-81264285D01*
X147047857Y-81216666D01*
X147143095Y-81169047D01*
X147238333Y-81169047D01*
X147333571Y-81216666D01*
X147381190Y-81264285D01*
X147428809Y-81359523D01*
X147476428Y-81550000D01*
X147524047Y-81645238D01*
X147571666Y-81692857D01*
X147666904Y-81740476D01*
X147762142Y-81740476D01*
X147857380Y-81692857D01*
X147905000Y-81645238D01*
X147952619Y-81550000D01*
X147952619Y-81311904D01*
X147905000Y-81169047D01*
X147000238Y-80359523D02*
X146952619Y-80454761D01*
X146952619Y-80645238D01*
X147000238Y-80740476D01*
X147095476Y-80788095D01*
X147476428Y-80788095D01*
X147571666Y-80740476D01*
X147619285Y-80645238D01*
X147619285Y-80454761D01*
X147571666Y-80359523D01*
X147476428Y-80311904D01*
X147381190Y-80311904D01*
X147285952Y-80788095D01*
X147619285Y-79883333D02*
X146952619Y-79883333D01*
X147524047Y-79883333D02*
X147571666Y-79835714D01*
X147619285Y-79740476D01*
X147619285Y-79597619D01*
X147571666Y-79502380D01*
X147476428Y-79454761D01*
X146952619Y-79454761D01*
X147000238Y-79026190D02*
X146952619Y-78930952D01*
X146952619Y-78740476D01*
X147000238Y-78645238D01*
X147095476Y-78597619D01*
X147143095Y-78597619D01*
X147238333Y-78645238D01*
X147285952Y-78740476D01*
X147285952Y-78883333D01*
X147333571Y-78978571D01*
X147428809Y-79026190D01*
X147476428Y-79026190D01*
X147571666Y-78978571D01*
X147619285Y-78883333D01*
X147619285Y-78740476D01*
X147571666Y-78645238D01*
X146952619Y-78026190D02*
X147000238Y-78121428D01*
X147047857Y-78169047D01*
X147143095Y-78216666D01*
X147428809Y-78216666D01*
X147524047Y-78169047D01*
X147571666Y-78121428D01*
X147619285Y-78026190D01*
X147619285Y-77883333D01*
X147571666Y-77788095D01*
X147524047Y-77740476D01*
X147428809Y-77692857D01*
X147143095Y-77692857D01*
X147047857Y-77740476D01*
X147000238Y-77788095D01*
X146952619Y-77883333D01*
X146952619Y-78026190D01*
X146952619Y-77264285D02*
X147619285Y-77264285D01*
X147428809Y-77264285D02*
X147524047Y-77216666D01*
X147571666Y-77169047D01*
X147619285Y-77073809D01*
X147619285Y-76978571D01*
X147952619Y-75978571D02*
X147952619Y-75359523D01*
X147571666Y-75692857D01*
X147571666Y-75550000D01*
X147524047Y-75454761D01*
X147476428Y-75407142D01*
X147381190Y-75359523D01*
X147143095Y-75359523D01*
X147047857Y-75407142D01*
X147000238Y-75454761D01*
X146952619Y-75550000D01*
X146952619Y-75835714D01*
X147000238Y-75930952D01*
X147047857Y-75978571D01*
X146295000Y-83192857D02*
X146342619Y-83288095D01*
X146342619Y-83430952D01*
X146295000Y-83573809D01*
X146199761Y-83669047D01*
X146104523Y-83716666D01*
X145914047Y-83764285D01*
X145771190Y-83764285D01*
X145580714Y-83716666D01*
X145485476Y-83669047D01*
X145390238Y-83573809D01*
X145342619Y-83430952D01*
X145342619Y-83335714D01*
X145390238Y-83192857D01*
X145437857Y-83145238D01*
X145771190Y-83145238D01*
X145771190Y-83335714D01*
X145342619Y-82716666D02*
X146342619Y-82716666D01*
X145342619Y-82145238D01*
X146342619Y-82145238D01*
X145342619Y-81669047D02*
X146342619Y-81669047D01*
X146342619Y-81430952D01*
X146295000Y-81288095D01*
X146199761Y-81192857D01*
X146104523Y-81145238D01*
X145914047Y-81097619D01*
X145771190Y-81097619D01*
X145580714Y-81145238D01*
X145485476Y-81192857D01*
X145390238Y-81288095D01*
X145342619Y-81430952D01*
X145342619Y-81669047D01*
X146342619Y-80002380D02*
X146342619Y-79383333D01*
X145961666Y-79716666D01*
X145961666Y-79573809D01*
X145914047Y-79478571D01*
X145866428Y-79430952D01*
X145771190Y-79383333D01*
X145533095Y-79383333D01*
X145437857Y-79430952D01*
X145390238Y-79478571D01*
X145342619Y-79573809D01*
X145342619Y-79859523D01*
X145390238Y-79954761D01*
X145437857Y-80002380D01*
X146342619Y-79097619D02*
X145342619Y-78764285D01*
X146342619Y-78430952D01*
X146342619Y-78192857D02*
X146342619Y-77573809D01*
X145961666Y-77907142D01*
X145961666Y-77764285D01*
X145914047Y-77669047D01*
X145866428Y-77621428D01*
X145771190Y-77573809D01*
X145533095Y-77573809D01*
X145437857Y-77621428D01*
X145390238Y-77669047D01*
X145342619Y-77764285D01*
X145342619Y-78050000D01*
X145390238Y-78145238D01*
X145437857Y-78192857D01*
X145342619Y-76383333D02*
X146342619Y-76383333D01*
X146342619Y-76145238D01*
X146295000Y-76002380D01*
X146199761Y-75907142D01*
X146104523Y-75859523D01*
X145914047Y-75811904D01*
X145771190Y-75811904D01*
X145580714Y-75859523D01*
X145485476Y-75907142D01*
X145390238Y-76002380D01*
X145342619Y-76145238D01*
X145342619Y-76383333D01*
X145628333Y-75430952D02*
X145628333Y-74954761D01*
X145342619Y-75526190D02*
X146342619Y-75192857D01*
X145342619Y-74859523D01*
X146342619Y-74669047D02*
X146342619Y-74097619D01*
X145342619Y-74383333D02*
X146342619Y-74383333D01*
X145628333Y-73811904D02*
X145628333Y-73335714D01*
X145342619Y-73907142D02*
X146342619Y-73573809D01*
X145342619Y-73240476D01*
X73773809Y-124845000D02*
X73869047Y-124797380D01*
X74011904Y-124797380D01*
X74154761Y-124845000D01*
X74250000Y-124940238D01*
X74297619Y-125035476D01*
X74345238Y-125225952D01*
X74345238Y-125368809D01*
X74297619Y-125559285D01*
X74250000Y-125654523D01*
X74154761Y-125749761D01*
X74011904Y-125797380D01*
X73916666Y-125797380D01*
X73773809Y-125749761D01*
X73726190Y-125702142D01*
X73726190Y-125368809D01*
X73916666Y-125368809D01*
X73297619Y-125797380D02*
X73297619Y-124797380D01*
X72726190Y-125797380D01*
X72726190Y-124797380D01*
X72250000Y-125797380D02*
X72250000Y-124797380D01*
X72011904Y-124797380D01*
X71869047Y-124845000D01*
X71773809Y-124940238D01*
X71726190Y-125035476D01*
X71678571Y-125225952D01*
X71678571Y-125368809D01*
X71726190Y-125559285D01*
X71773809Y-125654523D01*
X71869047Y-125749761D01*
X72011904Y-125797380D01*
X72250000Y-125797380D01*
X70535714Y-124892619D02*
X70488095Y-124845000D01*
X70392857Y-124797380D01*
X70154761Y-124797380D01*
X70059523Y-124845000D01*
X70011904Y-124892619D01*
X69964285Y-124987857D01*
X69964285Y-125083095D01*
X70011904Y-125225952D01*
X70583333Y-125797380D01*
X69964285Y-125797380D01*
X69107142Y-125130714D02*
X69107142Y-125797380D01*
X69345238Y-124749761D02*
X69583333Y-125464047D01*
X68964285Y-125464047D01*
X68726190Y-124797380D02*
X68392857Y-125797380D01*
X68059523Y-124797380D01*
X73964285Y-126407380D02*
X73630952Y-127407380D01*
X73297619Y-126407380D01*
X72535714Y-127407380D02*
X72535714Y-126883571D01*
X72583333Y-126788333D01*
X72678571Y-126740714D01*
X72869047Y-126740714D01*
X72964285Y-126788333D01*
X72535714Y-127359761D02*
X72630952Y-127407380D01*
X72869047Y-127407380D01*
X72964285Y-127359761D01*
X73011904Y-127264523D01*
X73011904Y-127169285D01*
X72964285Y-127074047D01*
X72869047Y-127026428D01*
X72630952Y-127026428D01*
X72535714Y-126978809D01*
X71916666Y-127407380D02*
X72011904Y-127359761D01*
X72059523Y-127264523D01*
X72059523Y-126407380D01*
X71630952Y-126740714D02*
X71392857Y-127407380D01*
X71154761Y-126740714D01*
X70392857Y-127359761D02*
X70488095Y-127407380D01*
X70678571Y-127407380D01*
X70773809Y-127359761D01*
X70821428Y-127264523D01*
X70821428Y-126883571D01*
X70773809Y-126788333D01*
X70678571Y-126740714D01*
X70488095Y-126740714D01*
X70392857Y-126788333D01*
X70345238Y-126883571D01*
X70345238Y-126978809D01*
X70821428Y-127074047D01*
X69250000Y-126407380D02*
X68583333Y-126407380D01*
X69011904Y-127407380D01*
X90190476Y-100747619D02*
X90142857Y-100700000D01*
X90047619Y-100652380D01*
X89809523Y-100652380D01*
X89714285Y-100700000D01*
X89666666Y-100747619D01*
X89619047Y-100842857D01*
X89619047Y-100938095D01*
X89666666Y-101080952D01*
X90238095Y-101652380D01*
X89619047Y-101652380D01*
X88761904Y-100985714D02*
X88761904Y-101652380D01*
X89000000Y-100604761D02*
X89238095Y-101319047D01*
X88619047Y-101319047D01*
X88380952Y-100652380D02*
X88047619Y-101652380D01*
X87714285Y-100652380D01*
X89761904Y-108500000D02*
X89857142Y-108452380D01*
X90000000Y-108452380D01*
X90142857Y-108500000D01*
X90238095Y-108595238D01*
X90285714Y-108690476D01*
X90333333Y-108880952D01*
X90333333Y-109023809D01*
X90285714Y-109214285D01*
X90238095Y-109309523D01*
X90142857Y-109404761D01*
X90000000Y-109452380D01*
X89904761Y-109452380D01*
X89761904Y-109404761D01*
X89714285Y-109357142D01*
X89714285Y-109023809D01*
X89904761Y-109023809D01*
X89285714Y-109452380D02*
X89285714Y-108452380D01*
X88714285Y-109452380D01*
X88714285Y-108452380D01*
X88238095Y-109452380D02*
X88238095Y-108452380D01*
X88000000Y-108452380D01*
X87857142Y-108500000D01*
X87761904Y-108595238D01*
X87714285Y-108690476D01*
X87666666Y-108880952D01*
X87666666Y-109023809D01*
X87714285Y-109214285D01*
X87761904Y-109309523D01*
X87857142Y-109404761D01*
X88000000Y-109452380D01*
X88238095Y-109452380D01*
X61205000Y-90323809D02*
X61252619Y-90419047D01*
X61252619Y-90561904D01*
X61205000Y-90704761D01*
X61109761Y-90800000D01*
X61014523Y-90847619D01*
X60824047Y-90895238D01*
X60681190Y-90895238D01*
X60490714Y-90847619D01*
X60395476Y-90800000D01*
X60300238Y-90704761D01*
X60252619Y-90561904D01*
X60252619Y-90466666D01*
X60300238Y-90323809D01*
X60347857Y-90276190D01*
X60681190Y-90276190D01*
X60681190Y-90466666D01*
X60252619Y-89847619D02*
X61252619Y-89847619D01*
X60252619Y-89276190D01*
X61252619Y-89276190D01*
X60252619Y-88800000D02*
X61252619Y-88800000D01*
X61252619Y-88561904D01*
X61205000Y-88419047D01*
X61109761Y-88323809D01*
X61014523Y-88276190D01*
X60824047Y-88228571D01*
X60681190Y-88228571D01*
X60490714Y-88276190D01*
X60395476Y-88323809D01*
X60300238Y-88419047D01*
X60252619Y-88561904D01*
X60252619Y-88800000D01*
X61157380Y-87085714D02*
X61205000Y-87038095D01*
X61252619Y-86942857D01*
X61252619Y-86704761D01*
X61205000Y-86609523D01*
X61157380Y-86561904D01*
X61062142Y-86514285D01*
X60966904Y-86514285D01*
X60824047Y-86561904D01*
X60252619Y-87133333D01*
X60252619Y-86514285D01*
X60919285Y-85657142D02*
X60252619Y-85657142D01*
X61300238Y-85895238D02*
X60585952Y-86133333D01*
X60585952Y-85514285D01*
X61252619Y-85276190D02*
X60252619Y-84942857D01*
X61252619Y-84609523D01*
X59642619Y-90514285D02*
X58642619Y-90180952D01*
X59642619Y-89847619D01*
X58642619Y-89085714D02*
X59166428Y-89085714D01*
X59261666Y-89133333D01*
X59309285Y-89228571D01*
X59309285Y-89419047D01*
X59261666Y-89514285D01*
X58690238Y-89085714D02*
X58642619Y-89180952D01*
X58642619Y-89419047D01*
X58690238Y-89514285D01*
X58785476Y-89561904D01*
X58880714Y-89561904D01*
X58975952Y-89514285D01*
X59023571Y-89419047D01*
X59023571Y-89180952D01*
X59071190Y-89085714D01*
X58642619Y-88466666D02*
X58690238Y-88561904D01*
X58785476Y-88609523D01*
X59642619Y-88609523D01*
X59309285Y-88180952D02*
X58642619Y-87942857D01*
X59309285Y-87704761D01*
X58690238Y-86942857D02*
X58642619Y-87038095D01*
X58642619Y-87228571D01*
X58690238Y-87323809D01*
X58785476Y-87371428D01*
X59166428Y-87371428D01*
X59261666Y-87323809D01*
X59309285Y-87228571D01*
X59309285Y-87038095D01*
X59261666Y-86942857D01*
X59166428Y-86895238D01*
X59071190Y-86895238D01*
X58975952Y-87371428D01*
X59642619Y-85800000D02*
X59642619Y-85180952D01*
X59261666Y-85514285D01*
X59261666Y-85371428D01*
X59214047Y-85276190D01*
X59166428Y-85228571D01*
X59071190Y-85180952D01*
X58833095Y-85180952D01*
X58737857Y-85228571D01*
X58690238Y-85276190D01*
X58642619Y-85371428D01*
X58642619Y-85657142D01*
X58690238Y-85752380D01*
X58737857Y-85800000D01*
X93202380Y-64997380D02*
X93202380Y-63997380D01*
X92964285Y-63997380D01*
X92821428Y-64045000D01*
X92726190Y-64140238D01*
X92678571Y-64235476D01*
X92630952Y-64425952D01*
X92630952Y-64568809D01*
X92678571Y-64759285D01*
X92726190Y-64854523D01*
X92821428Y-64949761D01*
X92964285Y-64997380D01*
X93202380Y-64997380D01*
X92202380Y-64997380D02*
X92202380Y-64330714D01*
X92202380Y-63997380D02*
X92250000Y-64045000D01*
X92202380Y-64092619D01*
X92154761Y-64045000D01*
X92202380Y-63997380D01*
X92202380Y-64092619D01*
X91773809Y-64949761D02*
X91678571Y-64997380D01*
X91488095Y-64997380D01*
X91392857Y-64949761D01*
X91345238Y-64854523D01*
X91345238Y-64806904D01*
X91392857Y-64711666D01*
X91488095Y-64664047D01*
X91630952Y-64664047D01*
X91726190Y-64616428D01*
X91773809Y-64521190D01*
X91773809Y-64473571D01*
X91726190Y-64378333D01*
X91630952Y-64330714D01*
X91488095Y-64330714D01*
X91392857Y-64378333D01*
X90916666Y-64330714D02*
X90916666Y-65330714D01*
X90916666Y-64378333D02*
X90821428Y-64330714D01*
X90630952Y-64330714D01*
X90535714Y-64378333D01*
X90488095Y-64425952D01*
X90440476Y-64521190D01*
X90440476Y-64806904D01*
X90488095Y-64902142D01*
X90535714Y-64949761D01*
X90630952Y-64997380D01*
X90821428Y-64997380D01*
X90916666Y-64949761D01*
X89869047Y-64997380D02*
X89964285Y-64949761D01*
X90011904Y-64854523D01*
X90011904Y-63997380D01*
X89059523Y-64997380D02*
X89059523Y-64473571D01*
X89107142Y-64378333D01*
X89202380Y-64330714D01*
X89392857Y-64330714D01*
X89488095Y-64378333D01*
X89059523Y-64949761D02*
X89154761Y-64997380D01*
X89392857Y-64997380D01*
X89488095Y-64949761D01*
X89535714Y-64854523D01*
X89535714Y-64759285D01*
X89488095Y-64664047D01*
X89392857Y-64616428D01*
X89154761Y-64616428D01*
X89059523Y-64568809D01*
X88678571Y-64330714D02*
X88440476Y-64997380D01*
X88202380Y-64330714D02*
X88440476Y-64997380D01*
X88535714Y-65235476D01*
X88583333Y-65283095D01*
X88678571Y-65330714D01*
X97011904Y-66559761D02*
X96869047Y-66607380D01*
X96630952Y-66607380D01*
X96535714Y-66559761D01*
X96488095Y-66512142D01*
X96440476Y-66416904D01*
X96440476Y-66321666D01*
X96488095Y-66226428D01*
X96535714Y-66178809D01*
X96630952Y-66131190D01*
X96821428Y-66083571D01*
X96916666Y-66035952D01*
X96964285Y-65988333D01*
X97011904Y-65893095D01*
X97011904Y-65797857D01*
X96964285Y-65702619D01*
X96916666Y-65655000D01*
X96821428Y-65607380D01*
X96583333Y-65607380D01*
X96440476Y-65655000D01*
X96011904Y-66607380D02*
X96011904Y-65607380D01*
X95773809Y-65607380D01*
X95630952Y-65655000D01*
X95535714Y-65750238D01*
X95488095Y-65845476D01*
X95440476Y-66035952D01*
X95440476Y-66178809D01*
X95488095Y-66369285D01*
X95535714Y-66464523D01*
X95630952Y-66559761D01*
X95773809Y-66607380D01*
X96011904Y-66607380D01*
X95059523Y-66321666D02*
X94583333Y-66321666D01*
X95154761Y-66607380D02*
X94821428Y-65607380D01*
X94488095Y-66607380D01*
X93440476Y-66559761D02*
X93297619Y-66607380D01*
X93059523Y-66607380D01*
X92964285Y-66559761D01*
X92916666Y-66512142D01*
X92869047Y-66416904D01*
X92869047Y-66321666D01*
X92916666Y-66226428D01*
X92964285Y-66178809D01*
X93059523Y-66131190D01*
X93250000Y-66083571D01*
X93345238Y-66035952D01*
X93392857Y-65988333D01*
X93440476Y-65893095D01*
X93440476Y-65797857D01*
X93392857Y-65702619D01*
X93345238Y-65655000D01*
X93250000Y-65607380D01*
X93011904Y-65607380D01*
X92869047Y-65655000D01*
X91869047Y-66512142D02*
X91916666Y-66559761D01*
X92059523Y-66607380D01*
X92154761Y-66607380D01*
X92297619Y-66559761D01*
X92392857Y-66464523D01*
X92440476Y-66369285D01*
X92488095Y-66178809D01*
X92488095Y-66035952D01*
X92440476Y-65845476D01*
X92392857Y-65750238D01*
X92297619Y-65655000D01*
X92154761Y-65607380D01*
X92059523Y-65607380D01*
X91916666Y-65655000D01*
X91869047Y-65702619D01*
X91440476Y-66607380D02*
X91440476Y-65607380D01*
X90869047Y-66607380D02*
X91297619Y-66035952D01*
X90869047Y-65607380D02*
X91440476Y-66178809D01*
X89154761Y-65655000D02*
X89250000Y-65607380D01*
X89392857Y-65607380D01*
X89535714Y-65655000D01*
X89630952Y-65750238D01*
X89678571Y-65845476D01*
X89726190Y-66035952D01*
X89726190Y-66178809D01*
X89678571Y-66369285D01*
X89630952Y-66464523D01*
X89535714Y-66559761D01*
X89392857Y-66607380D01*
X89297619Y-66607380D01*
X89154761Y-66559761D01*
X89107142Y-66512142D01*
X89107142Y-66178809D01*
X89297619Y-66178809D01*
X88678571Y-66607380D02*
X88678571Y-65607380D01*
X88107142Y-66607380D01*
X88107142Y-65607380D01*
X87630952Y-66607380D02*
X87630952Y-65607380D01*
X87392857Y-65607380D01*
X87250000Y-65655000D01*
X87154761Y-65750238D01*
X87107142Y-65845476D01*
X87059523Y-66035952D01*
X87059523Y-66178809D01*
X87107142Y-66369285D01*
X87154761Y-66464523D01*
X87250000Y-66559761D01*
X87392857Y-66607380D01*
X87630952Y-66607380D01*
X85392857Y-65607380D02*
X85869047Y-65607380D01*
X85916666Y-66083571D01*
X85869047Y-66035952D01*
X85773809Y-65988333D01*
X85535714Y-65988333D01*
X85440476Y-66035952D01*
X85392857Y-66083571D01*
X85345238Y-66178809D01*
X85345238Y-66416904D01*
X85392857Y-66512142D01*
X85440476Y-66559761D01*
X85535714Y-66607380D01*
X85773809Y-66607380D01*
X85869047Y-66559761D01*
X85916666Y-66512142D01*
X85059523Y-65607380D02*
X84726190Y-66607380D01*
X84392857Y-65607380D01*
X125340476Y-65049761D02*
X125197619Y-65097380D01*
X124959523Y-65097380D01*
X124864285Y-65049761D01*
X124816666Y-65002142D01*
X124769047Y-64906904D01*
X124769047Y-64811666D01*
X124816666Y-64716428D01*
X124864285Y-64668809D01*
X124959523Y-64621190D01*
X125150000Y-64573571D01*
X125245238Y-64525952D01*
X125292857Y-64478333D01*
X125340476Y-64383095D01*
X125340476Y-64287857D01*
X125292857Y-64192619D01*
X125245238Y-64145000D01*
X125150000Y-64097380D01*
X124911904Y-64097380D01*
X124769047Y-64145000D01*
X123959523Y-65049761D02*
X124054761Y-65097380D01*
X124245238Y-65097380D01*
X124340476Y-65049761D01*
X124388095Y-64954523D01*
X124388095Y-64573571D01*
X124340476Y-64478333D01*
X124245238Y-64430714D01*
X124054761Y-64430714D01*
X123959523Y-64478333D01*
X123911904Y-64573571D01*
X123911904Y-64668809D01*
X124388095Y-64764047D01*
X123483333Y-64430714D02*
X123483333Y-65097380D01*
X123483333Y-64525952D02*
X123435714Y-64478333D01*
X123340476Y-64430714D01*
X123197619Y-64430714D01*
X123102380Y-64478333D01*
X123054761Y-64573571D01*
X123054761Y-65097380D01*
X122626190Y-65049761D02*
X122530952Y-65097380D01*
X122340476Y-65097380D01*
X122245238Y-65049761D01*
X122197619Y-64954523D01*
X122197619Y-64906904D01*
X122245238Y-64811666D01*
X122340476Y-64764047D01*
X122483333Y-64764047D01*
X122578571Y-64716428D01*
X122626190Y-64621190D01*
X122626190Y-64573571D01*
X122578571Y-64478333D01*
X122483333Y-64430714D01*
X122340476Y-64430714D01*
X122245238Y-64478333D01*
X121626190Y-65097380D02*
X121721428Y-65049761D01*
X121769047Y-65002142D01*
X121816666Y-64906904D01*
X121816666Y-64621190D01*
X121769047Y-64525952D01*
X121721428Y-64478333D01*
X121626190Y-64430714D01*
X121483333Y-64430714D01*
X121388095Y-64478333D01*
X121340476Y-64525952D01*
X121292857Y-64621190D01*
X121292857Y-64906904D01*
X121340476Y-65002142D01*
X121388095Y-65049761D01*
X121483333Y-65097380D01*
X121626190Y-65097380D01*
X120864285Y-65097380D02*
X120864285Y-64430714D01*
X120864285Y-64621190D02*
X120816666Y-64525952D01*
X120769047Y-64478333D01*
X120673809Y-64430714D01*
X120578571Y-64430714D01*
X118959523Y-65097380D02*
X119530952Y-65097380D01*
X119245238Y-65097380D02*
X119245238Y-64097380D01*
X119340476Y-64240238D01*
X119435714Y-64335476D01*
X119530952Y-64383095D01*
X126792857Y-65755000D02*
X126888095Y-65707380D01*
X127030952Y-65707380D01*
X127173809Y-65755000D01*
X127269047Y-65850238D01*
X127316666Y-65945476D01*
X127364285Y-66135952D01*
X127364285Y-66278809D01*
X127316666Y-66469285D01*
X127269047Y-66564523D01*
X127173809Y-66659761D01*
X127030952Y-66707380D01*
X126935714Y-66707380D01*
X126792857Y-66659761D01*
X126745238Y-66612142D01*
X126745238Y-66278809D01*
X126935714Y-66278809D01*
X126316666Y-66707380D02*
X126316666Y-65707380D01*
X125745238Y-66707380D01*
X125745238Y-65707380D01*
X125269047Y-66707380D02*
X125269047Y-65707380D01*
X125030952Y-65707380D01*
X124888095Y-65755000D01*
X124792857Y-65850238D01*
X124745238Y-65945476D01*
X124697619Y-66135952D01*
X124697619Y-66278809D01*
X124745238Y-66469285D01*
X124792857Y-66564523D01*
X124888095Y-66659761D01*
X125030952Y-66707380D01*
X125269047Y-66707380D01*
X123602380Y-65707380D02*
X122983333Y-65707380D01*
X123316666Y-66088333D01*
X123173809Y-66088333D01*
X123078571Y-66135952D01*
X123030952Y-66183571D01*
X122983333Y-66278809D01*
X122983333Y-66516904D01*
X123030952Y-66612142D01*
X123078571Y-66659761D01*
X123173809Y-66707380D01*
X123459523Y-66707380D01*
X123554761Y-66659761D01*
X123602380Y-66612142D01*
X122697619Y-65707380D02*
X122364285Y-66707380D01*
X122030952Y-65707380D01*
X121792857Y-65707380D02*
X121173809Y-65707380D01*
X121507142Y-66088333D01*
X121364285Y-66088333D01*
X121269047Y-66135952D01*
X121221428Y-66183571D01*
X121173809Y-66278809D01*
X121173809Y-66516904D01*
X121221428Y-66612142D01*
X121269047Y-66659761D01*
X121364285Y-66707380D01*
X121650000Y-66707380D01*
X121745238Y-66659761D01*
X121792857Y-66612142D01*
X119983333Y-66707380D02*
X119983333Y-65707380D01*
X119745238Y-65707380D01*
X119602380Y-65755000D01*
X119507142Y-65850238D01*
X119459523Y-65945476D01*
X119411904Y-66135952D01*
X119411904Y-66278809D01*
X119459523Y-66469285D01*
X119507142Y-66564523D01*
X119602380Y-66659761D01*
X119745238Y-66707380D01*
X119983333Y-66707380D01*
X119030952Y-66421666D02*
X118554761Y-66421666D01*
X119126190Y-66707380D02*
X118792857Y-65707380D01*
X118459523Y-66707380D01*
X118269047Y-65707380D02*
X117697619Y-65707380D01*
X117983333Y-66707380D02*
X117983333Y-65707380D01*
X117411904Y-66421666D02*
X116935714Y-66421666D01*
X117507142Y-66707380D02*
X117173809Y-65707380D01*
X116840476Y-66707380D01*
X80933333Y-65097380D02*
X80933333Y-64097380D01*
X80552380Y-64097380D01*
X80457142Y-64145000D01*
X80409523Y-64192619D01*
X80361904Y-64287857D01*
X80361904Y-64430714D01*
X80409523Y-64525952D01*
X80457142Y-64573571D01*
X80552380Y-64621190D01*
X80933333Y-64621190D01*
X79504761Y-64430714D02*
X79504761Y-65097380D01*
X79933333Y-64430714D02*
X79933333Y-64954523D01*
X79885714Y-65049761D01*
X79790476Y-65097380D01*
X79647619Y-65097380D01*
X79552380Y-65049761D01*
X79504761Y-65002142D01*
X79028571Y-65097380D02*
X79028571Y-64430714D01*
X79028571Y-64525952D02*
X78980952Y-64478333D01*
X78885714Y-64430714D01*
X78742857Y-64430714D01*
X78647619Y-64478333D01*
X78600000Y-64573571D01*
X78600000Y-65097380D01*
X78600000Y-64573571D02*
X78552380Y-64478333D01*
X78457142Y-64430714D01*
X78314285Y-64430714D01*
X78219047Y-64478333D01*
X78171428Y-64573571D01*
X78171428Y-65097380D01*
X77695238Y-64430714D02*
X77695238Y-65430714D01*
X77695238Y-64478333D02*
X77600000Y-64430714D01*
X77409523Y-64430714D01*
X77314285Y-64478333D01*
X77266666Y-64525952D01*
X77219047Y-64621190D01*
X77219047Y-64906904D01*
X77266666Y-65002142D01*
X77314285Y-65049761D01*
X77409523Y-65097380D01*
X77600000Y-65097380D01*
X77695238Y-65049761D01*
X82195238Y-65802619D02*
X82147619Y-65755000D01*
X82052380Y-65707380D01*
X81814285Y-65707380D01*
X81719047Y-65755000D01*
X81671428Y-65802619D01*
X81623809Y-65897857D01*
X81623809Y-65993095D01*
X81671428Y-66135952D01*
X82242857Y-66707380D01*
X81623809Y-66707380D01*
X80766666Y-66040714D02*
X80766666Y-66707380D01*
X81004761Y-65659761D02*
X81242857Y-66374047D01*
X80623809Y-66374047D01*
X80385714Y-65707380D02*
X80052380Y-66707380D01*
X79719047Y-65707380D01*
X78100000Y-65755000D02*
X78195238Y-65707380D01*
X78338095Y-65707380D01*
X78480952Y-65755000D01*
X78576190Y-65850238D01*
X78623809Y-65945476D01*
X78671428Y-66135952D01*
X78671428Y-66278809D01*
X78623809Y-66469285D01*
X78576190Y-66564523D01*
X78480952Y-66659761D01*
X78338095Y-66707380D01*
X78242857Y-66707380D01*
X78100000Y-66659761D01*
X78052380Y-66612142D01*
X78052380Y-66278809D01*
X78242857Y-66278809D01*
X77623809Y-66707380D02*
X77623809Y-65707380D01*
X77052380Y-66707380D01*
X77052380Y-65707380D01*
X76576190Y-66707380D02*
X76576190Y-65707380D01*
X76338095Y-65707380D01*
X76195238Y-65755000D01*
X76100000Y-65850238D01*
X76052380Y-65945476D01*
X76004761Y-66135952D01*
X76004761Y-66278809D01*
X76052380Y-66469285D01*
X76100000Y-66564523D01*
X76195238Y-66659761D01*
X76338095Y-66707380D01*
X76576190Y-66707380D01*
X147000238Y-104690476D02*
X146952619Y-104547619D01*
X146952619Y-104309523D01*
X147000238Y-104214285D01*
X147047857Y-104166666D01*
X147143095Y-104119047D01*
X147238333Y-104119047D01*
X147333571Y-104166666D01*
X147381190Y-104214285D01*
X147428809Y-104309523D01*
X147476428Y-104500000D01*
X147524047Y-104595238D01*
X147571666Y-104642857D01*
X147666904Y-104690476D01*
X147762142Y-104690476D01*
X147857380Y-104642857D01*
X147905000Y-104595238D01*
X147952619Y-104500000D01*
X147952619Y-104261904D01*
X147905000Y-104119047D01*
X147000238Y-103309523D02*
X146952619Y-103404761D01*
X146952619Y-103595238D01*
X147000238Y-103690476D01*
X147095476Y-103738095D01*
X147476428Y-103738095D01*
X147571666Y-103690476D01*
X147619285Y-103595238D01*
X147619285Y-103404761D01*
X147571666Y-103309523D01*
X147476428Y-103261904D01*
X147381190Y-103261904D01*
X147285952Y-103738095D01*
X147619285Y-102833333D02*
X146952619Y-102833333D01*
X147524047Y-102833333D02*
X147571666Y-102785714D01*
X147619285Y-102690476D01*
X147619285Y-102547619D01*
X147571666Y-102452380D01*
X147476428Y-102404761D01*
X146952619Y-102404761D01*
X147000238Y-101976190D02*
X146952619Y-101880952D01*
X146952619Y-101690476D01*
X147000238Y-101595238D01*
X147095476Y-101547619D01*
X147143095Y-101547619D01*
X147238333Y-101595238D01*
X147285952Y-101690476D01*
X147285952Y-101833333D01*
X147333571Y-101928571D01*
X147428809Y-101976190D01*
X147476428Y-101976190D01*
X147571666Y-101928571D01*
X147619285Y-101833333D01*
X147619285Y-101690476D01*
X147571666Y-101595238D01*
X146952619Y-100976190D02*
X147000238Y-101071428D01*
X147047857Y-101119047D01*
X147143095Y-101166666D01*
X147428809Y-101166666D01*
X147524047Y-101119047D01*
X147571666Y-101071428D01*
X147619285Y-100976190D01*
X147619285Y-100833333D01*
X147571666Y-100738095D01*
X147524047Y-100690476D01*
X147428809Y-100642857D01*
X147143095Y-100642857D01*
X147047857Y-100690476D01*
X147000238Y-100738095D01*
X146952619Y-100833333D01*
X146952619Y-100976190D01*
X146952619Y-100214285D02*
X147619285Y-100214285D01*
X147428809Y-100214285D02*
X147524047Y-100166666D01*
X147571666Y-100119047D01*
X147619285Y-100023809D01*
X147619285Y-99928571D01*
X147952619Y-98357142D02*
X147952619Y-98833333D01*
X147476428Y-98880952D01*
X147524047Y-98833333D01*
X147571666Y-98738095D01*
X147571666Y-98500000D01*
X147524047Y-98404761D01*
X147476428Y-98357142D01*
X147381190Y-98309523D01*
X147143095Y-98309523D01*
X147047857Y-98357142D01*
X147000238Y-98404761D01*
X146952619Y-98500000D01*
X146952619Y-98738095D01*
X147000238Y-98833333D01*
X147047857Y-98880952D01*
X146295000Y-106142857D02*
X146342619Y-106238095D01*
X146342619Y-106380952D01*
X146295000Y-106523809D01*
X146199761Y-106619047D01*
X146104523Y-106666666D01*
X145914047Y-106714285D01*
X145771190Y-106714285D01*
X145580714Y-106666666D01*
X145485476Y-106619047D01*
X145390238Y-106523809D01*
X145342619Y-106380952D01*
X145342619Y-106285714D01*
X145390238Y-106142857D01*
X145437857Y-106095238D01*
X145771190Y-106095238D01*
X145771190Y-106285714D01*
X145342619Y-105666666D02*
X146342619Y-105666666D01*
X145342619Y-105095238D01*
X146342619Y-105095238D01*
X145342619Y-104619047D02*
X146342619Y-104619047D01*
X146342619Y-104380952D01*
X146295000Y-104238095D01*
X146199761Y-104142857D01*
X146104523Y-104095238D01*
X145914047Y-104047619D01*
X145771190Y-104047619D01*
X145580714Y-104095238D01*
X145485476Y-104142857D01*
X145390238Y-104238095D01*
X145342619Y-104380952D01*
X145342619Y-104619047D01*
X146342619Y-102952380D02*
X146342619Y-102333333D01*
X145961666Y-102666666D01*
X145961666Y-102523809D01*
X145914047Y-102428571D01*
X145866428Y-102380952D01*
X145771190Y-102333333D01*
X145533095Y-102333333D01*
X145437857Y-102380952D01*
X145390238Y-102428571D01*
X145342619Y-102523809D01*
X145342619Y-102809523D01*
X145390238Y-102904761D01*
X145437857Y-102952380D01*
X146342619Y-102047619D02*
X145342619Y-101714285D01*
X146342619Y-101380952D01*
X146342619Y-101142857D02*
X146342619Y-100523809D01*
X145961666Y-100857142D01*
X145961666Y-100714285D01*
X145914047Y-100619047D01*
X145866428Y-100571428D01*
X145771190Y-100523809D01*
X145533095Y-100523809D01*
X145437857Y-100571428D01*
X145390238Y-100619047D01*
X145342619Y-100714285D01*
X145342619Y-101000000D01*
X145390238Y-101095238D01*
X145437857Y-101142857D01*
X145342619Y-99333333D02*
X146342619Y-99333333D01*
X146342619Y-99095238D01*
X146295000Y-98952380D01*
X146199761Y-98857142D01*
X146104523Y-98809523D01*
X145914047Y-98761904D01*
X145771190Y-98761904D01*
X145580714Y-98809523D01*
X145485476Y-98857142D01*
X145390238Y-98952380D01*
X145342619Y-99095238D01*
X145342619Y-99333333D01*
X145628333Y-98380952D02*
X145628333Y-97904761D01*
X145342619Y-98476190D02*
X146342619Y-98142857D01*
X145342619Y-97809523D01*
X146342619Y-97619047D02*
X146342619Y-97047619D01*
X145342619Y-97333333D02*
X146342619Y-97333333D01*
X145628333Y-96761904D02*
X145628333Y-96285714D01*
X145342619Y-96857142D02*
X146342619Y-96523809D01*
X145342619Y-96190476D01*
X136790476Y-125799761D02*
X136647619Y-125847380D01*
X136409523Y-125847380D01*
X136314285Y-125799761D01*
X136266666Y-125752142D01*
X136219047Y-125656904D01*
X136219047Y-125561666D01*
X136266666Y-125466428D01*
X136314285Y-125418809D01*
X136409523Y-125371190D01*
X136600000Y-125323571D01*
X136695238Y-125275952D01*
X136742857Y-125228333D01*
X136790476Y-125133095D01*
X136790476Y-125037857D01*
X136742857Y-124942619D01*
X136695238Y-124895000D01*
X136600000Y-124847380D01*
X136361904Y-124847380D01*
X136219047Y-124895000D01*
X135409523Y-125799761D02*
X135504761Y-125847380D01*
X135695238Y-125847380D01*
X135790476Y-125799761D01*
X135838095Y-125704523D01*
X135838095Y-125323571D01*
X135790476Y-125228333D01*
X135695238Y-125180714D01*
X135504761Y-125180714D01*
X135409523Y-125228333D01*
X135361904Y-125323571D01*
X135361904Y-125418809D01*
X135838095Y-125514047D01*
X134933333Y-125180714D02*
X134933333Y-125847380D01*
X134933333Y-125275952D02*
X134885714Y-125228333D01*
X134790476Y-125180714D01*
X134647619Y-125180714D01*
X134552380Y-125228333D01*
X134504761Y-125323571D01*
X134504761Y-125847380D01*
X134076190Y-125799761D02*
X133980952Y-125847380D01*
X133790476Y-125847380D01*
X133695238Y-125799761D01*
X133647619Y-125704523D01*
X133647619Y-125656904D01*
X133695238Y-125561666D01*
X133790476Y-125514047D01*
X133933333Y-125514047D01*
X134028571Y-125466428D01*
X134076190Y-125371190D01*
X134076190Y-125323571D01*
X134028571Y-125228333D01*
X133933333Y-125180714D01*
X133790476Y-125180714D01*
X133695238Y-125228333D01*
X133076190Y-125847380D02*
X133171428Y-125799761D01*
X133219047Y-125752142D01*
X133266666Y-125656904D01*
X133266666Y-125371190D01*
X133219047Y-125275952D01*
X133171428Y-125228333D01*
X133076190Y-125180714D01*
X132933333Y-125180714D01*
X132838095Y-125228333D01*
X132790476Y-125275952D01*
X132742857Y-125371190D01*
X132742857Y-125656904D01*
X132790476Y-125752142D01*
X132838095Y-125799761D01*
X132933333Y-125847380D01*
X133076190Y-125847380D01*
X132314285Y-125847380D02*
X132314285Y-125180714D01*
X132314285Y-125371190D02*
X132266666Y-125275952D01*
X132219047Y-125228333D01*
X132123809Y-125180714D01*
X132028571Y-125180714D01*
X131028571Y-124847380D02*
X130361904Y-124847380D01*
X130790476Y-125847380D01*
X138766666Y-127457380D02*
X138766666Y-126457380D01*
X138528571Y-126457380D01*
X138385714Y-126505000D01*
X138290476Y-126600238D01*
X138242857Y-126695476D01*
X138195238Y-126885952D01*
X138195238Y-127028809D01*
X138242857Y-127219285D01*
X138290476Y-127314523D01*
X138385714Y-127409761D01*
X138528571Y-127457380D01*
X138766666Y-127457380D01*
X137814285Y-127171666D02*
X137338095Y-127171666D01*
X137909523Y-127457380D02*
X137576190Y-126457380D01*
X137242857Y-127457380D01*
X137052380Y-126457380D02*
X136480952Y-126457380D01*
X136766666Y-127457380D02*
X136766666Y-126457380D01*
X136195238Y-127171666D02*
X135719047Y-127171666D01*
X136290476Y-127457380D02*
X135957142Y-126457380D01*
X135623809Y-127457380D01*
X134623809Y-126457380D02*
X134004761Y-126457380D01*
X134338095Y-126838333D01*
X134195238Y-126838333D01*
X134100000Y-126885952D01*
X134052380Y-126933571D01*
X134004761Y-127028809D01*
X134004761Y-127266904D01*
X134052380Y-127362142D01*
X134100000Y-127409761D01*
X134195238Y-127457380D01*
X134480952Y-127457380D01*
X134576190Y-127409761D01*
X134623809Y-127362142D01*
X133719047Y-126457380D02*
X133385714Y-127457380D01*
X133052380Y-126457380D01*
X132814285Y-126457380D02*
X132195238Y-126457380D01*
X132528571Y-126838333D01*
X132385714Y-126838333D01*
X132290476Y-126885952D01*
X132242857Y-126933571D01*
X132195238Y-127028809D01*
X132195238Y-127266904D01*
X132242857Y-127362142D01*
X132290476Y-127409761D01*
X132385714Y-127457380D01*
X132671428Y-127457380D01*
X132766666Y-127409761D01*
X132814285Y-127362142D01*
X130480952Y-126505000D02*
X130576190Y-126457380D01*
X130719047Y-126457380D01*
X130861904Y-126505000D01*
X130957142Y-126600238D01*
X131004761Y-126695476D01*
X131052380Y-126885952D01*
X131052380Y-127028809D01*
X131004761Y-127219285D01*
X130957142Y-127314523D01*
X130861904Y-127409761D01*
X130719047Y-127457380D01*
X130623809Y-127457380D01*
X130480952Y-127409761D01*
X130433333Y-127362142D01*
X130433333Y-127028809D01*
X130623809Y-127028809D01*
X130004761Y-127457380D02*
X130004761Y-126457380D01*
X129433333Y-127457380D01*
X129433333Y-126457380D01*
X128957142Y-127457380D02*
X128957142Y-126457380D01*
X128719047Y-126457380D01*
X128576190Y-126505000D01*
X128480952Y-126600238D01*
X128433333Y-126695476D01*
X128385714Y-126885952D01*
X128385714Y-127028809D01*
X128433333Y-127219285D01*
X128480952Y-127314523D01*
X128576190Y-127409761D01*
X128719047Y-127457380D01*
X128957142Y-127457380D01*
X147000238Y-93240476D02*
X146952619Y-93097619D01*
X146952619Y-92859523D01*
X147000238Y-92764285D01*
X147047857Y-92716666D01*
X147143095Y-92669047D01*
X147238333Y-92669047D01*
X147333571Y-92716666D01*
X147381190Y-92764285D01*
X147428809Y-92859523D01*
X147476428Y-93050000D01*
X147524047Y-93145238D01*
X147571666Y-93192857D01*
X147666904Y-93240476D01*
X147762142Y-93240476D01*
X147857380Y-93192857D01*
X147905000Y-93145238D01*
X147952619Y-93050000D01*
X147952619Y-92811904D01*
X147905000Y-92669047D01*
X147000238Y-91859523D02*
X146952619Y-91954761D01*
X146952619Y-92145238D01*
X147000238Y-92240476D01*
X147095476Y-92288095D01*
X147476428Y-92288095D01*
X147571666Y-92240476D01*
X147619285Y-92145238D01*
X147619285Y-91954761D01*
X147571666Y-91859523D01*
X147476428Y-91811904D01*
X147381190Y-91811904D01*
X147285952Y-92288095D01*
X147619285Y-91383333D02*
X146952619Y-91383333D01*
X147524047Y-91383333D02*
X147571666Y-91335714D01*
X147619285Y-91240476D01*
X147619285Y-91097619D01*
X147571666Y-91002380D01*
X147476428Y-90954761D01*
X146952619Y-90954761D01*
X147000238Y-90526190D02*
X146952619Y-90430952D01*
X146952619Y-90240476D01*
X147000238Y-90145238D01*
X147095476Y-90097619D01*
X147143095Y-90097619D01*
X147238333Y-90145238D01*
X147285952Y-90240476D01*
X147285952Y-90383333D01*
X147333571Y-90478571D01*
X147428809Y-90526190D01*
X147476428Y-90526190D01*
X147571666Y-90478571D01*
X147619285Y-90383333D01*
X147619285Y-90240476D01*
X147571666Y-90145238D01*
X146952619Y-89526190D02*
X147000238Y-89621428D01*
X147047857Y-89669047D01*
X147143095Y-89716666D01*
X147428809Y-89716666D01*
X147524047Y-89669047D01*
X147571666Y-89621428D01*
X147619285Y-89526190D01*
X147619285Y-89383333D01*
X147571666Y-89288095D01*
X147524047Y-89240476D01*
X147428809Y-89192857D01*
X147143095Y-89192857D01*
X147047857Y-89240476D01*
X147000238Y-89288095D01*
X146952619Y-89383333D01*
X146952619Y-89526190D01*
X146952619Y-88764285D02*
X147619285Y-88764285D01*
X147428809Y-88764285D02*
X147524047Y-88716666D01*
X147571666Y-88669047D01*
X147619285Y-88573809D01*
X147619285Y-88478571D01*
X147619285Y-86954761D02*
X146952619Y-86954761D01*
X148000238Y-87192857D02*
X147285952Y-87430952D01*
X147285952Y-86811904D01*
X146295000Y-94692857D02*
X146342619Y-94788095D01*
X146342619Y-94930952D01*
X146295000Y-95073809D01*
X146199761Y-95169047D01*
X146104523Y-95216666D01*
X145914047Y-95264285D01*
X145771190Y-95264285D01*
X145580714Y-95216666D01*
X145485476Y-95169047D01*
X145390238Y-95073809D01*
X145342619Y-94930952D01*
X145342619Y-94835714D01*
X145390238Y-94692857D01*
X145437857Y-94645238D01*
X145771190Y-94645238D01*
X145771190Y-94835714D01*
X145342619Y-94216666D02*
X146342619Y-94216666D01*
X145342619Y-93645238D01*
X146342619Y-93645238D01*
X145342619Y-93169047D02*
X146342619Y-93169047D01*
X146342619Y-92930952D01*
X146295000Y-92788095D01*
X146199761Y-92692857D01*
X146104523Y-92645238D01*
X145914047Y-92597619D01*
X145771190Y-92597619D01*
X145580714Y-92645238D01*
X145485476Y-92692857D01*
X145390238Y-92788095D01*
X145342619Y-92930952D01*
X145342619Y-93169047D01*
X146342619Y-91502380D02*
X146342619Y-90883333D01*
X145961666Y-91216666D01*
X145961666Y-91073809D01*
X145914047Y-90978571D01*
X145866428Y-90930952D01*
X145771190Y-90883333D01*
X145533095Y-90883333D01*
X145437857Y-90930952D01*
X145390238Y-90978571D01*
X145342619Y-91073809D01*
X145342619Y-91359523D01*
X145390238Y-91454761D01*
X145437857Y-91502380D01*
X146342619Y-90597619D02*
X145342619Y-90264285D01*
X146342619Y-89930952D01*
X146342619Y-89692857D02*
X146342619Y-89073809D01*
X145961666Y-89407142D01*
X145961666Y-89264285D01*
X145914047Y-89169047D01*
X145866428Y-89121428D01*
X145771190Y-89073809D01*
X145533095Y-89073809D01*
X145437857Y-89121428D01*
X145390238Y-89169047D01*
X145342619Y-89264285D01*
X145342619Y-89550000D01*
X145390238Y-89645238D01*
X145437857Y-89692857D01*
X145342619Y-87883333D02*
X146342619Y-87883333D01*
X146342619Y-87645238D01*
X146295000Y-87502380D01*
X146199761Y-87407142D01*
X146104523Y-87359523D01*
X145914047Y-87311904D01*
X145771190Y-87311904D01*
X145580714Y-87359523D01*
X145485476Y-87407142D01*
X145390238Y-87502380D01*
X145342619Y-87645238D01*
X145342619Y-87883333D01*
X145628333Y-86930952D02*
X145628333Y-86454761D01*
X145342619Y-87026190D02*
X146342619Y-86692857D01*
X145342619Y-86359523D01*
X146342619Y-86169047D02*
X146342619Y-85597619D01*
X145342619Y-85883333D02*
X146342619Y-85883333D01*
X145628333Y-85311904D02*
X145628333Y-84835714D01*
X145342619Y-85407142D02*
X146342619Y-85073809D01*
X145342619Y-84740476D01*
X126962023Y-125749761D02*
X126819166Y-125797380D01*
X126581071Y-125797380D01*
X126485833Y-125749761D01*
X126438214Y-125702142D01*
X126390595Y-125606904D01*
X126390595Y-125511666D01*
X126438214Y-125416428D01*
X126485833Y-125368809D01*
X126581071Y-125321190D01*
X126771547Y-125273571D01*
X126866785Y-125225952D01*
X126914404Y-125178333D01*
X126962023Y-125083095D01*
X126962023Y-124987857D01*
X126914404Y-124892619D01*
X126866785Y-124845000D01*
X126771547Y-124797380D01*
X126533452Y-124797380D01*
X126390595Y-124845000D01*
X125581071Y-125749761D02*
X125676309Y-125797380D01*
X125866785Y-125797380D01*
X125962023Y-125749761D01*
X126009642Y-125654523D01*
X126009642Y-125273571D01*
X125962023Y-125178333D01*
X125866785Y-125130714D01*
X125676309Y-125130714D01*
X125581071Y-125178333D01*
X125533452Y-125273571D01*
X125533452Y-125368809D01*
X126009642Y-125464047D01*
X125104880Y-125130714D02*
X125104880Y-125797380D01*
X125104880Y-125225952D02*
X125057261Y-125178333D01*
X124962023Y-125130714D01*
X124819166Y-125130714D01*
X124723928Y-125178333D01*
X124676309Y-125273571D01*
X124676309Y-125797380D01*
X124247738Y-125749761D02*
X124152500Y-125797380D01*
X123962023Y-125797380D01*
X123866785Y-125749761D01*
X123819166Y-125654523D01*
X123819166Y-125606904D01*
X123866785Y-125511666D01*
X123962023Y-125464047D01*
X124104880Y-125464047D01*
X124200119Y-125416428D01*
X124247738Y-125321190D01*
X124247738Y-125273571D01*
X124200119Y-125178333D01*
X124104880Y-125130714D01*
X123962023Y-125130714D01*
X123866785Y-125178333D01*
X123247738Y-125797380D02*
X123342976Y-125749761D01*
X123390595Y-125702142D01*
X123438214Y-125606904D01*
X123438214Y-125321190D01*
X123390595Y-125225952D01*
X123342976Y-125178333D01*
X123247738Y-125130714D01*
X123104880Y-125130714D01*
X123009642Y-125178333D01*
X122962023Y-125225952D01*
X122914404Y-125321190D01*
X122914404Y-125606904D01*
X122962023Y-125702142D01*
X123009642Y-125749761D01*
X123104880Y-125797380D01*
X123247738Y-125797380D01*
X122485833Y-125797380D02*
X122485833Y-125130714D01*
X122485833Y-125321190D02*
X122438214Y-125225952D01*
X122390595Y-125178333D01*
X122295357Y-125130714D01*
X122200119Y-125130714D01*
X120962023Y-125225952D02*
X121057261Y-125178333D01*
X121104880Y-125130714D01*
X121152500Y-125035476D01*
X121152500Y-124987857D01*
X121104880Y-124892619D01*
X121057261Y-124845000D01*
X120962023Y-124797380D01*
X120771547Y-124797380D01*
X120676309Y-124845000D01*
X120628690Y-124892619D01*
X120581071Y-124987857D01*
X120581071Y-125035476D01*
X120628690Y-125130714D01*
X120676309Y-125178333D01*
X120771547Y-125225952D01*
X120962023Y-125225952D01*
X121057261Y-125273571D01*
X121104880Y-125321190D01*
X121152500Y-125416428D01*
X121152500Y-125606904D01*
X121104880Y-125702142D01*
X121057261Y-125749761D01*
X120962023Y-125797380D01*
X120771547Y-125797380D01*
X120676309Y-125749761D01*
X120628690Y-125702142D01*
X120581071Y-125606904D01*
X120581071Y-125416428D01*
X120628690Y-125321190D01*
X120676309Y-125273571D01*
X120771547Y-125225952D01*
X126914404Y-127407380D02*
X126914404Y-126407380D01*
X126676309Y-126407380D01*
X126533452Y-126455000D01*
X126438214Y-126550238D01*
X126390595Y-126645476D01*
X126342976Y-126835952D01*
X126342976Y-126978809D01*
X126390595Y-127169285D01*
X126438214Y-127264523D01*
X126533452Y-127359761D01*
X126676309Y-127407380D01*
X126914404Y-127407380D01*
X125962023Y-127121666D02*
X125485833Y-127121666D01*
X126057261Y-127407380D02*
X125723928Y-126407380D01*
X125390595Y-127407380D01*
X125200119Y-126407380D02*
X124628690Y-126407380D01*
X124914404Y-127407380D02*
X124914404Y-126407380D01*
X124342976Y-127121666D02*
X123866785Y-127121666D01*
X124438214Y-127407380D02*
X124104880Y-126407380D01*
X123771547Y-127407380D01*
X122771547Y-126407380D02*
X122152500Y-126407380D01*
X122485833Y-126788333D01*
X122342976Y-126788333D01*
X122247738Y-126835952D01*
X122200119Y-126883571D01*
X122152500Y-126978809D01*
X122152500Y-127216904D01*
X122200119Y-127312142D01*
X122247738Y-127359761D01*
X122342976Y-127407380D01*
X122628690Y-127407380D01*
X122723928Y-127359761D01*
X122771547Y-127312142D01*
X121866785Y-126407380D02*
X121533452Y-127407380D01*
X121200119Y-126407380D01*
X120962023Y-126407380D02*
X120342976Y-126407380D01*
X120676309Y-126788333D01*
X120533452Y-126788333D01*
X120438214Y-126835952D01*
X120390595Y-126883571D01*
X120342976Y-126978809D01*
X120342976Y-127216904D01*
X120390595Y-127312142D01*
X120438214Y-127359761D01*
X120533452Y-127407380D01*
X120819166Y-127407380D01*
X120914404Y-127359761D01*
X120962023Y-127312142D01*
X118628690Y-126455000D02*
X118723928Y-126407380D01*
X118866785Y-126407380D01*
X119009642Y-126455000D01*
X119104880Y-126550238D01*
X119152500Y-126645476D01*
X119200119Y-126835952D01*
X119200119Y-126978809D01*
X119152500Y-127169285D01*
X119104880Y-127264523D01*
X119009642Y-127359761D01*
X118866785Y-127407380D01*
X118771547Y-127407380D01*
X118628690Y-127359761D01*
X118581071Y-127312142D01*
X118581071Y-126978809D01*
X118771547Y-126978809D01*
X118152500Y-127407380D02*
X118152500Y-126407380D01*
X117581071Y-127407380D01*
X117581071Y-126407380D01*
X117104880Y-127407380D02*
X117104880Y-126407380D01*
X116866785Y-126407380D01*
X116723928Y-126455000D01*
X116628690Y-126550238D01*
X116581071Y-126645476D01*
X116533452Y-126835952D01*
X116533452Y-126978809D01*
X116581071Y-127169285D01*
X116628690Y-127264523D01*
X116723928Y-127359761D01*
X116866785Y-127407380D01*
X117104880Y-127407380D01*
X136790476Y-65049761D02*
X136647619Y-65097380D01*
X136409523Y-65097380D01*
X136314285Y-65049761D01*
X136266666Y-65002142D01*
X136219047Y-64906904D01*
X136219047Y-64811666D01*
X136266666Y-64716428D01*
X136314285Y-64668809D01*
X136409523Y-64621190D01*
X136600000Y-64573571D01*
X136695238Y-64525952D01*
X136742857Y-64478333D01*
X136790476Y-64383095D01*
X136790476Y-64287857D01*
X136742857Y-64192619D01*
X136695238Y-64145000D01*
X136600000Y-64097380D01*
X136361904Y-64097380D01*
X136219047Y-64145000D01*
X135409523Y-65049761D02*
X135504761Y-65097380D01*
X135695238Y-65097380D01*
X135790476Y-65049761D01*
X135838095Y-64954523D01*
X135838095Y-64573571D01*
X135790476Y-64478333D01*
X135695238Y-64430714D01*
X135504761Y-64430714D01*
X135409523Y-64478333D01*
X135361904Y-64573571D01*
X135361904Y-64668809D01*
X135838095Y-64764047D01*
X134933333Y-64430714D02*
X134933333Y-65097380D01*
X134933333Y-64525952D02*
X134885714Y-64478333D01*
X134790476Y-64430714D01*
X134647619Y-64430714D01*
X134552380Y-64478333D01*
X134504761Y-64573571D01*
X134504761Y-65097380D01*
X134076190Y-65049761D02*
X133980952Y-65097380D01*
X133790476Y-65097380D01*
X133695238Y-65049761D01*
X133647619Y-64954523D01*
X133647619Y-64906904D01*
X133695238Y-64811666D01*
X133790476Y-64764047D01*
X133933333Y-64764047D01*
X134028571Y-64716428D01*
X134076190Y-64621190D01*
X134076190Y-64573571D01*
X134028571Y-64478333D01*
X133933333Y-64430714D01*
X133790476Y-64430714D01*
X133695238Y-64478333D01*
X133076190Y-65097380D02*
X133171428Y-65049761D01*
X133219047Y-65002142D01*
X133266666Y-64906904D01*
X133266666Y-64621190D01*
X133219047Y-64525952D01*
X133171428Y-64478333D01*
X133076190Y-64430714D01*
X132933333Y-64430714D01*
X132838095Y-64478333D01*
X132790476Y-64525952D01*
X132742857Y-64621190D01*
X132742857Y-64906904D01*
X132790476Y-65002142D01*
X132838095Y-65049761D01*
X132933333Y-65097380D01*
X133076190Y-65097380D01*
X132314285Y-65097380D02*
X132314285Y-64430714D01*
X132314285Y-64621190D02*
X132266666Y-64525952D01*
X132219047Y-64478333D01*
X132123809Y-64430714D01*
X132028571Y-64430714D01*
X130980952Y-64192619D02*
X130933333Y-64145000D01*
X130838095Y-64097380D01*
X130600000Y-64097380D01*
X130504761Y-64145000D01*
X130457142Y-64192619D01*
X130409523Y-64287857D01*
X130409523Y-64383095D01*
X130457142Y-64525952D01*
X131028571Y-65097380D01*
X130409523Y-65097380D01*
X138242857Y-65755000D02*
X138338095Y-65707380D01*
X138480952Y-65707380D01*
X138623809Y-65755000D01*
X138719047Y-65850238D01*
X138766666Y-65945476D01*
X138814285Y-66135952D01*
X138814285Y-66278809D01*
X138766666Y-66469285D01*
X138719047Y-66564523D01*
X138623809Y-66659761D01*
X138480952Y-66707380D01*
X138385714Y-66707380D01*
X138242857Y-66659761D01*
X138195238Y-66612142D01*
X138195238Y-66278809D01*
X138385714Y-66278809D01*
X137766666Y-66707380D02*
X137766666Y-65707380D01*
X137195238Y-66707380D01*
X137195238Y-65707380D01*
X136719047Y-66707380D02*
X136719047Y-65707380D01*
X136480952Y-65707380D01*
X136338095Y-65755000D01*
X136242857Y-65850238D01*
X136195238Y-65945476D01*
X136147619Y-66135952D01*
X136147619Y-66278809D01*
X136195238Y-66469285D01*
X136242857Y-66564523D01*
X136338095Y-66659761D01*
X136480952Y-66707380D01*
X136719047Y-66707380D01*
X135052380Y-65707380D02*
X134433333Y-65707380D01*
X134766666Y-66088333D01*
X134623809Y-66088333D01*
X134528571Y-66135952D01*
X134480952Y-66183571D01*
X134433333Y-66278809D01*
X134433333Y-66516904D01*
X134480952Y-66612142D01*
X134528571Y-66659761D01*
X134623809Y-66707380D01*
X134909523Y-66707380D01*
X135004761Y-66659761D01*
X135052380Y-66612142D01*
X134147619Y-65707380D02*
X133814285Y-66707380D01*
X133480952Y-65707380D01*
X133242857Y-65707380D02*
X132623809Y-65707380D01*
X132957142Y-66088333D01*
X132814285Y-66088333D01*
X132719047Y-66135952D01*
X132671428Y-66183571D01*
X132623809Y-66278809D01*
X132623809Y-66516904D01*
X132671428Y-66612142D01*
X132719047Y-66659761D01*
X132814285Y-66707380D01*
X133100000Y-66707380D01*
X133195238Y-66659761D01*
X133242857Y-66612142D01*
X131433333Y-66707380D02*
X131433333Y-65707380D01*
X131195238Y-65707380D01*
X131052380Y-65755000D01*
X130957142Y-65850238D01*
X130909523Y-65945476D01*
X130861904Y-66135952D01*
X130861904Y-66278809D01*
X130909523Y-66469285D01*
X130957142Y-66564523D01*
X131052380Y-66659761D01*
X131195238Y-66707380D01*
X131433333Y-66707380D01*
X130480952Y-66421666D02*
X130004761Y-66421666D01*
X130576190Y-66707380D02*
X130242857Y-65707380D01*
X129909523Y-66707380D01*
X129719047Y-65707380D02*
X129147619Y-65707380D01*
X129433333Y-66707380D02*
X129433333Y-65707380D01*
X128861904Y-66421666D02*
X128385714Y-66421666D01*
X128957142Y-66707380D02*
X128623809Y-65707380D01*
X128290476Y-66707380D01*
X108590476Y-114452380D02*
X109066666Y-114452380D01*
X109114285Y-114928571D01*
X109066666Y-114880952D01*
X108971428Y-114833333D01*
X108733333Y-114833333D01*
X108638095Y-114880952D01*
X108590476Y-114928571D01*
X108542857Y-115023809D01*
X108542857Y-115261904D01*
X108590476Y-115357142D01*
X108638095Y-115404761D01*
X108733333Y-115452380D01*
X108971428Y-115452380D01*
X109066666Y-115404761D01*
X109114285Y-115357142D01*
X108257142Y-114452380D02*
X107923809Y-115452380D01*
X107590476Y-114452380D01*
X140861904Y-118300000D02*
X140957142Y-118252380D01*
X141100000Y-118252380D01*
X141242857Y-118300000D01*
X141338095Y-118395238D01*
X141385714Y-118490476D01*
X141433333Y-118680952D01*
X141433333Y-118823809D01*
X141385714Y-119014285D01*
X141338095Y-119109523D01*
X141242857Y-119204761D01*
X141100000Y-119252380D01*
X141004761Y-119252380D01*
X140861904Y-119204761D01*
X140814285Y-119157142D01*
X140814285Y-118823809D01*
X141004761Y-118823809D01*
X140385714Y-119252380D02*
X140385714Y-118252380D01*
X139814285Y-119252380D01*
X139814285Y-118252380D01*
X139338095Y-119252380D02*
X139338095Y-118252380D01*
X139100000Y-118252380D01*
X138957142Y-118300000D01*
X138861904Y-118395238D01*
X138814285Y-118490476D01*
X138766666Y-118680952D01*
X138766666Y-118823809D01*
X138814285Y-119014285D01*
X138861904Y-119109523D01*
X138957142Y-119204761D01*
X139100000Y-119252380D01*
X139338095Y-119252380D01*
X61205000Y-106323809D02*
X61252619Y-106419047D01*
X61252619Y-106561904D01*
X61205000Y-106704761D01*
X61109761Y-106800000D01*
X61014523Y-106847619D01*
X60824047Y-106895238D01*
X60681190Y-106895238D01*
X60490714Y-106847619D01*
X60395476Y-106800000D01*
X60300238Y-106704761D01*
X60252619Y-106561904D01*
X60252619Y-106466666D01*
X60300238Y-106323809D01*
X60347857Y-106276190D01*
X60681190Y-106276190D01*
X60681190Y-106466666D01*
X60252619Y-105847619D02*
X61252619Y-105847619D01*
X60252619Y-105276190D01*
X61252619Y-105276190D01*
X60252619Y-104800000D02*
X61252619Y-104800000D01*
X61252619Y-104561904D01*
X61205000Y-104419047D01*
X61109761Y-104323809D01*
X61014523Y-104276190D01*
X60824047Y-104228571D01*
X60681190Y-104228571D01*
X60490714Y-104276190D01*
X60395476Y-104323809D01*
X60300238Y-104419047D01*
X60252619Y-104561904D01*
X60252619Y-104800000D01*
X61157380Y-103085714D02*
X61205000Y-103038095D01*
X61252619Y-102942857D01*
X61252619Y-102704761D01*
X61205000Y-102609523D01*
X61157380Y-102561904D01*
X61062142Y-102514285D01*
X60966904Y-102514285D01*
X60824047Y-102561904D01*
X60252619Y-103133333D01*
X60252619Y-102514285D01*
X60919285Y-101657142D02*
X60252619Y-101657142D01*
X61300238Y-101895238D02*
X60585952Y-102133333D01*
X60585952Y-101514285D01*
X61252619Y-101276190D02*
X60252619Y-100942857D01*
X61252619Y-100609523D01*
X59642619Y-106514285D02*
X58642619Y-106180952D01*
X59642619Y-105847619D01*
X58642619Y-105085714D02*
X59166428Y-105085714D01*
X59261666Y-105133333D01*
X59309285Y-105228571D01*
X59309285Y-105419047D01*
X59261666Y-105514285D01*
X58690238Y-105085714D02*
X58642619Y-105180952D01*
X58642619Y-105419047D01*
X58690238Y-105514285D01*
X58785476Y-105561904D01*
X58880714Y-105561904D01*
X58975952Y-105514285D01*
X59023571Y-105419047D01*
X59023571Y-105180952D01*
X59071190Y-105085714D01*
X58642619Y-104466666D02*
X58690238Y-104561904D01*
X58785476Y-104609523D01*
X59642619Y-104609523D01*
X59309285Y-104180952D02*
X58642619Y-103942857D01*
X59309285Y-103704761D01*
X58690238Y-102942857D02*
X58642619Y-103038095D01*
X58642619Y-103228571D01*
X58690238Y-103323809D01*
X58785476Y-103371428D01*
X59166428Y-103371428D01*
X59261666Y-103323809D01*
X59309285Y-103228571D01*
X59309285Y-103038095D01*
X59261666Y-102942857D01*
X59166428Y-102895238D01*
X59071190Y-102895238D01*
X58975952Y-103371428D01*
X59642619Y-101228571D02*
X59642619Y-101704761D01*
X59166428Y-101752380D01*
X59214047Y-101704761D01*
X59261666Y-101609523D01*
X59261666Y-101371428D01*
X59214047Y-101276190D01*
X59166428Y-101228571D01*
X59071190Y-101180952D01*
X58833095Y-101180952D01*
X58737857Y-101228571D01*
X58690238Y-101276190D01*
X58642619Y-101371428D01*
X58642619Y-101609523D01*
X58690238Y-101704761D01*
X58737857Y-101752380D01*
X61205000Y-82273809D02*
X61252619Y-82369047D01*
X61252619Y-82511904D01*
X61205000Y-82654761D01*
X61109761Y-82750000D01*
X61014523Y-82797619D01*
X60824047Y-82845238D01*
X60681190Y-82845238D01*
X60490714Y-82797619D01*
X60395476Y-82750000D01*
X60300238Y-82654761D01*
X60252619Y-82511904D01*
X60252619Y-82416666D01*
X60300238Y-82273809D01*
X60347857Y-82226190D01*
X60681190Y-82226190D01*
X60681190Y-82416666D01*
X60252619Y-81797619D02*
X61252619Y-81797619D01*
X60252619Y-81226190D01*
X61252619Y-81226190D01*
X60252619Y-80750000D02*
X61252619Y-80750000D01*
X61252619Y-80511904D01*
X61205000Y-80369047D01*
X61109761Y-80273809D01*
X61014523Y-80226190D01*
X60824047Y-80178571D01*
X60681190Y-80178571D01*
X60490714Y-80226190D01*
X60395476Y-80273809D01*
X60300238Y-80369047D01*
X60252619Y-80511904D01*
X60252619Y-80750000D01*
X61157380Y-79035714D02*
X61205000Y-78988095D01*
X61252619Y-78892857D01*
X61252619Y-78654761D01*
X61205000Y-78559523D01*
X61157380Y-78511904D01*
X61062142Y-78464285D01*
X60966904Y-78464285D01*
X60824047Y-78511904D01*
X60252619Y-79083333D01*
X60252619Y-78464285D01*
X60919285Y-77607142D02*
X60252619Y-77607142D01*
X61300238Y-77845238D02*
X60585952Y-78083333D01*
X60585952Y-77464285D01*
X61252619Y-77226190D02*
X60252619Y-76892857D01*
X61252619Y-76559523D01*
X59642619Y-82464285D02*
X58642619Y-82130952D01*
X59642619Y-81797619D01*
X58642619Y-81035714D02*
X59166428Y-81035714D01*
X59261666Y-81083333D01*
X59309285Y-81178571D01*
X59309285Y-81369047D01*
X59261666Y-81464285D01*
X58690238Y-81035714D02*
X58642619Y-81130952D01*
X58642619Y-81369047D01*
X58690238Y-81464285D01*
X58785476Y-81511904D01*
X58880714Y-81511904D01*
X58975952Y-81464285D01*
X59023571Y-81369047D01*
X59023571Y-81130952D01*
X59071190Y-81035714D01*
X58642619Y-80416666D02*
X58690238Y-80511904D01*
X58785476Y-80559523D01*
X59642619Y-80559523D01*
X59309285Y-80130952D02*
X58642619Y-79892857D01*
X59309285Y-79654761D01*
X58690238Y-78892857D02*
X58642619Y-78988095D01*
X58642619Y-79178571D01*
X58690238Y-79273809D01*
X58785476Y-79321428D01*
X59166428Y-79321428D01*
X59261666Y-79273809D01*
X59309285Y-79178571D01*
X59309285Y-78988095D01*
X59261666Y-78892857D01*
X59166428Y-78845238D01*
X59071190Y-78845238D01*
X58975952Y-79321428D01*
X59547380Y-77702380D02*
X59595000Y-77654761D01*
X59642619Y-77559523D01*
X59642619Y-77321428D01*
X59595000Y-77226190D01*
X59547380Y-77178571D01*
X59452142Y-77130952D01*
X59356904Y-77130952D01*
X59214047Y-77178571D01*
X58642619Y-77750000D01*
X58642619Y-77130952D01*
X141338095Y-110252380D02*
X140719047Y-110252380D01*
X141052380Y-110633333D01*
X140909523Y-110633333D01*
X140814285Y-110680952D01*
X140766666Y-110728571D01*
X140719047Y-110823809D01*
X140719047Y-111061904D01*
X140766666Y-111157142D01*
X140814285Y-111204761D01*
X140909523Y-111252380D01*
X141195238Y-111252380D01*
X141290476Y-111204761D01*
X141338095Y-111157142D01*
X140433333Y-110252380D02*
X140100000Y-111252380D01*
X139766666Y-110252380D01*
X139528571Y-110252380D02*
X138909523Y-110252380D01*
X139242857Y-110633333D01*
X139100000Y-110633333D01*
X139004761Y-110680952D01*
X138957142Y-110728571D01*
X138909523Y-110823809D01*
X138909523Y-111061904D01*
X138957142Y-111157142D01*
X139004761Y-111204761D01*
X139100000Y-111252380D01*
X139385714Y-111252380D01*
X139480952Y-111204761D01*
X139528571Y-111157142D01*
X74014285Y-64097380D02*
X73680952Y-65097380D01*
X73347619Y-64097380D01*
X72585714Y-65097380D02*
X72585714Y-64573571D01*
X72633333Y-64478333D01*
X72728571Y-64430714D01*
X72919047Y-64430714D01*
X73014285Y-64478333D01*
X72585714Y-65049761D02*
X72680952Y-65097380D01*
X72919047Y-65097380D01*
X73014285Y-65049761D01*
X73061904Y-64954523D01*
X73061904Y-64859285D01*
X73014285Y-64764047D01*
X72919047Y-64716428D01*
X72680952Y-64716428D01*
X72585714Y-64668809D01*
X71966666Y-65097380D02*
X72061904Y-65049761D01*
X72109523Y-64954523D01*
X72109523Y-64097380D01*
X71680952Y-64430714D02*
X71442857Y-65097380D01*
X71204761Y-64430714D01*
X70442857Y-65049761D02*
X70538095Y-65097380D01*
X70728571Y-65097380D01*
X70823809Y-65049761D01*
X70871428Y-64954523D01*
X70871428Y-64573571D01*
X70823809Y-64478333D01*
X70728571Y-64430714D01*
X70538095Y-64430714D01*
X70442857Y-64478333D01*
X70395238Y-64573571D01*
X70395238Y-64668809D01*
X70871428Y-64764047D01*
X68680952Y-65097380D02*
X69252380Y-65097380D01*
X68966666Y-65097380D02*
X68966666Y-64097380D01*
X69061904Y-64240238D01*
X69157142Y-64335476D01*
X69252380Y-64383095D01*
X74395238Y-65802619D02*
X74347619Y-65755000D01*
X74252380Y-65707380D01*
X74014285Y-65707380D01*
X73919047Y-65755000D01*
X73871428Y-65802619D01*
X73823809Y-65897857D01*
X73823809Y-65993095D01*
X73871428Y-66135952D01*
X74442857Y-66707380D01*
X73823809Y-66707380D01*
X72966666Y-66040714D02*
X72966666Y-66707380D01*
X73204761Y-65659761D02*
X73442857Y-66374047D01*
X72823809Y-66374047D01*
X72585714Y-65707380D02*
X72252380Y-66707380D01*
X71919047Y-65707380D01*
X70300000Y-65755000D02*
X70395238Y-65707380D01*
X70538095Y-65707380D01*
X70680952Y-65755000D01*
X70776190Y-65850238D01*
X70823809Y-65945476D01*
X70871428Y-66135952D01*
X70871428Y-66278809D01*
X70823809Y-66469285D01*
X70776190Y-66564523D01*
X70680952Y-66659761D01*
X70538095Y-66707380D01*
X70442857Y-66707380D01*
X70300000Y-66659761D01*
X70252380Y-66612142D01*
X70252380Y-66278809D01*
X70442857Y-66278809D01*
X69823809Y-66707380D02*
X69823809Y-65707380D01*
X69252380Y-66707380D01*
X69252380Y-65707380D01*
X68776190Y-66707380D02*
X68776190Y-65707380D01*
X68538095Y-65707380D01*
X68395238Y-65755000D01*
X68300000Y-65850238D01*
X68252380Y-65945476D01*
X68204761Y-66135952D01*
X68204761Y-66278809D01*
X68252380Y-66469285D01*
X68300000Y-66564523D01*
X68395238Y-66659761D01*
X68538095Y-66707380D01*
X68776190Y-66707380D01*
X61205000Y-98323809D02*
X61252619Y-98419047D01*
X61252619Y-98561904D01*
X61205000Y-98704761D01*
X61109761Y-98800000D01*
X61014523Y-98847619D01*
X60824047Y-98895238D01*
X60681190Y-98895238D01*
X60490714Y-98847619D01*
X60395476Y-98800000D01*
X60300238Y-98704761D01*
X60252619Y-98561904D01*
X60252619Y-98466666D01*
X60300238Y-98323809D01*
X60347857Y-98276190D01*
X60681190Y-98276190D01*
X60681190Y-98466666D01*
X60252619Y-97847619D02*
X61252619Y-97847619D01*
X60252619Y-97276190D01*
X61252619Y-97276190D01*
X60252619Y-96800000D02*
X61252619Y-96800000D01*
X61252619Y-96561904D01*
X61205000Y-96419047D01*
X61109761Y-96323809D01*
X61014523Y-96276190D01*
X60824047Y-96228571D01*
X60681190Y-96228571D01*
X60490714Y-96276190D01*
X60395476Y-96323809D01*
X60300238Y-96419047D01*
X60252619Y-96561904D01*
X60252619Y-96800000D01*
X61157380Y-95085714D02*
X61205000Y-95038095D01*
X61252619Y-94942857D01*
X61252619Y-94704761D01*
X61205000Y-94609523D01*
X61157380Y-94561904D01*
X61062142Y-94514285D01*
X60966904Y-94514285D01*
X60824047Y-94561904D01*
X60252619Y-95133333D01*
X60252619Y-94514285D01*
X60919285Y-93657142D02*
X60252619Y-93657142D01*
X61300238Y-93895238D02*
X60585952Y-94133333D01*
X60585952Y-93514285D01*
X61252619Y-93276190D02*
X60252619Y-92942857D01*
X61252619Y-92609523D01*
X59642619Y-98514285D02*
X58642619Y-98180952D01*
X59642619Y-97847619D01*
X58642619Y-97085714D02*
X59166428Y-97085714D01*
X59261666Y-97133333D01*
X59309285Y-97228571D01*
X59309285Y-97419047D01*
X59261666Y-97514285D01*
X58690238Y-97085714D02*
X58642619Y-97180952D01*
X58642619Y-97419047D01*
X58690238Y-97514285D01*
X58785476Y-97561904D01*
X58880714Y-97561904D01*
X58975952Y-97514285D01*
X59023571Y-97419047D01*
X59023571Y-97180952D01*
X59071190Y-97085714D01*
X58642619Y-96466666D02*
X58690238Y-96561904D01*
X58785476Y-96609523D01*
X59642619Y-96609523D01*
X59309285Y-96180952D02*
X58642619Y-95942857D01*
X59309285Y-95704761D01*
X58690238Y-94942857D02*
X58642619Y-95038095D01*
X58642619Y-95228571D01*
X58690238Y-95323809D01*
X58785476Y-95371428D01*
X59166428Y-95371428D01*
X59261666Y-95323809D01*
X59309285Y-95228571D01*
X59309285Y-95038095D01*
X59261666Y-94942857D01*
X59166428Y-94895238D01*
X59071190Y-94895238D01*
X58975952Y-95371428D01*
X59309285Y-93276190D02*
X58642619Y-93276190D01*
X59690238Y-93514285D02*
X58975952Y-93752380D01*
X58975952Y-93133333D01*
X108561904Y-117800000D02*
X108657142Y-117752380D01*
X108800000Y-117752380D01*
X108942857Y-117800000D01*
X109038095Y-117895238D01*
X109085714Y-117990476D01*
X109133333Y-118180952D01*
X109133333Y-118323809D01*
X109085714Y-118514285D01*
X109038095Y-118609523D01*
X108942857Y-118704761D01*
X108800000Y-118752380D01*
X108704761Y-118752380D01*
X108561904Y-118704761D01*
X108514285Y-118657142D01*
X108514285Y-118323809D01*
X108704761Y-118323809D01*
X108085714Y-118752380D02*
X108085714Y-117752380D01*
X107514285Y-118752380D01*
X107514285Y-117752380D01*
X107038095Y-118752380D02*
X107038095Y-117752380D01*
X106800000Y-117752380D01*
X106657142Y-117800000D01*
X106561904Y-117895238D01*
X106514285Y-117990476D01*
X106466666Y-118180952D01*
X106466666Y-118323809D01*
X106514285Y-118514285D01*
X106561904Y-118609523D01*
X106657142Y-118704761D01*
X106800000Y-118752380D01*
X107038095Y-118752380D01*
X61205000Y-114323809D02*
X61252619Y-114419047D01*
X61252619Y-114561904D01*
X61205000Y-114704761D01*
X61109761Y-114800000D01*
X61014523Y-114847619D01*
X60824047Y-114895238D01*
X60681190Y-114895238D01*
X60490714Y-114847619D01*
X60395476Y-114800000D01*
X60300238Y-114704761D01*
X60252619Y-114561904D01*
X60252619Y-114466666D01*
X60300238Y-114323809D01*
X60347857Y-114276190D01*
X60681190Y-114276190D01*
X60681190Y-114466666D01*
X60252619Y-113847619D02*
X61252619Y-113847619D01*
X60252619Y-113276190D01*
X61252619Y-113276190D01*
X60252619Y-112800000D02*
X61252619Y-112800000D01*
X61252619Y-112561904D01*
X61205000Y-112419047D01*
X61109761Y-112323809D01*
X61014523Y-112276190D01*
X60824047Y-112228571D01*
X60681190Y-112228571D01*
X60490714Y-112276190D01*
X60395476Y-112323809D01*
X60300238Y-112419047D01*
X60252619Y-112561904D01*
X60252619Y-112800000D01*
X61157380Y-111085714D02*
X61205000Y-111038095D01*
X61252619Y-110942857D01*
X61252619Y-110704761D01*
X61205000Y-110609523D01*
X61157380Y-110561904D01*
X61062142Y-110514285D01*
X60966904Y-110514285D01*
X60824047Y-110561904D01*
X60252619Y-111133333D01*
X60252619Y-110514285D01*
X60919285Y-109657142D02*
X60252619Y-109657142D01*
X61300238Y-109895238D02*
X60585952Y-110133333D01*
X60585952Y-109514285D01*
X61252619Y-109276190D02*
X60252619Y-108942857D01*
X61252619Y-108609523D01*
X59642619Y-114514285D02*
X58642619Y-114180952D01*
X59642619Y-113847619D01*
X58642619Y-113085714D02*
X59166428Y-113085714D01*
X59261666Y-113133333D01*
X59309285Y-113228571D01*
X59309285Y-113419047D01*
X59261666Y-113514285D01*
X58690238Y-113085714D02*
X58642619Y-113180952D01*
X58642619Y-113419047D01*
X58690238Y-113514285D01*
X58785476Y-113561904D01*
X58880714Y-113561904D01*
X58975952Y-113514285D01*
X59023571Y-113419047D01*
X59023571Y-113180952D01*
X59071190Y-113085714D01*
X58642619Y-112466666D02*
X58690238Y-112561904D01*
X58785476Y-112609523D01*
X59642619Y-112609523D01*
X59309285Y-112180952D02*
X58642619Y-111942857D01*
X59309285Y-111704761D01*
X58690238Y-110942857D02*
X58642619Y-111038095D01*
X58642619Y-111228571D01*
X58690238Y-111323809D01*
X58785476Y-111371428D01*
X59166428Y-111371428D01*
X59261666Y-111323809D01*
X59309285Y-111228571D01*
X59309285Y-111038095D01*
X59261666Y-110942857D01*
X59166428Y-110895238D01*
X59071190Y-110895238D01*
X58975952Y-111371428D01*
X59642619Y-109276190D02*
X59642619Y-109466666D01*
X59595000Y-109561904D01*
X59547380Y-109609523D01*
X59404523Y-109704761D01*
X59214047Y-109752380D01*
X58833095Y-109752380D01*
X58737857Y-109704761D01*
X58690238Y-109657142D01*
X58642619Y-109561904D01*
X58642619Y-109371428D01*
X58690238Y-109276190D01*
X58737857Y-109228571D01*
X58833095Y-109180952D01*
X59071190Y-109180952D01*
X59166428Y-109228571D01*
X59214047Y-109276190D01*
X59261666Y-109371428D01*
X59261666Y-109561904D01*
X59214047Y-109657142D01*
X59166428Y-109704761D01*
X59071190Y-109752380D01*
X81773809Y-124845000D02*
X81869047Y-124797380D01*
X82011904Y-124797380D01*
X82154761Y-124845000D01*
X82250000Y-124940238D01*
X82297619Y-125035476D01*
X82345238Y-125225952D01*
X82345238Y-125368809D01*
X82297619Y-125559285D01*
X82250000Y-125654523D01*
X82154761Y-125749761D01*
X82011904Y-125797380D01*
X81916666Y-125797380D01*
X81773809Y-125749761D01*
X81726190Y-125702142D01*
X81726190Y-125368809D01*
X81916666Y-125368809D01*
X81297619Y-125797380D02*
X81297619Y-124797380D01*
X80726190Y-125797380D01*
X80726190Y-124797380D01*
X80250000Y-125797380D02*
X80250000Y-124797380D01*
X80011904Y-124797380D01*
X79869047Y-124845000D01*
X79773809Y-124940238D01*
X79726190Y-125035476D01*
X79678571Y-125225952D01*
X79678571Y-125368809D01*
X79726190Y-125559285D01*
X79773809Y-125654523D01*
X79869047Y-125749761D01*
X80011904Y-125797380D01*
X80250000Y-125797380D01*
X78535714Y-124892619D02*
X78488095Y-124845000D01*
X78392857Y-124797380D01*
X78154761Y-124797380D01*
X78059523Y-124845000D01*
X78011904Y-124892619D01*
X77964285Y-124987857D01*
X77964285Y-125083095D01*
X78011904Y-125225952D01*
X78583333Y-125797380D01*
X77964285Y-125797380D01*
X77107142Y-125130714D02*
X77107142Y-125797380D01*
X77345238Y-124749761D02*
X77583333Y-125464047D01*
X76964285Y-125464047D01*
X76726190Y-124797380D02*
X76392857Y-125797380D01*
X76059523Y-124797380D01*
X81964285Y-126407380D02*
X81630952Y-127407380D01*
X81297619Y-126407380D01*
X80535714Y-127407380D02*
X80535714Y-126883571D01*
X80583333Y-126788333D01*
X80678571Y-126740714D01*
X80869047Y-126740714D01*
X80964285Y-126788333D01*
X80535714Y-127359761D02*
X80630952Y-127407380D01*
X80869047Y-127407380D01*
X80964285Y-127359761D01*
X81011904Y-127264523D01*
X81011904Y-127169285D01*
X80964285Y-127074047D01*
X80869047Y-127026428D01*
X80630952Y-127026428D01*
X80535714Y-126978809D01*
X79916666Y-127407380D02*
X80011904Y-127359761D01*
X80059523Y-127264523D01*
X80059523Y-126407380D01*
X79630952Y-126740714D02*
X79392857Y-127407380D01*
X79154761Y-126740714D01*
X78392857Y-127359761D02*
X78488095Y-127407380D01*
X78678571Y-127407380D01*
X78773809Y-127359761D01*
X78821428Y-127264523D01*
X78821428Y-126883571D01*
X78773809Y-126788333D01*
X78678571Y-126740714D01*
X78488095Y-126740714D01*
X78392857Y-126788333D01*
X78345238Y-126883571D01*
X78345238Y-126978809D01*
X78821428Y-127074047D01*
X77011904Y-126835952D02*
X77107142Y-126788333D01*
X77154761Y-126740714D01*
X77202380Y-126645476D01*
X77202380Y-126597857D01*
X77154761Y-126502619D01*
X77107142Y-126455000D01*
X77011904Y-126407380D01*
X76821428Y-126407380D01*
X76726190Y-126455000D01*
X76678571Y-126502619D01*
X76630952Y-126597857D01*
X76630952Y-126645476D01*
X76678571Y-126740714D01*
X76726190Y-126788333D01*
X76821428Y-126835952D01*
X77011904Y-126835952D01*
X77107142Y-126883571D01*
X77154761Y-126931190D01*
X77202380Y-127026428D01*
X77202380Y-127216904D01*
X77154761Y-127312142D01*
X77107142Y-127359761D01*
X77011904Y-127407380D01*
X76821428Y-127407380D01*
X76726190Y-127359761D01*
X76678571Y-127312142D01*
X76630952Y-127216904D01*
X76630952Y-127026428D01*
X76678571Y-126931190D01*
X76726190Y-126883571D01*
X76821428Y-126835952D01*
D11*
X141300000Y-113000000D02*
G75*
G03*
X141300000Y-113000000I-1200000J0D01*
G01*
X112200000Y-115000000D02*
G75*
G03*
X112200000Y-115000000I-1200000J0D01*
G01*
X90200000Y-103100000D02*
G75*
G03*
X90200000Y-103100000I-1200000J0D01*
G01*
X141300000Y-116500000D02*
G75*
G03*
X141300000Y-116500000I-1200000J0D01*
G01*
X90200000Y-106750000D02*
G75*
G03*
X90200000Y-106750000I-1200000J0D01*
G01*
X112200000Y-118250000D02*
G75*
G03*
X112200000Y-118250000I-1200000J0D01*
G01*
%LPC*%
D12*
X143550000Y-105000000D03*
D13*
X143550000Y-101500000D03*
X143550000Y-98000000D03*
D12*
X125550000Y-68500000D03*
D13*
X122050000Y-68500000D03*
X118550000Y-68500000D03*
D12*
X143550000Y-116500000D03*
D13*
X143550000Y-113000000D03*
X143550000Y-109500000D03*
D12*
X95950000Y-68500000D03*
D13*
X92450000Y-68500000D03*
X88950000Y-68500000D03*
X85450000Y-68500000D03*
D14*
X144000000Y-123500000D03*
X62500000Y-123500000D03*
D12*
X69450000Y-123000000D03*
D13*
X72950000Y-123000000D03*
D12*
X143550000Y-82000000D03*
D13*
X143550000Y-78500000D03*
X143550000Y-75000000D03*
D12*
X63000000Y-86000000D03*
D13*
X63000000Y-89500000D03*
D12*
X137050000Y-68500000D03*
D13*
X133550000Y-68500000D03*
X130050000Y-68500000D03*
D12*
X130100000Y-123000000D03*
D13*
X133600000Y-123000000D03*
X137100000Y-123000000D03*
D12*
X77450000Y-123000000D03*
D13*
X80950000Y-123000000D03*
D15*
X131610000Y-74177500D03*
D16*
X129070000Y-74177500D03*
X126530000Y-74177500D03*
X123990000Y-74177500D03*
X121450000Y-74177500D03*
X118910000Y-74177500D03*
X116370000Y-74177500D03*
X113830000Y-74177500D03*
X111290000Y-74177500D03*
X108750000Y-74177500D03*
X106210000Y-74177500D03*
X103670000Y-74177500D03*
X101130000Y-74177500D03*
X98590000Y-74177500D03*
X96050000Y-74177500D03*
X93510000Y-74177500D03*
X90970000Y-74177500D03*
X88430000Y-74177500D03*
X85890000Y-74177500D03*
X131610000Y-99577500D03*
X129070000Y-99577500D03*
X126530000Y-99577500D03*
X123990000Y-99577500D03*
X121450000Y-99577500D03*
X118910000Y-99577500D03*
X116370000Y-99577500D03*
X113830000Y-99577500D03*
X111290000Y-99577500D03*
X108750000Y-99577500D03*
X106210000Y-99577500D03*
X103670000Y-99577500D03*
X101130000Y-99577500D03*
X98590000Y-99577500D03*
X96050000Y-99577500D03*
X93510000Y-99577500D03*
X90970000Y-99577500D03*
X88430000Y-99577500D03*
X85890000Y-99577500D03*
D12*
X63000000Y-110000000D03*
D13*
X63000000Y-113500000D03*
D17*
X107857500Y-124900000D03*
D18*
X107857500Y-120400000D03*
D12*
X63000000Y-78000000D03*
D13*
X63000000Y-81500000D03*
D14*
X105850000Y-93650000D03*
D12*
X118600000Y-123000000D03*
D13*
X122100000Y-123000000D03*
X125600000Y-123000000D03*
D12*
X143550000Y-93500000D03*
D13*
X143550000Y-90000000D03*
X143550000Y-86500000D03*
D12*
X63000000Y-94000000D03*
D13*
X63000000Y-97500000D03*
D12*
X72950000Y-68500000D03*
D13*
X69450000Y-68500000D03*
D14*
X144000000Y-68000000D03*
X62500000Y-68000000D03*
D12*
X80950000Y-68500000D03*
D13*
X77450000Y-68500000D03*
D12*
X63000000Y-102000000D03*
D13*
X63000000Y-105500000D03*
D19*
X140100000Y-113000000D03*
X111000000Y-115000000D03*
X89000000Y-103100000D03*
X140100000Y-116500000D03*
X89000000Y-106750000D03*
X111000000Y-118250000D03*
M02*
