G04 #@! TF.GenerationSoftware,KiCad,Pcbnew,(6.0.2)*
G04 #@! TF.CreationDate,2023-08-04T12:43:31+02:00*
G04 #@! TF.ProjectId,PCB_Layout_MOSFET,5043425f-4c61-4796-9f75-745f4d4f5346,rev?*
G04 #@! TF.SameCoordinates,Original*
G04 #@! TF.FileFunction,Soldermask,Top*
G04 #@! TF.FilePolarity,Negative*
%FSLAX46Y46*%
G04 Gerber Fmt 4.6, Leading zero omitted, Abs format (unit mm)*
G04 Created by KiCad (PCBNEW (6.0.2)) date 2023-08-04 12:43:31*
%MOMM*%
%LPD*%
G01*
G04 APERTURE LIST*
G04 Aperture macros list*
%AMRoundRect*
0 Rectangle with rounded corners*
0 $1 Rounding radius*
0 $2 $3 $4 $5 $6 $7 $8 $9 X,Y pos of 4 corners*
0 Add a 4 corners polygon primitive as box body*
4,1,4,$2,$3,$4,$5,$6,$7,$8,$9,$2,$3,0*
0 Add four circle primitives for the rounded corners*
1,1,$1+$1,$2,$3*
1,1,$1+$1,$4,$5*
1,1,$1+$1,$6,$7*
1,1,$1+$1,$8,$9*
0 Add four rect primitives between the rounded corners*
20,1,$1+$1,$2,$3,$4,$5,0*
20,1,$1+$1,$4,$5,$6,$7,0*
20,1,$1+$1,$6,$7,$8,$9,0*
20,1,$1+$1,$8,$9,$2,$3,0*%
G04 Aperture macros list end*
%ADD10RoundRect,0.250000X0.450000X-0.262500X0.450000X0.262500X-0.450000X0.262500X-0.450000X-0.262500X0*%
%ADD11R,2.500000X1.800000*%
%ADD12R,2.400000X2.400000*%
%ADD13C,2.400000*%
%ADD14RoundRect,0.250000X-0.262500X-0.450000X0.262500X-0.450000X0.262500X0.450000X-0.262500X0.450000X0*%
%ADD15R,0.700000X1.550000*%
%ADD16C,4.300000*%
%ADD17RoundRect,0.250000X0.262500X0.450000X-0.262500X0.450000X-0.262500X-0.450000X0.262500X-0.450000X0*%
%ADD18RoundRect,0.250000X1.075000X-0.375000X1.075000X0.375000X-1.075000X0.375000X-1.075000X-0.375000X0*%
%ADD19R,1.800000X2.500000*%
%ADD20R,0.400000X0.400000*%
%ADD21R,0.400000X0.300000*%
%ADD22R,2.650000X2.200000*%
%ADD23RoundRect,0.250000X-0.450000X0.262500X-0.450000X-0.262500X0.450000X-0.262500X0.450000X0.262500X0*%
%ADD24R,0.300000X0.400000*%
%ADD25R,2.200000X2.650000*%
%ADD26RoundRect,0.250000X-0.475000X0.250000X-0.475000X-0.250000X0.475000X-0.250000X0.475000X0.250000X0*%
%ADD27RoundRect,0.250000X-1.950000X-1.000000X1.950000X-1.000000X1.950000X1.000000X-1.950000X1.000000X0*%
%ADD28R,0.300000X0.750000*%
%ADD29R,2.550000X1.850000*%
%ADD30RoundRect,0.250000X0.475000X-0.250000X0.475000X0.250000X-0.475000X0.250000X-0.475000X-0.250000X0*%
%ADD31R,1.560000X1.560000*%
%ADD32C,1.560000*%
%ADD33RoundRect,0.225000X0.250000X-0.225000X0.250000X0.225000X-0.250000X0.225000X-0.250000X-0.225000X0*%
%ADD34R,1.600000X1.400000*%
%ADD35C,1.700000*%
%ADD36C,1.800000*%
%ADD37R,2.400000X2.800000*%
%ADD38R,1.525000X0.700000*%
%ADD39RoundRect,0.218750X-0.256250X0.218750X-0.256250X-0.218750X0.256250X-0.218750X0.256250X0.218750X0*%
%ADD40RoundRect,0.200000X0.200000X0.275000X-0.200000X0.275000X-0.200000X-0.275000X0.200000X-0.275000X0*%
%ADD41RoundRect,0.225000X0.225000X0.250000X-0.225000X0.250000X-0.225000X-0.250000X0.225000X-0.250000X0*%
%ADD42RoundRect,0.250000X1.500000X0.550000X-1.500000X0.550000X-1.500000X-0.550000X1.500000X-0.550000X0*%
%ADD43RoundRect,0.225000X-0.225000X-0.250000X0.225000X-0.250000X0.225000X0.250000X-0.225000X0.250000X0*%
G04 APERTURE END LIST*
D10*
X77400000Y-83950000D03*
X77400000Y-82125000D03*
D11*
X81250000Y-117500000D03*
X77250000Y-117500000D03*
D12*
X143550000Y-105000000D03*
D13*
X143550000Y-101500000D03*
X143550000Y-98000000D03*
D10*
X80100000Y-110800000D03*
X80100000Y-108975000D03*
D14*
X78287500Y-79400000D03*
X80112500Y-79400000D03*
D12*
X125550000Y-68500000D03*
D13*
X122050000Y-68500000D03*
X118550000Y-68500000D03*
D12*
X143550000Y-116500000D03*
D13*
X143550000Y-113000000D03*
X143550000Y-109500000D03*
D14*
X106437500Y-111750000D03*
X108262500Y-111750000D03*
X118337500Y-96750000D03*
X120162500Y-96750000D03*
X83370000Y-111130000D03*
X85195000Y-111130000D03*
D15*
X89105000Y-93375000D03*
X90375000Y-93375000D03*
X91645000Y-93375000D03*
X92915000Y-93375000D03*
X94185000Y-93375000D03*
X95455000Y-93375000D03*
X96725000Y-93375000D03*
X97995000Y-93375000D03*
X97995000Y-87925000D03*
X96725000Y-87925000D03*
X95455000Y-87925000D03*
X94185000Y-87925000D03*
X92915000Y-87925000D03*
X91645000Y-87925000D03*
X90375000Y-87925000D03*
X89105000Y-87925000D03*
D12*
X95950000Y-68500000D03*
D13*
X92450000Y-68500000D03*
X88950000Y-68500000D03*
X85450000Y-68500000D03*
D16*
X144000000Y-123500000D03*
D17*
X85195000Y-109020000D03*
X83370000Y-109020000D03*
D10*
X74875000Y-88500000D03*
X74875000Y-86675000D03*
D18*
X118500000Y-113800000D03*
X118500000Y-111000000D03*
D19*
X68500000Y-81750000D03*
X68500000Y-77750000D03*
D16*
X62500000Y-123500000D03*
D20*
X74625000Y-79400000D03*
X75275000Y-79400000D03*
X75925000Y-79400000D03*
X76575000Y-79400000D03*
D21*
X76575000Y-76250000D03*
X75925000Y-76250000D03*
X75275000Y-76250000D03*
X74625000Y-76250000D03*
D22*
X75600000Y-77500000D03*
D23*
X115200000Y-69587500D03*
X115200000Y-71412500D03*
D12*
X69450000Y-123000000D03*
D13*
X72950000Y-123000000D03*
D12*
X143550000Y-82000000D03*
D13*
X143550000Y-78500000D03*
X143550000Y-75000000D03*
D20*
X75020000Y-114875000D03*
X75020000Y-114225000D03*
X75020000Y-113575000D03*
X75020000Y-112925000D03*
D24*
X71870000Y-112925000D03*
X71870000Y-113575000D03*
X71870000Y-114225000D03*
X71870000Y-114875000D03*
D25*
X73120000Y-113900000D03*
D26*
X87150000Y-87925000D03*
X87150000Y-89825000D03*
D27*
X123200000Y-113800000D03*
X131600000Y-113800000D03*
D12*
X63000000Y-86000000D03*
D13*
X63000000Y-89500000D03*
D19*
X118500000Y-108450000D03*
X118500000Y-104450000D03*
D28*
X93850000Y-117850000D03*
X94350000Y-117850000D03*
X94850000Y-117850000D03*
X95350000Y-117850000D03*
X95850000Y-117850000D03*
X95850000Y-114850000D03*
X95350000Y-114850000D03*
X94850000Y-114850000D03*
X94350000Y-114850000D03*
X93850000Y-114850000D03*
D29*
X94850000Y-116350000D03*
D14*
X105637500Y-104150000D03*
X107462500Y-104150000D03*
D12*
X137050000Y-68500000D03*
D13*
X133550000Y-68500000D03*
X130050000Y-68500000D03*
D12*
X130100000Y-123000000D03*
D13*
X133600000Y-123000000D03*
X137100000Y-123000000D03*
D30*
X131400000Y-89600000D03*
X131400000Y-87700000D03*
D20*
X83375000Y-114875000D03*
X83375000Y-114225000D03*
X83375000Y-113575000D03*
X83375000Y-112925000D03*
D24*
X80225000Y-112925000D03*
X80225000Y-113575000D03*
X80225000Y-114225000D03*
X80225000Y-114875000D03*
D25*
X81475000Y-113900000D03*
D12*
X77450000Y-123000000D03*
D13*
X80950000Y-123000000D03*
D20*
X73800000Y-94725000D03*
X73800000Y-94075000D03*
X73800000Y-93425000D03*
X73800000Y-92775000D03*
D24*
X70650000Y-92775000D03*
X70650000Y-93425000D03*
X70650000Y-94075000D03*
X70650000Y-94725000D03*
D25*
X71900000Y-93750000D03*
D19*
X68500000Y-89750000D03*
X68500000Y-85750000D03*
D31*
X131610000Y-74177500D03*
D32*
X129070000Y-74177500D03*
X126530000Y-74177500D03*
X123990000Y-74177500D03*
X121450000Y-74177500D03*
X118910000Y-74177500D03*
X116370000Y-74177500D03*
X113830000Y-74177500D03*
X111290000Y-74177500D03*
X108750000Y-74177500D03*
X106210000Y-74177500D03*
X103670000Y-74177500D03*
X101130000Y-74177500D03*
X98590000Y-74177500D03*
X96050000Y-74177500D03*
X93510000Y-74177500D03*
X90970000Y-74177500D03*
X88430000Y-74177500D03*
X85890000Y-74177500D03*
X131610000Y-99577500D03*
X129070000Y-99577500D03*
X126530000Y-99577500D03*
X123990000Y-99577500D03*
X121450000Y-99577500D03*
X118910000Y-99577500D03*
X116370000Y-99577500D03*
X113830000Y-99577500D03*
X111290000Y-99577500D03*
X108750000Y-99577500D03*
X106210000Y-99577500D03*
X103670000Y-99577500D03*
X101130000Y-99577500D03*
X98590000Y-99577500D03*
X96050000Y-99577500D03*
X93510000Y-99577500D03*
X90970000Y-99577500D03*
X88430000Y-99577500D03*
X85890000Y-99577500D03*
D33*
X94850000Y-112460000D03*
X94850000Y-110910000D03*
D20*
X73075000Y-108325000D03*
X72425000Y-108325000D03*
X71775000Y-108325000D03*
X71125000Y-108325000D03*
D21*
X71125000Y-111475000D03*
X71775000Y-111475000D03*
X72425000Y-111475000D03*
X73075000Y-111475000D03*
D22*
X72100000Y-110225000D03*
D33*
X93297500Y-112460000D03*
X93297500Y-110910000D03*
D14*
X73850000Y-98097500D03*
X75675000Y-98097500D03*
D34*
X109000000Y-69750000D03*
X101000000Y-69750000D03*
X109000000Y-65250000D03*
X101000000Y-65250000D03*
D20*
X71075000Y-80570000D03*
X71725000Y-80570000D03*
X72375000Y-80570000D03*
X73025000Y-80570000D03*
D21*
X73025000Y-77420000D03*
X72375000Y-77420000D03*
X71725000Y-77420000D03*
X71075000Y-77420000D03*
D22*
X72050000Y-78670000D03*
D17*
X80112500Y-77350000D03*
X78287500Y-77350000D03*
D20*
X82525000Y-79400000D03*
X83175000Y-79400000D03*
X83825000Y-79400000D03*
X84475000Y-79400000D03*
D21*
X84475000Y-76250000D03*
X83825000Y-76250000D03*
X83175000Y-76250000D03*
X82525000Y-76250000D03*
D22*
X83500000Y-77500000D03*
D30*
X115750000Y-107300000D03*
X115750000Y-105400000D03*
D20*
X73855000Y-101925000D03*
X73855000Y-101275000D03*
X73855000Y-100625000D03*
X73855000Y-99975000D03*
D24*
X70705000Y-99975000D03*
X70705000Y-100625000D03*
X70705000Y-101275000D03*
X70705000Y-101925000D03*
D25*
X71955000Y-100950000D03*
D19*
X68500000Y-97750000D03*
X68500000Y-93750000D03*
D33*
X96397500Y-112460000D03*
X96397500Y-110910000D03*
D15*
X129445000Y-84152500D03*
X128175000Y-84152500D03*
X126905000Y-84152500D03*
X125635000Y-84152500D03*
X124365000Y-84152500D03*
X123095000Y-84152500D03*
X121825000Y-84152500D03*
X120555000Y-84152500D03*
X120555000Y-89602500D03*
X121825000Y-89602500D03*
X123095000Y-89602500D03*
X124365000Y-89602500D03*
X125635000Y-89602500D03*
X126905000Y-89602500D03*
X128175000Y-89602500D03*
X129445000Y-89602500D03*
D12*
X63000000Y-110000000D03*
D13*
X63000000Y-113500000D03*
D23*
X76875000Y-86675000D03*
X76875000Y-88500000D03*
X75750000Y-104850000D03*
X75750000Y-106675000D03*
D35*
X107857500Y-124900000D03*
D36*
X107857500Y-120400000D03*
D37*
X102157500Y-118800000D03*
X102157500Y-124900000D03*
X113557500Y-124900000D03*
X113557500Y-118800000D03*
D12*
X63000000Y-78000000D03*
D13*
X63000000Y-81500000D03*
D38*
X113712000Y-109855000D03*
X113712000Y-108585000D03*
X113712000Y-107315000D03*
X113712000Y-106045000D03*
X108288000Y-106045000D03*
X108288000Y-107315000D03*
X108288000Y-108585000D03*
X108288000Y-109855000D03*
D17*
X87912500Y-81400000D03*
X86087500Y-81400000D03*
D11*
X73250000Y-117500000D03*
X69250000Y-117500000D03*
D17*
X97312500Y-95500000D03*
X95487500Y-95500000D03*
D16*
X105850000Y-93650000D03*
D14*
X73687500Y-83950000D03*
X75512500Y-83950000D03*
D23*
X77550000Y-98097500D03*
X77550000Y-99922500D03*
D39*
X122300000Y-104437500D03*
X122300000Y-106012500D03*
D14*
X109337500Y-67500000D03*
X111162500Y-67500000D03*
D10*
X116350000Y-78312500D03*
X116350000Y-76487500D03*
D12*
X118600000Y-123000000D03*
D13*
X122100000Y-123000000D03*
X125600000Y-123000000D03*
D14*
X122087500Y-96750000D03*
X123912500Y-96750000D03*
D11*
X77250000Y-74000000D03*
X81250000Y-74000000D03*
D12*
X143550000Y-93500000D03*
D13*
X143550000Y-90000000D03*
X143550000Y-86500000D03*
D14*
X109137500Y-104150000D03*
X110962500Y-104150000D03*
D23*
X113200000Y-69587500D03*
X113200000Y-71412500D03*
D14*
X74987500Y-92000000D03*
X76812500Y-92000000D03*
D12*
X63000000Y-94000000D03*
D13*
X63000000Y-97500000D03*
D40*
X97272500Y-119410000D03*
X95622500Y-119410000D03*
D23*
X78650000Y-92000000D03*
X78650000Y-93825000D03*
D20*
X71075000Y-88500000D03*
X71725000Y-88500000D03*
X72375000Y-88500000D03*
X73025000Y-88500000D03*
D21*
X73025000Y-85350000D03*
X72375000Y-85350000D03*
X71725000Y-85350000D03*
X71075000Y-85350000D03*
D22*
X72050000Y-86600000D03*
D41*
X94072500Y-119410000D03*
X92522500Y-119410000D03*
D23*
X111200000Y-69587500D03*
X111200000Y-71412500D03*
D14*
X86087500Y-79400000D03*
X87912500Y-79400000D03*
D12*
X72950000Y-68500000D03*
D13*
X69450000Y-68500000D03*
D16*
X144000000Y-68000000D03*
D11*
X69250000Y-74000000D03*
X73250000Y-74000000D03*
D10*
X124200000Y-106012500D03*
X124200000Y-104187500D03*
D19*
X68500000Y-105750000D03*
X68500000Y-101750000D03*
D42*
X104650000Y-109600000D03*
X99250000Y-109600000D03*
D16*
X62500000Y-68000000D03*
D14*
X71137500Y-104850000D03*
X72962500Y-104850000D03*
D43*
X97425000Y-114860000D03*
X98975000Y-114860000D03*
D17*
X127662500Y-96750000D03*
X125837500Y-96750000D03*
D12*
X80950000Y-68500000D03*
D13*
X77450000Y-68500000D03*
D12*
X63000000Y-102000000D03*
D13*
X63000000Y-105500000D03*
D19*
X68500000Y-113750000D03*
X68500000Y-109750000D03*
D14*
X76387500Y-110800000D03*
X78212500Y-110800000D03*
D41*
X92247500Y-114860000D03*
X90697500Y-114860000D03*
M02*
