G04 #@! TF.GenerationSoftware,KiCad,Pcbnew,(6.0.2)*
G04 #@! TF.CreationDate,2023-08-04T12:43:31+02:00*
G04 #@! TF.ProjectId,PCB_Layout_MOSFET,5043425f-4c61-4796-9f75-745f4d4f5346,rev?*
G04 #@! TF.SameCoordinates,Original*
G04 #@! TF.FileFunction,Legend,Top*
G04 #@! TF.FilePolarity,Positive*
%FSLAX46Y46*%
G04 Gerber Fmt 4.6, Leading zero omitted, Abs format (unit mm)*
G04 Created by KiCad (PCBNEW (6.0.2)) date 2023-08-04 12:43:31*
%MOMM*%
%LPD*%
G01*
G04 APERTURE LIST*
G04 Aperture macros list*
%AMRoundRect*
0 Rectangle with rounded corners*
0 $1 Rounding radius*
0 $2 $3 $4 $5 $6 $7 $8 $9 X,Y pos of 4 corners*
0 Add a 4 corners polygon primitive as box body*
4,1,4,$2,$3,$4,$5,$6,$7,$8,$9,$2,$3,0*
0 Add four circle primitives for the rounded corners*
1,1,$1+$1,$2,$3*
1,1,$1+$1,$4,$5*
1,1,$1+$1,$6,$7*
1,1,$1+$1,$8,$9*
0 Add four rect primitives between the rounded corners*
20,1,$1+$1,$2,$3,$4,$5,0*
20,1,$1+$1,$4,$5,$6,$7,0*
20,1,$1+$1,$6,$7,$8,$9,0*
20,1,$1+$1,$8,$9,$2,$3,0*%
G04 Aperture macros list end*
%ADD10C,0.391228*%
%ADD11C,0.100000*%
%ADD12C,0.150000*%
%ADD13C,0.200000*%
%ADD14C,0.254000*%
%ADD15C,0.120000*%
%ADD16C,0.160000*%
%ADD17C,0.250000*%
%ADD18C,0.127000*%
%ADD19C,0.400000*%
%ADD20RoundRect,0.250000X0.450000X-0.262500X0.450000X0.262500X-0.450000X0.262500X-0.450000X-0.262500X0*%
%ADD21R,2.500000X1.800000*%
%ADD22R,2.400000X2.400000*%
%ADD23C,2.400000*%
%ADD24RoundRect,0.250000X-0.262500X-0.450000X0.262500X-0.450000X0.262500X0.450000X-0.262500X0.450000X0*%
%ADD25R,0.700000X1.550000*%
%ADD26C,4.300000*%
%ADD27RoundRect,0.250000X0.262500X0.450000X-0.262500X0.450000X-0.262500X-0.450000X0.262500X-0.450000X0*%
%ADD28RoundRect,0.250000X1.075000X-0.375000X1.075000X0.375000X-1.075000X0.375000X-1.075000X-0.375000X0*%
%ADD29R,1.800000X2.500000*%
%ADD30R,0.400000X0.400000*%
%ADD31R,0.400000X0.300000*%
%ADD32R,2.650000X2.200000*%
%ADD33RoundRect,0.250000X-0.450000X0.262500X-0.450000X-0.262500X0.450000X-0.262500X0.450000X0.262500X0*%
%ADD34R,0.300000X0.400000*%
%ADD35R,2.200000X2.650000*%
%ADD36RoundRect,0.250000X-0.475000X0.250000X-0.475000X-0.250000X0.475000X-0.250000X0.475000X0.250000X0*%
%ADD37RoundRect,0.250000X-1.950000X-1.000000X1.950000X-1.000000X1.950000X1.000000X-1.950000X1.000000X0*%
%ADD38R,0.300000X0.750000*%
%ADD39R,2.550000X1.850000*%
%ADD40RoundRect,0.250000X0.475000X-0.250000X0.475000X0.250000X-0.475000X0.250000X-0.475000X-0.250000X0*%
%ADD41R,1.560000X1.560000*%
%ADD42C,1.560000*%
%ADD43RoundRect,0.225000X0.250000X-0.225000X0.250000X0.225000X-0.250000X0.225000X-0.250000X-0.225000X0*%
%ADD44R,1.600000X1.400000*%
%ADD45C,1.700000*%
%ADD46C,1.800000*%
%ADD47R,2.400000X2.800000*%
%ADD48R,1.525000X0.700000*%
%ADD49RoundRect,0.218750X-0.256250X0.218750X-0.256250X-0.218750X0.256250X-0.218750X0.256250X0.218750X0*%
%ADD50RoundRect,0.200000X0.200000X0.275000X-0.200000X0.275000X-0.200000X-0.275000X0.200000X-0.275000X0*%
%ADD51RoundRect,0.225000X0.225000X0.250000X-0.225000X0.250000X-0.225000X-0.250000X0.225000X-0.250000X0*%
%ADD52RoundRect,0.250000X1.500000X0.550000X-1.500000X0.550000X-1.500000X-0.550000X1.500000X-0.550000X0*%
%ADD53RoundRect,0.225000X-0.225000X-0.250000X0.225000X-0.250000X0.225000X0.250000X-0.225000X0.250000X0*%
G04 APERTURE END LIST*
D10*
X130995614Y-84100000D02*
G75*
G03*
X130995614Y-84100000I-195614J0D01*
G01*
X113895614Y-111300000D02*
G75*
G03*
X113895614Y-111300000I-195614J0D01*
G01*
D11*
X93600000Y-110100000D02*
X94300000Y-110500000D01*
X113100000Y-66700000D02*
X113100000Y-68900000D01*
D10*
X133795614Y-74200000D02*
G75*
G03*
X133795614Y-74200000I-195614J0D01*
G01*
X87795614Y-93400000D02*
G75*
G03*
X87795614Y-93400000I-195614J0D01*
G01*
D11*
X96100000Y-107000000D02*
X96100000Y-110100000D01*
X116000000Y-65500000D02*
X116000000Y-68700000D01*
X93600000Y-106900000D02*
X93600000Y-110100000D01*
D12*
X99957142Y-94819047D02*
X100004761Y-94866666D01*
X100052380Y-95009523D01*
X100052380Y-95104761D01*
X100004761Y-95247619D01*
X99909523Y-95342857D01*
X99814285Y-95390476D01*
X99623809Y-95438095D01*
X99480952Y-95438095D01*
X99290476Y-95390476D01*
X99195238Y-95342857D01*
X99100000Y-95247619D01*
X99052380Y-95104761D01*
X99052380Y-95009523D01*
X99100000Y-94866666D01*
X99147619Y-94819047D01*
X100052380Y-94390476D02*
X99052380Y-94390476D01*
X99052380Y-94152380D01*
X99100000Y-94009523D01*
X99195238Y-93914285D01*
X99290476Y-93866666D01*
X99480952Y-93819047D01*
X99623809Y-93819047D01*
X99814285Y-93866666D01*
X99909523Y-93914285D01*
X100004761Y-94009523D01*
X100052380Y-94152380D01*
X100052380Y-94390476D01*
X99385714Y-92961904D02*
X100052380Y-92961904D01*
X99004761Y-93200000D02*
X99719047Y-93438095D01*
X99719047Y-92819047D01*
X99052380Y-92247619D02*
X99052380Y-92152380D01*
X99100000Y-92057142D01*
X99147619Y-92009523D01*
X99242857Y-91961904D01*
X99433333Y-91914285D01*
X99671428Y-91914285D01*
X99861904Y-91961904D01*
X99957142Y-92009523D01*
X100004761Y-92057142D01*
X100052380Y-92152380D01*
X100052380Y-92247619D01*
X100004761Y-92342857D01*
X99957142Y-92390476D01*
X99861904Y-92438095D01*
X99671428Y-92485714D01*
X99433333Y-92485714D01*
X99242857Y-92438095D01*
X99147619Y-92390476D01*
X99100000Y-92342857D01*
X99052380Y-92247619D01*
X99052380Y-91009523D02*
X99052380Y-91485714D01*
X99528571Y-91533333D01*
X99480952Y-91485714D01*
X99433333Y-91390476D01*
X99433333Y-91152380D01*
X99480952Y-91057142D01*
X99528571Y-91009523D01*
X99623809Y-90961904D01*
X99861904Y-90961904D01*
X99957142Y-91009523D01*
X100004761Y-91057142D01*
X100052380Y-91152380D01*
X100052380Y-91390476D01*
X100004761Y-91485714D01*
X99957142Y-91533333D01*
X100052380Y-90009523D02*
X100052380Y-90580952D01*
X100052380Y-90295238D02*
X99052380Y-90295238D01*
X99195238Y-90390476D01*
X99290476Y-90485714D01*
X99338095Y-90580952D01*
X99528571Y-89247619D02*
X99576190Y-89104761D01*
X99623809Y-89057142D01*
X99719047Y-89009523D01*
X99861904Y-89009523D01*
X99957142Y-89057142D01*
X100004761Y-89104761D01*
X100052380Y-89200000D01*
X100052380Y-89580952D01*
X99052380Y-89580952D01*
X99052380Y-89247619D01*
X99100000Y-89152380D01*
X99147619Y-89104761D01*
X99242857Y-89057142D01*
X99338095Y-89057142D01*
X99433333Y-89104761D01*
X99480952Y-89152380D01*
X99528571Y-89247619D01*
X99528571Y-89580952D01*
X100052380Y-88580952D02*
X99052380Y-88580952D01*
X99766666Y-88247619D01*
X99052380Y-87914285D01*
X100052380Y-87914285D01*
X100052380Y-87390476D02*
X100052380Y-87200000D01*
X100004761Y-87104761D01*
X99957142Y-87057142D01*
X99814285Y-86961904D01*
X99623809Y-86914285D01*
X99242857Y-86914285D01*
X99147619Y-86961904D01*
X99100000Y-87009523D01*
X99052380Y-87104761D01*
X99052380Y-87295238D01*
X99100000Y-87390476D01*
X99147619Y-87438095D01*
X99242857Y-87485714D01*
X99480952Y-87485714D01*
X99576190Y-87438095D01*
X99623809Y-87390476D01*
X99671428Y-87295238D01*
X99671428Y-87104761D01*
X99623809Y-87009523D01*
X99576190Y-86961904D01*
X99480952Y-86914285D01*
X99052380Y-86057142D02*
X99052380Y-86247619D01*
X99100000Y-86342857D01*
X99147619Y-86390476D01*
X99290476Y-86485714D01*
X99480952Y-86533333D01*
X99861904Y-86533333D01*
X99957142Y-86485714D01*
X100004761Y-86438095D01*
X100052380Y-86342857D01*
X100052380Y-86152380D01*
X100004761Y-86057142D01*
X99957142Y-86009523D01*
X99861904Y-85961904D01*
X99623809Y-85961904D01*
X99528571Y-86009523D01*
X99480952Y-86057142D01*
X99433333Y-86152380D01*
X99433333Y-86342857D01*
X99480952Y-86438095D01*
X99528571Y-86485714D01*
X99623809Y-86533333D01*
X138299761Y-116190476D02*
X138347380Y-116047619D01*
X138347380Y-115809523D01*
X138299761Y-115714285D01*
X138252142Y-115666666D01*
X138156904Y-115619047D01*
X138061666Y-115619047D01*
X137966428Y-115666666D01*
X137918809Y-115714285D01*
X137871190Y-115809523D01*
X137823571Y-116000000D01*
X137775952Y-116095238D01*
X137728333Y-116142857D01*
X137633095Y-116190476D01*
X137537857Y-116190476D01*
X137442619Y-116142857D01*
X137395000Y-116095238D01*
X137347380Y-116000000D01*
X137347380Y-115761904D01*
X137395000Y-115619047D01*
X138299761Y-114809523D02*
X138347380Y-114904761D01*
X138347380Y-115095238D01*
X138299761Y-115190476D01*
X138204523Y-115238095D01*
X137823571Y-115238095D01*
X137728333Y-115190476D01*
X137680714Y-115095238D01*
X137680714Y-114904761D01*
X137728333Y-114809523D01*
X137823571Y-114761904D01*
X137918809Y-114761904D01*
X138014047Y-115238095D01*
X137680714Y-114333333D02*
X138347380Y-114333333D01*
X137775952Y-114333333D02*
X137728333Y-114285714D01*
X137680714Y-114190476D01*
X137680714Y-114047619D01*
X137728333Y-113952380D01*
X137823571Y-113904761D01*
X138347380Y-113904761D01*
X138299761Y-113476190D02*
X138347380Y-113380952D01*
X138347380Y-113190476D01*
X138299761Y-113095238D01*
X138204523Y-113047619D01*
X138156904Y-113047619D01*
X138061666Y-113095238D01*
X138014047Y-113190476D01*
X138014047Y-113333333D01*
X137966428Y-113428571D01*
X137871190Y-113476190D01*
X137823571Y-113476190D01*
X137728333Y-113428571D01*
X137680714Y-113333333D01*
X137680714Y-113190476D01*
X137728333Y-113095238D01*
X138347380Y-112476190D02*
X138299761Y-112571428D01*
X138252142Y-112619047D01*
X138156904Y-112666666D01*
X137871190Y-112666666D01*
X137775952Y-112619047D01*
X137728333Y-112571428D01*
X137680714Y-112476190D01*
X137680714Y-112333333D01*
X137728333Y-112238095D01*
X137775952Y-112190476D01*
X137871190Y-112142857D01*
X138156904Y-112142857D01*
X138252142Y-112190476D01*
X138299761Y-112238095D01*
X138347380Y-112333333D01*
X138347380Y-112476190D01*
X138347380Y-111714285D02*
X137680714Y-111714285D01*
X137871190Y-111714285D02*
X137775952Y-111666666D01*
X137728333Y-111619047D01*
X137680714Y-111523809D01*
X137680714Y-111428571D01*
X137347380Y-109904761D02*
X137347380Y-110095238D01*
X137395000Y-110190476D01*
X137442619Y-110238095D01*
X137585476Y-110333333D01*
X137775952Y-110380952D01*
X138156904Y-110380952D01*
X138252142Y-110333333D01*
X138299761Y-110285714D01*
X138347380Y-110190476D01*
X138347380Y-110000000D01*
X138299761Y-109904761D01*
X138252142Y-109857142D01*
X138156904Y-109809523D01*
X137918809Y-109809523D01*
X137823571Y-109857142D01*
X137775952Y-109904761D01*
X137728333Y-110000000D01*
X137728333Y-110190476D01*
X137775952Y-110285714D01*
X137823571Y-110333333D01*
X137918809Y-110380952D01*
X139005000Y-117642857D02*
X138957380Y-117738095D01*
X138957380Y-117880952D01*
X139005000Y-118023809D01*
X139100238Y-118119047D01*
X139195476Y-118166666D01*
X139385952Y-118214285D01*
X139528809Y-118214285D01*
X139719285Y-118166666D01*
X139814523Y-118119047D01*
X139909761Y-118023809D01*
X139957380Y-117880952D01*
X139957380Y-117785714D01*
X139909761Y-117642857D01*
X139862142Y-117595238D01*
X139528809Y-117595238D01*
X139528809Y-117785714D01*
X139957380Y-117166666D02*
X138957380Y-117166666D01*
X139957380Y-116595238D01*
X138957380Y-116595238D01*
X139957380Y-116119047D02*
X138957380Y-116119047D01*
X138957380Y-115880952D01*
X139005000Y-115738095D01*
X139100238Y-115642857D01*
X139195476Y-115595238D01*
X139385952Y-115547619D01*
X139528809Y-115547619D01*
X139719285Y-115595238D01*
X139814523Y-115642857D01*
X139909761Y-115738095D01*
X139957380Y-115880952D01*
X139957380Y-116119047D01*
X138957380Y-114452380D02*
X138957380Y-113833333D01*
X139338333Y-114166666D01*
X139338333Y-114023809D01*
X139385952Y-113928571D01*
X139433571Y-113880952D01*
X139528809Y-113833333D01*
X139766904Y-113833333D01*
X139862142Y-113880952D01*
X139909761Y-113928571D01*
X139957380Y-114023809D01*
X139957380Y-114309523D01*
X139909761Y-114404761D01*
X139862142Y-114452380D01*
X138957380Y-113547619D02*
X139957380Y-113214285D01*
X138957380Y-112880952D01*
X138957380Y-112642857D02*
X138957380Y-112023809D01*
X139338333Y-112357142D01*
X139338333Y-112214285D01*
X139385952Y-112119047D01*
X139433571Y-112071428D01*
X139528809Y-112023809D01*
X139766904Y-112023809D01*
X139862142Y-112071428D01*
X139909761Y-112119047D01*
X139957380Y-112214285D01*
X139957380Y-112500000D01*
X139909761Y-112595238D01*
X139862142Y-112642857D01*
X139957380Y-110833333D02*
X138957380Y-110833333D01*
X138957380Y-110595238D01*
X139005000Y-110452380D01*
X139100238Y-110357142D01*
X139195476Y-110309523D01*
X139385952Y-110261904D01*
X139528809Y-110261904D01*
X139719285Y-110309523D01*
X139814523Y-110357142D01*
X139909761Y-110452380D01*
X139957380Y-110595238D01*
X139957380Y-110833333D01*
X139671666Y-109880952D02*
X139671666Y-109404761D01*
X139957380Y-109976190D02*
X138957380Y-109642857D01*
X139957380Y-109309523D01*
X138957380Y-109119047D02*
X138957380Y-108547619D01*
X139957380Y-108833333D02*
X138957380Y-108833333D01*
X139671666Y-108261904D02*
X139671666Y-107785714D01*
X139957380Y-108357142D02*
X138957380Y-108023809D01*
X139957380Y-107690476D01*
X119407142Y-91219047D02*
X119454761Y-91266666D01*
X119502380Y-91409523D01*
X119502380Y-91504761D01*
X119454761Y-91647619D01*
X119359523Y-91742857D01*
X119264285Y-91790476D01*
X119073809Y-91838095D01*
X118930952Y-91838095D01*
X118740476Y-91790476D01*
X118645238Y-91742857D01*
X118550000Y-91647619D01*
X118502380Y-91504761D01*
X118502380Y-91409523D01*
X118550000Y-91266666D01*
X118597619Y-91219047D01*
X119502380Y-90790476D02*
X118502380Y-90790476D01*
X118502380Y-90552380D01*
X118550000Y-90409523D01*
X118645238Y-90314285D01*
X118740476Y-90266666D01*
X118930952Y-90219047D01*
X119073809Y-90219047D01*
X119264285Y-90266666D01*
X119359523Y-90314285D01*
X119454761Y-90409523D01*
X119502380Y-90552380D01*
X119502380Y-90790476D01*
X118835714Y-89361904D02*
X119502380Y-89361904D01*
X118454761Y-89600000D02*
X119169047Y-89838095D01*
X119169047Y-89219047D01*
X118502380Y-88647619D02*
X118502380Y-88552380D01*
X118550000Y-88457142D01*
X118597619Y-88409523D01*
X118692857Y-88361904D01*
X118883333Y-88314285D01*
X119121428Y-88314285D01*
X119311904Y-88361904D01*
X119407142Y-88409523D01*
X119454761Y-88457142D01*
X119502380Y-88552380D01*
X119502380Y-88647619D01*
X119454761Y-88742857D01*
X119407142Y-88790476D01*
X119311904Y-88838095D01*
X119121428Y-88885714D01*
X118883333Y-88885714D01*
X118692857Y-88838095D01*
X118597619Y-88790476D01*
X118550000Y-88742857D01*
X118502380Y-88647619D01*
X118502380Y-87409523D02*
X118502380Y-87885714D01*
X118978571Y-87933333D01*
X118930952Y-87885714D01*
X118883333Y-87790476D01*
X118883333Y-87552380D01*
X118930952Y-87457142D01*
X118978571Y-87409523D01*
X119073809Y-87361904D01*
X119311904Y-87361904D01*
X119407142Y-87409523D01*
X119454761Y-87457142D01*
X119502380Y-87552380D01*
X119502380Y-87790476D01*
X119454761Y-87885714D01*
X119407142Y-87933333D01*
X119502380Y-86409523D02*
X119502380Y-86980952D01*
X119502380Y-86695238D02*
X118502380Y-86695238D01*
X118645238Y-86790476D01*
X118740476Y-86885714D01*
X118788095Y-86980952D01*
X118978571Y-85647619D02*
X119026190Y-85504761D01*
X119073809Y-85457142D01*
X119169047Y-85409523D01*
X119311904Y-85409523D01*
X119407142Y-85457142D01*
X119454761Y-85504761D01*
X119502380Y-85600000D01*
X119502380Y-85980952D01*
X118502380Y-85980952D01*
X118502380Y-85647619D01*
X118550000Y-85552380D01*
X118597619Y-85504761D01*
X118692857Y-85457142D01*
X118788095Y-85457142D01*
X118883333Y-85504761D01*
X118930952Y-85552380D01*
X118978571Y-85647619D01*
X118978571Y-85980952D01*
X119502380Y-84980952D02*
X118502380Y-84980952D01*
X119216666Y-84647619D01*
X118502380Y-84314285D01*
X119502380Y-84314285D01*
X119502380Y-83790476D02*
X119502380Y-83600000D01*
X119454761Y-83504761D01*
X119407142Y-83457142D01*
X119264285Y-83361904D01*
X119073809Y-83314285D01*
X118692857Y-83314285D01*
X118597619Y-83361904D01*
X118550000Y-83409523D01*
X118502380Y-83504761D01*
X118502380Y-83695238D01*
X118550000Y-83790476D01*
X118597619Y-83838095D01*
X118692857Y-83885714D01*
X118930952Y-83885714D01*
X119026190Y-83838095D01*
X119073809Y-83790476D01*
X119121428Y-83695238D01*
X119121428Y-83504761D01*
X119073809Y-83409523D01*
X119026190Y-83361904D01*
X118930952Y-83314285D01*
X118502380Y-82457142D02*
X118502380Y-82647619D01*
X118550000Y-82742857D01*
X118597619Y-82790476D01*
X118740476Y-82885714D01*
X118930952Y-82933333D01*
X119311904Y-82933333D01*
X119407142Y-82885714D01*
X119454761Y-82838095D01*
X119502380Y-82742857D01*
X119502380Y-82552380D01*
X119454761Y-82457142D01*
X119407142Y-82409523D01*
X119311904Y-82361904D01*
X119073809Y-82361904D01*
X118978571Y-82409523D01*
X118930952Y-82457142D01*
X118883333Y-82552380D01*
X118883333Y-82742857D01*
X118930952Y-82838095D01*
X118978571Y-82885714D01*
X119073809Y-82933333D01*
D13*
X96162857Y-122463928D02*
X96234285Y-122392500D01*
X96377142Y-122321071D01*
X96734285Y-122321071D01*
X96877142Y-122392500D01*
X96948571Y-122463928D01*
X97020000Y-122606785D01*
X97020000Y-122749642D01*
X96948571Y-122963928D01*
X96091428Y-123821071D01*
X97020000Y-123821071D01*
X98305714Y-122821071D02*
X98305714Y-123821071D01*
X97948571Y-122249642D02*
X97591428Y-123321071D01*
X98520000Y-123321071D01*
X98877142Y-122321071D02*
X99377142Y-123821071D01*
X99877142Y-122321071D01*
X94734285Y-126236071D02*
X94734285Y-125236071D01*
X94734285Y-124736071D02*
X94662857Y-124807500D01*
X94734285Y-124878928D01*
X94805714Y-124807500D01*
X94734285Y-124736071D01*
X94734285Y-124878928D01*
X95448571Y-125236071D02*
X95448571Y-126236071D01*
X95448571Y-125378928D02*
X95520000Y-125307500D01*
X95662857Y-125236071D01*
X95877142Y-125236071D01*
X96020000Y-125307500D01*
X96091428Y-125450357D01*
X96091428Y-126236071D01*
X96805714Y-125236071D02*
X96805714Y-126736071D01*
X96805714Y-125307500D02*
X96948571Y-125236071D01*
X97234285Y-125236071D01*
X97377142Y-125307500D01*
X97448571Y-125378928D01*
X97520000Y-125521785D01*
X97520000Y-125950357D01*
X97448571Y-126093214D01*
X97377142Y-126164642D01*
X97234285Y-126236071D01*
X96948571Y-126236071D01*
X96805714Y-126164642D01*
X98805714Y-125236071D02*
X98805714Y-126236071D01*
X98162857Y-125236071D02*
X98162857Y-126021785D01*
X98234285Y-126164642D01*
X98377142Y-126236071D01*
X98591428Y-126236071D01*
X98734285Y-126164642D01*
X98805714Y-126093214D01*
X99305714Y-125236071D02*
X99877142Y-125236071D01*
X99520000Y-124736071D02*
X99520000Y-126021785D01*
X99591428Y-126164642D01*
X99734285Y-126236071D01*
X99877142Y-126236071D01*
D12*
X86895238Y-101703571D02*
X87228571Y-101703571D01*
X87371428Y-102227380D02*
X86895238Y-102227380D01*
X86895238Y-101227380D01*
X87371428Y-101227380D01*
X87752380Y-102179761D02*
X87895238Y-102227380D01*
X88133333Y-102227380D01*
X88228571Y-102179761D01*
X88276190Y-102132142D01*
X88323809Y-102036904D01*
X88323809Y-101941666D01*
X88276190Y-101846428D01*
X88228571Y-101798809D01*
X88133333Y-101751190D01*
X87942857Y-101703571D01*
X87847619Y-101655952D01*
X87800000Y-101608333D01*
X87752380Y-101513095D01*
X87752380Y-101417857D01*
X87800000Y-101322619D01*
X87847619Y-101275000D01*
X87942857Y-101227380D01*
X88180952Y-101227380D01*
X88323809Y-101275000D01*
X88752380Y-102227380D02*
X88752380Y-101227380D01*
X89133333Y-101227380D01*
X89228571Y-101275000D01*
X89276190Y-101322619D01*
X89323809Y-101417857D01*
X89323809Y-101560714D01*
X89276190Y-101655952D01*
X89228571Y-101703571D01*
X89133333Y-101751190D01*
X88752380Y-101751190D01*
X89657142Y-101227380D02*
X90276190Y-101227380D01*
X89942857Y-101608333D01*
X90085714Y-101608333D01*
X90180952Y-101655952D01*
X90228571Y-101703571D01*
X90276190Y-101798809D01*
X90276190Y-102036904D01*
X90228571Y-102132142D01*
X90180952Y-102179761D01*
X90085714Y-102227380D01*
X89800000Y-102227380D01*
X89704761Y-102179761D01*
X89657142Y-102132142D01*
X90657142Y-101322619D02*
X90704761Y-101275000D01*
X90800000Y-101227380D01*
X91038095Y-101227380D01*
X91133333Y-101275000D01*
X91180952Y-101322619D01*
X91228571Y-101417857D01*
X91228571Y-101513095D01*
X91180952Y-101655952D01*
X90609523Y-102227380D01*
X91228571Y-102227380D01*
X92419047Y-102227380D02*
X92419047Y-101227380D01*
X92657142Y-101227380D01*
X92800000Y-101275000D01*
X92895238Y-101370238D01*
X92942857Y-101465476D01*
X92990476Y-101655952D01*
X92990476Y-101798809D01*
X92942857Y-101989285D01*
X92895238Y-102084523D01*
X92800000Y-102179761D01*
X92657142Y-102227380D01*
X92419047Y-102227380D01*
X93800000Y-102179761D02*
X93704761Y-102227380D01*
X93514285Y-102227380D01*
X93419047Y-102179761D01*
X93371428Y-102084523D01*
X93371428Y-101703571D01*
X93419047Y-101608333D01*
X93514285Y-101560714D01*
X93704761Y-101560714D01*
X93800000Y-101608333D01*
X93847619Y-101703571D01*
X93847619Y-101798809D01*
X93371428Y-101894047D01*
X94180952Y-101560714D02*
X94419047Y-102227380D01*
X94657142Y-101560714D01*
X95800000Y-102227380D02*
X95800000Y-101227380D01*
X96371428Y-102227380D02*
X95942857Y-101655952D01*
X96371428Y-101227380D02*
X95800000Y-101798809D01*
X96800000Y-102227380D02*
X96800000Y-101560714D01*
X96800000Y-101227380D02*
X96752380Y-101275000D01*
X96800000Y-101322619D01*
X96847619Y-101275000D01*
X96800000Y-101227380D01*
X96800000Y-101322619D01*
X97133333Y-101560714D02*
X97514285Y-101560714D01*
X97276190Y-101227380D02*
X97276190Y-102084523D01*
X97323809Y-102179761D01*
X97419047Y-102227380D01*
X97514285Y-102227380D01*
X99180952Y-102132142D02*
X99133333Y-102179761D01*
X98990476Y-102227380D01*
X98895238Y-102227380D01*
X98752380Y-102179761D01*
X98657142Y-102084523D01*
X98609523Y-101989285D01*
X98561904Y-101798809D01*
X98561904Y-101655952D01*
X98609523Y-101465476D01*
X98657142Y-101370238D01*
X98752380Y-101275000D01*
X98895238Y-101227380D01*
X98990476Y-101227380D01*
X99133333Y-101275000D01*
X99180952Y-101322619D01*
X100228571Y-101227380D02*
X100561904Y-102227380D01*
X100895238Y-101227380D01*
X101657142Y-101560714D02*
X101657142Y-102227380D01*
X101419047Y-101179761D02*
X101180952Y-101894047D01*
X101799999Y-101894047D01*
X78983333Y-83477380D02*
X78650000Y-83001190D01*
X78411904Y-83477380D02*
X78411904Y-82477380D01*
X78792857Y-82477380D01*
X78888095Y-82525000D01*
X78935714Y-82572619D01*
X78983333Y-82667857D01*
X78983333Y-82810714D01*
X78935714Y-82905952D01*
X78888095Y-82953571D01*
X78792857Y-83001190D01*
X78411904Y-83001190D01*
X79364285Y-82572619D02*
X79411904Y-82525000D01*
X79507142Y-82477380D01*
X79745238Y-82477380D01*
X79840476Y-82525000D01*
X79888095Y-82572619D01*
X79935714Y-82667857D01*
X79935714Y-82763095D01*
X79888095Y-82905952D01*
X79316666Y-83477380D01*
X79935714Y-83477380D01*
X82861904Y-117952380D02*
X82861904Y-116952380D01*
X83100000Y-116952380D01*
X83242857Y-117000000D01*
X83338095Y-117095238D01*
X83385714Y-117190476D01*
X83433333Y-117380952D01*
X83433333Y-117523809D01*
X83385714Y-117714285D01*
X83338095Y-117809523D01*
X83242857Y-117904761D01*
X83100000Y-117952380D01*
X82861904Y-117952380D01*
X84004761Y-117380952D02*
X83909523Y-117333333D01*
X83861904Y-117285714D01*
X83814285Y-117190476D01*
X83814285Y-117142857D01*
X83861904Y-117047619D01*
X83909523Y-117000000D01*
X84004761Y-116952380D01*
X84195238Y-116952380D01*
X84290476Y-117000000D01*
X84338095Y-117047619D01*
X84385714Y-117142857D01*
X84385714Y-117190476D01*
X84338095Y-117285714D01*
X84290476Y-117333333D01*
X84195238Y-117380952D01*
X84004761Y-117380952D01*
X83909523Y-117428571D01*
X83861904Y-117476190D01*
X83814285Y-117571428D01*
X83814285Y-117761904D01*
X83861904Y-117857142D01*
X83909523Y-117904761D01*
X84004761Y-117952380D01*
X84195238Y-117952380D01*
X84290476Y-117904761D01*
X84338095Y-117857142D01*
X84385714Y-117761904D01*
X84385714Y-117571428D01*
X84338095Y-117476190D01*
X84290476Y-117428571D01*
X84195238Y-117380952D01*
X79457142Y-108012380D02*
X79123809Y-107536190D01*
X78885714Y-108012380D02*
X78885714Y-107012380D01*
X79266666Y-107012380D01*
X79361904Y-107060000D01*
X79409523Y-107107619D01*
X79457142Y-107202857D01*
X79457142Y-107345714D01*
X79409523Y-107440952D01*
X79361904Y-107488571D01*
X79266666Y-107536190D01*
X78885714Y-107536190D01*
X80409523Y-108012380D02*
X79838095Y-108012380D01*
X80123809Y-108012380D02*
X80123809Y-107012380D01*
X80028571Y-107155238D01*
X79933333Y-107250476D01*
X79838095Y-107298095D01*
X81361904Y-108012380D02*
X80790476Y-108012380D01*
X81076190Y-108012380D02*
X81076190Y-107012380D01*
X80980952Y-107155238D01*
X80885714Y-107250476D01*
X80790476Y-107298095D01*
X79033333Y-81452380D02*
X78700000Y-80976190D01*
X78461904Y-81452380D02*
X78461904Y-80452380D01*
X78842857Y-80452380D01*
X78938095Y-80500000D01*
X78985714Y-80547619D01*
X79033333Y-80642857D01*
X79033333Y-80785714D01*
X78985714Y-80880952D01*
X78938095Y-80928571D01*
X78842857Y-80976190D01*
X78461904Y-80976190D01*
X79938095Y-80452380D02*
X79461904Y-80452380D01*
X79414285Y-80928571D01*
X79461904Y-80880952D01*
X79557142Y-80833333D01*
X79795238Y-80833333D01*
X79890476Y-80880952D01*
X79938095Y-80928571D01*
X79985714Y-81023809D01*
X79985714Y-81261904D01*
X79938095Y-81357142D01*
X79890476Y-81404761D01*
X79795238Y-81452380D01*
X79557142Y-81452380D01*
X79461904Y-81404761D01*
X79414285Y-81357142D01*
X109857142Y-112252380D02*
X109523809Y-111776190D01*
X109285714Y-112252380D02*
X109285714Y-111252380D01*
X109666666Y-111252380D01*
X109761904Y-111300000D01*
X109809523Y-111347619D01*
X109857142Y-111442857D01*
X109857142Y-111585714D01*
X109809523Y-111680952D01*
X109761904Y-111728571D01*
X109666666Y-111776190D01*
X109285714Y-111776190D01*
X110238095Y-111347619D02*
X110285714Y-111300000D01*
X110380952Y-111252380D01*
X110619047Y-111252380D01*
X110714285Y-111300000D01*
X110761904Y-111347619D01*
X110809523Y-111442857D01*
X110809523Y-111538095D01*
X110761904Y-111680952D01*
X110190476Y-112252380D01*
X110809523Y-112252380D01*
X111190476Y-111347619D02*
X111238095Y-111300000D01*
X111333333Y-111252380D01*
X111571428Y-111252380D01*
X111666666Y-111300000D01*
X111714285Y-111347619D01*
X111761904Y-111442857D01*
X111761904Y-111538095D01*
X111714285Y-111680952D01*
X111142857Y-112252380D01*
X111761904Y-112252380D01*
X119457142Y-95652380D02*
X119123809Y-95176190D01*
X118885714Y-95652380D02*
X118885714Y-94652380D01*
X119266666Y-94652380D01*
X119361904Y-94700000D01*
X119409523Y-94747619D01*
X119457142Y-94842857D01*
X119457142Y-94985714D01*
X119409523Y-95080952D01*
X119361904Y-95128571D01*
X119266666Y-95176190D01*
X118885714Y-95176190D01*
X119838095Y-94747619D02*
X119885714Y-94700000D01*
X119980952Y-94652380D01*
X120219047Y-94652380D01*
X120314285Y-94700000D01*
X120361904Y-94747619D01*
X120409523Y-94842857D01*
X120409523Y-94938095D01*
X120361904Y-95080952D01*
X119790476Y-95652380D01*
X120409523Y-95652380D01*
X120742857Y-94652380D02*
X121409523Y-94652380D01*
X120980952Y-95652380D01*
X86697142Y-111582380D02*
X86363809Y-111106190D01*
X86125714Y-111582380D02*
X86125714Y-110582380D01*
X86506666Y-110582380D01*
X86601904Y-110630000D01*
X86649523Y-110677619D01*
X86697142Y-110772857D01*
X86697142Y-110915714D01*
X86649523Y-111010952D01*
X86601904Y-111058571D01*
X86506666Y-111106190D01*
X86125714Y-111106190D01*
X87649523Y-111582380D02*
X87078095Y-111582380D01*
X87363809Y-111582380D02*
X87363809Y-110582380D01*
X87268571Y-110725238D01*
X87173333Y-110820476D01*
X87078095Y-110868095D01*
X88506666Y-110582380D02*
X88316190Y-110582380D01*
X88220952Y-110630000D01*
X88173333Y-110677619D01*
X88078095Y-110820476D01*
X88030476Y-111010952D01*
X88030476Y-111391904D01*
X88078095Y-111487142D01*
X88125714Y-111534761D01*
X88220952Y-111582380D01*
X88411428Y-111582380D01*
X88506666Y-111534761D01*
X88554285Y-111487142D01*
X88601904Y-111391904D01*
X88601904Y-111153809D01*
X88554285Y-111058571D01*
X88506666Y-111010952D01*
X88411428Y-110963333D01*
X88220952Y-110963333D01*
X88125714Y-111010952D01*
X88078095Y-111058571D01*
X88030476Y-111153809D01*
D14*
X94124523Y-91889761D02*
X92854523Y-91889761D01*
X94003571Y-90559285D02*
X94064047Y-90619761D01*
X94124523Y-90801190D01*
X94124523Y-90922142D01*
X94064047Y-91103571D01*
X93943095Y-91224523D01*
X93822142Y-91285000D01*
X93580238Y-91345476D01*
X93398809Y-91345476D01*
X93156904Y-91285000D01*
X93035952Y-91224523D01*
X92915000Y-91103571D01*
X92854523Y-90922142D01*
X92854523Y-90801190D01*
X92915000Y-90619761D01*
X92975476Y-90559285D01*
X93277857Y-89470714D02*
X94124523Y-89470714D01*
X92794047Y-89773095D02*
X93701190Y-90075476D01*
X93701190Y-89289285D01*
D12*
X86699642Y-109472380D02*
X86366309Y-108996190D01*
X86128214Y-109472380D02*
X86128214Y-108472380D01*
X86509166Y-108472380D01*
X86604404Y-108520000D01*
X86652023Y-108567619D01*
X86699642Y-108662857D01*
X86699642Y-108805714D01*
X86652023Y-108900952D01*
X86604404Y-108948571D01*
X86509166Y-108996190D01*
X86128214Y-108996190D01*
X87652023Y-109472380D02*
X87080595Y-109472380D01*
X87366309Y-109472380D02*
X87366309Y-108472380D01*
X87271071Y-108615238D01*
X87175833Y-108710476D01*
X87080595Y-108758095D01*
X88032976Y-108567619D02*
X88080595Y-108520000D01*
X88175833Y-108472380D01*
X88413928Y-108472380D01*
X88509166Y-108520000D01*
X88556785Y-108567619D01*
X88604404Y-108662857D01*
X88604404Y-108758095D01*
X88556785Y-108900952D01*
X87985357Y-109472380D01*
X88604404Y-109472380D01*
X74708333Y-86002380D02*
X74375000Y-85526190D01*
X74136904Y-86002380D02*
X74136904Y-85002380D01*
X74517857Y-85002380D01*
X74613095Y-85050000D01*
X74660714Y-85097619D01*
X74708333Y-85192857D01*
X74708333Y-85335714D01*
X74660714Y-85430952D01*
X74613095Y-85478571D01*
X74517857Y-85526190D01*
X74136904Y-85526190D01*
X75041666Y-85002380D02*
X75708333Y-85002380D01*
X75279761Y-86002380D01*
X118333333Y-115852380D02*
X117857142Y-115852380D01*
X117857142Y-114852380D01*
X119190476Y-115852380D02*
X118619047Y-115852380D01*
X118904761Y-115852380D02*
X118904761Y-114852380D01*
X118809523Y-114995238D01*
X118714285Y-115090476D01*
X118619047Y-115138095D01*
X67771904Y-84342380D02*
X67771904Y-83342380D01*
X68010000Y-83342380D01*
X68152857Y-83390000D01*
X68248095Y-83485238D01*
X68295714Y-83580476D01*
X68343333Y-83770952D01*
X68343333Y-83913809D01*
X68295714Y-84104285D01*
X68248095Y-84199523D01*
X68152857Y-84294761D01*
X68010000Y-84342380D01*
X67771904Y-84342380D01*
X68724285Y-83437619D02*
X68771904Y-83390000D01*
X68867142Y-83342380D01*
X69105238Y-83342380D01*
X69200476Y-83390000D01*
X69248095Y-83437619D01*
X69295714Y-83532857D01*
X69295714Y-83628095D01*
X69248095Y-83770952D01*
X68676666Y-84342380D01*
X69295714Y-84342380D01*
X114557142Y-65152380D02*
X114223809Y-64676190D01*
X113985714Y-65152380D02*
X113985714Y-64152380D01*
X114366666Y-64152380D01*
X114461904Y-64200000D01*
X114509523Y-64247619D01*
X114557142Y-64342857D01*
X114557142Y-64485714D01*
X114509523Y-64580952D01*
X114461904Y-64628571D01*
X114366666Y-64676190D01*
X113985714Y-64676190D01*
X114890476Y-64152380D02*
X115509523Y-64152380D01*
X115176190Y-64533333D01*
X115319047Y-64533333D01*
X115414285Y-64580952D01*
X115461904Y-64628571D01*
X115509523Y-64723809D01*
X115509523Y-64961904D01*
X115461904Y-65057142D01*
X115414285Y-65104761D01*
X115319047Y-65152380D01*
X115033333Y-65152380D01*
X114938095Y-65104761D01*
X114890476Y-65057142D01*
X116461904Y-65152380D02*
X115890476Y-65152380D01*
X116176190Y-65152380D02*
X116176190Y-64152380D01*
X116080952Y-64295238D01*
X115985714Y-64390476D01*
X115890476Y-64438095D01*
X86457142Y-86857142D02*
X86409523Y-86904761D01*
X86266666Y-86952380D01*
X86171428Y-86952380D01*
X86028571Y-86904761D01*
X85933333Y-86809523D01*
X85885714Y-86714285D01*
X85838095Y-86523809D01*
X85838095Y-86380952D01*
X85885714Y-86190476D01*
X85933333Y-86095238D01*
X86028571Y-86000000D01*
X86171428Y-85952380D01*
X86266666Y-85952380D01*
X86409523Y-86000000D01*
X86457142Y-86047619D01*
X87409523Y-86952380D02*
X86838095Y-86952380D01*
X87123809Y-86952380D02*
X87123809Y-85952380D01*
X87028571Y-86095238D01*
X86933333Y-86190476D01*
X86838095Y-86238095D01*
X88361904Y-86952380D02*
X87790476Y-86952380D01*
X88076190Y-86952380D02*
X88076190Y-85952380D01*
X87980952Y-86095238D01*
X87885714Y-86190476D01*
X87790476Y-86238095D01*
X127233333Y-107857142D02*
X127185714Y-107904761D01*
X127042857Y-107952380D01*
X126947619Y-107952380D01*
X126804761Y-107904761D01*
X126709523Y-107809523D01*
X126661904Y-107714285D01*
X126614285Y-107523809D01*
X126614285Y-107380952D01*
X126661904Y-107190476D01*
X126709523Y-107095238D01*
X126804761Y-107000000D01*
X126947619Y-106952380D01*
X127042857Y-106952380D01*
X127185714Y-107000000D01*
X127233333Y-107047619D01*
X127709523Y-107952380D02*
X127900000Y-107952380D01*
X127995238Y-107904761D01*
X128042857Y-107857142D01*
X128138095Y-107714285D01*
X128185714Y-107523809D01*
X128185714Y-107142857D01*
X128138095Y-107047619D01*
X128090476Y-107000000D01*
X127995238Y-106952380D01*
X127804761Y-106952380D01*
X127709523Y-107000000D01*
X127661904Y-107047619D01*
X127614285Y-107142857D01*
X127614285Y-107380952D01*
X127661904Y-107476190D01*
X127709523Y-107523809D01*
X127804761Y-107571428D01*
X127995238Y-107571428D01*
X128090476Y-107523809D01*
X128138095Y-107476190D01*
X128185714Y-107380952D01*
X117285714Y-102752380D02*
X117285714Y-101752380D01*
X117523809Y-101752380D01*
X117666666Y-101800000D01*
X117761904Y-101895238D01*
X117809523Y-101990476D01*
X117857142Y-102180952D01*
X117857142Y-102323809D01*
X117809523Y-102514285D01*
X117761904Y-102609523D01*
X117666666Y-102704761D01*
X117523809Y-102752380D01*
X117285714Y-102752380D01*
X118809523Y-102752380D02*
X118238095Y-102752380D01*
X118523809Y-102752380D02*
X118523809Y-101752380D01*
X118428571Y-101895238D01*
X118333333Y-101990476D01*
X118238095Y-102038095D01*
X119428571Y-101752380D02*
X119523809Y-101752380D01*
X119619047Y-101800000D01*
X119666666Y-101847619D01*
X119714285Y-101942857D01*
X119761904Y-102133333D01*
X119761904Y-102371428D01*
X119714285Y-102561904D01*
X119666666Y-102657142D01*
X119619047Y-102704761D01*
X119523809Y-102752380D01*
X119428571Y-102752380D01*
X119333333Y-102704761D01*
X119285714Y-102657142D01*
X119238095Y-102561904D01*
X119190476Y-102371428D01*
X119190476Y-102133333D01*
X119238095Y-101942857D01*
X119285714Y-101847619D01*
X119333333Y-101800000D01*
X119428571Y-101752380D01*
X103057142Y-104152380D02*
X102723809Y-103676190D01*
X102485714Y-104152380D02*
X102485714Y-103152380D01*
X102866666Y-103152380D01*
X102961904Y-103200000D01*
X103009523Y-103247619D01*
X103057142Y-103342857D01*
X103057142Y-103485714D01*
X103009523Y-103580952D01*
X102961904Y-103628571D01*
X102866666Y-103676190D01*
X102485714Y-103676190D01*
X103438095Y-103247619D02*
X103485714Y-103200000D01*
X103580952Y-103152380D01*
X103819047Y-103152380D01*
X103914285Y-103200000D01*
X103961904Y-103247619D01*
X104009523Y-103342857D01*
X104009523Y-103438095D01*
X103961904Y-103580952D01*
X103390476Y-104152380D01*
X104009523Y-104152380D01*
X104342857Y-103152380D02*
X104961904Y-103152380D01*
X104628571Y-103533333D01*
X104771428Y-103533333D01*
X104866666Y-103580952D01*
X104914285Y-103628571D01*
X104961904Y-103723809D01*
X104961904Y-103961904D01*
X104914285Y-104057142D01*
X104866666Y-104104761D01*
X104771428Y-104152380D01*
X104485714Y-104152380D01*
X104390476Y-104104761D01*
X104342857Y-104057142D01*
X130757142Y-91457142D02*
X130709523Y-91504761D01*
X130566666Y-91552380D01*
X130471428Y-91552380D01*
X130328571Y-91504761D01*
X130233333Y-91409523D01*
X130185714Y-91314285D01*
X130138095Y-91123809D01*
X130138095Y-90980952D01*
X130185714Y-90790476D01*
X130233333Y-90695238D01*
X130328571Y-90600000D01*
X130471428Y-90552380D01*
X130566666Y-90552380D01*
X130709523Y-90600000D01*
X130757142Y-90647619D01*
X131709523Y-91552380D02*
X131138095Y-91552380D01*
X131423809Y-91552380D02*
X131423809Y-90552380D01*
X131328571Y-90695238D01*
X131233333Y-90790476D01*
X131138095Y-90838095D01*
X132328571Y-90552380D02*
X132423809Y-90552380D01*
X132519047Y-90600000D01*
X132566666Y-90647619D01*
X132614285Y-90742857D01*
X132661904Y-90933333D01*
X132661904Y-91171428D01*
X132614285Y-91361904D01*
X132566666Y-91457142D01*
X132519047Y-91504761D01*
X132423809Y-91552380D01*
X132328571Y-91552380D01*
X132233333Y-91504761D01*
X132185714Y-91457142D01*
X132138095Y-91361904D01*
X132090476Y-91171428D01*
X132090476Y-90933333D01*
X132138095Y-90742857D01*
X132185714Y-90647619D01*
X132233333Y-90600000D01*
X132328571Y-90552380D01*
X70336904Y-91877380D02*
X70336904Y-90877380D01*
X70575000Y-90877380D01*
X70717857Y-90925000D01*
X70813095Y-91020238D01*
X70860714Y-91115476D01*
X70908333Y-91305952D01*
X70908333Y-91448809D01*
X70860714Y-91639285D01*
X70813095Y-91734523D01*
X70717857Y-91829761D01*
X70575000Y-91877380D01*
X70336904Y-91877380D01*
X71241666Y-90877380D02*
X71860714Y-90877380D01*
X71527380Y-91258333D01*
X71670238Y-91258333D01*
X71765476Y-91305952D01*
X71813095Y-91353571D01*
X71860714Y-91448809D01*
X71860714Y-91686904D01*
X71813095Y-91782142D01*
X71765476Y-91829761D01*
X71670238Y-91877380D01*
X71384523Y-91877380D01*
X71289285Y-91829761D01*
X71241666Y-91782142D01*
X84638095Y-101227380D02*
X84638095Y-102036904D01*
X84685714Y-102132142D01*
X84733333Y-102179761D01*
X84828571Y-102227380D01*
X85019047Y-102227380D01*
X85114285Y-102179761D01*
X85161904Y-102132142D01*
X85209523Y-102036904D01*
X85209523Y-101227380D01*
X86209523Y-102227380D02*
X85638095Y-102227380D01*
X85923809Y-102227380D02*
X85923809Y-101227380D01*
X85828571Y-101370238D01*
X85733333Y-101465476D01*
X85638095Y-101513095D01*
X93433333Y-106607142D02*
X93385714Y-106654761D01*
X93242857Y-106702380D01*
X93147619Y-106702380D01*
X93004761Y-106654761D01*
X92909523Y-106559523D01*
X92861904Y-106464285D01*
X92814285Y-106273809D01*
X92814285Y-106130952D01*
X92861904Y-105940476D01*
X92909523Y-105845238D01*
X93004761Y-105750000D01*
X93147619Y-105702380D01*
X93242857Y-105702380D01*
X93385714Y-105750000D01*
X93433333Y-105797619D01*
X94290476Y-106035714D02*
X94290476Y-106702380D01*
X94052380Y-105654761D02*
X93814285Y-106369047D01*
X94433333Y-106369047D01*
X91483333Y-111907142D02*
X91435714Y-111954761D01*
X91292857Y-112002380D01*
X91197619Y-112002380D01*
X91054761Y-111954761D01*
X90959523Y-111859523D01*
X90911904Y-111764285D01*
X90864285Y-111573809D01*
X90864285Y-111430952D01*
X90911904Y-111240476D01*
X90959523Y-111145238D01*
X91054761Y-111050000D01*
X91197619Y-111002380D01*
X91292857Y-111002380D01*
X91435714Y-111050000D01*
X91483333Y-111097619D01*
X91816666Y-111002380D02*
X92435714Y-111002380D01*
X92102380Y-111383333D01*
X92245238Y-111383333D01*
X92340476Y-111430952D01*
X92388095Y-111478571D01*
X92435714Y-111573809D01*
X92435714Y-111811904D01*
X92388095Y-111907142D01*
X92340476Y-111954761D01*
X92245238Y-112002380D01*
X91959523Y-112002380D01*
X91864285Y-111954761D01*
X91816666Y-111907142D01*
X76767142Y-96979880D02*
X76433809Y-96503690D01*
X76195714Y-96979880D02*
X76195714Y-95979880D01*
X76576666Y-95979880D01*
X76671904Y-96027500D01*
X76719523Y-96075119D01*
X76767142Y-96170357D01*
X76767142Y-96313214D01*
X76719523Y-96408452D01*
X76671904Y-96456071D01*
X76576666Y-96503690D01*
X76195714Y-96503690D01*
X77719523Y-96979880D02*
X77148095Y-96979880D01*
X77433809Y-96979880D02*
X77433809Y-95979880D01*
X77338571Y-96122738D01*
X77243333Y-96217976D01*
X77148095Y-96265595D01*
X78052857Y-95979880D02*
X78671904Y-95979880D01*
X78338571Y-96360833D01*
X78481428Y-96360833D01*
X78576666Y-96408452D01*
X78624285Y-96456071D01*
X78671904Y-96551309D01*
X78671904Y-96789404D01*
X78624285Y-96884642D01*
X78576666Y-96932261D01*
X78481428Y-96979880D01*
X78195714Y-96979880D01*
X78100476Y-96932261D01*
X78052857Y-96884642D01*
X103666666Y-72004761D02*
X103809523Y-72052380D01*
X104047619Y-72052380D01*
X104142857Y-72004761D01*
X104190476Y-71957142D01*
X104238095Y-71861904D01*
X104238095Y-71766666D01*
X104190476Y-71671428D01*
X104142857Y-71623809D01*
X104047619Y-71576190D01*
X103857142Y-71528571D01*
X103761904Y-71480952D01*
X103714285Y-71433333D01*
X103666666Y-71338095D01*
X103666666Y-71242857D01*
X103714285Y-71147619D01*
X103761904Y-71100000D01*
X103857142Y-71052380D01*
X104095238Y-71052380D01*
X104238095Y-71100000D01*
X104571428Y-71052380D02*
X104809523Y-72052380D01*
X105000000Y-71338095D01*
X105190476Y-72052380D01*
X105428571Y-71052380D01*
X106333333Y-72052380D02*
X105761904Y-72052380D01*
X106047619Y-72052380D02*
X106047619Y-71052380D01*
X105952380Y-71195238D01*
X105857142Y-71290476D01*
X105761904Y-71338095D01*
X81722380Y-77426666D02*
X81246190Y-77760000D01*
X81722380Y-77998095D02*
X80722380Y-77998095D01*
X80722380Y-77617142D01*
X80770000Y-77521904D01*
X80817619Y-77474285D01*
X80912857Y-77426666D01*
X81055714Y-77426666D01*
X81150952Y-77474285D01*
X81198571Y-77521904D01*
X81246190Y-77617142D01*
X81246190Y-77998095D01*
X81722380Y-76474285D02*
X81722380Y-77045714D01*
X81722380Y-76760000D02*
X80722380Y-76760000D01*
X80865238Y-76855238D01*
X80960476Y-76950476D01*
X81008095Y-77045714D01*
X115533333Y-109157142D02*
X115485714Y-109204761D01*
X115342857Y-109252380D01*
X115247619Y-109252380D01*
X115104761Y-109204761D01*
X115009523Y-109109523D01*
X114961904Y-109014285D01*
X114914285Y-108823809D01*
X114914285Y-108680952D01*
X114961904Y-108490476D01*
X115009523Y-108395238D01*
X115104761Y-108300000D01*
X115247619Y-108252380D01*
X115342857Y-108252380D01*
X115485714Y-108300000D01*
X115533333Y-108347619D01*
X116104761Y-108680952D02*
X116009523Y-108633333D01*
X115961904Y-108585714D01*
X115914285Y-108490476D01*
X115914285Y-108442857D01*
X115961904Y-108347619D01*
X116009523Y-108300000D01*
X116104761Y-108252380D01*
X116295238Y-108252380D01*
X116390476Y-108300000D01*
X116438095Y-108347619D01*
X116485714Y-108442857D01*
X116485714Y-108490476D01*
X116438095Y-108585714D01*
X116390476Y-108633333D01*
X116295238Y-108680952D01*
X116104761Y-108680952D01*
X116009523Y-108728571D01*
X115961904Y-108776190D01*
X115914285Y-108871428D01*
X115914285Y-109061904D01*
X115961904Y-109157142D01*
X116009523Y-109204761D01*
X116104761Y-109252380D01*
X116295238Y-109252380D01*
X116390476Y-109204761D01*
X116438095Y-109157142D01*
X116485714Y-109061904D01*
X116485714Y-108871428D01*
X116438095Y-108776190D01*
X116390476Y-108728571D01*
X116295238Y-108680952D01*
X70411904Y-97502380D02*
X70411904Y-96502380D01*
X70650000Y-96502380D01*
X70792857Y-96550000D01*
X70888095Y-96645238D01*
X70935714Y-96740476D01*
X70983333Y-96930952D01*
X70983333Y-97073809D01*
X70935714Y-97264285D01*
X70888095Y-97359523D01*
X70792857Y-97454761D01*
X70650000Y-97502380D01*
X70411904Y-97502380D01*
X71840476Y-96835714D02*
X71840476Y-97502380D01*
X71602380Y-96454761D02*
X71364285Y-97169047D01*
X71983333Y-97169047D01*
X95933333Y-106657142D02*
X95885714Y-106704761D01*
X95742857Y-106752380D01*
X95647619Y-106752380D01*
X95504761Y-106704761D01*
X95409523Y-106609523D01*
X95361904Y-106514285D01*
X95314285Y-106323809D01*
X95314285Y-106180952D01*
X95361904Y-105990476D01*
X95409523Y-105895238D01*
X95504761Y-105800000D01*
X95647619Y-105752380D01*
X95742857Y-105752380D01*
X95885714Y-105800000D01*
X95933333Y-105847619D01*
X96838095Y-105752380D02*
X96361904Y-105752380D01*
X96314285Y-106228571D01*
X96361904Y-106180952D01*
X96457142Y-106133333D01*
X96695238Y-106133333D01*
X96790476Y-106180952D01*
X96838095Y-106228571D01*
X96885714Y-106323809D01*
X96885714Y-106561904D01*
X96838095Y-106657142D01*
X96790476Y-106704761D01*
X96695238Y-106752380D01*
X96457142Y-106752380D01*
X96361904Y-106704761D01*
X96314285Y-106657142D01*
D14*
X125574523Y-88117261D02*
X124304523Y-88117261D01*
X125453571Y-86786785D02*
X125514047Y-86847261D01*
X125574523Y-87028690D01*
X125574523Y-87149642D01*
X125514047Y-87331071D01*
X125393095Y-87452023D01*
X125272142Y-87512500D01*
X125030238Y-87572976D01*
X124848809Y-87572976D01*
X124606904Y-87512500D01*
X124485952Y-87452023D01*
X124365000Y-87331071D01*
X124304523Y-87149642D01*
X124304523Y-87028690D01*
X124365000Y-86847261D01*
X124425476Y-86786785D01*
X124304523Y-86363452D02*
X124304523Y-85577261D01*
X124788333Y-86000595D01*
X124788333Y-85819166D01*
X124848809Y-85698214D01*
X124909285Y-85637738D01*
X125030238Y-85577261D01*
X125332619Y-85577261D01*
X125453571Y-85637738D01*
X125514047Y-85698214D01*
X125574523Y-85819166D01*
X125574523Y-86182023D01*
X125514047Y-86302976D01*
X125453571Y-86363452D01*
D12*
X76708333Y-86002380D02*
X76375000Y-85526190D01*
X76136904Y-86002380D02*
X76136904Y-85002380D01*
X76517857Y-85002380D01*
X76613095Y-85050000D01*
X76660714Y-85097619D01*
X76708333Y-85192857D01*
X76708333Y-85335714D01*
X76660714Y-85430952D01*
X76613095Y-85478571D01*
X76517857Y-85526190D01*
X76136904Y-85526190D01*
X77041666Y-85002380D02*
X77660714Y-85002380D01*
X77327380Y-85383333D01*
X77470238Y-85383333D01*
X77565476Y-85430952D01*
X77613095Y-85478571D01*
X77660714Y-85573809D01*
X77660714Y-85811904D01*
X77613095Y-85907142D01*
X77565476Y-85954761D01*
X77470238Y-86002380D01*
X77184523Y-86002380D01*
X77089285Y-85954761D01*
X77041666Y-85907142D01*
X77357142Y-106202380D02*
X77023809Y-105726190D01*
X76785714Y-106202380D02*
X76785714Y-105202380D01*
X77166666Y-105202380D01*
X77261904Y-105250000D01*
X77309523Y-105297619D01*
X77357142Y-105392857D01*
X77357142Y-105535714D01*
X77309523Y-105630952D01*
X77261904Y-105678571D01*
X77166666Y-105726190D01*
X76785714Y-105726190D01*
X78309523Y-106202380D02*
X77738095Y-106202380D01*
X78023809Y-106202380D02*
X78023809Y-105202380D01*
X77928571Y-105345238D01*
X77833333Y-105440476D01*
X77738095Y-105488095D01*
X78928571Y-105202380D02*
X79023809Y-105202380D01*
X79119047Y-105250000D01*
X79166666Y-105297619D01*
X79214285Y-105392857D01*
X79261904Y-105583333D01*
X79261904Y-105821428D01*
X79214285Y-106011904D01*
X79166666Y-106107142D01*
X79119047Y-106154761D01*
X79023809Y-106202380D01*
X78928571Y-106202380D01*
X78833333Y-106154761D01*
X78785714Y-106107142D01*
X78738095Y-106011904D01*
X78690476Y-105821428D01*
X78690476Y-105583333D01*
X78738095Y-105392857D01*
X78785714Y-105297619D01*
X78833333Y-105250000D01*
X78928571Y-105202380D01*
D14*
X109760238Y-108524523D02*
X109760238Y-107254523D01*
X111090714Y-108403571D02*
X111030238Y-108464047D01*
X110848809Y-108524523D01*
X110727857Y-108524523D01*
X110546428Y-108464047D01*
X110425476Y-108343095D01*
X110365000Y-108222142D01*
X110304523Y-107980238D01*
X110304523Y-107798809D01*
X110365000Y-107556904D01*
X110425476Y-107435952D01*
X110546428Y-107315000D01*
X110727857Y-107254523D01*
X110848809Y-107254523D01*
X111030238Y-107315000D01*
X111090714Y-107375476D01*
X111574523Y-107375476D02*
X111635000Y-107315000D01*
X111755952Y-107254523D01*
X112058333Y-107254523D01*
X112179285Y-107315000D01*
X112239761Y-107375476D01*
X112300238Y-107496428D01*
X112300238Y-107617380D01*
X112239761Y-107798809D01*
X111514047Y-108524523D01*
X112300238Y-108524523D01*
D12*
X89457142Y-81852380D02*
X89123809Y-81376190D01*
X88885714Y-81852380D02*
X88885714Y-80852380D01*
X89266666Y-80852380D01*
X89361904Y-80900000D01*
X89409523Y-80947619D01*
X89457142Y-81042857D01*
X89457142Y-81185714D01*
X89409523Y-81280952D01*
X89361904Y-81328571D01*
X89266666Y-81376190D01*
X88885714Y-81376190D01*
X90409523Y-81852380D02*
X89838095Y-81852380D01*
X90123809Y-81852380D02*
X90123809Y-80852380D01*
X90028571Y-80995238D01*
X89933333Y-81090476D01*
X89838095Y-81138095D01*
X90742857Y-80852380D02*
X91409523Y-80852380D01*
X90980952Y-81852380D01*
X65911904Y-117952380D02*
X65911904Y-116952380D01*
X66150000Y-116952380D01*
X66292857Y-117000000D01*
X66388095Y-117095238D01*
X66435714Y-117190476D01*
X66483333Y-117380952D01*
X66483333Y-117523809D01*
X66435714Y-117714285D01*
X66388095Y-117809523D01*
X66292857Y-117904761D01*
X66150000Y-117952380D01*
X65911904Y-117952380D01*
X66816666Y-116952380D02*
X67483333Y-116952380D01*
X67054761Y-117952380D01*
X95757142Y-97602380D02*
X95423809Y-97126190D01*
X95185714Y-97602380D02*
X95185714Y-96602380D01*
X95566666Y-96602380D01*
X95661904Y-96650000D01*
X95709523Y-96697619D01*
X95757142Y-96792857D01*
X95757142Y-96935714D01*
X95709523Y-97030952D01*
X95661904Y-97078571D01*
X95566666Y-97126190D01*
X95185714Y-97126190D01*
X96138095Y-96697619D02*
X96185714Y-96650000D01*
X96280952Y-96602380D01*
X96519047Y-96602380D01*
X96614285Y-96650000D01*
X96661904Y-96697619D01*
X96709523Y-96792857D01*
X96709523Y-96888095D01*
X96661904Y-97030952D01*
X96090476Y-97602380D01*
X96709523Y-97602380D01*
X97280952Y-97030952D02*
X97185714Y-96983333D01*
X97138095Y-96935714D01*
X97090476Y-96840476D01*
X97090476Y-96792857D01*
X97138095Y-96697619D01*
X97185714Y-96650000D01*
X97280952Y-96602380D01*
X97471428Y-96602380D01*
X97566666Y-96650000D01*
X97614285Y-96697619D01*
X97661904Y-96792857D01*
X97661904Y-96840476D01*
X97614285Y-96935714D01*
X97566666Y-96983333D01*
X97471428Y-97030952D01*
X97280952Y-97030952D01*
X97185714Y-97078571D01*
X97138095Y-97126190D01*
X97090476Y-97221428D01*
X97090476Y-97411904D01*
X97138095Y-97507142D01*
X97185714Y-97554761D01*
X97280952Y-97602380D01*
X97471428Y-97602380D01*
X97566666Y-97554761D01*
X97614285Y-97507142D01*
X97661904Y-97411904D01*
X97661904Y-97221428D01*
X97614285Y-97126190D01*
X97566666Y-97078571D01*
X97471428Y-97030952D01*
X72008333Y-84827380D02*
X71675000Y-84351190D01*
X71436904Y-84827380D02*
X71436904Y-83827380D01*
X71817857Y-83827380D01*
X71913095Y-83875000D01*
X71960714Y-83922619D01*
X72008333Y-84017857D01*
X72008333Y-84160714D01*
X71960714Y-84255952D01*
X71913095Y-84303571D01*
X71817857Y-84351190D01*
X71436904Y-84351190D01*
X72865476Y-83827380D02*
X72675000Y-83827380D01*
X72579761Y-83875000D01*
X72532142Y-83922619D01*
X72436904Y-84065476D01*
X72389285Y-84255952D01*
X72389285Y-84636904D01*
X72436904Y-84732142D01*
X72484523Y-84779761D01*
X72579761Y-84827380D01*
X72770238Y-84827380D01*
X72865476Y-84779761D01*
X72913095Y-84732142D01*
X72960714Y-84636904D01*
X72960714Y-84398809D01*
X72913095Y-84303571D01*
X72865476Y-84255952D01*
X72770238Y-84208333D01*
X72579761Y-84208333D01*
X72484523Y-84255952D01*
X72436904Y-84303571D01*
X72389285Y-84398809D01*
X77363333Y-101829880D02*
X77030000Y-101353690D01*
X76791904Y-101829880D02*
X76791904Y-100829880D01*
X77172857Y-100829880D01*
X77268095Y-100877500D01*
X77315714Y-100925119D01*
X77363333Y-101020357D01*
X77363333Y-101163214D01*
X77315714Y-101258452D01*
X77268095Y-101306071D01*
X77172857Y-101353690D01*
X76791904Y-101353690D01*
X77839523Y-101829880D02*
X78030000Y-101829880D01*
X78125238Y-101782261D01*
X78172857Y-101734642D01*
X78268095Y-101591785D01*
X78315714Y-101401309D01*
X78315714Y-101020357D01*
X78268095Y-100925119D01*
X78220476Y-100877500D01*
X78125238Y-100829880D01*
X77934761Y-100829880D01*
X77839523Y-100877500D01*
X77791904Y-100925119D01*
X77744285Y-101020357D01*
X77744285Y-101258452D01*
X77791904Y-101353690D01*
X77839523Y-101401309D01*
X77934761Y-101448928D01*
X78125238Y-101448928D01*
X78220476Y-101401309D01*
X78268095Y-101353690D01*
X78315714Y-101258452D01*
X120585714Y-103052380D02*
X120585714Y-102052380D01*
X120823809Y-102052380D01*
X120966666Y-102100000D01*
X121061904Y-102195238D01*
X121109523Y-102290476D01*
X121157142Y-102480952D01*
X121157142Y-102623809D01*
X121109523Y-102814285D01*
X121061904Y-102909523D01*
X120966666Y-103004761D01*
X120823809Y-103052380D01*
X120585714Y-103052380D01*
X122109523Y-103052380D02*
X121538095Y-103052380D01*
X121823809Y-103052380D02*
X121823809Y-102052380D01*
X121728571Y-102195238D01*
X121633333Y-102290476D01*
X121538095Y-102338095D01*
X123061904Y-103052380D02*
X122490476Y-103052380D01*
X122776190Y-103052380D02*
X122776190Y-102052380D01*
X122680952Y-102195238D01*
X122585714Y-102290476D01*
X122490476Y-102338095D01*
X110657142Y-66452380D02*
X110323809Y-65976190D01*
X110085714Y-66452380D02*
X110085714Y-65452380D01*
X110466666Y-65452380D01*
X110561904Y-65500000D01*
X110609523Y-65547619D01*
X110657142Y-65642857D01*
X110657142Y-65785714D01*
X110609523Y-65880952D01*
X110561904Y-65928571D01*
X110466666Y-65976190D01*
X110085714Y-65976190D01*
X110990476Y-65452380D02*
X111609523Y-65452380D01*
X111276190Y-65833333D01*
X111419047Y-65833333D01*
X111514285Y-65880952D01*
X111561904Y-65928571D01*
X111609523Y-66023809D01*
X111609523Y-66261904D01*
X111561904Y-66357142D01*
X111514285Y-66404761D01*
X111419047Y-66452380D01*
X111133333Y-66452380D01*
X111038095Y-66404761D01*
X110990476Y-66357142D01*
X111990476Y-65547619D02*
X112038095Y-65500000D01*
X112133333Y-65452380D01*
X112371428Y-65452380D01*
X112466666Y-65500000D01*
X112514285Y-65547619D01*
X112561904Y-65642857D01*
X112561904Y-65738095D01*
X112514285Y-65880952D01*
X111942857Y-66452380D01*
X112561904Y-66452380D01*
X113357142Y-77852380D02*
X113023809Y-77376190D01*
X112785714Y-77852380D02*
X112785714Y-76852380D01*
X113166666Y-76852380D01*
X113261904Y-76900000D01*
X113309523Y-76947619D01*
X113357142Y-77042857D01*
X113357142Y-77185714D01*
X113309523Y-77280952D01*
X113261904Y-77328571D01*
X113166666Y-77376190D01*
X112785714Y-77376190D01*
X113738095Y-76947619D02*
X113785714Y-76900000D01*
X113880952Y-76852380D01*
X114119047Y-76852380D01*
X114214285Y-76900000D01*
X114261904Y-76947619D01*
X114309523Y-77042857D01*
X114309523Y-77138095D01*
X114261904Y-77280952D01*
X113690476Y-77852380D01*
X114309523Y-77852380D01*
X115166666Y-77185714D02*
X115166666Y-77852380D01*
X114928571Y-76804761D02*
X114690476Y-77519047D01*
X115309523Y-77519047D01*
X123357142Y-95652380D02*
X123023809Y-95176190D01*
X122785714Y-95652380D02*
X122785714Y-94652380D01*
X123166666Y-94652380D01*
X123261904Y-94700000D01*
X123309523Y-94747619D01*
X123357142Y-94842857D01*
X123357142Y-94985714D01*
X123309523Y-95080952D01*
X123261904Y-95128571D01*
X123166666Y-95176190D01*
X122785714Y-95176190D01*
X123738095Y-94747619D02*
X123785714Y-94700000D01*
X123880952Y-94652380D01*
X124119047Y-94652380D01*
X124214285Y-94700000D01*
X124261904Y-94747619D01*
X124309523Y-94842857D01*
X124309523Y-94938095D01*
X124261904Y-95080952D01*
X123690476Y-95652380D01*
X124309523Y-95652380D01*
X125166666Y-94652380D02*
X124976190Y-94652380D01*
X124880952Y-94700000D01*
X124833333Y-94747619D01*
X124738095Y-94890476D01*
X124690476Y-95080952D01*
X124690476Y-95461904D01*
X124738095Y-95557142D01*
X124785714Y-95604761D01*
X124880952Y-95652380D01*
X125071428Y-95652380D01*
X125166666Y-95604761D01*
X125214285Y-95557142D01*
X125261904Y-95461904D01*
X125261904Y-95223809D01*
X125214285Y-95128571D01*
X125166666Y-95080952D01*
X125071428Y-95033333D01*
X124880952Y-95033333D01*
X124785714Y-95080952D01*
X124738095Y-95128571D01*
X124690476Y-95223809D01*
X82761904Y-74452380D02*
X82761904Y-73452380D01*
X83000000Y-73452380D01*
X83142857Y-73500000D01*
X83238095Y-73595238D01*
X83285714Y-73690476D01*
X83333333Y-73880952D01*
X83333333Y-74023809D01*
X83285714Y-74214285D01*
X83238095Y-74309523D01*
X83142857Y-74404761D01*
X83000000Y-74452380D01*
X82761904Y-74452380D01*
X83809523Y-74452380D02*
X84000000Y-74452380D01*
X84095238Y-74404761D01*
X84142857Y-74357142D01*
X84238095Y-74214285D01*
X84285714Y-74023809D01*
X84285714Y-73642857D01*
X84238095Y-73547619D01*
X84190476Y-73500000D01*
X84095238Y-73452380D01*
X83904761Y-73452380D01*
X83809523Y-73500000D01*
X83761904Y-73547619D01*
X83714285Y-73642857D01*
X83714285Y-73880952D01*
X83761904Y-73976190D01*
X83809523Y-74023809D01*
X83904761Y-74071428D01*
X84095238Y-74071428D01*
X84190476Y-74023809D01*
X84238095Y-73976190D01*
X84285714Y-73880952D01*
X112357142Y-104152380D02*
X112023809Y-103676190D01*
X111785714Y-104152380D02*
X111785714Y-103152380D01*
X112166666Y-103152380D01*
X112261904Y-103200000D01*
X112309523Y-103247619D01*
X112357142Y-103342857D01*
X112357142Y-103485714D01*
X112309523Y-103580952D01*
X112261904Y-103628571D01*
X112166666Y-103676190D01*
X111785714Y-103676190D01*
X112738095Y-103247619D02*
X112785714Y-103200000D01*
X112880952Y-103152380D01*
X113119047Y-103152380D01*
X113214285Y-103200000D01*
X113261904Y-103247619D01*
X113309523Y-103342857D01*
X113309523Y-103438095D01*
X113261904Y-103580952D01*
X112690476Y-104152380D01*
X113309523Y-104152380D01*
X113928571Y-103152380D02*
X114023809Y-103152380D01*
X114119047Y-103200000D01*
X114166666Y-103247619D01*
X114214285Y-103342857D01*
X114261904Y-103533333D01*
X114261904Y-103771428D01*
X114214285Y-103961904D01*
X114166666Y-104057142D01*
X114119047Y-104104761D01*
X114023809Y-104152380D01*
X113928571Y-104152380D01*
X113833333Y-104104761D01*
X113785714Y-104057142D01*
X113738095Y-103961904D01*
X113690476Y-103771428D01*
X113690476Y-103533333D01*
X113738095Y-103342857D01*
X113785714Y-103247619D01*
X113833333Y-103200000D01*
X113928571Y-103152380D01*
X113657142Y-66452380D02*
X113323809Y-65976190D01*
X113085714Y-66452380D02*
X113085714Y-65452380D01*
X113466666Y-65452380D01*
X113561904Y-65500000D01*
X113609523Y-65547619D01*
X113657142Y-65642857D01*
X113657142Y-65785714D01*
X113609523Y-65880952D01*
X113561904Y-65928571D01*
X113466666Y-65976190D01*
X113085714Y-65976190D01*
X113990476Y-65452380D02*
X114609523Y-65452380D01*
X114276190Y-65833333D01*
X114419047Y-65833333D01*
X114514285Y-65880952D01*
X114561904Y-65928571D01*
X114609523Y-66023809D01*
X114609523Y-66261904D01*
X114561904Y-66357142D01*
X114514285Y-66404761D01*
X114419047Y-66452380D01*
X114133333Y-66452380D01*
X114038095Y-66404761D01*
X113990476Y-66357142D01*
X115228571Y-65452380D02*
X115323809Y-65452380D01*
X115419047Y-65500000D01*
X115466666Y-65547619D01*
X115514285Y-65642857D01*
X115561904Y-65833333D01*
X115561904Y-66071428D01*
X115514285Y-66261904D01*
X115466666Y-66357142D01*
X115419047Y-66404761D01*
X115323809Y-66452380D01*
X115228571Y-66452380D01*
X115133333Y-66404761D01*
X115085714Y-66357142D01*
X115038095Y-66261904D01*
X114990476Y-66071428D01*
X114990476Y-65833333D01*
X115038095Y-65642857D01*
X115085714Y-65547619D01*
X115133333Y-65500000D01*
X115228571Y-65452380D01*
X75733333Y-90977380D02*
X75400000Y-90501190D01*
X75161904Y-90977380D02*
X75161904Y-89977380D01*
X75542857Y-89977380D01*
X75638095Y-90025000D01*
X75685714Y-90072619D01*
X75733333Y-90167857D01*
X75733333Y-90310714D01*
X75685714Y-90405952D01*
X75638095Y-90453571D01*
X75542857Y-90501190D01*
X75161904Y-90501190D01*
X76304761Y-90405952D02*
X76209523Y-90358333D01*
X76161904Y-90310714D01*
X76114285Y-90215476D01*
X76114285Y-90167857D01*
X76161904Y-90072619D01*
X76209523Y-90025000D01*
X76304761Y-89977380D01*
X76495238Y-89977380D01*
X76590476Y-90025000D01*
X76638095Y-90072619D01*
X76685714Y-90167857D01*
X76685714Y-90215476D01*
X76638095Y-90310714D01*
X76590476Y-90358333D01*
X76495238Y-90405952D01*
X76304761Y-90405952D01*
X76209523Y-90453571D01*
X76161904Y-90501190D01*
X76114285Y-90596428D01*
X76114285Y-90786904D01*
X76161904Y-90882142D01*
X76209523Y-90929761D01*
X76304761Y-90977380D01*
X76495238Y-90977380D01*
X76590476Y-90929761D01*
X76638095Y-90882142D01*
X76685714Y-90786904D01*
X76685714Y-90596428D01*
X76638095Y-90501190D01*
X76590476Y-90453571D01*
X76495238Y-90405952D01*
X95807142Y-121327380D02*
X95473809Y-120851190D01*
X95235714Y-121327380D02*
X95235714Y-120327380D01*
X95616666Y-120327380D01*
X95711904Y-120375000D01*
X95759523Y-120422619D01*
X95807142Y-120517857D01*
X95807142Y-120660714D01*
X95759523Y-120755952D01*
X95711904Y-120803571D01*
X95616666Y-120851190D01*
X95235714Y-120851190D01*
X96759523Y-121327380D02*
X96188095Y-121327380D01*
X96473809Y-121327380D02*
X96473809Y-120327380D01*
X96378571Y-120470238D01*
X96283333Y-120565476D01*
X96188095Y-120613095D01*
X97235714Y-121327380D02*
X97426190Y-121327380D01*
X97521428Y-121279761D01*
X97569047Y-121232142D01*
X97664285Y-121089285D01*
X97711904Y-120898809D01*
X97711904Y-120517857D01*
X97664285Y-120422619D01*
X97616666Y-120375000D01*
X97521428Y-120327380D01*
X97330952Y-120327380D01*
X97235714Y-120375000D01*
X97188095Y-120422619D01*
X97140476Y-120517857D01*
X97140476Y-120755952D01*
X97188095Y-120851190D01*
X97235714Y-120898809D01*
X97330952Y-120946428D01*
X97521428Y-120946428D01*
X97616666Y-120898809D01*
X97664285Y-120851190D01*
X97711904Y-120755952D01*
X80258333Y-93364880D02*
X79925000Y-92888690D01*
X79686904Y-93364880D02*
X79686904Y-92364880D01*
X80067857Y-92364880D01*
X80163095Y-92412500D01*
X80210714Y-92460119D01*
X80258333Y-92555357D01*
X80258333Y-92698214D01*
X80210714Y-92793452D01*
X80163095Y-92841071D01*
X80067857Y-92888690D01*
X79686904Y-92888690D01*
X81115476Y-92698214D02*
X81115476Y-93364880D01*
X80877380Y-92317261D02*
X80639285Y-93031547D01*
X81258333Y-93031547D01*
X93133333Y-121207142D02*
X93085714Y-121254761D01*
X92942857Y-121302380D01*
X92847619Y-121302380D01*
X92704761Y-121254761D01*
X92609523Y-121159523D01*
X92561904Y-121064285D01*
X92514285Y-120873809D01*
X92514285Y-120730952D01*
X92561904Y-120540476D01*
X92609523Y-120445238D01*
X92704761Y-120350000D01*
X92847619Y-120302380D01*
X92942857Y-120302380D01*
X93085714Y-120350000D01*
X93133333Y-120397619D01*
X94085714Y-121302380D02*
X93514285Y-121302380D01*
X93800000Y-121302380D02*
X93800000Y-120302380D01*
X93704761Y-120445238D01*
X93609523Y-120540476D01*
X93514285Y-120588095D01*
X108157142Y-72052380D02*
X107823809Y-71576190D01*
X107585714Y-72052380D02*
X107585714Y-71052380D01*
X107966666Y-71052380D01*
X108061904Y-71100000D01*
X108109523Y-71147619D01*
X108157142Y-71242857D01*
X108157142Y-71385714D01*
X108109523Y-71480952D01*
X108061904Y-71528571D01*
X107966666Y-71576190D01*
X107585714Y-71576190D01*
X108538095Y-71147619D02*
X108585714Y-71100000D01*
X108680952Y-71052380D01*
X108919047Y-71052380D01*
X109014285Y-71100000D01*
X109061904Y-71147619D01*
X109109523Y-71242857D01*
X109109523Y-71338095D01*
X109061904Y-71480952D01*
X108490476Y-72052380D01*
X109109523Y-72052380D01*
X109585714Y-72052380D02*
X109776190Y-72052380D01*
X109871428Y-72004761D01*
X109919047Y-71957142D01*
X110014285Y-71814285D01*
X110061904Y-71623809D01*
X110061904Y-71242857D01*
X110014285Y-71147619D01*
X109966666Y-71100000D01*
X109871428Y-71052380D01*
X109680952Y-71052380D01*
X109585714Y-71100000D01*
X109538095Y-71147619D01*
X109490476Y-71242857D01*
X109490476Y-71480952D01*
X109538095Y-71576190D01*
X109585714Y-71623809D01*
X109680952Y-71671428D01*
X109871428Y-71671428D01*
X109966666Y-71623809D01*
X110014285Y-71576190D01*
X110061904Y-71480952D01*
X89457142Y-79852380D02*
X89123809Y-79376190D01*
X88885714Y-79852380D02*
X88885714Y-78852380D01*
X89266666Y-78852380D01*
X89361904Y-78900000D01*
X89409523Y-78947619D01*
X89457142Y-79042857D01*
X89457142Y-79185714D01*
X89409523Y-79280952D01*
X89361904Y-79328571D01*
X89266666Y-79376190D01*
X88885714Y-79376190D01*
X90409523Y-79852380D02*
X89838095Y-79852380D01*
X90123809Y-79852380D02*
X90123809Y-78852380D01*
X90028571Y-78995238D01*
X89933333Y-79090476D01*
X89838095Y-79138095D01*
X90980952Y-79280952D02*
X90885714Y-79233333D01*
X90838095Y-79185714D01*
X90790476Y-79090476D01*
X90790476Y-79042857D01*
X90838095Y-78947619D01*
X90885714Y-78900000D01*
X90980952Y-78852380D01*
X91171428Y-78852380D01*
X91266666Y-78900000D01*
X91314285Y-78947619D01*
X91361904Y-79042857D01*
X91361904Y-79090476D01*
X91314285Y-79185714D01*
X91266666Y-79233333D01*
X91171428Y-79280952D01*
X90980952Y-79280952D01*
X90885714Y-79328571D01*
X90838095Y-79376190D01*
X90790476Y-79471428D01*
X90790476Y-79661904D01*
X90838095Y-79757142D01*
X90885714Y-79804761D01*
X90980952Y-79852380D01*
X91171428Y-79852380D01*
X91266666Y-79804761D01*
X91314285Y-79757142D01*
X91361904Y-79661904D01*
X91361904Y-79471428D01*
X91314285Y-79376190D01*
X91266666Y-79328571D01*
X91171428Y-79280952D01*
X66061904Y-74052380D02*
X66061904Y-73052380D01*
X66300000Y-73052380D01*
X66442857Y-73100000D01*
X66538095Y-73195238D01*
X66585714Y-73290476D01*
X66633333Y-73480952D01*
X66633333Y-73623809D01*
X66585714Y-73814285D01*
X66538095Y-73909523D01*
X66442857Y-74004761D01*
X66300000Y-74052380D01*
X66061904Y-74052380D01*
X67585714Y-74052380D02*
X67014285Y-74052380D01*
X67300000Y-74052380D02*
X67300000Y-73052380D01*
X67204761Y-73195238D01*
X67109523Y-73290476D01*
X67014285Y-73338095D01*
X124357142Y-103052380D02*
X124023809Y-102576190D01*
X123785714Y-103052380D02*
X123785714Y-102052380D01*
X124166666Y-102052380D01*
X124261904Y-102100000D01*
X124309523Y-102147619D01*
X124357142Y-102242857D01*
X124357142Y-102385714D01*
X124309523Y-102480952D01*
X124261904Y-102528571D01*
X124166666Y-102576190D01*
X123785714Y-102576190D01*
X124738095Y-102147619D02*
X124785714Y-102100000D01*
X124880952Y-102052380D01*
X125119047Y-102052380D01*
X125214285Y-102100000D01*
X125261904Y-102147619D01*
X125309523Y-102242857D01*
X125309523Y-102338095D01*
X125261904Y-102480952D01*
X124690476Y-103052380D01*
X125309523Y-103052380D01*
X126261904Y-103052380D02*
X125690476Y-103052380D01*
X125976190Y-103052380D02*
X125976190Y-102052380D01*
X125880952Y-102195238D01*
X125785714Y-102290476D01*
X125690476Y-102338095D01*
X71402380Y-107638095D02*
X70402380Y-107638095D01*
X70402380Y-107400000D01*
X70450000Y-107257142D01*
X70545238Y-107161904D01*
X70640476Y-107114285D01*
X70830952Y-107066666D01*
X70973809Y-107066666D01*
X71164285Y-107114285D01*
X71259523Y-107161904D01*
X71354761Y-107257142D01*
X71402380Y-107400000D01*
X71402380Y-107638095D01*
X70402380Y-106161904D02*
X70402380Y-106638095D01*
X70878571Y-106685714D01*
X70830952Y-106638095D01*
X70783333Y-106542857D01*
X70783333Y-106304761D01*
X70830952Y-106209523D01*
X70878571Y-106161904D01*
X70973809Y-106114285D01*
X71211904Y-106114285D01*
X71307142Y-106161904D01*
X71354761Y-106209523D01*
X71402380Y-106304761D01*
X71402380Y-106542857D01*
X71354761Y-106638095D01*
X71307142Y-106685714D01*
X101833333Y-105657142D02*
X101785714Y-105704761D01*
X101642857Y-105752380D01*
X101547619Y-105752380D01*
X101404761Y-105704761D01*
X101309523Y-105609523D01*
X101261904Y-105514285D01*
X101214285Y-105323809D01*
X101214285Y-105180952D01*
X101261904Y-104990476D01*
X101309523Y-104895238D01*
X101404761Y-104800000D01*
X101547619Y-104752380D01*
X101642857Y-104752380D01*
X101785714Y-104800000D01*
X101833333Y-104847619D01*
X102166666Y-104752380D02*
X102833333Y-104752380D01*
X102404761Y-105752380D01*
X71007142Y-103752380D02*
X70673809Y-103276190D01*
X70435714Y-103752380D02*
X70435714Y-102752380D01*
X70816666Y-102752380D01*
X70911904Y-102800000D01*
X70959523Y-102847619D01*
X71007142Y-102942857D01*
X71007142Y-103085714D01*
X70959523Y-103180952D01*
X70911904Y-103228571D01*
X70816666Y-103276190D01*
X70435714Y-103276190D01*
X71959523Y-103752380D02*
X71388095Y-103752380D01*
X71673809Y-103752380D02*
X71673809Y-102752380D01*
X71578571Y-102895238D01*
X71483333Y-102990476D01*
X71388095Y-103038095D01*
X72816666Y-103085714D02*
X72816666Y-103752380D01*
X72578571Y-102704761D02*
X72340476Y-103419047D01*
X72959523Y-103419047D01*
X98033333Y-116607142D02*
X97985714Y-116654761D01*
X97842857Y-116702380D01*
X97747619Y-116702380D01*
X97604761Y-116654761D01*
X97509523Y-116559523D01*
X97461904Y-116464285D01*
X97414285Y-116273809D01*
X97414285Y-116130952D01*
X97461904Y-115940476D01*
X97509523Y-115845238D01*
X97604761Y-115750000D01*
X97747619Y-115702380D01*
X97842857Y-115702380D01*
X97985714Y-115750000D01*
X98033333Y-115797619D01*
X98890476Y-115702380D02*
X98700000Y-115702380D01*
X98604761Y-115750000D01*
X98557142Y-115797619D01*
X98461904Y-115940476D01*
X98414285Y-116130952D01*
X98414285Y-116511904D01*
X98461904Y-116607142D01*
X98509523Y-116654761D01*
X98604761Y-116702380D01*
X98795238Y-116702380D01*
X98890476Y-116654761D01*
X98938095Y-116607142D01*
X98985714Y-116511904D01*
X98985714Y-116273809D01*
X98938095Y-116178571D01*
X98890476Y-116130952D01*
X98795238Y-116083333D01*
X98604761Y-116083333D01*
X98509523Y-116130952D01*
X98461904Y-116178571D01*
X98414285Y-116273809D01*
X126557142Y-95652380D02*
X126223809Y-95176190D01*
X125985714Y-95652380D02*
X125985714Y-94652380D01*
X126366666Y-94652380D01*
X126461904Y-94700000D01*
X126509523Y-94747619D01*
X126557142Y-94842857D01*
X126557142Y-94985714D01*
X126509523Y-95080952D01*
X126461904Y-95128571D01*
X126366666Y-95176190D01*
X125985714Y-95176190D01*
X126938095Y-94747619D02*
X126985714Y-94700000D01*
X127080952Y-94652380D01*
X127319047Y-94652380D01*
X127414285Y-94700000D01*
X127461904Y-94747619D01*
X127509523Y-94842857D01*
X127509523Y-94938095D01*
X127461904Y-95080952D01*
X126890476Y-95652380D01*
X127509523Y-95652380D01*
X128414285Y-94652380D02*
X127938095Y-94652380D01*
X127890476Y-95128571D01*
X127938095Y-95080952D01*
X128033333Y-95033333D01*
X128271428Y-95033333D01*
X128366666Y-95080952D01*
X128414285Y-95128571D01*
X128461904Y-95223809D01*
X128461904Y-95461904D01*
X128414285Y-95557142D01*
X128366666Y-95604761D01*
X128271428Y-95652380D01*
X128033333Y-95652380D01*
X127938095Y-95604761D01*
X127890476Y-95557142D01*
X71352380Y-113738095D02*
X70352380Y-113738095D01*
X70352380Y-113500000D01*
X70400000Y-113357142D01*
X70495238Y-113261904D01*
X70590476Y-113214285D01*
X70780952Y-113166666D01*
X70923809Y-113166666D01*
X71114285Y-113214285D01*
X71209523Y-113261904D01*
X71304761Y-113357142D01*
X71352380Y-113500000D01*
X71352380Y-113738095D01*
X70352380Y-112309523D02*
X70352380Y-112500000D01*
X70400000Y-112595238D01*
X70447619Y-112642857D01*
X70590476Y-112738095D01*
X70780952Y-112785714D01*
X71161904Y-112785714D01*
X71257142Y-112738095D01*
X71304761Y-112690476D01*
X71352380Y-112595238D01*
X71352380Y-112404761D01*
X71304761Y-112309523D01*
X71257142Y-112261904D01*
X71161904Y-112214285D01*
X70923809Y-112214285D01*
X70828571Y-112261904D01*
X70780952Y-112309523D01*
X70733333Y-112404761D01*
X70733333Y-112595238D01*
X70780952Y-112690476D01*
X70828571Y-112738095D01*
X70923809Y-112785714D01*
X76404642Y-109642380D02*
X76071309Y-109166190D01*
X75833214Y-109642380D02*
X75833214Y-108642380D01*
X76214166Y-108642380D01*
X76309404Y-108690000D01*
X76357023Y-108737619D01*
X76404642Y-108832857D01*
X76404642Y-108975714D01*
X76357023Y-109070952D01*
X76309404Y-109118571D01*
X76214166Y-109166190D01*
X75833214Y-109166190D01*
X77357023Y-109642380D02*
X76785595Y-109642380D01*
X77071309Y-109642380D02*
X77071309Y-108642380D01*
X76976071Y-108785238D01*
X76880833Y-108880476D01*
X76785595Y-108928095D01*
X78261785Y-108642380D02*
X77785595Y-108642380D01*
X77737976Y-109118571D01*
X77785595Y-109070952D01*
X77880833Y-109023333D01*
X78118928Y-109023333D01*
X78214166Y-109070952D01*
X78261785Y-109118571D01*
X78309404Y-109213809D01*
X78309404Y-109451904D01*
X78261785Y-109547142D01*
X78214166Y-109594761D01*
X78118928Y-109642380D01*
X77880833Y-109642380D01*
X77785595Y-109594761D01*
X77737976Y-109547142D01*
X88833333Y-115207142D02*
X88785714Y-115254761D01*
X88642857Y-115302380D01*
X88547619Y-115302380D01*
X88404761Y-115254761D01*
X88309523Y-115159523D01*
X88261904Y-115064285D01*
X88214285Y-114873809D01*
X88214285Y-114730952D01*
X88261904Y-114540476D01*
X88309523Y-114445238D01*
X88404761Y-114350000D01*
X88547619Y-114302380D01*
X88642857Y-114302380D01*
X88785714Y-114350000D01*
X88833333Y-114397619D01*
X89214285Y-114397619D02*
X89261904Y-114350000D01*
X89357142Y-114302380D01*
X89595238Y-114302380D01*
X89690476Y-114350000D01*
X89738095Y-114397619D01*
X89785714Y-114492857D01*
X89785714Y-114588095D01*
X89738095Y-114730952D01*
X89166666Y-115302380D01*
X89785714Y-115302380D01*
D15*
X78135000Y-83264564D02*
X78135000Y-82810436D01*
X76665000Y-83264564D02*
X76665000Y-82810436D01*
X82650000Y-119150000D02*
X77250000Y-119150000D01*
X82650000Y-115850000D02*
X77250000Y-115850000D01*
X82650000Y-119150000D02*
X82650000Y-115850000D01*
X146550000Y-106810000D02*
X146550000Y-96190000D01*
X140390000Y-106810000D02*
X140390000Y-96190000D01*
X142275000Y-100430000D02*
X142369000Y-100524000D01*
X147650000Y-106810000D02*
X147650000Y-96190000D01*
X148110000Y-106810000D02*
X148110000Y-96190000D01*
X144731000Y-102475000D02*
X144824000Y-102569000D01*
X142481000Y-100225000D02*
X142609000Y-100354000D01*
X148350000Y-107050000D02*
X148350000Y-106650000D01*
X147710000Y-107050000D02*
X148350000Y-107050000D01*
X142481000Y-96725000D02*
X142609000Y-96854000D01*
X144491000Y-99145000D02*
X144619000Y-99274000D01*
X144491000Y-102645000D02*
X144619000Y-102774000D01*
X140390000Y-96190000D02*
X148110000Y-96190000D01*
X142275000Y-96930000D02*
X142369000Y-97024000D01*
X144731000Y-98975000D02*
X144824000Y-99069000D01*
X140390000Y-106810000D02*
X148110000Y-106810000D01*
X142684000Y-106440001D02*
G75*
G03*
X144439894Y-106425358I866000J1439999D01*
G01*
X144441000Y-103575000D02*
G75*
G03*
X142659807Y-103574496I-891000J-1425003D01*
G01*
X142109999Y-104134000D02*
G75*
G03*
X142124642Y-105889894I1439999J-866000D01*
G01*
X144990000Y-105866000D02*
G75*
G03*
X145230099Y-104971326I-1440014J866003D01*
G01*
X145230000Y-105000000D02*
G75*
G03*
X144974721Y-104109736I-1679990J3D01*
G01*
X145230000Y-101500000D02*
G75*
G03*
X145230000Y-101500000I-1680000J0D01*
G01*
X145230000Y-98000000D02*
G75*
G03*
X145230000Y-98000000I-1680000J0D01*
G01*
X79365000Y-110114564D02*
X79365000Y-109660436D01*
X80835000Y-110114564D02*
X80835000Y-109660436D01*
X78972936Y-80135000D02*
X79427064Y-80135000D01*
X78972936Y-78665000D02*
X79427064Y-78665000D01*
X127360000Y-63940000D02*
X116740000Y-63940000D01*
X117480000Y-69775000D02*
X117574000Y-69681000D01*
X119525000Y-67319000D02*
X119619000Y-67226000D01*
X127600000Y-63700000D02*
X127200000Y-63700000D01*
X119695000Y-67559000D02*
X119824000Y-67431000D01*
X127360000Y-65500000D02*
X116740000Y-65500000D01*
X127360000Y-71660000D02*
X127360000Y-63940000D01*
X117275000Y-69569000D02*
X117404000Y-69441000D01*
X120775000Y-69569000D02*
X120904000Y-69441000D01*
X123025000Y-67319000D02*
X123119000Y-67226000D01*
X127600000Y-64340000D02*
X127600000Y-63700000D01*
X116740000Y-71660000D02*
X116740000Y-63940000D01*
X127360000Y-71660000D02*
X116740000Y-71660000D01*
X120980000Y-69775000D02*
X121074000Y-69681000D01*
X123195000Y-67559000D02*
X123324000Y-67431000D01*
X127360000Y-64400000D02*
X116740000Y-64400000D01*
X124125000Y-67609000D02*
G75*
G03*
X124124496Y-69390193I1425003J-891000D01*
G01*
X125550000Y-66820000D02*
G75*
G03*
X124659736Y-67075279I-3J-1679990D01*
G01*
X124684000Y-69940001D02*
G75*
G03*
X126439894Y-69925358I866000J1439999D01*
G01*
X126416000Y-67060000D02*
G75*
G03*
X125521326Y-66819901I-866003J-1440014D01*
G01*
X126990001Y-69366000D02*
G75*
G03*
X126975358Y-67610106I-1439999J866000D01*
G01*
X120230000Y-68500000D02*
G75*
G03*
X120230000Y-68500000I-1680000J0D01*
G01*
X123730000Y-68500000D02*
G75*
G03*
X123730000Y-68500000I-1680000J0D01*
G01*
X140390000Y-107690000D02*
X148110000Y-107690000D01*
X148110000Y-118310000D02*
X148110000Y-107690000D01*
X142275000Y-108430000D02*
X142369000Y-108524000D01*
X144731000Y-113975000D02*
X144824000Y-114069000D01*
X148350000Y-118550000D02*
X148350000Y-118150000D01*
X144731000Y-110475000D02*
X144824000Y-110569000D01*
X144491000Y-114145000D02*
X144619000Y-114274000D01*
X140390000Y-118310000D02*
X148110000Y-118310000D01*
X146550000Y-118310000D02*
X146550000Y-107690000D01*
X147650000Y-118310000D02*
X147650000Y-107690000D01*
X140390000Y-118310000D02*
X140390000Y-107690000D01*
X142481000Y-108225000D02*
X142609000Y-108354000D01*
X147710000Y-118550000D02*
X148350000Y-118550000D01*
X142481000Y-111725000D02*
X142609000Y-111854000D01*
X144491000Y-110645000D02*
X144619000Y-110774000D01*
X142275000Y-111930000D02*
X142369000Y-112024000D01*
X144441000Y-115075000D02*
G75*
G03*
X142659807Y-115074496I-891000J-1425003D01*
G01*
X145230000Y-116500000D02*
G75*
G03*
X144974721Y-115609736I-1679990J3D01*
G01*
X142684000Y-117940001D02*
G75*
G03*
X144439894Y-117925358I866000J1439999D01*
G01*
X144990000Y-117366000D02*
G75*
G03*
X145230099Y-116471326I-1440014J866003D01*
G01*
X142109999Y-115634000D02*
G75*
G03*
X142124642Y-117389894I1439999J-866000D01*
G01*
X145230000Y-109500000D02*
G75*
G03*
X145230000Y-109500000I-1680000J0D01*
G01*
X145230000Y-113000000D02*
G75*
G03*
X145230000Y-113000000I-1680000J0D01*
G01*
X107122936Y-112485000D02*
X107577064Y-112485000D01*
X107122936Y-111015000D02*
X107577064Y-111015000D01*
X119022936Y-97485000D02*
X119477064Y-97485000D01*
X119022936Y-96015000D02*
X119477064Y-96015000D01*
X84055436Y-110395000D02*
X84509564Y-110395000D01*
X84055436Y-111865000D02*
X84509564Y-111865000D01*
D13*
X88405000Y-94150000D02*
X88405000Y-92600000D01*
X98500000Y-89050000D02*
X98500000Y-92250000D01*
X88600000Y-92250000D02*
X88600000Y-89050000D01*
X98500000Y-92250000D02*
X88600000Y-92250000D01*
X88600000Y-89050000D02*
X98500000Y-89050000D01*
D15*
X97760000Y-71660000D02*
X83640000Y-71660000D01*
X91175000Y-69569000D02*
X91304000Y-69441000D01*
X90095000Y-67559000D02*
X90224000Y-67431000D01*
X97760000Y-71660000D02*
X97760000Y-63940000D01*
X86595000Y-67559000D02*
X86724000Y-67431000D01*
X97760000Y-63940000D02*
X83640000Y-63940000D01*
X98000000Y-64340000D02*
X98000000Y-63700000D01*
X87880000Y-69775000D02*
X87974000Y-69681000D01*
X84175000Y-69569000D02*
X84304000Y-69441000D01*
X93425000Y-67319000D02*
X93519000Y-67226000D01*
X87675000Y-69569000D02*
X87804000Y-69441000D01*
X97760000Y-64400000D02*
X83640000Y-64400000D01*
X91380000Y-69775000D02*
X91474000Y-69681000D01*
X86425000Y-67319000D02*
X86519000Y-67226000D01*
X83640000Y-71660000D02*
X83640000Y-63940000D01*
X97760000Y-65500000D02*
X83640000Y-65500000D01*
X93595000Y-67559000D02*
X93724000Y-67431000D01*
X89925000Y-67319000D02*
X90019000Y-67226000D01*
X84380000Y-69775000D02*
X84474000Y-69681000D01*
X98000000Y-63700000D02*
X97600000Y-63700000D01*
X95950000Y-66820000D02*
G75*
G03*
X95059736Y-67075279I-3J-1679990D01*
G01*
X96816000Y-67060000D02*
G75*
G03*
X95921326Y-66819901I-866003J-1440014D01*
G01*
X97390001Y-69366000D02*
G75*
G03*
X97375358Y-67610106I-1439999J866000D01*
G01*
X94525000Y-67609000D02*
G75*
G03*
X94524496Y-69390193I1425003J-891000D01*
G01*
X95084000Y-69940001D02*
G75*
G03*
X96839894Y-69925358I866000J1439999D01*
G01*
X87130000Y-68500000D02*
G75*
G03*
X87130000Y-68500000I-1680000J0D01*
G01*
X90630000Y-68500000D02*
G75*
G03*
X90630000Y-68500000I-1680000J0D01*
G01*
X94130000Y-68500000D02*
G75*
G03*
X94130000Y-68500000I-1680000J0D01*
G01*
X84509564Y-109755000D02*
X84055436Y-109755000D01*
X84509564Y-108285000D02*
X84055436Y-108285000D01*
X74140000Y-87814564D02*
X74140000Y-87360436D01*
X75610000Y-87814564D02*
X75610000Y-87360436D01*
X117140000Y-113002064D02*
X117140000Y-111797936D01*
X119860000Y-113002064D02*
X119860000Y-111797936D01*
X66850000Y-83150000D02*
X66850000Y-77750000D01*
X66850000Y-83150000D02*
X70150000Y-83150000D01*
X70150000Y-83150000D02*
X70150000Y-77750000D01*
X74050000Y-79400000D02*
X74050000Y-76300000D01*
X77150000Y-76300000D02*
X77150000Y-79400000D01*
D16*
X74180000Y-79725000D02*
G75*
G03*
X74180000Y-79725000I-80000J0D01*
G01*
D15*
X115935000Y-70272936D02*
X115935000Y-70727064D01*
X114465000Y-70272936D02*
X114465000Y-70727064D01*
X74225000Y-121931000D02*
X74096000Y-122059000D01*
X67640000Y-119840000D02*
X74760000Y-119840000D01*
X67640000Y-126000000D02*
X74760000Y-126000000D01*
X74760000Y-119840000D02*
X74760000Y-127560000D01*
X67400000Y-127160000D02*
X67400000Y-127800000D01*
X67640000Y-127560000D02*
X74760000Y-127560000D01*
X67640000Y-127100000D02*
X74760000Y-127100000D01*
X71805000Y-123941000D02*
X71676000Y-124069000D01*
X71975000Y-124181000D02*
X71881000Y-124274000D01*
X74020000Y-121725000D02*
X73926000Y-121819000D01*
X67400000Y-127800000D02*
X67800000Y-127800000D01*
X67640000Y-119840000D02*
X67640000Y-127560000D01*
X69450000Y-124680000D02*
G75*
G03*
X70340264Y-124424721I3J1679990D01*
G01*
X70875000Y-123891000D02*
G75*
G03*
X70875504Y-122109807I-1425003J891000D01*
G01*
X70316000Y-121559999D02*
G75*
G03*
X68560106Y-121574642I-866000J-1439999D01*
G01*
X68009999Y-122134000D02*
G75*
G03*
X68024642Y-123889894I1439999J-866000D01*
G01*
X68584000Y-124440000D02*
G75*
G03*
X69478674Y-124680099I866003J1440014D01*
G01*
X74630000Y-123000000D02*
G75*
G03*
X74630000Y-123000000I-1680000J0D01*
G01*
X140390000Y-83810000D02*
X140390000Y-73190000D01*
X142481000Y-73725000D02*
X142609000Y-73854000D01*
X144731000Y-75975000D02*
X144824000Y-76069000D01*
X144491000Y-79645000D02*
X144619000Y-79774000D01*
X146550000Y-83810000D02*
X146550000Y-73190000D01*
X147650000Y-83810000D02*
X147650000Y-73190000D01*
X142275000Y-77430000D02*
X142369000Y-77524000D01*
X147710000Y-84050000D02*
X148350000Y-84050000D01*
X148110000Y-83810000D02*
X148110000Y-73190000D01*
X144491000Y-76145000D02*
X144619000Y-76274000D01*
X140390000Y-83810000D02*
X148110000Y-83810000D01*
X148350000Y-84050000D02*
X148350000Y-83650000D01*
X140390000Y-73190000D02*
X148110000Y-73190000D01*
X142481000Y-77225000D02*
X142609000Y-77354000D01*
X142275000Y-73930000D02*
X142369000Y-74024000D01*
X144731000Y-79475000D02*
X144824000Y-79569000D01*
X144990000Y-82866000D02*
G75*
G03*
X145230099Y-81971326I-1440014J866003D01*
G01*
X145230000Y-82000000D02*
G75*
G03*
X144974721Y-81109736I-1679990J3D01*
G01*
X142684000Y-83440001D02*
G75*
G03*
X144439894Y-83425358I866000J1439999D01*
G01*
X142109999Y-81134000D02*
G75*
G03*
X142124642Y-82889894I1439999J-866000D01*
G01*
X144441000Y-80575000D02*
G75*
G03*
X142659807Y-80574496I-891000J-1425003D01*
G01*
X145230000Y-75000000D02*
G75*
G03*
X145230000Y-75000000I-1680000J0D01*
G01*
X145230000Y-78500000D02*
G75*
G03*
X145230000Y-78500000I-1680000J0D01*
G01*
X75020000Y-115450000D02*
X71920000Y-115450000D01*
X71920000Y-112350000D02*
X75020000Y-112350000D01*
D16*
X75425000Y-115400000D02*
G75*
G03*
X75425000Y-115400000I-80000J0D01*
G01*
D15*
X87885000Y-88613748D02*
X87885000Y-89136252D01*
X86415000Y-88613748D02*
X86415000Y-89136252D01*
X122040000Y-109504437D02*
X122040000Y-112290000D01*
X121175000Y-110415000D02*
X121175000Y-111665000D01*
X122040000Y-109504437D02*
X123104437Y-108440000D01*
X123104437Y-119160000D02*
X132760000Y-119160000D01*
X122040000Y-118095563D02*
X122040000Y-115310000D01*
X120550000Y-111040000D02*
X121800000Y-111040000D01*
X123104437Y-108440000D02*
X132760000Y-108440000D01*
X132760000Y-119160000D02*
X132760000Y-115310000D01*
X132760000Y-108440000D02*
X132760000Y-112290000D01*
X122040000Y-118095563D02*
X123104437Y-119160000D01*
X64275000Y-90570000D02*
X64181000Y-90476000D01*
X61819000Y-88525000D02*
X61726000Y-88431000D01*
X58900000Y-84190000D02*
X58900000Y-91310000D01*
X58440000Y-84190000D02*
X58440000Y-91310000D01*
X66160000Y-84190000D02*
X66160000Y-91310000D01*
X58840000Y-83950000D02*
X58200000Y-83950000D01*
X66160000Y-84190000D02*
X58440000Y-84190000D01*
X58200000Y-83950000D02*
X58200000Y-84350000D01*
X64069000Y-90775000D02*
X63941000Y-90646000D01*
X62059000Y-88355000D02*
X61931000Y-88226000D01*
X60000000Y-84190000D02*
X60000000Y-91310000D01*
X66160000Y-91310000D02*
X58440000Y-91310000D01*
X63866000Y-84559999D02*
G75*
G03*
X62110106Y-84574642I-866000J-1439999D01*
G01*
X61320000Y-86000000D02*
G75*
G03*
X61575279Y-86890264I1679990J-3D01*
G01*
X64440001Y-86866000D02*
G75*
G03*
X64425358Y-85110106I-1439999J866000D01*
G01*
X62109000Y-87425000D02*
G75*
G03*
X63890193Y-87425504I891000J1425003D01*
G01*
X61560000Y-85134000D02*
G75*
G03*
X61319901Y-86028674I1440014J-866003D01*
G01*
X64680000Y-89500000D02*
G75*
G03*
X64680000Y-89500000I-1680000J0D01*
G01*
X116850000Y-109850000D02*
X116850000Y-104450000D01*
X116850000Y-109850000D02*
X120150000Y-109850000D01*
X120150000Y-109850000D02*
X120150000Y-104450000D01*
D17*
X93325000Y-118225000D02*
G75*
G03*
X93325000Y-118225000I-125000J0D01*
G01*
D15*
X106322936Y-104885000D02*
X106777064Y-104885000D01*
X106322936Y-103415000D02*
X106777064Y-103415000D01*
X138860000Y-63940000D02*
X128240000Y-63940000D01*
X128240000Y-71660000D02*
X128240000Y-63940000D01*
X139100000Y-63700000D02*
X138700000Y-63700000D01*
X132480000Y-69775000D02*
X132574000Y-69681000D01*
X138860000Y-71660000D02*
X128240000Y-71660000D01*
X134695000Y-67559000D02*
X134824000Y-67431000D01*
X132275000Y-69569000D02*
X132404000Y-69441000D01*
X128980000Y-69775000D02*
X129074000Y-69681000D01*
X128775000Y-69569000D02*
X128904000Y-69441000D01*
X134525000Y-67319000D02*
X134619000Y-67226000D01*
X131195000Y-67559000D02*
X131324000Y-67431000D01*
X138860000Y-64400000D02*
X128240000Y-64400000D01*
X138860000Y-71660000D02*
X138860000Y-63940000D01*
X131025000Y-67319000D02*
X131119000Y-67226000D01*
X139100000Y-64340000D02*
X139100000Y-63700000D01*
X138860000Y-65500000D02*
X128240000Y-65500000D01*
X138490001Y-69366000D02*
G75*
G03*
X138475358Y-67610106I-1439999J866000D01*
G01*
X136184000Y-69940001D02*
G75*
G03*
X137939894Y-69925358I866000J1439999D01*
G01*
X137050000Y-66820000D02*
G75*
G03*
X136159736Y-67075279I-3J-1679990D01*
G01*
X137916000Y-67060000D02*
G75*
G03*
X137021326Y-66819901I-866003J-1440014D01*
G01*
X135625000Y-67609000D02*
G75*
G03*
X135624496Y-69390193I1425003J-891000D01*
G01*
X131730000Y-68500000D02*
G75*
G03*
X131730000Y-68500000I-1680000J0D01*
G01*
X135230000Y-68500000D02*
G75*
G03*
X135230000Y-68500000I-1680000J0D01*
G01*
X135955000Y-123941000D02*
X135826000Y-124069000D01*
X128290000Y-127560000D02*
X138910000Y-127560000D01*
X134875000Y-121931000D02*
X134746000Y-122059000D01*
X128050000Y-127800000D02*
X128450000Y-127800000D01*
X136125000Y-124181000D02*
X136031000Y-124274000D01*
X128050000Y-127160000D02*
X128050000Y-127800000D01*
X128290000Y-127100000D02*
X138910000Y-127100000D01*
X138170000Y-121725000D02*
X138076000Y-121819000D01*
X132625000Y-124181000D02*
X132531000Y-124274000D01*
X132455000Y-123941000D02*
X132326000Y-124069000D01*
X134670000Y-121725000D02*
X134576000Y-121819000D01*
X138910000Y-119840000D02*
X138910000Y-127560000D01*
X138375000Y-121931000D02*
X138246000Y-122059000D01*
X128290000Y-119840000D02*
X128290000Y-127560000D01*
X128290000Y-119840000D02*
X138910000Y-119840000D01*
X128290000Y-126000000D02*
X138910000Y-126000000D01*
X131525000Y-123891000D02*
G75*
G03*
X131525504Y-122109807I-1425003J891000D01*
G01*
X130966000Y-121559999D02*
G75*
G03*
X129210106Y-121574642I-866000J-1439999D01*
G01*
X130100000Y-124680000D02*
G75*
G03*
X130990264Y-124424721I3J1679990D01*
G01*
X128659999Y-122134000D02*
G75*
G03*
X128674642Y-123889894I1439999J-866000D01*
G01*
X129234000Y-124440000D02*
G75*
G03*
X130128674Y-124680099I866003J1440014D01*
G01*
X138780000Y-123000000D02*
G75*
G03*
X138780000Y-123000000I-1680000J0D01*
G01*
X135280000Y-123000000D02*
G75*
G03*
X135280000Y-123000000I-1680000J0D01*
G01*
X130665000Y-88911252D02*
X130665000Y-88388748D01*
X132135000Y-88911252D02*
X132135000Y-88388748D01*
X80275000Y-112350000D02*
X83375000Y-112350000D01*
X83375000Y-115450000D02*
X80275000Y-115450000D01*
D16*
X83780000Y-115400000D02*
G75*
G03*
X83780000Y-115400000I-80000J0D01*
G01*
D15*
X79805000Y-123941000D02*
X79676000Y-124069000D01*
X75400000Y-127160000D02*
X75400000Y-127800000D01*
X75640000Y-126000000D02*
X82760000Y-126000000D01*
X75640000Y-127560000D02*
X82760000Y-127560000D01*
X82225000Y-121931000D02*
X82096000Y-122059000D01*
X75640000Y-119840000D02*
X75640000Y-127560000D01*
X75400000Y-127800000D02*
X75800000Y-127800000D01*
X82020000Y-121725000D02*
X81926000Y-121819000D01*
X82760000Y-119840000D02*
X82760000Y-127560000D01*
X75640000Y-127100000D02*
X82760000Y-127100000D01*
X79975000Y-124181000D02*
X79881000Y-124274000D01*
X75640000Y-119840000D02*
X82760000Y-119840000D01*
X78875000Y-123891000D02*
G75*
G03*
X78875504Y-122109807I-1425003J891000D01*
G01*
X76009999Y-122134000D02*
G75*
G03*
X76024642Y-123889894I1439999J-866000D01*
G01*
X76584000Y-124440000D02*
G75*
G03*
X77478674Y-124680099I866003J1440014D01*
G01*
X77450000Y-124680000D02*
G75*
G03*
X78340264Y-124424721I3J1679990D01*
G01*
X78316000Y-121559999D02*
G75*
G03*
X76560106Y-121574642I-866000J-1439999D01*
G01*
X82630000Y-123000000D02*
G75*
G03*
X82630000Y-123000000I-1680000J0D01*
G01*
X73800000Y-95300000D02*
X70700000Y-95300000D01*
X70700000Y-92200000D02*
X73800000Y-92200000D01*
D16*
X74205000Y-95250000D02*
G75*
G03*
X74205000Y-95250000I-80000J0D01*
G01*
D15*
X70150000Y-91150000D02*
X70150000Y-85750000D01*
X66850000Y-91150000D02*
X70150000Y-91150000D01*
X66850000Y-91150000D02*
X66850000Y-85750000D01*
D18*
X84600000Y-72927500D02*
X139000000Y-72927500D01*
X139000000Y-72927500D02*
X139000000Y-100827500D01*
X84600000Y-100827500D02*
X84600000Y-79977500D01*
X139000000Y-100827500D02*
X84600000Y-100827500D01*
D15*
X95360000Y-111825580D02*
X95360000Y-111544420D01*
X94340000Y-111825580D02*
X94340000Y-111544420D01*
X73650000Y-108325000D02*
X73650000Y-111425000D01*
X70550000Y-111425000D02*
X70550000Y-108325000D01*
D16*
X73680000Y-108000000D02*
G75*
G03*
X73680000Y-108000000I-80000J0D01*
G01*
D15*
X93807500Y-111825580D02*
X93807500Y-111544420D01*
X92787500Y-111825580D02*
X92787500Y-111544420D01*
X74535436Y-98832500D02*
X74989564Y-98832500D01*
X74535436Y-97362500D02*
X74989564Y-97362500D01*
X101900000Y-68800000D02*
X101900000Y-66200000D01*
X110100000Y-69800000D02*
X110100000Y-70800000D01*
X102000000Y-64250000D02*
X108000000Y-64250000D01*
X102100000Y-70750000D02*
X107900000Y-70750000D01*
X110100000Y-70800000D02*
X109100000Y-70800000D01*
X108100000Y-68800000D02*
X108100000Y-66200000D01*
X73600000Y-77470000D02*
X73600000Y-80570000D01*
X70500000Y-80570000D02*
X70500000Y-77470000D01*
D16*
X70630000Y-80895000D02*
G75*
G03*
X70630000Y-80895000I-80000J0D01*
G01*
D15*
X79427064Y-78085000D02*
X78972936Y-78085000D01*
X79427064Y-76615000D02*
X78972936Y-76615000D01*
X85050000Y-76300000D02*
X85050000Y-79400000D01*
X81950000Y-79400000D02*
X81950000Y-76300000D01*
D16*
X82080000Y-79725000D02*
G75*
G03*
X82080000Y-79725000I-80000J0D01*
G01*
D15*
X116485000Y-106611252D02*
X116485000Y-106088748D01*
X115015000Y-106611252D02*
X115015000Y-106088748D01*
X73855000Y-102500000D02*
X70755000Y-102500000D01*
X70755000Y-99400000D02*
X73855000Y-99400000D01*
D16*
X74260000Y-102450000D02*
G75*
G03*
X74260000Y-102450000I-80000J0D01*
G01*
D15*
X66850000Y-99150000D02*
X66850000Y-93750000D01*
X66850000Y-99150000D02*
X70150000Y-99150000D01*
X70150000Y-99150000D02*
X70150000Y-93750000D01*
X95887500Y-111825580D02*
X95887500Y-111544420D01*
X96907500Y-111825580D02*
X96907500Y-111544420D01*
D13*
X129950000Y-88477500D02*
X120050000Y-88477500D01*
X120050000Y-88477500D02*
X120050000Y-85277500D01*
X130145000Y-83377500D02*
X130145000Y-84927500D01*
X129950000Y-85277500D02*
X129950000Y-88477500D01*
X120050000Y-85277500D02*
X129950000Y-85277500D01*
D15*
X58440000Y-108190000D02*
X58440000Y-115310000D01*
X60000000Y-108190000D02*
X60000000Y-115310000D01*
X64275000Y-114570000D02*
X64181000Y-114476000D01*
X66160000Y-108190000D02*
X58440000Y-108190000D01*
X61819000Y-112525000D02*
X61726000Y-112431000D01*
X58840000Y-107950000D02*
X58200000Y-107950000D01*
X62059000Y-112355000D02*
X61931000Y-112226000D01*
X66160000Y-115310000D02*
X58440000Y-115310000D01*
X58200000Y-107950000D02*
X58200000Y-108350000D01*
X66160000Y-108190000D02*
X66160000Y-115310000D01*
X58900000Y-108190000D02*
X58900000Y-115310000D01*
X64069000Y-114775000D02*
X63941000Y-114646000D01*
X61320000Y-110000000D02*
G75*
G03*
X61575279Y-110890264I1679990J-3D01*
G01*
X61560000Y-109134000D02*
G75*
G03*
X61319901Y-110028674I1440014J-866003D01*
G01*
X62109000Y-111425000D02*
G75*
G03*
X63890193Y-111425504I891000J1425003D01*
G01*
X64440001Y-110866000D02*
G75*
G03*
X64425358Y-109110106I-1439999J866000D01*
G01*
X63866000Y-108559999D02*
G75*
G03*
X62110106Y-108574642I-866000J-1439999D01*
G01*
X64680000Y-113500000D02*
G75*
G03*
X64680000Y-113500000I-1680000J0D01*
G01*
X77610000Y-87360436D02*
X77610000Y-87814564D01*
X76140000Y-87360436D02*
X76140000Y-87814564D01*
X75015000Y-105535436D02*
X75015000Y-105989564D01*
X76485000Y-105535436D02*
X76485000Y-105989564D01*
D18*
X109157500Y-115650000D02*
X105707500Y-115650000D01*
X103357500Y-116150000D02*
X103357500Y-117200000D01*
X103357500Y-127400000D02*
X112357500Y-127400000D01*
X112357500Y-123300000D02*
X112357500Y-120400000D01*
X105707500Y-115650000D02*
X105707500Y-116150000D01*
X103357500Y-120400000D02*
X103357500Y-123300000D01*
X112357500Y-127400000D02*
X112357500Y-126500000D01*
X109157500Y-115100000D02*
X109157500Y-115650000D01*
X103357500Y-126500000D02*
X103357500Y-127400000D01*
X112357500Y-117200000D02*
X112357500Y-115100000D01*
X105707500Y-116150000D02*
X103357500Y-116150000D01*
X112357500Y-115100000D02*
X109157500Y-115100000D01*
D19*
X100367500Y-118800000D02*
G75*
G03*
X100367500Y-118800000I-200000J0D01*
G01*
D15*
X58840000Y-75950000D02*
X58200000Y-75950000D01*
X66160000Y-76190000D02*
X66160000Y-83310000D01*
X61819000Y-80525000D02*
X61726000Y-80431000D01*
X58200000Y-75950000D02*
X58200000Y-76350000D01*
X58900000Y-76190000D02*
X58900000Y-83310000D01*
X64275000Y-82570000D02*
X64181000Y-82476000D01*
X64069000Y-82775000D02*
X63941000Y-82646000D01*
X66160000Y-76190000D02*
X58440000Y-76190000D01*
X66160000Y-83310000D02*
X58440000Y-83310000D01*
X60000000Y-76190000D02*
X60000000Y-83310000D01*
X62059000Y-80355000D02*
X61931000Y-80226000D01*
X58440000Y-76190000D02*
X58440000Y-83310000D01*
X64440001Y-78866000D02*
G75*
G03*
X64425358Y-77110106I-1439999J866000D01*
G01*
X61320000Y-78000000D02*
G75*
G03*
X61575279Y-78890264I1679990J-3D01*
G01*
X61560000Y-77134000D02*
G75*
G03*
X61319901Y-78028674I1440014J-866003D01*
G01*
X62109000Y-79425000D02*
G75*
G03*
X63890193Y-79425504I891000J1425003D01*
G01*
X63866000Y-76559999D02*
G75*
G03*
X62110106Y-76574642I-866000J-1439999D01*
G01*
X64680000Y-81500000D02*
G75*
G03*
X64680000Y-81500000I-1680000J0D01*
G01*
D13*
X112600000Y-105500000D02*
X112600000Y-110400000D01*
X109400000Y-110400000D02*
X109400000Y-105500000D01*
X112600000Y-110400000D02*
X109400000Y-110400000D01*
X109400000Y-105500000D02*
X112600000Y-105500000D01*
X114475000Y-110555000D02*
X112950000Y-110555000D01*
D15*
X87227064Y-80665000D02*
X86772936Y-80665000D01*
X87227064Y-82135000D02*
X86772936Y-82135000D01*
X74650000Y-115850000D02*
X69250000Y-115850000D01*
X74650000Y-119150000D02*
X69250000Y-119150000D01*
X74650000Y-119150000D02*
X74650000Y-115850000D01*
X96627064Y-94765000D02*
X96172936Y-94765000D01*
X96627064Y-96235000D02*
X96172936Y-96235000D01*
X74372936Y-84685000D02*
X74827064Y-84685000D01*
X74372936Y-83215000D02*
X74827064Y-83215000D01*
X76815000Y-98782936D02*
X76815000Y-99237064D01*
X78285000Y-98782936D02*
X78285000Y-99237064D01*
X121565000Y-103740000D02*
X121565000Y-106025000D01*
X123035000Y-106025000D02*
X123035000Y-103740000D01*
X123035000Y-103740000D02*
X121565000Y-103740000D01*
X110022936Y-66765000D02*
X110477064Y-66765000D01*
X110022936Y-68235000D02*
X110477064Y-68235000D01*
X117085000Y-77627064D02*
X117085000Y-77172936D01*
X115615000Y-77627064D02*
X115615000Y-77172936D01*
X116790000Y-119840000D02*
X116790000Y-127560000D01*
X116790000Y-119840000D02*
X127410000Y-119840000D01*
X124455000Y-123941000D02*
X124326000Y-124069000D01*
X126670000Y-121725000D02*
X126576000Y-121819000D01*
X123170000Y-121725000D02*
X123076000Y-121819000D01*
X120955000Y-123941000D02*
X120826000Y-124069000D01*
X124625000Y-124181000D02*
X124531000Y-124274000D01*
X116550000Y-127160000D02*
X116550000Y-127800000D01*
X127410000Y-119840000D02*
X127410000Y-127560000D01*
X116550000Y-127800000D02*
X116950000Y-127800000D01*
X126875000Y-121931000D02*
X126746000Y-122059000D01*
X116790000Y-127100000D02*
X127410000Y-127100000D01*
X116790000Y-127560000D02*
X127410000Y-127560000D01*
X123375000Y-121931000D02*
X123246000Y-122059000D01*
X116790000Y-126000000D02*
X127410000Y-126000000D01*
X121125000Y-124181000D02*
X121031000Y-124274000D01*
X117734000Y-124440000D02*
G75*
G03*
X118628674Y-124680099I866003J1440014D01*
G01*
X119466000Y-121559999D02*
G75*
G03*
X117710106Y-121574642I-866000J-1439999D01*
G01*
X120025000Y-123891000D02*
G75*
G03*
X120025504Y-122109807I-1425003J891000D01*
G01*
X117159999Y-122134000D02*
G75*
G03*
X117174642Y-123889894I1439999J-866000D01*
G01*
X118600000Y-124680000D02*
G75*
G03*
X119490264Y-124424721I3J1679990D01*
G01*
X123780000Y-123000000D02*
G75*
G03*
X123780000Y-123000000I-1680000J0D01*
G01*
X127280000Y-123000000D02*
G75*
G03*
X127280000Y-123000000I-1680000J0D01*
G01*
X122772936Y-96015000D02*
X123227064Y-96015000D01*
X122772936Y-97485000D02*
X123227064Y-97485000D01*
X75850000Y-72350000D02*
X81250000Y-72350000D01*
X75850000Y-72350000D02*
X75850000Y-75650000D01*
X75850000Y-75650000D02*
X81250000Y-75650000D01*
X142481000Y-88725000D02*
X142609000Y-88854000D01*
X142275000Y-88930000D02*
X142369000Y-89024000D01*
X144731000Y-90975000D02*
X144824000Y-91069000D01*
X140390000Y-84690000D02*
X148110000Y-84690000D01*
X144491000Y-87645000D02*
X144619000Y-87774000D01*
X147710000Y-95550000D02*
X148350000Y-95550000D01*
X144731000Y-87475000D02*
X144824000Y-87569000D01*
X147650000Y-95310000D02*
X147650000Y-84690000D01*
X140390000Y-95310000D02*
X140390000Y-84690000D01*
X142275000Y-85430000D02*
X142369000Y-85524000D01*
X148110000Y-95310000D02*
X148110000Y-84690000D01*
X144491000Y-91145000D02*
X144619000Y-91274000D01*
X146550000Y-95310000D02*
X146550000Y-84690000D01*
X142481000Y-85225000D02*
X142609000Y-85354000D01*
X140390000Y-95310000D02*
X148110000Y-95310000D01*
X148350000Y-95550000D02*
X148350000Y-95150000D01*
X145230000Y-93500000D02*
G75*
G03*
X144974721Y-92609736I-1679990J3D01*
G01*
X142109999Y-92634000D02*
G75*
G03*
X142124642Y-94389894I1439999J-866000D01*
G01*
X142684000Y-94940001D02*
G75*
G03*
X144439894Y-94925358I866000J1439999D01*
G01*
X144441000Y-92075000D02*
G75*
G03*
X142659807Y-92074496I-891000J-1425003D01*
G01*
X144990000Y-94366000D02*
G75*
G03*
X145230099Y-93471326I-1440014J866003D01*
G01*
X145230000Y-86500000D02*
G75*
G03*
X145230000Y-86500000I-1680000J0D01*
G01*
X145230000Y-90000000D02*
G75*
G03*
X145230000Y-90000000I-1680000J0D01*
G01*
X109822936Y-103415000D02*
X110277064Y-103415000D01*
X109822936Y-104885000D02*
X110277064Y-104885000D01*
X113935000Y-70272936D02*
X113935000Y-70727064D01*
X112465000Y-70272936D02*
X112465000Y-70727064D01*
X75672936Y-91265000D02*
X76127064Y-91265000D01*
X75672936Y-92735000D02*
X76127064Y-92735000D01*
X66160000Y-92190000D02*
X58440000Y-92190000D01*
X64069000Y-98775000D02*
X63941000Y-98646000D01*
X60000000Y-92190000D02*
X60000000Y-99310000D01*
X66160000Y-99310000D02*
X58440000Y-99310000D01*
X64275000Y-98570000D02*
X64181000Y-98476000D01*
X62059000Y-96355000D02*
X61931000Y-96226000D01*
X61819000Y-96525000D02*
X61726000Y-96431000D01*
X66160000Y-92190000D02*
X66160000Y-99310000D01*
X58840000Y-91950000D02*
X58200000Y-91950000D01*
X58440000Y-92190000D02*
X58440000Y-99310000D01*
X58900000Y-92190000D02*
X58900000Y-99310000D01*
X58200000Y-91950000D02*
X58200000Y-92350000D01*
X64440001Y-94866000D02*
G75*
G03*
X64425358Y-93110106I-1439999J866000D01*
G01*
X63866000Y-92559999D02*
G75*
G03*
X62110106Y-92574642I-866000J-1439999D01*
G01*
X61320000Y-94000000D02*
G75*
G03*
X61575279Y-94890264I1679990J-3D01*
G01*
X62109000Y-95425000D02*
G75*
G03*
X63890193Y-95425504I891000J1425003D01*
G01*
X61560000Y-93134000D02*
G75*
G03*
X61319901Y-94028674I1440014J-866003D01*
G01*
X64680000Y-97500000D02*
G75*
G03*
X64680000Y-97500000I-1680000J0D01*
G01*
X96684758Y-119932500D02*
X96210242Y-119932500D01*
X96684758Y-118887500D02*
X96210242Y-118887500D01*
X79385000Y-92685436D02*
X79385000Y-93139564D01*
X77915000Y-92685436D02*
X77915000Y-93139564D01*
X70500000Y-88500000D02*
X70500000Y-85400000D01*
X73600000Y-85400000D02*
X73600000Y-88500000D01*
D16*
X70630000Y-88825000D02*
G75*
G03*
X70630000Y-88825000I-80000J0D01*
G01*
D15*
X93438080Y-119920000D02*
X93156920Y-119920000D01*
X93438080Y-118900000D02*
X93156920Y-118900000D01*
X111935000Y-70272936D02*
X111935000Y-70727064D01*
X110465000Y-70272936D02*
X110465000Y-70727064D01*
X86772936Y-80135000D02*
X87227064Y-80135000D01*
X86772936Y-78665000D02*
X87227064Y-78665000D01*
X70425000Y-67319000D02*
X70519000Y-67226000D01*
X74760000Y-65500000D02*
X67640000Y-65500000D01*
X70595000Y-67559000D02*
X70724000Y-67431000D01*
X74760000Y-64400000D02*
X67640000Y-64400000D01*
X68380000Y-69775000D02*
X68474000Y-69681000D01*
X74760000Y-63940000D02*
X67640000Y-63940000D01*
X68175000Y-69569000D02*
X68304000Y-69441000D01*
X74760000Y-71660000D02*
X67640000Y-71660000D01*
X67640000Y-71660000D02*
X67640000Y-63940000D01*
X75000000Y-63700000D02*
X74600000Y-63700000D01*
X74760000Y-71660000D02*
X74760000Y-63940000D01*
X75000000Y-64340000D02*
X75000000Y-63700000D01*
X72950000Y-66820000D02*
G75*
G03*
X72059736Y-67075279I-3J-1679990D01*
G01*
X74390001Y-69366000D02*
G75*
G03*
X74375358Y-67610106I-1439999J866000D01*
G01*
X71525000Y-67609000D02*
G75*
G03*
X71524496Y-69390193I1425003J-891000D01*
G01*
X72084000Y-69940001D02*
G75*
G03*
X73839894Y-69925358I866000J1439999D01*
G01*
X73816000Y-67060000D02*
G75*
G03*
X72921326Y-66819901I-866003J-1440014D01*
G01*
X71130000Y-68500000D02*
G75*
G03*
X71130000Y-68500000I-1680000J0D01*
G01*
X67850000Y-72350000D02*
X73250000Y-72350000D01*
X67850000Y-72350000D02*
X67850000Y-75650000D01*
X67850000Y-75650000D02*
X73250000Y-75650000D01*
X124935000Y-105327064D02*
X124935000Y-104872936D01*
X123465000Y-105327064D02*
X123465000Y-104872936D01*
X66850000Y-107150000D02*
X70150000Y-107150000D01*
X66850000Y-107150000D02*
X66850000Y-101750000D01*
X70150000Y-107150000D02*
X70150000Y-101750000D01*
X105360000Y-107254437D02*
X104295563Y-106190000D01*
X105360000Y-111945563D02*
X105360000Y-110660000D01*
X104295563Y-106190000D02*
X98540000Y-106190000D01*
X105360000Y-111945563D02*
X104295563Y-113010000D01*
X104295563Y-113010000D02*
X98540000Y-113010000D01*
X105360000Y-107254437D02*
X105360000Y-108540000D01*
X98540000Y-113010000D02*
X98540000Y-110660000D01*
X98540000Y-106190000D02*
X98540000Y-108540000D01*
X71822936Y-104115000D02*
X72277064Y-104115000D01*
X71822936Y-105585000D02*
X72277064Y-105585000D01*
X98059420Y-114350000D02*
X98340580Y-114350000D01*
X98059420Y-115370000D02*
X98340580Y-115370000D01*
X126977064Y-97485000D02*
X126522936Y-97485000D01*
X126977064Y-96015000D02*
X126522936Y-96015000D01*
X76380000Y-69775000D02*
X76474000Y-69681000D01*
X83000000Y-64340000D02*
X83000000Y-63700000D01*
X78425000Y-67319000D02*
X78519000Y-67226000D01*
X82760000Y-65500000D02*
X75640000Y-65500000D01*
X75640000Y-71660000D02*
X75640000Y-63940000D01*
X76175000Y-69569000D02*
X76304000Y-69441000D01*
X82760000Y-63940000D02*
X75640000Y-63940000D01*
X82760000Y-71660000D02*
X82760000Y-63940000D01*
X82760000Y-64400000D02*
X75640000Y-64400000D01*
X78595000Y-67559000D02*
X78724000Y-67431000D01*
X82760000Y-71660000D02*
X75640000Y-71660000D01*
X83000000Y-63700000D02*
X82600000Y-63700000D01*
X81816000Y-67060000D02*
G75*
G03*
X80921326Y-66819901I-866003J-1440014D01*
G01*
X79525000Y-67609000D02*
G75*
G03*
X79524496Y-69390193I1425003J-891000D01*
G01*
X80084000Y-69940001D02*
G75*
G03*
X81839894Y-69925358I866000J1439999D01*
G01*
X80950000Y-66820000D02*
G75*
G03*
X80059736Y-67075279I-3J-1679990D01*
G01*
X82390001Y-69366000D02*
G75*
G03*
X82375358Y-67610106I-1439999J866000D01*
G01*
X79130000Y-68500000D02*
G75*
G03*
X79130000Y-68500000I-1680000J0D01*
G01*
X64069000Y-106775000D02*
X63941000Y-106646000D01*
X66160000Y-107310000D02*
X58440000Y-107310000D01*
X66160000Y-100190000D02*
X66160000Y-107310000D01*
X60000000Y-100190000D02*
X60000000Y-107310000D01*
X58840000Y-99950000D02*
X58200000Y-99950000D01*
X66160000Y-100190000D02*
X58440000Y-100190000D01*
X64275000Y-106570000D02*
X64181000Y-106476000D01*
X58200000Y-99950000D02*
X58200000Y-100350000D01*
X61819000Y-104525000D02*
X61726000Y-104431000D01*
X58440000Y-100190000D02*
X58440000Y-107310000D01*
X58900000Y-100190000D02*
X58900000Y-107310000D01*
X62059000Y-104355000D02*
X61931000Y-104226000D01*
X61560000Y-101134000D02*
G75*
G03*
X61319901Y-102028674I1440014J-866003D01*
G01*
X62109000Y-103425000D02*
G75*
G03*
X63890193Y-103425504I891000J1425003D01*
G01*
X61320000Y-102000000D02*
G75*
G03*
X61575279Y-102890264I1679990J-3D01*
G01*
X64440001Y-102866000D02*
G75*
G03*
X64425358Y-101110106I-1439999J866000D01*
G01*
X63866000Y-100559999D02*
G75*
G03*
X62110106Y-100574642I-866000J-1439999D01*
G01*
X64680000Y-105500000D02*
G75*
G03*
X64680000Y-105500000I-1680000J0D01*
G01*
X70150000Y-115150000D02*
X70150000Y-109750000D01*
X66850000Y-115150000D02*
X70150000Y-115150000D01*
X66850000Y-115150000D02*
X66850000Y-109750000D01*
X77072936Y-110065000D02*
X77527064Y-110065000D01*
X77072936Y-111535000D02*
X77527064Y-111535000D01*
X91613080Y-114350000D02*
X91331920Y-114350000D01*
X91613080Y-115370000D02*
X91331920Y-115370000D01*
%LPC*%
D20*
X77400000Y-83950000D03*
X77400000Y-82125000D03*
D21*
X81250000Y-117500000D03*
X77250000Y-117500000D03*
D22*
X143550000Y-105000000D03*
D23*
X143550000Y-101500000D03*
X143550000Y-98000000D03*
D20*
X80100000Y-110800000D03*
X80100000Y-108975000D03*
D24*
X78287500Y-79400000D03*
X80112500Y-79400000D03*
D22*
X125550000Y-68500000D03*
D23*
X122050000Y-68500000D03*
X118550000Y-68500000D03*
D22*
X143550000Y-116500000D03*
D23*
X143550000Y-113000000D03*
X143550000Y-109500000D03*
D24*
X106437500Y-111750000D03*
X108262500Y-111750000D03*
X118337500Y-96750000D03*
X120162500Y-96750000D03*
X83370000Y-111130000D03*
X85195000Y-111130000D03*
D25*
X89105000Y-93375000D03*
X90375000Y-93375000D03*
X91645000Y-93375000D03*
X92915000Y-93375000D03*
X94185000Y-93375000D03*
X95455000Y-93375000D03*
X96725000Y-93375000D03*
X97995000Y-93375000D03*
X97995000Y-87925000D03*
X96725000Y-87925000D03*
X95455000Y-87925000D03*
X94185000Y-87925000D03*
X92915000Y-87925000D03*
X91645000Y-87925000D03*
X90375000Y-87925000D03*
X89105000Y-87925000D03*
D22*
X95950000Y-68500000D03*
D23*
X92450000Y-68500000D03*
X88950000Y-68500000D03*
X85450000Y-68500000D03*
D26*
X144000000Y-123500000D03*
D27*
X85195000Y-109020000D03*
X83370000Y-109020000D03*
D20*
X74875000Y-88500000D03*
X74875000Y-86675000D03*
D28*
X118500000Y-113800000D03*
X118500000Y-111000000D03*
D29*
X68500000Y-81750000D03*
X68500000Y-77750000D03*
D26*
X62500000Y-123500000D03*
D30*
X74625000Y-79400000D03*
X75275000Y-79400000D03*
X75925000Y-79400000D03*
X76575000Y-79400000D03*
D31*
X76575000Y-76250000D03*
X75925000Y-76250000D03*
X75275000Y-76250000D03*
X74625000Y-76250000D03*
D32*
X75600000Y-77500000D03*
D33*
X115200000Y-69587500D03*
X115200000Y-71412500D03*
D22*
X69450000Y-123000000D03*
D23*
X72950000Y-123000000D03*
D22*
X143550000Y-82000000D03*
D23*
X143550000Y-78500000D03*
X143550000Y-75000000D03*
D30*
X75020000Y-114875000D03*
X75020000Y-114225000D03*
X75020000Y-113575000D03*
X75020000Y-112925000D03*
D34*
X71870000Y-112925000D03*
X71870000Y-113575000D03*
X71870000Y-114225000D03*
X71870000Y-114875000D03*
D35*
X73120000Y-113900000D03*
D36*
X87150000Y-87925000D03*
X87150000Y-89825000D03*
D37*
X123200000Y-113800000D03*
X131600000Y-113800000D03*
D22*
X63000000Y-86000000D03*
D23*
X63000000Y-89500000D03*
D29*
X118500000Y-108450000D03*
X118500000Y-104450000D03*
D38*
X93850000Y-117850000D03*
X94350000Y-117850000D03*
X94850000Y-117850000D03*
X95350000Y-117850000D03*
X95850000Y-117850000D03*
X95850000Y-114850000D03*
X95350000Y-114850000D03*
X94850000Y-114850000D03*
X94350000Y-114850000D03*
X93850000Y-114850000D03*
D39*
X94850000Y-116350000D03*
D24*
X105637500Y-104150000D03*
X107462500Y-104150000D03*
D22*
X137050000Y-68500000D03*
D23*
X133550000Y-68500000D03*
X130050000Y-68500000D03*
D22*
X130100000Y-123000000D03*
D23*
X133600000Y-123000000D03*
X137100000Y-123000000D03*
D40*
X131400000Y-89600000D03*
X131400000Y-87700000D03*
D30*
X83375000Y-114875000D03*
X83375000Y-114225000D03*
X83375000Y-113575000D03*
X83375000Y-112925000D03*
D34*
X80225000Y-112925000D03*
X80225000Y-113575000D03*
X80225000Y-114225000D03*
X80225000Y-114875000D03*
D35*
X81475000Y-113900000D03*
D22*
X77450000Y-123000000D03*
D23*
X80950000Y-123000000D03*
D30*
X73800000Y-94725000D03*
X73800000Y-94075000D03*
X73800000Y-93425000D03*
X73800000Y-92775000D03*
D34*
X70650000Y-92775000D03*
X70650000Y-93425000D03*
X70650000Y-94075000D03*
X70650000Y-94725000D03*
D35*
X71900000Y-93750000D03*
D29*
X68500000Y-89750000D03*
X68500000Y-85750000D03*
D41*
X131610000Y-74177500D03*
D42*
X129070000Y-74177500D03*
X126530000Y-74177500D03*
X123990000Y-74177500D03*
X121450000Y-74177500D03*
X118910000Y-74177500D03*
X116370000Y-74177500D03*
X113830000Y-74177500D03*
X111290000Y-74177500D03*
X108750000Y-74177500D03*
X106210000Y-74177500D03*
X103670000Y-74177500D03*
X101130000Y-74177500D03*
X98590000Y-74177500D03*
X96050000Y-74177500D03*
X93510000Y-74177500D03*
X90970000Y-74177500D03*
X88430000Y-74177500D03*
X85890000Y-74177500D03*
X131610000Y-99577500D03*
X129070000Y-99577500D03*
X126530000Y-99577500D03*
X123990000Y-99577500D03*
X121450000Y-99577500D03*
X118910000Y-99577500D03*
X116370000Y-99577500D03*
X113830000Y-99577500D03*
X111290000Y-99577500D03*
X108750000Y-99577500D03*
X106210000Y-99577500D03*
X103670000Y-99577500D03*
X101130000Y-99577500D03*
X98590000Y-99577500D03*
X96050000Y-99577500D03*
X93510000Y-99577500D03*
X90970000Y-99577500D03*
X88430000Y-99577500D03*
X85890000Y-99577500D03*
D43*
X94850000Y-112460000D03*
X94850000Y-110910000D03*
D30*
X73075000Y-108325000D03*
X72425000Y-108325000D03*
X71775000Y-108325000D03*
X71125000Y-108325000D03*
D31*
X71125000Y-111475000D03*
X71775000Y-111475000D03*
X72425000Y-111475000D03*
X73075000Y-111475000D03*
D32*
X72100000Y-110225000D03*
D43*
X93297500Y-112460000D03*
X93297500Y-110910000D03*
D24*
X73850000Y-98097500D03*
X75675000Y-98097500D03*
D44*
X109000000Y-69750000D03*
X101000000Y-69750000D03*
X109000000Y-65250000D03*
X101000000Y-65250000D03*
D30*
X71075000Y-80570000D03*
X71725000Y-80570000D03*
X72375000Y-80570000D03*
X73025000Y-80570000D03*
D31*
X73025000Y-77420000D03*
X72375000Y-77420000D03*
X71725000Y-77420000D03*
X71075000Y-77420000D03*
D32*
X72050000Y-78670000D03*
D27*
X80112500Y-77350000D03*
X78287500Y-77350000D03*
D30*
X82525000Y-79400000D03*
X83175000Y-79400000D03*
X83825000Y-79400000D03*
X84475000Y-79400000D03*
D31*
X84475000Y-76250000D03*
X83825000Y-76250000D03*
X83175000Y-76250000D03*
X82525000Y-76250000D03*
D32*
X83500000Y-77500000D03*
D40*
X115750000Y-107300000D03*
X115750000Y-105400000D03*
D30*
X73855000Y-101925000D03*
X73855000Y-101275000D03*
X73855000Y-100625000D03*
X73855000Y-99975000D03*
D34*
X70705000Y-99975000D03*
X70705000Y-100625000D03*
X70705000Y-101275000D03*
X70705000Y-101925000D03*
D35*
X71955000Y-100950000D03*
D29*
X68500000Y-97750000D03*
X68500000Y-93750000D03*
D43*
X96397500Y-112460000D03*
X96397500Y-110910000D03*
D25*
X129445000Y-84152500D03*
X128175000Y-84152500D03*
X126905000Y-84152500D03*
X125635000Y-84152500D03*
X124365000Y-84152500D03*
X123095000Y-84152500D03*
X121825000Y-84152500D03*
X120555000Y-84152500D03*
X120555000Y-89602500D03*
X121825000Y-89602500D03*
X123095000Y-89602500D03*
X124365000Y-89602500D03*
X125635000Y-89602500D03*
X126905000Y-89602500D03*
X128175000Y-89602500D03*
X129445000Y-89602500D03*
D22*
X63000000Y-110000000D03*
D23*
X63000000Y-113500000D03*
D33*
X76875000Y-86675000D03*
X76875000Y-88500000D03*
X75750000Y-104850000D03*
X75750000Y-106675000D03*
D45*
X107857500Y-124900000D03*
D46*
X107857500Y-120400000D03*
D47*
X102157500Y-118800000D03*
X102157500Y-124900000D03*
X113557500Y-124900000D03*
X113557500Y-118800000D03*
D22*
X63000000Y-78000000D03*
D23*
X63000000Y-81500000D03*
D48*
X113712000Y-109855000D03*
X113712000Y-108585000D03*
X113712000Y-107315000D03*
X113712000Y-106045000D03*
X108288000Y-106045000D03*
X108288000Y-107315000D03*
X108288000Y-108585000D03*
X108288000Y-109855000D03*
D27*
X87912500Y-81400000D03*
X86087500Y-81400000D03*
D21*
X73250000Y-117500000D03*
X69250000Y-117500000D03*
D27*
X97312500Y-95500000D03*
X95487500Y-95500000D03*
D26*
X105850000Y-93650000D03*
D24*
X73687500Y-83950000D03*
X75512500Y-83950000D03*
D33*
X77550000Y-98097500D03*
X77550000Y-99922500D03*
D49*
X122300000Y-104437500D03*
X122300000Y-106012500D03*
D24*
X109337500Y-67500000D03*
X111162500Y-67500000D03*
D20*
X116350000Y-78312500D03*
X116350000Y-76487500D03*
D22*
X118600000Y-123000000D03*
D23*
X122100000Y-123000000D03*
X125600000Y-123000000D03*
D24*
X122087500Y-96750000D03*
X123912500Y-96750000D03*
D21*
X77250000Y-74000000D03*
X81250000Y-74000000D03*
D22*
X143550000Y-93500000D03*
D23*
X143550000Y-90000000D03*
X143550000Y-86500000D03*
D24*
X109137500Y-104150000D03*
X110962500Y-104150000D03*
D33*
X113200000Y-69587500D03*
X113200000Y-71412500D03*
D24*
X74987500Y-92000000D03*
X76812500Y-92000000D03*
D22*
X63000000Y-94000000D03*
D23*
X63000000Y-97500000D03*
D50*
X97272500Y-119410000D03*
X95622500Y-119410000D03*
D33*
X78650000Y-92000000D03*
X78650000Y-93825000D03*
D30*
X71075000Y-88500000D03*
X71725000Y-88500000D03*
X72375000Y-88500000D03*
X73025000Y-88500000D03*
D31*
X73025000Y-85350000D03*
X72375000Y-85350000D03*
X71725000Y-85350000D03*
X71075000Y-85350000D03*
D32*
X72050000Y-86600000D03*
D51*
X94072500Y-119410000D03*
X92522500Y-119410000D03*
D33*
X111200000Y-69587500D03*
X111200000Y-71412500D03*
D24*
X86087500Y-79400000D03*
X87912500Y-79400000D03*
D22*
X72950000Y-68500000D03*
D23*
X69450000Y-68500000D03*
D26*
X144000000Y-68000000D03*
D21*
X69250000Y-74000000D03*
X73250000Y-74000000D03*
D20*
X124200000Y-106012500D03*
X124200000Y-104187500D03*
D29*
X68500000Y-105750000D03*
X68500000Y-101750000D03*
D52*
X104650000Y-109600000D03*
X99250000Y-109600000D03*
D26*
X62500000Y-68000000D03*
D24*
X71137500Y-104850000D03*
X72962500Y-104850000D03*
D53*
X97425000Y-114860000D03*
X98975000Y-114860000D03*
D27*
X127662500Y-96750000D03*
X125837500Y-96750000D03*
D22*
X80950000Y-68500000D03*
D23*
X77450000Y-68500000D03*
D22*
X63000000Y-102000000D03*
D23*
X63000000Y-105500000D03*
D29*
X68500000Y-113750000D03*
X68500000Y-109750000D03*
D24*
X76387500Y-110800000D03*
X78212500Y-110800000D03*
D51*
X92247500Y-114860000D03*
X90697500Y-114860000D03*
M02*
