G04 #@! TF.GenerationSoftware,KiCad,Pcbnew,(6.0.2)*
G04 #@! TF.CreationDate,2022-07-26T11:38:03+02:00*
G04 #@! TF.ProjectId,PCB_Layout_MOSFET,5043425f-4c61-4796-9f75-745f4d4f5346,rev?*
G04 #@! TF.SameCoordinates,Original*
G04 #@! TF.FileFunction,Soldermask,Top*
G04 #@! TF.FilePolarity,Negative*
%FSLAX46Y46*%
G04 Gerber Fmt 4.6, Leading zero omitted, Abs format (unit mm)*
G04 Created by KiCad (PCBNEW (6.0.2)) date 2022-07-26 11:38:03*
%MOMM*%
%LPD*%
G01*
G04 APERTURE LIST*
G04 Aperture macros list*
%AMRoundRect*
0 Rectangle with rounded corners*
0 $1 Rounding radius*
0 $2 $3 $4 $5 $6 $7 $8 $9 X,Y pos of 4 corners*
0 Add a 4 corners polygon primitive as box body*
4,1,4,$2,$3,$4,$5,$6,$7,$8,$9,$2,$3,0*
0 Add four circle primitives for the rounded corners*
1,1,$1+$1,$2,$3*
1,1,$1+$1,$4,$5*
1,1,$1+$1,$6,$7*
1,1,$1+$1,$8,$9*
0 Add four rect primitives between the rounded corners*
20,1,$1+$1,$2,$3,$4,$5,0*
20,1,$1+$1,$4,$5,$6,$7,0*
20,1,$1+$1,$6,$7,$8,$9,0*
20,1,$1+$1,$8,$9,$2,$3,0*%
G04 Aperture macros list end*
%ADD10R,1.700000X1.700000*%
%ADD11O,1.700000X1.700000*%
%ADD12C,2.500000*%
%ADD13C,1.700000*%
%ADD14C,1.800000*%
%ADD15R,2.400000X2.800000*%
%ADD16R,2.400000X2.400000*%
%ADD17C,2.400000*%
%ADD18RoundRect,0.250000X0.450000X-0.262500X0.450000X0.262500X-0.450000X0.262500X-0.450000X-0.262500X0*%
%ADD19RoundRect,0.150000X0.150000X-0.587500X0.150000X0.587500X-0.150000X0.587500X-0.150000X-0.587500X0*%
%ADD20RoundRect,0.250000X-0.262500X-0.450000X0.262500X-0.450000X0.262500X0.450000X-0.262500X0.450000X0*%
%ADD21RoundRect,0.250000X0.262500X0.450000X-0.262500X0.450000X-0.262500X-0.450000X0.262500X-0.450000X0*%
%ADD22R,0.700000X1.550000*%
%ADD23R,1.800000X2.500000*%
%ADD24RoundRect,0.250000X-0.550000X1.500000X-0.550000X-1.500000X0.550000X-1.500000X0.550000X1.500000X0*%
%ADD25RoundRect,0.250000X-0.450000X0.262500X-0.450000X-0.262500X0.450000X-0.262500X0.450000X0.262500X0*%
%ADD26R,2.500000X1.800000*%
%ADD27RoundRect,0.150000X0.587500X0.150000X-0.587500X0.150000X-0.587500X-0.150000X0.587500X-0.150000X0*%
%ADD28R,1.560000X1.560000*%
%ADD29C,1.560000*%
%ADD30RoundRect,0.150000X-0.150000X0.587500X-0.150000X-0.587500X0.150000X-0.587500X0.150000X0.587500X0*%
%ADD31RoundRect,0.250000X-1.000000X1.950000X-1.000000X-1.950000X1.000000X-1.950000X1.000000X1.950000X0*%
%ADD32RoundRect,0.250000X-0.475000X0.250000X-0.475000X-0.250000X0.475000X-0.250000X0.475000X0.250000X0*%
%ADD33R,1.525000X0.700000*%
%ADD34RoundRect,0.218750X0.256250X-0.218750X0.256250X0.218750X-0.256250X0.218750X-0.256250X-0.218750X0*%
%ADD35R,1.600000X1.400000*%
%ADD36RoundRect,0.250000X1.075000X-0.375000X1.075000X0.375000X-1.075000X0.375000X-1.075000X-0.375000X0*%
G04 APERTURE END LIST*
D10*
X87000000Y-108100000D03*
D11*
X84460000Y-108100000D03*
D10*
X131025000Y-104000000D03*
D11*
X128485000Y-104000000D03*
X125945000Y-104000000D03*
D12*
X103300000Y-95500000D03*
D13*
X107857500Y-124900000D03*
D14*
X107857500Y-120400000D03*
D15*
X102157500Y-118800000D03*
X102157500Y-124900000D03*
X113557500Y-124900000D03*
X113557500Y-118800000D03*
D16*
X118600000Y-123000000D03*
D17*
X122100000Y-123000000D03*
X125600000Y-123000000D03*
D18*
X92800000Y-94962500D03*
X92800000Y-93137500D03*
D19*
X81600000Y-79537500D03*
X83500000Y-79537500D03*
X82550000Y-77662500D03*
D18*
X112590000Y-109352500D03*
X112590000Y-107527500D03*
D16*
X69450000Y-123000000D03*
D17*
X72950000Y-123000000D03*
D20*
X78287500Y-97050000D03*
X80112500Y-97050000D03*
X78287500Y-101050000D03*
X80112500Y-101050000D03*
D16*
X125550000Y-68500000D03*
D17*
X122050000Y-68500000D03*
X118550000Y-68500000D03*
D16*
X63000000Y-94000000D03*
D17*
X63000000Y-97500000D03*
D21*
X80112500Y-87050000D03*
X78287500Y-87050000D03*
D20*
X98837500Y-77700000D03*
X100662500Y-77700000D03*
D22*
X89955000Y-89925000D03*
X91225000Y-89925000D03*
X92495000Y-89925000D03*
X93765000Y-89925000D03*
X95035000Y-89925000D03*
X96305000Y-89925000D03*
X97575000Y-89925000D03*
X98845000Y-89925000D03*
X98845000Y-84475000D03*
X97575000Y-84475000D03*
X96305000Y-84475000D03*
X95035000Y-84475000D03*
X93765000Y-84475000D03*
X92495000Y-84475000D03*
X91225000Y-84475000D03*
X89955000Y-84475000D03*
D18*
X125950000Y-108962500D03*
X125950000Y-107137500D03*
D16*
X95950000Y-68500000D03*
D17*
X92450000Y-68500000D03*
X88950000Y-68500000D03*
X85450000Y-68500000D03*
D23*
X69550000Y-87800000D03*
X69550000Y-91800000D03*
D20*
X78287500Y-91050000D03*
X80112500Y-91050000D03*
D24*
X99910000Y-108580000D03*
X99910000Y-113980000D03*
D25*
X94900000Y-78737500D03*
X94900000Y-80562500D03*
D16*
X143550000Y-82000000D03*
D17*
X143550000Y-78500000D03*
X143550000Y-75000000D03*
D16*
X137050000Y-68500000D03*
D17*
X133550000Y-68500000D03*
X130050000Y-68500000D03*
D12*
X145760000Y-66280000D03*
D26*
X73750000Y-74850000D03*
X69750000Y-74850000D03*
D16*
X77450000Y-123000000D03*
D17*
X80950000Y-123000000D03*
D27*
X74187500Y-96800000D03*
X74187500Y-94900000D03*
X72312500Y-95850000D03*
D28*
X131610000Y-74177500D03*
D29*
X129070000Y-74177500D03*
X126530000Y-74177500D03*
X123990000Y-74177500D03*
X121450000Y-74177500D03*
X118910000Y-74177500D03*
X116370000Y-74177500D03*
X113830000Y-74177500D03*
X111290000Y-74177500D03*
X108750000Y-74177500D03*
X106210000Y-74177500D03*
X103670000Y-74177500D03*
X101130000Y-74177500D03*
X98590000Y-74177500D03*
X96050000Y-74177500D03*
X93510000Y-74177500D03*
X90970000Y-74177500D03*
X88430000Y-74177500D03*
X85890000Y-74177500D03*
X131610000Y-99577500D03*
X129070000Y-99577500D03*
X126530000Y-99577500D03*
X123990000Y-99577500D03*
X121450000Y-99577500D03*
X118910000Y-99577500D03*
X116370000Y-99577500D03*
X113830000Y-99577500D03*
X111290000Y-99577500D03*
X108750000Y-99577500D03*
X106210000Y-99577500D03*
X103670000Y-99577500D03*
X101130000Y-99577500D03*
X98590000Y-99577500D03*
X96050000Y-99577500D03*
X93510000Y-99577500D03*
X90970000Y-99577500D03*
X88430000Y-99577500D03*
X85890000Y-99577500D03*
D18*
X90850000Y-94962500D03*
X90850000Y-93137500D03*
D12*
X60790000Y-125220000D03*
D26*
X82600000Y-74850000D03*
X78600000Y-74850000D03*
D20*
X114987500Y-104750000D03*
X116812500Y-104750000D03*
X78287500Y-95050000D03*
X80112500Y-95050000D03*
D16*
X143550000Y-105000000D03*
D17*
X143550000Y-101500000D03*
X143550000Y-98000000D03*
D20*
X78287500Y-99050000D03*
X80112500Y-99050000D03*
D23*
X69500000Y-79900000D03*
X69500000Y-83900000D03*
D22*
X131445000Y-84475000D03*
X130175000Y-84475000D03*
X128905000Y-84475000D03*
X127635000Y-84475000D03*
X126365000Y-84475000D03*
X125095000Y-84475000D03*
X123825000Y-84475000D03*
X122555000Y-84475000D03*
X122555000Y-89925000D03*
X123825000Y-89925000D03*
X125095000Y-89925000D03*
X126365000Y-89925000D03*
X127635000Y-89925000D03*
X128905000Y-89925000D03*
X130175000Y-89925000D03*
X131445000Y-89925000D03*
D25*
X92550000Y-78737500D03*
X92550000Y-80562500D03*
D23*
X69550000Y-103600000D03*
X69550000Y-107600000D03*
D25*
X101800000Y-67687500D03*
X101800000Y-69512500D03*
D30*
X82550000Y-112312500D03*
X80650000Y-112312500D03*
X81600000Y-114187500D03*
D16*
X63000000Y-78000000D03*
D17*
X63000000Y-81500000D03*
D31*
X119300000Y-107167500D03*
X119300000Y-115567500D03*
D12*
X145780000Y-125220000D03*
D16*
X72950000Y-68500000D03*
D17*
X69450000Y-68500000D03*
D12*
X60780000Y-66270000D03*
D16*
X63000000Y-86000000D03*
D17*
X63000000Y-89500000D03*
D16*
X85450000Y-123000000D03*
D17*
X88950000Y-123000000D03*
X92450000Y-123000000D03*
X95950000Y-123000000D03*
D16*
X63000000Y-110000000D03*
D17*
X63000000Y-113500000D03*
D32*
X104030000Y-103870000D03*
X104030000Y-105770000D03*
D27*
X74187500Y-104750000D03*
X74187500Y-102850000D03*
X72312500Y-103800000D03*
D26*
X81400000Y-116950000D03*
X85400000Y-116950000D03*
D16*
X130100000Y-123000000D03*
D17*
X133600000Y-123000000D03*
X137100000Y-123000000D03*
D27*
X75987500Y-113300000D03*
X75987500Y-111400000D03*
X74112500Y-112350000D03*
X74187500Y-109900000D03*
X74187500Y-108000000D03*
X72312500Y-108950000D03*
D16*
X63000000Y-102000000D03*
D17*
X63000000Y-105500000D03*
D27*
X74187500Y-83900000D03*
X74187500Y-82000000D03*
X72312500Y-82950000D03*
D33*
X106138000Y-101945000D03*
X106138000Y-103215000D03*
X106138000Y-104485000D03*
X106138000Y-105755000D03*
X111562000Y-105755000D03*
X111562000Y-104485000D03*
X111562000Y-103215000D03*
X111562000Y-101945000D03*
D27*
X74187500Y-88950000D03*
X74187500Y-87050000D03*
X72312500Y-88000000D03*
D34*
X125950000Y-112387500D03*
X125950000Y-110812500D03*
D23*
X69550000Y-95650000D03*
X69550000Y-99650000D03*
D35*
X105700000Y-65600000D03*
X113700000Y-65600000D03*
X105700000Y-70100000D03*
X113700000Y-70100000D03*
D36*
X108670000Y-111640000D03*
X108670000Y-108840000D03*
D19*
X76550000Y-79537500D03*
X78450000Y-79537500D03*
X77500000Y-77662500D03*
D20*
X78287500Y-89050000D03*
X80112500Y-89050000D03*
D18*
X95150000Y-94962500D03*
X95150000Y-93137500D03*
D21*
X80112500Y-93050000D03*
X78287500Y-93050000D03*
D25*
X87150000Y-88337500D03*
X87150000Y-90162500D03*
D16*
X143550000Y-93500000D03*
D17*
X143550000Y-90000000D03*
X143550000Y-86500000D03*
D18*
X87150000Y-86712500D03*
X87150000Y-84887500D03*
D20*
X98837500Y-79700000D03*
X100662500Y-79700000D03*
D23*
X105280000Y-108180000D03*
X105280000Y-112180000D03*
X69550000Y-111650000D03*
X69550000Y-115650000D03*
D20*
X114987500Y-102750000D03*
X116812500Y-102750000D03*
D25*
X90550000Y-78737500D03*
X90550000Y-80562500D03*
D16*
X80950000Y-68500000D03*
D17*
X77450000Y-68500000D03*
D26*
X74100000Y-115850000D03*
X78100000Y-115850000D03*
D16*
X143550000Y-116500000D03*
D17*
X143550000Y-113000000D03*
X143550000Y-109500000D03*
M02*
