G04 #@! TF.GenerationSoftware,KiCad,Pcbnew,(6.0.2)*
G04 #@! TF.CreationDate,2022-07-26T11:38:03+02:00*
G04 #@! TF.ProjectId,PCB_Layout_MOSFET,5043425f-4c61-4796-9f75-745f4d4f5346,rev?*
G04 #@! TF.SameCoordinates,Original*
G04 #@! TF.FileFunction,Soldermask,Bot*
G04 #@! TF.FilePolarity,Negative*
%FSLAX46Y46*%
G04 Gerber Fmt 4.6, Leading zero omitted, Abs format (unit mm)*
G04 Created by KiCad (PCBNEW (6.0.2)) date 2022-07-26 11:38:03*
%MOMM*%
%LPD*%
G01*
G04 APERTURE LIST*
%ADD10R,1.700000X1.700000*%
%ADD11O,1.700000X1.700000*%
%ADD12C,2.500000*%
%ADD13C,1.700000*%
%ADD14C,1.800000*%
%ADD15R,2.400000X2.400000*%
%ADD16C,2.400000*%
%ADD17R,1.560000X1.560000*%
%ADD18C,1.560000*%
G04 APERTURE END LIST*
D10*
X87000000Y-108100000D03*
D11*
X84460000Y-108100000D03*
D10*
X131025000Y-104000000D03*
D11*
X128485000Y-104000000D03*
X125945000Y-104000000D03*
D12*
X103300000Y-95500000D03*
D13*
X107857500Y-124900000D03*
D14*
X107857500Y-120400000D03*
D15*
X118600000Y-123000000D03*
D16*
X122100000Y-123000000D03*
X125600000Y-123000000D03*
D15*
X69450000Y-123000000D03*
D16*
X72950000Y-123000000D03*
D15*
X125550000Y-68500000D03*
D16*
X122050000Y-68500000D03*
X118550000Y-68500000D03*
D15*
X63000000Y-94000000D03*
D16*
X63000000Y-97500000D03*
D15*
X95950000Y-68500000D03*
D16*
X92450000Y-68500000D03*
X88950000Y-68500000D03*
X85450000Y-68500000D03*
D15*
X143550000Y-82000000D03*
D16*
X143550000Y-78500000D03*
X143550000Y-75000000D03*
D15*
X137050000Y-68500000D03*
D16*
X133550000Y-68500000D03*
X130050000Y-68500000D03*
D12*
X145760000Y-66280000D03*
D15*
X77450000Y-123000000D03*
D16*
X80950000Y-123000000D03*
D17*
X131610000Y-74177500D03*
D18*
X129070000Y-74177500D03*
X126530000Y-74177500D03*
X123990000Y-74177500D03*
X121450000Y-74177500D03*
X118910000Y-74177500D03*
X116370000Y-74177500D03*
X113830000Y-74177500D03*
X111290000Y-74177500D03*
X108750000Y-74177500D03*
X106210000Y-74177500D03*
X103670000Y-74177500D03*
X101130000Y-74177500D03*
X98590000Y-74177500D03*
X96050000Y-74177500D03*
X93510000Y-74177500D03*
X90970000Y-74177500D03*
X88430000Y-74177500D03*
X85890000Y-74177500D03*
X131610000Y-99577500D03*
X129070000Y-99577500D03*
X126530000Y-99577500D03*
X123990000Y-99577500D03*
X121450000Y-99577500D03*
X118910000Y-99577500D03*
X116370000Y-99577500D03*
X113830000Y-99577500D03*
X111290000Y-99577500D03*
X108750000Y-99577500D03*
X106210000Y-99577500D03*
X103670000Y-99577500D03*
X101130000Y-99577500D03*
X98590000Y-99577500D03*
X96050000Y-99577500D03*
X93510000Y-99577500D03*
X90970000Y-99577500D03*
X88430000Y-99577500D03*
X85890000Y-99577500D03*
D12*
X60790000Y-125220000D03*
D15*
X143550000Y-105000000D03*
D16*
X143550000Y-101500000D03*
X143550000Y-98000000D03*
D15*
X63000000Y-78000000D03*
D16*
X63000000Y-81500000D03*
D12*
X145780000Y-125220000D03*
D15*
X72950000Y-68500000D03*
D16*
X69450000Y-68500000D03*
D12*
X60780000Y-66270000D03*
D15*
X63000000Y-86000000D03*
D16*
X63000000Y-89500000D03*
D15*
X85450000Y-123000000D03*
D16*
X88950000Y-123000000D03*
X92450000Y-123000000D03*
X95950000Y-123000000D03*
D15*
X63000000Y-110000000D03*
D16*
X63000000Y-113500000D03*
D15*
X130100000Y-123000000D03*
D16*
X133600000Y-123000000D03*
X137100000Y-123000000D03*
D15*
X63000000Y-102000000D03*
D16*
X63000000Y-105500000D03*
D15*
X143550000Y-93500000D03*
D16*
X143550000Y-90000000D03*
X143550000Y-86500000D03*
D15*
X80950000Y-68500000D03*
D16*
X77450000Y-68500000D03*
D15*
X143550000Y-116500000D03*
D16*
X143550000Y-113000000D03*
X143550000Y-109500000D03*
M02*
