G04 #@! TF.GenerationSoftware,KiCad,Pcbnew,(6.0.2)*
G04 #@! TF.CreationDate,2023-08-04T12:43:31+02:00*
G04 #@! TF.ProjectId,PCB_Layout_MOSFET,5043425f-4c61-4796-9f75-745f4d4f5346,rev?*
G04 #@! TF.SameCoordinates,Original*
G04 #@! TF.FileFunction,Soldermask,Bot*
G04 #@! TF.FilePolarity,Negative*
%FSLAX46Y46*%
G04 Gerber Fmt 4.6, Leading zero omitted, Abs format (unit mm)*
G04 Created by KiCad (PCBNEW (6.0.2)) date 2023-08-04 12:43:31*
%MOMM*%
%LPD*%
G01*
G04 APERTURE LIST*
%ADD10R,2.400000X2.400000*%
%ADD11C,2.400000*%
%ADD12C,4.300000*%
%ADD13R,1.560000X1.560000*%
%ADD14C,1.560000*%
%ADD15C,1.700000*%
%ADD16C,1.800000*%
%ADD17C,2.000000*%
G04 APERTURE END LIST*
D10*
X143550000Y-105000000D03*
D11*
X143550000Y-101500000D03*
X143550000Y-98000000D03*
D10*
X125550000Y-68500000D03*
D11*
X122050000Y-68500000D03*
X118550000Y-68500000D03*
D10*
X143550000Y-116500000D03*
D11*
X143550000Y-113000000D03*
X143550000Y-109500000D03*
D10*
X95950000Y-68500000D03*
D11*
X92450000Y-68500000D03*
X88950000Y-68500000D03*
X85450000Y-68500000D03*
D12*
X144000000Y-123500000D03*
X62500000Y-123500000D03*
D10*
X69450000Y-123000000D03*
D11*
X72950000Y-123000000D03*
D10*
X143550000Y-82000000D03*
D11*
X143550000Y-78500000D03*
X143550000Y-75000000D03*
D10*
X63000000Y-86000000D03*
D11*
X63000000Y-89500000D03*
D10*
X137050000Y-68500000D03*
D11*
X133550000Y-68500000D03*
X130050000Y-68500000D03*
D10*
X130100000Y-123000000D03*
D11*
X133600000Y-123000000D03*
X137100000Y-123000000D03*
D10*
X77450000Y-123000000D03*
D11*
X80950000Y-123000000D03*
D13*
X131610000Y-74177500D03*
D14*
X129070000Y-74177500D03*
X126530000Y-74177500D03*
X123990000Y-74177500D03*
X121450000Y-74177500D03*
X118910000Y-74177500D03*
X116370000Y-74177500D03*
X113830000Y-74177500D03*
X111290000Y-74177500D03*
X108750000Y-74177500D03*
X106210000Y-74177500D03*
X103670000Y-74177500D03*
X101130000Y-74177500D03*
X98590000Y-74177500D03*
X96050000Y-74177500D03*
X93510000Y-74177500D03*
X90970000Y-74177500D03*
X88430000Y-74177500D03*
X85890000Y-74177500D03*
X131610000Y-99577500D03*
X129070000Y-99577500D03*
X126530000Y-99577500D03*
X123990000Y-99577500D03*
X121450000Y-99577500D03*
X118910000Y-99577500D03*
X116370000Y-99577500D03*
X113830000Y-99577500D03*
X111290000Y-99577500D03*
X108750000Y-99577500D03*
X106210000Y-99577500D03*
X103670000Y-99577500D03*
X101130000Y-99577500D03*
X98590000Y-99577500D03*
X96050000Y-99577500D03*
X93510000Y-99577500D03*
X90970000Y-99577500D03*
X88430000Y-99577500D03*
X85890000Y-99577500D03*
D10*
X63000000Y-110000000D03*
D11*
X63000000Y-113500000D03*
D15*
X107857500Y-124900000D03*
D16*
X107857500Y-120400000D03*
D10*
X63000000Y-78000000D03*
D11*
X63000000Y-81500000D03*
D12*
X105850000Y-93650000D03*
D10*
X118600000Y-123000000D03*
D11*
X122100000Y-123000000D03*
X125600000Y-123000000D03*
D10*
X143550000Y-93500000D03*
D11*
X143550000Y-90000000D03*
X143550000Y-86500000D03*
D10*
X63000000Y-94000000D03*
D11*
X63000000Y-97500000D03*
D10*
X72950000Y-68500000D03*
D11*
X69450000Y-68500000D03*
D12*
X144000000Y-68000000D03*
X62500000Y-68000000D03*
D10*
X80950000Y-68500000D03*
D11*
X77450000Y-68500000D03*
D10*
X63000000Y-102000000D03*
D11*
X63000000Y-105500000D03*
D17*
X140100000Y-113000000D03*
X111000000Y-115000000D03*
X89000000Y-103100000D03*
X140100000Y-116500000D03*
X89000000Y-106750000D03*
X111000000Y-118250000D03*
M02*
