%FSLAX45Y45*%
G04 Gerber Fmt 4.5, Leading zero omitted, Abs format (unit mm)*
G04 Created by KiCad (PCBNEW (6.0.2)) date 2022-07-27 14:52:00*
%MOMM*%
%LPD*%
G01*
G04 APERTURE LIST*
%TA.AperFunction,Profile*%
%ADD10C,0.100000*%
%TD*%
%ADD11C,0.200000*%
G04 APERTURE END LIST*
D10*
X4497000Y-9022000D02*
X8631000Y-9022000D01*
X8631000Y-9022000D02*
X8631000Y-12124000D01*
X8631000Y-12124000D02*
X4497000Y-12124000D01*
X4497000Y-12124000D02*
X4497000Y-9022000D01*
D11*
X4749619Y-12439476D02*
X4749619Y-12239476D01*
X4797238Y-12239476D01*
X4825810Y-12249000D01*
X4844857Y-12268048D01*
X4854381Y-12287095D01*
X4863905Y-12325190D01*
X4863905Y-12353762D01*
X4854381Y-12391857D01*
X4844857Y-12410905D01*
X4825810Y-12429952D01*
X4797238Y-12439476D01*
X4749619Y-12439476D01*
X4949619Y-12439476D02*
X4949619Y-12306143D01*
X4949619Y-12344238D02*
X4959143Y-12325190D01*
X4968667Y-12315667D01*
X4987714Y-12306143D01*
X5006762Y-12306143D01*
X5073429Y-12439476D02*
X5073429Y-12306143D01*
X5073429Y-12239476D02*
X5063905Y-12249000D01*
X5073429Y-12258524D01*
X5082952Y-12249000D01*
X5073429Y-12239476D01*
X5073429Y-12258524D01*
X5197238Y-12439476D02*
X5178190Y-12429952D01*
X5168667Y-12410905D01*
X5168667Y-12239476D01*
X5302000Y-12439476D02*
X5282952Y-12429952D01*
X5273429Y-12410905D01*
X5273429Y-12239476D01*
X5530571Y-12439476D02*
X5530571Y-12239476D01*
X5597238Y-12382333D01*
X5663905Y-12239476D01*
X5663905Y-12439476D01*
X5844857Y-12439476D02*
X5844857Y-12334714D01*
X5835333Y-12315667D01*
X5816286Y-12306143D01*
X5778190Y-12306143D01*
X5759143Y-12315667D01*
X5844857Y-12429952D02*
X5825809Y-12439476D01*
X5778190Y-12439476D01*
X5759143Y-12429952D01*
X5749619Y-12410905D01*
X5749619Y-12391857D01*
X5759143Y-12372809D01*
X5778190Y-12363286D01*
X5825809Y-12363286D01*
X5844857Y-12353762D01*
X5940095Y-12306143D02*
X5940095Y-12506143D01*
X5940095Y-12315667D02*
X5959143Y-12306143D01*
X5997238Y-12306143D01*
X6016286Y-12315667D01*
X6025809Y-12325190D01*
X6035333Y-12344238D01*
X6035333Y-12401381D01*
X6025809Y-12420428D01*
X6016286Y-12429952D01*
X5997238Y-12439476D01*
X5959143Y-12439476D01*
X5940095Y-12429952D01*
X6121048Y-12420428D02*
X6130571Y-12429952D01*
X6121048Y-12439476D01*
X6111524Y-12429952D01*
X6121048Y-12420428D01*
X6121048Y-12439476D01*
X6121048Y-12315667D02*
X6130571Y-12325190D01*
X6121048Y-12334714D01*
X6111524Y-12325190D01*
X6121048Y-12315667D01*
X6121048Y-12334714D01*
M02*
