G04 #@! TF.GenerationSoftware,KiCad,Pcbnew,(6.0.2)*
G04 #@! TF.CreationDate,2022-07-27T14:51:58+02:00*
G04 #@! TF.ProjectId,Multiplex_MOSFET,4d756c74-6970-46c6-9578-5f4d4f534645,rev?*
G04 #@! TF.SameCoordinates,Original*
G04 #@! TF.FileFunction,Legend,Top*
G04 #@! TF.FilePolarity,Positive*
%FSLAX46Y46*%
G04 Gerber Fmt 4.6, Leading zero omitted, Abs format (unit mm)*
G04 Created by KiCad (PCBNEW (6.0.2)) date 2022-07-27 14:51:58*
%MOMM*%
%LPD*%
G01*
G04 APERTURE LIST*
G04 Aperture macros list*
%AMRoundRect*
0 Rectangle with rounded corners*
0 $1 Rounding radius*
0 $2 $3 $4 $5 $6 $7 $8 $9 X,Y pos of 4 corners*
0 Add a 4 corners polygon primitive as box body*
4,1,4,$2,$3,$4,$5,$6,$7,$8,$9,$2,$3,0*
0 Add four circle primitives for the rounded corners*
1,1,$1+$1,$2,$3*
1,1,$1+$1,$4,$5*
1,1,$1+$1,$6,$7*
1,1,$1+$1,$8,$9*
0 Add four rect primitives between the rounded corners*
20,1,$1+$1,$2,$3,$4,$5,0*
20,1,$1+$1,$4,$5,$6,$7,0*
20,1,$1+$1,$6,$7,$8,$9,0*
20,1,$1+$1,$8,$9,$2,$3,0*%
G04 Aperture macros list end*
%ADD10C,0.100000*%
%ADD11C,0.230278*%
%ADD12C,0.150000*%
%ADD13C,0.254000*%
%ADD14C,0.120000*%
%ADD15C,0.200000*%
%ADD16RoundRect,0.250000X-0.450000X0.262500X-0.450000X-0.262500X0.450000X-0.262500X0.450000X0.262500X0*%
%ADD17RoundRect,0.250000X0.450000X-0.262500X0.450000X0.262500X-0.450000X0.262500X-0.450000X-0.262500X0*%
%ADD18RoundRect,0.250000X0.262500X0.450000X-0.262500X0.450000X-0.262500X-0.450000X0.262500X-0.450000X0*%
%ADD19RoundRect,0.250000X-0.262500X-0.450000X0.262500X-0.450000X0.262500X0.450000X-0.262500X0.450000X0*%
%ADD20RoundRect,0.150000X0.587500X0.150000X-0.587500X0.150000X-0.587500X-0.150000X0.587500X-0.150000X0*%
%ADD21C,3.800000*%
%ADD22R,1.700000X1.700000*%
%ADD23O,1.700000X1.700000*%
%ADD24R,1.550000X0.700000*%
%ADD25R,1.800000X2.500000*%
G04 APERTURE END LIST*
D10*
X73466666Y-114016666D02*
X73466666Y-114516666D01*
X73433333Y-114616666D01*
X73366666Y-114683333D01*
X73266666Y-114716666D01*
X73200000Y-114716666D01*
X74100000Y-114016666D02*
X73966666Y-114016666D01*
X73900000Y-114050000D01*
X73866666Y-114083333D01*
X73800000Y-114183333D01*
X73766666Y-114316666D01*
X73766666Y-114583333D01*
X73800000Y-114650000D01*
X73833333Y-114683333D01*
X73900000Y-114716666D01*
X74033333Y-114716666D01*
X74100000Y-114683333D01*
X74133333Y-114650000D01*
X74166666Y-114583333D01*
X74166666Y-114416666D01*
X74133333Y-114350000D01*
X74100000Y-114316666D01*
X74033333Y-114283333D01*
X73900000Y-114283333D01*
X73833333Y-114316666D01*
X73800000Y-114350000D01*
X73766666Y-114416666D01*
X70266666Y-114016666D02*
X70266666Y-114516666D01*
X70233333Y-114616666D01*
X70166666Y-114683333D01*
X70066666Y-114716666D01*
X70000000Y-114716666D01*
X70933333Y-114016666D02*
X70600000Y-114016666D01*
X70566666Y-114350000D01*
X70600000Y-114316666D01*
X70666666Y-114283333D01*
X70833333Y-114283333D01*
X70900000Y-114316666D01*
X70933333Y-114350000D01*
X70966666Y-114416666D01*
X70966666Y-114583333D01*
X70933333Y-114650000D01*
X70900000Y-114683333D01*
X70833333Y-114716666D01*
X70666666Y-114716666D01*
X70600000Y-114683333D01*
X70566666Y-114650000D01*
X71900000Y-113016666D02*
X71900000Y-112316666D01*
X72366666Y-112316666D02*
X72500000Y-112316666D01*
X72566666Y-112350000D01*
X72633333Y-112416666D01*
X72666666Y-112550000D01*
X72666666Y-112783333D01*
X72633333Y-112916666D01*
X72566666Y-112983333D01*
X72500000Y-113016666D01*
X72366666Y-113016666D01*
X72300000Y-112983333D01*
X72233333Y-112916666D01*
X72200000Y-112783333D01*
X72200000Y-112550000D01*
X72233333Y-112416666D01*
X72300000Y-112350000D01*
X72366666Y-112316666D01*
X72900000Y-112316666D02*
X73366666Y-112316666D01*
X72900000Y-113016666D01*
X73366666Y-113016666D01*
X70366666Y-115116666D02*
X70033333Y-115116666D01*
X70000000Y-115450000D01*
X70033333Y-115416666D01*
X70100000Y-115383333D01*
X70266666Y-115383333D01*
X70333333Y-115416666D01*
X70366666Y-115450000D01*
X70400000Y-115516666D01*
X70400000Y-115683333D01*
X70366666Y-115750000D01*
X70333333Y-115783333D01*
X70266666Y-115816666D01*
X70100000Y-115816666D01*
X70033333Y-115783333D01*
X70000000Y-115750000D01*
X70600000Y-115116666D02*
X70833333Y-115816666D01*
X71066666Y-115116666D01*
X73200000Y-115816666D02*
X73200000Y-115116666D01*
X73666666Y-115116666D02*
X73800000Y-115116666D01*
X73866666Y-115150000D01*
X73933333Y-115216666D01*
X73966666Y-115350000D01*
X73966666Y-115583333D01*
X73933333Y-115716666D01*
X73866666Y-115783333D01*
X73800000Y-115816666D01*
X73666666Y-115816666D01*
X73600000Y-115783333D01*
X73533333Y-115716666D01*
X73500000Y-115583333D01*
X73500000Y-115350000D01*
X73533333Y-115216666D01*
X73600000Y-115150000D01*
X73666666Y-115116666D01*
X74400000Y-115116666D02*
X74466666Y-115116666D01*
X74533333Y-115150000D01*
X74566666Y-115183333D01*
X74600000Y-115250000D01*
X74633333Y-115383333D01*
X74633333Y-115550000D01*
X74600000Y-115683333D01*
X74566666Y-115750000D01*
X74533333Y-115783333D01*
X74466666Y-115816666D01*
X74400000Y-115816666D01*
X74333333Y-115783333D01*
X74300000Y-115750000D01*
X74266666Y-115683333D01*
X74233333Y-115550000D01*
X74233333Y-115383333D01*
X74266666Y-115250000D01*
X74300000Y-115183333D01*
X74333333Y-115150000D01*
X74400000Y-115116666D01*
D11*
X71615139Y-112750000D02*
G75*
G03*
X71615139Y-112750000I-115139J0D01*
G01*
X71615139Y-115300000D02*
G75*
G03*
X71615139Y-115300000I-115139J0D01*
G01*
X72865139Y-115300000D02*
G75*
G03*
X72865139Y-115300000I-115139J0D01*
G01*
D10*
X71500000Y-115300000D02*
X71500000Y-114750000D01*
X71500000Y-114750000D02*
X71750000Y-114250000D01*
X72750000Y-114750000D02*
X73000000Y-114250000D01*
X71500000Y-113750000D02*
X71500000Y-112750000D01*
X71500000Y-113750000D02*
X71500000Y-114250000D01*
X72750000Y-113750000D02*
X71500000Y-113750000D01*
X72750000Y-114250000D02*
X72750000Y-113750000D01*
X72750000Y-115300000D02*
X72750000Y-114750000D01*
X65050000Y-102816666D02*
X65050000Y-102116666D01*
X65516666Y-102116666D02*
X65650000Y-102116666D01*
X65716666Y-102150000D01*
X65783333Y-102216666D01*
X65816666Y-102350000D01*
X65816666Y-102583333D01*
X65783333Y-102716666D01*
X65716666Y-102783333D01*
X65650000Y-102816666D01*
X65516666Y-102816666D01*
X65450000Y-102783333D01*
X65383333Y-102716666D01*
X65350000Y-102583333D01*
X65350000Y-102350000D01*
X65383333Y-102216666D01*
X65450000Y-102150000D01*
X65516666Y-102116666D01*
X66050000Y-102116666D02*
X66516666Y-102116666D01*
X66050000Y-102816666D01*
X66516666Y-102816666D01*
X69766666Y-110286500D02*
X69766666Y-110753166D01*
X69466666Y-110286500D02*
X69466666Y-110653166D01*
X69500000Y-110719833D01*
X69566666Y-110753166D01*
X69666666Y-110753166D01*
X69733333Y-110719833D01*
X69766666Y-110686500D01*
X70066666Y-110719833D02*
X70133333Y-110753166D01*
X70266666Y-110753166D01*
X70333333Y-110719833D01*
X70366666Y-110653166D01*
X70366666Y-110619833D01*
X70333333Y-110553166D01*
X70266666Y-110519833D01*
X70166666Y-110519833D01*
X70100000Y-110486500D01*
X70066666Y-110419833D01*
X70066666Y-110386500D01*
X70100000Y-110319833D01*
X70166666Y-110286500D01*
X70266666Y-110286500D01*
X70333333Y-110319833D01*
X70933333Y-110719833D02*
X70866666Y-110753166D01*
X70733333Y-110753166D01*
X70666666Y-110719833D01*
X70633333Y-110653166D01*
X70633333Y-110386500D01*
X70666666Y-110319833D01*
X70733333Y-110286500D01*
X70866666Y-110286500D01*
X70933333Y-110319833D01*
X70966666Y-110386500D01*
X70966666Y-110453166D01*
X70633333Y-110519833D01*
X71800000Y-110286500D02*
X71800000Y-110886500D01*
X71766666Y-110953166D01*
X71700000Y-110986500D01*
X71666666Y-110986500D01*
X71800000Y-110053166D02*
X71766666Y-110086500D01*
X71800000Y-110119833D01*
X71833333Y-110086500D01*
X71800000Y-110053166D01*
X71800000Y-110119833D01*
X72433333Y-110286500D02*
X72433333Y-110753166D01*
X72133333Y-110286500D02*
X72133333Y-110653166D01*
X72166666Y-110719833D01*
X72233333Y-110753166D01*
X72333333Y-110753166D01*
X72400000Y-110719833D01*
X72433333Y-110686500D01*
X72766666Y-110753166D02*
X72766666Y-110286500D01*
X72766666Y-110353166D02*
X72800000Y-110319833D01*
X72866666Y-110286500D01*
X72966666Y-110286500D01*
X73033333Y-110319833D01*
X73066666Y-110386500D01*
X73066666Y-110753166D01*
X73066666Y-110386500D02*
X73100000Y-110319833D01*
X73166666Y-110286500D01*
X73266666Y-110286500D01*
X73333333Y-110319833D01*
X73366666Y-110386500D01*
X73366666Y-110753166D01*
X73700000Y-110286500D02*
X73700000Y-110986500D01*
X73700000Y-110319833D02*
X73766666Y-110286500D01*
X73900000Y-110286500D01*
X73966666Y-110319833D01*
X74000000Y-110353166D01*
X74033333Y-110419833D01*
X74033333Y-110619833D01*
X74000000Y-110686500D01*
X73966666Y-110719833D01*
X73900000Y-110753166D01*
X73766666Y-110753166D01*
X73700000Y-110719833D01*
X74600000Y-110719833D02*
X74533333Y-110753166D01*
X74400000Y-110753166D01*
X74333333Y-110719833D01*
X74300000Y-110653166D01*
X74300000Y-110386500D01*
X74333333Y-110319833D01*
X74400000Y-110286500D01*
X74533333Y-110286500D01*
X74600000Y-110319833D01*
X74633333Y-110386500D01*
X74633333Y-110453166D01*
X74300000Y-110519833D01*
X74933333Y-110753166D02*
X74933333Y-110286500D01*
X74933333Y-110419833D02*
X74966666Y-110353166D01*
X75000000Y-110319833D01*
X75066666Y-110286500D01*
X75133333Y-110286500D01*
X69450000Y-111413500D02*
X69716666Y-111413500D01*
X69550000Y-111180166D02*
X69550000Y-111780166D01*
X69583333Y-111846833D01*
X69650000Y-111880166D01*
X69716666Y-111880166D01*
X70050000Y-111880166D02*
X69983333Y-111846833D01*
X69950000Y-111813500D01*
X69916666Y-111746833D01*
X69916666Y-111546833D01*
X69950000Y-111480166D01*
X69983333Y-111446833D01*
X70050000Y-111413500D01*
X70150000Y-111413500D01*
X70216666Y-111446833D01*
X70250000Y-111480166D01*
X70283333Y-111546833D01*
X70283333Y-111746833D01*
X70250000Y-111813500D01*
X70216666Y-111846833D01*
X70150000Y-111880166D01*
X70050000Y-111880166D01*
X71083333Y-111846833D02*
X71150000Y-111880166D01*
X71283333Y-111880166D01*
X71350000Y-111846833D01*
X71383333Y-111780166D01*
X71383333Y-111746833D01*
X71350000Y-111680166D01*
X71283333Y-111646833D01*
X71183333Y-111646833D01*
X71116666Y-111613500D01*
X71083333Y-111546833D01*
X71083333Y-111513500D01*
X71116666Y-111446833D01*
X71183333Y-111413500D01*
X71283333Y-111413500D01*
X71350000Y-111446833D01*
X71950000Y-111846833D02*
X71883333Y-111880166D01*
X71750000Y-111880166D01*
X71683333Y-111846833D01*
X71650000Y-111780166D01*
X71650000Y-111513500D01*
X71683333Y-111446833D01*
X71750000Y-111413500D01*
X71883333Y-111413500D01*
X71950000Y-111446833D01*
X71983333Y-111513500D01*
X71983333Y-111580166D01*
X71650000Y-111646833D01*
X72183333Y-111413500D02*
X72450000Y-111413500D01*
X72283333Y-111180166D02*
X72283333Y-111780166D01*
X72316666Y-111846833D01*
X72383333Y-111880166D01*
X72450000Y-111880166D01*
X73216666Y-111880166D02*
X73216666Y-111180166D01*
X73683333Y-111180166D02*
X73816666Y-111180166D01*
X73883333Y-111213500D01*
X73950000Y-111280166D01*
X73983333Y-111413500D01*
X73983333Y-111646833D01*
X73950000Y-111780166D01*
X73883333Y-111846833D01*
X73816666Y-111880166D01*
X73683333Y-111880166D01*
X73616666Y-111846833D01*
X73550000Y-111780166D01*
X73516666Y-111646833D01*
X73516666Y-111413500D01*
X73550000Y-111280166D01*
X73616666Y-111213500D01*
X73683333Y-111180166D01*
X74216666Y-111180166D02*
X74683333Y-111180166D01*
X74216666Y-111880166D01*
X74683333Y-111880166D01*
X74950000Y-111813500D02*
X74983333Y-111846833D01*
X74950000Y-111880166D01*
X74916666Y-111846833D01*
X74950000Y-111813500D01*
X74950000Y-111880166D01*
X74950000Y-111446833D02*
X74983333Y-111480166D01*
X74950000Y-111513500D01*
X74916666Y-111480166D01*
X74950000Y-111446833D01*
X74950000Y-111513500D01*
X74050000Y-106816666D02*
X74050000Y-106116666D01*
X74516666Y-106116666D02*
X74650000Y-106116666D01*
X74716666Y-106150000D01*
X74783333Y-106216666D01*
X74816666Y-106350000D01*
X74816666Y-106583333D01*
X74783333Y-106716666D01*
X74716666Y-106783333D01*
X74650000Y-106816666D01*
X74516666Y-106816666D01*
X74450000Y-106783333D01*
X74383333Y-106716666D01*
X74350000Y-106583333D01*
X74350000Y-106350000D01*
X74383333Y-106216666D01*
X74450000Y-106150000D01*
X74516666Y-106116666D01*
X75483333Y-106816666D02*
X75083333Y-106816666D01*
X75283333Y-106816666D02*
X75283333Y-106116666D01*
X75216666Y-106216666D01*
X75150000Y-106283333D01*
X75083333Y-106316666D01*
X74050000Y-108066666D02*
X74050000Y-107366666D01*
X74516666Y-107366666D02*
X74650000Y-107366666D01*
X74716666Y-107400000D01*
X74783333Y-107466666D01*
X74816666Y-107600000D01*
X74816666Y-107833333D01*
X74783333Y-107966666D01*
X74716666Y-108033333D01*
X74650000Y-108066666D01*
X74516666Y-108066666D01*
X74450000Y-108033333D01*
X74383333Y-107966666D01*
X74350000Y-107833333D01*
X74350000Y-107600000D01*
X74383333Y-107466666D01*
X74450000Y-107400000D01*
X74516666Y-107366666D01*
X75083333Y-107433333D02*
X75116666Y-107400000D01*
X75183333Y-107366666D01*
X75350000Y-107366666D01*
X75416666Y-107400000D01*
X75450000Y-107433333D01*
X75483333Y-107500000D01*
X75483333Y-107566666D01*
X75450000Y-107666666D01*
X75050000Y-108066666D01*
X75483333Y-108066666D01*
X74050000Y-109316666D02*
X74050000Y-108616666D01*
X74516666Y-108616666D02*
X74650000Y-108616666D01*
X74716666Y-108650000D01*
X74783333Y-108716666D01*
X74816666Y-108850000D01*
X74816666Y-109083333D01*
X74783333Y-109216666D01*
X74716666Y-109283333D01*
X74650000Y-109316666D01*
X74516666Y-109316666D01*
X74450000Y-109283333D01*
X74383333Y-109216666D01*
X74350000Y-109083333D01*
X74350000Y-108850000D01*
X74383333Y-108716666D01*
X74450000Y-108650000D01*
X74516666Y-108616666D01*
X75050000Y-108616666D02*
X75483333Y-108616666D01*
X75250000Y-108883333D01*
X75350000Y-108883333D01*
X75416666Y-108916666D01*
X75450000Y-108950000D01*
X75483333Y-109016666D01*
X75483333Y-109183333D01*
X75450000Y-109250000D01*
X75416666Y-109283333D01*
X75350000Y-109316666D01*
X75150000Y-109316666D01*
X75083333Y-109283333D01*
X75050000Y-109250000D01*
X76150000Y-117566666D02*
X76150000Y-116866666D01*
X76616666Y-116866666D02*
X76750000Y-116866666D01*
X76816666Y-116900000D01*
X76883333Y-116966666D01*
X76916666Y-117100000D01*
X76916666Y-117333333D01*
X76883333Y-117466666D01*
X76816666Y-117533333D01*
X76750000Y-117566666D01*
X76616666Y-117566666D01*
X76550000Y-117533333D01*
X76483333Y-117466666D01*
X76450000Y-117333333D01*
X76450000Y-117100000D01*
X76483333Y-116966666D01*
X76550000Y-116900000D01*
X76616666Y-116866666D01*
X77350000Y-116866666D02*
X77416666Y-116866666D01*
X77483333Y-116900000D01*
X77516666Y-116933333D01*
X77550000Y-117000000D01*
X77583333Y-117133333D01*
X77583333Y-117300000D01*
X77550000Y-117433333D01*
X77516666Y-117500000D01*
X77483333Y-117533333D01*
X77416666Y-117566666D01*
X77350000Y-117566666D01*
X77283333Y-117533333D01*
X77250000Y-117500000D01*
X77216666Y-117433333D01*
X77183333Y-117300000D01*
X77183333Y-117133333D01*
X77216666Y-117000000D01*
X77250000Y-116933333D01*
X77283333Y-116900000D01*
X77350000Y-116866666D01*
X78416666Y-117566666D02*
X78416666Y-116866666D01*
X78883333Y-116866666D02*
X79016666Y-116866666D01*
X79083333Y-116900000D01*
X79150000Y-116966666D01*
X79183333Y-117100000D01*
X79183333Y-117333333D01*
X79150000Y-117466666D01*
X79083333Y-117533333D01*
X79016666Y-117566666D01*
X78883333Y-117566666D01*
X78816666Y-117533333D01*
X78750000Y-117466666D01*
X78716666Y-117333333D01*
X78716666Y-117100000D01*
X78750000Y-116966666D01*
X78816666Y-116900000D01*
X78883333Y-116866666D01*
X79416666Y-116866666D02*
X79850000Y-116866666D01*
X79616666Y-117133333D01*
X79716666Y-117133333D01*
X79783333Y-117166666D01*
X79816666Y-117200000D01*
X79850000Y-117266666D01*
X79850000Y-117433333D01*
X79816666Y-117500000D01*
X79783333Y-117533333D01*
X79716666Y-117566666D01*
X79516666Y-117566666D01*
X79450000Y-117533333D01*
X79416666Y-117500000D01*
X80683333Y-117566666D02*
X80683333Y-116866666D01*
X81150000Y-116866666D02*
X81283333Y-116866666D01*
X81350000Y-116900000D01*
X81416666Y-116966666D01*
X81450000Y-117100000D01*
X81450000Y-117333333D01*
X81416666Y-117466666D01*
X81350000Y-117533333D01*
X81283333Y-117566666D01*
X81150000Y-117566666D01*
X81083333Y-117533333D01*
X81016666Y-117466666D01*
X80983333Y-117333333D01*
X80983333Y-117100000D01*
X81016666Y-116966666D01*
X81083333Y-116900000D01*
X81150000Y-116866666D01*
X81716666Y-116933333D02*
X81750000Y-116900000D01*
X81816666Y-116866666D01*
X81983333Y-116866666D01*
X82050000Y-116900000D01*
X82083333Y-116933333D01*
X82116666Y-117000000D01*
X82116666Y-117066666D01*
X82083333Y-117166666D01*
X81683333Y-117566666D01*
X82116666Y-117566666D01*
X82950000Y-117566666D02*
X82950000Y-116866666D01*
X83416666Y-116866666D02*
X83550000Y-116866666D01*
X83616666Y-116900000D01*
X83683333Y-116966666D01*
X83716666Y-117100000D01*
X83716666Y-117333333D01*
X83683333Y-117466666D01*
X83616666Y-117533333D01*
X83550000Y-117566666D01*
X83416666Y-117566666D01*
X83350000Y-117533333D01*
X83283333Y-117466666D01*
X83250000Y-117333333D01*
X83250000Y-117100000D01*
X83283333Y-116966666D01*
X83350000Y-116900000D01*
X83416666Y-116866666D01*
X84383333Y-117566666D02*
X83983333Y-117566666D01*
X84183333Y-117566666D02*
X84183333Y-116866666D01*
X84116666Y-116966666D01*
X84050000Y-117033333D01*
X83983333Y-117066666D01*
X67800000Y-116866666D02*
X67466666Y-116866666D01*
X67433333Y-117200000D01*
X67466666Y-117166666D01*
X67533333Y-117133333D01*
X67700000Y-117133333D01*
X67766666Y-117166666D01*
X67800000Y-117200000D01*
X67833333Y-117266666D01*
X67833333Y-117433333D01*
X67800000Y-117500000D01*
X67766666Y-117533333D01*
X67700000Y-117566666D01*
X67533333Y-117566666D01*
X67466666Y-117533333D01*
X67433333Y-117500000D01*
X68033333Y-116866666D02*
X68266666Y-117566666D01*
X68500000Y-116866666D01*
X69200000Y-116866666D02*
X69633333Y-116866666D01*
X69400000Y-117133333D01*
X69500000Y-117133333D01*
X69566666Y-117166666D01*
X69600000Y-117200000D01*
X69633333Y-117266666D01*
X69633333Y-117433333D01*
X69600000Y-117500000D01*
X69566666Y-117533333D01*
X69500000Y-117566666D01*
X69300000Y-117566666D01*
X69233333Y-117533333D01*
X69200000Y-117500000D01*
X69833333Y-116866666D02*
X70066666Y-117566666D01*
X70300000Y-116866666D01*
X70466666Y-116866666D02*
X70900000Y-116866666D01*
X70666666Y-117133333D01*
X70766666Y-117133333D01*
X70833333Y-117166666D01*
X70866666Y-117200000D01*
X70900000Y-117266666D01*
X70900000Y-117433333D01*
X70866666Y-117500000D01*
X70833333Y-117533333D01*
X70766666Y-117566666D01*
X70566666Y-117566666D01*
X70500000Y-117533333D01*
X70466666Y-117500000D01*
X72100000Y-116900000D02*
X72033333Y-116866666D01*
X71933333Y-116866666D01*
X71833333Y-116900000D01*
X71766666Y-116966666D01*
X71733333Y-117033333D01*
X71700000Y-117166666D01*
X71700000Y-117266666D01*
X71733333Y-117400000D01*
X71766666Y-117466666D01*
X71833333Y-117533333D01*
X71933333Y-117566666D01*
X72000000Y-117566666D01*
X72100000Y-117533333D01*
X72133333Y-117500000D01*
X72133333Y-117266666D01*
X72000000Y-117266666D01*
X72433333Y-117566666D02*
X72433333Y-116866666D01*
X72833333Y-117566666D01*
X72833333Y-116866666D01*
X73166666Y-117566666D02*
X73166666Y-116866666D01*
X73333333Y-116866666D01*
X73433333Y-116900000D01*
X73500000Y-116966666D01*
X73533333Y-117033333D01*
X73566666Y-117166666D01*
X73566666Y-117266666D01*
X73533333Y-117400000D01*
X73500000Y-117466666D01*
X73433333Y-117533333D01*
X73333333Y-117566666D01*
X73166666Y-117566666D01*
X64416666Y-116183333D02*
X64450000Y-116150000D01*
X64516666Y-116116666D01*
X64683333Y-116116666D01*
X64750000Y-116150000D01*
X64783333Y-116183333D01*
X64816666Y-116250000D01*
X64816666Y-116316666D01*
X64783333Y-116416666D01*
X64383333Y-116816666D01*
X64816666Y-116816666D01*
X65416666Y-116350000D02*
X65416666Y-116816666D01*
X65250000Y-116083333D02*
X65083333Y-116583333D01*
X65516666Y-116583333D01*
X65683333Y-116116666D02*
X65916666Y-116816666D01*
X66150000Y-116116666D01*
X53216666Y-119650000D02*
X53150000Y-119616666D01*
X53050000Y-119616666D01*
X52950000Y-119650000D01*
X52883333Y-119716666D01*
X52850000Y-119783333D01*
X52816666Y-119916666D01*
X52816666Y-120016666D01*
X52850000Y-120150000D01*
X52883333Y-120216666D01*
X52950000Y-120283333D01*
X53050000Y-120316666D01*
X53116666Y-120316666D01*
X53216666Y-120283333D01*
X53250000Y-120250000D01*
X53250000Y-120016666D01*
X53116666Y-120016666D01*
X53550000Y-120316666D02*
X53550000Y-119616666D01*
X53950000Y-120316666D01*
X53950000Y-119616666D01*
X54283333Y-120316666D02*
X54283333Y-119616666D01*
X54450000Y-119616666D01*
X54550000Y-119650000D01*
X54616666Y-119716666D01*
X54650000Y-119783333D01*
X54683333Y-119916666D01*
X54683333Y-120016666D01*
X54650000Y-120150000D01*
X54616666Y-120216666D01*
X54550000Y-120283333D01*
X54450000Y-120316666D01*
X54283333Y-120316666D01*
D12*
X60702380Y-117142857D02*
X60226190Y-117476190D01*
X60702380Y-117714285D02*
X59702380Y-117714285D01*
X59702380Y-117333333D01*
X59750000Y-117238095D01*
X59797619Y-117190476D01*
X59892857Y-117142857D01*
X60035714Y-117142857D01*
X60130952Y-117190476D01*
X60178571Y-117238095D01*
X60226190Y-117333333D01*
X60226190Y-117714285D01*
X59797619Y-116761904D02*
X59750000Y-116714285D01*
X59702380Y-116619047D01*
X59702380Y-116380952D01*
X59750000Y-116285714D01*
X59797619Y-116238095D01*
X59892857Y-116190476D01*
X59988095Y-116190476D01*
X60130952Y-116238095D01*
X60702380Y-116809523D01*
X60702380Y-116190476D01*
X59702380Y-115857142D02*
X59702380Y-115238095D01*
X60083333Y-115571428D01*
X60083333Y-115428571D01*
X60130952Y-115333333D01*
X60178571Y-115285714D01*
X60273809Y-115238095D01*
X60511904Y-115238095D01*
X60607142Y-115285714D01*
X60654761Y-115333333D01*
X60702380Y-115428571D01*
X60702380Y-115714285D01*
X60654761Y-115809523D01*
X60607142Y-115857142D01*
X59607142Y-110952380D02*
X59273809Y-110476190D01*
X59035714Y-110952380D02*
X59035714Y-109952380D01*
X59416666Y-109952380D01*
X59511904Y-110000000D01*
X59559523Y-110047619D01*
X59607142Y-110142857D01*
X59607142Y-110285714D01*
X59559523Y-110380952D01*
X59511904Y-110428571D01*
X59416666Y-110476190D01*
X59035714Y-110476190D01*
X59988095Y-110047619D02*
X60035714Y-110000000D01*
X60130952Y-109952380D01*
X60369047Y-109952380D01*
X60464285Y-110000000D01*
X60511904Y-110047619D01*
X60559523Y-110142857D01*
X60559523Y-110238095D01*
X60511904Y-110380952D01*
X59940476Y-110952380D01*
X60559523Y-110952380D01*
X60940476Y-110047619D02*
X60988095Y-110000000D01*
X61083333Y-109952380D01*
X61321428Y-109952380D01*
X61416666Y-110000000D01*
X61464285Y-110047619D01*
X61511904Y-110142857D01*
X61511904Y-110238095D01*
X61464285Y-110380952D01*
X60892857Y-110952380D01*
X61511904Y-110952380D01*
X60702380Y-102892857D02*
X60226190Y-103226190D01*
X60702380Y-103464285D02*
X59702380Y-103464285D01*
X59702380Y-103083333D01*
X59750000Y-102988095D01*
X59797619Y-102940476D01*
X59892857Y-102892857D01*
X60035714Y-102892857D01*
X60130952Y-102940476D01*
X60178571Y-102988095D01*
X60226190Y-103083333D01*
X60226190Y-103464285D01*
X59797619Y-102511904D02*
X59750000Y-102464285D01*
X59702380Y-102369047D01*
X59702380Y-102130952D01*
X59750000Y-102035714D01*
X59797619Y-101988095D01*
X59892857Y-101940476D01*
X59988095Y-101940476D01*
X60130952Y-101988095D01*
X60702380Y-102559523D01*
X60702380Y-101940476D01*
X60702380Y-100988095D02*
X60702380Y-101559523D01*
X60702380Y-101273809D02*
X59702380Y-101273809D01*
X59845238Y-101369047D01*
X59940476Y-101464285D01*
X59988095Y-101559523D01*
X59607142Y-97202380D02*
X59273809Y-96726190D01*
X59035714Y-97202380D02*
X59035714Y-96202380D01*
X59416666Y-96202380D01*
X59511904Y-96250000D01*
X59559523Y-96297619D01*
X59607142Y-96392857D01*
X59607142Y-96535714D01*
X59559523Y-96630952D01*
X59511904Y-96678571D01*
X59416666Y-96726190D01*
X59035714Y-96726190D01*
X59988095Y-96297619D02*
X60035714Y-96250000D01*
X60130952Y-96202380D01*
X60369047Y-96202380D01*
X60464285Y-96250000D01*
X60511904Y-96297619D01*
X60559523Y-96392857D01*
X60559523Y-96488095D01*
X60511904Y-96630952D01*
X59940476Y-97202380D01*
X60559523Y-97202380D01*
X61178571Y-96202380D02*
X61273809Y-96202380D01*
X61369047Y-96250000D01*
X61416666Y-96297619D01*
X61464285Y-96392857D01*
X61511904Y-96583333D01*
X61511904Y-96821428D01*
X61464285Y-97011904D01*
X61416666Y-97107142D01*
X61369047Y-97154761D01*
X61273809Y-97202380D01*
X61178571Y-97202380D01*
X61083333Y-97154761D01*
X61035714Y-97107142D01*
X60988095Y-97011904D01*
X60940476Y-96821428D01*
X60940476Y-96583333D01*
X60988095Y-96392857D01*
X61035714Y-96297619D01*
X61083333Y-96250000D01*
X61178571Y-96202380D01*
X56857142Y-112952380D02*
X56523809Y-112476190D01*
X56285714Y-112952380D02*
X56285714Y-111952380D01*
X56666666Y-111952380D01*
X56761904Y-112000000D01*
X56809523Y-112047619D01*
X56857142Y-112142857D01*
X56857142Y-112285714D01*
X56809523Y-112380952D01*
X56761904Y-112428571D01*
X56666666Y-112476190D01*
X56285714Y-112476190D01*
X57809523Y-112952380D02*
X57238095Y-112952380D01*
X57523809Y-112952380D02*
X57523809Y-111952380D01*
X57428571Y-112095238D01*
X57333333Y-112190476D01*
X57238095Y-112238095D01*
X58142857Y-111952380D02*
X58761904Y-111952380D01*
X58428571Y-112333333D01*
X58571428Y-112333333D01*
X58666666Y-112380952D01*
X58714285Y-112428571D01*
X58761904Y-112523809D01*
X58761904Y-112761904D01*
X58714285Y-112857142D01*
X58666666Y-112904761D01*
X58571428Y-112952380D01*
X58285714Y-112952380D01*
X58190476Y-112904761D01*
X58142857Y-112857142D01*
X57027142Y-106052380D02*
X56693809Y-105576190D01*
X56455714Y-106052380D02*
X56455714Y-105052380D01*
X56836666Y-105052380D01*
X56931904Y-105100000D01*
X56979523Y-105147619D01*
X57027142Y-105242857D01*
X57027142Y-105385714D01*
X56979523Y-105480952D01*
X56931904Y-105528571D01*
X56836666Y-105576190D01*
X56455714Y-105576190D01*
X57979523Y-106052380D02*
X57408095Y-106052380D01*
X57693809Y-106052380D02*
X57693809Y-105052380D01*
X57598571Y-105195238D01*
X57503333Y-105290476D01*
X57408095Y-105338095D01*
X58360476Y-105147619D02*
X58408095Y-105100000D01*
X58503333Y-105052380D01*
X58741428Y-105052380D01*
X58836666Y-105100000D01*
X58884285Y-105147619D01*
X58931904Y-105242857D01*
X58931904Y-105338095D01*
X58884285Y-105480952D01*
X58312857Y-106052380D01*
X58931904Y-106052380D01*
X57027142Y-99052380D02*
X56693809Y-98576190D01*
X56455714Y-99052380D02*
X56455714Y-98052380D01*
X56836666Y-98052380D01*
X56931904Y-98100000D01*
X56979523Y-98147619D01*
X57027142Y-98242857D01*
X57027142Y-98385714D01*
X56979523Y-98480952D01*
X56931904Y-98528571D01*
X56836666Y-98576190D01*
X56455714Y-98576190D01*
X57979523Y-99052380D02*
X57408095Y-99052380D01*
X57693809Y-99052380D02*
X57693809Y-98052380D01*
X57598571Y-98195238D01*
X57503333Y-98290476D01*
X57408095Y-98338095D01*
X58931904Y-99052380D02*
X58360476Y-99052380D01*
X58646190Y-99052380D02*
X58646190Y-98052380D01*
X58550952Y-98195238D01*
X58455714Y-98290476D01*
X58360476Y-98338095D01*
X57027142Y-95552380D02*
X56693809Y-95076190D01*
X56455714Y-95552380D02*
X56455714Y-94552380D01*
X56836666Y-94552380D01*
X56931904Y-94600000D01*
X56979523Y-94647619D01*
X57027142Y-94742857D01*
X57027142Y-94885714D01*
X56979523Y-94980952D01*
X56931904Y-95028571D01*
X56836666Y-95076190D01*
X56455714Y-95076190D01*
X57979523Y-95552380D02*
X57408095Y-95552380D01*
X57693809Y-95552380D02*
X57693809Y-94552380D01*
X57598571Y-94695238D01*
X57503333Y-94790476D01*
X57408095Y-94838095D01*
X58598571Y-94552380D02*
X58693809Y-94552380D01*
X58789047Y-94600000D01*
X58836666Y-94647619D01*
X58884285Y-94742857D01*
X58931904Y-94933333D01*
X58931904Y-95171428D01*
X58884285Y-95361904D01*
X58836666Y-95457142D01*
X58789047Y-95504761D01*
X58693809Y-95552380D01*
X58598571Y-95552380D01*
X58503333Y-95504761D01*
X58455714Y-95457142D01*
X58408095Y-95361904D01*
X58360476Y-95171428D01*
X58360476Y-94933333D01*
X58408095Y-94742857D01*
X58455714Y-94647619D01*
X58503333Y-94600000D01*
X58598571Y-94552380D01*
X53974761Y-116247619D02*
X53879523Y-116200000D01*
X53784285Y-116104761D01*
X53641428Y-115961904D01*
X53546190Y-115914285D01*
X53450952Y-115914285D01*
X53498571Y-116152380D02*
X53403333Y-116104761D01*
X53308095Y-116009523D01*
X53260476Y-115819047D01*
X53260476Y-115485714D01*
X53308095Y-115295238D01*
X53403333Y-115200000D01*
X53498571Y-115152380D01*
X53689047Y-115152380D01*
X53784285Y-115200000D01*
X53879523Y-115295238D01*
X53927142Y-115485714D01*
X53927142Y-115819047D01*
X53879523Y-116009523D01*
X53784285Y-116104761D01*
X53689047Y-116152380D01*
X53498571Y-116152380D01*
X54784285Y-115485714D02*
X54784285Y-116152380D01*
X54546190Y-115104761D02*
X54308095Y-115819047D01*
X54927142Y-115819047D01*
X53974761Y-109247619D02*
X53879523Y-109200000D01*
X53784285Y-109104761D01*
X53641428Y-108961904D01*
X53546190Y-108914285D01*
X53450952Y-108914285D01*
X53498571Y-109152380D02*
X53403333Y-109104761D01*
X53308095Y-109009523D01*
X53260476Y-108819047D01*
X53260476Y-108485714D01*
X53308095Y-108295238D01*
X53403333Y-108200000D01*
X53498571Y-108152380D01*
X53689047Y-108152380D01*
X53784285Y-108200000D01*
X53879523Y-108295238D01*
X53927142Y-108485714D01*
X53927142Y-108819047D01*
X53879523Y-109009523D01*
X53784285Y-109104761D01*
X53689047Y-109152380D01*
X53498571Y-109152380D01*
X54260476Y-108152380D02*
X54879523Y-108152380D01*
X54546190Y-108533333D01*
X54689047Y-108533333D01*
X54784285Y-108580952D01*
X54831904Y-108628571D01*
X54879523Y-108723809D01*
X54879523Y-108961904D01*
X54831904Y-109057142D01*
X54784285Y-109104761D01*
X54689047Y-109152380D01*
X54403333Y-109152380D01*
X54308095Y-109104761D01*
X54260476Y-109057142D01*
X53974761Y-102247619D02*
X53879523Y-102200000D01*
X53784285Y-102104761D01*
X53641428Y-101961904D01*
X53546190Y-101914285D01*
X53450952Y-101914285D01*
X53498571Y-102152380D02*
X53403333Y-102104761D01*
X53308095Y-102009523D01*
X53260476Y-101819047D01*
X53260476Y-101485714D01*
X53308095Y-101295238D01*
X53403333Y-101200000D01*
X53498571Y-101152380D01*
X53689047Y-101152380D01*
X53784285Y-101200000D01*
X53879523Y-101295238D01*
X53927142Y-101485714D01*
X53927142Y-101819047D01*
X53879523Y-102009523D01*
X53784285Y-102104761D01*
X53689047Y-102152380D01*
X53498571Y-102152380D01*
X54308095Y-101247619D02*
X54355714Y-101200000D01*
X54450952Y-101152380D01*
X54689047Y-101152380D01*
X54784285Y-101200000D01*
X54831904Y-101247619D01*
X54879523Y-101342857D01*
X54879523Y-101438095D01*
X54831904Y-101580952D01*
X54260476Y-102152380D01*
X54879523Y-102152380D01*
X53974761Y-95447619D02*
X53879523Y-95400000D01*
X53784285Y-95304761D01*
X53641428Y-95161904D01*
X53546190Y-95114285D01*
X53450952Y-95114285D01*
X53498571Y-95352380D02*
X53403333Y-95304761D01*
X53308095Y-95209523D01*
X53260476Y-95019047D01*
X53260476Y-94685714D01*
X53308095Y-94495238D01*
X53403333Y-94400000D01*
X53498571Y-94352380D01*
X53689047Y-94352380D01*
X53784285Y-94400000D01*
X53879523Y-94495238D01*
X53927142Y-94685714D01*
X53927142Y-95019047D01*
X53879523Y-95209523D01*
X53784285Y-95304761D01*
X53689047Y-95352380D01*
X53498571Y-95352380D01*
X54879523Y-95352380D02*
X54308095Y-95352380D01*
X54593809Y-95352380D02*
X54593809Y-94352380D01*
X54498571Y-94495238D01*
X54403333Y-94590476D01*
X54308095Y-94638095D01*
X62240476Y-111372380D02*
X62240476Y-112086666D01*
X62192857Y-112229523D01*
X62097619Y-112324761D01*
X61954761Y-112372380D01*
X61859523Y-112372380D01*
X63240476Y-112372380D02*
X62669047Y-112372380D01*
X62954761Y-112372380D02*
X62954761Y-111372380D01*
X62859523Y-111515238D01*
X62764285Y-111610476D01*
X62669047Y-111658095D01*
X64097619Y-111372380D02*
X63907142Y-111372380D01*
X63811904Y-111420000D01*
X63764285Y-111467619D01*
X63669047Y-111610476D01*
X63621428Y-111800952D01*
X63621428Y-112181904D01*
X63669047Y-112277142D01*
X63716666Y-112324761D01*
X63811904Y-112372380D01*
X64002380Y-112372380D01*
X64097619Y-112324761D01*
X64145238Y-112277142D01*
X64192857Y-112181904D01*
X64192857Y-111943809D01*
X64145238Y-111848571D01*
X64097619Y-111800952D01*
X64002380Y-111753333D01*
X63811904Y-111753333D01*
X63716666Y-111800952D01*
X63669047Y-111848571D01*
X63621428Y-111943809D01*
X62240476Y-104372380D02*
X62240476Y-105086666D01*
X62192857Y-105229523D01*
X62097619Y-105324761D01*
X61954761Y-105372380D01*
X61859523Y-105372380D01*
X63240476Y-105372380D02*
X62669047Y-105372380D01*
X62954761Y-105372380D02*
X62954761Y-104372380D01*
X62859523Y-104515238D01*
X62764285Y-104610476D01*
X62669047Y-104658095D01*
X64145238Y-104372380D02*
X63669047Y-104372380D01*
X63621428Y-104848571D01*
X63669047Y-104800952D01*
X63764285Y-104753333D01*
X64002380Y-104753333D01*
X64097619Y-104800952D01*
X64145238Y-104848571D01*
X64192857Y-104943809D01*
X64192857Y-105181904D01*
X64145238Y-105277142D01*
X64097619Y-105324761D01*
X64002380Y-105372380D01*
X63764285Y-105372380D01*
X63669047Y-105324761D01*
X63621428Y-105277142D01*
X63690476Y-97452380D02*
X63690476Y-98166666D01*
X63642857Y-98309523D01*
X63547619Y-98404761D01*
X63404761Y-98452380D01*
X63309523Y-98452380D01*
X64690476Y-98452380D02*
X64119047Y-98452380D01*
X64404761Y-98452380D02*
X64404761Y-97452380D01*
X64309523Y-97595238D01*
X64214285Y-97690476D01*
X64119047Y-97738095D01*
X65547619Y-97785714D02*
X65547619Y-98452380D01*
X65309523Y-97404761D02*
X65071428Y-98119047D01*
X65690476Y-98119047D01*
X64690476Y-92952380D02*
X64690476Y-93666666D01*
X64642857Y-93809523D01*
X64547619Y-93904761D01*
X64404761Y-93952380D01*
X64309523Y-93952380D01*
X65690476Y-93952380D02*
X65119047Y-93952380D01*
X65404761Y-93952380D02*
X65404761Y-92952380D01*
X65309523Y-93095238D01*
X65214285Y-93190476D01*
X65119047Y-93238095D01*
X66023809Y-92952380D02*
X66642857Y-92952380D01*
X66309523Y-93333333D01*
X66452380Y-93333333D01*
X66547619Y-93380952D01*
X66595238Y-93428571D01*
X66642857Y-93523809D01*
X66642857Y-93761904D01*
X66595238Y-93857142D01*
X66547619Y-93904761D01*
X66452380Y-93952380D01*
X66166666Y-93952380D01*
X66071428Y-93904761D01*
X66023809Y-93857142D01*
X81452380Y-111309523D02*
X82166666Y-111309523D01*
X82309523Y-111357142D01*
X82404761Y-111452380D01*
X82452380Y-111595238D01*
X82452380Y-111690476D01*
X82452380Y-110309523D02*
X82452380Y-110880952D01*
X82452380Y-110595238D02*
X81452380Y-110595238D01*
X81595238Y-110690476D01*
X81690476Y-110785714D01*
X81738095Y-110880952D01*
X81547619Y-109928571D02*
X81500000Y-109880952D01*
X81452380Y-109785714D01*
X81452380Y-109547619D01*
X81500000Y-109452380D01*
X81547619Y-109404761D01*
X81642857Y-109357142D01*
X81738095Y-109357142D01*
X81880952Y-109404761D01*
X82452380Y-109976190D01*
X82452380Y-109357142D01*
X81452380Y-102809523D02*
X82166666Y-102809523D01*
X82309523Y-102857142D01*
X82404761Y-102952380D01*
X82452380Y-103095238D01*
X82452380Y-103190476D01*
X82452380Y-101809523D02*
X82452380Y-102380952D01*
X82452380Y-102095238D02*
X81452380Y-102095238D01*
X81595238Y-102190476D01*
X81690476Y-102285714D01*
X81738095Y-102380952D01*
X82452380Y-100857142D02*
X82452380Y-101428571D01*
X82452380Y-101142857D02*
X81452380Y-101142857D01*
X81595238Y-101238095D01*
X81690476Y-101333333D01*
X81738095Y-101428571D01*
X81332380Y-97309523D02*
X82046666Y-97309523D01*
X82189523Y-97357142D01*
X82284761Y-97452380D01*
X82332380Y-97595238D01*
X82332380Y-97690476D01*
X82332380Y-96309523D02*
X82332380Y-96880952D01*
X82332380Y-96595238D02*
X81332380Y-96595238D01*
X81475238Y-96690476D01*
X81570476Y-96785714D01*
X81618095Y-96880952D01*
X81332380Y-95690476D02*
X81332380Y-95595238D01*
X81380000Y-95500000D01*
X81427619Y-95452380D01*
X81522857Y-95404761D01*
X81713333Y-95357142D01*
X81951428Y-95357142D01*
X82141904Y-95404761D01*
X82237142Y-95452380D01*
X82284761Y-95500000D01*
X82332380Y-95595238D01*
X82332380Y-95690476D01*
X82284761Y-95785714D01*
X82237142Y-95833333D01*
X82141904Y-95880952D01*
X81951428Y-95928571D01*
X81713333Y-95928571D01*
X81522857Y-95880952D01*
X81427619Y-95833333D01*
X81380000Y-95785714D01*
X81332380Y-95690476D01*
X74166666Y-94952380D02*
X74166666Y-95666666D01*
X74119047Y-95809523D01*
X74023809Y-95904761D01*
X73880952Y-95952380D01*
X73785714Y-95952380D01*
X74690476Y-95952380D02*
X74880952Y-95952380D01*
X74976190Y-95904761D01*
X75023809Y-95857142D01*
X75119047Y-95714285D01*
X75166666Y-95523809D01*
X75166666Y-95142857D01*
X75119047Y-95047619D01*
X75071428Y-95000000D01*
X74976190Y-94952380D01*
X74785714Y-94952380D01*
X74690476Y-95000000D01*
X74642857Y-95047619D01*
X74595238Y-95142857D01*
X74595238Y-95380952D01*
X74642857Y-95476190D01*
X74690476Y-95523809D01*
X74785714Y-95571428D01*
X74976190Y-95571428D01*
X75071428Y-95523809D01*
X75119047Y-95476190D01*
X75166666Y-95380952D01*
D10*
X79266666Y-115866666D02*
X79266666Y-116366666D01*
X79233333Y-116466666D01*
X79166666Y-116533333D01*
X79066666Y-116566666D01*
X79000000Y-116566666D01*
X79700000Y-116166666D02*
X79633333Y-116133333D01*
X79600000Y-116100000D01*
X79566666Y-116033333D01*
X79566666Y-116000000D01*
X79600000Y-115933333D01*
X79633333Y-115900000D01*
X79700000Y-115866666D01*
X79833333Y-115866666D01*
X79900000Y-115900000D01*
X79933333Y-115933333D01*
X79966666Y-116000000D01*
X79966666Y-116033333D01*
X79933333Y-116100000D01*
X79900000Y-116133333D01*
X79833333Y-116166666D01*
X79700000Y-116166666D01*
X79633333Y-116200000D01*
X79600000Y-116233333D01*
X79566666Y-116300000D01*
X79566666Y-116433333D01*
X79600000Y-116500000D01*
X79633333Y-116533333D01*
X79700000Y-116566666D01*
X79833333Y-116566666D01*
X79900000Y-116533333D01*
X79933333Y-116500000D01*
X79966666Y-116433333D01*
X79966666Y-116300000D01*
X79933333Y-116233333D01*
X79900000Y-116200000D01*
X79833333Y-116166666D01*
X65516666Y-119616666D02*
X65516666Y-120116666D01*
X65483333Y-120216666D01*
X65416666Y-120283333D01*
X65316666Y-120316666D01*
X65250000Y-120316666D01*
X65783333Y-119616666D02*
X66250000Y-119616666D01*
X65950000Y-120316666D01*
X78266666Y-111866666D02*
X78266666Y-112366666D01*
X78233333Y-112466666D01*
X78166666Y-112533333D01*
X78066666Y-112566666D01*
X78000000Y-112566666D01*
X78900000Y-111866666D02*
X78766666Y-111866666D01*
X78700000Y-111900000D01*
X78666666Y-111933333D01*
X78600000Y-112033333D01*
X78566666Y-112166666D01*
X78566666Y-112433333D01*
X78600000Y-112500000D01*
X78633333Y-112533333D01*
X78700000Y-112566666D01*
X78833333Y-112566666D01*
X78900000Y-112533333D01*
X78933333Y-112500000D01*
X78966666Y-112433333D01*
X78966666Y-112266666D01*
X78933333Y-112200000D01*
X78900000Y-112166666D01*
X78833333Y-112133333D01*
X78700000Y-112133333D01*
X78633333Y-112166666D01*
X78600000Y-112200000D01*
X78566666Y-112266666D01*
X65516666Y-111616666D02*
X65516666Y-112116666D01*
X65483333Y-112216666D01*
X65416666Y-112283333D01*
X65316666Y-112316666D01*
X65250000Y-112316666D01*
X66183333Y-111616666D02*
X65850000Y-111616666D01*
X65816666Y-111950000D01*
X65850000Y-111916666D01*
X65916666Y-111883333D01*
X66083333Y-111883333D01*
X66150000Y-111916666D01*
X66183333Y-111950000D01*
X66216666Y-112016666D01*
X66216666Y-112183333D01*
X66183333Y-112250000D01*
X66150000Y-112283333D01*
X66083333Y-112316666D01*
X65916666Y-112316666D01*
X65850000Y-112283333D01*
X65816666Y-112250000D01*
D12*
X46516666Y-117927380D02*
X46516666Y-118641666D01*
X46469047Y-118784523D01*
X46373809Y-118879761D01*
X46230952Y-118927380D01*
X46135714Y-118927380D01*
X47421428Y-118260714D02*
X47421428Y-118927380D01*
X47183333Y-117879761D02*
X46945238Y-118594047D01*
X47564285Y-118594047D01*
X46516666Y-110937380D02*
X46516666Y-111651666D01*
X46469047Y-111794523D01*
X46373809Y-111889761D01*
X46230952Y-111937380D01*
X46135714Y-111937380D01*
X46897619Y-110937380D02*
X47516666Y-110937380D01*
X47183333Y-111318333D01*
X47326190Y-111318333D01*
X47421428Y-111365952D01*
X47469047Y-111413571D01*
X47516666Y-111508809D01*
X47516666Y-111746904D01*
X47469047Y-111842142D01*
X47421428Y-111889761D01*
X47326190Y-111937380D01*
X47040476Y-111937380D01*
X46945238Y-111889761D01*
X46897619Y-111842142D01*
X46516666Y-103932380D02*
X46516666Y-104646666D01*
X46469047Y-104789523D01*
X46373809Y-104884761D01*
X46230952Y-104932380D01*
X46135714Y-104932380D01*
X46945238Y-104027619D02*
X46992857Y-103980000D01*
X47088095Y-103932380D01*
X47326190Y-103932380D01*
X47421428Y-103980000D01*
X47469047Y-104027619D01*
X47516666Y-104122857D01*
X47516666Y-104218095D01*
X47469047Y-104360952D01*
X46897619Y-104932380D01*
X47516666Y-104932380D01*
X46516666Y-96927380D02*
X46516666Y-97641666D01*
X46469047Y-97784523D01*
X46373809Y-97879761D01*
X46230952Y-97927380D01*
X46135714Y-97927380D01*
X47516666Y-97927380D02*
X46945238Y-97927380D01*
X47230952Y-97927380D02*
X47230952Y-96927380D01*
X47135714Y-97070238D01*
X47040476Y-97165476D01*
X46945238Y-97213095D01*
D13*
X68920238Y-99074523D02*
X68920238Y-97804523D01*
X70250714Y-98953571D02*
X70190238Y-99014047D01*
X70008809Y-99074523D01*
X69887857Y-99074523D01*
X69706428Y-99014047D01*
X69585476Y-98893095D01*
X69525000Y-98772142D01*
X69464523Y-98530238D01*
X69464523Y-98348809D01*
X69525000Y-98106904D01*
X69585476Y-97985952D01*
X69706428Y-97865000D01*
X69887857Y-97804523D01*
X70008809Y-97804523D01*
X70190238Y-97865000D01*
X70250714Y-97925476D01*
X71460238Y-99074523D02*
X70734523Y-99074523D01*
X71097380Y-99074523D02*
X71097380Y-97804523D01*
X70976428Y-97985952D01*
X70855476Y-98106904D01*
X70734523Y-98167380D01*
D12*
X53352380Y-111238095D02*
X52352380Y-111238095D01*
X52352380Y-111000000D01*
X52400000Y-110857142D01*
X52495238Y-110761904D01*
X52590476Y-110714285D01*
X52780952Y-110666666D01*
X52923809Y-110666666D01*
X53114285Y-110714285D01*
X53209523Y-110761904D01*
X53304761Y-110857142D01*
X53352380Y-111000000D01*
X53352380Y-111238095D01*
X52352380Y-109809523D02*
X52352380Y-110000000D01*
X52400000Y-110095238D01*
X52447619Y-110142857D01*
X52590476Y-110238095D01*
X52780952Y-110285714D01*
X53161904Y-110285714D01*
X53257142Y-110238095D01*
X53304761Y-110190476D01*
X53352380Y-110095238D01*
X53352380Y-109904761D01*
X53304761Y-109809523D01*
X53257142Y-109761904D01*
X53161904Y-109714285D01*
X52923809Y-109714285D01*
X52828571Y-109761904D01*
X52780952Y-109809523D01*
X52733333Y-109904761D01*
X52733333Y-110095238D01*
X52780952Y-110190476D01*
X52828571Y-110238095D01*
X52923809Y-110285714D01*
X53352380Y-104238095D02*
X52352380Y-104238095D01*
X52352380Y-104000000D01*
X52400000Y-103857142D01*
X52495238Y-103761904D01*
X52590476Y-103714285D01*
X52780952Y-103666666D01*
X52923809Y-103666666D01*
X53114285Y-103714285D01*
X53209523Y-103761904D01*
X53304761Y-103857142D01*
X53352380Y-104000000D01*
X53352380Y-104238095D01*
X52352380Y-102761904D02*
X52352380Y-103238095D01*
X52828571Y-103285714D01*
X52780952Y-103238095D01*
X52733333Y-103142857D01*
X52733333Y-102904761D01*
X52780952Y-102809523D01*
X52828571Y-102761904D01*
X52923809Y-102714285D01*
X53161904Y-102714285D01*
X53257142Y-102761904D01*
X53304761Y-102809523D01*
X53352380Y-102904761D01*
X53352380Y-103142857D01*
X53304761Y-103238095D01*
X53257142Y-103285714D01*
X53352380Y-97238095D02*
X52352380Y-97238095D01*
X52352380Y-97000000D01*
X52400000Y-96857142D01*
X52495238Y-96761904D01*
X52590476Y-96714285D01*
X52780952Y-96666666D01*
X52923809Y-96666666D01*
X53114285Y-96714285D01*
X53209523Y-96761904D01*
X53304761Y-96857142D01*
X53352380Y-97000000D01*
X53352380Y-97238095D01*
X52685714Y-95809523D02*
X53352380Y-95809523D01*
X52304761Y-96047619D02*
X53019047Y-96285714D01*
X53019047Y-95666666D01*
X53352380Y-118238095D02*
X52352380Y-118238095D01*
X52352380Y-118000000D01*
X52400000Y-117857142D01*
X52495238Y-117761904D01*
X52590476Y-117714285D01*
X52780952Y-117666666D01*
X52923809Y-117666666D01*
X53114285Y-117714285D01*
X53209523Y-117761904D01*
X53304761Y-117857142D01*
X53352380Y-118000000D01*
X53352380Y-118238095D01*
X52352380Y-117333333D02*
X52352380Y-116714285D01*
X52733333Y-117047619D01*
X52733333Y-116904761D01*
X52780952Y-116809523D01*
X52828571Y-116761904D01*
X52923809Y-116714285D01*
X53161904Y-116714285D01*
X53257142Y-116761904D01*
X53304761Y-116809523D01*
X53352380Y-116904761D01*
X53352380Y-117190476D01*
X53304761Y-117285714D01*
X53257142Y-117333333D01*
D14*
X61035000Y-113112936D02*
X61035000Y-113567064D01*
X59565000Y-113112936D02*
X59565000Y-113567064D01*
X59565000Y-108387064D02*
X59565000Y-107932936D01*
X61035000Y-108387064D02*
X61035000Y-107932936D01*
X61035000Y-99112936D02*
X61035000Y-99567064D01*
X59565000Y-99112936D02*
X59565000Y-99567064D01*
X59565000Y-94587064D02*
X59565000Y-94132936D01*
X61035000Y-94587064D02*
X61035000Y-94132936D01*
X57897064Y-114985000D02*
X57442936Y-114985000D01*
X57897064Y-113515000D02*
X57442936Y-113515000D01*
X57442936Y-106515000D02*
X57897064Y-106515000D01*
X57442936Y-107985000D02*
X57897064Y-107985000D01*
X57442936Y-99515000D02*
X57897064Y-99515000D01*
X57442936Y-100985000D02*
X57897064Y-100985000D01*
X57897064Y-94185000D02*
X57442936Y-94185000D01*
X57897064Y-92715000D02*
X57442936Y-92715000D01*
X54070000Y-114860000D02*
X53420000Y-114860000D01*
X54070000Y-111740000D02*
X53420000Y-111740000D01*
X54070000Y-114860000D02*
X55745000Y-114860000D01*
X54070000Y-111740000D02*
X54720000Y-111740000D01*
X54070000Y-107860000D02*
X53420000Y-107860000D01*
X54070000Y-104740000D02*
X53420000Y-104740000D01*
X54070000Y-107860000D02*
X55745000Y-107860000D01*
X54070000Y-104740000D02*
X54720000Y-104740000D01*
X54070000Y-100860000D02*
X53420000Y-100860000D01*
X54070000Y-97740000D02*
X53420000Y-97740000D01*
X54070000Y-100860000D02*
X55745000Y-100860000D01*
X54070000Y-97740000D02*
X54720000Y-97740000D01*
X54070000Y-94060000D02*
X53420000Y-94060000D01*
X54070000Y-90940000D02*
X53420000Y-90940000D01*
X54070000Y-94060000D02*
X55745000Y-94060000D01*
X54070000Y-90940000D02*
X54720000Y-90940000D01*
X61720000Y-112920000D02*
X63050000Y-112920000D01*
X61720000Y-115520000D02*
X64380000Y-115520000D01*
X61720000Y-115580000D02*
X64380000Y-115580000D01*
X64380000Y-115520000D02*
X64380000Y-115580000D01*
X61720000Y-115520000D02*
X61720000Y-115580000D01*
X61720000Y-114250000D02*
X61720000Y-112920000D01*
X61720000Y-105920000D02*
X63050000Y-105920000D01*
X61720000Y-108520000D02*
X64380000Y-108520000D01*
X61720000Y-108580000D02*
X64380000Y-108580000D01*
X64380000Y-108520000D02*
X64380000Y-108580000D01*
X61720000Y-108520000D02*
X61720000Y-108580000D01*
X61720000Y-107250000D02*
X61720000Y-105920000D01*
X61720000Y-98920000D02*
X63050000Y-98920000D01*
X61720000Y-101520000D02*
X64380000Y-101520000D01*
X61720000Y-101580000D02*
X64380000Y-101580000D01*
X64380000Y-101520000D02*
X64380000Y-101580000D01*
X61720000Y-101520000D02*
X61720000Y-101580000D01*
X61720000Y-100250000D02*
X61720000Y-98920000D01*
X61720000Y-92120000D02*
X63050000Y-92120000D01*
X61720000Y-94720000D02*
X64380000Y-94720000D01*
X61720000Y-94780000D02*
X64380000Y-94780000D01*
X64380000Y-94720000D02*
X64380000Y-94780000D01*
X61720000Y-94720000D02*
X61720000Y-94780000D01*
X61720000Y-93450000D02*
X61720000Y-92120000D01*
X82790000Y-116805000D02*
X85450000Y-116805000D01*
X82790000Y-111665000D02*
X82790000Y-116805000D01*
X82790000Y-110395000D02*
X82790000Y-109065000D01*
X85450000Y-111665000D02*
X85450000Y-116805000D01*
X82790000Y-109065000D02*
X84120000Y-109065000D01*
X82790000Y-111665000D02*
X85450000Y-111665000D01*
X82790000Y-108160000D02*
X85450000Y-108160000D01*
X82790000Y-103020000D02*
X82790000Y-108160000D01*
X82790000Y-101750000D02*
X82790000Y-100420000D01*
X85450000Y-103020000D02*
X85450000Y-108160000D01*
X82790000Y-100420000D02*
X84120000Y-100420000D01*
X82790000Y-103020000D02*
X85450000Y-103020000D01*
X82790000Y-99510000D02*
X85450000Y-99510000D01*
X82790000Y-94370000D02*
X82790000Y-99510000D01*
X82790000Y-93100000D02*
X82790000Y-91770000D01*
X85450000Y-94370000D02*
X85450000Y-99510000D01*
X82790000Y-91770000D02*
X84120000Y-91770000D01*
X82790000Y-94370000D02*
X85450000Y-94370000D01*
X81880000Y-94430000D02*
X81880000Y-91770000D01*
X76740000Y-94430000D02*
X81880000Y-94430000D01*
X75470000Y-94430000D02*
X74140000Y-94430000D01*
X76740000Y-91770000D02*
X81880000Y-91770000D01*
X74140000Y-94430000D02*
X74140000Y-93100000D01*
X76740000Y-94430000D02*
X76740000Y-91770000D01*
X77790000Y-117720000D02*
X85470000Y-117720000D01*
X76520000Y-120380000D02*
X75190000Y-120380000D01*
X85470000Y-120380000D02*
X85470000Y-117720000D01*
X77790000Y-120380000D02*
X77790000Y-117720000D01*
X75190000Y-120380000D02*
X75190000Y-119050000D01*
X77790000Y-120380000D02*
X85470000Y-120380000D01*
X74275000Y-120380000D02*
X74275000Y-117720000D01*
X69135000Y-120380000D02*
X74275000Y-120380000D01*
X67865000Y-120380000D02*
X66535000Y-120380000D01*
X69135000Y-117720000D02*
X74275000Y-117720000D01*
X66535000Y-120380000D02*
X66535000Y-119050000D01*
X69135000Y-120380000D02*
X69135000Y-117720000D01*
X77850000Y-115450000D02*
X77850000Y-116780000D01*
X77850000Y-111580000D02*
X75190000Y-111580000D01*
X77850000Y-114180000D02*
X77850000Y-111580000D01*
X77850000Y-114180000D02*
X75190000Y-114180000D01*
X77850000Y-116780000D02*
X76520000Y-116780000D01*
X75190000Y-114180000D02*
X75190000Y-111580000D01*
X69210000Y-115460000D02*
X69210000Y-116790000D01*
X69210000Y-111590000D02*
X66550000Y-111590000D01*
X69210000Y-114190000D02*
X69210000Y-111590000D01*
X69210000Y-114190000D02*
X66550000Y-114190000D01*
X69210000Y-116790000D02*
X67880000Y-116790000D01*
X66550000Y-114190000D02*
X66550000Y-111590000D01*
X48180000Y-116145000D02*
X48180000Y-117475000D01*
X48180000Y-112275000D02*
X45520000Y-112275000D01*
X48180000Y-114875000D02*
X48180000Y-112275000D01*
X48180000Y-114875000D02*
X45520000Y-114875000D01*
X48180000Y-117475000D02*
X46850000Y-117475000D01*
X45520000Y-114875000D02*
X45520000Y-112275000D01*
X48180000Y-109155000D02*
X48180000Y-110485000D01*
X48180000Y-105285000D02*
X45520000Y-105285000D01*
X48180000Y-107885000D02*
X48180000Y-105285000D01*
X48180000Y-107885000D02*
X45520000Y-107885000D01*
X48180000Y-110485000D02*
X46850000Y-110485000D01*
X45520000Y-107885000D02*
X45520000Y-105285000D01*
X45520000Y-100880000D02*
X45520000Y-98280000D01*
X48180000Y-103480000D02*
X46850000Y-103480000D01*
X48180000Y-100880000D02*
X45520000Y-100880000D01*
X48180000Y-100880000D02*
X48180000Y-98280000D01*
X48180000Y-98280000D02*
X45520000Y-98280000D01*
X48180000Y-102150000D02*
X48180000Y-103480000D01*
X48180000Y-95145000D02*
X48180000Y-96475000D01*
X48180000Y-91275000D02*
X45520000Y-91275000D01*
X48180000Y-93875000D02*
X48180000Y-91275000D01*
X48180000Y-93875000D02*
X45520000Y-93875000D01*
X48180000Y-96475000D02*
X46850000Y-96475000D01*
X45520000Y-93875000D02*
X45520000Y-91275000D01*
D15*
X68560000Y-99410000D02*
X71760000Y-99410000D01*
X71760000Y-99410000D02*
X71760000Y-109310000D01*
X71760000Y-109310000D02*
X68560000Y-109310000D01*
X68560000Y-109310000D02*
X68560000Y-99410000D01*
X66660000Y-99215000D02*
X68210000Y-99215000D01*
D14*
X52050000Y-104900000D02*
X52050000Y-110300000D01*
X48750000Y-104900000D02*
X48750000Y-110300000D01*
X52050000Y-104900000D02*
X48750000Y-104900000D01*
X52050000Y-97900000D02*
X52050000Y-103300000D01*
X48750000Y-97900000D02*
X48750000Y-103300000D01*
X52050000Y-97900000D02*
X48750000Y-97900000D01*
X52050000Y-90900000D02*
X52050000Y-96300000D01*
X48750000Y-90900000D02*
X48750000Y-96300000D01*
X52050000Y-90900000D02*
X48750000Y-90900000D01*
X52050000Y-111900000D02*
X52050000Y-117300000D01*
X48750000Y-111900000D02*
X48750000Y-117300000D01*
X52050000Y-111900000D02*
X48750000Y-111900000D01*
%LPC*%
D16*
X60300000Y-112427500D03*
X60300000Y-114252500D03*
D17*
X60300000Y-109072500D03*
X60300000Y-107247500D03*
D16*
X60300000Y-98427500D03*
X60300000Y-100252500D03*
D17*
X60300000Y-95272500D03*
X60300000Y-93447500D03*
D18*
X58582500Y-114250000D03*
X56757500Y-114250000D03*
D19*
X56757500Y-107250000D03*
X58582500Y-107250000D03*
X56757500Y-100250000D03*
X58582500Y-100250000D03*
D18*
X58582500Y-93450000D03*
X56757500Y-93450000D03*
D20*
X55007500Y-114250000D03*
X55007500Y-112350000D03*
X53132500Y-113300000D03*
X55007500Y-107250000D03*
X55007500Y-105350000D03*
X53132500Y-106300000D03*
X55007500Y-100250000D03*
X55007500Y-98350000D03*
X53132500Y-99300000D03*
X55007500Y-93450000D03*
X55007500Y-91550000D03*
X53132500Y-92500000D03*
D21*
X62950000Y-118670000D03*
X56950000Y-118670000D03*
D22*
X63050000Y-114250000D03*
X63050000Y-107250000D03*
X63050000Y-100250000D03*
X63050000Y-93450000D03*
X84120000Y-110395000D03*
D23*
X84120000Y-112935000D03*
X84120000Y-115475000D03*
D22*
X84120000Y-101750000D03*
D23*
X84120000Y-104290000D03*
X84120000Y-106830000D03*
D22*
X84120000Y-93100000D03*
D23*
X84120000Y-95640000D03*
X84120000Y-98180000D03*
D22*
X75470000Y-93100000D03*
D23*
X78010000Y-93100000D03*
X80550000Y-93100000D03*
D22*
X76520000Y-119050000D03*
D23*
X79060000Y-119050000D03*
X81600000Y-119050000D03*
X84140000Y-119050000D03*
D22*
X67865000Y-119050000D03*
D23*
X70405000Y-119050000D03*
X72945000Y-119050000D03*
D22*
X76520000Y-115450000D03*
D23*
X76520000Y-112910000D03*
D22*
X67880000Y-115460000D03*
D23*
X67880000Y-112920000D03*
D22*
X46850000Y-116145000D03*
D23*
X46850000Y-113605000D03*
D22*
X46850000Y-109155000D03*
D23*
X46850000Y-106615000D03*
X46850000Y-99610000D03*
D22*
X46850000Y-102150000D03*
X46850000Y-95145000D03*
D23*
X46850000Y-92605000D03*
D24*
X67435000Y-99915000D03*
X67435000Y-101185000D03*
X67435000Y-102455000D03*
X67435000Y-103725000D03*
X67435000Y-104995000D03*
X67435000Y-106265000D03*
X67435000Y-107535000D03*
X67435000Y-108805000D03*
X72885000Y-108805000D03*
X72885000Y-107535000D03*
X72885000Y-106265000D03*
X72885000Y-104995000D03*
X72885000Y-103725000D03*
X72885000Y-102455000D03*
X72885000Y-101185000D03*
X72885000Y-99915000D03*
D25*
X50400000Y-106300000D03*
X50400000Y-110300000D03*
X50400000Y-99300000D03*
X50400000Y-103300000D03*
X50400000Y-92300000D03*
X50400000Y-96300000D03*
X50400000Y-113300000D03*
X50400000Y-117300000D03*
M02*
