G04 #@! TF.GenerationSoftware,KiCad,Pcbnew,(6.0.2)*
G04 #@! TF.CreationDate,2022-07-27T14:51:58+02:00*
G04 #@! TF.ProjectId,Multiplex_MOSFET,4d756c74-6970-46c6-9578-5f4d4f534645,rev?*
G04 #@! TF.SameCoordinates,Original*
G04 #@! TF.FileFunction,Soldermask,Top*
G04 #@! TF.FilePolarity,Negative*
%FSLAX46Y46*%
G04 Gerber Fmt 4.6, Leading zero omitted, Abs format (unit mm)*
G04 Created by KiCad (PCBNEW (6.0.2)) date 2022-07-27 14:51:58*
%MOMM*%
%LPD*%
G01*
G04 APERTURE LIST*
G04 Aperture macros list*
%AMRoundRect*
0 Rectangle with rounded corners*
0 $1 Rounding radius*
0 $2 $3 $4 $5 $6 $7 $8 $9 X,Y pos of 4 corners*
0 Add a 4 corners polygon primitive as box body*
4,1,4,$2,$3,$4,$5,$6,$7,$8,$9,$2,$3,0*
0 Add four circle primitives for the rounded corners*
1,1,$1+$1,$2,$3*
1,1,$1+$1,$4,$5*
1,1,$1+$1,$6,$7*
1,1,$1+$1,$8,$9*
0 Add four rect primitives between the rounded corners*
20,1,$1+$1,$2,$3,$4,$5,0*
20,1,$1+$1,$4,$5,$6,$7,0*
20,1,$1+$1,$6,$7,$8,$9,0*
20,1,$1+$1,$8,$9,$2,$3,0*%
G04 Aperture macros list end*
%ADD10RoundRect,0.250000X-0.450000X0.262500X-0.450000X-0.262500X0.450000X-0.262500X0.450000X0.262500X0*%
%ADD11RoundRect,0.250000X0.450000X-0.262500X0.450000X0.262500X-0.450000X0.262500X-0.450000X-0.262500X0*%
%ADD12RoundRect,0.250000X0.262500X0.450000X-0.262500X0.450000X-0.262500X-0.450000X0.262500X-0.450000X0*%
%ADD13RoundRect,0.250000X-0.262500X-0.450000X0.262500X-0.450000X0.262500X0.450000X-0.262500X0.450000X0*%
%ADD14RoundRect,0.150000X0.587500X0.150000X-0.587500X0.150000X-0.587500X-0.150000X0.587500X-0.150000X0*%
%ADD15C,3.800000*%
%ADD16R,1.700000X1.700000*%
%ADD17O,1.700000X1.700000*%
%ADD18R,1.550000X0.700000*%
%ADD19R,1.800000X2.500000*%
G04 APERTURE END LIST*
D10*
X60300000Y-112427500D03*
X60300000Y-114252500D03*
D11*
X60300000Y-109072500D03*
X60300000Y-107247500D03*
D10*
X60300000Y-98427500D03*
X60300000Y-100252500D03*
D11*
X60300000Y-95272500D03*
X60300000Y-93447500D03*
D12*
X58582500Y-114250000D03*
X56757500Y-114250000D03*
D13*
X56757500Y-107250000D03*
X58582500Y-107250000D03*
X56757500Y-100250000D03*
X58582500Y-100250000D03*
D12*
X58582500Y-93450000D03*
X56757500Y-93450000D03*
D14*
X55007500Y-114250000D03*
X55007500Y-112350000D03*
X53132500Y-113300000D03*
X55007500Y-107250000D03*
X55007500Y-105350000D03*
X53132500Y-106300000D03*
X55007500Y-100250000D03*
X55007500Y-98350000D03*
X53132500Y-99300000D03*
X55007500Y-93450000D03*
X55007500Y-91550000D03*
X53132500Y-92500000D03*
D15*
X62950000Y-118670000D03*
X56950000Y-118670000D03*
D16*
X63050000Y-114250000D03*
X63050000Y-107250000D03*
X63050000Y-100250000D03*
X63050000Y-93450000D03*
X84120000Y-110395000D03*
D17*
X84120000Y-112935000D03*
X84120000Y-115475000D03*
D16*
X84120000Y-101750000D03*
D17*
X84120000Y-104290000D03*
X84120000Y-106830000D03*
D16*
X84120000Y-93100000D03*
D17*
X84120000Y-95640000D03*
X84120000Y-98180000D03*
D16*
X75470000Y-93100000D03*
D17*
X78010000Y-93100000D03*
X80550000Y-93100000D03*
D16*
X76520000Y-119050000D03*
D17*
X79060000Y-119050000D03*
X81600000Y-119050000D03*
X84140000Y-119050000D03*
D16*
X67865000Y-119050000D03*
D17*
X70405000Y-119050000D03*
X72945000Y-119050000D03*
D16*
X76520000Y-115450000D03*
D17*
X76520000Y-112910000D03*
D16*
X67880000Y-115460000D03*
D17*
X67880000Y-112920000D03*
D16*
X46850000Y-116145000D03*
D17*
X46850000Y-113605000D03*
D16*
X46850000Y-109155000D03*
D17*
X46850000Y-106615000D03*
X46850000Y-99610000D03*
D16*
X46850000Y-102150000D03*
X46850000Y-95145000D03*
D17*
X46850000Y-92605000D03*
D18*
X67435000Y-99915000D03*
X67435000Y-101185000D03*
X67435000Y-102455000D03*
X67435000Y-103725000D03*
X67435000Y-104995000D03*
X67435000Y-106265000D03*
X67435000Y-107535000D03*
X67435000Y-108805000D03*
X72885000Y-108805000D03*
X72885000Y-107535000D03*
X72885000Y-106265000D03*
X72885000Y-104995000D03*
X72885000Y-103725000D03*
X72885000Y-102455000D03*
X72885000Y-101185000D03*
X72885000Y-99915000D03*
D19*
X50400000Y-106300000D03*
X50400000Y-110300000D03*
X50400000Y-99300000D03*
X50400000Y-103300000D03*
X50400000Y-92300000D03*
X50400000Y-96300000D03*
X50400000Y-113300000D03*
X50400000Y-117300000D03*
M02*
