M48
; DRILL file {KiCad (6.0.2)} date Wed Jul 27 14:52:00 2022
; FORMAT={-:-/ absolute / metric / decimal}
; #@! TF.CreationDate,2022-07-27T14:52:00+02:00
; #@! TF.GenerationSoftware,Kicad,Pcbnew,(6.0.2)
; #@! TF.FileFunction,Plated,1,2,PTH
FMAT,2
METRIC
; #@! TA.AperFunction,Plated,PTH,ViaDrill
T1C0.400
; #@! TA.AperFunction,Plated,PTH,ComponentDrill
T2C1.000
; #@! TA.AperFunction,Plated,PTH,ComponentDrill
T3C2.200
%
G90
G05
T1
X55.0Y-97.0
X55.0Y-104.0
X55.0Y-111.0
X57.0Y-91.55
T2
X46.85Y-92.605
X46.85Y-95.145
X46.85Y-99.61
X46.85Y-102.15
X46.85Y-106.615
X46.85Y-109.155
X46.85Y-113.605
X46.85Y-116.145
X63.05Y-93.45
X63.05Y-100.25
X63.05Y-107.25
X63.05Y-114.25
X67.865Y-119.05
X67.88Y-112.92
X67.88Y-115.46
X70.405Y-119.05
X72.945Y-119.05
X75.47Y-93.1
X76.52Y-112.91
X76.52Y-115.45
X76.52Y-119.05
X78.01Y-93.1
X79.06Y-119.05
X80.55Y-93.1
X81.6Y-119.05
X84.12Y-93.1
X84.12Y-95.64
X84.12Y-98.18
X84.12Y-101.75
X84.12Y-104.29
X84.12Y-106.83
X84.12Y-110.395
X84.12Y-112.935
X84.12Y-115.475
X84.14Y-119.05
T3
X56.95Y-118.67
X62.95Y-118.67
T0
M30
