G04 #@! TF.GenerationSoftware,KiCad,Pcbnew,7.0.7*
G04 #@! TF.CreationDate,2023-09-27T11:52:32+02:00*
G04 #@! TF.ProjectId,PCB_Layout_MOSFET,5043425f-4c61-4796-9f75-745f4d4f5346,rev?*
G04 #@! TF.SameCoordinates,Original*
G04 #@! TF.FileFunction,Soldermask,Bot*
G04 #@! TF.FilePolarity,Negative*
%FSLAX46Y46*%
G04 Gerber Fmt 4.6, Leading zero omitted, Abs format (unit mm)*
G04 Created by KiCad (PCBNEW 7.0.7) date 2023-09-27 11:52:32*
%MOMM*%
%LPD*%
G01*
G04 APERTURE LIST*
%ADD10C,1.700000*%
%ADD11C,1.800000*%
%ADD12R,1.560000X1.560000*%
%ADD13C,1.560000*%
%ADD14C,2.500000*%
%ADD15R,2.400000X2.400000*%
%ADD16C,2.400000*%
%ADD17C,4.300000*%
%ADD18C,2.000000*%
G04 APERTURE END LIST*
D10*
X148757500Y-138200000D03*
D11*
X148757500Y-133700000D03*
D12*
X172510000Y-87477500D03*
D13*
X169970000Y-87477500D03*
X167430000Y-87477500D03*
X164890000Y-87477500D03*
X162350000Y-87477500D03*
X159810000Y-87477500D03*
X157270000Y-87477500D03*
X154730000Y-87477500D03*
X152190000Y-87477500D03*
X149650000Y-87477500D03*
X147110000Y-87477500D03*
X144570000Y-87477500D03*
X142030000Y-87477500D03*
X139490000Y-87477500D03*
X136950000Y-87477500D03*
X134410000Y-87477500D03*
X131870000Y-87477500D03*
X129330000Y-87477500D03*
X126790000Y-87477500D03*
X172510000Y-112877500D03*
X169970000Y-112877500D03*
X167430000Y-112877500D03*
X164890000Y-112877500D03*
X162350000Y-112877500D03*
X159810000Y-112877500D03*
X157270000Y-112877500D03*
X154730000Y-112877500D03*
X152190000Y-112877500D03*
X149650000Y-112877500D03*
X147110000Y-112877500D03*
X144570000Y-112877500D03*
X142030000Y-112877500D03*
X139490000Y-112877500D03*
X136950000Y-112877500D03*
X134410000Y-112877500D03*
X131870000Y-112877500D03*
X129330000Y-112877500D03*
X126790000Y-112877500D03*
D14*
X177550000Y-114000000D03*
X177550000Y-118700000D03*
X177550000Y-109300000D03*
D15*
X184450000Y-118300000D03*
D16*
X184450000Y-114800000D03*
X184450000Y-111300000D03*
D15*
X166450000Y-81800000D03*
D16*
X162950000Y-81800000D03*
X159450000Y-81800000D03*
D15*
X184450000Y-129800000D03*
D16*
X184450000Y-126300000D03*
X184450000Y-122800000D03*
D15*
X136850000Y-81800000D03*
D16*
X133350000Y-81800000D03*
X129850000Y-81800000D03*
X126350000Y-81800000D03*
D17*
X184900000Y-136800000D03*
X103400000Y-136800000D03*
D15*
X110350000Y-136300000D03*
D16*
X113850000Y-136300000D03*
D15*
X184450000Y-95300000D03*
D16*
X184450000Y-91800000D03*
X184450000Y-88300000D03*
D15*
X103900000Y-99300000D03*
D16*
X103900000Y-102800000D03*
D15*
X177950000Y-81800000D03*
D16*
X174450000Y-81800000D03*
X170950000Y-81800000D03*
D15*
X171000000Y-136300000D03*
D16*
X174500000Y-136300000D03*
X178000000Y-136300000D03*
D15*
X118350000Y-136300000D03*
D16*
X121850000Y-136300000D03*
D15*
X103900000Y-123300000D03*
D16*
X103900000Y-126800000D03*
D15*
X103900000Y-91300000D03*
D16*
X103900000Y-94800000D03*
D17*
X146750000Y-106950000D03*
D15*
X159500000Y-136300000D03*
D16*
X163000000Y-136300000D03*
X166500000Y-136300000D03*
D15*
X184450000Y-106800000D03*
D16*
X184450000Y-103300000D03*
X184450000Y-99800000D03*
D15*
X103900000Y-107300000D03*
D16*
X103900000Y-110800000D03*
D15*
X113850000Y-81800000D03*
D16*
X110350000Y-81800000D03*
D17*
X184900000Y-81300000D03*
X103400000Y-81300000D03*
D15*
X121850000Y-81800000D03*
D16*
X118350000Y-81800000D03*
D15*
X103900000Y-115300000D03*
D16*
X103900000Y-118800000D03*
D18*
X181000000Y-126300000D03*
X151900000Y-128300000D03*
X129900000Y-116400000D03*
X181000000Y-129800000D03*
X129900000Y-120050000D03*
X151900000Y-131550000D03*
M02*
