G04 #@! TF.GenerationSoftware,KiCad,Pcbnew,7.0.7*
G04 #@! TF.CreationDate,2023-09-27T11:52:32+02:00*
G04 #@! TF.ProjectId,PCB_Layout_MOSFET,5043425f-4c61-4796-9f75-745f4d4f5346,rev?*
G04 #@! TF.SameCoordinates,Original*
G04 #@! TF.FileFunction,Legend,Bot*
G04 #@! TF.FilePolarity,Positive*
%FSLAX46Y46*%
G04 Gerber Fmt 4.6, Leading zero omitted, Abs format (unit mm)*
G04 Created by KiCad (PCBNEW 7.0.7) date 2023-09-27 11:52:32*
%MOMM*%
%LPD*%
G01*
G04 APERTURE LIST*
%ADD10C,0.150000*%
%ADD11C,0.200000*%
%ADD12C,0.120000*%
%ADD13C,1.700000*%
%ADD14C,1.800000*%
%ADD15R,1.560000X1.560000*%
%ADD16C,1.560000*%
%ADD17C,2.500000*%
%ADD18R,2.400000X2.400000*%
%ADD19C,2.400000*%
%ADD20C,4.300000*%
%ADD21C,2.000000*%
G04 APERTURE END LIST*
D10*
X187897800Y-95040476D02*
X187850180Y-94897619D01*
X187850180Y-94897619D02*
X187850180Y-94659524D01*
X187850180Y-94659524D02*
X187897800Y-94564286D01*
X187897800Y-94564286D02*
X187945419Y-94516667D01*
X187945419Y-94516667D02*
X188040657Y-94469048D01*
X188040657Y-94469048D02*
X188135895Y-94469048D01*
X188135895Y-94469048D02*
X188231133Y-94516667D01*
X188231133Y-94516667D02*
X188278752Y-94564286D01*
X188278752Y-94564286D02*
X188326371Y-94659524D01*
X188326371Y-94659524D02*
X188373990Y-94850000D01*
X188373990Y-94850000D02*
X188421609Y-94945238D01*
X188421609Y-94945238D02*
X188469228Y-94992857D01*
X188469228Y-94992857D02*
X188564466Y-95040476D01*
X188564466Y-95040476D02*
X188659704Y-95040476D01*
X188659704Y-95040476D02*
X188754942Y-94992857D01*
X188754942Y-94992857D02*
X188802561Y-94945238D01*
X188802561Y-94945238D02*
X188850180Y-94850000D01*
X188850180Y-94850000D02*
X188850180Y-94611905D01*
X188850180Y-94611905D02*
X188802561Y-94469048D01*
X187897800Y-93659524D02*
X187850180Y-93754762D01*
X187850180Y-93754762D02*
X187850180Y-93945238D01*
X187850180Y-93945238D02*
X187897800Y-94040476D01*
X187897800Y-94040476D02*
X187993038Y-94088095D01*
X187993038Y-94088095D02*
X188373990Y-94088095D01*
X188373990Y-94088095D02*
X188469228Y-94040476D01*
X188469228Y-94040476D02*
X188516847Y-93945238D01*
X188516847Y-93945238D02*
X188516847Y-93754762D01*
X188516847Y-93754762D02*
X188469228Y-93659524D01*
X188469228Y-93659524D02*
X188373990Y-93611905D01*
X188373990Y-93611905D02*
X188278752Y-93611905D01*
X188278752Y-93611905D02*
X188183514Y-94088095D01*
X188516847Y-93183333D02*
X187850180Y-93183333D01*
X188421609Y-93183333D02*
X188469228Y-93135714D01*
X188469228Y-93135714D02*
X188516847Y-93040476D01*
X188516847Y-93040476D02*
X188516847Y-92897619D01*
X188516847Y-92897619D02*
X188469228Y-92802381D01*
X188469228Y-92802381D02*
X188373990Y-92754762D01*
X188373990Y-92754762D02*
X187850180Y-92754762D01*
X187897800Y-92326190D02*
X187850180Y-92230952D01*
X187850180Y-92230952D02*
X187850180Y-92040476D01*
X187850180Y-92040476D02*
X187897800Y-91945238D01*
X187897800Y-91945238D02*
X187993038Y-91897619D01*
X187993038Y-91897619D02*
X188040657Y-91897619D01*
X188040657Y-91897619D02*
X188135895Y-91945238D01*
X188135895Y-91945238D02*
X188183514Y-92040476D01*
X188183514Y-92040476D02*
X188183514Y-92183333D01*
X188183514Y-92183333D02*
X188231133Y-92278571D01*
X188231133Y-92278571D02*
X188326371Y-92326190D01*
X188326371Y-92326190D02*
X188373990Y-92326190D01*
X188373990Y-92326190D02*
X188469228Y-92278571D01*
X188469228Y-92278571D02*
X188516847Y-92183333D01*
X188516847Y-92183333D02*
X188516847Y-92040476D01*
X188516847Y-92040476D02*
X188469228Y-91945238D01*
X187850180Y-91326190D02*
X187897800Y-91421428D01*
X187897800Y-91421428D02*
X187945419Y-91469047D01*
X187945419Y-91469047D02*
X188040657Y-91516666D01*
X188040657Y-91516666D02*
X188326371Y-91516666D01*
X188326371Y-91516666D02*
X188421609Y-91469047D01*
X188421609Y-91469047D02*
X188469228Y-91421428D01*
X188469228Y-91421428D02*
X188516847Y-91326190D01*
X188516847Y-91326190D02*
X188516847Y-91183333D01*
X188516847Y-91183333D02*
X188469228Y-91088095D01*
X188469228Y-91088095D02*
X188421609Y-91040476D01*
X188421609Y-91040476D02*
X188326371Y-90992857D01*
X188326371Y-90992857D02*
X188040657Y-90992857D01*
X188040657Y-90992857D02*
X187945419Y-91040476D01*
X187945419Y-91040476D02*
X187897800Y-91088095D01*
X187897800Y-91088095D02*
X187850180Y-91183333D01*
X187850180Y-91183333D02*
X187850180Y-91326190D01*
X187850180Y-90564285D02*
X188516847Y-90564285D01*
X188326371Y-90564285D02*
X188421609Y-90516666D01*
X188421609Y-90516666D02*
X188469228Y-90469047D01*
X188469228Y-90469047D02*
X188516847Y-90373809D01*
X188516847Y-90373809D02*
X188516847Y-90278571D01*
X188850180Y-89278570D02*
X188850180Y-88659523D01*
X188850180Y-88659523D02*
X188469228Y-88992856D01*
X188469228Y-88992856D02*
X188469228Y-88849999D01*
X188469228Y-88849999D02*
X188421609Y-88754761D01*
X188421609Y-88754761D02*
X188373990Y-88707142D01*
X188373990Y-88707142D02*
X188278752Y-88659523D01*
X188278752Y-88659523D02*
X188040657Y-88659523D01*
X188040657Y-88659523D02*
X187945419Y-88707142D01*
X187945419Y-88707142D02*
X187897800Y-88754761D01*
X187897800Y-88754761D02*
X187850180Y-88849999D01*
X187850180Y-88849999D02*
X187850180Y-89135713D01*
X187850180Y-89135713D02*
X187897800Y-89230951D01*
X187897800Y-89230951D02*
X187945419Y-89278570D01*
X187192561Y-96492857D02*
X187240180Y-96588095D01*
X187240180Y-96588095D02*
X187240180Y-96730952D01*
X187240180Y-96730952D02*
X187192561Y-96873809D01*
X187192561Y-96873809D02*
X187097323Y-96969047D01*
X187097323Y-96969047D02*
X187002085Y-97016666D01*
X187002085Y-97016666D02*
X186811609Y-97064285D01*
X186811609Y-97064285D02*
X186668752Y-97064285D01*
X186668752Y-97064285D02*
X186478276Y-97016666D01*
X186478276Y-97016666D02*
X186383038Y-96969047D01*
X186383038Y-96969047D02*
X186287800Y-96873809D01*
X186287800Y-96873809D02*
X186240180Y-96730952D01*
X186240180Y-96730952D02*
X186240180Y-96635714D01*
X186240180Y-96635714D02*
X186287800Y-96492857D01*
X186287800Y-96492857D02*
X186335419Y-96445238D01*
X186335419Y-96445238D02*
X186668752Y-96445238D01*
X186668752Y-96445238D02*
X186668752Y-96635714D01*
X186240180Y-96016666D02*
X187240180Y-96016666D01*
X187240180Y-96016666D02*
X186240180Y-95445238D01*
X186240180Y-95445238D02*
X187240180Y-95445238D01*
X186240180Y-94969047D02*
X187240180Y-94969047D01*
X187240180Y-94969047D02*
X187240180Y-94730952D01*
X187240180Y-94730952D02*
X187192561Y-94588095D01*
X187192561Y-94588095D02*
X187097323Y-94492857D01*
X187097323Y-94492857D02*
X187002085Y-94445238D01*
X187002085Y-94445238D02*
X186811609Y-94397619D01*
X186811609Y-94397619D02*
X186668752Y-94397619D01*
X186668752Y-94397619D02*
X186478276Y-94445238D01*
X186478276Y-94445238D02*
X186383038Y-94492857D01*
X186383038Y-94492857D02*
X186287800Y-94588095D01*
X186287800Y-94588095D02*
X186240180Y-94730952D01*
X186240180Y-94730952D02*
X186240180Y-94969047D01*
X187240180Y-93302380D02*
X187240180Y-92683333D01*
X187240180Y-92683333D02*
X186859228Y-93016666D01*
X186859228Y-93016666D02*
X186859228Y-92873809D01*
X186859228Y-92873809D02*
X186811609Y-92778571D01*
X186811609Y-92778571D02*
X186763990Y-92730952D01*
X186763990Y-92730952D02*
X186668752Y-92683333D01*
X186668752Y-92683333D02*
X186430657Y-92683333D01*
X186430657Y-92683333D02*
X186335419Y-92730952D01*
X186335419Y-92730952D02*
X186287800Y-92778571D01*
X186287800Y-92778571D02*
X186240180Y-92873809D01*
X186240180Y-92873809D02*
X186240180Y-93159523D01*
X186240180Y-93159523D02*
X186287800Y-93254761D01*
X186287800Y-93254761D02*
X186335419Y-93302380D01*
X187240180Y-92397618D02*
X186240180Y-92064285D01*
X186240180Y-92064285D02*
X187240180Y-91730952D01*
X187240180Y-91492856D02*
X187240180Y-90873809D01*
X187240180Y-90873809D02*
X186859228Y-91207142D01*
X186859228Y-91207142D02*
X186859228Y-91064285D01*
X186859228Y-91064285D02*
X186811609Y-90969047D01*
X186811609Y-90969047D02*
X186763990Y-90921428D01*
X186763990Y-90921428D02*
X186668752Y-90873809D01*
X186668752Y-90873809D02*
X186430657Y-90873809D01*
X186430657Y-90873809D02*
X186335419Y-90921428D01*
X186335419Y-90921428D02*
X186287800Y-90969047D01*
X186287800Y-90969047D02*
X186240180Y-91064285D01*
X186240180Y-91064285D02*
X186240180Y-91349999D01*
X186240180Y-91349999D02*
X186287800Y-91445237D01*
X186287800Y-91445237D02*
X186335419Y-91492856D01*
X186240180Y-89683332D02*
X187240180Y-89683332D01*
X187240180Y-89683332D02*
X187240180Y-89445237D01*
X187240180Y-89445237D02*
X187192561Y-89302380D01*
X187192561Y-89302380D02*
X187097323Y-89207142D01*
X187097323Y-89207142D02*
X187002085Y-89159523D01*
X187002085Y-89159523D02*
X186811609Y-89111904D01*
X186811609Y-89111904D02*
X186668752Y-89111904D01*
X186668752Y-89111904D02*
X186478276Y-89159523D01*
X186478276Y-89159523D02*
X186383038Y-89207142D01*
X186383038Y-89207142D02*
X186287800Y-89302380D01*
X186287800Y-89302380D02*
X186240180Y-89445237D01*
X186240180Y-89445237D02*
X186240180Y-89683332D01*
X186525895Y-88730951D02*
X186525895Y-88254761D01*
X186240180Y-88826189D02*
X187240180Y-88492856D01*
X187240180Y-88492856D02*
X186240180Y-88159523D01*
X187240180Y-87969046D02*
X187240180Y-87397618D01*
X186240180Y-87683332D02*
X187240180Y-87683332D01*
X186525895Y-87111903D02*
X186525895Y-86635713D01*
X186240180Y-87207141D02*
X187240180Y-86873808D01*
X187240180Y-86873808D02*
X186240180Y-86540475D01*
X114673809Y-138147438D02*
X114769047Y-138099819D01*
X114769047Y-138099819D02*
X114911904Y-138099819D01*
X114911904Y-138099819D02*
X115054761Y-138147438D01*
X115054761Y-138147438D02*
X115149999Y-138242676D01*
X115149999Y-138242676D02*
X115197618Y-138337914D01*
X115197618Y-138337914D02*
X115245237Y-138528390D01*
X115245237Y-138528390D02*
X115245237Y-138671247D01*
X115245237Y-138671247D02*
X115197618Y-138861723D01*
X115197618Y-138861723D02*
X115149999Y-138956961D01*
X115149999Y-138956961D02*
X115054761Y-139052200D01*
X115054761Y-139052200D02*
X114911904Y-139099819D01*
X114911904Y-139099819D02*
X114816666Y-139099819D01*
X114816666Y-139099819D02*
X114673809Y-139052200D01*
X114673809Y-139052200D02*
X114626190Y-139004580D01*
X114626190Y-139004580D02*
X114626190Y-138671247D01*
X114626190Y-138671247D02*
X114816666Y-138671247D01*
X114197618Y-139099819D02*
X114197618Y-138099819D01*
X114197618Y-138099819D02*
X113626190Y-139099819D01*
X113626190Y-139099819D02*
X113626190Y-138099819D01*
X113149999Y-139099819D02*
X113149999Y-138099819D01*
X113149999Y-138099819D02*
X112911904Y-138099819D01*
X112911904Y-138099819D02*
X112769047Y-138147438D01*
X112769047Y-138147438D02*
X112673809Y-138242676D01*
X112673809Y-138242676D02*
X112626190Y-138337914D01*
X112626190Y-138337914D02*
X112578571Y-138528390D01*
X112578571Y-138528390D02*
X112578571Y-138671247D01*
X112578571Y-138671247D02*
X112626190Y-138861723D01*
X112626190Y-138861723D02*
X112673809Y-138956961D01*
X112673809Y-138956961D02*
X112769047Y-139052200D01*
X112769047Y-139052200D02*
X112911904Y-139099819D01*
X112911904Y-139099819D02*
X113149999Y-139099819D01*
X111435713Y-138195057D02*
X111388094Y-138147438D01*
X111388094Y-138147438D02*
X111292856Y-138099819D01*
X111292856Y-138099819D02*
X111054761Y-138099819D01*
X111054761Y-138099819D02*
X110959523Y-138147438D01*
X110959523Y-138147438D02*
X110911904Y-138195057D01*
X110911904Y-138195057D02*
X110864285Y-138290295D01*
X110864285Y-138290295D02*
X110864285Y-138385533D01*
X110864285Y-138385533D02*
X110911904Y-138528390D01*
X110911904Y-138528390D02*
X111483332Y-139099819D01*
X111483332Y-139099819D02*
X110864285Y-139099819D01*
X110007142Y-138433152D02*
X110007142Y-139099819D01*
X110245237Y-138052200D02*
X110483332Y-138766485D01*
X110483332Y-138766485D02*
X109864285Y-138766485D01*
X109626189Y-138099819D02*
X109292856Y-139099819D01*
X109292856Y-139099819D02*
X108959523Y-138099819D01*
X114864285Y-139709819D02*
X114530952Y-140709819D01*
X114530952Y-140709819D02*
X114197619Y-139709819D01*
X113435714Y-140709819D02*
X113435714Y-140186009D01*
X113435714Y-140186009D02*
X113483333Y-140090771D01*
X113483333Y-140090771D02*
X113578571Y-140043152D01*
X113578571Y-140043152D02*
X113769047Y-140043152D01*
X113769047Y-140043152D02*
X113864285Y-140090771D01*
X113435714Y-140662200D02*
X113530952Y-140709819D01*
X113530952Y-140709819D02*
X113769047Y-140709819D01*
X113769047Y-140709819D02*
X113864285Y-140662200D01*
X113864285Y-140662200D02*
X113911904Y-140566961D01*
X113911904Y-140566961D02*
X113911904Y-140471723D01*
X113911904Y-140471723D02*
X113864285Y-140376485D01*
X113864285Y-140376485D02*
X113769047Y-140328866D01*
X113769047Y-140328866D02*
X113530952Y-140328866D01*
X113530952Y-140328866D02*
X113435714Y-140281247D01*
X112816666Y-140709819D02*
X112911904Y-140662200D01*
X112911904Y-140662200D02*
X112959523Y-140566961D01*
X112959523Y-140566961D02*
X112959523Y-139709819D01*
X112530951Y-140043152D02*
X112292856Y-140709819D01*
X112292856Y-140709819D02*
X112054761Y-140043152D01*
X111292856Y-140662200D02*
X111388094Y-140709819D01*
X111388094Y-140709819D02*
X111578570Y-140709819D01*
X111578570Y-140709819D02*
X111673808Y-140662200D01*
X111673808Y-140662200D02*
X111721427Y-140566961D01*
X111721427Y-140566961D02*
X111721427Y-140186009D01*
X111721427Y-140186009D02*
X111673808Y-140090771D01*
X111673808Y-140090771D02*
X111578570Y-140043152D01*
X111578570Y-140043152D02*
X111388094Y-140043152D01*
X111388094Y-140043152D02*
X111292856Y-140090771D01*
X111292856Y-140090771D02*
X111245237Y-140186009D01*
X111245237Y-140186009D02*
X111245237Y-140281247D01*
X111245237Y-140281247D02*
X111721427Y-140376485D01*
X110149998Y-139709819D02*
X109483332Y-139709819D01*
X109483332Y-139709819D02*
X109911903Y-140709819D01*
X131090475Y-114050057D02*
X131042856Y-114002438D01*
X131042856Y-114002438D02*
X130947618Y-113954819D01*
X130947618Y-113954819D02*
X130709523Y-113954819D01*
X130709523Y-113954819D02*
X130614285Y-114002438D01*
X130614285Y-114002438D02*
X130566666Y-114050057D01*
X130566666Y-114050057D02*
X130519047Y-114145295D01*
X130519047Y-114145295D02*
X130519047Y-114240533D01*
X130519047Y-114240533D02*
X130566666Y-114383390D01*
X130566666Y-114383390D02*
X131138094Y-114954819D01*
X131138094Y-114954819D02*
X130519047Y-114954819D01*
X129661904Y-114288152D02*
X129661904Y-114954819D01*
X129899999Y-113907200D02*
X130138094Y-114621485D01*
X130138094Y-114621485D02*
X129519047Y-114621485D01*
X129280951Y-113954819D02*
X128947618Y-114954819D01*
X128947618Y-114954819D02*
X128614285Y-113954819D01*
X130661904Y-121802438D02*
X130757142Y-121754819D01*
X130757142Y-121754819D02*
X130899999Y-121754819D01*
X130899999Y-121754819D02*
X131042856Y-121802438D01*
X131042856Y-121802438D02*
X131138094Y-121897676D01*
X131138094Y-121897676D02*
X131185713Y-121992914D01*
X131185713Y-121992914D02*
X131233332Y-122183390D01*
X131233332Y-122183390D02*
X131233332Y-122326247D01*
X131233332Y-122326247D02*
X131185713Y-122516723D01*
X131185713Y-122516723D02*
X131138094Y-122611961D01*
X131138094Y-122611961D02*
X131042856Y-122707200D01*
X131042856Y-122707200D02*
X130899999Y-122754819D01*
X130899999Y-122754819D02*
X130804761Y-122754819D01*
X130804761Y-122754819D02*
X130661904Y-122707200D01*
X130661904Y-122707200D02*
X130614285Y-122659580D01*
X130614285Y-122659580D02*
X130614285Y-122326247D01*
X130614285Y-122326247D02*
X130804761Y-122326247D01*
X130185713Y-122754819D02*
X130185713Y-121754819D01*
X130185713Y-121754819D02*
X129614285Y-122754819D01*
X129614285Y-122754819D02*
X129614285Y-121754819D01*
X129138094Y-122754819D02*
X129138094Y-121754819D01*
X129138094Y-121754819D02*
X128899999Y-121754819D01*
X128899999Y-121754819D02*
X128757142Y-121802438D01*
X128757142Y-121802438D02*
X128661904Y-121897676D01*
X128661904Y-121897676D02*
X128614285Y-121992914D01*
X128614285Y-121992914D02*
X128566666Y-122183390D01*
X128566666Y-122183390D02*
X128566666Y-122326247D01*
X128566666Y-122326247D02*
X128614285Y-122516723D01*
X128614285Y-122516723D02*
X128661904Y-122611961D01*
X128661904Y-122611961D02*
X128757142Y-122707200D01*
X128757142Y-122707200D02*
X128899999Y-122754819D01*
X128899999Y-122754819D02*
X129138094Y-122754819D01*
X102102561Y-103623809D02*
X102150180Y-103719047D01*
X102150180Y-103719047D02*
X102150180Y-103861904D01*
X102150180Y-103861904D02*
X102102561Y-104004761D01*
X102102561Y-104004761D02*
X102007323Y-104099999D01*
X102007323Y-104099999D02*
X101912085Y-104147618D01*
X101912085Y-104147618D02*
X101721609Y-104195237D01*
X101721609Y-104195237D02*
X101578752Y-104195237D01*
X101578752Y-104195237D02*
X101388276Y-104147618D01*
X101388276Y-104147618D02*
X101293038Y-104099999D01*
X101293038Y-104099999D02*
X101197800Y-104004761D01*
X101197800Y-104004761D02*
X101150180Y-103861904D01*
X101150180Y-103861904D02*
X101150180Y-103766666D01*
X101150180Y-103766666D02*
X101197800Y-103623809D01*
X101197800Y-103623809D02*
X101245419Y-103576190D01*
X101245419Y-103576190D02*
X101578752Y-103576190D01*
X101578752Y-103576190D02*
X101578752Y-103766666D01*
X101150180Y-103147618D02*
X102150180Y-103147618D01*
X102150180Y-103147618D02*
X101150180Y-102576190D01*
X101150180Y-102576190D02*
X102150180Y-102576190D01*
X101150180Y-102099999D02*
X102150180Y-102099999D01*
X102150180Y-102099999D02*
X102150180Y-101861904D01*
X102150180Y-101861904D02*
X102102561Y-101719047D01*
X102102561Y-101719047D02*
X102007323Y-101623809D01*
X102007323Y-101623809D02*
X101912085Y-101576190D01*
X101912085Y-101576190D02*
X101721609Y-101528571D01*
X101721609Y-101528571D02*
X101578752Y-101528571D01*
X101578752Y-101528571D02*
X101388276Y-101576190D01*
X101388276Y-101576190D02*
X101293038Y-101623809D01*
X101293038Y-101623809D02*
X101197800Y-101719047D01*
X101197800Y-101719047D02*
X101150180Y-101861904D01*
X101150180Y-101861904D02*
X101150180Y-102099999D01*
X102054942Y-100385713D02*
X102102561Y-100338094D01*
X102102561Y-100338094D02*
X102150180Y-100242856D01*
X102150180Y-100242856D02*
X102150180Y-100004761D01*
X102150180Y-100004761D02*
X102102561Y-99909523D01*
X102102561Y-99909523D02*
X102054942Y-99861904D01*
X102054942Y-99861904D02*
X101959704Y-99814285D01*
X101959704Y-99814285D02*
X101864466Y-99814285D01*
X101864466Y-99814285D02*
X101721609Y-99861904D01*
X101721609Y-99861904D02*
X101150180Y-100433332D01*
X101150180Y-100433332D02*
X101150180Y-99814285D01*
X101816847Y-98957142D02*
X101150180Y-98957142D01*
X102197800Y-99195237D02*
X101483514Y-99433332D01*
X101483514Y-99433332D02*
X101483514Y-98814285D01*
X102150180Y-98576189D02*
X101150180Y-98242856D01*
X101150180Y-98242856D02*
X102150180Y-97909523D01*
X100540180Y-103814285D02*
X99540180Y-103480952D01*
X99540180Y-103480952D02*
X100540180Y-103147619D01*
X99540180Y-102385714D02*
X100063990Y-102385714D01*
X100063990Y-102385714D02*
X100159228Y-102433333D01*
X100159228Y-102433333D02*
X100206847Y-102528571D01*
X100206847Y-102528571D02*
X100206847Y-102719047D01*
X100206847Y-102719047D02*
X100159228Y-102814285D01*
X99587800Y-102385714D02*
X99540180Y-102480952D01*
X99540180Y-102480952D02*
X99540180Y-102719047D01*
X99540180Y-102719047D02*
X99587800Y-102814285D01*
X99587800Y-102814285D02*
X99683038Y-102861904D01*
X99683038Y-102861904D02*
X99778276Y-102861904D01*
X99778276Y-102861904D02*
X99873514Y-102814285D01*
X99873514Y-102814285D02*
X99921133Y-102719047D01*
X99921133Y-102719047D02*
X99921133Y-102480952D01*
X99921133Y-102480952D02*
X99968752Y-102385714D01*
X99540180Y-101766666D02*
X99587800Y-101861904D01*
X99587800Y-101861904D02*
X99683038Y-101909523D01*
X99683038Y-101909523D02*
X100540180Y-101909523D01*
X100206847Y-101480951D02*
X99540180Y-101242856D01*
X99540180Y-101242856D02*
X100206847Y-101004761D01*
X99587800Y-100242856D02*
X99540180Y-100338094D01*
X99540180Y-100338094D02*
X99540180Y-100528570D01*
X99540180Y-100528570D02*
X99587800Y-100623808D01*
X99587800Y-100623808D02*
X99683038Y-100671427D01*
X99683038Y-100671427D02*
X100063990Y-100671427D01*
X100063990Y-100671427D02*
X100159228Y-100623808D01*
X100159228Y-100623808D02*
X100206847Y-100528570D01*
X100206847Y-100528570D02*
X100206847Y-100338094D01*
X100206847Y-100338094D02*
X100159228Y-100242856D01*
X100159228Y-100242856D02*
X100063990Y-100195237D01*
X100063990Y-100195237D02*
X99968752Y-100195237D01*
X99968752Y-100195237D02*
X99873514Y-100671427D01*
X100540180Y-99099998D02*
X100540180Y-98480951D01*
X100540180Y-98480951D02*
X100159228Y-98814284D01*
X100159228Y-98814284D02*
X100159228Y-98671427D01*
X100159228Y-98671427D02*
X100111609Y-98576189D01*
X100111609Y-98576189D02*
X100063990Y-98528570D01*
X100063990Y-98528570D02*
X99968752Y-98480951D01*
X99968752Y-98480951D02*
X99730657Y-98480951D01*
X99730657Y-98480951D02*
X99635419Y-98528570D01*
X99635419Y-98528570D02*
X99587800Y-98576189D01*
X99587800Y-98576189D02*
X99540180Y-98671427D01*
X99540180Y-98671427D02*
X99540180Y-98957141D01*
X99540180Y-98957141D02*
X99587800Y-99052379D01*
X99587800Y-99052379D02*
X99635419Y-99099998D01*
X134102380Y-78299819D02*
X134102380Y-77299819D01*
X134102380Y-77299819D02*
X133864285Y-77299819D01*
X133864285Y-77299819D02*
X133721428Y-77347438D01*
X133721428Y-77347438D02*
X133626190Y-77442676D01*
X133626190Y-77442676D02*
X133578571Y-77537914D01*
X133578571Y-77537914D02*
X133530952Y-77728390D01*
X133530952Y-77728390D02*
X133530952Y-77871247D01*
X133530952Y-77871247D02*
X133578571Y-78061723D01*
X133578571Y-78061723D02*
X133626190Y-78156961D01*
X133626190Y-78156961D02*
X133721428Y-78252200D01*
X133721428Y-78252200D02*
X133864285Y-78299819D01*
X133864285Y-78299819D02*
X134102380Y-78299819D01*
X133102380Y-78299819D02*
X133102380Y-77633152D01*
X133102380Y-77299819D02*
X133149999Y-77347438D01*
X133149999Y-77347438D02*
X133102380Y-77395057D01*
X133102380Y-77395057D02*
X133054761Y-77347438D01*
X133054761Y-77347438D02*
X133102380Y-77299819D01*
X133102380Y-77299819D02*
X133102380Y-77395057D01*
X132673809Y-78252200D02*
X132578571Y-78299819D01*
X132578571Y-78299819D02*
X132388095Y-78299819D01*
X132388095Y-78299819D02*
X132292857Y-78252200D01*
X132292857Y-78252200D02*
X132245238Y-78156961D01*
X132245238Y-78156961D02*
X132245238Y-78109342D01*
X132245238Y-78109342D02*
X132292857Y-78014104D01*
X132292857Y-78014104D02*
X132388095Y-77966485D01*
X132388095Y-77966485D02*
X132530952Y-77966485D01*
X132530952Y-77966485D02*
X132626190Y-77918866D01*
X132626190Y-77918866D02*
X132673809Y-77823628D01*
X132673809Y-77823628D02*
X132673809Y-77776009D01*
X132673809Y-77776009D02*
X132626190Y-77680771D01*
X132626190Y-77680771D02*
X132530952Y-77633152D01*
X132530952Y-77633152D02*
X132388095Y-77633152D01*
X132388095Y-77633152D02*
X132292857Y-77680771D01*
X131816666Y-77633152D02*
X131816666Y-78633152D01*
X131816666Y-77680771D02*
X131721428Y-77633152D01*
X131721428Y-77633152D02*
X131530952Y-77633152D01*
X131530952Y-77633152D02*
X131435714Y-77680771D01*
X131435714Y-77680771D02*
X131388095Y-77728390D01*
X131388095Y-77728390D02*
X131340476Y-77823628D01*
X131340476Y-77823628D02*
X131340476Y-78109342D01*
X131340476Y-78109342D02*
X131388095Y-78204580D01*
X131388095Y-78204580D02*
X131435714Y-78252200D01*
X131435714Y-78252200D02*
X131530952Y-78299819D01*
X131530952Y-78299819D02*
X131721428Y-78299819D01*
X131721428Y-78299819D02*
X131816666Y-78252200D01*
X130769047Y-78299819D02*
X130864285Y-78252200D01*
X130864285Y-78252200D02*
X130911904Y-78156961D01*
X130911904Y-78156961D02*
X130911904Y-77299819D01*
X129959523Y-78299819D02*
X129959523Y-77776009D01*
X129959523Y-77776009D02*
X130007142Y-77680771D01*
X130007142Y-77680771D02*
X130102380Y-77633152D01*
X130102380Y-77633152D02*
X130292856Y-77633152D01*
X130292856Y-77633152D02*
X130388094Y-77680771D01*
X129959523Y-78252200D02*
X130054761Y-78299819D01*
X130054761Y-78299819D02*
X130292856Y-78299819D01*
X130292856Y-78299819D02*
X130388094Y-78252200D01*
X130388094Y-78252200D02*
X130435713Y-78156961D01*
X130435713Y-78156961D02*
X130435713Y-78061723D01*
X130435713Y-78061723D02*
X130388094Y-77966485D01*
X130388094Y-77966485D02*
X130292856Y-77918866D01*
X130292856Y-77918866D02*
X130054761Y-77918866D01*
X130054761Y-77918866D02*
X129959523Y-77871247D01*
X129578570Y-77633152D02*
X129340475Y-78299819D01*
X129102380Y-77633152D02*
X129340475Y-78299819D01*
X129340475Y-78299819D02*
X129435713Y-78537914D01*
X129435713Y-78537914D02*
X129483332Y-78585533D01*
X129483332Y-78585533D02*
X129578570Y-78633152D01*
X137911904Y-79862200D02*
X137769047Y-79909819D01*
X137769047Y-79909819D02*
X137530952Y-79909819D01*
X137530952Y-79909819D02*
X137435714Y-79862200D01*
X137435714Y-79862200D02*
X137388095Y-79814580D01*
X137388095Y-79814580D02*
X137340476Y-79719342D01*
X137340476Y-79719342D02*
X137340476Y-79624104D01*
X137340476Y-79624104D02*
X137388095Y-79528866D01*
X137388095Y-79528866D02*
X137435714Y-79481247D01*
X137435714Y-79481247D02*
X137530952Y-79433628D01*
X137530952Y-79433628D02*
X137721428Y-79386009D01*
X137721428Y-79386009D02*
X137816666Y-79338390D01*
X137816666Y-79338390D02*
X137864285Y-79290771D01*
X137864285Y-79290771D02*
X137911904Y-79195533D01*
X137911904Y-79195533D02*
X137911904Y-79100295D01*
X137911904Y-79100295D02*
X137864285Y-79005057D01*
X137864285Y-79005057D02*
X137816666Y-78957438D01*
X137816666Y-78957438D02*
X137721428Y-78909819D01*
X137721428Y-78909819D02*
X137483333Y-78909819D01*
X137483333Y-78909819D02*
X137340476Y-78957438D01*
X136911904Y-79909819D02*
X136911904Y-78909819D01*
X136911904Y-78909819D02*
X136673809Y-78909819D01*
X136673809Y-78909819D02*
X136530952Y-78957438D01*
X136530952Y-78957438D02*
X136435714Y-79052676D01*
X136435714Y-79052676D02*
X136388095Y-79147914D01*
X136388095Y-79147914D02*
X136340476Y-79338390D01*
X136340476Y-79338390D02*
X136340476Y-79481247D01*
X136340476Y-79481247D02*
X136388095Y-79671723D01*
X136388095Y-79671723D02*
X136435714Y-79766961D01*
X136435714Y-79766961D02*
X136530952Y-79862200D01*
X136530952Y-79862200D02*
X136673809Y-79909819D01*
X136673809Y-79909819D02*
X136911904Y-79909819D01*
X135959523Y-79624104D02*
X135483333Y-79624104D01*
X136054761Y-79909819D02*
X135721428Y-78909819D01*
X135721428Y-78909819D02*
X135388095Y-79909819D01*
X134340475Y-79862200D02*
X134197618Y-79909819D01*
X134197618Y-79909819D02*
X133959523Y-79909819D01*
X133959523Y-79909819D02*
X133864285Y-79862200D01*
X133864285Y-79862200D02*
X133816666Y-79814580D01*
X133816666Y-79814580D02*
X133769047Y-79719342D01*
X133769047Y-79719342D02*
X133769047Y-79624104D01*
X133769047Y-79624104D02*
X133816666Y-79528866D01*
X133816666Y-79528866D02*
X133864285Y-79481247D01*
X133864285Y-79481247D02*
X133959523Y-79433628D01*
X133959523Y-79433628D02*
X134149999Y-79386009D01*
X134149999Y-79386009D02*
X134245237Y-79338390D01*
X134245237Y-79338390D02*
X134292856Y-79290771D01*
X134292856Y-79290771D02*
X134340475Y-79195533D01*
X134340475Y-79195533D02*
X134340475Y-79100295D01*
X134340475Y-79100295D02*
X134292856Y-79005057D01*
X134292856Y-79005057D02*
X134245237Y-78957438D01*
X134245237Y-78957438D02*
X134149999Y-78909819D01*
X134149999Y-78909819D02*
X133911904Y-78909819D01*
X133911904Y-78909819D02*
X133769047Y-78957438D01*
X132769047Y-79814580D02*
X132816666Y-79862200D01*
X132816666Y-79862200D02*
X132959523Y-79909819D01*
X132959523Y-79909819D02*
X133054761Y-79909819D01*
X133054761Y-79909819D02*
X133197618Y-79862200D01*
X133197618Y-79862200D02*
X133292856Y-79766961D01*
X133292856Y-79766961D02*
X133340475Y-79671723D01*
X133340475Y-79671723D02*
X133388094Y-79481247D01*
X133388094Y-79481247D02*
X133388094Y-79338390D01*
X133388094Y-79338390D02*
X133340475Y-79147914D01*
X133340475Y-79147914D02*
X133292856Y-79052676D01*
X133292856Y-79052676D02*
X133197618Y-78957438D01*
X133197618Y-78957438D02*
X133054761Y-78909819D01*
X133054761Y-78909819D02*
X132959523Y-78909819D01*
X132959523Y-78909819D02*
X132816666Y-78957438D01*
X132816666Y-78957438D02*
X132769047Y-79005057D01*
X132340475Y-79909819D02*
X132340475Y-78909819D01*
X131769047Y-79909819D02*
X132197618Y-79338390D01*
X131769047Y-78909819D02*
X132340475Y-79481247D01*
X130054761Y-78957438D02*
X130149999Y-78909819D01*
X130149999Y-78909819D02*
X130292856Y-78909819D01*
X130292856Y-78909819D02*
X130435713Y-78957438D01*
X130435713Y-78957438D02*
X130530951Y-79052676D01*
X130530951Y-79052676D02*
X130578570Y-79147914D01*
X130578570Y-79147914D02*
X130626189Y-79338390D01*
X130626189Y-79338390D02*
X130626189Y-79481247D01*
X130626189Y-79481247D02*
X130578570Y-79671723D01*
X130578570Y-79671723D02*
X130530951Y-79766961D01*
X130530951Y-79766961D02*
X130435713Y-79862200D01*
X130435713Y-79862200D02*
X130292856Y-79909819D01*
X130292856Y-79909819D02*
X130197618Y-79909819D01*
X130197618Y-79909819D02*
X130054761Y-79862200D01*
X130054761Y-79862200D02*
X130007142Y-79814580D01*
X130007142Y-79814580D02*
X130007142Y-79481247D01*
X130007142Y-79481247D02*
X130197618Y-79481247D01*
X129578570Y-79909819D02*
X129578570Y-78909819D01*
X129578570Y-78909819D02*
X129007142Y-79909819D01*
X129007142Y-79909819D02*
X129007142Y-78909819D01*
X128530951Y-79909819D02*
X128530951Y-78909819D01*
X128530951Y-78909819D02*
X128292856Y-78909819D01*
X128292856Y-78909819D02*
X128149999Y-78957438D01*
X128149999Y-78957438D02*
X128054761Y-79052676D01*
X128054761Y-79052676D02*
X128007142Y-79147914D01*
X128007142Y-79147914D02*
X127959523Y-79338390D01*
X127959523Y-79338390D02*
X127959523Y-79481247D01*
X127959523Y-79481247D02*
X128007142Y-79671723D01*
X128007142Y-79671723D02*
X128054761Y-79766961D01*
X128054761Y-79766961D02*
X128149999Y-79862200D01*
X128149999Y-79862200D02*
X128292856Y-79909819D01*
X128292856Y-79909819D02*
X128530951Y-79909819D01*
X126292856Y-78909819D02*
X126769046Y-78909819D01*
X126769046Y-78909819D02*
X126816665Y-79386009D01*
X126816665Y-79386009D02*
X126769046Y-79338390D01*
X126769046Y-79338390D02*
X126673808Y-79290771D01*
X126673808Y-79290771D02*
X126435713Y-79290771D01*
X126435713Y-79290771D02*
X126340475Y-79338390D01*
X126340475Y-79338390D02*
X126292856Y-79386009D01*
X126292856Y-79386009D02*
X126245237Y-79481247D01*
X126245237Y-79481247D02*
X126245237Y-79719342D01*
X126245237Y-79719342D02*
X126292856Y-79814580D01*
X126292856Y-79814580D02*
X126340475Y-79862200D01*
X126340475Y-79862200D02*
X126435713Y-79909819D01*
X126435713Y-79909819D02*
X126673808Y-79909819D01*
X126673808Y-79909819D02*
X126769046Y-79862200D01*
X126769046Y-79862200D02*
X126816665Y-79814580D01*
X125959522Y-78909819D02*
X125626189Y-79909819D01*
X125626189Y-79909819D02*
X125292856Y-78909819D01*
X166240476Y-78352200D02*
X166097619Y-78399819D01*
X166097619Y-78399819D02*
X165859524Y-78399819D01*
X165859524Y-78399819D02*
X165764286Y-78352200D01*
X165764286Y-78352200D02*
X165716667Y-78304580D01*
X165716667Y-78304580D02*
X165669048Y-78209342D01*
X165669048Y-78209342D02*
X165669048Y-78114104D01*
X165669048Y-78114104D02*
X165716667Y-78018866D01*
X165716667Y-78018866D02*
X165764286Y-77971247D01*
X165764286Y-77971247D02*
X165859524Y-77923628D01*
X165859524Y-77923628D02*
X166050000Y-77876009D01*
X166050000Y-77876009D02*
X166145238Y-77828390D01*
X166145238Y-77828390D02*
X166192857Y-77780771D01*
X166192857Y-77780771D02*
X166240476Y-77685533D01*
X166240476Y-77685533D02*
X166240476Y-77590295D01*
X166240476Y-77590295D02*
X166192857Y-77495057D01*
X166192857Y-77495057D02*
X166145238Y-77447438D01*
X166145238Y-77447438D02*
X166050000Y-77399819D01*
X166050000Y-77399819D02*
X165811905Y-77399819D01*
X165811905Y-77399819D02*
X165669048Y-77447438D01*
X164859524Y-78352200D02*
X164954762Y-78399819D01*
X164954762Y-78399819D02*
X165145238Y-78399819D01*
X165145238Y-78399819D02*
X165240476Y-78352200D01*
X165240476Y-78352200D02*
X165288095Y-78256961D01*
X165288095Y-78256961D02*
X165288095Y-77876009D01*
X165288095Y-77876009D02*
X165240476Y-77780771D01*
X165240476Y-77780771D02*
X165145238Y-77733152D01*
X165145238Y-77733152D02*
X164954762Y-77733152D01*
X164954762Y-77733152D02*
X164859524Y-77780771D01*
X164859524Y-77780771D02*
X164811905Y-77876009D01*
X164811905Y-77876009D02*
X164811905Y-77971247D01*
X164811905Y-77971247D02*
X165288095Y-78066485D01*
X164383333Y-77733152D02*
X164383333Y-78399819D01*
X164383333Y-77828390D02*
X164335714Y-77780771D01*
X164335714Y-77780771D02*
X164240476Y-77733152D01*
X164240476Y-77733152D02*
X164097619Y-77733152D01*
X164097619Y-77733152D02*
X164002381Y-77780771D01*
X164002381Y-77780771D02*
X163954762Y-77876009D01*
X163954762Y-77876009D02*
X163954762Y-78399819D01*
X163526190Y-78352200D02*
X163430952Y-78399819D01*
X163430952Y-78399819D02*
X163240476Y-78399819D01*
X163240476Y-78399819D02*
X163145238Y-78352200D01*
X163145238Y-78352200D02*
X163097619Y-78256961D01*
X163097619Y-78256961D02*
X163097619Y-78209342D01*
X163097619Y-78209342D02*
X163145238Y-78114104D01*
X163145238Y-78114104D02*
X163240476Y-78066485D01*
X163240476Y-78066485D02*
X163383333Y-78066485D01*
X163383333Y-78066485D02*
X163478571Y-78018866D01*
X163478571Y-78018866D02*
X163526190Y-77923628D01*
X163526190Y-77923628D02*
X163526190Y-77876009D01*
X163526190Y-77876009D02*
X163478571Y-77780771D01*
X163478571Y-77780771D02*
X163383333Y-77733152D01*
X163383333Y-77733152D02*
X163240476Y-77733152D01*
X163240476Y-77733152D02*
X163145238Y-77780771D01*
X162526190Y-78399819D02*
X162621428Y-78352200D01*
X162621428Y-78352200D02*
X162669047Y-78304580D01*
X162669047Y-78304580D02*
X162716666Y-78209342D01*
X162716666Y-78209342D02*
X162716666Y-77923628D01*
X162716666Y-77923628D02*
X162669047Y-77828390D01*
X162669047Y-77828390D02*
X162621428Y-77780771D01*
X162621428Y-77780771D02*
X162526190Y-77733152D01*
X162526190Y-77733152D02*
X162383333Y-77733152D01*
X162383333Y-77733152D02*
X162288095Y-77780771D01*
X162288095Y-77780771D02*
X162240476Y-77828390D01*
X162240476Y-77828390D02*
X162192857Y-77923628D01*
X162192857Y-77923628D02*
X162192857Y-78209342D01*
X162192857Y-78209342D02*
X162240476Y-78304580D01*
X162240476Y-78304580D02*
X162288095Y-78352200D01*
X162288095Y-78352200D02*
X162383333Y-78399819D01*
X162383333Y-78399819D02*
X162526190Y-78399819D01*
X161764285Y-78399819D02*
X161764285Y-77733152D01*
X161764285Y-77923628D02*
X161716666Y-77828390D01*
X161716666Y-77828390D02*
X161669047Y-77780771D01*
X161669047Y-77780771D02*
X161573809Y-77733152D01*
X161573809Y-77733152D02*
X161478571Y-77733152D01*
X159859523Y-78399819D02*
X160430951Y-78399819D01*
X160145237Y-78399819D02*
X160145237Y-77399819D01*
X160145237Y-77399819D02*
X160240475Y-77542676D01*
X160240475Y-77542676D02*
X160335713Y-77637914D01*
X160335713Y-77637914D02*
X160430951Y-77685533D01*
X167692857Y-79057438D02*
X167788095Y-79009819D01*
X167788095Y-79009819D02*
X167930952Y-79009819D01*
X167930952Y-79009819D02*
X168073809Y-79057438D01*
X168073809Y-79057438D02*
X168169047Y-79152676D01*
X168169047Y-79152676D02*
X168216666Y-79247914D01*
X168216666Y-79247914D02*
X168264285Y-79438390D01*
X168264285Y-79438390D02*
X168264285Y-79581247D01*
X168264285Y-79581247D02*
X168216666Y-79771723D01*
X168216666Y-79771723D02*
X168169047Y-79866961D01*
X168169047Y-79866961D02*
X168073809Y-79962200D01*
X168073809Y-79962200D02*
X167930952Y-80009819D01*
X167930952Y-80009819D02*
X167835714Y-80009819D01*
X167835714Y-80009819D02*
X167692857Y-79962200D01*
X167692857Y-79962200D02*
X167645238Y-79914580D01*
X167645238Y-79914580D02*
X167645238Y-79581247D01*
X167645238Y-79581247D02*
X167835714Y-79581247D01*
X167216666Y-80009819D02*
X167216666Y-79009819D01*
X167216666Y-79009819D02*
X166645238Y-80009819D01*
X166645238Y-80009819D02*
X166645238Y-79009819D01*
X166169047Y-80009819D02*
X166169047Y-79009819D01*
X166169047Y-79009819D02*
X165930952Y-79009819D01*
X165930952Y-79009819D02*
X165788095Y-79057438D01*
X165788095Y-79057438D02*
X165692857Y-79152676D01*
X165692857Y-79152676D02*
X165645238Y-79247914D01*
X165645238Y-79247914D02*
X165597619Y-79438390D01*
X165597619Y-79438390D02*
X165597619Y-79581247D01*
X165597619Y-79581247D02*
X165645238Y-79771723D01*
X165645238Y-79771723D02*
X165692857Y-79866961D01*
X165692857Y-79866961D02*
X165788095Y-79962200D01*
X165788095Y-79962200D02*
X165930952Y-80009819D01*
X165930952Y-80009819D02*
X166169047Y-80009819D01*
X164502380Y-79009819D02*
X163883333Y-79009819D01*
X163883333Y-79009819D02*
X164216666Y-79390771D01*
X164216666Y-79390771D02*
X164073809Y-79390771D01*
X164073809Y-79390771D02*
X163978571Y-79438390D01*
X163978571Y-79438390D02*
X163930952Y-79486009D01*
X163930952Y-79486009D02*
X163883333Y-79581247D01*
X163883333Y-79581247D02*
X163883333Y-79819342D01*
X163883333Y-79819342D02*
X163930952Y-79914580D01*
X163930952Y-79914580D02*
X163978571Y-79962200D01*
X163978571Y-79962200D02*
X164073809Y-80009819D01*
X164073809Y-80009819D02*
X164359523Y-80009819D01*
X164359523Y-80009819D02*
X164454761Y-79962200D01*
X164454761Y-79962200D02*
X164502380Y-79914580D01*
X163597618Y-79009819D02*
X163264285Y-80009819D01*
X163264285Y-80009819D02*
X162930952Y-79009819D01*
X162692856Y-79009819D02*
X162073809Y-79009819D01*
X162073809Y-79009819D02*
X162407142Y-79390771D01*
X162407142Y-79390771D02*
X162264285Y-79390771D01*
X162264285Y-79390771D02*
X162169047Y-79438390D01*
X162169047Y-79438390D02*
X162121428Y-79486009D01*
X162121428Y-79486009D02*
X162073809Y-79581247D01*
X162073809Y-79581247D02*
X162073809Y-79819342D01*
X162073809Y-79819342D02*
X162121428Y-79914580D01*
X162121428Y-79914580D02*
X162169047Y-79962200D01*
X162169047Y-79962200D02*
X162264285Y-80009819D01*
X162264285Y-80009819D02*
X162549999Y-80009819D01*
X162549999Y-80009819D02*
X162645237Y-79962200D01*
X162645237Y-79962200D02*
X162692856Y-79914580D01*
X160883332Y-80009819D02*
X160883332Y-79009819D01*
X160883332Y-79009819D02*
X160645237Y-79009819D01*
X160645237Y-79009819D02*
X160502380Y-79057438D01*
X160502380Y-79057438D02*
X160407142Y-79152676D01*
X160407142Y-79152676D02*
X160359523Y-79247914D01*
X160359523Y-79247914D02*
X160311904Y-79438390D01*
X160311904Y-79438390D02*
X160311904Y-79581247D01*
X160311904Y-79581247D02*
X160359523Y-79771723D01*
X160359523Y-79771723D02*
X160407142Y-79866961D01*
X160407142Y-79866961D02*
X160502380Y-79962200D01*
X160502380Y-79962200D02*
X160645237Y-80009819D01*
X160645237Y-80009819D02*
X160883332Y-80009819D01*
X159930951Y-79724104D02*
X159454761Y-79724104D01*
X160026189Y-80009819D02*
X159692856Y-79009819D01*
X159692856Y-79009819D02*
X159359523Y-80009819D01*
X159169046Y-79009819D02*
X158597618Y-79009819D01*
X158883332Y-80009819D02*
X158883332Y-79009819D01*
X158311903Y-79724104D02*
X157835713Y-79724104D01*
X158407141Y-80009819D02*
X158073808Y-79009819D01*
X158073808Y-79009819D02*
X157740475Y-80009819D01*
X121833332Y-78399819D02*
X121833332Y-77399819D01*
X121833332Y-77399819D02*
X121452380Y-77399819D01*
X121452380Y-77399819D02*
X121357142Y-77447438D01*
X121357142Y-77447438D02*
X121309523Y-77495057D01*
X121309523Y-77495057D02*
X121261904Y-77590295D01*
X121261904Y-77590295D02*
X121261904Y-77733152D01*
X121261904Y-77733152D02*
X121309523Y-77828390D01*
X121309523Y-77828390D02*
X121357142Y-77876009D01*
X121357142Y-77876009D02*
X121452380Y-77923628D01*
X121452380Y-77923628D02*
X121833332Y-77923628D01*
X120404761Y-77733152D02*
X120404761Y-78399819D01*
X120833332Y-77733152D02*
X120833332Y-78256961D01*
X120833332Y-78256961D02*
X120785713Y-78352200D01*
X120785713Y-78352200D02*
X120690475Y-78399819D01*
X120690475Y-78399819D02*
X120547618Y-78399819D01*
X120547618Y-78399819D02*
X120452380Y-78352200D01*
X120452380Y-78352200D02*
X120404761Y-78304580D01*
X119928570Y-78399819D02*
X119928570Y-77733152D01*
X119928570Y-77828390D02*
X119880951Y-77780771D01*
X119880951Y-77780771D02*
X119785713Y-77733152D01*
X119785713Y-77733152D02*
X119642856Y-77733152D01*
X119642856Y-77733152D02*
X119547618Y-77780771D01*
X119547618Y-77780771D02*
X119499999Y-77876009D01*
X119499999Y-77876009D02*
X119499999Y-78399819D01*
X119499999Y-77876009D02*
X119452380Y-77780771D01*
X119452380Y-77780771D02*
X119357142Y-77733152D01*
X119357142Y-77733152D02*
X119214285Y-77733152D01*
X119214285Y-77733152D02*
X119119046Y-77780771D01*
X119119046Y-77780771D02*
X119071427Y-77876009D01*
X119071427Y-77876009D02*
X119071427Y-78399819D01*
X118595237Y-77733152D02*
X118595237Y-78733152D01*
X118595237Y-77780771D02*
X118499999Y-77733152D01*
X118499999Y-77733152D02*
X118309523Y-77733152D01*
X118309523Y-77733152D02*
X118214285Y-77780771D01*
X118214285Y-77780771D02*
X118166666Y-77828390D01*
X118166666Y-77828390D02*
X118119047Y-77923628D01*
X118119047Y-77923628D02*
X118119047Y-78209342D01*
X118119047Y-78209342D02*
X118166666Y-78304580D01*
X118166666Y-78304580D02*
X118214285Y-78352200D01*
X118214285Y-78352200D02*
X118309523Y-78399819D01*
X118309523Y-78399819D02*
X118499999Y-78399819D01*
X118499999Y-78399819D02*
X118595237Y-78352200D01*
X123095237Y-79105057D02*
X123047618Y-79057438D01*
X123047618Y-79057438D02*
X122952380Y-79009819D01*
X122952380Y-79009819D02*
X122714285Y-79009819D01*
X122714285Y-79009819D02*
X122619047Y-79057438D01*
X122619047Y-79057438D02*
X122571428Y-79105057D01*
X122571428Y-79105057D02*
X122523809Y-79200295D01*
X122523809Y-79200295D02*
X122523809Y-79295533D01*
X122523809Y-79295533D02*
X122571428Y-79438390D01*
X122571428Y-79438390D02*
X123142856Y-80009819D01*
X123142856Y-80009819D02*
X122523809Y-80009819D01*
X121666666Y-79343152D02*
X121666666Y-80009819D01*
X121904761Y-78962200D02*
X122142856Y-79676485D01*
X122142856Y-79676485D02*
X121523809Y-79676485D01*
X121285713Y-79009819D02*
X120952380Y-80009819D01*
X120952380Y-80009819D02*
X120619047Y-79009819D01*
X118999999Y-79057438D02*
X119095237Y-79009819D01*
X119095237Y-79009819D02*
X119238094Y-79009819D01*
X119238094Y-79009819D02*
X119380951Y-79057438D01*
X119380951Y-79057438D02*
X119476189Y-79152676D01*
X119476189Y-79152676D02*
X119523808Y-79247914D01*
X119523808Y-79247914D02*
X119571427Y-79438390D01*
X119571427Y-79438390D02*
X119571427Y-79581247D01*
X119571427Y-79581247D02*
X119523808Y-79771723D01*
X119523808Y-79771723D02*
X119476189Y-79866961D01*
X119476189Y-79866961D02*
X119380951Y-79962200D01*
X119380951Y-79962200D02*
X119238094Y-80009819D01*
X119238094Y-80009819D02*
X119142856Y-80009819D01*
X119142856Y-80009819D02*
X118999999Y-79962200D01*
X118999999Y-79962200D02*
X118952380Y-79914580D01*
X118952380Y-79914580D02*
X118952380Y-79581247D01*
X118952380Y-79581247D02*
X119142856Y-79581247D01*
X118523808Y-80009819D02*
X118523808Y-79009819D01*
X118523808Y-79009819D02*
X117952380Y-80009819D01*
X117952380Y-80009819D02*
X117952380Y-79009819D01*
X117476189Y-80009819D02*
X117476189Y-79009819D01*
X117476189Y-79009819D02*
X117238094Y-79009819D01*
X117238094Y-79009819D02*
X117095237Y-79057438D01*
X117095237Y-79057438D02*
X116999999Y-79152676D01*
X116999999Y-79152676D02*
X116952380Y-79247914D01*
X116952380Y-79247914D02*
X116904761Y-79438390D01*
X116904761Y-79438390D02*
X116904761Y-79581247D01*
X116904761Y-79581247D02*
X116952380Y-79771723D01*
X116952380Y-79771723D02*
X116999999Y-79866961D01*
X116999999Y-79866961D02*
X117095237Y-79962200D01*
X117095237Y-79962200D02*
X117238094Y-80009819D01*
X117238094Y-80009819D02*
X117476189Y-80009819D01*
X174433289Y-115699987D02*
X174385669Y-115795225D01*
X174385669Y-115795225D02*
X174385669Y-115985701D01*
X174385669Y-115985701D02*
X174433289Y-116080939D01*
X174433289Y-116080939D02*
X174528527Y-116128558D01*
X174528527Y-116128558D02*
X174909479Y-116128558D01*
X174909479Y-116128558D02*
X175004717Y-116080939D01*
X175004717Y-116080939D02*
X175052336Y-115985701D01*
X175052336Y-115985701D02*
X175052336Y-115795225D01*
X175052336Y-115795225D02*
X175004717Y-115699987D01*
X175004717Y-115699987D02*
X174909479Y-115652368D01*
X174909479Y-115652368D02*
X174814241Y-115652368D01*
X174814241Y-115652368D02*
X174719003Y-116128558D01*
X174909479Y-114890463D02*
X174909479Y-115223796D01*
X174385669Y-115223796D02*
X175385669Y-115223796D01*
X175385669Y-115223796D02*
X175385669Y-114747606D01*
X175385669Y-114366653D02*
X174576146Y-114366653D01*
X174576146Y-114366653D02*
X174480908Y-114319034D01*
X174480908Y-114319034D02*
X174433289Y-114271415D01*
X174433289Y-114271415D02*
X174385669Y-114176177D01*
X174385669Y-114176177D02*
X174385669Y-113985701D01*
X174385669Y-113985701D02*
X174433289Y-113890463D01*
X174433289Y-113890463D02*
X174480908Y-113842844D01*
X174480908Y-113842844D02*
X174576146Y-113795225D01*
X174576146Y-113795225D02*
X175385669Y-113795225D01*
X174433289Y-113366653D02*
X174385669Y-113223796D01*
X174385669Y-113223796D02*
X174385669Y-112985701D01*
X174385669Y-112985701D02*
X174433289Y-112890463D01*
X174433289Y-112890463D02*
X174480908Y-112842844D01*
X174480908Y-112842844D02*
X174576146Y-112795225D01*
X174576146Y-112795225D02*
X174671384Y-112795225D01*
X174671384Y-112795225D02*
X174766622Y-112842844D01*
X174766622Y-112842844D02*
X174814241Y-112890463D01*
X174814241Y-112890463D02*
X174861860Y-112985701D01*
X174861860Y-112985701D02*
X174909479Y-113176177D01*
X174909479Y-113176177D02*
X174957098Y-113271415D01*
X174957098Y-113271415D02*
X175004717Y-113319034D01*
X175004717Y-113319034D02*
X175099955Y-113366653D01*
X175099955Y-113366653D02*
X175195193Y-113366653D01*
X175195193Y-113366653D02*
X175290431Y-113319034D01*
X175290431Y-113319034D02*
X175338050Y-113271415D01*
X175338050Y-113271415D02*
X175385669Y-113176177D01*
X175385669Y-113176177D02*
X175385669Y-112938082D01*
X175385669Y-112938082D02*
X175338050Y-112795225D01*
X174909479Y-112366653D02*
X174909479Y-112033320D01*
X174385669Y-111890463D02*
X174385669Y-112366653D01*
X174385669Y-112366653D02*
X175385669Y-112366653D01*
X175385669Y-112366653D02*
X175385669Y-111890463D01*
X187897800Y-117990476D02*
X187850180Y-117847619D01*
X187850180Y-117847619D02*
X187850180Y-117609524D01*
X187850180Y-117609524D02*
X187897800Y-117514286D01*
X187897800Y-117514286D02*
X187945419Y-117466667D01*
X187945419Y-117466667D02*
X188040657Y-117419048D01*
X188040657Y-117419048D02*
X188135895Y-117419048D01*
X188135895Y-117419048D02*
X188231133Y-117466667D01*
X188231133Y-117466667D02*
X188278752Y-117514286D01*
X188278752Y-117514286D02*
X188326371Y-117609524D01*
X188326371Y-117609524D02*
X188373990Y-117800000D01*
X188373990Y-117800000D02*
X188421609Y-117895238D01*
X188421609Y-117895238D02*
X188469228Y-117942857D01*
X188469228Y-117942857D02*
X188564466Y-117990476D01*
X188564466Y-117990476D02*
X188659704Y-117990476D01*
X188659704Y-117990476D02*
X188754942Y-117942857D01*
X188754942Y-117942857D02*
X188802561Y-117895238D01*
X188802561Y-117895238D02*
X188850180Y-117800000D01*
X188850180Y-117800000D02*
X188850180Y-117561905D01*
X188850180Y-117561905D02*
X188802561Y-117419048D01*
X187897800Y-116609524D02*
X187850180Y-116704762D01*
X187850180Y-116704762D02*
X187850180Y-116895238D01*
X187850180Y-116895238D02*
X187897800Y-116990476D01*
X187897800Y-116990476D02*
X187993038Y-117038095D01*
X187993038Y-117038095D02*
X188373990Y-117038095D01*
X188373990Y-117038095D02*
X188469228Y-116990476D01*
X188469228Y-116990476D02*
X188516847Y-116895238D01*
X188516847Y-116895238D02*
X188516847Y-116704762D01*
X188516847Y-116704762D02*
X188469228Y-116609524D01*
X188469228Y-116609524D02*
X188373990Y-116561905D01*
X188373990Y-116561905D02*
X188278752Y-116561905D01*
X188278752Y-116561905D02*
X188183514Y-117038095D01*
X188516847Y-116133333D02*
X187850180Y-116133333D01*
X188421609Y-116133333D02*
X188469228Y-116085714D01*
X188469228Y-116085714D02*
X188516847Y-115990476D01*
X188516847Y-115990476D02*
X188516847Y-115847619D01*
X188516847Y-115847619D02*
X188469228Y-115752381D01*
X188469228Y-115752381D02*
X188373990Y-115704762D01*
X188373990Y-115704762D02*
X187850180Y-115704762D01*
X187897800Y-115276190D02*
X187850180Y-115180952D01*
X187850180Y-115180952D02*
X187850180Y-114990476D01*
X187850180Y-114990476D02*
X187897800Y-114895238D01*
X187897800Y-114895238D02*
X187993038Y-114847619D01*
X187993038Y-114847619D02*
X188040657Y-114847619D01*
X188040657Y-114847619D02*
X188135895Y-114895238D01*
X188135895Y-114895238D02*
X188183514Y-114990476D01*
X188183514Y-114990476D02*
X188183514Y-115133333D01*
X188183514Y-115133333D02*
X188231133Y-115228571D01*
X188231133Y-115228571D02*
X188326371Y-115276190D01*
X188326371Y-115276190D02*
X188373990Y-115276190D01*
X188373990Y-115276190D02*
X188469228Y-115228571D01*
X188469228Y-115228571D02*
X188516847Y-115133333D01*
X188516847Y-115133333D02*
X188516847Y-114990476D01*
X188516847Y-114990476D02*
X188469228Y-114895238D01*
X187850180Y-114276190D02*
X187897800Y-114371428D01*
X187897800Y-114371428D02*
X187945419Y-114419047D01*
X187945419Y-114419047D02*
X188040657Y-114466666D01*
X188040657Y-114466666D02*
X188326371Y-114466666D01*
X188326371Y-114466666D02*
X188421609Y-114419047D01*
X188421609Y-114419047D02*
X188469228Y-114371428D01*
X188469228Y-114371428D02*
X188516847Y-114276190D01*
X188516847Y-114276190D02*
X188516847Y-114133333D01*
X188516847Y-114133333D02*
X188469228Y-114038095D01*
X188469228Y-114038095D02*
X188421609Y-113990476D01*
X188421609Y-113990476D02*
X188326371Y-113942857D01*
X188326371Y-113942857D02*
X188040657Y-113942857D01*
X188040657Y-113942857D02*
X187945419Y-113990476D01*
X187945419Y-113990476D02*
X187897800Y-114038095D01*
X187897800Y-114038095D02*
X187850180Y-114133333D01*
X187850180Y-114133333D02*
X187850180Y-114276190D01*
X187850180Y-113514285D02*
X188516847Y-113514285D01*
X188326371Y-113514285D02*
X188421609Y-113466666D01*
X188421609Y-113466666D02*
X188469228Y-113419047D01*
X188469228Y-113419047D02*
X188516847Y-113323809D01*
X188516847Y-113323809D02*
X188516847Y-113228571D01*
X188850180Y-111657142D02*
X188850180Y-112133332D01*
X188850180Y-112133332D02*
X188373990Y-112180951D01*
X188373990Y-112180951D02*
X188421609Y-112133332D01*
X188421609Y-112133332D02*
X188469228Y-112038094D01*
X188469228Y-112038094D02*
X188469228Y-111799999D01*
X188469228Y-111799999D02*
X188421609Y-111704761D01*
X188421609Y-111704761D02*
X188373990Y-111657142D01*
X188373990Y-111657142D02*
X188278752Y-111609523D01*
X188278752Y-111609523D02*
X188040657Y-111609523D01*
X188040657Y-111609523D02*
X187945419Y-111657142D01*
X187945419Y-111657142D02*
X187897800Y-111704761D01*
X187897800Y-111704761D02*
X187850180Y-111799999D01*
X187850180Y-111799999D02*
X187850180Y-112038094D01*
X187850180Y-112038094D02*
X187897800Y-112133332D01*
X187897800Y-112133332D02*
X187945419Y-112180951D01*
X187192561Y-119442857D02*
X187240180Y-119538095D01*
X187240180Y-119538095D02*
X187240180Y-119680952D01*
X187240180Y-119680952D02*
X187192561Y-119823809D01*
X187192561Y-119823809D02*
X187097323Y-119919047D01*
X187097323Y-119919047D02*
X187002085Y-119966666D01*
X187002085Y-119966666D02*
X186811609Y-120014285D01*
X186811609Y-120014285D02*
X186668752Y-120014285D01*
X186668752Y-120014285D02*
X186478276Y-119966666D01*
X186478276Y-119966666D02*
X186383038Y-119919047D01*
X186383038Y-119919047D02*
X186287800Y-119823809D01*
X186287800Y-119823809D02*
X186240180Y-119680952D01*
X186240180Y-119680952D02*
X186240180Y-119585714D01*
X186240180Y-119585714D02*
X186287800Y-119442857D01*
X186287800Y-119442857D02*
X186335419Y-119395238D01*
X186335419Y-119395238D02*
X186668752Y-119395238D01*
X186668752Y-119395238D02*
X186668752Y-119585714D01*
X186240180Y-118966666D02*
X187240180Y-118966666D01*
X187240180Y-118966666D02*
X186240180Y-118395238D01*
X186240180Y-118395238D02*
X187240180Y-118395238D01*
X186240180Y-117919047D02*
X187240180Y-117919047D01*
X187240180Y-117919047D02*
X187240180Y-117680952D01*
X187240180Y-117680952D02*
X187192561Y-117538095D01*
X187192561Y-117538095D02*
X187097323Y-117442857D01*
X187097323Y-117442857D02*
X187002085Y-117395238D01*
X187002085Y-117395238D02*
X186811609Y-117347619D01*
X186811609Y-117347619D02*
X186668752Y-117347619D01*
X186668752Y-117347619D02*
X186478276Y-117395238D01*
X186478276Y-117395238D02*
X186383038Y-117442857D01*
X186383038Y-117442857D02*
X186287800Y-117538095D01*
X186287800Y-117538095D02*
X186240180Y-117680952D01*
X186240180Y-117680952D02*
X186240180Y-117919047D01*
X187240180Y-116252380D02*
X187240180Y-115633333D01*
X187240180Y-115633333D02*
X186859228Y-115966666D01*
X186859228Y-115966666D02*
X186859228Y-115823809D01*
X186859228Y-115823809D02*
X186811609Y-115728571D01*
X186811609Y-115728571D02*
X186763990Y-115680952D01*
X186763990Y-115680952D02*
X186668752Y-115633333D01*
X186668752Y-115633333D02*
X186430657Y-115633333D01*
X186430657Y-115633333D02*
X186335419Y-115680952D01*
X186335419Y-115680952D02*
X186287800Y-115728571D01*
X186287800Y-115728571D02*
X186240180Y-115823809D01*
X186240180Y-115823809D02*
X186240180Y-116109523D01*
X186240180Y-116109523D02*
X186287800Y-116204761D01*
X186287800Y-116204761D02*
X186335419Y-116252380D01*
X187240180Y-115347618D02*
X186240180Y-115014285D01*
X186240180Y-115014285D02*
X187240180Y-114680952D01*
X187240180Y-114442856D02*
X187240180Y-113823809D01*
X187240180Y-113823809D02*
X186859228Y-114157142D01*
X186859228Y-114157142D02*
X186859228Y-114014285D01*
X186859228Y-114014285D02*
X186811609Y-113919047D01*
X186811609Y-113919047D02*
X186763990Y-113871428D01*
X186763990Y-113871428D02*
X186668752Y-113823809D01*
X186668752Y-113823809D02*
X186430657Y-113823809D01*
X186430657Y-113823809D02*
X186335419Y-113871428D01*
X186335419Y-113871428D02*
X186287800Y-113919047D01*
X186287800Y-113919047D02*
X186240180Y-114014285D01*
X186240180Y-114014285D02*
X186240180Y-114299999D01*
X186240180Y-114299999D02*
X186287800Y-114395237D01*
X186287800Y-114395237D02*
X186335419Y-114442856D01*
X186240180Y-112633332D02*
X187240180Y-112633332D01*
X187240180Y-112633332D02*
X187240180Y-112395237D01*
X187240180Y-112395237D02*
X187192561Y-112252380D01*
X187192561Y-112252380D02*
X187097323Y-112157142D01*
X187097323Y-112157142D02*
X187002085Y-112109523D01*
X187002085Y-112109523D02*
X186811609Y-112061904D01*
X186811609Y-112061904D02*
X186668752Y-112061904D01*
X186668752Y-112061904D02*
X186478276Y-112109523D01*
X186478276Y-112109523D02*
X186383038Y-112157142D01*
X186383038Y-112157142D02*
X186287800Y-112252380D01*
X186287800Y-112252380D02*
X186240180Y-112395237D01*
X186240180Y-112395237D02*
X186240180Y-112633332D01*
X186525895Y-111680951D02*
X186525895Y-111204761D01*
X186240180Y-111776189D02*
X187240180Y-111442856D01*
X187240180Y-111442856D02*
X186240180Y-111109523D01*
X187240180Y-110919046D02*
X187240180Y-110347618D01*
X186240180Y-110633332D02*
X187240180Y-110633332D01*
X186525895Y-110061903D02*
X186525895Y-109585713D01*
X186240180Y-110157141D02*
X187240180Y-109823808D01*
X187240180Y-109823808D02*
X186240180Y-109490475D01*
X181390669Y-119899986D02*
X182390669Y-119899986D01*
X182390669Y-119899986D02*
X181390669Y-119328558D01*
X181390669Y-119328558D02*
X182390669Y-119328558D01*
X182390669Y-118661891D02*
X182390669Y-118471415D01*
X182390669Y-118471415D02*
X182343050Y-118376177D01*
X182343050Y-118376177D02*
X182247812Y-118280939D01*
X182247812Y-118280939D02*
X182057336Y-118233320D01*
X182057336Y-118233320D02*
X181724003Y-118233320D01*
X181724003Y-118233320D02*
X181533527Y-118280939D01*
X181533527Y-118280939D02*
X181438289Y-118376177D01*
X181438289Y-118376177D02*
X181390669Y-118471415D01*
X181390669Y-118471415D02*
X181390669Y-118661891D01*
X181390669Y-118661891D02*
X181438289Y-118757129D01*
X181438289Y-118757129D02*
X181533527Y-118852367D01*
X181533527Y-118852367D02*
X181724003Y-118899986D01*
X181724003Y-118899986D02*
X182057336Y-118899986D01*
X182057336Y-118899986D02*
X182247812Y-118852367D01*
X182247812Y-118852367D02*
X182343050Y-118757129D01*
X182343050Y-118757129D02*
X182390669Y-118661891D01*
X182390669Y-117947605D02*
X182390669Y-117376177D01*
X181390669Y-117661891D02*
X182390669Y-117661891D01*
X179780669Y-121947605D02*
X180780669Y-121947605D01*
X180780669Y-121947605D02*
X180066384Y-121614272D01*
X180066384Y-121614272D02*
X180780669Y-121280939D01*
X180780669Y-121280939D02*
X179780669Y-121280939D01*
X180780669Y-120614272D02*
X180780669Y-120423796D01*
X180780669Y-120423796D02*
X180733050Y-120328558D01*
X180733050Y-120328558D02*
X180637812Y-120233320D01*
X180637812Y-120233320D02*
X180447336Y-120185701D01*
X180447336Y-120185701D02*
X180114003Y-120185701D01*
X180114003Y-120185701D02*
X179923527Y-120233320D01*
X179923527Y-120233320D02*
X179828289Y-120328558D01*
X179828289Y-120328558D02*
X179780669Y-120423796D01*
X179780669Y-120423796D02*
X179780669Y-120614272D01*
X179780669Y-120614272D02*
X179828289Y-120709510D01*
X179828289Y-120709510D02*
X179923527Y-120804748D01*
X179923527Y-120804748D02*
X180114003Y-120852367D01*
X180114003Y-120852367D02*
X180447336Y-120852367D01*
X180447336Y-120852367D02*
X180637812Y-120804748D01*
X180637812Y-120804748D02*
X180733050Y-120709510D01*
X180733050Y-120709510D02*
X180780669Y-120614272D01*
X180780669Y-119757129D02*
X179971146Y-119757129D01*
X179971146Y-119757129D02*
X179875908Y-119709510D01*
X179875908Y-119709510D02*
X179828289Y-119661891D01*
X179828289Y-119661891D02*
X179780669Y-119566653D01*
X179780669Y-119566653D02*
X179780669Y-119376177D01*
X179780669Y-119376177D02*
X179828289Y-119280939D01*
X179828289Y-119280939D02*
X179875908Y-119233320D01*
X179875908Y-119233320D02*
X179971146Y-119185701D01*
X179971146Y-119185701D02*
X180780669Y-119185701D01*
X179780669Y-118709510D02*
X180780669Y-118709510D01*
X180780669Y-118709510D02*
X179780669Y-118138082D01*
X179780669Y-118138082D02*
X180780669Y-118138082D01*
X180780669Y-117804748D02*
X180780669Y-117233320D01*
X179780669Y-117519034D02*
X180780669Y-117519034D01*
X180304479Y-116899986D02*
X180304479Y-116566653D01*
X179780669Y-116423796D02*
X179780669Y-116899986D01*
X179780669Y-116899986D02*
X180780669Y-116899986D01*
X180780669Y-116899986D02*
X180780669Y-116423796D01*
X179780669Y-115995224D02*
X180780669Y-115995224D01*
X180780669Y-115995224D02*
X180780669Y-115757129D01*
X180780669Y-115757129D02*
X180733050Y-115614272D01*
X180733050Y-115614272D02*
X180637812Y-115519034D01*
X180637812Y-115519034D02*
X180542574Y-115471415D01*
X180542574Y-115471415D02*
X180352098Y-115423796D01*
X180352098Y-115423796D02*
X180209241Y-115423796D01*
X180209241Y-115423796D02*
X180018765Y-115471415D01*
X180018765Y-115471415D02*
X179923527Y-115519034D01*
X179923527Y-115519034D02*
X179828289Y-115614272D01*
X179828289Y-115614272D02*
X179780669Y-115757129D01*
X179780669Y-115757129D02*
X179780669Y-115995224D01*
X177690476Y-139102200D02*
X177547619Y-139149819D01*
X177547619Y-139149819D02*
X177309524Y-139149819D01*
X177309524Y-139149819D02*
X177214286Y-139102200D01*
X177214286Y-139102200D02*
X177166667Y-139054580D01*
X177166667Y-139054580D02*
X177119048Y-138959342D01*
X177119048Y-138959342D02*
X177119048Y-138864104D01*
X177119048Y-138864104D02*
X177166667Y-138768866D01*
X177166667Y-138768866D02*
X177214286Y-138721247D01*
X177214286Y-138721247D02*
X177309524Y-138673628D01*
X177309524Y-138673628D02*
X177500000Y-138626009D01*
X177500000Y-138626009D02*
X177595238Y-138578390D01*
X177595238Y-138578390D02*
X177642857Y-138530771D01*
X177642857Y-138530771D02*
X177690476Y-138435533D01*
X177690476Y-138435533D02*
X177690476Y-138340295D01*
X177690476Y-138340295D02*
X177642857Y-138245057D01*
X177642857Y-138245057D02*
X177595238Y-138197438D01*
X177595238Y-138197438D02*
X177500000Y-138149819D01*
X177500000Y-138149819D02*
X177261905Y-138149819D01*
X177261905Y-138149819D02*
X177119048Y-138197438D01*
X176309524Y-139102200D02*
X176404762Y-139149819D01*
X176404762Y-139149819D02*
X176595238Y-139149819D01*
X176595238Y-139149819D02*
X176690476Y-139102200D01*
X176690476Y-139102200D02*
X176738095Y-139006961D01*
X176738095Y-139006961D02*
X176738095Y-138626009D01*
X176738095Y-138626009D02*
X176690476Y-138530771D01*
X176690476Y-138530771D02*
X176595238Y-138483152D01*
X176595238Y-138483152D02*
X176404762Y-138483152D01*
X176404762Y-138483152D02*
X176309524Y-138530771D01*
X176309524Y-138530771D02*
X176261905Y-138626009D01*
X176261905Y-138626009D02*
X176261905Y-138721247D01*
X176261905Y-138721247D02*
X176738095Y-138816485D01*
X175833333Y-138483152D02*
X175833333Y-139149819D01*
X175833333Y-138578390D02*
X175785714Y-138530771D01*
X175785714Y-138530771D02*
X175690476Y-138483152D01*
X175690476Y-138483152D02*
X175547619Y-138483152D01*
X175547619Y-138483152D02*
X175452381Y-138530771D01*
X175452381Y-138530771D02*
X175404762Y-138626009D01*
X175404762Y-138626009D02*
X175404762Y-139149819D01*
X174976190Y-139102200D02*
X174880952Y-139149819D01*
X174880952Y-139149819D02*
X174690476Y-139149819D01*
X174690476Y-139149819D02*
X174595238Y-139102200D01*
X174595238Y-139102200D02*
X174547619Y-139006961D01*
X174547619Y-139006961D02*
X174547619Y-138959342D01*
X174547619Y-138959342D02*
X174595238Y-138864104D01*
X174595238Y-138864104D02*
X174690476Y-138816485D01*
X174690476Y-138816485D02*
X174833333Y-138816485D01*
X174833333Y-138816485D02*
X174928571Y-138768866D01*
X174928571Y-138768866D02*
X174976190Y-138673628D01*
X174976190Y-138673628D02*
X174976190Y-138626009D01*
X174976190Y-138626009D02*
X174928571Y-138530771D01*
X174928571Y-138530771D02*
X174833333Y-138483152D01*
X174833333Y-138483152D02*
X174690476Y-138483152D01*
X174690476Y-138483152D02*
X174595238Y-138530771D01*
X173976190Y-139149819D02*
X174071428Y-139102200D01*
X174071428Y-139102200D02*
X174119047Y-139054580D01*
X174119047Y-139054580D02*
X174166666Y-138959342D01*
X174166666Y-138959342D02*
X174166666Y-138673628D01*
X174166666Y-138673628D02*
X174119047Y-138578390D01*
X174119047Y-138578390D02*
X174071428Y-138530771D01*
X174071428Y-138530771D02*
X173976190Y-138483152D01*
X173976190Y-138483152D02*
X173833333Y-138483152D01*
X173833333Y-138483152D02*
X173738095Y-138530771D01*
X173738095Y-138530771D02*
X173690476Y-138578390D01*
X173690476Y-138578390D02*
X173642857Y-138673628D01*
X173642857Y-138673628D02*
X173642857Y-138959342D01*
X173642857Y-138959342D02*
X173690476Y-139054580D01*
X173690476Y-139054580D02*
X173738095Y-139102200D01*
X173738095Y-139102200D02*
X173833333Y-139149819D01*
X173833333Y-139149819D02*
X173976190Y-139149819D01*
X173214285Y-139149819D02*
X173214285Y-138483152D01*
X173214285Y-138673628D02*
X173166666Y-138578390D01*
X173166666Y-138578390D02*
X173119047Y-138530771D01*
X173119047Y-138530771D02*
X173023809Y-138483152D01*
X173023809Y-138483152D02*
X172928571Y-138483152D01*
X171928570Y-138149819D02*
X171261904Y-138149819D01*
X171261904Y-138149819D02*
X171690475Y-139149819D01*
X179666666Y-140759819D02*
X179666666Y-139759819D01*
X179666666Y-139759819D02*
X179428571Y-139759819D01*
X179428571Y-139759819D02*
X179285714Y-139807438D01*
X179285714Y-139807438D02*
X179190476Y-139902676D01*
X179190476Y-139902676D02*
X179142857Y-139997914D01*
X179142857Y-139997914D02*
X179095238Y-140188390D01*
X179095238Y-140188390D02*
X179095238Y-140331247D01*
X179095238Y-140331247D02*
X179142857Y-140521723D01*
X179142857Y-140521723D02*
X179190476Y-140616961D01*
X179190476Y-140616961D02*
X179285714Y-140712200D01*
X179285714Y-140712200D02*
X179428571Y-140759819D01*
X179428571Y-140759819D02*
X179666666Y-140759819D01*
X178714285Y-140474104D02*
X178238095Y-140474104D01*
X178809523Y-140759819D02*
X178476190Y-139759819D01*
X178476190Y-139759819D02*
X178142857Y-140759819D01*
X177952380Y-139759819D02*
X177380952Y-139759819D01*
X177666666Y-140759819D02*
X177666666Y-139759819D01*
X177095237Y-140474104D02*
X176619047Y-140474104D01*
X177190475Y-140759819D02*
X176857142Y-139759819D01*
X176857142Y-139759819D02*
X176523809Y-140759819D01*
X175523808Y-139759819D02*
X174904761Y-139759819D01*
X174904761Y-139759819D02*
X175238094Y-140140771D01*
X175238094Y-140140771D02*
X175095237Y-140140771D01*
X175095237Y-140140771D02*
X174999999Y-140188390D01*
X174999999Y-140188390D02*
X174952380Y-140236009D01*
X174952380Y-140236009D02*
X174904761Y-140331247D01*
X174904761Y-140331247D02*
X174904761Y-140569342D01*
X174904761Y-140569342D02*
X174952380Y-140664580D01*
X174952380Y-140664580D02*
X174999999Y-140712200D01*
X174999999Y-140712200D02*
X175095237Y-140759819D01*
X175095237Y-140759819D02*
X175380951Y-140759819D01*
X175380951Y-140759819D02*
X175476189Y-140712200D01*
X175476189Y-140712200D02*
X175523808Y-140664580D01*
X174619046Y-139759819D02*
X174285713Y-140759819D01*
X174285713Y-140759819D02*
X173952380Y-139759819D01*
X173714284Y-139759819D02*
X173095237Y-139759819D01*
X173095237Y-139759819D02*
X173428570Y-140140771D01*
X173428570Y-140140771D02*
X173285713Y-140140771D01*
X173285713Y-140140771D02*
X173190475Y-140188390D01*
X173190475Y-140188390D02*
X173142856Y-140236009D01*
X173142856Y-140236009D02*
X173095237Y-140331247D01*
X173095237Y-140331247D02*
X173095237Y-140569342D01*
X173095237Y-140569342D02*
X173142856Y-140664580D01*
X173142856Y-140664580D02*
X173190475Y-140712200D01*
X173190475Y-140712200D02*
X173285713Y-140759819D01*
X173285713Y-140759819D02*
X173571427Y-140759819D01*
X173571427Y-140759819D02*
X173666665Y-140712200D01*
X173666665Y-140712200D02*
X173714284Y-140664580D01*
X171380951Y-139807438D02*
X171476189Y-139759819D01*
X171476189Y-139759819D02*
X171619046Y-139759819D01*
X171619046Y-139759819D02*
X171761903Y-139807438D01*
X171761903Y-139807438D02*
X171857141Y-139902676D01*
X171857141Y-139902676D02*
X171904760Y-139997914D01*
X171904760Y-139997914D02*
X171952379Y-140188390D01*
X171952379Y-140188390D02*
X171952379Y-140331247D01*
X171952379Y-140331247D02*
X171904760Y-140521723D01*
X171904760Y-140521723D02*
X171857141Y-140616961D01*
X171857141Y-140616961D02*
X171761903Y-140712200D01*
X171761903Y-140712200D02*
X171619046Y-140759819D01*
X171619046Y-140759819D02*
X171523808Y-140759819D01*
X171523808Y-140759819D02*
X171380951Y-140712200D01*
X171380951Y-140712200D02*
X171333332Y-140664580D01*
X171333332Y-140664580D02*
X171333332Y-140331247D01*
X171333332Y-140331247D02*
X171523808Y-140331247D01*
X170904760Y-140759819D02*
X170904760Y-139759819D01*
X170904760Y-139759819D02*
X170333332Y-140759819D01*
X170333332Y-140759819D02*
X170333332Y-139759819D01*
X169857141Y-140759819D02*
X169857141Y-139759819D01*
X169857141Y-139759819D02*
X169619046Y-139759819D01*
X169619046Y-139759819D02*
X169476189Y-139807438D01*
X169476189Y-139807438D02*
X169380951Y-139902676D01*
X169380951Y-139902676D02*
X169333332Y-139997914D01*
X169333332Y-139997914D02*
X169285713Y-140188390D01*
X169285713Y-140188390D02*
X169285713Y-140331247D01*
X169285713Y-140331247D02*
X169333332Y-140521723D01*
X169333332Y-140521723D02*
X169380951Y-140616961D01*
X169380951Y-140616961D02*
X169476189Y-140712200D01*
X169476189Y-140712200D02*
X169619046Y-140759819D01*
X169619046Y-140759819D02*
X169857141Y-140759819D01*
X187897800Y-106540476D02*
X187850180Y-106397619D01*
X187850180Y-106397619D02*
X187850180Y-106159524D01*
X187850180Y-106159524D02*
X187897800Y-106064286D01*
X187897800Y-106064286D02*
X187945419Y-106016667D01*
X187945419Y-106016667D02*
X188040657Y-105969048D01*
X188040657Y-105969048D02*
X188135895Y-105969048D01*
X188135895Y-105969048D02*
X188231133Y-106016667D01*
X188231133Y-106016667D02*
X188278752Y-106064286D01*
X188278752Y-106064286D02*
X188326371Y-106159524D01*
X188326371Y-106159524D02*
X188373990Y-106350000D01*
X188373990Y-106350000D02*
X188421609Y-106445238D01*
X188421609Y-106445238D02*
X188469228Y-106492857D01*
X188469228Y-106492857D02*
X188564466Y-106540476D01*
X188564466Y-106540476D02*
X188659704Y-106540476D01*
X188659704Y-106540476D02*
X188754942Y-106492857D01*
X188754942Y-106492857D02*
X188802561Y-106445238D01*
X188802561Y-106445238D02*
X188850180Y-106350000D01*
X188850180Y-106350000D02*
X188850180Y-106111905D01*
X188850180Y-106111905D02*
X188802561Y-105969048D01*
X187897800Y-105159524D02*
X187850180Y-105254762D01*
X187850180Y-105254762D02*
X187850180Y-105445238D01*
X187850180Y-105445238D02*
X187897800Y-105540476D01*
X187897800Y-105540476D02*
X187993038Y-105588095D01*
X187993038Y-105588095D02*
X188373990Y-105588095D01*
X188373990Y-105588095D02*
X188469228Y-105540476D01*
X188469228Y-105540476D02*
X188516847Y-105445238D01*
X188516847Y-105445238D02*
X188516847Y-105254762D01*
X188516847Y-105254762D02*
X188469228Y-105159524D01*
X188469228Y-105159524D02*
X188373990Y-105111905D01*
X188373990Y-105111905D02*
X188278752Y-105111905D01*
X188278752Y-105111905D02*
X188183514Y-105588095D01*
X188516847Y-104683333D02*
X187850180Y-104683333D01*
X188421609Y-104683333D02*
X188469228Y-104635714D01*
X188469228Y-104635714D02*
X188516847Y-104540476D01*
X188516847Y-104540476D02*
X188516847Y-104397619D01*
X188516847Y-104397619D02*
X188469228Y-104302381D01*
X188469228Y-104302381D02*
X188373990Y-104254762D01*
X188373990Y-104254762D02*
X187850180Y-104254762D01*
X187897800Y-103826190D02*
X187850180Y-103730952D01*
X187850180Y-103730952D02*
X187850180Y-103540476D01*
X187850180Y-103540476D02*
X187897800Y-103445238D01*
X187897800Y-103445238D02*
X187993038Y-103397619D01*
X187993038Y-103397619D02*
X188040657Y-103397619D01*
X188040657Y-103397619D02*
X188135895Y-103445238D01*
X188135895Y-103445238D02*
X188183514Y-103540476D01*
X188183514Y-103540476D02*
X188183514Y-103683333D01*
X188183514Y-103683333D02*
X188231133Y-103778571D01*
X188231133Y-103778571D02*
X188326371Y-103826190D01*
X188326371Y-103826190D02*
X188373990Y-103826190D01*
X188373990Y-103826190D02*
X188469228Y-103778571D01*
X188469228Y-103778571D02*
X188516847Y-103683333D01*
X188516847Y-103683333D02*
X188516847Y-103540476D01*
X188516847Y-103540476D02*
X188469228Y-103445238D01*
X187850180Y-102826190D02*
X187897800Y-102921428D01*
X187897800Y-102921428D02*
X187945419Y-102969047D01*
X187945419Y-102969047D02*
X188040657Y-103016666D01*
X188040657Y-103016666D02*
X188326371Y-103016666D01*
X188326371Y-103016666D02*
X188421609Y-102969047D01*
X188421609Y-102969047D02*
X188469228Y-102921428D01*
X188469228Y-102921428D02*
X188516847Y-102826190D01*
X188516847Y-102826190D02*
X188516847Y-102683333D01*
X188516847Y-102683333D02*
X188469228Y-102588095D01*
X188469228Y-102588095D02*
X188421609Y-102540476D01*
X188421609Y-102540476D02*
X188326371Y-102492857D01*
X188326371Y-102492857D02*
X188040657Y-102492857D01*
X188040657Y-102492857D02*
X187945419Y-102540476D01*
X187945419Y-102540476D02*
X187897800Y-102588095D01*
X187897800Y-102588095D02*
X187850180Y-102683333D01*
X187850180Y-102683333D02*
X187850180Y-102826190D01*
X187850180Y-102064285D02*
X188516847Y-102064285D01*
X188326371Y-102064285D02*
X188421609Y-102016666D01*
X188421609Y-102016666D02*
X188469228Y-101969047D01*
X188469228Y-101969047D02*
X188516847Y-101873809D01*
X188516847Y-101873809D02*
X188516847Y-101778571D01*
X188516847Y-100254761D02*
X187850180Y-100254761D01*
X188897800Y-100492856D02*
X188183514Y-100730951D01*
X188183514Y-100730951D02*
X188183514Y-100111904D01*
X187192561Y-107992857D02*
X187240180Y-108088095D01*
X187240180Y-108088095D02*
X187240180Y-108230952D01*
X187240180Y-108230952D02*
X187192561Y-108373809D01*
X187192561Y-108373809D02*
X187097323Y-108469047D01*
X187097323Y-108469047D02*
X187002085Y-108516666D01*
X187002085Y-108516666D02*
X186811609Y-108564285D01*
X186811609Y-108564285D02*
X186668752Y-108564285D01*
X186668752Y-108564285D02*
X186478276Y-108516666D01*
X186478276Y-108516666D02*
X186383038Y-108469047D01*
X186383038Y-108469047D02*
X186287800Y-108373809D01*
X186287800Y-108373809D02*
X186240180Y-108230952D01*
X186240180Y-108230952D02*
X186240180Y-108135714D01*
X186240180Y-108135714D02*
X186287800Y-107992857D01*
X186287800Y-107992857D02*
X186335419Y-107945238D01*
X186335419Y-107945238D02*
X186668752Y-107945238D01*
X186668752Y-107945238D02*
X186668752Y-108135714D01*
X186240180Y-107516666D02*
X187240180Y-107516666D01*
X187240180Y-107516666D02*
X186240180Y-106945238D01*
X186240180Y-106945238D02*
X187240180Y-106945238D01*
X186240180Y-106469047D02*
X187240180Y-106469047D01*
X187240180Y-106469047D02*
X187240180Y-106230952D01*
X187240180Y-106230952D02*
X187192561Y-106088095D01*
X187192561Y-106088095D02*
X187097323Y-105992857D01*
X187097323Y-105992857D02*
X187002085Y-105945238D01*
X187002085Y-105945238D02*
X186811609Y-105897619D01*
X186811609Y-105897619D02*
X186668752Y-105897619D01*
X186668752Y-105897619D02*
X186478276Y-105945238D01*
X186478276Y-105945238D02*
X186383038Y-105992857D01*
X186383038Y-105992857D02*
X186287800Y-106088095D01*
X186287800Y-106088095D02*
X186240180Y-106230952D01*
X186240180Y-106230952D02*
X186240180Y-106469047D01*
X187240180Y-104802380D02*
X187240180Y-104183333D01*
X187240180Y-104183333D02*
X186859228Y-104516666D01*
X186859228Y-104516666D02*
X186859228Y-104373809D01*
X186859228Y-104373809D02*
X186811609Y-104278571D01*
X186811609Y-104278571D02*
X186763990Y-104230952D01*
X186763990Y-104230952D02*
X186668752Y-104183333D01*
X186668752Y-104183333D02*
X186430657Y-104183333D01*
X186430657Y-104183333D02*
X186335419Y-104230952D01*
X186335419Y-104230952D02*
X186287800Y-104278571D01*
X186287800Y-104278571D02*
X186240180Y-104373809D01*
X186240180Y-104373809D02*
X186240180Y-104659523D01*
X186240180Y-104659523D02*
X186287800Y-104754761D01*
X186287800Y-104754761D02*
X186335419Y-104802380D01*
X187240180Y-103897618D02*
X186240180Y-103564285D01*
X186240180Y-103564285D02*
X187240180Y-103230952D01*
X187240180Y-102992856D02*
X187240180Y-102373809D01*
X187240180Y-102373809D02*
X186859228Y-102707142D01*
X186859228Y-102707142D02*
X186859228Y-102564285D01*
X186859228Y-102564285D02*
X186811609Y-102469047D01*
X186811609Y-102469047D02*
X186763990Y-102421428D01*
X186763990Y-102421428D02*
X186668752Y-102373809D01*
X186668752Y-102373809D02*
X186430657Y-102373809D01*
X186430657Y-102373809D02*
X186335419Y-102421428D01*
X186335419Y-102421428D02*
X186287800Y-102469047D01*
X186287800Y-102469047D02*
X186240180Y-102564285D01*
X186240180Y-102564285D02*
X186240180Y-102849999D01*
X186240180Y-102849999D02*
X186287800Y-102945237D01*
X186287800Y-102945237D02*
X186335419Y-102992856D01*
X186240180Y-101183332D02*
X187240180Y-101183332D01*
X187240180Y-101183332D02*
X187240180Y-100945237D01*
X187240180Y-100945237D02*
X187192561Y-100802380D01*
X187192561Y-100802380D02*
X187097323Y-100707142D01*
X187097323Y-100707142D02*
X187002085Y-100659523D01*
X187002085Y-100659523D02*
X186811609Y-100611904D01*
X186811609Y-100611904D02*
X186668752Y-100611904D01*
X186668752Y-100611904D02*
X186478276Y-100659523D01*
X186478276Y-100659523D02*
X186383038Y-100707142D01*
X186383038Y-100707142D02*
X186287800Y-100802380D01*
X186287800Y-100802380D02*
X186240180Y-100945237D01*
X186240180Y-100945237D02*
X186240180Y-101183332D01*
X186525895Y-100230951D02*
X186525895Y-99754761D01*
X186240180Y-100326189D02*
X187240180Y-99992856D01*
X187240180Y-99992856D02*
X186240180Y-99659523D01*
X187240180Y-99469046D02*
X187240180Y-98897618D01*
X186240180Y-99183332D02*
X187240180Y-99183332D01*
X186525895Y-98611903D02*
X186525895Y-98135713D01*
X186240180Y-98707141D02*
X187240180Y-98373808D01*
X187240180Y-98373808D02*
X186240180Y-98040475D01*
X167860839Y-139052200D02*
X167717982Y-139099819D01*
X167717982Y-139099819D02*
X167479887Y-139099819D01*
X167479887Y-139099819D02*
X167384649Y-139052200D01*
X167384649Y-139052200D02*
X167337030Y-139004580D01*
X167337030Y-139004580D02*
X167289411Y-138909342D01*
X167289411Y-138909342D02*
X167289411Y-138814104D01*
X167289411Y-138814104D02*
X167337030Y-138718866D01*
X167337030Y-138718866D02*
X167384649Y-138671247D01*
X167384649Y-138671247D02*
X167479887Y-138623628D01*
X167479887Y-138623628D02*
X167670363Y-138576009D01*
X167670363Y-138576009D02*
X167765601Y-138528390D01*
X167765601Y-138528390D02*
X167813220Y-138480771D01*
X167813220Y-138480771D02*
X167860839Y-138385533D01*
X167860839Y-138385533D02*
X167860839Y-138290295D01*
X167860839Y-138290295D02*
X167813220Y-138195057D01*
X167813220Y-138195057D02*
X167765601Y-138147438D01*
X167765601Y-138147438D02*
X167670363Y-138099819D01*
X167670363Y-138099819D02*
X167432268Y-138099819D01*
X167432268Y-138099819D02*
X167289411Y-138147438D01*
X166479887Y-139052200D02*
X166575125Y-139099819D01*
X166575125Y-139099819D02*
X166765601Y-139099819D01*
X166765601Y-139099819D02*
X166860839Y-139052200D01*
X166860839Y-139052200D02*
X166908458Y-138956961D01*
X166908458Y-138956961D02*
X166908458Y-138576009D01*
X166908458Y-138576009D02*
X166860839Y-138480771D01*
X166860839Y-138480771D02*
X166765601Y-138433152D01*
X166765601Y-138433152D02*
X166575125Y-138433152D01*
X166575125Y-138433152D02*
X166479887Y-138480771D01*
X166479887Y-138480771D02*
X166432268Y-138576009D01*
X166432268Y-138576009D02*
X166432268Y-138671247D01*
X166432268Y-138671247D02*
X166908458Y-138766485D01*
X166003696Y-138433152D02*
X166003696Y-139099819D01*
X166003696Y-138528390D02*
X165956077Y-138480771D01*
X165956077Y-138480771D02*
X165860839Y-138433152D01*
X165860839Y-138433152D02*
X165717982Y-138433152D01*
X165717982Y-138433152D02*
X165622744Y-138480771D01*
X165622744Y-138480771D02*
X165575125Y-138576009D01*
X165575125Y-138576009D02*
X165575125Y-139099819D01*
X165146553Y-139052200D02*
X165051315Y-139099819D01*
X165051315Y-139099819D02*
X164860839Y-139099819D01*
X164860839Y-139099819D02*
X164765601Y-139052200D01*
X164765601Y-139052200D02*
X164717982Y-138956961D01*
X164717982Y-138956961D02*
X164717982Y-138909342D01*
X164717982Y-138909342D02*
X164765601Y-138814104D01*
X164765601Y-138814104D02*
X164860839Y-138766485D01*
X164860839Y-138766485D02*
X165003696Y-138766485D01*
X165003696Y-138766485D02*
X165098934Y-138718866D01*
X165098934Y-138718866D02*
X165146553Y-138623628D01*
X165146553Y-138623628D02*
X165146553Y-138576009D01*
X165146553Y-138576009D02*
X165098934Y-138480771D01*
X165098934Y-138480771D02*
X165003696Y-138433152D01*
X165003696Y-138433152D02*
X164860839Y-138433152D01*
X164860839Y-138433152D02*
X164765601Y-138480771D01*
X164146553Y-139099819D02*
X164241791Y-139052200D01*
X164241791Y-139052200D02*
X164289410Y-139004580D01*
X164289410Y-139004580D02*
X164337029Y-138909342D01*
X164337029Y-138909342D02*
X164337029Y-138623628D01*
X164337029Y-138623628D02*
X164289410Y-138528390D01*
X164289410Y-138528390D02*
X164241791Y-138480771D01*
X164241791Y-138480771D02*
X164146553Y-138433152D01*
X164146553Y-138433152D02*
X164003696Y-138433152D01*
X164003696Y-138433152D02*
X163908458Y-138480771D01*
X163908458Y-138480771D02*
X163860839Y-138528390D01*
X163860839Y-138528390D02*
X163813220Y-138623628D01*
X163813220Y-138623628D02*
X163813220Y-138909342D01*
X163813220Y-138909342D02*
X163860839Y-139004580D01*
X163860839Y-139004580D02*
X163908458Y-139052200D01*
X163908458Y-139052200D02*
X164003696Y-139099819D01*
X164003696Y-139099819D02*
X164146553Y-139099819D01*
X163384648Y-139099819D02*
X163384648Y-138433152D01*
X163384648Y-138623628D02*
X163337029Y-138528390D01*
X163337029Y-138528390D02*
X163289410Y-138480771D01*
X163289410Y-138480771D02*
X163194172Y-138433152D01*
X163194172Y-138433152D02*
X163098934Y-138433152D01*
X161860838Y-138528390D02*
X161956076Y-138480771D01*
X161956076Y-138480771D02*
X162003695Y-138433152D01*
X162003695Y-138433152D02*
X162051314Y-138337914D01*
X162051314Y-138337914D02*
X162051314Y-138290295D01*
X162051314Y-138290295D02*
X162003695Y-138195057D01*
X162003695Y-138195057D02*
X161956076Y-138147438D01*
X161956076Y-138147438D02*
X161860838Y-138099819D01*
X161860838Y-138099819D02*
X161670362Y-138099819D01*
X161670362Y-138099819D02*
X161575124Y-138147438D01*
X161575124Y-138147438D02*
X161527505Y-138195057D01*
X161527505Y-138195057D02*
X161479886Y-138290295D01*
X161479886Y-138290295D02*
X161479886Y-138337914D01*
X161479886Y-138337914D02*
X161527505Y-138433152D01*
X161527505Y-138433152D02*
X161575124Y-138480771D01*
X161575124Y-138480771D02*
X161670362Y-138528390D01*
X161670362Y-138528390D02*
X161860838Y-138528390D01*
X161860838Y-138528390D02*
X161956076Y-138576009D01*
X161956076Y-138576009D02*
X162003695Y-138623628D01*
X162003695Y-138623628D02*
X162051314Y-138718866D01*
X162051314Y-138718866D02*
X162051314Y-138909342D01*
X162051314Y-138909342D02*
X162003695Y-139004580D01*
X162003695Y-139004580D02*
X161956076Y-139052200D01*
X161956076Y-139052200D02*
X161860838Y-139099819D01*
X161860838Y-139099819D02*
X161670362Y-139099819D01*
X161670362Y-139099819D02*
X161575124Y-139052200D01*
X161575124Y-139052200D02*
X161527505Y-139004580D01*
X161527505Y-139004580D02*
X161479886Y-138909342D01*
X161479886Y-138909342D02*
X161479886Y-138718866D01*
X161479886Y-138718866D02*
X161527505Y-138623628D01*
X161527505Y-138623628D02*
X161575124Y-138576009D01*
X161575124Y-138576009D02*
X161670362Y-138528390D01*
X167813220Y-140709819D02*
X167813220Y-139709819D01*
X167813220Y-139709819D02*
X167575125Y-139709819D01*
X167575125Y-139709819D02*
X167432268Y-139757438D01*
X167432268Y-139757438D02*
X167337030Y-139852676D01*
X167337030Y-139852676D02*
X167289411Y-139947914D01*
X167289411Y-139947914D02*
X167241792Y-140138390D01*
X167241792Y-140138390D02*
X167241792Y-140281247D01*
X167241792Y-140281247D02*
X167289411Y-140471723D01*
X167289411Y-140471723D02*
X167337030Y-140566961D01*
X167337030Y-140566961D02*
X167432268Y-140662200D01*
X167432268Y-140662200D02*
X167575125Y-140709819D01*
X167575125Y-140709819D02*
X167813220Y-140709819D01*
X166860839Y-140424104D02*
X166384649Y-140424104D01*
X166956077Y-140709819D02*
X166622744Y-139709819D01*
X166622744Y-139709819D02*
X166289411Y-140709819D01*
X166098934Y-139709819D02*
X165527506Y-139709819D01*
X165813220Y-140709819D02*
X165813220Y-139709819D01*
X165241791Y-140424104D02*
X164765601Y-140424104D01*
X165337029Y-140709819D02*
X165003696Y-139709819D01*
X165003696Y-139709819D02*
X164670363Y-140709819D01*
X163670362Y-139709819D02*
X163051315Y-139709819D01*
X163051315Y-139709819D02*
X163384648Y-140090771D01*
X163384648Y-140090771D02*
X163241791Y-140090771D01*
X163241791Y-140090771D02*
X163146553Y-140138390D01*
X163146553Y-140138390D02*
X163098934Y-140186009D01*
X163098934Y-140186009D02*
X163051315Y-140281247D01*
X163051315Y-140281247D02*
X163051315Y-140519342D01*
X163051315Y-140519342D02*
X163098934Y-140614580D01*
X163098934Y-140614580D02*
X163146553Y-140662200D01*
X163146553Y-140662200D02*
X163241791Y-140709819D01*
X163241791Y-140709819D02*
X163527505Y-140709819D01*
X163527505Y-140709819D02*
X163622743Y-140662200D01*
X163622743Y-140662200D02*
X163670362Y-140614580D01*
X162765600Y-139709819D02*
X162432267Y-140709819D01*
X162432267Y-140709819D02*
X162098934Y-139709819D01*
X161860838Y-139709819D02*
X161241791Y-139709819D01*
X161241791Y-139709819D02*
X161575124Y-140090771D01*
X161575124Y-140090771D02*
X161432267Y-140090771D01*
X161432267Y-140090771D02*
X161337029Y-140138390D01*
X161337029Y-140138390D02*
X161289410Y-140186009D01*
X161289410Y-140186009D02*
X161241791Y-140281247D01*
X161241791Y-140281247D02*
X161241791Y-140519342D01*
X161241791Y-140519342D02*
X161289410Y-140614580D01*
X161289410Y-140614580D02*
X161337029Y-140662200D01*
X161337029Y-140662200D02*
X161432267Y-140709819D01*
X161432267Y-140709819D02*
X161717981Y-140709819D01*
X161717981Y-140709819D02*
X161813219Y-140662200D01*
X161813219Y-140662200D02*
X161860838Y-140614580D01*
X159527505Y-139757438D02*
X159622743Y-139709819D01*
X159622743Y-139709819D02*
X159765600Y-139709819D01*
X159765600Y-139709819D02*
X159908457Y-139757438D01*
X159908457Y-139757438D02*
X160003695Y-139852676D01*
X160003695Y-139852676D02*
X160051314Y-139947914D01*
X160051314Y-139947914D02*
X160098933Y-140138390D01*
X160098933Y-140138390D02*
X160098933Y-140281247D01*
X160098933Y-140281247D02*
X160051314Y-140471723D01*
X160051314Y-140471723D02*
X160003695Y-140566961D01*
X160003695Y-140566961D02*
X159908457Y-140662200D01*
X159908457Y-140662200D02*
X159765600Y-140709819D01*
X159765600Y-140709819D02*
X159670362Y-140709819D01*
X159670362Y-140709819D02*
X159527505Y-140662200D01*
X159527505Y-140662200D02*
X159479886Y-140614580D01*
X159479886Y-140614580D02*
X159479886Y-140281247D01*
X159479886Y-140281247D02*
X159670362Y-140281247D01*
X159051314Y-140709819D02*
X159051314Y-139709819D01*
X159051314Y-139709819D02*
X158479886Y-140709819D01*
X158479886Y-140709819D02*
X158479886Y-139709819D01*
X158003695Y-140709819D02*
X158003695Y-139709819D01*
X158003695Y-139709819D02*
X157765600Y-139709819D01*
X157765600Y-139709819D02*
X157622743Y-139757438D01*
X157622743Y-139757438D02*
X157527505Y-139852676D01*
X157527505Y-139852676D02*
X157479886Y-139947914D01*
X157479886Y-139947914D02*
X157432267Y-140138390D01*
X157432267Y-140138390D02*
X157432267Y-140281247D01*
X157432267Y-140281247D02*
X157479886Y-140471723D01*
X157479886Y-140471723D02*
X157527505Y-140566961D01*
X157527505Y-140566961D02*
X157622743Y-140662200D01*
X157622743Y-140662200D02*
X157765600Y-140709819D01*
X157765600Y-140709819D02*
X158003695Y-140709819D01*
X177690476Y-78352200D02*
X177547619Y-78399819D01*
X177547619Y-78399819D02*
X177309524Y-78399819D01*
X177309524Y-78399819D02*
X177214286Y-78352200D01*
X177214286Y-78352200D02*
X177166667Y-78304580D01*
X177166667Y-78304580D02*
X177119048Y-78209342D01*
X177119048Y-78209342D02*
X177119048Y-78114104D01*
X177119048Y-78114104D02*
X177166667Y-78018866D01*
X177166667Y-78018866D02*
X177214286Y-77971247D01*
X177214286Y-77971247D02*
X177309524Y-77923628D01*
X177309524Y-77923628D02*
X177500000Y-77876009D01*
X177500000Y-77876009D02*
X177595238Y-77828390D01*
X177595238Y-77828390D02*
X177642857Y-77780771D01*
X177642857Y-77780771D02*
X177690476Y-77685533D01*
X177690476Y-77685533D02*
X177690476Y-77590295D01*
X177690476Y-77590295D02*
X177642857Y-77495057D01*
X177642857Y-77495057D02*
X177595238Y-77447438D01*
X177595238Y-77447438D02*
X177500000Y-77399819D01*
X177500000Y-77399819D02*
X177261905Y-77399819D01*
X177261905Y-77399819D02*
X177119048Y-77447438D01*
X176309524Y-78352200D02*
X176404762Y-78399819D01*
X176404762Y-78399819D02*
X176595238Y-78399819D01*
X176595238Y-78399819D02*
X176690476Y-78352200D01*
X176690476Y-78352200D02*
X176738095Y-78256961D01*
X176738095Y-78256961D02*
X176738095Y-77876009D01*
X176738095Y-77876009D02*
X176690476Y-77780771D01*
X176690476Y-77780771D02*
X176595238Y-77733152D01*
X176595238Y-77733152D02*
X176404762Y-77733152D01*
X176404762Y-77733152D02*
X176309524Y-77780771D01*
X176309524Y-77780771D02*
X176261905Y-77876009D01*
X176261905Y-77876009D02*
X176261905Y-77971247D01*
X176261905Y-77971247D02*
X176738095Y-78066485D01*
X175833333Y-77733152D02*
X175833333Y-78399819D01*
X175833333Y-77828390D02*
X175785714Y-77780771D01*
X175785714Y-77780771D02*
X175690476Y-77733152D01*
X175690476Y-77733152D02*
X175547619Y-77733152D01*
X175547619Y-77733152D02*
X175452381Y-77780771D01*
X175452381Y-77780771D02*
X175404762Y-77876009D01*
X175404762Y-77876009D02*
X175404762Y-78399819D01*
X174976190Y-78352200D02*
X174880952Y-78399819D01*
X174880952Y-78399819D02*
X174690476Y-78399819D01*
X174690476Y-78399819D02*
X174595238Y-78352200D01*
X174595238Y-78352200D02*
X174547619Y-78256961D01*
X174547619Y-78256961D02*
X174547619Y-78209342D01*
X174547619Y-78209342D02*
X174595238Y-78114104D01*
X174595238Y-78114104D02*
X174690476Y-78066485D01*
X174690476Y-78066485D02*
X174833333Y-78066485D01*
X174833333Y-78066485D02*
X174928571Y-78018866D01*
X174928571Y-78018866D02*
X174976190Y-77923628D01*
X174976190Y-77923628D02*
X174976190Y-77876009D01*
X174976190Y-77876009D02*
X174928571Y-77780771D01*
X174928571Y-77780771D02*
X174833333Y-77733152D01*
X174833333Y-77733152D02*
X174690476Y-77733152D01*
X174690476Y-77733152D02*
X174595238Y-77780771D01*
X173976190Y-78399819D02*
X174071428Y-78352200D01*
X174071428Y-78352200D02*
X174119047Y-78304580D01*
X174119047Y-78304580D02*
X174166666Y-78209342D01*
X174166666Y-78209342D02*
X174166666Y-77923628D01*
X174166666Y-77923628D02*
X174119047Y-77828390D01*
X174119047Y-77828390D02*
X174071428Y-77780771D01*
X174071428Y-77780771D02*
X173976190Y-77733152D01*
X173976190Y-77733152D02*
X173833333Y-77733152D01*
X173833333Y-77733152D02*
X173738095Y-77780771D01*
X173738095Y-77780771D02*
X173690476Y-77828390D01*
X173690476Y-77828390D02*
X173642857Y-77923628D01*
X173642857Y-77923628D02*
X173642857Y-78209342D01*
X173642857Y-78209342D02*
X173690476Y-78304580D01*
X173690476Y-78304580D02*
X173738095Y-78352200D01*
X173738095Y-78352200D02*
X173833333Y-78399819D01*
X173833333Y-78399819D02*
X173976190Y-78399819D01*
X173214285Y-78399819D02*
X173214285Y-77733152D01*
X173214285Y-77923628D02*
X173166666Y-77828390D01*
X173166666Y-77828390D02*
X173119047Y-77780771D01*
X173119047Y-77780771D02*
X173023809Y-77733152D01*
X173023809Y-77733152D02*
X172928571Y-77733152D01*
X171880951Y-77495057D02*
X171833332Y-77447438D01*
X171833332Y-77447438D02*
X171738094Y-77399819D01*
X171738094Y-77399819D02*
X171499999Y-77399819D01*
X171499999Y-77399819D02*
X171404761Y-77447438D01*
X171404761Y-77447438D02*
X171357142Y-77495057D01*
X171357142Y-77495057D02*
X171309523Y-77590295D01*
X171309523Y-77590295D02*
X171309523Y-77685533D01*
X171309523Y-77685533D02*
X171357142Y-77828390D01*
X171357142Y-77828390D02*
X171928570Y-78399819D01*
X171928570Y-78399819D02*
X171309523Y-78399819D01*
X179142857Y-79057438D02*
X179238095Y-79009819D01*
X179238095Y-79009819D02*
X179380952Y-79009819D01*
X179380952Y-79009819D02*
X179523809Y-79057438D01*
X179523809Y-79057438D02*
X179619047Y-79152676D01*
X179619047Y-79152676D02*
X179666666Y-79247914D01*
X179666666Y-79247914D02*
X179714285Y-79438390D01*
X179714285Y-79438390D02*
X179714285Y-79581247D01*
X179714285Y-79581247D02*
X179666666Y-79771723D01*
X179666666Y-79771723D02*
X179619047Y-79866961D01*
X179619047Y-79866961D02*
X179523809Y-79962200D01*
X179523809Y-79962200D02*
X179380952Y-80009819D01*
X179380952Y-80009819D02*
X179285714Y-80009819D01*
X179285714Y-80009819D02*
X179142857Y-79962200D01*
X179142857Y-79962200D02*
X179095238Y-79914580D01*
X179095238Y-79914580D02*
X179095238Y-79581247D01*
X179095238Y-79581247D02*
X179285714Y-79581247D01*
X178666666Y-80009819D02*
X178666666Y-79009819D01*
X178666666Y-79009819D02*
X178095238Y-80009819D01*
X178095238Y-80009819D02*
X178095238Y-79009819D01*
X177619047Y-80009819D02*
X177619047Y-79009819D01*
X177619047Y-79009819D02*
X177380952Y-79009819D01*
X177380952Y-79009819D02*
X177238095Y-79057438D01*
X177238095Y-79057438D02*
X177142857Y-79152676D01*
X177142857Y-79152676D02*
X177095238Y-79247914D01*
X177095238Y-79247914D02*
X177047619Y-79438390D01*
X177047619Y-79438390D02*
X177047619Y-79581247D01*
X177047619Y-79581247D02*
X177095238Y-79771723D01*
X177095238Y-79771723D02*
X177142857Y-79866961D01*
X177142857Y-79866961D02*
X177238095Y-79962200D01*
X177238095Y-79962200D02*
X177380952Y-80009819D01*
X177380952Y-80009819D02*
X177619047Y-80009819D01*
X175952380Y-79009819D02*
X175333333Y-79009819D01*
X175333333Y-79009819D02*
X175666666Y-79390771D01*
X175666666Y-79390771D02*
X175523809Y-79390771D01*
X175523809Y-79390771D02*
X175428571Y-79438390D01*
X175428571Y-79438390D02*
X175380952Y-79486009D01*
X175380952Y-79486009D02*
X175333333Y-79581247D01*
X175333333Y-79581247D02*
X175333333Y-79819342D01*
X175333333Y-79819342D02*
X175380952Y-79914580D01*
X175380952Y-79914580D02*
X175428571Y-79962200D01*
X175428571Y-79962200D02*
X175523809Y-80009819D01*
X175523809Y-80009819D02*
X175809523Y-80009819D01*
X175809523Y-80009819D02*
X175904761Y-79962200D01*
X175904761Y-79962200D02*
X175952380Y-79914580D01*
X175047618Y-79009819D02*
X174714285Y-80009819D01*
X174714285Y-80009819D02*
X174380952Y-79009819D01*
X174142856Y-79009819D02*
X173523809Y-79009819D01*
X173523809Y-79009819D02*
X173857142Y-79390771D01*
X173857142Y-79390771D02*
X173714285Y-79390771D01*
X173714285Y-79390771D02*
X173619047Y-79438390D01*
X173619047Y-79438390D02*
X173571428Y-79486009D01*
X173571428Y-79486009D02*
X173523809Y-79581247D01*
X173523809Y-79581247D02*
X173523809Y-79819342D01*
X173523809Y-79819342D02*
X173571428Y-79914580D01*
X173571428Y-79914580D02*
X173619047Y-79962200D01*
X173619047Y-79962200D02*
X173714285Y-80009819D01*
X173714285Y-80009819D02*
X173999999Y-80009819D01*
X173999999Y-80009819D02*
X174095237Y-79962200D01*
X174095237Y-79962200D02*
X174142856Y-79914580D01*
X172333332Y-80009819D02*
X172333332Y-79009819D01*
X172333332Y-79009819D02*
X172095237Y-79009819D01*
X172095237Y-79009819D02*
X171952380Y-79057438D01*
X171952380Y-79057438D02*
X171857142Y-79152676D01*
X171857142Y-79152676D02*
X171809523Y-79247914D01*
X171809523Y-79247914D02*
X171761904Y-79438390D01*
X171761904Y-79438390D02*
X171761904Y-79581247D01*
X171761904Y-79581247D02*
X171809523Y-79771723D01*
X171809523Y-79771723D02*
X171857142Y-79866961D01*
X171857142Y-79866961D02*
X171952380Y-79962200D01*
X171952380Y-79962200D02*
X172095237Y-80009819D01*
X172095237Y-80009819D02*
X172333332Y-80009819D01*
X171380951Y-79724104D02*
X170904761Y-79724104D01*
X171476189Y-80009819D02*
X171142856Y-79009819D01*
X171142856Y-79009819D02*
X170809523Y-80009819D01*
X170619046Y-79009819D02*
X170047618Y-79009819D01*
X170333332Y-80009819D02*
X170333332Y-79009819D01*
X169761903Y-79724104D02*
X169285713Y-79724104D01*
X169857141Y-80009819D02*
X169523808Y-79009819D01*
X169523808Y-79009819D02*
X169190475Y-80009819D01*
X149490476Y-127754819D02*
X149966666Y-127754819D01*
X149966666Y-127754819D02*
X150014285Y-128231009D01*
X150014285Y-128231009D02*
X149966666Y-128183390D01*
X149966666Y-128183390D02*
X149871428Y-128135771D01*
X149871428Y-128135771D02*
X149633333Y-128135771D01*
X149633333Y-128135771D02*
X149538095Y-128183390D01*
X149538095Y-128183390D02*
X149490476Y-128231009D01*
X149490476Y-128231009D02*
X149442857Y-128326247D01*
X149442857Y-128326247D02*
X149442857Y-128564342D01*
X149442857Y-128564342D02*
X149490476Y-128659580D01*
X149490476Y-128659580D02*
X149538095Y-128707200D01*
X149538095Y-128707200D02*
X149633333Y-128754819D01*
X149633333Y-128754819D02*
X149871428Y-128754819D01*
X149871428Y-128754819D02*
X149966666Y-128707200D01*
X149966666Y-128707200D02*
X150014285Y-128659580D01*
X149157142Y-127754819D02*
X148823809Y-128754819D01*
X148823809Y-128754819D02*
X148490476Y-127754819D01*
X181761904Y-131602438D02*
X181857142Y-131554819D01*
X181857142Y-131554819D02*
X181999999Y-131554819D01*
X181999999Y-131554819D02*
X182142856Y-131602438D01*
X182142856Y-131602438D02*
X182238094Y-131697676D01*
X182238094Y-131697676D02*
X182285713Y-131792914D01*
X182285713Y-131792914D02*
X182333332Y-131983390D01*
X182333332Y-131983390D02*
X182333332Y-132126247D01*
X182333332Y-132126247D02*
X182285713Y-132316723D01*
X182285713Y-132316723D02*
X182238094Y-132411961D01*
X182238094Y-132411961D02*
X182142856Y-132507200D01*
X182142856Y-132507200D02*
X181999999Y-132554819D01*
X181999999Y-132554819D02*
X181904761Y-132554819D01*
X181904761Y-132554819D02*
X181761904Y-132507200D01*
X181761904Y-132507200D02*
X181714285Y-132459580D01*
X181714285Y-132459580D02*
X181714285Y-132126247D01*
X181714285Y-132126247D02*
X181904761Y-132126247D01*
X181285713Y-132554819D02*
X181285713Y-131554819D01*
X181285713Y-131554819D02*
X180714285Y-132554819D01*
X180714285Y-132554819D02*
X180714285Y-131554819D01*
X180238094Y-132554819D02*
X180238094Y-131554819D01*
X180238094Y-131554819D02*
X179999999Y-131554819D01*
X179999999Y-131554819D02*
X179857142Y-131602438D01*
X179857142Y-131602438D02*
X179761904Y-131697676D01*
X179761904Y-131697676D02*
X179714285Y-131792914D01*
X179714285Y-131792914D02*
X179666666Y-131983390D01*
X179666666Y-131983390D02*
X179666666Y-132126247D01*
X179666666Y-132126247D02*
X179714285Y-132316723D01*
X179714285Y-132316723D02*
X179761904Y-132411961D01*
X179761904Y-132411961D02*
X179857142Y-132507200D01*
X179857142Y-132507200D02*
X179999999Y-132554819D01*
X179999999Y-132554819D02*
X180238094Y-132554819D01*
X179785669Y-112447605D02*
X180785669Y-112447605D01*
X180785669Y-112447605D02*
X180071384Y-112114272D01*
X180071384Y-112114272D02*
X180785669Y-111780939D01*
X180785669Y-111780939D02*
X179785669Y-111780939D01*
X180785669Y-111114272D02*
X180785669Y-110923796D01*
X180785669Y-110923796D02*
X180738050Y-110828558D01*
X180738050Y-110828558D02*
X180642812Y-110733320D01*
X180642812Y-110733320D02*
X180452336Y-110685701D01*
X180452336Y-110685701D02*
X180119003Y-110685701D01*
X180119003Y-110685701D02*
X179928527Y-110733320D01*
X179928527Y-110733320D02*
X179833289Y-110828558D01*
X179833289Y-110828558D02*
X179785669Y-110923796D01*
X179785669Y-110923796D02*
X179785669Y-111114272D01*
X179785669Y-111114272D02*
X179833289Y-111209510D01*
X179833289Y-111209510D02*
X179928527Y-111304748D01*
X179928527Y-111304748D02*
X180119003Y-111352367D01*
X180119003Y-111352367D02*
X180452336Y-111352367D01*
X180452336Y-111352367D02*
X180642812Y-111304748D01*
X180642812Y-111304748D02*
X180738050Y-111209510D01*
X180738050Y-111209510D02*
X180785669Y-111114272D01*
X180785669Y-110257129D02*
X179976146Y-110257129D01*
X179976146Y-110257129D02*
X179880908Y-110209510D01*
X179880908Y-110209510D02*
X179833289Y-110161891D01*
X179833289Y-110161891D02*
X179785669Y-110066653D01*
X179785669Y-110066653D02*
X179785669Y-109876177D01*
X179785669Y-109876177D02*
X179833289Y-109780939D01*
X179833289Y-109780939D02*
X179880908Y-109733320D01*
X179880908Y-109733320D02*
X179976146Y-109685701D01*
X179976146Y-109685701D02*
X180785669Y-109685701D01*
X179785669Y-109209510D02*
X180785669Y-109209510D01*
X180785669Y-109209510D02*
X179785669Y-108638082D01*
X179785669Y-108638082D02*
X180785669Y-108638082D01*
X180785669Y-108304748D02*
X180785669Y-107733320D01*
X179785669Y-108019034D02*
X180785669Y-108019034D01*
X180309479Y-107399986D02*
X180309479Y-107066653D01*
X179785669Y-106923796D02*
X179785669Y-107399986D01*
X179785669Y-107399986D02*
X180785669Y-107399986D01*
X180785669Y-107399986D02*
X180785669Y-106923796D01*
X179785669Y-106495224D02*
X180785669Y-106495224D01*
X180785669Y-106495224D02*
X180785669Y-106257129D01*
X180785669Y-106257129D02*
X180738050Y-106114272D01*
X180738050Y-106114272D02*
X180642812Y-106019034D01*
X180642812Y-106019034D02*
X180547574Y-105971415D01*
X180547574Y-105971415D02*
X180357098Y-105923796D01*
X180357098Y-105923796D02*
X180214241Y-105923796D01*
X180214241Y-105923796D02*
X180023765Y-105971415D01*
X180023765Y-105971415D02*
X179928527Y-106019034D01*
X179928527Y-106019034D02*
X179833289Y-106114272D01*
X179833289Y-106114272D02*
X179785669Y-106257129D01*
X179785669Y-106257129D02*
X179785669Y-106495224D01*
X102102561Y-119623809D02*
X102150180Y-119719047D01*
X102150180Y-119719047D02*
X102150180Y-119861904D01*
X102150180Y-119861904D02*
X102102561Y-120004761D01*
X102102561Y-120004761D02*
X102007323Y-120099999D01*
X102007323Y-120099999D02*
X101912085Y-120147618D01*
X101912085Y-120147618D02*
X101721609Y-120195237D01*
X101721609Y-120195237D02*
X101578752Y-120195237D01*
X101578752Y-120195237D02*
X101388276Y-120147618D01*
X101388276Y-120147618D02*
X101293038Y-120099999D01*
X101293038Y-120099999D02*
X101197800Y-120004761D01*
X101197800Y-120004761D02*
X101150180Y-119861904D01*
X101150180Y-119861904D02*
X101150180Y-119766666D01*
X101150180Y-119766666D02*
X101197800Y-119623809D01*
X101197800Y-119623809D02*
X101245419Y-119576190D01*
X101245419Y-119576190D02*
X101578752Y-119576190D01*
X101578752Y-119576190D02*
X101578752Y-119766666D01*
X101150180Y-119147618D02*
X102150180Y-119147618D01*
X102150180Y-119147618D02*
X101150180Y-118576190D01*
X101150180Y-118576190D02*
X102150180Y-118576190D01*
X101150180Y-118099999D02*
X102150180Y-118099999D01*
X102150180Y-118099999D02*
X102150180Y-117861904D01*
X102150180Y-117861904D02*
X102102561Y-117719047D01*
X102102561Y-117719047D02*
X102007323Y-117623809D01*
X102007323Y-117623809D02*
X101912085Y-117576190D01*
X101912085Y-117576190D02*
X101721609Y-117528571D01*
X101721609Y-117528571D02*
X101578752Y-117528571D01*
X101578752Y-117528571D02*
X101388276Y-117576190D01*
X101388276Y-117576190D02*
X101293038Y-117623809D01*
X101293038Y-117623809D02*
X101197800Y-117719047D01*
X101197800Y-117719047D02*
X101150180Y-117861904D01*
X101150180Y-117861904D02*
X101150180Y-118099999D01*
X102054942Y-116385713D02*
X102102561Y-116338094D01*
X102102561Y-116338094D02*
X102150180Y-116242856D01*
X102150180Y-116242856D02*
X102150180Y-116004761D01*
X102150180Y-116004761D02*
X102102561Y-115909523D01*
X102102561Y-115909523D02*
X102054942Y-115861904D01*
X102054942Y-115861904D02*
X101959704Y-115814285D01*
X101959704Y-115814285D02*
X101864466Y-115814285D01*
X101864466Y-115814285D02*
X101721609Y-115861904D01*
X101721609Y-115861904D02*
X101150180Y-116433332D01*
X101150180Y-116433332D02*
X101150180Y-115814285D01*
X101816847Y-114957142D02*
X101150180Y-114957142D01*
X102197800Y-115195237D02*
X101483514Y-115433332D01*
X101483514Y-115433332D02*
X101483514Y-114814285D01*
X102150180Y-114576189D02*
X101150180Y-114242856D01*
X101150180Y-114242856D02*
X102150180Y-113909523D01*
X100540180Y-119814285D02*
X99540180Y-119480952D01*
X99540180Y-119480952D02*
X100540180Y-119147619D01*
X99540180Y-118385714D02*
X100063990Y-118385714D01*
X100063990Y-118385714D02*
X100159228Y-118433333D01*
X100159228Y-118433333D02*
X100206847Y-118528571D01*
X100206847Y-118528571D02*
X100206847Y-118719047D01*
X100206847Y-118719047D02*
X100159228Y-118814285D01*
X99587800Y-118385714D02*
X99540180Y-118480952D01*
X99540180Y-118480952D02*
X99540180Y-118719047D01*
X99540180Y-118719047D02*
X99587800Y-118814285D01*
X99587800Y-118814285D02*
X99683038Y-118861904D01*
X99683038Y-118861904D02*
X99778276Y-118861904D01*
X99778276Y-118861904D02*
X99873514Y-118814285D01*
X99873514Y-118814285D02*
X99921133Y-118719047D01*
X99921133Y-118719047D02*
X99921133Y-118480952D01*
X99921133Y-118480952D02*
X99968752Y-118385714D01*
X99540180Y-117766666D02*
X99587800Y-117861904D01*
X99587800Y-117861904D02*
X99683038Y-117909523D01*
X99683038Y-117909523D02*
X100540180Y-117909523D01*
X100206847Y-117480951D02*
X99540180Y-117242856D01*
X99540180Y-117242856D02*
X100206847Y-117004761D01*
X99587800Y-116242856D02*
X99540180Y-116338094D01*
X99540180Y-116338094D02*
X99540180Y-116528570D01*
X99540180Y-116528570D02*
X99587800Y-116623808D01*
X99587800Y-116623808D02*
X99683038Y-116671427D01*
X99683038Y-116671427D02*
X100063990Y-116671427D01*
X100063990Y-116671427D02*
X100159228Y-116623808D01*
X100159228Y-116623808D02*
X100206847Y-116528570D01*
X100206847Y-116528570D02*
X100206847Y-116338094D01*
X100206847Y-116338094D02*
X100159228Y-116242856D01*
X100159228Y-116242856D02*
X100063990Y-116195237D01*
X100063990Y-116195237D02*
X99968752Y-116195237D01*
X99968752Y-116195237D02*
X99873514Y-116671427D01*
X100540180Y-114528570D02*
X100540180Y-115004760D01*
X100540180Y-115004760D02*
X100063990Y-115052379D01*
X100063990Y-115052379D02*
X100111609Y-115004760D01*
X100111609Y-115004760D02*
X100159228Y-114909522D01*
X100159228Y-114909522D02*
X100159228Y-114671427D01*
X100159228Y-114671427D02*
X100111609Y-114576189D01*
X100111609Y-114576189D02*
X100063990Y-114528570D01*
X100063990Y-114528570D02*
X99968752Y-114480951D01*
X99968752Y-114480951D02*
X99730657Y-114480951D01*
X99730657Y-114480951D02*
X99635419Y-114528570D01*
X99635419Y-114528570D02*
X99587800Y-114576189D01*
X99587800Y-114576189D02*
X99540180Y-114671427D01*
X99540180Y-114671427D02*
X99540180Y-114909522D01*
X99540180Y-114909522D02*
X99587800Y-115004760D01*
X99587800Y-115004760D02*
X99635419Y-115052379D01*
X102102561Y-95573809D02*
X102150180Y-95669047D01*
X102150180Y-95669047D02*
X102150180Y-95811904D01*
X102150180Y-95811904D02*
X102102561Y-95954761D01*
X102102561Y-95954761D02*
X102007323Y-96049999D01*
X102007323Y-96049999D02*
X101912085Y-96097618D01*
X101912085Y-96097618D02*
X101721609Y-96145237D01*
X101721609Y-96145237D02*
X101578752Y-96145237D01*
X101578752Y-96145237D02*
X101388276Y-96097618D01*
X101388276Y-96097618D02*
X101293038Y-96049999D01*
X101293038Y-96049999D02*
X101197800Y-95954761D01*
X101197800Y-95954761D02*
X101150180Y-95811904D01*
X101150180Y-95811904D02*
X101150180Y-95716666D01*
X101150180Y-95716666D02*
X101197800Y-95573809D01*
X101197800Y-95573809D02*
X101245419Y-95526190D01*
X101245419Y-95526190D02*
X101578752Y-95526190D01*
X101578752Y-95526190D02*
X101578752Y-95716666D01*
X101150180Y-95097618D02*
X102150180Y-95097618D01*
X102150180Y-95097618D02*
X101150180Y-94526190D01*
X101150180Y-94526190D02*
X102150180Y-94526190D01*
X101150180Y-94049999D02*
X102150180Y-94049999D01*
X102150180Y-94049999D02*
X102150180Y-93811904D01*
X102150180Y-93811904D02*
X102102561Y-93669047D01*
X102102561Y-93669047D02*
X102007323Y-93573809D01*
X102007323Y-93573809D02*
X101912085Y-93526190D01*
X101912085Y-93526190D02*
X101721609Y-93478571D01*
X101721609Y-93478571D02*
X101578752Y-93478571D01*
X101578752Y-93478571D02*
X101388276Y-93526190D01*
X101388276Y-93526190D02*
X101293038Y-93573809D01*
X101293038Y-93573809D02*
X101197800Y-93669047D01*
X101197800Y-93669047D02*
X101150180Y-93811904D01*
X101150180Y-93811904D02*
X101150180Y-94049999D01*
X102054942Y-92335713D02*
X102102561Y-92288094D01*
X102102561Y-92288094D02*
X102150180Y-92192856D01*
X102150180Y-92192856D02*
X102150180Y-91954761D01*
X102150180Y-91954761D02*
X102102561Y-91859523D01*
X102102561Y-91859523D02*
X102054942Y-91811904D01*
X102054942Y-91811904D02*
X101959704Y-91764285D01*
X101959704Y-91764285D02*
X101864466Y-91764285D01*
X101864466Y-91764285D02*
X101721609Y-91811904D01*
X101721609Y-91811904D02*
X101150180Y-92383332D01*
X101150180Y-92383332D02*
X101150180Y-91764285D01*
X101816847Y-90907142D02*
X101150180Y-90907142D01*
X102197800Y-91145237D02*
X101483514Y-91383332D01*
X101483514Y-91383332D02*
X101483514Y-90764285D01*
X102150180Y-90526189D02*
X101150180Y-90192856D01*
X101150180Y-90192856D02*
X102150180Y-89859523D01*
X100540180Y-95764285D02*
X99540180Y-95430952D01*
X99540180Y-95430952D02*
X100540180Y-95097619D01*
X99540180Y-94335714D02*
X100063990Y-94335714D01*
X100063990Y-94335714D02*
X100159228Y-94383333D01*
X100159228Y-94383333D02*
X100206847Y-94478571D01*
X100206847Y-94478571D02*
X100206847Y-94669047D01*
X100206847Y-94669047D02*
X100159228Y-94764285D01*
X99587800Y-94335714D02*
X99540180Y-94430952D01*
X99540180Y-94430952D02*
X99540180Y-94669047D01*
X99540180Y-94669047D02*
X99587800Y-94764285D01*
X99587800Y-94764285D02*
X99683038Y-94811904D01*
X99683038Y-94811904D02*
X99778276Y-94811904D01*
X99778276Y-94811904D02*
X99873514Y-94764285D01*
X99873514Y-94764285D02*
X99921133Y-94669047D01*
X99921133Y-94669047D02*
X99921133Y-94430952D01*
X99921133Y-94430952D02*
X99968752Y-94335714D01*
X99540180Y-93716666D02*
X99587800Y-93811904D01*
X99587800Y-93811904D02*
X99683038Y-93859523D01*
X99683038Y-93859523D02*
X100540180Y-93859523D01*
X100206847Y-93430951D02*
X99540180Y-93192856D01*
X99540180Y-93192856D02*
X100206847Y-92954761D01*
X99587800Y-92192856D02*
X99540180Y-92288094D01*
X99540180Y-92288094D02*
X99540180Y-92478570D01*
X99540180Y-92478570D02*
X99587800Y-92573808D01*
X99587800Y-92573808D02*
X99683038Y-92621427D01*
X99683038Y-92621427D02*
X100063990Y-92621427D01*
X100063990Y-92621427D02*
X100159228Y-92573808D01*
X100159228Y-92573808D02*
X100206847Y-92478570D01*
X100206847Y-92478570D02*
X100206847Y-92288094D01*
X100206847Y-92288094D02*
X100159228Y-92192856D01*
X100159228Y-92192856D02*
X100063990Y-92145237D01*
X100063990Y-92145237D02*
X99968752Y-92145237D01*
X99968752Y-92145237D02*
X99873514Y-92621427D01*
X100444942Y-91002379D02*
X100492561Y-90954760D01*
X100492561Y-90954760D02*
X100540180Y-90859522D01*
X100540180Y-90859522D02*
X100540180Y-90621427D01*
X100540180Y-90621427D02*
X100492561Y-90526189D01*
X100492561Y-90526189D02*
X100444942Y-90478570D01*
X100444942Y-90478570D02*
X100349704Y-90430951D01*
X100349704Y-90430951D02*
X100254466Y-90430951D01*
X100254466Y-90430951D02*
X100111609Y-90478570D01*
X100111609Y-90478570D02*
X99540180Y-91049998D01*
X99540180Y-91049998D02*
X99540180Y-90430951D01*
X182238094Y-123554819D02*
X181619047Y-123554819D01*
X181619047Y-123554819D02*
X181952380Y-123935771D01*
X181952380Y-123935771D02*
X181809523Y-123935771D01*
X181809523Y-123935771D02*
X181714285Y-123983390D01*
X181714285Y-123983390D02*
X181666666Y-124031009D01*
X181666666Y-124031009D02*
X181619047Y-124126247D01*
X181619047Y-124126247D02*
X181619047Y-124364342D01*
X181619047Y-124364342D02*
X181666666Y-124459580D01*
X181666666Y-124459580D02*
X181714285Y-124507200D01*
X181714285Y-124507200D02*
X181809523Y-124554819D01*
X181809523Y-124554819D02*
X182095237Y-124554819D01*
X182095237Y-124554819D02*
X182190475Y-124507200D01*
X182190475Y-124507200D02*
X182238094Y-124459580D01*
X181333332Y-123554819D02*
X180999999Y-124554819D01*
X180999999Y-124554819D02*
X180666666Y-123554819D01*
X180428570Y-123554819D02*
X179809523Y-123554819D01*
X179809523Y-123554819D02*
X180142856Y-123935771D01*
X180142856Y-123935771D02*
X179999999Y-123935771D01*
X179999999Y-123935771D02*
X179904761Y-123983390D01*
X179904761Y-123983390D02*
X179857142Y-124031009D01*
X179857142Y-124031009D02*
X179809523Y-124126247D01*
X179809523Y-124126247D02*
X179809523Y-124364342D01*
X179809523Y-124364342D02*
X179857142Y-124459580D01*
X179857142Y-124459580D02*
X179904761Y-124507200D01*
X179904761Y-124507200D02*
X179999999Y-124554819D01*
X179999999Y-124554819D02*
X180285713Y-124554819D01*
X180285713Y-124554819D02*
X180380951Y-124507200D01*
X180380951Y-124507200D02*
X180428570Y-124459580D01*
D11*
X144888719Y-135218885D02*
X144817291Y-135147457D01*
X144817291Y-135147457D02*
X144674434Y-135076028D01*
X144674434Y-135076028D02*
X144317291Y-135076028D01*
X144317291Y-135076028D02*
X144174434Y-135147457D01*
X144174434Y-135147457D02*
X144103005Y-135218885D01*
X144103005Y-135218885D02*
X144031576Y-135361742D01*
X144031576Y-135361742D02*
X144031576Y-135504600D01*
X144031576Y-135504600D02*
X144103005Y-135718885D01*
X144103005Y-135718885D02*
X144960148Y-136576028D01*
X144960148Y-136576028D02*
X144031576Y-136576028D01*
X142745863Y-135576028D02*
X142745863Y-136576028D01*
X143103005Y-135004600D02*
X143460148Y-136076028D01*
X143460148Y-136076028D02*
X142531577Y-136076028D01*
X142174434Y-135076028D02*
X141674434Y-136576028D01*
X141674434Y-136576028D02*
X141174434Y-135076028D01*
X146317293Y-138991028D02*
X146317293Y-137991028D01*
X146317293Y-137491028D02*
X146388721Y-137562457D01*
X146388721Y-137562457D02*
X146317293Y-137633885D01*
X146317293Y-137633885D02*
X146245864Y-137562457D01*
X146245864Y-137562457D02*
X146317293Y-137491028D01*
X146317293Y-137491028D02*
X146317293Y-137633885D01*
X145603007Y-137991028D02*
X145603007Y-138991028D01*
X145603007Y-138133885D02*
X145531578Y-138062457D01*
X145531578Y-138062457D02*
X145388721Y-137991028D01*
X145388721Y-137991028D02*
X145174435Y-137991028D01*
X145174435Y-137991028D02*
X145031578Y-138062457D01*
X145031578Y-138062457D02*
X144960150Y-138205314D01*
X144960150Y-138205314D02*
X144960150Y-138991028D01*
X144245864Y-137991028D02*
X144245864Y-139491028D01*
X144245864Y-138062457D02*
X144103007Y-137991028D01*
X144103007Y-137991028D02*
X143817292Y-137991028D01*
X143817292Y-137991028D02*
X143674435Y-138062457D01*
X143674435Y-138062457D02*
X143603007Y-138133885D01*
X143603007Y-138133885D02*
X143531578Y-138276742D01*
X143531578Y-138276742D02*
X143531578Y-138705314D01*
X143531578Y-138705314D02*
X143603007Y-138848171D01*
X143603007Y-138848171D02*
X143674435Y-138919600D01*
X143674435Y-138919600D02*
X143817292Y-138991028D01*
X143817292Y-138991028D02*
X144103007Y-138991028D01*
X144103007Y-138991028D02*
X144245864Y-138919600D01*
X142245864Y-137991028D02*
X142245864Y-138991028D01*
X142888721Y-137991028D02*
X142888721Y-138776742D01*
X142888721Y-138776742D02*
X142817292Y-138919600D01*
X142817292Y-138919600D02*
X142674435Y-138991028D01*
X142674435Y-138991028D02*
X142460149Y-138991028D01*
X142460149Y-138991028D02*
X142317292Y-138919600D01*
X142317292Y-138919600D02*
X142245864Y-138848171D01*
X141745863Y-137991028D02*
X141174435Y-137991028D01*
X141531578Y-137491028D02*
X141531578Y-138776742D01*
X141531578Y-138776742D02*
X141460149Y-138919600D01*
X141460149Y-138919600D02*
X141317292Y-138991028D01*
X141317292Y-138991028D02*
X141174435Y-138991028D01*
D10*
X114914285Y-77399819D02*
X114580952Y-78399819D01*
X114580952Y-78399819D02*
X114247619Y-77399819D01*
X113485714Y-78399819D02*
X113485714Y-77876009D01*
X113485714Y-77876009D02*
X113533333Y-77780771D01*
X113533333Y-77780771D02*
X113628571Y-77733152D01*
X113628571Y-77733152D02*
X113819047Y-77733152D01*
X113819047Y-77733152D02*
X113914285Y-77780771D01*
X113485714Y-78352200D02*
X113580952Y-78399819D01*
X113580952Y-78399819D02*
X113819047Y-78399819D01*
X113819047Y-78399819D02*
X113914285Y-78352200D01*
X113914285Y-78352200D02*
X113961904Y-78256961D01*
X113961904Y-78256961D02*
X113961904Y-78161723D01*
X113961904Y-78161723D02*
X113914285Y-78066485D01*
X113914285Y-78066485D02*
X113819047Y-78018866D01*
X113819047Y-78018866D02*
X113580952Y-78018866D01*
X113580952Y-78018866D02*
X113485714Y-77971247D01*
X112866666Y-78399819D02*
X112961904Y-78352200D01*
X112961904Y-78352200D02*
X113009523Y-78256961D01*
X113009523Y-78256961D02*
X113009523Y-77399819D01*
X112580951Y-77733152D02*
X112342856Y-78399819D01*
X112342856Y-78399819D02*
X112104761Y-77733152D01*
X111342856Y-78352200D02*
X111438094Y-78399819D01*
X111438094Y-78399819D02*
X111628570Y-78399819D01*
X111628570Y-78399819D02*
X111723808Y-78352200D01*
X111723808Y-78352200D02*
X111771427Y-78256961D01*
X111771427Y-78256961D02*
X111771427Y-77876009D01*
X111771427Y-77876009D02*
X111723808Y-77780771D01*
X111723808Y-77780771D02*
X111628570Y-77733152D01*
X111628570Y-77733152D02*
X111438094Y-77733152D01*
X111438094Y-77733152D02*
X111342856Y-77780771D01*
X111342856Y-77780771D02*
X111295237Y-77876009D01*
X111295237Y-77876009D02*
X111295237Y-77971247D01*
X111295237Y-77971247D02*
X111771427Y-78066485D01*
X109580951Y-78399819D02*
X110152379Y-78399819D01*
X109866665Y-78399819D02*
X109866665Y-77399819D01*
X109866665Y-77399819D02*
X109961903Y-77542676D01*
X109961903Y-77542676D02*
X110057141Y-77637914D01*
X110057141Y-77637914D02*
X110152379Y-77685533D01*
X115295237Y-79105057D02*
X115247618Y-79057438D01*
X115247618Y-79057438D02*
X115152380Y-79009819D01*
X115152380Y-79009819D02*
X114914285Y-79009819D01*
X114914285Y-79009819D02*
X114819047Y-79057438D01*
X114819047Y-79057438D02*
X114771428Y-79105057D01*
X114771428Y-79105057D02*
X114723809Y-79200295D01*
X114723809Y-79200295D02*
X114723809Y-79295533D01*
X114723809Y-79295533D02*
X114771428Y-79438390D01*
X114771428Y-79438390D02*
X115342856Y-80009819D01*
X115342856Y-80009819D02*
X114723809Y-80009819D01*
X113866666Y-79343152D02*
X113866666Y-80009819D01*
X114104761Y-78962200D02*
X114342856Y-79676485D01*
X114342856Y-79676485D02*
X113723809Y-79676485D01*
X113485713Y-79009819D02*
X113152380Y-80009819D01*
X113152380Y-80009819D02*
X112819047Y-79009819D01*
X111199999Y-79057438D02*
X111295237Y-79009819D01*
X111295237Y-79009819D02*
X111438094Y-79009819D01*
X111438094Y-79009819D02*
X111580951Y-79057438D01*
X111580951Y-79057438D02*
X111676189Y-79152676D01*
X111676189Y-79152676D02*
X111723808Y-79247914D01*
X111723808Y-79247914D02*
X111771427Y-79438390D01*
X111771427Y-79438390D02*
X111771427Y-79581247D01*
X111771427Y-79581247D02*
X111723808Y-79771723D01*
X111723808Y-79771723D02*
X111676189Y-79866961D01*
X111676189Y-79866961D02*
X111580951Y-79962200D01*
X111580951Y-79962200D02*
X111438094Y-80009819D01*
X111438094Y-80009819D02*
X111342856Y-80009819D01*
X111342856Y-80009819D02*
X111199999Y-79962200D01*
X111199999Y-79962200D02*
X111152380Y-79914580D01*
X111152380Y-79914580D02*
X111152380Y-79581247D01*
X111152380Y-79581247D02*
X111342856Y-79581247D01*
X110723808Y-80009819D02*
X110723808Y-79009819D01*
X110723808Y-79009819D02*
X110152380Y-80009819D01*
X110152380Y-80009819D02*
X110152380Y-79009819D01*
X109676189Y-80009819D02*
X109676189Y-79009819D01*
X109676189Y-79009819D02*
X109438094Y-79009819D01*
X109438094Y-79009819D02*
X109295237Y-79057438D01*
X109295237Y-79057438D02*
X109199999Y-79152676D01*
X109199999Y-79152676D02*
X109152380Y-79247914D01*
X109152380Y-79247914D02*
X109104761Y-79438390D01*
X109104761Y-79438390D02*
X109104761Y-79581247D01*
X109104761Y-79581247D02*
X109152380Y-79771723D01*
X109152380Y-79771723D02*
X109199999Y-79866961D01*
X109199999Y-79866961D02*
X109295237Y-79962200D01*
X109295237Y-79962200D02*
X109438094Y-80009819D01*
X109438094Y-80009819D02*
X109676189Y-80009819D01*
X102102561Y-111623809D02*
X102150180Y-111719047D01*
X102150180Y-111719047D02*
X102150180Y-111861904D01*
X102150180Y-111861904D02*
X102102561Y-112004761D01*
X102102561Y-112004761D02*
X102007323Y-112099999D01*
X102007323Y-112099999D02*
X101912085Y-112147618D01*
X101912085Y-112147618D02*
X101721609Y-112195237D01*
X101721609Y-112195237D02*
X101578752Y-112195237D01*
X101578752Y-112195237D02*
X101388276Y-112147618D01*
X101388276Y-112147618D02*
X101293038Y-112099999D01*
X101293038Y-112099999D02*
X101197800Y-112004761D01*
X101197800Y-112004761D02*
X101150180Y-111861904D01*
X101150180Y-111861904D02*
X101150180Y-111766666D01*
X101150180Y-111766666D02*
X101197800Y-111623809D01*
X101197800Y-111623809D02*
X101245419Y-111576190D01*
X101245419Y-111576190D02*
X101578752Y-111576190D01*
X101578752Y-111576190D02*
X101578752Y-111766666D01*
X101150180Y-111147618D02*
X102150180Y-111147618D01*
X102150180Y-111147618D02*
X101150180Y-110576190D01*
X101150180Y-110576190D02*
X102150180Y-110576190D01*
X101150180Y-110099999D02*
X102150180Y-110099999D01*
X102150180Y-110099999D02*
X102150180Y-109861904D01*
X102150180Y-109861904D02*
X102102561Y-109719047D01*
X102102561Y-109719047D02*
X102007323Y-109623809D01*
X102007323Y-109623809D02*
X101912085Y-109576190D01*
X101912085Y-109576190D02*
X101721609Y-109528571D01*
X101721609Y-109528571D02*
X101578752Y-109528571D01*
X101578752Y-109528571D02*
X101388276Y-109576190D01*
X101388276Y-109576190D02*
X101293038Y-109623809D01*
X101293038Y-109623809D02*
X101197800Y-109719047D01*
X101197800Y-109719047D02*
X101150180Y-109861904D01*
X101150180Y-109861904D02*
X101150180Y-110099999D01*
X102054942Y-108385713D02*
X102102561Y-108338094D01*
X102102561Y-108338094D02*
X102150180Y-108242856D01*
X102150180Y-108242856D02*
X102150180Y-108004761D01*
X102150180Y-108004761D02*
X102102561Y-107909523D01*
X102102561Y-107909523D02*
X102054942Y-107861904D01*
X102054942Y-107861904D02*
X101959704Y-107814285D01*
X101959704Y-107814285D02*
X101864466Y-107814285D01*
X101864466Y-107814285D02*
X101721609Y-107861904D01*
X101721609Y-107861904D02*
X101150180Y-108433332D01*
X101150180Y-108433332D02*
X101150180Y-107814285D01*
X101816847Y-106957142D02*
X101150180Y-106957142D01*
X102197800Y-107195237D02*
X101483514Y-107433332D01*
X101483514Y-107433332D02*
X101483514Y-106814285D01*
X102150180Y-106576189D02*
X101150180Y-106242856D01*
X101150180Y-106242856D02*
X102150180Y-105909523D01*
X100540180Y-111814285D02*
X99540180Y-111480952D01*
X99540180Y-111480952D02*
X100540180Y-111147619D01*
X99540180Y-110385714D02*
X100063990Y-110385714D01*
X100063990Y-110385714D02*
X100159228Y-110433333D01*
X100159228Y-110433333D02*
X100206847Y-110528571D01*
X100206847Y-110528571D02*
X100206847Y-110719047D01*
X100206847Y-110719047D02*
X100159228Y-110814285D01*
X99587800Y-110385714D02*
X99540180Y-110480952D01*
X99540180Y-110480952D02*
X99540180Y-110719047D01*
X99540180Y-110719047D02*
X99587800Y-110814285D01*
X99587800Y-110814285D02*
X99683038Y-110861904D01*
X99683038Y-110861904D02*
X99778276Y-110861904D01*
X99778276Y-110861904D02*
X99873514Y-110814285D01*
X99873514Y-110814285D02*
X99921133Y-110719047D01*
X99921133Y-110719047D02*
X99921133Y-110480952D01*
X99921133Y-110480952D02*
X99968752Y-110385714D01*
X99540180Y-109766666D02*
X99587800Y-109861904D01*
X99587800Y-109861904D02*
X99683038Y-109909523D01*
X99683038Y-109909523D02*
X100540180Y-109909523D01*
X100206847Y-109480951D02*
X99540180Y-109242856D01*
X99540180Y-109242856D02*
X100206847Y-109004761D01*
X99587800Y-108242856D02*
X99540180Y-108338094D01*
X99540180Y-108338094D02*
X99540180Y-108528570D01*
X99540180Y-108528570D02*
X99587800Y-108623808D01*
X99587800Y-108623808D02*
X99683038Y-108671427D01*
X99683038Y-108671427D02*
X100063990Y-108671427D01*
X100063990Y-108671427D02*
X100159228Y-108623808D01*
X100159228Y-108623808D02*
X100206847Y-108528570D01*
X100206847Y-108528570D02*
X100206847Y-108338094D01*
X100206847Y-108338094D02*
X100159228Y-108242856D01*
X100159228Y-108242856D02*
X100063990Y-108195237D01*
X100063990Y-108195237D02*
X99968752Y-108195237D01*
X99968752Y-108195237D02*
X99873514Y-108671427D01*
X100206847Y-106576189D02*
X99540180Y-106576189D01*
X100587800Y-106814284D02*
X99873514Y-107052379D01*
X99873514Y-107052379D02*
X99873514Y-106433332D01*
X149461904Y-131102438D02*
X149557142Y-131054819D01*
X149557142Y-131054819D02*
X149699999Y-131054819D01*
X149699999Y-131054819D02*
X149842856Y-131102438D01*
X149842856Y-131102438D02*
X149938094Y-131197676D01*
X149938094Y-131197676D02*
X149985713Y-131292914D01*
X149985713Y-131292914D02*
X150033332Y-131483390D01*
X150033332Y-131483390D02*
X150033332Y-131626247D01*
X150033332Y-131626247D02*
X149985713Y-131816723D01*
X149985713Y-131816723D02*
X149938094Y-131911961D01*
X149938094Y-131911961D02*
X149842856Y-132007200D01*
X149842856Y-132007200D02*
X149699999Y-132054819D01*
X149699999Y-132054819D02*
X149604761Y-132054819D01*
X149604761Y-132054819D02*
X149461904Y-132007200D01*
X149461904Y-132007200D02*
X149414285Y-131959580D01*
X149414285Y-131959580D02*
X149414285Y-131626247D01*
X149414285Y-131626247D02*
X149604761Y-131626247D01*
X148985713Y-132054819D02*
X148985713Y-131054819D01*
X148985713Y-131054819D02*
X148414285Y-132054819D01*
X148414285Y-132054819D02*
X148414285Y-131054819D01*
X147938094Y-132054819D02*
X147938094Y-131054819D01*
X147938094Y-131054819D02*
X147699999Y-131054819D01*
X147699999Y-131054819D02*
X147557142Y-131102438D01*
X147557142Y-131102438D02*
X147461904Y-131197676D01*
X147461904Y-131197676D02*
X147414285Y-131292914D01*
X147414285Y-131292914D02*
X147366666Y-131483390D01*
X147366666Y-131483390D02*
X147366666Y-131626247D01*
X147366666Y-131626247D02*
X147414285Y-131816723D01*
X147414285Y-131816723D02*
X147461904Y-131911961D01*
X147461904Y-131911961D02*
X147557142Y-132007200D01*
X147557142Y-132007200D02*
X147699999Y-132054819D01*
X147699999Y-132054819D02*
X147938094Y-132054819D01*
X102102561Y-127623809D02*
X102150180Y-127719047D01*
X102150180Y-127719047D02*
X102150180Y-127861904D01*
X102150180Y-127861904D02*
X102102561Y-128004761D01*
X102102561Y-128004761D02*
X102007323Y-128099999D01*
X102007323Y-128099999D02*
X101912085Y-128147618D01*
X101912085Y-128147618D02*
X101721609Y-128195237D01*
X101721609Y-128195237D02*
X101578752Y-128195237D01*
X101578752Y-128195237D02*
X101388276Y-128147618D01*
X101388276Y-128147618D02*
X101293038Y-128099999D01*
X101293038Y-128099999D02*
X101197800Y-128004761D01*
X101197800Y-128004761D02*
X101150180Y-127861904D01*
X101150180Y-127861904D02*
X101150180Y-127766666D01*
X101150180Y-127766666D02*
X101197800Y-127623809D01*
X101197800Y-127623809D02*
X101245419Y-127576190D01*
X101245419Y-127576190D02*
X101578752Y-127576190D01*
X101578752Y-127576190D02*
X101578752Y-127766666D01*
X101150180Y-127147618D02*
X102150180Y-127147618D01*
X102150180Y-127147618D02*
X101150180Y-126576190D01*
X101150180Y-126576190D02*
X102150180Y-126576190D01*
X101150180Y-126099999D02*
X102150180Y-126099999D01*
X102150180Y-126099999D02*
X102150180Y-125861904D01*
X102150180Y-125861904D02*
X102102561Y-125719047D01*
X102102561Y-125719047D02*
X102007323Y-125623809D01*
X102007323Y-125623809D02*
X101912085Y-125576190D01*
X101912085Y-125576190D02*
X101721609Y-125528571D01*
X101721609Y-125528571D02*
X101578752Y-125528571D01*
X101578752Y-125528571D02*
X101388276Y-125576190D01*
X101388276Y-125576190D02*
X101293038Y-125623809D01*
X101293038Y-125623809D02*
X101197800Y-125719047D01*
X101197800Y-125719047D02*
X101150180Y-125861904D01*
X101150180Y-125861904D02*
X101150180Y-126099999D01*
X102054942Y-124385713D02*
X102102561Y-124338094D01*
X102102561Y-124338094D02*
X102150180Y-124242856D01*
X102150180Y-124242856D02*
X102150180Y-124004761D01*
X102150180Y-124004761D02*
X102102561Y-123909523D01*
X102102561Y-123909523D02*
X102054942Y-123861904D01*
X102054942Y-123861904D02*
X101959704Y-123814285D01*
X101959704Y-123814285D02*
X101864466Y-123814285D01*
X101864466Y-123814285D02*
X101721609Y-123861904D01*
X101721609Y-123861904D02*
X101150180Y-124433332D01*
X101150180Y-124433332D02*
X101150180Y-123814285D01*
X101816847Y-122957142D02*
X101150180Y-122957142D01*
X102197800Y-123195237D02*
X101483514Y-123433332D01*
X101483514Y-123433332D02*
X101483514Y-122814285D01*
X102150180Y-122576189D02*
X101150180Y-122242856D01*
X101150180Y-122242856D02*
X102150180Y-121909523D01*
X100540180Y-127814285D02*
X99540180Y-127480952D01*
X99540180Y-127480952D02*
X100540180Y-127147619D01*
X99540180Y-126385714D02*
X100063990Y-126385714D01*
X100063990Y-126385714D02*
X100159228Y-126433333D01*
X100159228Y-126433333D02*
X100206847Y-126528571D01*
X100206847Y-126528571D02*
X100206847Y-126719047D01*
X100206847Y-126719047D02*
X100159228Y-126814285D01*
X99587800Y-126385714D02*
X99540180Y-126480952D01*
X99540180Y-126480952D02*
X99540180Y-126719047D01*
X99540180Y-126719047D02*
X99587800Y-126814285D01*
X99587800Y-126814285D02*
X99683038Y-126861904D01*
X99683038Y-126861904D02*
X99778276Y-126861904D01*
X99778276Y-126861904D02*
X99873514Y-126814285D01*
X99873514Y-126814285D02*
X99921133Y-126719047D01*
X99921133Y-126719047D02*
X99921133Y-126480952D01*
X99921133Y-126480952D02*
X99968752Y-126385714D01*
X99540180Y-125766666D02*
X99587800Y-125861904D01*
X99587800Y-125861904D02*
X99683038Y-125909523D01*
X99683038Y-125909523D02*
X100540180Y-125909523D01*
X100206847Y-125480951D02*
X99540180Y-125242856D01*
X99540180Y-125242856D02*
X100206847Y-125004761D01*
X99587800Y-124242856D02*
X99540180Y-124338094D01*
X99540180Y-124338094D02*
X99540180Y-124528570D01*
X99540180Y-124528570D02*
X99587800Y-124623808D01*
X99587800Y-124623808D02*
X99683038Y-124671427D01*
X99683038Y-124671427D02*
X100063990Y-124671427D01*
X100063990Y-124671427D02*
X100159228Y-124623808D01*
X100159228Y-124623808D02*
X100206847Y-124528570D01*
X100206847Y-124528570D02*
X100206847Y-124338094D01*
X100206847Y-124338094D02*
X100159228Y-124242856D01*
X100159228Y-124242856D02*
X100063990Y-124195237D01*
X100063990Y-124195237D02*
X99968752Y-124195237D01*
X99968752Y-124195237D02*
X99873514Y-124671427D01*
X100540180Y-122576189D02*
X100540180Y-122766665D01*
X100540180Y-122766665D02*
X100492561Y-122861903D01*
X100492561Y-122861903D02*
X100444942Y-122909522D01*
X100444942Y-122909522D02*
X100302085Y-123004760D01*
X100302085Y-123004760D02*
X100111609Y-123052379D01*
X100111609Y-123052379D02*
X99730657Y-123052379D01*
X99730657Y-123052379D02*
X99635419Y-123004760D01*
X99635419Y-123004760D02*
X99587800Y-122957141D01*
X99587800Y-122957141D02*
X99540180Y-122861903D01*
X99540180Y-122861903D02*
X99540180Y-122671427D01*
X99540180Y-122671427D02*
X99587800Y-122576189D01*
X99587800Y-122576189D02*
X99635419Y-122528570D01*
X99635419Y-122528570D02*
X99730657Y-122480951D01*
X99730657Y-122480951D02*
X99968752Y-122480951D01*
X99968752Y-122480951D02*
X100063990Y-122528570D01*
X100063990Y-122528570D02*
X100111609Y-122576189D01*
X100111609Y-122576189D02*
X100159228Y-122671427D01*
X100159228Y-122671427D02*
X100159228Y-122861903D01*
X100159228Y-122861903D02*
X100111609Y-122957141D01*
X100111609Y-122957141D02*
X100063990Y-123004760D01*
X100063990Y-123004760D02*
X99968752Y-123052379D01*
X122673809Y-138147438D02*
X122769047Y-138099819D01*
X122769047Y-138099819D02*
X122911904Y-138099819D01*
X122911904Y-138099819D02*
X123054761Y-138147438D01*
X123054761Y-138147438D02*
X123149999Y-138242676D01*
X123149999Y-138242676D02*
X123197618Y-138337914D01*
X123197618Y-138337914D02*
X123245237Y-138528390D01*
X123245237Y-138528390D02*
X123245237Y-138671247D01*
X123245237Y-138671247D02*
X123197618Y-138861723D01*
X123197618Y-138861723D02*
X123149999Y-138956961D01*
X123149999Y-138956961D02*
X123054761Y-139052200D01*
X123054761Y-139052200D02*
X122911904Y-139099819D01*
X122911904Y-139099819D02*
X122816666Y-139099819D01*
X122816666Y-139099819D02*
X122673809Y-139052200D01*
X122673809Y-139052200D02*
X122626190Y-139004580D01*
X122626190Y-139004580D02*
X122626190Y-138671247D01*
X122626190Y-138671247D02*
X122816666Y-138671247D01*
X122197618Y-139099819D02*
X122197618Y-138099819D01*
X122197618Y-138099819D02*
X121626190Y-139099819D01*
X121626190Y-139099819D02*
X121626190Y-138099819D01*
X121149999Y-139099819D02*
X121149999Y-138099819D01*
X121149999Y-138099819D02*
X120911904Y-138099819D01*
X120911904Y-138099819D02*
X120769047Y-138147438D01*
X120769047Y-138147438D02*
X120673809Y-138242676D01*
X120673809Y-138242676D02*
X120626190Y-138337914D01*
X120626190Y-138337914D02*
X120578571Y-138528390D01*
X120578571Y-138528390D02*
X120578571Y-138671247D01*
X120578571Y-138671247D02*
X120626190Y-138861723D01*
X120626190Y-138861723D02*
X120673809Y-138956961D01*
X120673809Y-138956961D02*
X120769047Y-139052200D01*
X120769047Y-139052200D02*
X120911904Y-139099819D01*
X120911904Y-139099819D02*
X121149999Y-139099819D01*
X119435713Y-138195057D02*
X119388094Y-138147438D01*
X119388094Y-138147438D02*
X119292856Y-138099819D01*
X119292856Y-138099819D02*
X119054761Y-138099819D01*
X119054761Y-138099819D02*
X118959523Y-138147438D01*
X118959523Y-138147438D02*
X118911904Y-138195057D01*
X118911904Y-138195057D02*
X118864285Y-138290295D01*
X118864285Y-138290295D02*
X118864285Y-138385533D01*
X118864285Y-138385533D02*
X118911904Y-138528390D01*
X118911904Y-138528390D02*
X119483332Y-139099819D01*
X119483332Y-139099819D02*
X118864285Y-139099819D01*
X118007142Y-138433152D02*
X118007142Y-139099819D01*
X118245237Y-138052200D02*
X118483332Y-138766485D01*
X118483332Y-138766485D02*
X117864285Y-138766485D01*
X117626189Y-138099819D02*
X117292856Y-139099819D01*
X117292856Y-139099819D02*
X116959523Y-138099819D01*
X122864285Y-139709819D02*
X122530952Y-140709819D01*
X122530952Y-140709819D02*
X122197619Y-139709819D01*
X121435714Y-140709819D02*
X121435714Y-140186009D01*
X121435714Y-140186009D02*
X121483333Y-140090771D01*
X121483333Y-140090771D02*
X121578571Y-140043152D01*
X121578571Y-140043152D02*
X121769047Y-140043152D01*
X121769047Y-140043152D02*
X121864285Y-140090771D01*
X121435714Y-140662200D02*
X121530952Y-140709819D01*
X121530952Y-140709819D02*
X121769047Y-140709819D01*
X121769047Y-140709819D02*
X121864285Y-140662200D01*
X121864285Y-140662200D02*
X121911904Y-140566961D01*
X121911904Y-140566961D02*
X121911904Y-140471723D01*
X121911904Y-140471723D02*
X121864285Y-140376485D01*
X121864285Y-140376485D02*
X121769047Y-140328866D01*
X121769047Y-140328866D02*
X121530952Y-140328866D01*
X121530952Y-140328866D02*
X121435714Y-140281247D01*
X120816666Y-140709819D02*
X120911904Y-140662200D01*
X120911904Y-140662200D02*
X120959523Y-140566961D01*
X120959523Y-140566961D02*
X120959523Y-139709819D01*
X120530951Y-140043152D02*
X120292856Y-140709819D01*
X120292856Y-140709819D02*
X120054761Y-140043152D01*
X119292856Y-140662200D02*
X119388094Y-140709819D01*
X119388094Y-140709819D02*
X119578570Y-140709819D01*
X119578570Y-140709819D02*
X119673808Y-140662200D01*
X119673808Y-140662200D02*
X119721427Y-140566961D01*
X119721427Y-140566961D02*
X119721427Y-140186009D01*
X119721427Y-140186009D02*
X119673808Y-140090771D01*
X119673808Y-140090771D02*
X119578570Y-140043152D01*
X119578570Y-140043152D02*
X119388094Y-140043152D01*
X119388094Y-140043152D02*
X119292856Y-140090771D01*
X119292856Y-140090771D02*
X119245237Y-140186009D01*
X119245237Y-140186009D02*
X119245237Y-140281247D01*
X119245237Y-140281247D02*
X119721427Y-140376485D01*
X117911903Y-140138390D02*
X118007141Y-140090771D01*
X118007141Y-140090771D02*
X118054760Y-140043152D01*
X118054760Y-140043152D02*
X118102379Y-139947914D01*
X118102379Y-139947914D02*
X118102379Y-139900295D01*
X118102379Y-139900295D02*
X118054760Y-139805057D01*
X118054760Y-139805057D02*
X118007141Y-139757438D01*
X118007141Y-139757438D02*
X117911903Y-139709819D01*
X117911903Y-139709819D02*
X117721427Y-139709819D01*
X117721427Y-139709819D02*
X117626189Y-139757438D01*
X117626189Y-139757438D02*
X117578570Y-139805057D01*
X117578570Y-139805057D02*
X117530951Y-139900295D01*
X117530951Y-139900295D02*
X117530951Y-139947914D01*
X117530951Y-139947914D02*
X117578570Y-140043152D01*
X117578570Y-140043152D02*
X117626189Y-140090771D01*
X117626189Y-140090771D02*
X117721427Y-140138390D01*
X117721427Y-140138390D02*
X117911903Y-140138390D01*
X117911903Y-140138390D02*
X118007141Y-140186009D01*
X118007141Y-140186009D02*
X118054760Y-140233628D01*
X118054760Y-140233628D02*
X118102379Y-140328866D01*
X118102379Y-140328866D02*
X118102379Y-140519342D01*
X118102379Y-140519342D02*
X118054760Y-140614580D01*
X118054760Y-140614580D02*
X118007141Y-140662200D01*
X118007141Y-140662200D02*
X117911903Y-140709819D01*
X117911903Y-140709819D02*
X117721427Y-140709819D01*
X117721427Y-140709819D02*
X117626189Y-140662200D01*
X117626189Y-140662200D02*
X117578570Y-140614580D01*
X117578570Y-140614580D02*
X117530951Y-140519342D01*
X117530951Y-140519342D02*
X117530951Y-140328866D01*
X117530951Y-140328866D02*
X117578570Y-140233628D01*
X117578570Y-140233628D02*
X117626189Y-140186009D01*
X117626189Y-140186009D02*
X117721427Y-140138390D01*
D12*
X182200000Y-126300000D02*
G75*
G03*
X182200000Y-126300000I-1200000J0D01*
G01*
X153100000Y-128300000D02*
G75*
G03*
X153100000Y-128300000I-1200000J0D01*
G01*
X131100000Y-116400000D02*
G75*
G03*
X131100000Y-116400000I-1200000J0D01*
G01*
X182200000Y-129800000D02*
G75*
G03*
X182200000Y-129800000I-1200000J0D01*
G01*
X131100000Y-120050000D02*
G75*
G03*
X131100000Y-120050000I-1200000J0D01*
G01*
X153100000Y-131550000D02*
G75*
G03*
X153100000Y-131550000I-1200000J0D01*
G01*
%LPC*%
D13*
X148757500Y-138200000D03*
D14*
X148757500Y-133700000D03*
D15*
X172510000Y-87477500D03*
D16*
X169970000Y-87477500D03*
X167430000Y-87477500D03*
X164890000Y-87477500D03*
X162350000Y-87477500D03*
X159810000Y-87477500D03*
X157270000Y-87477500D03*
X154730000Y-87477500D03*
X152190000Y-87477500D03*
X149650000Y-87477500D03*
X147110000Y-87477500D03*
X144570000Y-87477500D03*
X142030000Y-87477500D03*
X139490000Y-87477500D03*
X136950000Y-87477500D03*
X134410000Y-87477500D03*
X131870000Y-87477500D03*
X129330000Y-87477500D03*
X126790000Y-87477500D03*
X172510000Y-112877500D03*
X169970000Y-112877500D03*
X167430000Y-112877500D03*
X164890000Y-112877500D03*
X162350000Y-112877500D03*
X159810000Y-112877500D03*
X157270000Y-112877500D03*
X154730000Y-112877500D03*
X152190000Y-112877500D03*
X149650000Y-112877500D03*
X147110000Y-112877500D03*
X144570000Y-112877500D03*
X142030000Y-112877500D03*
X139490000Y-112877500D03*
X136950000Y-112877500D03*
X134410000Y-112877500D03*
X131870000Y-112877500D03*
X129330000Y-112877500D03*
X126790000Y-112877500D03*
D17*
X177550000Y-114000000D03*
X177550000Y-118700000D03*
X177550000Y-109300000D03*
D18*
X184450000Y-118300000D03*
D19*
X184450000Y-114800000D03*
X184450000Y-111300000D03*
D18*
X166450000Y-81800000D03*
D19*
X162950000Y-81800000D03*
X159450000Y-81800000D03*
D18*
X184450000Y-129800000D03*
D19*
X184450000Y-126300000D03*
X184450000Y-122800000D03*
D18*
X136850000Y-81800000D03*
D19*
X133350000Y-81800000D03*
X129850000Y-81800000D03*
X126350000Y-81800000D03*
D20*
X184900000Y-136800000D03*
X103400000Y-136800000D03*
D18*
X110350000Y-136300000D03*
D19*
X113850000Y-136300000D03*
D18*
X184450000Y-95300000D03*
D19*
X184450000Y-91800000D03*
X184450000Y-88300000D03*
D18*
X103900000Y-99300000D03*
D19*
X103900000Y-102800000D03*
D18*
X177950000Y-81800000D03*
D19*
X174450000Y-81800000D03*
X170950000Y-81800000D03*
D18*
X171000000Y-136300000D03*
D19*
X174500000Y-136300000D03*
X178000000Y-136300000D03*
D18*
X118350000Y-136300000D03*
D19*
X121850000Y-136300000D03*
D18*
X103900000Y-123300000D03*
D19*
X103900000Y-126800000D03*
D18*
X103900000Y-91300000D03*
D19*
X103900000Y-94800000D03*
D20*
X146750000Y-106950000D03*
D18*
X159500000Y-136300000D03*
D19*
X163000000Y-136300000D03*
X166500000Y-136300000D03*
D18*
X184450000Y-106800000D03*
D19*
X184450000Y-103300000D03*
X184450000Y-99800000D03*
D18*
X103900000Y-107300000D03*
D19*
X103900000Y-110800000D03*
D18*
X113850000Y-81800000D03*
D19*
X110350000Y-81800000D03*
D20*
X184900000Y-81300000D03*
X103400000Y-81300000D03*
D18*
X121850000Y-81800000D03*
D19*
X118350000Y-81800000D03*
D18*
X103900000Y-115300000D03*
D19*
X103900000Y-118800000D03*
D21*
X181000000Y-126300000D03*
X151900000Y-128300000D03*
X129900000Y-116400000D03*
X181000000Y-129800000D03*
X129900000Y-120050000D03*
X151900000Y-131550000D03*
%LPD*%
M02*
