M48
; DRILL file {KiCad 7.0.7} date Wed Sep 27 11:52:37 2023
; FORMAT={-:-/ absolute / metric / decimal}
; #@! TF.CreationDate,2023-09-27T11:52:37+02:00
; #@! TF.GenerationSoftware,Kicad,Pcbnew,7.0.7
; #@! TF.FileFunction,Plated,1,4,PTH
FMAT,2
METRIC
; #@! TA.AperFunction,Plated,PTH,ViaDrill
T1C0.400
; #@! TA.AperFunction,Plated,PTH,ComponentDrill
T2C1.040
; #@! TA.AperFunction,Plated,PTH,ComponentDrill
T3C1.200
; #@! TA.AperFunction,Plated,PTH,ComponentDrill
T4C1.500
%
G90
G05
T1
X106.1Y-125.375
X106.1Y-126.525
X106.1Y-127.725
X106.1Y-128.875
X106.2Y-101.325
X106.2Y-102.475
X106.2Y-103.675
X106.2Y-104.825
X106.2Y-109.325
X106.2Y-110.475
X106.2Y-111.675
X106.2Y-112.825
X106.2Y-117.325
X106.2Y-118.475
X106.2Y-119.675
X106.2Y-120.825
X106.3Y-93.325
X106.3Y-94.475
X106.3Y-95.675
X106.3Y-96.825
X107.3Y-125.35
X107.3Y-126.5
X107.3Y-127.7
X107.3Y-128.85
X107.4Y-101.3
X107.4Y-102.45
X107.4Y-103.65
X107.4Y-104.8
X107.4Y-109.3
X107.4Y-110.45
X107.4Y-111.65
X107.4Y-112.8
X107.4Y-117.3
X107.4Y-118.45
X107.4Y-119.65
X107.4Y-120.8
X107.5Y-93.3
X107.5Y-94.45
X107.5Y-95.65
X107.5Y-96.8
X108.075Y-84.1
X108.1Y-85.3
X109.225Y-84.1
X109.25Y-85.3
X110.425Y-84.1
X110.45Y-85.3
X111.55Y-102.6
X111.55Y-103.65
X111.575Y-84.1
X111.6Y-85.3
X112.1Y-94.7
X112.1Y-95.75
X112.1Y-96.8
X112.4Y-132.9
X112.425Y-134.1
X112.6Y-102.6
X112.6Y-103.65
X112.9Y-119.8
X112.9Y-120.85
X113.15Y-94.7
X113.15Y-95.75
X113.15Y-96.8
X113.55Y-132.9
X113.575Y-134.1
X113.65Y-102.6
X113.65Y-103.65
X113.95Y-119.8
X113.95Y-120.85
X114.75Y-132.9
X114.775Y-134.1
X115.0Y-119.8
X115.0Y-120.85
X115.45Y-106.9
X115.45Y-107.95
X115.45Y-109.0
X115.55Y-114.1
X115.55Y-115.15
X115.55Y-116.2
X115.65Y-93.5
X115.65Y-94.55
X115.65Y-95.6
X115.9Y-132.9
X115.925Y-134.1
X116.125Y-84.1
X116.15Y-85.3
X116.5Y-106.9
X116.5Y-107.95
X116.5Y-109.0
X116.6Y-114.1
X116.6Y-115.15
X116.6Y-116.2
X116.7Y-93.5
X116.7Y-94.55
X116.7Y-95.6
X117.0Y-125.8
X117.0Y-126.85
X117.0Y-127.9
X117.1Y-102.6
X117.275Y-84.1
X117.3Y-85.3
X118.05Y-125.8
X118.05Y-126.85
X118.05Y-127.9
X118.475Y-84.1
X118.5Y-85.3
X119.2Y-110.6
X119.5Y-120.1
X119.625Y-84.1
X119.65Y-85.3
X119.9Y-94.9
X120.25Y-122.15
X120.55Y-132.9
X120.575Y-134.1
X120.6Y-89.3
X120.8Y-106.9
X121.7Y-132.9
X121.725Y-134.1
X122.45Y-93.5
X122.45Y-94.55
X122.9Y-132.9
X122.925Y-134.1
X123.5Y-93.5
X123.5Y-94.55
X124.05Y-132.9
X124.075Y-134.1
X124.55Y-93.5
X124.55Y-94.55
X125.4Y-125.95
X125.4Y-127.0
X125.4Y-128.05
X126.2Y-136.35
X126.45Y-125.95
X126.45Y-127.0
X126.45Y-128.05
X126.55Y-139.35
X127.25Y-124.1
X127.7Y-133.6
X128.05Y-104.25
X128.2Y-137.8
X128.4Y-129.8
X128.6Y-133.6
X129.2Y-127.15
X129.5Y-133.6
X129.9Y-94.7
X129.95Y-129.8
X130.4Y-133.6
X131.3Y-133.6
X131.35Y-121.2
X131.5Y-129.8
X132.2Y-133.6
X133.4Y-139.35
X133.45Y-119.1
X134.1Y-133.7
X135.9Y-134.05
X137.6Y-105.3
X138.2Y-129.6
X138.85Y-121.35
X138.85Y-124.5
X138.9Y-105.3
X139.1Y-127.65
X140.1Y-121.35
X140.1Y-124.5
X141.35Y-121.35
X141.35Y-124.5
X142.5Y-135.2
X143.9Y-120.5
X143.9Y-121.6
X143.9Y-124.6
X143.9Y-125.8
X145.0Y-120.5
X145.0Y-121.6
X145.0Y-124.6
X145.0Y-125.8
X146.53Y-118.75
X147.2Y-120.5
X147.2Y-121.6
X148.5Y-85.8
X151.15Y-134.05
X151.15Y-135.55
X151.15Y-137.05
X151.15Y-138.55
X152.4Y-134.05
X152.4Y-135.55
X152.4Y-137.05
X152.4Y-138.55
X153.2Y-80.7
X153.2Y-81.8
X153.25Y-119.35
X153.65Y-128.3
X153.9Y-134.05
X153.9Y-135.55
X154.7Y-80.7
X154.7Y-81.8
X155.15Y-134.05
X155.15Y-135.55
X156.2Y-80.7
X156.2Y-81.8
X156.65Y-117.6
X156.65Y-131.05
X156.65Y-132.55
X156.65Y-134.05
X156.65Y-135.55
X156.65Y-137.05
X156.65Y-138.55
X157.74Y-104.01
X157.74Y-107.01
X157.74Y-110.01
X157.9Y-131.05
X157.9Y-132.55
X157.9Y-134.05
X157.9Y-138.55
X159.15Y-131.05
X159.15Y-132.55
X159.15Y-134.05
X159.15Y-138.55
X159.4Y-115.9
X160.4Y-131.05
X160.4Y-132.55
X160.4Y-134.05
X160.4Y-138.55
X161.45Y-98.85
X162.7Y-98.85
X166.55Y-96.05
X170.15Y-116.55
X170.15Y-119.45
X171.4Y-116.55
X171.4Y-119.45
X172.3Y-99.9
X172.65Y-116.55
X172.65Y-119.45
X172.75Y-123.85
X172.75Y-125.1
X172.75Y-129.15
X172.75Y-130.4
X174.0Y-123.85
X174.0Y-125.1
X174.0Y-129.15
X174.0Y-130.4
X175.25Y-123.85
X175.25Y-125.1
X175.25Y-129.15
X175.25Y-130.4
X176.5Y-123.85
X176.5Y-125.1
X176.5Y-129.15
X176.5Y-130.4
T2
X126.79Y-87.477
X126.79Y-112.877
X129.33Y-87.477
X129.33Y-112.877
X131.87Y-87.477
X131.87Y-112.877
X134.41Y-87.477
X134.41Y-112.877
X136.95Y-87.477
X136.95Y-112.877
X139.49Y-87.477
X139.49Y-112.877
X142.03Y-87.477
X142.03Y-112.877
X144.57Y-87.477
X144.57Y-112.877
X147.11Y-87.477
X147.11Y-112.877
X149.65Y-87.477
X149.65Y-112.877
X152.19Y-87.477
X152.19Y-112.877
X154.73Y-87.477
X154.73Y-112.877
X157.27Y-87.477
X157.27Y-112.877
X159.81Y-87.477
X159.81Y-112.877
X162.35Y-87.477
X162.35Y-112.877
X164.89Y-87.477
X164.89Y-112.877
X167.43Y-87.477
X167.43Y-112.877
X169.97Y-87.477
X169.97Y-112.877
X172.51Y-87.477
X172.51Y-112.877
T3
X103.9Y-91.3
X103.9Y-94.8
X103.9Y-99.3
X103.9Y-102.8
X103.9Y-107.3
X103.9Y-110.8
X103.9Y-115.3
X103.9Y-118.8
X103.9Y-123.3
X103.9Y-126.8
X110.35Y-81.8
X110.35Y-136.3
X113.85Y-81.8
X113.85Y-136.3
X118.35Y-81.8
X118.35Y-136.3
X121.85Y-81.8
X121.85Y-136.3
X126.35Y-81.8
X129.85Y-81.8
X133.35Y-81.8
X136.85Y-81.8
X159.45Y-81.8
X159.5Y-136.3
X162.95Y-81.8
X163.0Y-136.3
X166.45Y-81.8
X166.5Y-136.3
X170.95Y-81.8
X171.0Y-136.3
X174.45Y-81.8
X174.5Y-136.3
X177.95Y-81.8
X178.0Y-136.3
X184.45Y-88.3
X184.45Y-91.8
X184.45Y-95.3
X184.45Y-99.8
X184.45Y-103.3
X184.45Y-106.8
X184.45Y-111.3
X184.45Y-114.8
X184.45Y-118.3
X184.45Y-122.8
X184.45Y-126.3
X184.45Y-129.8
T4
X177.55Y-109.3
X177.55Y-114.0
X177.55Y-118.7
T0
M30
