G04 #@! TF.GenerationSoftware,KiCad,Pcbnew,7.0.7*
G04 #@! TF.CreationDate,2023-09-27T11:52:31+02:00*
G04 #@! TF.ProjectId,PCB_Layout_MOSFET,5043425f-4c61-4796-9f75-745f4d4f5346,rev?*
G04 #@! TF.SameCoordinates,Original*
G04 #@! TF.FileFunction,Copper,L2,Inr*
G04 #@! TF.FilePolarity,Positive*
%FSLAX46Y46*%
G04 Gerber Fmt 4.6, Leading zero omitted, Abs format (unit mm)*
G04 Created by KiCad (PCBNEW 7.0.7) date 2023-09-27 11:52:31*
%MOMM*%
%LPD*%
G01*
G04 APERTURE LIST*
G04 #@! TA.AperFunction,ComponentPad*
%ADD10R,1.560000X1.560000*%
G04 #@! TD*
G04 #@! TA.AperFunction,ComponentPad*
%ADD11C,1.560000*%
G04 #@! TD*
G04 #@! TA.AperFunction,ComponentPad*
%ADD12C,2.500000*%
G04 #@! TD*
G04 #@! TA.AperFunction,ComponentPad*
%ADD13R,2.400000X2.400000*%
G04 #@! TD*
G04 #@! TA.AperFunction,ComponentPad*
%ADD14C,2.400000*%
G04 #@! TD*
G04 #@! TA.AperFunction,ViaPad*
%ADD15C,0.800000*%
G04 #@! TD*
G04 APERTURE END LIST*
D10*
X172510000Y-87477500D03*
D11*
X169970000Y-87477500D03*
X167430000Y-87477500D03*
X164890000Y-87477500D03*
X162350000Y-87477500D03*
X159810000Y-87477500D03*
X157270000Y-87477500D03*
X154730000Y-87477500D03*
X152190000Y-87477500D03*
X149650000Y-87477500D03*
X147110000Y-87477500D03*
X144570000Y-87477500D03*
X142030000Y-87477500D03*
X139490000Y-87477500D03*
X136950000Y-87477500D03*
X134410000Y-87477500D03*
X131870000Y-87477500D03*
X129330000Y-87477500D03*
X126790000Y-87477500D03*
X172510000Y-112877500D03*
X169970000Y-112877500D03*
X167430000Y-112877500D03*
X164890000Y-112877500D03*
X162350000Y-112877500D03*
X159810000Y-112877500D03*
X157270000Y-112877500D03*
X154730000Y-112877500D03*
X152190000Y-112877500D03*
X149650000Y-112877500D03*
X147110000Y-112877500D03*
X144570000Y-112877500D03*
X142030000Y-112877500D03*
X139490000Y-112877500D03*
X136950000Y-112877500D03*
X134410000Y-112877500D03*
X131870000Y-112877500D03*
X129330000Y-112877500D03*
X126790000Y-112877500D03*
D12*
X177550000Y-114000000D03*
X177550000Y-118700000D03*
X177550000Y-109300000D03*
D13*
X184450000Y-118300000D03*
D14*
X184450000Y-114800000D03*
X184450000Y-111300000D03*
D13*
X166450000Y-81800000D03*
D14*
X162950000Y-81800000D03*
X159450000Y-81800000D03*
D13*
X184450000Y-129800000D03*
D14*
X184450000Y-126300000D03*
X184450000Y-122800000D03*
D13*
X136850000Y-81800000D03*
D14*
X133350000Y-81800000D03*
X129850000Y-81800000D03*
X126350000Y-81800000D03*
D13*
X110350000Y-136300000D03*
D14*
X113850000Y-136300000D03*
D13*
X184450000Y-95300000D03*
D14*
X184450000Y-91800000D03*
X184450000Y-88300000D03*
D13*
X103900000Y-99300000D03*
D14*
X103900000Y-102800000D03*
D13*
X177950000Y-81800000D03*
D14*
X174450000Y-81800000D03*
X170950000Y-81800000D03*
D13*
X171000000Y-136300000D03*
D14*
X174500000Y-136300000D03*
X178000000Y-136300000D03*
D13*
X118350000Y-136300000D03*
D14*
X121850000Y-136300000D03*
D13*
X103900000Y-123300000D03*
D14*
X103900000Y-126800000D03*
D13*
X103900000Y-91300000D03*
D14*
X103900000Y-94800000D03*
D13*
X159500000Y-136300000D03*
D14*
X163000000Y-136300000D03*
X166500000Y-136300000D03*
D13*
X184450000Y-106800000D03*
D14*
X184450000Y-103300000D03*
X184450000Y-99800000D03*
D13*
X103900000Y-107300000D03*
D14*
X103900000Y-110800000D03*
D13*
X113850000Y-81800000D03*
D14*
X110350000Y-81800000D03*
D13*
X121850000Y-81800000D03*
D14*
X118350000Y-81800000D03*
D13*
X103900000Y-115300000D03*
D14*
X103900000Y-118800000D03*
D15*
X157900000Y-138550000D03*
X157900000Y-134050000D03*
X174000000Y-130400000D03*
X175250000Y-129150000D03*
X172750000Y-129150000D03*
X174000000Y-129150000D03*
X176500000Y-130400000D03*
X176500000Y-129150000D03*
X175250000Y-130400000D03*
X172750000Y-130400000D03*
X153650000Y-128300000D03*
X120600000Y-89300000D03*
X115450000Y-109000000D03*
X139100000Y-127650000D03*
X126450000Y-125950000D03*
X137600000Y-105300000D03*
X162700000Y-98850000D03*
X172750000Y-125100000D03*
X175250000Y-125100000D03*
X116700000Y-93500000D03*
X141350000Y-124500000D03*
X117000000Y-126850000D03*
X115650000Y-94550000D03*
X155150000Y-135550000D03*
X129950000Y-129800000D03*
X125400000Y-125950000D03*
X126200000Y-136350000D03*
X176500000Y-123850000D03*
X153200000Y-81800000D03*
X124550000Y-94550000D03*
X127250000Y-124100000D03*
X112900000Y-119800000D03*
X152400000Y-134050000D03*
X112100000Y-95750000D03*
X123500000Y-94550000D03*
X120800000Y-106900000D03*
X151150000Y-135550000D03*
X113650000Y-102600000D03*
X131350000Y-121200000D03*
X153200000Y-80700000D03*
X126450000Y-128050000D03*
X116500000Y-109000000D03*
X112600000Y-103650000D03*
X113150000Y-96800000D03*
X115650000Y-95600000D03*
X125400000Y-127000000D03*
X155150000Y-134050000D03*
X120250000Y-122150000D03*
X140100000Y-121350000D03*
X152400000Y-138550000D03*
X176500000Y-125100000D03*
X152400000Y-135550000D03*
X118050000Y-125800000D03*
X170150000Y-116550000D03*
X156650000Y-132550000D03*
X171400000Y-119450000D03*
X113950000Y-119800000D03*
X174000000Y-123850000D03*
X111550000Y-103650000D03*
X153250000Y-119350000D03*
X157740489Y-107009511D03*
X115650000Y-93500000D03*
X112100000Y-96800000D03*
X126550000Y-139350000D03*
X157740489Y-104009511D03*
X115450000Y-106900000D03*
X151150000Y-137050000D03*
X117000000Y-127900000D03*
X138900000Y-105300000D03*
X146530000Y-118750000D03*
X172650000Y-119450000D03*
X141350000Y-121350000D03*
X115550000Y-115150000D03*
X113150000Y-95750000D03*
X116700000Y-94550000D03*
X117100000Y-102600000D03*
X134100000Y-133700000D03*
X153900000Y-134050000D03*
X113950000Y-120850000D03*
X172300000Y-99900000D03*
X156200000Y-81800000D03*
X116600000Y-115150000D03*
X128400000Y-129800000D03*
X118050000Y-127900000D03*
X124550000Y-93500000D03*
X129200000Y-127150000D03*
X151150000Y-138550000D03*
X123500000Y-93500000D03*
X119200000Y-110600000D03*
X156650000Y-137050000D03*
X161450000Y-98850000D03*
X122450000Y-93500000D03*
X172750000Y-123850000D03*
X159150000Y-132550000D03*
X157900000Y-131050000D03*
X116600000Y-116200000D03*
X138850000Y-124500000D03*
X160400000Y-131050000D03*
X115550000Y-114100000D03*
X153900000Y-135550000D03*
X156200000Y-80700000D03*
X113650000Y-103650000D03*
X175250000Y-123850000D03*
X160400000Y-134050000D03*
X135900000Y-134050000D03*
X116700000Y-95600000D03*
X138850000Y-121350000D03*
X159150000Y-134050000D03*
X156650000Y-117600000D03*
X154700000Y-81800000D03*
X157900000Y-132550000D03*
X129900000Y-94700000D03*
X112100000Y-94700000D03*
X112900000Y-120850000D03*
X160400000Y-138550000D03*
X138200000Y-129600000D03*
X116600000Y-114100000D03*
X115550000Y-116200000D03*
X156650000Y-131050000D03*
X115000000Y-120850000D03*
X131500000Y-129800000D03*
X119500000Y-120100000D03*
X156650000Y-138550000D03*
X117000000Y-125800000D03*
X156650000Y-135550000D03*
X170150000Y-119450000D03*
X160400000Y-132550000D03*
X172650000Y-116550000D03*
X126450000Y-127000000D03*
X157740489Y-110009511D03*
X156650000Y-134050000D03*
X159150000Y-138550000D03*
X154700000Y-80700000D03*
X111550000Y-102600000D03*
X119900000Y-94900000D03*
X140100000Y-124500000D03*
X159150000Y-131050000D03*
X171400000Y-116550000D03*
X122450000Y-94550000D03*
X128050000Y-104250000D03*
X125400000Y-128050000D03*
X112600000Y-102600000D03*
X128200000Y-137800000D03*
X113150000Y-94700000D03*
X115450000Y-107950000D03*
X151150000Y-134050000D03*
X116500000Y-107950000D03*
X159400000Y-115900000D03*
X118050000Y-126850000D03*
X116500000Y-106900000D03*
X174000000Y-125100000D03*
X115000000Y-119800000D03*
X152400000Y-137050000D03*
X166550000Y-96050000D03*
X107400000Y-104800000D03*
X109250000Y-85300000D03*
X143900000Y-125800000D03*
X120575000Y-134100000D03*
X133450000Y-119100000D03*
X115925000Y-134100000D03*
X127700000Y-133600000D03*
X118500000Y-85300000D03*
X107500000Y-95650000D03*
X128600000Y-133600000D03*
X115900000Y-132900000D03*
X107400000Y-117300000D03*
X108075000Y-84100000D03*
X107300000Y-128850000D03*
X145000000Y-121600000D03*
X122900000Y-132900000D03*
X106200000Y-112825000D03*
X106200000Y-102475000D03*
X106200000Y-119675000D03*
X106300000Y-94475000D03*
X106100000Y-126525000D03*
X131300000Y-133600000D03*
X132200000Y-133600000D03*
X106200000Y-117325000D03*
X122925000Y-134100000D03*
X107500000Y-94450000D03*
X113550000Y-132900000D03*
X119650000Y-85300000D03*
X120550000Y-132900000D03*
X106200000Y-110475000D03*
X106200000Y-104825000D03*
X107300000Y-127700000D03*
X107400000Y-110450000D03*
X106200000Y-101325000D03*
X124050000Y-132900000D03*
X112425000Y-134100000D03*
X143900000Y-120500000D03*
X107300000Y-125350000D03*
X114775000Y-134100000D03*
X107400000Y-103650000D03*
X117300000Y-85300000D03*
X121725000Y-134100000D03*
X147200000Y-121600000D03*
X107400000Y-112800000D03*
X130400000Y-133600000D03*
X107400000Y-118450000D03*
X143900000Y-121600000D03*
X124075000Y-134100000D03*
X106200000Y-109325000D03*
X106200000Y-103675000D03*
X111600000Y-85300000D03*
X133400000Y-139350000D03*
X107500000Y-93300000D03*
X129500000Y-133600000D03*
X107300000Y-126500000D03*
X107400000Y-109300000D03*
X107400000Y-102450000D03*
X107400000Y-101300000D03*
X106100000Y-125375000D03*
X116125000Y-84100000D03*
X107400000Y-111650000D03*
X107400000Y-119650000D03*
X106200000Y-111675000D03*
X121700000Y-132900000D03*
X107500000Y-96800000D03*
X108100000Y-85300000D03*
X106100000Y-128875000D03*
X145000000Y-124600000D03*
X106300000Y-95675000D03*
X106200000Y-120825000D03*
X113575000Y-134100000D03*
X145000000Y-120500000D03*
X143900000Y-124600000D03*
X111575000Y-84100000D03*
X110450000Y-85300000D03*
X106200000Y-118475000D03*
X118475000Y-84100000D03*
X106300000Y-93325000D03*
X116150000Y-85300000D03*
X117275000Y-84100000D03*
X145000000Y-125800000D03*
X112400000Y-132900000D03*
X107400000Y-120800000D03*
X109225000Y-84100000D03*
X106300000Y-96825000D03*
X110425000Y-84100000D03*
X106100000Y-127725000D03*
X114750000Y-132900000D03*
X147200000Y-120500000D03*
X119625000Y-84100000D03*
X148500000Y-85800000D03*
X142500000Y-135200000D03*
G04 #@! TA.AperFunction,Conductor*
G36*
X188841621Y-77320502D02*
G01*
X188888114Y-77374158D01*
X188899500Y-77426500D01*
X188899500Y-140673500D01*
X188879498Y-140741621D01*
X188825842Y-140788114D01*
X188773500Y-140799500D01*
X99526500Y-140799500D01*
X99458379Y-140779498D01*
X99411886Y-140725842D01*
X99400500Y-140673500D01*
X99400500Y-139350000D01*
X132486496Y-139350000D01*
X132506457Y-139539927D01*
X132536526Y-139632470D01*
X132565473Y-139721556D01*
X132565476Y-139721561D01*
X132660958Y-139886941D01*
X132660965Y-139886951D01*
X132788744Y-140028864D01*
X132788747Y-140028866D01*
X132943248Y-140141118D01*
X133117712Y-140218794D01*
X133304513Y-140258500D01*
X133495487Y-140258500D01*
X133682288Y-140218794D01*
X133856752Y-140141118D01*
X134011253Y-140028866D01*
X134139040Y-139886944D01*
X134234527Y-139721556D01*
X134293542Y-139539928D01*
X134313504Y-139350000D01*
X134293542Y-139160072D01*
X134234527Y-138978444D01*
X134139040Y-138813056D01*
X134139038Y-138813054D01*
X134139034Y-138813048D01*
X134011255Y-138671135D01*
X133856752Y-138558882D01*
X133682288Y-138481206D01*
X133495487Y-138441500D01*
X133304513Y-138441500D01*
X133117711Y-138481206D01*
X132943247Y-138558882D01*
X132788744Y-138671135D01*
X132660965Y-138813048D01*
X132660958Y-138813058D01*
X132565476Y-138978438D01*
X132565473Y-138978444D01*
X132557494Y-139003000D01*
X132506457Y-139160072D01*
X132486496Y-139350000D01*
X99400500Y-139350000D01*
X99400500Y-136722773D01*
X100991788Y-136722773D01*
X101001683Y-137031355D01*
X101001684Y-137031364D01*
X101050960Y-137336157D01*
X101050961Y-137336160D01*
X101138805Y-137632136D01*
X101138805Y-137632137D01*
X101186147Y-137739083D01*
X101263783Y-137914463D01*
X101404875Y-138147207D01*
X101423837Y-138178487D01*
X101616333Y-138419871D01*
X101616341Y-138419880D01*
X101826356Y-138623267D01*
X101838126Y-138634666D01*
X101967160Y-138730966D01*
X102085555Y-138819327D01*
X102085557Y-138819328D01*
X102085561Y-138819331D01*
X102354579Y-138970839D01*
X102640763Y-139086702D01*
X102939413Y-139165018D01*
X103245626Y-139204500D01*
X103245631Y-139204500D01*
X103477106Y-139204500D01*
X103569114Y-139198592D01*
X103708114Y-139189668D01*
X104011168Y-139130649D01*
X104304187Y-139033360D01*
X104582359Y-138899399D01*
X104758922Y-138784468D01*
X104841110Y-138730971D01*
X104841112Y-138730969D01*
X104841117Y-138730966D01*
X105076212Y-138530827D01*
X105283784Y-138302268D01*
X105391949Y-138147205D01*
X147649232Y-138147205D01*
X147659268Y-138357893D01*
X147659269Y-138357904D01*
X147708998Y-138562886D01*
X147708998Y-138562888D01*
X147708999Y-138562890D01*
X147796624Y-138754762D01*
X147918978Y-138926584D01*
X148071638Y-139072145D01*
X148071640Y-139072146D01*
X148071642Y-139072148D01*
X148094286Y-139086700D01*
X148249087Y-139186184D01*
X148444911Y-139264580D01*
X148652033Y-139304500D01*
X148652037Y-139304500D01*
X148810113Y-139304500D01*
X148810130Y-139304499D01*
X148967469Y-139289474D01*
X148967469Y-139289473D01*
X148967479Y-139289473D01*
X149169868Y-139230047D01*
X149357354Y-139133391D01*
X149523159Y-139003000D01*
X149661292Y-138843587D01*
X149766759Y-138660913D01*
X149835748Y-138461580D01*
X149865767Y-138252793D01*
X149855731Y-138042098D01*
X149806001Y-137837110D01*
X149718376Y-137645238D01*
X149596022Y-137473416D01*
X149443362Y-137327855D01*
X149443359Y-137327853D01*
X149443357Y-137327851D01*
X149265913Y-137213816D01*
X149070089Y-137135420D01*
X149070086Y-137135419D01*
X149070085Y-137135419D01*
X148862971Y-137095500D01*
X148862967Y-137095500D01*
X148704887Y-137095500D01*
X148704869Y-137095500D01*
X148547530Y-137110525D01*
X148547515Y-137110528D01*
X148345129Y-137169953D01*
X148157648Y-137266607D01*
X148157641Y-137266611D01*
X147991847Y-137396994D01*
X147991834Y-137397006D01*
X147853712Y-137556407D01*
X147853706Y-137556415D01*
X147748243Y-137739083D01*
X147748239Y-137739092D01*
X147679253Y-137938417D01*
X147679250Y-137938425D01*
X147649232Y-138147205D01*
X105391949Y-138147205D01*
X105460424Y-138049041D01*
X105603231Y-137775305D01*
X105686643Y-137548649D01*
X108641500Y-137548649D01*
X108648009Y-137609196D01*
X108648011Y-137609204D01*
X108699110Y-137746202D01*
X108699112Y-137746207D01*
X108786738Y-137863261D01*
X108903792Y-137950887D01*
X108903794Y-137950888D01*
X108903796Y-137950889D01*
X108955924Y-137970332D01*
X109040795Y-138001988D01*
X109040803Y-138001990D01*
X109101350Y-138008499D01*
X109101355Y-138008499D01*
X109101362Y-138008500D01*
X109101368Y-138008500D01*
X111598632Y-138008500D01*
X111598638Y-138008500D01*
X111598645Y-138008499D01*
X111598649Y-138008499D01*
X111659196Y-138001990D01*
X111659199Y-138001989D01*
X111659201Y-138001989D01*
X111796204Y-137950889D01*
X111844864Y-137914463D01*
X111913261Y-137863261D01*
X112000887Y-137746207D01*
X112000887Y-137746206D01*
X112000889Y-137746204D01*
X112051989Y-137609201D01*
X112058500Y-137548638D01*
X112058499Y-137077712D01*
X112078502Y-137009592D01*
X112132158Y-136963099D01*
X112202432Y-136952995D01*
X112267012Y-136982489D01*
X112301790Y-137031681D01*
X112306372Y-137043358D01*
X112306376Y-137043366D01*
X112434410Y-137265127D01*
X112434412Y-137265130D01*
X112434413Y-137265131D01*
X112594069Y-137465334D01*
X112781781Y-137639505D01*
X112781787Y-137639509D01*
X112993345Y-137783748D01*
X112993352Y-137783752D01*
X112993355Y-137783754D01*
X113104150Y-137837110D01*
X113224060Y-137894856D01*
X113224073Y-137894861D01*
X113468746Y-137970332D01*
X113468748Y-137970332D01*
X113468757Y-137970335D01*
X113721966Y-138008500D01*
X113721970Y-138008500D01*
X113978030Y-138008500D01*
X113978034Y-138008500D01*
X114231243Y-137970335D01*
X114294286Y-137950889D01*
X114475929Y-137894860D01*
X114475930Y-137894859D01*
X114475935Y-137894858D01*
X114706646Y-137783754D01*
X114918219Y-137639505D01*
X115105931Y-137465334D01*
X115265587Y-137265131D01*
X115393622Y-137043369D01*
X115393627Y-137043358D01*
X115429091Y-136952995D01*
X115487174Y-136805001D01*
X115544155Y-136555353D01*
X115563291Y-136300000D01*
X115544155Y-136044647D01*
X115487174Y-135794999D01*
X115429521Y-135648100D01*
X115393625Y-135556637D01*
X115393623Y-135556633D01*
X115265589Y-135334872D01*
X115265587Y-135334869D01*
X115105931Y-135134666D01*
X115105929Y-135134664D01*
X115105925Y-135134659D01*
X115102722Y-135131207D01*
X115104377Y-135129671D01*
X115072871Y-135076463D01*
X115075468Y-135005514D01*
X115116011Y-134947232D01*
X115143733Y-134930306D01*
X115231752Y-134891118D01*
X115275939Y-134859013D01*
X115342805Y-134835155D01*
X115411957Y-134851234D01*
X115424053Y-134859008D01*
X115449597Y-134877567D01*
X115468246Y-134891117D01*
X115468247Y-134891117D01*
X115468248Y-134891118D01*
X115642712Y-134968794D01*
X115829513Y-135008500D01*
X116020487Y-135008500D01*
X116207288Y-134968794D01*
X116381752Y-134891118D01*
X116459775Y-134834430D01*
X116526639Y-134810574D01*
X116595791Y-134826654D01*
X116645271Y-134877567D01*
X116659371Y-134947150D01*
X116651890Y-134980396D01*
X116648012Y-134990794D01*
X116648009Y-134990803D01*
X116641500Y-135051350D01*
X116641500Y-137548649D01*
X116648009Y-137609196D01*
X116648011Y-137609204D01*
X116699110Y-137746202D01*
X116699112Y-137746207D01*
X116786738Y-137863261D01*
X116903792Y-137950887D01*
X116903794Y-137950888D01*
X116903796Y-137950889D01*
X116955924Y-137970332D01*
X117040795Y-138001988D01*
X117040803Y-138001990D01*
X117101350Y-138008499D01*
X117101355Y-138008499D01*
X117101362Y-138008500D01*
X117101368Y-138008500D01*
X119598632Y-138008500D01*
X119598638Y-138008500D01*
X119598645Y-138008499D01*
X119598649Y-138008499D01*
X119659196Y-138001990D01*
X119659199Y-138001989D01*
X119659201Y-138001989D01*
X119796204Y-137950889D01*
X119844864Y-137914463D01*
X119913261Y-137863261D01*
X120000887Y-137746207D01*
X120000887Y-137746206D01*
X120000889Y-137746204D01*
X120051989Y-137609201D01*
X120058500Y-137548638D01*
X120058499Y-137077712D01*
X120078502Y-137009592D01*
X120132158Y-136963099D01*
X120202432Y-136952995D01*
X120267012Y-136982489D01*
X120301790Y-137031681D01*
X120306372Y-137043358D01*
X120306376Y-137043366D01*
X120434410Y-137265127D01*
X120434412Y-137265130D01*
X120434413Y-137265131D01*
X120594069Y-137465334D01*
X120781781Y-137639505D01*
X120781787Y-137639509D01*
X120993345Y-137783748D01*
X120993352Y-137783752D01*
X120993355Y-137783754D01*
X121104150Y-137837110D01*
X121224060Y-137894856D01*
X121224073Y-137894861D01*
X121468746Y-137970332D01*
X121468748Y-137970332D01*
X121468757Y-137970335D01*
X121721966Y-138008500D01*
X121721970Y-138008500D01*
X121978030Y-138008500D01*
X121978034Y-138008500D01*
X122231243Y-137970335D01*
X122294286Y-137950889D01*
X122475929Y-137894860D01*
X122475930Y-137894859D01*
X122475935Y-137894858D01*
X122706646Y-137783754D01*
X122918219Y-137639505D01*
X123105931Y-137465334D01*
X123265587Y-137265131D01*
X123393622Y-137043369D01*
X123393627Y-137043358D01*
X123429091Y-136952995D01*
X123487174Y-136805001D01*
X123544155Y-136555353D01*
X123563291Y-136300000D01*
X161286709Y-136300000D01*
X161305845Y-136555356D01*
X161362826Y-136805002D01*
X161362827Y-136805005D01*
X161456374Y-137043362D01*
X161456376Y-137043366D01*
X161584410Y-137265127D01*
X161584412Y-137265130D01*
X161584413Y-137265131D01*
X161744069Y-137465334D01*
X161931781Y-137639505D01*
X161931787Y-137639509D01*
X162143345Y-137783748D01*
X162143352Y-137783752D01*
X162143355Y-137783754D01*
X162254150Y-137837110D01*
X162374060Y-137894856D01*
X162374073Y-137894861D01*
X162618746Y-137970332D01*
X162618748Y-137970332D01*
X162618757Y-137970335D01*
X162871966Y-138008500D01*
X162871970Y-138008500D01*
X163128030Y-138008500D01*
X163128034Y-138008500D01*
X163381243Y-137970335D01*
X163444286Y-137950889D01*
X163625929Y-137894860D01*
X163625930Y-137894859D01*
X163625935Y-137894858D01*
X163856646Y-137783754D01*
X164068219Y-137639505D01*
X164255931Y-137465334D01*
X164415587Y-137265131D01*
X164543622Y-137043369D01*
X164543625Y-137043362D01*
X164632710Y-136816376D01*
X164676216Y-136760272D01*
X164743149Y-136736595D01*
X164812256Y-136752864D01*
X164861598Y-136803912D01*
X164867290Y-136816376D01*
X164956374Y-137043362D01*
X164956376Y-137043366D01*
X165084410Y-137265127D01*
X165084412Y-137265130D01*
X165084413Y-137265131D01*
X165244069Y-137465334D01*
X165431781Y-137639505D01*
X165431787Y-137639509D01*
X165643345Y-137783748D01*
X165643352Y-137783752D01*
X165643355Y-137783754D01*
X165754150Y-137837110D01*
X165874060Y-137894856D01*
X165874073Y-137894861D01*
X166118746Y-137970332D01*
X166118748Y-137970332D01*
X166118757Y-137970335D01*
X166371966Y-138008500D01*
X166371970Y-138008500D01*
X166628030Y-138008500D01*
X166628034Y-138008500D01*
X166881243Y-137970335D01*
X166944286Y-137950889D01*
X167125929Y-137894860D01*
X167125930Y-137894859D01*
X167125935Y-137894858D01*
X167356646Y-137783754D01*
X167568219Y-137639505D01*
X167755931Y-137465334D01*
X167915587Y-137265131D01*
X168043622Y-137043369D01*
X168043627Y-137043358D01*
X168079091Y-136952995D01*
X168137174Y-136805001D01*
X168194155Y-136555353D01*
X168213291Y-136300000D01*
X172786709Y-136300000D01*
X172805845Y-136555356D01*
X172862826Y-136805002D01*
X172862827Y-136805005D01*
X172956374Y-137043362D01*
X172956376Y-137043366D01*
X173084410Y-137265127D01*
X173084412Y-137265130D01*
X173084413Y-137265131D01*
X173244069Y-137465334D01*
X173431781Y-137639505D01*
X173431787Y-137639509D01*
X173643345Y-137783748D01*
X173643352Y-137783752D01*
X173643355Y-137783754D01*
X173754150Y-137837110D01*
X173874060Y-137894856D01*
X173874073Y-137894861D01*
X174118746Y-137970332D01*
X174118748Y-137970332D01*
X174118757Y-137970335D01*
X174371966Y-138008500D01*
X174371970Y-138008500D01*
X174628030Y-138008500D01*
X174628034Y-138008500D01*
X174881243Y-137970335D01*
X174944286Y-137950889D01*
X175125929Y-137894860D01*
X175125930Y-137894859D01*
X175125935Y-137894858D01*
X175356646Y-137783754D01*
X175568219Y-137639505D01*
X175755931Y-137465334D01*
X175915587Y-137265131D01*
X176043622Y-137043369D01*
X176043625Y-137043362D01*
X176132710Y-136816376D01*
X176176216Y-136760272D01*
X176243149Y-136736595D01*
X176312256Y-136752864D01*
X176361598Y-136803912D01*
X176367290Y-136816376D01*
X176456374Y-137043362D01*
X176456376Y-137043366D01*
X176584410Y-137265127D01*
X176584412Y-137265130D01*
X176584413Y-137265131D01*
X176744069Y-137465334D01*
X176931781Y-137639505D01*
X176931787Y-137639509D01*
X177143345Y-137783748D01*
X177143352Y-137783752D01*
X177143355Y-137783754D01*
X177254150Y-137837110D01*
X177374060Y-137894856D01*
X177374073Y-137894861D01*
X177618746Y-137970332D01*
X177618748Y-137970332D01*
X177618757Y-137970335D01*
X177871966Y-138008500D01*
X177871970Y-138008500D01*
X178128030Y-138008500D01*
X178128034Y-138008500D01*
X178381243Y-137970335D01*
X178444286Y-137950889D01*
X178625929Y-137894860D01*
X178625930Y-137894859D01*
X178625935Y-137894858D01*
X178856646Y-137783754D01*
X179068219Y-137639505D01*
X179255931Y-137465334D01*
X179415587Y-137265131D01*
X179543622Y-137043369D01*
X179543627Y-137043358D01*
X179579091Y-136952995D01*
X179637174Y-136805001D01*
X179655942Y-136722773D01*
X182491788Y-136722773D01*
X182501683Y-137031355D01*
X182501684Y-137031364D01*
X182550960Y-137336157D01*
X182550961Y-137336160D01*
X182638805Y-137632136D01*
X182638805Y-137632137D01*
X182686147Y-137739083D01*
X182763783Y-137914463D01*
X182904875Y-138147207D01*
X182923837Y-138178487D01*
X183116333Y-138419871D01*
X183116341Y-138419880D01*
X183326356Y-138623267D01*
X183338126Y-138634666D01*
X183467160Y-138730966D01*
X183585555Y-138819327D01*
X183585557Y-138819328D01*
X183585561Y-138819331D01*
X183854579Y-138970839D01*
X184140763Y-139086702D01*
X184439413Y-139165018D01*
X184745626Y-139204500D01*
X184745631Y-139204500D01*
X184977106Y-139204500D01*
X185069114Y-139198592D01*
X185208114Y-139189668D01*
X185511168Y-139130649D01*
X185804187Y-139033360D01*
X186082359Y-138899399D01*
X186258922Y-138784468D01*
X186341110Y-138730971D01*
X186341112Y-138730969D01*
X186341117Y-138730966D01*
X186576212Y-138530827D01*
X186783784Y-138302268D01*
X186960424Y-138049041D01*
X187103231Y-137775305D01*
X187209862Y-137485555D01*
X187278565Y-137184548D01*
X187308212Y-136877227D01*
X187298316Y-136568637D01*
X187249040Y-136263847D01*
X187204699Y-136114448D01*
X187161194Y-135967863D01*
X187161194Y-135967862D01*
X187114953Y-135863404D01*
X187036217Y-135685537D01*
X186876164Y-135421514D01*
X186709928Y-135213060D01*
X186683666Y-135180128D01*
X186683658Y-135180119D01*
X186461875Y-134965335D01*
X186461874Y-134965334D01*
X186344274Y-134877567D01*
X186214444Y-134780672D01*
X186211237Y-134778866D01*
X185945421Y-134629161D01*
X185910794Y-134615142D01*
X185659241Y-134513299D01*
X185360588Y-134434982D01*
X185295291Y-134426563D01*
X185054374Y-134395500D01*
X184822901Y-134395500D01*
X184822894Y-134395500D01*
X184591880Y-134410332D01*
X184288847Y-134469347D01*
X184288826Y-134469352D01*
X183995812Y-134566640D01*
X183717643Y-134700599D01*
X183458889Y-134869028D01*
X183458887Y-134869030D01*
X183223789Y-135069172D01*
X183016216Y-135297732D01*
X182839575Y-135550961D01*
X182696766Y-135824699D01*
X182590137Y-136114448D01*
X182521434Y-136415454D01*
X182491788Y-136722773D01*
X179655942Y-136722773D01*
X179694155Y-136555353D01*
X179713291Y-136300000D01*
X179694155Y-136044647D01*
X179637174Y-135794999D01*
X179579521Y-135648100D01*
X179543625Y-135556637D01*
X179543623Y-135556633D01*
X179415589Y-135334872D01*
X179415587Y-135334869D01*
X179255931Y-135134666D01*
X179068219Y-134960495D01*
X179043915Y-134943925D01*
X178919376Y-134859015D01*
X178856646Y-134816246D01*
X178856643Y-134816245D01*
X178856641Y-134816243D01*
X178856640Y-134816242D01*
X178625936Y-134705142D01*
X178625929Y-134705139D01*
X178381253Y-134629667D01*
X178381245Y-134629665D01*
X178381243Y-134629665D01*
X178128034Y-134591500D01*
X177871966Y-134591500D01*
X177618757Y-134629665D01*
X177618755Y-134629665D01*
X177618746Y-134629667D01*
X177374073Y-134705138D01*
X177374060Y-134705143D01*
X177143352Y-134816247D01*
X177143345Y-134816251D01*
X176931787Y-134960490D01*
X176931782Y-134960494D01*
X176744070Y-135134665D01*
X176584410Y-135334872D01*
X176456376Y-135556633D01*
X176456374Y-135556638D01*
X176367289Y-135783623D01*
X176323782Y-135839727D01*
X176256850Y-135863404D01*
X176187742Y-135847135D01*
X176138401Y-135796086D01*
X176132709Y-135783622D01*
X176043627Y-135556641D01*
X176043623Y-135556633D01*
X175915589Y-135334872D01*
X175915587Y-135334869D01*
X175755931Y-135134666D01*
X175568219Y-134960495D01*
X175543915Y-134943925D01*
X175419376Y-134859015D01*
X175356646Y-134816246D01*
X175356643Y-134816245D01*
X175356641Y-134816243D01*
X175356640Y-134816242D01*
X175125936Y-134705142D01*
X175125929Y-134705139D01*
X174881253Y-134629667D01*
X174881245Y-134629665D01*
X174881243Y-134629665D01*
X174628034Y-134591500D01*
X174371966Y-134591500D01*
X174118757Y-134629665D01*
X174118755Y-134629665D01*
X174118746Y-134629667D01*
X173874073Y-134705138D01*
X173874060Y-134705143D01*
X173643352Y-134816247D01*
X173643345Y-134816251D01*
X173431787Y-134960490D01*
X173431782Y-134960494D01*
X173244070Y-135134665D01*
X173084410Y-135334872D01*
X172956376Y-135556633D01*
X172956374Y-135556637D01*
X172862827Y-135794994D01*
X172862826Y-135794997D01*
X172805845Y-136044643D01*
X172786709Y-136300000D01*
X168213291Y-136300000D01*
X168194155Y-136044647D01*
X168137174Y-135794999D01*
X168079521Y-135648100D01*
X168043625Y-135556637D01*
X168043623Y-135556633D01*
X167915589Y-135334872D01*
X167915587Y-135334869D01*
X167755931Y-135134666D01*
X167568219Y-134960495D01*
X167543915Y-134943925D01*
X167419376Y-134859015D01*
X167356646Y-134816246D01*
X167356643Y-134816245D01*
X167356641Y-134816243D01*
X167356640Y-134816242D01*
X167125936Y-134705142D01*
X167125929Y-134705139D01*
X166881253Y-134629667D01*
X166881245Y-134629665D01*
X166881243Y-134629665D01*
X166628034Y-134591500D01*
X166371966Y-134591500D01*
X166118757Y-134629665D01*
X166118755Y-134629665D01*
X166118746Y-134629667D01*
X165874073Y-134705138D01*
X165874060Y-134705143D01*
X165643352Y-134816247D01*
X165643345Y-134816251D01*
X165431787Y-134960490D01*
X165431782Y-134960494D01*
X165244070Y-135134665D01*
X165084410Y-135334872D01*
X164956376Y-135556633D01*
X164956374Y-135556637D01*
X164867290Y-135783623D01*
X164823784Y-135839727D01*
X164756851Y-135863404D01*
X164687744Y-135847135D01*
X164638402Y-135796087D01*
X164632710Y-135783623D01*
X164543625Y-135556637D01*
X164543623Y-135556633D01*
X164415589Y-135334872D01*
X164415587Y-135334869D01*
X164255931Y-135134666D01*
X164068219Y-134960495D01*
X164043915Y-134943925D01*
X163919376Y-134859015D01*
X163856646Y-134816246D01*
X163856643Y-134816245D01*
X163856641Y-134816243D01*
X163856640Y-134816242D01*
X163625936Y-134705142D01*
X163625929Y-134705139D01*
X163381253Y-134629667D01*
X163381245Y-134629665D01*
X163381243Y-134629665D01*
X163128034Y-134591500D01*
X162871966Y-134591500D01*
X162618757Y-134629665D01*
X162618755Y-134629665D01*
X162618746Y-134629667D01*
X162374073Y-134705138D01*
X162374060Y-134705143D01*
X162143352Y-134816247D01*
X162143345Y-134816251D01*
X161931787Y-134960490D01*
X161931782Y-134960494D01*
X161744070Y-135134665D01*
X161584410Y-135334872D01*
X161456376Y-135556633D01*
X161456374Y-135556637D01*
X161362827Y-135794994D01*
X161362826Y-135794997D01*
X161305845Y-136044643D01*
X161286709Y-136300000D01*
X123563291Y-136300000D01*
X123544155Y-136044647D01*
X123487174Y-135794999D01*
X123429521Y-135648100D01*
X123393625Y-135556637D01*
X123393623Y-135556633D01*
X123265589Y-135334872D01*
X123265587Y-135334869D01*
X123158033Y-135200000D01*
X141586496Y-135200000D01*
X141606457Y-135389927D01*
X141616720Y-135421512D01*
X141665473Y-135571556D01*
X141665476Y-135571561D01*
X141760958Y-135736941D01*
X141760965Y-135736951D01*
X141888744Y-135878864D01*
X141888747Y-135878866D01*
X142043248Y-135991118D01*
X142217712Y-136068794D01*
X142404513Y-136108500D01*
X142595487Y-136108500D01*
X142782288Y-136068794D01*
X142956752Y-135991118D01*
X143111253Y-135878866D01*
X143160029Y-135824695D01*
X143239034Y-135736951D01*
X143239035Y-135736949D01*
X143239040Y-135736944D01*
X143334527Y-135571556D01*
X143393542Y-135389928D01*
X143413504Y-135200000D01*
X143393542Y-135010072D01*
X143334527Y-134828444D01*
X143239040Y-134663056D01*
X143239038Y-134663054D01*
X143239034Y-134663048D01*
X143111255Y-134521135D01*
X142956752Y-134408882D01*
X142782288Y-134331206D01*
X142595487Y-134291500D01*
X142404513Y-134291500D01*
X142217711Y-134331206D01*
X142043247Y-134408882D01*
X141888744Y-134521135D01*
X141760965Y-134663048D01*
X141760958Y-134663058D01*
X141666506Y-134826654D01*
X141665473Y-134828444D01*
X141655540Y-134859014D01*
X141606457Y-135010072D01*
X141586496Y-135200000D01*
X123158033Y-135200000D01*
X123134642Y-135170668D01*
X123107809Y-135104941D01*
X123120771Y-135035137D01*
X123169413Y-134983423D01*
X123201105Y-134971134D01*
X123201008Y-134970835D01*
X123206366Y-134969093D01*
X123206960Y-134968863D01*
X123207288Y-134968794D01*
X123381752Y-134891118D01*
X123425939Y-134859013D01*
X123492803Y-134835155D01*
X123561955Y-134851234D01*
X123574057Y-134859011D01*
X123618248Y-134891118D01*
X123792712Y-134968794D01*
X123979513Y-135008500D01*
X124170487Y-135008500D01*
X124357288Y-134968794D01*
X124531752Y-134891118D01*
X124686253Y-134778866D01*
X124686255Y-134778864D01*
X124814034Y-134636951D01*
X124814035Y-134636949D01*
X124814040Y-134636944D01*
X124909527Y-134471556D01*
X124968542Y-134289928D01*
X124988504Y-134100000D01*
X124968542Y-133910072D01*
X124909527Y-133728444D01*
X124835370Y-133600000D01*
X126786496Y-133600000D01*
X126806457Y-133789927D01*
X126836526Y-133882470D01*
X126865473Y-133971556D01*
X126865476Y-133971561D01*
X126960958Y-134136941D01*
X126960965Y-134136951D01*
X127088744Y-134278864D01*
X127088747Y-134278866D01*
X127243248Y-134391118D01*
X127417712Y-134468794D01*
X127604513Y-134508500D01*
X127795487Y-134508500D01*
X127982288Y-134468794D01*
X128098752Y-134416940D01*
X128169118Y-134407507D01*
X128201245Y-134416940D01*
X128317712Y-134468794D01*
X128504513Y-134508500D01*
X128695487Y-134508500D01*
X128882288Y-134468794D01*
X128998752Y-134416940D01*
X129069118Y-134407507D01*
X129101245Y-134416940D01*
X129217712Y-134468794D01*
X129404513Y-134508500D01*
X129595487Y-134508500D01*
X129782288Y-134468794D01*
X129898752Y-134416940D01*
X129969118Y-134407507D01*
X130001245Y-134416940D01*
X130117712Y-134468794D01*
X130304513Y-134508500D01*
X130495487Y-134508500D01*
X130682288Y-134468794D01*
X130798752Y-134416940D01*
X130869118Y-134407507D01*
X130901245Y-134416940D01*
X131017712Y-134468794D01*
X131204513Y-134508500D01*
X131395487Y-134508500D01*
X131582288Y-134468794D01*
X131698752Y-134416940D01*
X131769118Y-134407507D01*
X131801245Y-134416940D01*
X131917712Y-134468794D01*
X132104513Y-134508500D01*
X132295487Y-134508500D01*
X132482288Y-134468794D01*
X132656752Y-134391118D01*
X132811253Y-134278866D01*
X132867119Y-134216821D01*
X132939034Y-134136951D01*
X132939035Y-134136949D01*
X132939040Y-134136944D01*
X133034527Y-133971556D01*
X133088001Y-133806980D01*
X147603000Y-133806980D01*
X147642315Y-134017297D01*
X147642316Y-134017302D01*
X147719605Y-134216805D01*
X147719613Y-134216821D01*
X147832240Y-134398720D01*
X147832241Y-134398721D01*
X147841504Y-134408882D01*
X147936692Y-134513299D01*
X147976389Y-134556844D01*
X148117037Y-134663056D01*
X148147130Y-134685781D01*
X148338660Y-134781151D01*
X148544452Y-134839704D01*
X148704125Y-134854500D01*
X148704132Y-134854500D01*
X148810868Y-134854500D01*
X148810875Y-134854500D01*
X148970548Y-134839704D01*
X149176340Y-134781151D01*
X149367870Y-134685781D01*
X149538614Y-134556841D01*
X149682758Y-134398722D01*
X149795393Y-134216810D01*
X149872685Y-134017297D01*
X149912000Y-133806980D01*
X149912000Y-133593020D01*
X149872685Y-133382703D01*
X149795393Y-133183190D01*
X149721009Y-133063056D01*
X149682759Y-133001279D01*
X149682758Y-133001278D01*
X149538610Y-132843155D01*
X149367873Y-132714221D01*
X149367871Y-132714220D01*
X149367870Y-132714219D01*
X149176340Y-132618849D01*
X149176336Y-132618848D01*
X149176334Y-132618847D01*
X148970549Y-132560296D01*
X148950588Y-132558446D01*
X148810875Y-132545500D01*
X148704125Y-132545500D01*
X148579934Y-132557008D01*
X148544450Y-132560296D01*
X148338665Y-132618847D01*
X148338660Y-132618849D01*
X148147126Y-132714221D01*
X147976389Y-132843155D01*
X147832241Y-133001278D01*
X147832240Y-133001279D01*
X147719613Y-133183178D01*
X147719605Y-133183194D01*
X147642316Y-133382697D01*
X147642314Y-133382703D01*
X147642315Y-133382703D01*
X147603000Y-133593020D01*
X147603000Y-133806980D01*
X133088001Y-133806980D01*
X133093542Y-133789928D01*
X133113504Y-133600000D01*
X133093542Y-133410072D01*
X133034527Y-133228444D01*
X132939040Y-133063056D01*
X132939038Y-133063054D01*
X132939034Y-133063048D01*
X132811255Y-132921135D01*
X132656752Y-132808882D01*
X132482288Y-132731206D01*
X132295487Y-132691500D01*
X132104513Y-132691500D01*
X131917709Y-132731206D01*
X131801248Y-132783058D01*
X131730881Y-132792492D01*
X131698752Y-132783058D01*
X131582290Y-132731206D01*
X131395487Y-132691500D01*
X131204513Y-132691500D01*
X131017709Y-132731206D01*
X130901247Y-132783058D01*
X130830880Y-132792492D01*
X130798753Y-132783059D01*
X130682288Y-132731206D01*
X130495487Y-132691500D01*
X130304513Y-132691500D01*
X130117709Y-132731206D01*
X130001248Y-132783058D01*
X129930881Y-132792492D01*
X129898752Y-132783058D01*
X129782290Y-132731206D01*
X129595487Y-132691500D01*
X129404513Y-132691500D01*
X129217709Y-132731206D01*
X129101248Y-132783058D01*
X129030881Y-132792492D01*
X128998752Y-132783058D01*
X128882290Y-132731206D01*
X128695487Y-132691500D01*
X128504513Y-132691500D01*
X128317709Y-132731206D01*
X128201248Y-132783058D01*
X128130881Y-132792492D01*
X128098752Y-132783058D01*
X127982290Y-132731206D01*
X127795487Y-132691500D01*
X127604513Y-132691500D01*
X127417711Y-132731206D01*
X127243247Y-132808882D01*
X127088744Y-132921135D01*
X126960965Y-133063048D01*
X126960958Y-133063058D01*
X126865476Y-133228438D01*
X126865473Y-133228445D01*
X126806457Y-133410072D01*
X126786496Y-133600000D01*
X124835370Y-133600000D01*
X124814040Y-133563056D01*
X124814037Y-133563053D01*
X124810157Y-133557712D01*
X124811709Y-133556583D01*
X124784982Y-133500898D01*
X124793741Y-133430444D01*
X124800205Y-133417604D01*
X124884527Y-133271556D01*
X124943542Y-133089928D01*
X124963504Y-132900000D01*
X124943542Y-132710072D01*
X124884527Y-132528444D01*
X124789040Y-132363056D01*
X124789038Y-132363054D01*
X124789034Y-132363048D01*
X124661255Y-132221135D01*
X124506752Y-132108882D01*
X124332288Y-132031206D01*
X124145487Y-131991500D01*
X123954513Y-131991500D01*
X123767711Y-132031206D01*
X123593246Y-132108882D01*
X123593241Y-132108885D01*
X123549058Y-132140986D01*
X123482190Y-132164844D01*
X123413039Y-132148762D01*
X123400938Y-132140985D01*
X123356752Y-132108882D01*
X123182288Y-132031206D01*
X122995487Y-131991500D01*
X122804513Y-131991500D01*
X122617711Y-132031206D01*
X122443247Y-132108882D01*
X122374059Y-132159150D01*
X122307191Y-132183008D01*
X122238039Y-132166926D01*
X122225938Y-132159149D01*
X122200936Y-132140984D01*
X122156752Y-132108882D01*
X121982288Y-132031206D01*
X121795487Y-131991500D01*
X121604513Y-131991500D01*
X121417711Y-132031206D01*
X121243244Y-132108883D01*
X121199059Y-132140986D01*
X121132191Y-132164844D01*
X121063040Y-132148762D01*
X121050937Y-132140984D01*
X121006756Y-132108884D01*
X120832288Y-132031206D01*
X120645487Y-131991500D01*
X120454513Y-131991500D01*
X120267711Y-132031206D01*
X120093247Y-132108882D01*
X119938744Y-132221135D01*
X119810965Y-132363048D01*
X119810958Y-132363058D01*
X119715476Y-132528438D01*
X119715473Y-132528445D01*
X119656457Y-132710072D01*
X119636496Y-132899999D01*
X119656457Y-133089927D01*
X119686526Y-133182470D01*
X119715473Y-133271556D01*
X119715476Y-133271561D01*
X119810958Y-133436941D01*
X119814843Y-133442288D01*
X119813290Y-133443416D01*
X119840018Y-133499103D01*
X119831257Y-133569557D01*
X119824784Y-133582412D01*
X119740476Y-133728438D01*
X119740473Y-133728445D01*
X119681457Y-133910072D01*
X119661496Y-134099999D01*
X119681457Y-134289927D01*
X119694870Y-134331206D01*
X119722727Y-134416941D01*
X119725925Y-134426781D01*
X119727953Y-134497749D01*
X119691291Y-134558547D01*
X119627579Y-134589872D01*
X119602012Y-134591382D01*
X119602012Y-134591500D01*
X119600029Y-134591500D01*
X119599369Y-134591539D01*
X119598639Y-134591500D01*
X119598638Y-134591500D01*
X117101362Y-134591500D01*
X117101350Y-134591500D01*
X117040803Y-134598009D01*
X117040799Y-134598010D01*
X116917221Y-134644103D01*
X116846406Y-134649167D01*
X116784093Y-134615142D01*
X116750068Y-134552830D01*
X116755133Y-134482014D01*
X116758087Y-134474788D01*
X116759524Y-134471561D01*
X116759527Y-134471556D01*
X116818542Y-134289928D01*
X116838504Y-134100000D01*
X116818542Y-133910072D01*
X116759527Y-133728444D01*
X116664040Y-133563056D01*
X116664037Y-133563053D01*
X116660157Y-133557712D01*
X116661709Y-133556583D01*
X116634982Y-133500898D01*
X116643741Y-133430444D01*
X116650205Y-133417604D01*
X116734527Y-133271556D01*
X116793542Y-133089928D01*
X116813504Y-132900000D01*
X116793542Y-132710072D01*
X116734527Y-132528444D01*
X116639040Y-132363056D01*
X116639038Y-132363054D01*
X116639034Y-132363048D01*
X116511255Y-132221135D01*
X116356752Y-132108882D01*
X116182288Y-132031206D01*
X115995487Y-131991500D01*
X115804513Y-131991500D01*
X115617711Y-132031206D01*
X115443243Y-132108884D01*
X115399061Y-132140985D01*
X115332193Y-132164843D01*
X115263042Y-132148763D01*
X115250939Y-132140985D01*
X115206756Y-132108884D01*
X115032288Y-132031206D01*
X114845487Y-131991500D01*
X114654513Y-131991500D01*
X114467711Y-132031206D01*
X114293247Y-132108882D01*
X114224061Y-132159149D01*
X114157193Y-132183008D01*
X114088041Y-132166927D01*
X114075939Y-132159149D01*
X114006752Y-132108882D01*
X113832288Y-132031206D01*
X113645487Y-131991500D01*
X113454513Y-131991500D01*
X113267711Y-132031206D01*
X113093243Y-132108884D01*
X113049061Y-132140985D01*
X112982193Y-132164843D01*
X112913042Y-132148763D01*
X112900939Y-132140985D01*
X112856756Y-132108884D01*
X112682288Y-132031206D01*
X112495487Y-131991500D01*
X112304513Y-131991500D01*
X112117711Y-132031206D01*
X111943247Y-132108882D01*
X111788744Y-132221135D01*
X111660965Y-132363048D01*
X111660958Y-132363058D01*
X111565476Y-132528438D01*
X111565473Y-132528445D01*
X111506457Y-132710072D01*
X111486496Y-132899999D01*
X111506457Y-133089927D01*
X111536526Y-133182470D01*
X111565473Y-133271556D01*
X111565476Y-133271561D01*
X111660958Y-133436941D01*
X111664843Y-133442288D01*
X111663290Y-133443416D01*
X111690018Y-133499103D01*
X111681257Y-133569557D01*
X111674784Y-133582412D01*
X111590476Y-133728438D01*
X111590473Y-133728445D01*
X111531457Y-133910072D01*
X111511496Y-134100000D01*
X111531457Y-134289927D01*
X111544870Y-134331206D01*
X111572727Y-134416941D01*
X111575854Y-134426563D01*
X111577882Y-134497531D01*
X111541219Y-134558329D01*
X111477507Y-134589654D01*
X111456021Y-134591500D01*
X109101350Y-134591500D01*
X109040803Y-134598009D01*
X109040795Y-134598011D01*
X108903797Y-134649110D01*
X108903792Y-134649112D01*
X108786738Y-134736738D01*
X108699112Y-134853792D01*
X108699110Y-134853797D01*
X108648011Y-134990795D01*
X108648009Y-134990803D01*
X108641500Y-135051350D01*
X108641500Y-137548649D01*
X105686643Y-137548649D01*
X105709862Y-137485555D01*
X105778565Y-137184548D01*
X105808212Y-136877227D01*
X105798316Y-136568637D01*
X105749040Y-136263847D01*
X105704699Y-136114448D01*
X105661194Y-135967863D01*
X105661194Y-135967862D01*
X105614953Y-135863404D01*
X105536217Y-135685537D01*
X105376164Y-135421514D01*
X105209928Y-135213060D01*
X105183666Y-135180128D01*
X105183658Y-135180119D01*
X104961875Y-134965335D01*
X104961874Y-134965334D01*
X104844274Y-134877567D01*
X104714444Y-134780672D01*
X104711237Y-134778866D01*
X104445421Y-134629161D01*
X104410794Y-134615142D01*
X104159241Y-134513299D01*
X103860588Y-134434982D01*
X103795291Y-134426563D01*
X103554374Y-134395500D01*
X103322901Y-134395500D01*
X103322894Y-134395500D01*
X103091880Y-134410332D01*
X102788847Y-134469347D01*
X102788826Y-134469352D01*
X102495812Y-134566640D01*
X102217643Y-134700599D01*
X101958889Y-134869028D01*
X101958887Y-134869030D01*
X101723789Y-135069172D01*
X101516216Y-135297732D01*
X101339575Y-135550961D01*
X101196766Y-135824699D01*
X101090137Y-136114448D01*
X101021434Y-136415454D01*
X100991788Y-136722773D01*
X99400500Y-136722773D01*
X99400500Y-126800000D01*
X102186709Y-126800000D01*
X102205845Y-127055356D01*
X102262826Y-127305002D01*
X102262827Y-127305005D01*
X102356374Y-127543362D01*
X102356376Y-127543366D01*
X102484410Y-127765127D01*
X102484412Y-127765130D01*
X102484413Y-127765131D01*
X102644069Y-127965334D01*
X102831781Y-128139505D01*
X102831787Y-128139509D01*
X103043345Y-128283748D01*
X103043352Y-128283752D01*
X103043355Y-128283754D01*
X103176360Y-128347806D01*
X103274060Y-128394856D01*
X103274073Y-128394861D01*
X103518746Y-128470332D01*
X103518748Y-128470332D01*
X103518757Y-128470335D01*
X103771966Y-128508500D01*
X103771970Y-128508500D01*
X104028030Y-128508500D01*
X104028034Y-128508500D01*
X104281243Y-128470335D01*
X104281253Y-128470332D01*
X104525929Y-128394860D01*
X104525930Y-128394859D01*
X104525935Y-128394858D01*
X104756646Y-128283754D01*
X104968219Y-128139505D01*
X105062957Y-128051600D01*
X105126495Y-128019930D01*
X105197072Y-128027639D01*
X105252278Y-128072281D01*
X105263763Y-128092716D01*
X105265472Y-128096554D01*
X105265473Y-128096556D01*
X105290266Y-128139499D01*
X105346558Y-128236999D01*
X105363296Y-128305994D01*
X105346558Y-128362999D01*
X105265476Y-128503438D01*
X105265473Y-128503445D01*
X105206457Y-128685072D01*
X105186496Y-128874999D01*
X105206457Y-129064927D01*
X105236526Y-129157470D01*
X105265473Y-129246556D01*
X105265476Y-129246561D01*
X105360958Y-129411941D01*
X105360965Y-129411951D01*
X105488744Y-129553864D01*
X105488747Y-129553866D01*
X105643248Y-129666118D01*
X105817712Y-129743794D01*
X106004513Y-129783500D01*
X106195487Y-129783500D01*
X106382288Y-129743794D01*
X106556752Y-129666118D01*
X106643146Y-129603348D01*
X106710010Y-129579492D01*
X106779162Y-129595572D01*
X106791265Y-129603350D01*
X106843248Y-129641118D01*
X107017712Y-129718794D01*
X107204513Y-129758500D01*
X107395487Y-129758500D01*
X107582288Y-129718794D01*
X107756752Y-129641118D01*
X107911253Y-129528866D01*
X108039040Y-129386944D01*
X108134527Y-129221556D01*
X108193542Y-129039928D01*
X108213504Y-128850000D01*
X108193542Y-128660072D01*
X108134527Y-128478444D01*
X108053440Y-128337998D01*
X108044222Y-128299999D01*
X152736496Y-128299999D01*
X152756457Y-128489927D01*
X152762492Y-128508500D01*
X152815473Y-128671556D01*
X152843841Y-128720691D01*
X152910958Y-128836941D01*
X152910965Y-128836951D01*
X153038744Y-128978864D01*
X153038747Y-128978866D01*
X153193248Y-129091118D01*
X153367712Y-129168794D01*
X153554513Y-129208500D01*
X153745487Y-129208500D01*
X153932288Y-129168794D01*
X154106752Y-129091118D01*
X154261253Y-128978866D01*
X154261255Y-128978864D01*
X154389034Y-128836951D01*
X154389035Y-128836949D01*
X154389040Y-128836944D01*
X154484527Y-128671556D01*
X154543542Y-128489928D01*
X154563504Y-128300000D01*
X154543542Y-128110072D01*
X154484527Y-127928444D01*
X154389040Y-127763056D01*
X154389038Y-127763054D01*
X154389034Y-127763048D01*
X154261255Y-127621135D01*
X154106752Y-127508882D01*
X153932288Y-127431206D01*
X153745487Y-127391500D01*
X153554513Y-127391500D01*
X153367711Y-127431206D01*
X153193247Y-127508882D01*
X153038744Y-127621135D01*
X152910965Y-127763048D01*
X152910958Y-127763058D01*
X152815476Y-127928438D01*
X152815473Y-127928445D01*
X152756457Y-128110072D01*
X152736496Y-128299999D01*
X108044222Y-128299999D01*
X108036703Y-128269005D01*
X108053441Y-128212000D01*
X108134527Y-128071556D01*
X108193542Y-127889928D01*
X108213504Y-127700000D01*
X108193542Y-127510072D01*
X108134527Y-127328444D01*
X108039040Y-127163056D01*
X108039038Y-127163053D01*
X108039007Y-127163000D01*
X108022269Y-127094005D01*
X108039007Y-127037000D01*
X108039038Y-127036946D01*
X108039040Y-127036944D01*
X108134527Y-126871556D01*
X108193542Y-126689928D01*
X108213504Y-126500000D01*
X108193542Y-126310072D01*
X108134527Y-126128444D01*
X108053440Y-125987998D01*
X108036703Y-125919005D01*
X108053441Y-125862000D01*
X108089238Y-125799999D01*
X142986496Y-125799999D01*
X143006457Y-125989927D01*
X143024236Y-126044643D01*
X143065473Y-126171556D01*
X143065476Y-126171561D01*
X143160958Y-126336941D01*
X143160965Y-126336951D01*
X143288744Y-126478864D01*
X143288747Y-126478866D01*
X143443248Y-126591118D01*
X143617712Y-126668794D01*
X143804513Y-126708500D01*
X143995487Y-126708500D01*
X144182288Y-126668794D01*
X144356752Y-126591118D01*
X144375940Y-126577176D01*
X144442805Y-126553319D01*
X144511956Y-126569398D01*
X144524048Y-126577168D01*
X144543248Y-126591118D01*
X144717712Y-126668794D01*
X144904513Y-126708500D01*
X145095487Y-126708500D01*
X145282288Y-126668794D01*
X145456752Y-126591118D01*
X145611253Y-126478866D01*
X145739040Y-126336944D01*
X145760370Y-126300000D01*
X182736709Y-126300000D01*
X182755845Y-126555356D01*
X182812826Y-126805002D01*
X182812827Y-126805005D01*
X182906374Y-127043362D01*
X182906376Y-127043366D01*
X183034410Y-127265127D01*
X183034412Y-127265130D01*
X183034413Y-127265131D01*
X183194069Y-127465334D01*
X183381781Y-127639505D01*
X183381787Y-127639509D01*
X183593345Y-127783748D01*
X183593352Y-127783752D01*
X183593355Y-127783754D01*
X183726360Y-127847806D01*
X183824060Y-127894856D01*
X183824073Y-127894861D01*
X184068746Y-127970332D01*
X184068748Y-127970332D01*
X184068757Y-127970335D01*
X184321966Y-128008500D01*
X184321970Y-128008500D01*
X184578030Y-128008500D01*
X184578034Y-128008500D01*
X184831243Y-127970335D01*
X184967048Y-127928445D01*
X185075929Y-127894860D01*
X185075930Y-127894859D01*
X185075935Y-127894858D01*
X185306646Y-127783754D01*
X185518219Y-127639505D01*
X185705931Y-127465334D01*
X185865587Y-127265131D01*
X185993622Y-127043369D01*
X186087174Y-126805001D01*
X186144155Y-126555353D01*
X186163291Y-126300000D01*
X186144155Y-126044647D01*
X186087174Y-125794999D01*
X186058349Y-125721554D01*
X185993625Y-125556637D01*
X185993623Y-125556633D01*
X185865589Y-125334872D01*
X185865587Y-125334869D01*
X185705931Y-125134666D01*
X185518219Y-124960495D01*
X185306646Y-124816246D01*
X185306643Y-124816245D01*
X185306641Y-124816243D01*
X185306640Y-124816242D01*
X185075936Y-124705142D01*
X185075929Y-124705139D01*
X184963311Y-124670402D01*
X184904113Y-124631210D01*
X184875500Y-124566234D01*
X184886559Y-124496104D01*
X184933777Y-124443086D01*
X184963311Y-124429598D01*
X185075929Y-124394860D01*
X185075930Y-124394859D01*
X185075935Y-124394858D01*
X185306646Y-124283754D01*
X185518219Y-124139505D01*
X185705931Y-123965334D01*
X185865587Y-123765131D01*
X185993622Y-123543369D01*
X186087174Y-123305001D01*
X186144155Y-123055353D01*
X186163291Y-122800000D01*
X186144155Y-122544647D01*
X186087174Y-122294999D01*
X186080842Y-122278864D01*
X185993625Y-122056637D01*
X185993623Y-122056633D01*
X185865589Y-121834872D01*
X185865587Y-121834869D01*
X185705931Y-121634666D01*
X185518219Y-121460495D01*
X185306646Y-121316246D01*
X185306643Y-121316245D01*
X185306641Y-121316243D01*
X185306640Y-121316242D01*
X185075936Y-121205142D01*
X185075929Y-121205139D01*
X184831253Y-121129667D01*
X184831245Y-121129665D01*
X184831243Y-121129665D01*
X184578034Y-121091500D01*
X184321966Y-121091500D01*
X184068757Y-121129665D01*
X184068755Y-121129665D01*
X184068746Y-121129667D01*
X183824073Y-121205138D01*
X183824060Y-121205143D01*
X183593352Y-121316247D01*
X183593345Y-121316251D01*
X183381787Y-121460490D01*
X183381782Y-121460494D01*
X183194070Y-121634665D01*
X183034410Y-121834872D01*
X182906376Y-122056633D01*
X182906374Y-122056637D01*
X182812827Y-122294994D01*
X182812826Y-122294997D01*
X182755845Y-122544643D01*
X182736709Y-122800000D01*
X182755845Y-123055356D01*
X182812826Y-123305002D01*
X182812827Y-123305005D01*
X182906374Y-123543362D01*
X182906376Y-123543366D01*
X183034410Y-123765127D01*
X183034412Y-123765130D01*
X183034413Y-123765131D01*
X183194069Y-123965334D01*
X183381781Y-124139505D01*
X183381787Y-124139509D01*
X183593345Y-124283748D01*
X183593352Y-124283752D01*
X183593355Y-124283754D01*
X183726360Y-124347806D01*
X183824060Y-124394856D01*
X183824073Y-124394861D01*
X183936688Y-124429598D01*
X183995887Y-124468790D01*
X184024499Y-124533766D01*
X184013440Y-124603896D01*
X183966222Y-124656914D01*
X183936688Y-124670402D01*
X183824073Y-124705138D01*
X183824060Y-124705143D01*
X183593352Y-124816247D01*
X183593345Y-124816251D01*
X183381787Y-124960490D01*
X183381782Y-124960494D01*
X183362437Y-124978444D01*
X183194069Y-125134666D01*
X183163152Y-125173435D01*
X183034410Y-125334872D01*
X182906376Y-125556633D01*
X182906374Y-125556637D01*
X182812827Y-125794994D01*
X182812826Y-125794997D01*
X182755845Y-126044643D01*
X182736709Y-126300000D01*
X145760370Y-126300000D01*
X145834527Y-126171556D01*
X145893542Y-125989928D01*
X145913504Y-125800000D01*
X145893542Y-125610072D01*
X145834527Y-125428444D01*
X145739040Y-125263056D01*
X145739039Y-125263055D01*
X145739007Y-125262999D01*
X145722269Y-125194004D01*
X145739007Y-125136998D01*
X145739034Y-125136949D01*
X145739040Y-125136944D01*
X145834527Y-124971556D01*
X145893542Y-124789928D01*
X145913504Y-124600000D01*
X145893542Y-124410072D01*
X145834527Y-124228444D01*
X145739040Y-124063056D01*
X145739038Y-124063054D01*
X145739034Y-124063048D01*
X145611255Y-123921135D01*
X145456752Y-123808882D01*
X145282288Y-123731206D01*
X145095487Y-123691500D01*
X144904513Y-123691500D01*
X144717711Y-123731206D01*
X144543246Y-123808882D01*
X144543245Y-123808883D01*
X144524061Y-123822822D01*
X144457193Y-123846681D01*
X144388041Y-123830600D01*
X144375939Y-123822822D01*
X144356754Y-123808883D01*
X144356753Y-123808882D01*
X144182288Y-123731206D01*
X143995487Y-123691500D01*
X143804513Y-123691500D01*
X143617711Y-123731206D01*
X143443247Y-123808882D01*
X143288744Y-123921135D01*
X143160965Y-124063048D01*
X143160958Y-124063058D01*
X143065476Y-124228438D01*
X143065473Y-124228445D01*
X143006457Y-124410072D01*
X142986496Y-124600000D01*
X143006457Y-124789927D01*
X143036526Y-124882470D01*
X143065473Y-124971556D01*
X143156757Y-125129665D01*
X143160992Y-125136999D01*
X143177730Y-125205994D01*
X143160992Y-125262999D01*
X143065476Y-125428438D01*
X143065473Y-125428445D01*
X143006457Y-125610072D01*
X142986496Y-125799999D01*
X108089238Y-125799999D01*
X108134527Y-125721556D01*
X108193542Y-125539928D01*
X108213504Y-125350000D01*
X108193542Y-125160072D01*
X108134527Y-124978444D01*
X108039040Y-124813056D01*
X108039038Y-124813054D01*
X108039034Y-124813048D01*
X107911255Y-124671135D01*
X107756752Y-124558882D01*
X107582288Y-124481206D01*
X107395487Y-124441500D01*
X107204513Y-124441500D01*
X107017711Y-124481206D01*
X106843246Y-124558883D01*
X106843243Y-124558884D01*
X106756855Y-124621649D01*
X106689988Y-124645508D01*
X106620836Y-124629427D01*
X106608734Y-124621649D01*
X106556752Y-124583882D01*
X106382288Y-124506206D01*
X106195487Y-124466500D01*
X106004513Y-124466500D01*
X105817711Y-124506206D01*
X105785747Y-124520437D01*
X105715379Y-124529870D01*
X105651083Y-124499762D01*
X105613271Y-124439672D01*
X105608500Y-124405329D01*
X105608500Y-122051367D01*
X105608499Y-122051350D01*
X105601990Y-121990803D01*
X105601988Y-121990795D01*
X105550889Y-121853797D01*
X105550887Y-121853792D01*
X105463261Y-121736738D01*
X105346207Y-121649112D01*
X105346202Y-121649110D01*
X105209204Y-121598011D01*
X105209196Y-121598009D01*
X105148649Y-121591500D01*
X105148638Y-121591500D01*
X102651362Y-121591500D01*
X102651350Y-121591500D01*
X102590803Y-121598009D01*
X102590795Y-121598011D01*
X102453797Y-121649110D01*
X102453792Y-121649112D01*
X102336738Y-121736738D01*
X102249112Y-121853792D01*
X102249110Y-121853797D01*
X102198011Y-121990795D01*
X102198009Y-121990803D01*
X102191500Y-122051350D01*
X102191500Y-124548649D01*
X102198009Y-124609196D01*
X102198011Y-124609204D01*
X102249110Y-124746202D01*
X102249112Y-124746207D01*
X102336738Y-124863261D01*
X102453792Y-124950887D01*
X102453794Y-124950888D01*
X102453796Y-124950889D01*
X102509206Y-124971556D01*
X102590795Y-125001988D01*
X102590803Y-125001990D01*
X102651350Y-125008499D01*
X102651355Y-125008499D01*
X102651362Y-125008500D01*
X102651368Y-125008500D01*
X103130354Y-125008500D01*
X103198475Y-125028502D01*
X103244968Y-125082158D01*
X103255072Y-125152432D01*
X103225578Y-125217012D01*
X103185024Y-125248022D01*
X103043352Y-125316247D01*
X103043345Y-125316251D01*
X102831787Y-125460490D01*
X102831782Y-125460494D01*
X102644070Y-125634665D01*
X102484410Y-125834872D01*
X102356376Y-126056633D01*
X102356374Y-126056637D01*
X102262827Y-126294994D01*
X102262826Y-126294997D01*
X102205845Y-126544643D01*
X102186709Y-126800000D01*
X99400500Y-126800000D01*
X99400500Y-118800000D01*
X102186709Y-118800000D01*
X102205845Y-119055356D01*
X102262826Y-119305002D01*
X102262827Y-119305005D01*
X102356374Y-119543362D01*
X102356376Y-119543366D01*
X102484410Y-119765127D01*
X102484412Y-119765130D01*
X102484413Y-119765131D01*
X102644069Y-119965334D01*
X102831781Y-120139505D01*
X102831787Y-120139509D01*
X103043345Y-120283748D01*
X103043352Y-120283752D01*
X103043355Y-120283754D01*
X103163328Y-120341530D01*
X103274060Y-120394856D01*
X103274073Y-120394861D01*
X103518746Y-120470332D01*
X103518748Y-120470332D01*
X103518757Y-120470335D01*
X103771966Y-120508500D01*
X103771970Y-120508500D01*
X104028030Y-120508500D01*
X104028034Y-120508500D01*
X104281243Y-120470335D01*
X104281253Y-120470332D01*
X104525929Y-120394860D01*
X104525930Y-120394859D01*
X104525935Y-120394858D01*
X104756646Y-120283754D01*
X104968219Y-120139505D01*
X105152072Y-119968914D01*
X105215612Y-119937244D01*
X105286189Y-119944953D01*
X105341394Y-119989596D01*
X105357604Y-120022340D01*
X105365473Y-120046556D01*
X105365476Y-120046561D01*
X105446558Y-120186999D01*
X105463296Y-120255994D01*
X105446558Y-120312999D01*
X105365476Y-120453438D01*
X105365473Y-120453445D01*
X105306457Y-120635072D01*
X105286496Y-120825000D01*
X105306457Y-121014927D01*
X105319801Y-121055994D01*
X105365473Y-121196556D01*
X105370430Y-121205142D01*
X105460958Y-121361941D01*
X105460965Y-121361951D01*
X105588744Y-121503864D01*
X105588747Y-121503866D01*
X105743248Y-121616118D01*
X105917712Y-121693794D01*
X106104513Y-121733500D01*
X106295487Y-121733500D01*
X106482288Y-121693794D01*
X106656752Y-121616118D01*
X106743146Y-121553348D01*
X106810010Y-121529492D01*
X106879162Y-121545572D01*
X106891265Y-121553350D01*
X106943248Y-121591118D01*
X107117712Y-121668794D01*
X107304513Y-121708500D01*
X107495487Y-121708500D01*
X107682288Y-121668794D01*
X107836803Y-121600000D01*
X142986496Y-121600000D01*
X143006457Y-121789927D01*
X143021060Y-121834869D01*
X143065473Y-121971556D01*
X143065476Y-121971561D01*
X143160958Y-122136941D01*
X143160965Y-122136951D01*
X143288744Y-122278864D01*
X143288747Y-122278866D01*
X143443248Y-122391118D01*
X143617712Y-122468794D01*
X143804513Y-122508500D01*
X143995487Y-122508500D01*
X144182288Y-122468794D01*
X144356752Y-122391118D01*
X144375940Y-122377176D01*
X144442805Y-122353319D01*
X144511956Y-122369398D01*
X144524048Y-122377168D01*
X144543248Y-122391118D01*
X144717712Y-122468794D01*
X144904513Y-122508500D01*
X145095487Y-122508500D01*
X145282288Y-122468794D01*
X145456752Y-122391118D01*
X145611253Y-122278866D01*
X145739040Y-122136944D01*
X145834527Y-121971556D01*
X145893542Y-121789928D01*
X145913504Y-121600000D01*
X146286496Y-121600000D01*
X146306457Y-121789927D01*
X146321060Y-121834869D01*
X146365473Y-121971556D01*
X146365476Y-121971561D01*
X146460958Y-122136941D01*
X146460965Y-122136951D01*
X146588744Y-122278864D01*
X146588747Y-122278866D01*
X146743248Y-122391118D01*
X146917712Y-122468794D01*
X147104513Y-122508500D01*
X147295487Y-122508500D01*
X147482288Y-122468794D01*
X147656752Y-122391118D01*
X147811253Y-122278866D01*
X147939040Y-122136944D01*
X148034527Y-121971556D01*
X148093542Y-121789928D01*
X148113504Y-121600000D01*
X148093542Y-121410072D01*
X148034527Y-121228444D01*
X147967874Y-121112999D01*
X147951137Y-121044005D01*
X147967875Y-120987000D01*
X147967876Y-120986999D01*
X148034527Y-120871556D01*
X148093542Y-120689928D01*
X148113504Y-120500000D01*
X148093542Y-120310072D01*
X148034527Y-120128444D01*
X147939040Y-119963056D01*
X147939038Y-119963054D01*
X147939034Y-119963048D01*
X147811255Y-119821135D01*
X147656752Y-119708882D01*
X147482288Y-119631206D01*
X147295487Y-119591500D01*
X147104513Y-119591500D01*
X146917711Y-119631206D01*
X146743247Y-119708882D01*
X146588744Y-119821135D01*
X146460965Y-119963048D01*
X146460958Y-119963058D01*
X146365476Y-120128438D01*
X146365473Y-120128445D01*
X146306457Y-120310072D01*
X146286496Y-120499999D01*
X146306457Y-120689927D01*
X146336526Y-120782470D01*
X146365473Y-120871556D01*
X146365476Y-120871561D01*
X146432124Y-120986999D01*
X146448862Y-121055994D01*
X146432125Y-121112998D01*
X146365474Y-121228441D01*
X146365473Y-121228445D01*
X146306457Y-121410072D01*
X146286496Y-121600000D01*
X145913504Y-121600000D01*
X145893542Y-121410072D01*
X145834527Y-121228444D01*
X145767874Y-121112999D01*
X145751137Y-121044005D01*
X145767875Y-120987000D01*
X145767876Y-120986999D01*
X145834527Y-120871556D01*
X145893542Y-120689928D01*
X145913504Y-120500000D01*
X145893542Y-120310072D01*
X145834527Y-120128444D01*
X145739040Y-119963056D01*
X145739038Y-119963054D01*
X145739034Y-119963048D01*
X145611255Y-119821135D01*
X145456752Y-119708882D01*
X145282288Y-119631206D01*
X145095487Y-119591500D01*
X144904513Y-119591500D01*
X144717711Y-119631206D01*
X144543246Y-119708882D01*
X144543245Y-119708883D01*
X144524061Y-119722822D01*
X144457193Y-119746681D01*
X144388041Y-119730600D01*
X144375939Y-119722822D01*
X144356754Y-119708883D01*
X144356753Y-119708882D01*
X144182288Y-119631206D01*
X143995487Y-119591500D01*
X143804513Y-119591500D01*
X143617711Y-119631206D01*
X143443247Y-119708882D01*
X143288744Y-119821135D01*
X143160965Y-119963048D01*
X143160958Y-119963058D01*
X143065476Y-120128438D01*
X143065473Y-120128445D01*
X143006457Y-120310072D01*
X142986496Y-120499999D01*
X143006457Y-120689927D01*
X143036526Y-120782470D01*
X143065473Y-120871556D01*
X143065476Y-120871561D01*
X143132124Y-120986999D01*
X143148862Y-121055994D01*
X143132125Y-121112998D01*
X143065474Y-121228441D01*
X143065473Y-121228445D01*
X143006457Y-121410072D01*
X142986496Y-121600000D01*
X107836803Y-121600000D01*
X107856752Y-121591118D01*
X108011253Y-121478866D01*
X108011255Y-121478864D01*
X108139034Y-121336951D01*
X108139035Y-121336949D01*
X108139040Y-121336944D01*
X108234527Y-121171556D01*
X108293542Y-120989928D01*
X108313504Y-120800000D01*
X108293542Y-120610072D01*
X108234527Y-120428444D01*
X108153440Y-120287998D01*
X108136703Y-120219005D01*
X108153441Y-120162000D01*
X108234527Y-120021556D01*
X108293542Y-119839928D01*
X108313504Y-119650000D01*
X108293542Y-119460072D01*
X108234527Y-119278444D01*
X108139040Y-119113056D01*
X108139038Y-119113053D01*
X108139007Y-119113000D01*
X108135853Y-119099999D01*
X132536496Y-119099999D01*
X132556457Y-119289927D01*
X132586526Y-119382470D01*
X132615473Y-119471556D01*
X132615476Y-119471561D01*
X132710958Y-119636941D01*
X132710965Y-119636951D01*
X132838744Y-119778864D01*
X132838747Y-119778866D01*
X132993248Y-119891118D01*
X133167712Y-119968794D01*
X133354513Y-120008500D01*
X133545487Y-120008500D01*
X133732288Y-119968794D01*
X133906752Y-119891118D01*
X134061253Y-119778866D01*
X134061255Y-119778864D01*
X134189034Y-119636951D01*
X134189035Y-119636949D01*
X134189040Y-119636944D01*
X134284527Y-119471556D01*
X134343542Y-119289928D01*
X134363504Y-119100000D01*
X134343542Y-118910072D01*
X134284527Y-118728444D01*
X134268105Y-118700000D01*
X175786569Y-118700000D01*
X175806265Y-118962826D01*
X175806266Y-118962830D01*
X175864911Y-119219775D01*
X175961202Y-119465120D01*
X175961205Y-119465128D01*
X176092982Y-119693372D01*
X176092984Y-119693375D01*
X176092985Y-119693376D01*
X176257314Y-119899438D01*
X176450519Y-120078706D01*
X176450525Y-120078710D01*
X176668275Y-120227170D01*
X176668279Y-120227172D01*
X176668285Y-120227176D01*
X176905746Y-120341532D01*
X176905749Y-120341532D01*
X176905754Y-120341535D01*
X177157589Y-120419215D01*
X177157591Y-120419215D01*
X177157600Y-120419218D01*
X177418219Y-120458500D01*
X177418223Y-120458500D01*
X177681777Y-120458500D01*
X177681781Y-120458500D01*
X177942400Y-120419218D01*
X177942410Y-120419215D01*
X178194245Y-120341535D01*
X178194247Y-120341534D01*
X178194254Y-120341532D01*
X178431716Y-120227176D01*
X178649481Y-120078706D01*
X178842686Y-119899438D01*
X179007015Y-119693376D01*
X179135080Y-119471561D01*
X179138794Y-119465128D01*
X179138796Y-119465124D01*
X179235087Y-119219780D01*
X179293735Y-118962826D01*
X179313431Y-118700000D01*
X179293735Y-118437174D01*
X179235087Y-118180220D01*
X179138796Y-117934876D01*
X179138795Y-117934875D01*
X179138794Y-117934871D01*
X179007017Y-117706627D01*
X178979049Y-117671556D01*
X178842686Y-117500562D01*
X178649481Y-117321294D01*
X178649474Y-117321289D01*
X178431725Y-117172829D01*
X178431718Y-117172825D01*
X178194257Y-117058469D01*
X178194245Y-117058464D01*
X177942410Y-116980784D01*
X177942402Y-116980782D01*
X177942400Y-116980782D01*
X177681781Y-116941500D01*
X177418219Y-116941500D01*
X177157600Y-116980782D01*
X177157598Y-116980782D01*
X177157589Y-116980784D01*
X176905754Y-117058464D01*
X176905742Y-117058469D01*
X176668283Y-117172825D01*
X176668275Y-117172829D01*
X176450525Y-117321289D01*
X176450520Y-117321293D01*
X176450519Y-117321294D01*
X176257314Y-117500562D01*
X176227205Y-117538318D01*
X176092982Y-117706627D01*
X175961205Y-117934871D01*
X175961202Y-117934879D01*
X175864911Y-118180224D01*
X175809926Y-118421134D01*
X175806265Y-118437174D01*
X175786569Y-118700000D01*
X134268105Y-118700000D01*
X134189040Y-118563056D01*
X134189038Y-118563054D01*
X134189034Y-118563048D01*
X134061255Y-118421135D01*
X133906752Y-118308882D01*
X133732288Y-118231206D01*
X133545487Y-118191500D01*
X133354513Y-118191500D01*
X133167711Y-118231206D01*
X132993247Y-118308882D01*
X132838744Y-118421135D01*
X132710965Y-118563048D01*
X132710958Y-118563058D01*
X132615476Y-118728438D01*
X132615473Y-118728445D01*
X132556457Y-118910072D01*
X132536496Y-119099999D01*
X108135853Y-119099999D01*
X108122269Y-119044005D01*
X108139007Y-118987000D01*
X108139038Y-118986946D01*
X108139040Y-118986944D01*
X108234527Y-118821556D01*
X108293542Y-118639928D01*
X108313504Y-118450000D01*
X108293542Y-118260072D01*
X108234527Y-118078444D01*
X108153441Y-117937999D01*
X108136703Y-117869004D01*
X108153439Y-117812003D01*
X108234527Y-117671556D01*
X108293542Y-117489928D01*
X108313504Y-117300000D01*
X108293542Y-117110072D01*
X108234527Y-116928444D01*
X108139040Y-116763056D01*
X108139038Y-116763054D01*
X108139034Y-116763048D01*
X108011255Y-116621135D01*
X107856752Y-116508882D01*
X107682288Y-116431206D01*
X107495487Y-116391500D01*
X107304513Y-116391500D01*
X107117711Y-116431206D01*
X106943246Y-116508883D01*
X106943243Y-116508884D01*
X106856855Y-116571649D01*
X106789988Y-116595508D01*
X106720836Y-116579427D01*
X106708734Y-116571649D01*
X106656752Y-116533882D01*
X106482288Y-116456206D01*
X106295487Y-116416500D01*
X106104513Y-116416500D01*
X105917709Y-116456206D01*
X105785748Y-116514959D01*
X105715381Y-116524393D01*
X105651084Y-116494286D01*
X105613271Y-116434197D01*
X105608500Y-116399852D01*
X105608500Y-114051367D01*
X105608499Y-114051350D01*
X105601990Y-113990803D01*
X105601988Y-113990795D01*
X105550889Y-113853797D01*
X105550887Y-113853792D01*
X105463261Y-113736738D01*
X105346207Y-113649112D01*
X105346202Y-113649110D01*
X105209204Y-113598011D01*
X105209196Y-113598009D01*
X105148649Y-113591500D01*
X105148638Y-113591500D01*
X102651362Y-113591500D01*
X102651350Y-113591500D01*
X102590803Y-113598009D01*
X102590795Y-113598011D01*
X102453797Y-113649110D01*
X102453792Y-113649112D01*
X102336738Y-113736738D01*
X102249112Y-113853792D01*
X102249110Y-113853797D01*
X102198011Y-113990795D01*
X102198009Y-113990803D01*
X102191500Y-114051350D01*
X102191500Y-116548649D01*
X102198009Y-116609196D01*
X102198011Y-116609204D01*
X102249110Y-116746202D01*
X102249112Y-116746207D01*
X102336738Y-116863261D01*
X102453792Y-116950887D01*
X102453794Y-116950888D01*
X102453796Y-116950889D01*
X102512875Y-116972924D01*
X102590795Y-117001988D01*
X102590803Y-117001990D01*
X102651350Y-117008499D01*
X102651355Y-117008499D01*
X102651362Y-117008500D01*
X102651368Y-117008500D01*
X103130354Y-117008500D01*
X103198475Y-117028502D01*
X103244968Y-117082158D01*
X103255072Y-117152432D01*
X103225578Y-117217012D01*
X103185024Y-117248022D01*
X103043352Y-117316247D01*
X103043345Y-117316251D01*
X102831787Y-117460490D01*
X102831782Y-117460494D01*
X102644070Y-117634665D01*
X102484410Y-117834872D01*
X102356376Y-118056633D01*
X102356374Y-118056637D01*
X102262827Y-118294994D01*
X102262826Y-118294997D01*
X102205845Y-118544643D01*
X102186709Y-118800000D01*
X99400500Y-118800000D01*
X99400500Y-110800000D01*
X102186709Y-110800000D01*
X102205845Y-111055356D01*
X102262826Y-111305002D01*
X102262827Y-111305005D01*
X102356374Y-111543362D01*
X102356376Y-111543366D01*
X102484410Y-111765127D01*
X102484412Y-111765130D01*
X102484413Y-111765131D01*
X102644069Y-111965334D01*
X102831781Y-112139505D01*
X102831787Y-112139509D01*
X103043345Y-112283748D01*
X103043352Y-112283752D01*
X103043355Y-112283754D01*
X103176360Y-112347806D01*
X103274060Y-112394856D01*
X103274073Y-112394861D01*
X103518746Y-112470332D01*
X103518748Y-112470332D01*
X103518757Y-112470335D01*
X103771966Y-112508500D01*
X103771970Y-112508500D01*
X104028030Y-112508500D01*
X104028034Y-112508500D01*
X104281243Y-112470335D01*
X104297456Y-112465334D01*
X104525929Y-112394860D01*
X104525930Y-112394859D01*
X104525935Y-112394858D01*
X104756646Y-112283754D01*
X104968219Y-112139505D01*
X105152072Y-111968914D01*
X105215612Y-111937244D01*
X105286189Y-111944953D01*
X105341394Y-111989596D01*
X105357604Y-112022340D01*
X105365473Y-112046556D01*
X105365476Y-112046561D01*
X105446558Y-112186999D01*
X105463296Y-112255994D01*
X105446558Y-112312999D01*
X105365476Y-112453438D01*
X105365473Y-112453444D01*
X105350999Y-112497986D01*
X105306457Y-112635072D01*
X105286496Y-112825000D01*
X105306457Y-113014927D01*
X105323128Y-113066234D01*
X105365473Y-113196556D01*
X105370430Y-113205142D01*
X105460958Y-113361941D01*
X105460965Y-113361951D01*
X105588744Y-113503864D01*
X105624018Y-113529492D01*
X105743248Y-113616118D01*
X105917712Y-113693794D01*
X106104513Y-113733500D01*
X106295487Y-113733500D01*
X106482288Y-113693794D01*
X106656752Y-113616118D01*
X106743146Y-113553348D01*
X106810010Y-113529492D01*
X106879162Y-113545572D01*
X106891265Y-113553350D01*
X106943248Y-113591118D01*
X107117712Y-113668794D01*
X107304513Y-113708500D01*
X107495487Y-113708500D01*
X107682288Y-113668794D01*
X107856752Y-113591118D01*
X108011253Y-113478866D01*
X108011255Y-113478864D01*
X108139034Y-113336951D01*
X108139035Y-113336949D01*
X108139040Y-113336944D01*
X108234527Y-113171556D01*
X108293542Y-112989928D01*
X108305359Y-112877500D01*
X125496578Y-112877500D01*
X125516228Y-113102100D01*
X125541539Y-113196561D01*
X125574580Y-113319874D01*
X125574582Y-113319879D01*
X125669865Y-113524214D01*
X125799176Y-113708891D01*
X125799185Y-113708901D01*
X125958598Y-113868314D01*
X125958608Y-113868323D01*
X126143285Y-113997634D01*
X126143288Y-113997635D01*
X126143289Y-113997636D01*
X126347624Y-114092919D01*
X126565400Y-114151272D01*
X126790000Y-114170922D01*
X127014600Y-114151272D01*
X127232376Y-114092919D01*
X127436711Y-113997636D01*
X127446481Y-113990795D01*
X127621391Y-113868323D01*
X127621393Y-113868320D01*
X127621396Y-113868319D01*
X127780819Y-113708896D01*
X127781097Y-113708500D01*
X127910134Y-113524214D01*
X127910138Y-113524207D01*
X127939847Y-113460495D01*
X127945804Y-113447719D01*
X127992720Y-113394434D01*
X128060997Y-113374972D01*
X128128957Y-113395513D01*
X128174193Y-113447717D01*
X128209863Y-113524210D01*
X128209865Y-113524214D01*
X128339176Y-113708891D01*
X128339185Y-113708901D01*
X128498598Y-113868314D01*
X128498608Y-113868323D01*
X128683285Y-113997634D01*
X128683288Y-113997635D01*
X128683289Y-113997636D01*
X128887624Y-114092919D01*
X129105400Y-114151272D01*
X129330000Y-114170922D01*
X129554600Y-114151272D01*
X129772376Y-114092919D01*
X129976711Y-113997636D01*
X129986481Y-113990795D01*
X130161391Y-113868323D01*
X130161393Y-113868320D01*
X130161396Y-113868319D01*
X130320819Y-113708896D01*
X130321097Y-113708500D01*
X130450134Y-113524214D01*
X130450134Y-113524213D01*
X130450136Y-113524211D01*
X130485805Y-113447717D01*
X130532722Y-113394433D01*
X130600999Y-113374972D01*
X130668959Y-113395514D01*
X130714194Y-113447717D01*
X130720152Y-113460494D01*
X130749865Y-113524214D01*
X130879176Y-113708891D01*
X130879185Y-113708901D01*
X131038598Y-113868314D01*
X131038608Y-113868323D01*
X131223285Y-113997634D01*
X131223288Y-113997635D01*
X131223289Y-113997636D01*
X131427624Y-114092919D01*
X131645400Y-114151272D01*
X131870000Y-114170922D01*
X132094600Y-114151272D01*
X132312376Y-114092919D01*
X132516711Y-113997636D01*
X132526481Y-113990795D01*
X132701391Y-113868323D01*
X132701393Y-113868320D01*
X132701396Y-113868319D01*
X132860819Y-113708896D01*
X132861097Y-113708500D01*
X132990134Y-113524214D01*
X132990138Y-113524207D01*
X133019847Y-113460495D01*
X133025804Y-113447719D01*
X133072720Y-113394434D01*
X133140997Y-113374972D01*
X133208957Y-113395513D01*
X133254193Y-113447717D01*
X133289863Y-113524210D01*
X133289865Y-113524214D01*
X133419176Y-113708891D01*
X133419185Y-113708901D01*
X133578598Y-113868314D01*
X133578608Y-113868323D01*
X133763285Y-113997634D01*
X133763288Y-113997635D01*
X133763289Y-113997636D01*
X133967624Y-114092919D01*
X134185400Y-114151272D01*
X134410000Y-114170922D01*
X134634600Y-114151272D01*
X134852376Y-114092919D01*
X135056711Y-113997636D01*
X135066481Y-113990795D01*
X135241391Y-113868323D01*
X135241393Y-113868320D01*
X135241396Y-113868319D01*
X135400819Y-113708896D01*
X135401097Y-113708500D01*
X135530134Y-113524214D01*
X135530134Y-113524213D01*
X135530136Y-113524211D01*
X135565805Y-113447717D01*
X135612722Y-113394433D01*
X135680999Y-113374972D01*
X135748959Y-113395514D01*
X135794194Y-113447717D01*
X135800152Y-113460494D01*
X135829865Y-113524214D01*
X135959176Y-113708891D01*
X135959185Y-113708901D01*
X136118598Y-113868314D01*
X136118608Y-113868323D01*
X136303285Y-113997634D01*
X136303288Y-113997635D01*
X136303289Y-113997636D01*
X136507624Y-114092919D01*
X136725400Y-114151272D01*
X136950000Y-114170922D01*
X137174600Y-114151272D01*
X137392376Y-114092919D01*
X137596711Y-113997636D01*
X137606481Y-113990795D01*
X137781391Y-113868323D01*
X137781393Y-113868320D01*
X137781396Y-113868319D01*
X137940819Y-113708896D01*
X137941097Y-113708500D01*
X138070134Y-113524214D01*
X138070134Y-113524213D01*
X138070136Y-113524211D01*
X138105805Y-113447717D01*
X138152722Y-113394433D01*
X138220999Y-113374972D01*
X138288959Y-113395514D01*
X138334194Y-113447717D01*
X138340152Y-113460494D01*
X138369865Y-113524214D01*
X138499176Y-113708891D01*
X138499185Y-113708901D01*
X138658598Y-113868314D01*
X138658608Y-113868323D01*
X138843285Y-113997634D01*
X138843288Y-113997635D01*
X138843289Y-113997636D01*
X139047624Y-114092919D01*
X139265400Y-114151272D01*
X139490000Y-114170922D01*
X139714600Y-114151272D01*
X139932376Y-114092919D01*
X140136711Y-113997636D01*
X140146481Y-113990795D01*
X140321391Y-113868323D01*
X140321393Y-113868320D01*
X140321396Y-113868319D01*
X140480819Y-113708896D01*
X140481097Y-113708500D01*
X140610134Y-113524214D01*
X140610134Y-113524213D01*
X140610136Y-113524211D01*
X140645805Y-113447717D01*
X140692722Y-113394433D01*
X140760999Y-113374972D01*
X140828959Y-113395514D01*
X140874194Y-113447717D01*
X140880152Y-113460494D01*
X140909865Y-113524214D01*
X141039176Y-113708891D01*
X141039185Y-113708901D01*
X141198598Y-113868314D01*
X141198608Y-113868323D01*
X141383285Y-113997634D01*
X141383288Y-113997635D01*
X141383289Y-113997636D01*
X141587624Y-114092919D01*
X141805400Y-114151272D01*
X142030000Y-114170922D01*
X142254600Y-114151272D01*
X142472376Y-114092919D01*
X142676711Y-113997636D01*
X142686481Y-113990795D01*
X142861391Y-113868323D01*
X142861393Y-113868320D01*
X142861396Y-113868319D01*
X143020819Y-113708896D01*
X143021097Y-113708500D01*
X143150134Y-113524214D01*
X143150138Y-113524207D01*
X143179847Y-113460495D01*
X143185804Y-113447719D01*
X143232720Y-113394434D01*
X143300997Y-113374972D01*
X143368957Y-113395513D01*
X143414193Y-113447717D01*
X143449863Y-113524210D01*
X143449865Y-113524214D01*
X143579176Y-113708891D01*
X143579185Y-113708901D01*
X143738598Y-113868314D01*
X143738608Y-113868323D01*
X143923285Y-113997634D01*
X143923288Y-113997635D01*
X143923289Y-113997636D01*
X144127624Y-114092919D01*
X144345400Y-114151272D01*
X144570000Y-114170922D01*
X144794600Y-114151272D01*
X145012376Y-114092919D01*
X145216711Y-113997636D01*
X145226481Y-113990795D01*
X145401391Y-113868323D01*
X145401393Y-113868320D01*
X145401396Y-113868319D01*
X145560819Y-113708896D01*
X145561097Y-113708500D01*
X145690134Y-113524214D01*
X145690134Y-113524213D01*
X145690136Y-113524211D01*
X145725805Y-113447717D01*
X145772722Y-113394433D01*
X145840999Y-113374972D01*
X145908959Y-113395514D01*
X145954194Y-113447717D01*
X145960152Y-113460494D01*
X145989865Y-113524214D01*
X146119176Y-113708891D01*
X146119185Y-113708901D01*
X146278598Y-113868314D01*
X146278608Y-113868323D01*
X146463285Y-113997634D01*
X146463288Y-113997635D01*
X146463289Y-113997636D01*
X146667624Y-114092919D01*
X146885400Y-114151272D01*
X147110000Y-114170922D01*
X147334600Y-114151272D01*
X147552376Y-114092919D01*
X147756711Y-113997636D01*
X147766481Y-113990795D01*
X147941391Y-113868323D01*
X147941393Y-113868320D01*
X147941396Y-113868319D01*
X148100819Y-113708896D01*
X148101097Y-113708500D01*
X148230134Y-113524214D01*
X148230134Y-113524213D01*
X148230136Y-113524211D01*
X148265805Y-113447717D01*
X148312722Y-113394433D01*
X148380999Y-113374972D01*
X148448959Y-113395514D01*
X148494194Y-113447717D01*
X148500152Y-113460494D01*
X148529865Y-113524214D01*
X148659176Y-113708891D01*
X148659185Y-113708901D01*
X148818598Y-113868314D01*
X148818608Y-113868323D01*
X149003285Y-113997634D01*
X149003288Y-113997635D01*
X149003289Y-113997636D01*
X149207624Y-114092919D01*
X149425400Y-114151272D01*
X149650000Y-114170922D01*
X149874600Y-114151272D01*
X150092376Y-114092919D01*
X150296711Y-113997636D01*
X150306481Y-113990795D01*
X150481391Y-113868323D01*
X150481393Y-113868320D01*
X150481396Y-113868319D01*
X150640819Y-113708896D01*
X150641097Y-113708500D01*
X150770134Y-113524214D01*
X150770134Y-113524213D01*
X150770136Y-113524211D01*
X150805805Y-113447717D01*
X150852722Y-113394433D01*
X150920999Y-113374972D01*
X150988959Y-113395514D01*
X151034194Y-113447717D01*
X151040152Y-113460494D01*
X151069865Y-113524214D01*
X151199176Y-113708891D01*
X151199185Y-113708901D01*
X151358598Y-113868314D01*
X151358608Y-113868323D01*
X151543285Y-113997634D01*
X151543288Y-113997635D01*
X151543289Y-113997636D01*
X151747624Y-114092919D01*
X151965400Y-114151272D01*
X152190000Y-114170922D01*
X152414600Y-114151272D01*
X152632376Y-114092919D01*
X152836711Y-113997636D01*
X152846481Y-113990795D01*
X153021391Y-113868323D01*
X153021393Y-113868320D01*
X153021396Y-113868319D01*
X153180819Y-113708896D01*
X153181097Y-113708500D01*
X153310134Y-113524214D01*
X153310134Y-113524213D01*
X153310136Y-113524211D01*
X153345805Y-113447717D01*
X153392722Y-113394433D01*
X153460999Y-113374972D01*
X153528959Y-113395514D01*
X153574194Y-113447717D01*
X153580152Y-113460494D01*
X153609865Y-113524214D01*
X153739176Y-113708891D01*
X153739185Y-113708901D01*
X153898598Y-113868314D01*
X153898608Y-113868323D01*
X154083285Y-113997634D01*
X154083288Y-113997635D01*
X154083289Y-113997636D01*
X154287624Y-114092919D01*
X154505400Y-114151272D01*
X154730000Y-114170922D01*
X154954600Y-114151272D01*
X155172376Y-114092919D01*
X155376711Y-113997636D01*
X155386481Y-113990795D01*
X155561391Y-113868323D01*
X155561393Y-113868320D01*
X155561396Y-113868319D01*
X155720819Y-113708896D01*
X155721097Y-113708500D01*
X155850134Y-113524214D01*
X155850134Y-113524213D01*
X155850136Y-113524211D01*
X155945419Y-113319876D01*
X156003772Y-113102100D01*
X156023422Y-112877500D01*
X158516578Y-112877500D01*
X158536228Y-113102100D01*
X158561539Y-113196561D01*
X158594580Y-113319874D01*
X158594582Y-113319879D01*
X158689865Y-113524214D01*
X158819176Y-113708891D01*
X158819185Y-113708901D01*
X158978598Y-113868314D01*
X158978608Y-113868323D01*
X159163285Y-113997634D01*
X159163288Y-113997635D01*
X159163289Y-113997636D01*
X159367624Y-114092919D01*
X159585400Y-114151272D01*
X159810000Y-114170922D01*
X160034600Y-114151272D01*
X160252376Y-114092919D01*
X160456711Y-113997636D01*
X160466481Y-113990795D01*
X160641391Y-113868323D01*
X160641393Y-113868320D01*
X160641396Y-113868319D01*
X160800819Y-113708896D01*
X160801097Y-113708500D01*
X160930134Y-113524214D01*
X160930134Y-113524213D01*
X160930136Y-113524211D01*
X160965805Y-113447717D01*
X161012722Y-113394433D01*
X161080999Y-113374972D01*
X161148959Y-113395514D01*
X161194194Y-113447717D01*
X161200152Y-113460494D01*
X161229865Y-113524214D01*
X161359176Y-113708891D01*
X161359185Y-113708901D01*
X161518598Y-113868314D01*
X161518608Y-113868323D01*
X161703285Y-113997634D01*
X161703288Y-113997635D01*
X161703289Y-113997636D01*
X161907624Y-114092919D01*
X162125400Y-114151272D01*
X162350000Y-114170922D01*
X162574600Y-114151272D01*
X162792376Y-114092919D01*
X162996711Y-113997636D01*
X163006481Y-113990795D01*
X163181391Y-113868323D01*
X163181393Y-113868320D01*
X163181396Y-113868319D01*
X163340819Y-113708896D01*
X163341097Y-113708500D01*
X163470134Y-113524214D01*
X163470134Y-113524213D01*
X163470136Y-113524211D01*
X163505805Y-113447717D01*
X163552722Y-113394433D01*
X163620999Y-113374972D01*
X163688959Y-113395514D01*
X163734194Y-113447717D01*
X163740152Y-113460494D01*
X163769865Y-113524214D01*
X163899176Y-113708891D01*
X163899185Y-113708901D01*
X164058598Y-113868314D01*
X164058608Y-113868323D01*
X164243285Y-113997634D01*
X164243288Y-113997635D01*
X164243289Y-113997636D01*
X164447624Y-114092919D01*
X164665400Y-114151272D01*
X164890000Y-114170922D01*
X165114600Y-114151272D01*
X165332376Y-114092919D01*
X165536711Y-113997636D01*
X165546481Y-113990795D01*
X165721391Y-113868323D01*
X165721393Y-113868320D01*
X165721396Y-113868319D01*
X165880819Y-113708896D01*
X165881097Y-113708500D01*
X166010134Y-113524214D01*
X166010134Y-113524213D01*
X166010136Y-113524211D01*
X166045805Y-113447717D01*
X166092722Y-113394433D01*
X166160999Y-113374972D01*
X166228959Y-113395514D01*
X166274194Y-113447717D01*
X166280152Y-113460494D01*
X166309865Y-113524214D01*
X166439176Y-113708891D01*
X166439185Y-113708901D01*
X166598598Y-113868314D01*
X166598608Y-113868323D01*
X166783285Y-113997634D01*
X166783288Y-113997635D01*
X166783289Y-113997636D01*
X166987624Y-114092919D01*
X167205400Y-114151272D01*
X167430000Y-114170922D01*
X167654600Y-114151272D01*
X167872376Y-114092919D01*
X168076711Y-113997636D01*
X168086481Y-113990795D01*
X168261391Y-113868323D01*
X168261393Y-113868320D01*
X168261396Y-113868319D01*
X168420819Y-113708896D01*
X168421097Y-113708500D01*
X168550134Y-113524214D01*
X168550134Y-113524213D01*
X168550136Y-113524211D01*
X168585805Y-113447717D01*
X168632722Y-113394433D01*
X168700999Y-113374972D01*
X168768959Y-113395514D01*
X168814194Y-113447717D01*
X168820152Y-113460494D01*
X168849865Y-113524214D01*
X168979176Y-113708891D01*
X168979185Y-113708901D01*
X169138598Y-113868314D01*
X169138608Y-113868323D01*
X169323285Y-113997634D01*
X169323288Y-113997635D01*
X169323289Y-113997636D01*
X169527624Y-114092919D01*
X169745400Y-114151272D01*
X169970000Y-114170922D01*
X170194600Y-114151272D01*
X170412376Y-114092919D01*
X170611641Y-114000000D01*
X175786569Y-114000000D01*
X175806265Y-114262826D01*
X175806266Y-114262830D01*
X175864911Y-114519775D01*
X175961202Y-114765120D01*
X175961205Y-114765128D01*
X176092982Y-114993372D01*
X176092984Y-114993375D01*
X176092985Y-114993376D01*
X176257314Y-115199438D01*
X176450519Y-115378706D01*
X176450525Y-115378710D01*
X176668275Y-115527170D01*
X176668279Y-115527172D01*
X176668285Y-115527176D01*
X176905746Y-115641532D01*
X176905749Y-115641532D01*
X176905754Y-115641535D01*
X177157589Y-115719215D01*
X177157591Y-115719215D01*
X177157600Y-115719218D01*
X177418219Y-115758500D01*
X177418223Y-115758500D01*
X177681777Y-115758500D01*
X177681781Y-115758500D01*
X177942400Y-115719218D01*
X177942410Y-115719215D01*
X178194245Y-115641535D01*
X178194247Y-115641534D01*
X178194254Y-115641532D01*
X178431716Y-115527176D01*
X178649481Y-115378706D01*
X178842686Y-115199438D01*
X179007015Y-114993376D01*
X179072905Y-114879249D01*
X179118661Y-114799999D01*
X182736709Y-114799999D01*
X182755845Y-115055356D01*
X182812826Y-115305002D01*
X182812827Y-115305005D01*
X182906374Y-115543362D01*
X182906376Y-115543366D01*
X183034410Y-115765127D01*
X183034412Y-115765130D01*
X183034413Y-115765131D01*
X183194069Y-115965334D01*
X183381781Y-116139505D01*
X183381787Y-116139509D01*
X183593345Y-116283748D01*
X183593352Y-116283752D01*
X183593355Y-116283754D01*
X183726360Y-116347806D01*
X183824060Y-116394856D01*
X183824073Y-116394861D01*
X184068746Y-116470332D01*
X184068748Y-116470332D01*
X184068757Y-116470335D01*
X184321966Y-116508500D01*
X184321970Y-116508500D01*
X184578030Y-116508500D01*
X184578034Y-116508500D01*
X184831243Y-116470335D01*
X184831253Y-116470332D01*
X185075929Y-116394860D01*
X185075930Y-116394859D01*
X185075935Y-116394858D01*
X185306646Y-116283754D01*
X185518219Y-116139505D01*
X185705931Y-115965334D01*
X185865587Y-115765131D01*
X185993622Y-115543369D01*
X186087174Y-115305001D01*
X186144155Y-115055353D01*
X186163291Y-114800000D01*
X186144155Y-114544647D01*
X186087174Y-114294999D01*
X186038478Y-114170922D01*
X185993625Y-114056637D01*
X185993623Y-114056633D01*
X185865589Y-113834872D01*
X185865587Y-113834869D01*
X185705931Y-113634666D01*
X185518219Y-113460495D01*
X185499477Y-113447717D01*
X185421324Y-113394433D01*
X185306646Y-113316246D01*
X185306643Y-113316245D01*
X185306641Y-113316243D01*
X185306640Y-113316242D01*
X185075936Y-113205142D01*
X185075929Y-113205139D01*
X184963311Y-113170402D01*
X184904113Y-113131210D01*
X184875500Y-113066234D01*
X184886559Y-112996104D01*
X184933777Y-112943086D01*
X184963311Y-112929598D01*
X185075929Y-112894860D01*
X185075930Y-112894859D01*
X185075935Y-112894858D01*
X185306646Y-112783754D01*
X185518219Y-112639505D01*
X185705931Y-112465334D01*
X185865587Y-112265131D01*
X185993622Y-112043369D01*
X186087174Y-111805001D01*
X186144155Y-111555353D01*
X186163291Y-111300000D01*
X186144155Y-111044647D01*
X186087174Y-110794999D01*
X186041533Y-110678706D01*
X185993625Y-110556637D01*
X185993623Y-110556633D01*
X185865589Y-110334872D01*
X185865587Y-110334869D01*
X185705931Y-110134666D01*
X185518219Y-109960495D01*
X185485307Y-109938056D01*
X185333965Y-109834872D01*
X185306646Y-109816246D01*
X185306643Y-109816245D01*
X185306641Y-109816243D01*
X185306640Y-109816242D01*
X185075936Y-109705142D01*
X185075929Y-109705139D01*
X184831253Y-109629667D01*
X184831245Y-109629665D01*
X184831243Y-109629665D01*
X184578034Y-109591500D01*
X184321966Y-109591500D01*
X184068757Y-109629665D01*
X184068755Y-109629665D01*
X184068746Y-109629667D01*
X183824073Y-109705138D01*
X183824060Y-109705143D01*
X183593352Y-109816247D01*
X183593345Y-109816251D01*
X183381787Y-109960490D01*
X183381782Y-109960494D01*
X183194070Y-110134665D01*
X183034410Y-110334872D01*
X182906376Y-110556633D01*
X182906374Y-110556637D01*
X182812827Y-110794994D01*
X182812826Y-110794997D01*
X182755845Y-111044643D01*
X182736709Y-111300000D01*
X182755845Y-111555356D01*
X182812826Y-111805002D01*
X182812827Y-111805005D01*
X182906374Y-112043362D01*
X182906376Y-112043366D01*
X183034410Y-112265127D01*
X183034412Y-112265130D01*
X183034413Y-112265131D01*
X183194069Y-112465334D01*
X183381781Y-112639505D01*
X183381787Y-112639509D01*
X183593345Y-112783748D01*
X183593352Y-112783752D01*
X183593355Y-112783754D01*
X183726360Y-112847806D01*
X183824060Y-112894856D01*
X183824073Y-112894861D01*
X183936688Y-112929598D01*
X183995887Y-112968790D01*
X184024499Y-113033766D01*
X184013440Y-113103896D01*
X183966222Y-113156914D01*
X183936688Y-113170402D01*
X183824073Y-113205138D01*
X183824060Y-113205143D01*
X183593352Y-113316247D01*
X183593345Y-113316251D01*
X183381787Y-113460490D01*
X183381782Y-113460494D01*
X183194070Y-113634665D01*
X183034410Y-113834872D01*
X182906376Y-114056633D01*
X182906374Y-114056637D01*
X182812827Y-114294994D01*
X182812826Y-114294997D01*
X182755845Y-114544643D01*
X182736709Y-114799999D01*
X179118661Y-114799999D01*
X179138794Y-114765128D01*
X179138796Y-114765124D01*
X179235087Y-114519780D01*
X179293735Y-114262826D01*
X179313431Y-114000000D01*
X179293735Y-113737174D01*
X179235087Y-113480220D01*
X179138796Y-113234876D01*
X179138795Y-113234875D01*
X179138794Y-113234871D01*
X179007017Y-113006627D01*
X179007015Y-113006624D01*
X178842686Y-112800562D01*
X178649481Y-112621294D01*
X178649474Y-112621289D01*
X178431725Y-112472829D01*
X178431718Y-112472825D01*
X178426547Y-112470335D01*
X178391461Y-112453438D01*
X178194257Y-112358469D01*
X178194245Y-112358464D01*
X177942410Y-112280784D01*
X177942402Y-112280782D01*
X177942400Y-112280782D01*
X177681781Y-112241500D01*
X177418219Y-112241500D01*
X177157600Y-112280782D01*
X177157598Y-112280782D01*
X177157589Y-112280784D01*
X176905754Y-112358464D01*
X176905742Y-112358469D01*
X176668283Y-112472825D01*
X176668275Y-112472829D01*
X176450525Y-112621289D01*
X176450520Y-112621293D01*
X176257315Y-112800561D01*
X176092982Y-113006627D01*
X175961205Y-113234871D01*
X175961202Y-113234879D01*
X175864911Y-113480224D01*
X175806364Y-113736739D01*
X175806265Y-113737174D01*
X175786569Y-114000000D01*
X170611641Y-114000000D01*
X170616711Y-113997636D01*
X170626481Y-113990795D01*
X170801391Y-113868323D01*
X170801393Y-113868320D01*
X170801396Y-113868319D01*
X170960819Y-113708896D01*
X170961097Y-113708500D01*
X171090134Y-113524214D01*
X171090134Y-113524213D01*
X171090136Y-113524211D01*
X171185419Y-113319876D01*
X171243772Y-113102100D01*
X171263422Y-112877500D01*
X171243772Y-112652900D01*
X171185419Y-112435124D01*
X171090136Y-112230789D01*
X171090135Y-112230788D01*
X171090134Y-112230785D01*
X170960823Y-112046108D01*
X170960814Y-112046098D01*
X170801401Y-111886685D01*
X170801391Y-111886676D01*
X170616714Y-111757365D01*
X170412379Y-111662082D01*
X170412374Y-111662080D01*
X170311304Y-111634998D01*
X170194600Y-111603728D01*
X169970000Y-111584078D01*
X169745400Y-111603728D01*
X169687048Y-111619363D01*
X169527625Y-111662080D01*
X169527620Y-111662082D01*
X169323285Y-111757365D01*
X169138608Y-111886676D01*
X169138598Y-111886685D01*
X168979185Y-112046098D01*
X168979176Y-112046108D01*
X168849865Y-112230785D01*
X168814195Y-112307281D01*
X168767277Y-112360566D01*
X168699000Y-112380027D01*
X168631040Y-112359485D01*
X168585805Y-112307281D01*
X168550134Y-112230785D01*
X168420823Y-112046108D01*
X168420814Y-112046098D01*
X168261401Y-111886685D01*
X168261391Y-111886676D01*
X168076714Y-111757365D01*
X167872379Y-111662082D01*
X167872374Y-111662080D01*
X167771304Y-111634998D01*
X167654600Y-111603728D01*
X167430000Y-111584078D01*
X167429999Y-111584078D01*
X167317700Y-111593903D01*
X167205400Y-111603728D01*
X167147048Y-111619363D01*
X166987625Y-111662080D01*
X166987620Y-111662082D01*
X166783285Y-111757365D01*
X166598608Y-111886676D01*
X166598598Y-111886685D01*
X166439185Y-112046098D01*
X166439176Y-112046108D01*
X166309865Y-112230785D01*
X166309862Y-112230790D01*
X166274193Y-112307282D01*
X166227275Y-112360567D01*
X166158998Y-112380027D01*
X166091038Y-112359484D01*
X166045804Y-112307280D01*
X166010136Y-112230788D01*
X166010134Y-112230785D01*
X165880823Y-112046108D01*
X165880814Y-112046098D01*
X165721401Y-111886685D01*
X165721391Y-111886676D01*
X165536714Y-111757365D01*
X165332379Y-111662082D01*
X165332374Y-111662080D01*
X165231304Y-111634998D01*
X165114600Y-111603728D01*
X164890000Y-111584078D01*
X164665400Y-111603728D01*
X164607048Y-111619363D01*
X164447625Y-111662080D01*
X164447620Y-111662082D01*
X164243285Y-111757365D01*
X164058608Y-111886676D01*
X164058598Y-111886685D01*
X163899185Y-112046098D01*
X163899176Y-112046108D01*
X163769865Y-112230785D01*
X163734195Y-112307281D01*
X163687277Y-112360566D01*
X163619000Y-112380027D01*
X163551040Y-112359485D01*
X163505805Y-112307281D01*
X163470134Y-112230785D01*
X163340823Y-112046108D01*
X163340814Y-112046098D01*
X163181401Y-111886685D01*
X163181391Y-111886676D01*
X162996714Y-111757365D01*
X162792379Y-111662082D01*
X162792374Y-111662080D01*
X162691304Y-111634998D01*
X162574600Y-111603728D01*
X162350000Y-111584078D01*
X162125400Y-111603728D01*
X162067048Y-111619363D01*
X161907625Y-111662080D01*
X161907620Y-111662082D01*
X161703285Y-111757365D01*
X161518608Y-111886676D01*
X161518598Y-111886685D01*
X161359185Y-112046098D01*
X161359176Y-112046108D01*
X161229865Y-112230785D01*
X161194195Y-112307281D01*
X161147277Y-112360566D01*
X161079000Y-112380027D01*
X161011040Y-112359485D01*
X160965805Y-112307281D01*
X160930134Y-112230785D01*
X160800823Y-112046108D01*
X160800814Y-112046098D01*
X160641401Y-111886685D01*
X160641391Y-111886676D01*
X160456714Y-111757365D01*
X160252379Y-111662082D01*
X160252374Y-111662080D01*
X160151304Y-111634998D01*
X160034600Y-111603728D01*
X159810000Y-111584078D01*
X159585400Y-111603728D01*
X159527048Y-111619363D01*
X159367625Y-111662080D01*
X159367620Y-111662082D01*
X159163285Y-111757365D01*
X158978608Y-111886676D01*
X158978598Y-111886685D01*
X158819185Y-112046098D01*
X158819176Y-112046108D01*
X158689865Y-112230785D01*
X158594582Y-112435120D01*
X158594580Y-112435125D01*
X158574920Y-112508500D01*
X158536228Y-112652900D01*
X158516578Y-112877500D01*
X156023422Y-112877500D01*
X156003772Y-112652900D01*
X155945419Y-112435124D01*
X155850136Y-112230789D01*
X155850135Y-112230788D01*
X155850134Y-112230785D01*
X155720823Y-112046108D01*
X155720814Y-112046098D01*
X155561401Y-111886685D01*
X155561391Y-111886676D01*
X155376714Y-111757365D01*
X155172379Y-111662082D01*
X155172374Y-111662080D01*
X155071304Y-111634998D01*
X154954600Y-111603728D01*
X154730000Y-111584078D01*
X154729999Y-111584078D01*
X154617700Y-111593903D01*
X154505400Y-111603728D01*
X154447048Y-111619363D01*
X154287625Y-111662080D01*
X154287620Y-111662082D01*
X154083285Y-111757365D01*
X153898608Y-111886676D01*
X153898598Y-111886685D01*
X153739185Y-112046098D01*
X153739176Y-112046108D01*
X153609865Y-112230785D01*
X153574195Y-112307281D01*
X153527277Y-112360566D01*
X153459000Y-112380027D01*
X153391040Y-112359485D01*
X153345805Y-112307281D01*
X153310134Y-112230785D01*
X153180823Y-112046108D01*
X153180814Y-112046098D01*
X153021401Y-111886685D01*
X153021391Y-111886676D01*
X152836714Y-111757365D01*
X152632379Y-111662082D01*
X152632374Y-111662080D01*
X152531304Y-111634998D01*
X152414600Y-111603728D01*
X152190000Y-111584078D01*
X151965400Y-111603728D01*
X151907048Y-111619363D01*
X151747625Y-111662080D01*
X151747620Y-111662082D01*
X151543285Y-111757365D01*
X151358608Y-111886676D01*
X151358598Y-111886685D01*
X151199185Y-112046098D01*
X151199176Y-112046108D01*
X151069865Y-112230785D01*
X151034195Y-112307281D01*
X150987277Y-112360566D01*
X150919000Y-112380027D01*
X150851040Y-112359485D01*
X150805805Y-112307281D01*
X150770134Y-112230785D01*
X150640823Y-112046108D01*
X150640814Y-112046098D01*
X150481401Y-111886685D01*
X150481391Y-111886676D01*
X150296714Y-111757365D01*
X150092379Y-111662082D01*
X150092374Y-111662080D01*
X149991304Y-111634998D01*
X149874600Y-111603728D01*
X149650000Y-111584078D01*
X149425400Y-111603728D01*
X149367048Y-111619363D01*
X149207625Y-111662080D01*
X149207620Y-111662082D01*
X149003285Y-111757365D01*
X148818608Y-111886676D01*
X148818598Y-111886685D01*
X148659185Y-112046098D01*
X148659176Y-112046108D01*
X148529865Y-112230785D01*
X148494195Y-112307281D01*
X148447277Y-112360566D01*
X148379000Y-112380027D01*
X148311040Y-112359485D01*
X148265805Y-112307281D01*
X148230134Y-112230785D01*
X148100823Y-112046108D01*
X148100814Y-112046098D01*
X147941401Y-111886685D01*
X147941391Y-111886676D01*
X147756714Y-111757365D01*
X147552379Y-111662082D01*
X147552374Y-111662080D01*
X147451304Y-111634998D01*
X147334600Y-111603728D01*
X147110000Y-111584078D01*
X146885400Y-111603728D01*
X146827048Y-111619363D01*
X146667625Y-111662080D01*
X146667620Y-111662082D01*
X146463285Y-111757365D01*
X146278608Y-111886676D01*
X146278598Y-111886685D01*
X146119185Y-112046098D01*
X146119176Y-112046108D01*
X145989865Y-112230785D01*
X145954195Y-112307281D01*
X145907277Y-112360566D01*
X145839000Y-112380027D01*
X145771040Y-112359485D01*
X145725805Y-112307281D01*
X145690134Y-112230785D01*
X145560823Y-112046108D01*
X145560814Y-112046098D01*
X145401401Y-111886685D01*
X145401391Y-111886676D01*
X145216714Y-111757365D01*
X145012379Y-111662082D01*
X145012374Y-111662080D01*
X144911304Y-111634998D01*
X144794600Y-111603728D01*
X144570000Y-111584078D01*
X144569999Y-111584078D01*
X144457699Y-111593903D01*
X144345400Y-111603728D01*
X144287048Y-111619363D01*
X144127625Y-111662080D01*
X144127620Y-111662082D01*
X143923285Y-111757365D01*
X143738608Y-111886676D01*
X143738598Y-111886685D01*
X143579185Y-112046098D01*
X143579176Y-112046108D01*
X143449865Y-112230785D01*
X143414195Y-112307281D01*
X143367277Y-112360566D01*
X143299000Y-112380027D01*
X143231040Y-112359485D01*
X143185805Y-112307281D01*
X143150134Y-112230785D01*
X143020823Y-112046108D01*
X143020814Y-112046098D01*
X142861401Y-111886685D01*
X142861391Y-111886676D01*
X142676714Y-111757365D01*
X142472379Y-111662082D01*
X142472374Y-111662080D01*
X142371304Y-111634998D01*
X142254600Y-111603728D01*
X142030000Y-111584078D01*
X141805400Y-111603728D01*
X141747048Y-111619363D01*
X141587625Y-111662080D01*
X141587620Y-111662082D01*
X141383285Y-111757365D01*
X141198608Y-111886676D01*
X141198598Y-111886685D01*
X141039185Y-112046098D01*
X141039176Y-112046108D01*
X140909865Y-112230785D01*
X140874195Y-112307281D01*
X140827277Y-112360566D01*
X140759000Y-112380027D01*
X140691040Y-112359485D01*
X140645805Y-112307281D01*
X140610134Y-112230785D01*
X140480823Y-112046108D01*
X140480814Y-112046098D01*
X140321401Y-111886685D01*
X140321391Y-111886676D01*
X140136714Y-111757365D01*
X139932379Y-111662082D01*
X139932374Y-111662080D01*
X139831304Y-111634998D01*
X139714600Y-111603728D01*
X139490000Y-111584078D01*
X139265400Y-111603728D01*
X139207048Y-111619363D01*
X139047625Y-111662080D01*
X139047620Y-111662082D01*
X138843285Y-111757365D01*
X138658608Y-111886676D01*
X138658598Y-111886685D01*
X138499185Y-112046098D01*
X138499176Y-112046108D01*
X138369865Y-112230785D01*
X138334195Y-112307281D01*
X138287277Y-112360566D01*
X138219000Y-112380027D01*
X138151040Y-112359485D01*
X138105805Y-112307281D01*
X138070134Y-112230785D01*
X137940823Y-112046108D01*
X137940814Y-112046098D01*
X137781401Y-111886685D01*
X137781391Y-111886676D01*
X137596714Y-111757365D01*
X137392379Y-111662082D01*
X137392374Y-111662080D01*
X137291304Y-111634998D01*
X137174600Y-111603728D01*
X136950000Y-111584078D01*
X136725400Y-111603728D01*
X136667048Y-111619363D01*
X136507625Y-111662080D01*
X136507620Y-111662082D01*
X136303285Y-111757365D01*
X136118608Y-111886676D01*
X136118598Y-111886685D01*
X135959185Y-112046098D01*
X135959176Y-112046108D01*
X135829865Y-112230785D01*
X135794195Y-112307281D01*
X135747277Y-112360566D01*
X135679000Y-112380027D01*
X135611040Y-112359485D01*
X135565805Y-112307281D01*
X135530134Y-112230785D01*
X135400823Y-112046108D01*
X135400814Y-112046098D01*
X135241401Y-111886685D01*
X135241391Y-111886676D01*
X135056714Y-111757365D01*
X134852379Y-111662082D01*
X134852374Y-111662080D01*
X134751304Y-111634998D01*
X134634600Y-111603728D01*
X134410000Y-111584078D01*
X134409999Y-111584078D01*
X134297700Y-111593903D01*
X134185400Y-111603728D01*
X134127048Y-111619363D01*
X133967625Y-111662080D01*
X133967620Y-111662082D01*
X133763285Y-111757365D01*
X133578608Y-111886676D01*
X133578598Y-111886685D01*
X133419185Y-112046098D01*
X133419176Y-112046108D01*
X133289865Y-112230785D01*
X133289862Y-112230790D01*
X133254193Y-112307282D01*
X133207275Y-112360567D01*
X133138998Y-112380027D01*
X133071038Y-112359484D01*
X133025804Y-112307280D01*
X132990136Y-112230788D01*
X132990134Y-112230785D01*
X132860823Y-112046108D01*
X132860814Y-112046098D01*
X132701401Y-111886685D01*
X132701391Y-111886676D01*
X132516714Y-111757365D01*
X132312379Y-111662082D01*
X132312374Y-111662080D01*
X132211304Y-111634998D01*
X132094600Y-111603728D01*
X131870000Y-111584078D01*
X131869999Y-111584078D01*
X131757699Y-111593903D01*
X131645400Y-111603728D01*
X131587048Y-111619363D01*
X131427625Y-111662080D01*
X131427620Y-111662082D01*
X131223285Y-111757365D01*
X131038608Y-111886676D01*
X131038598Y-111886685D01*
X130879185Y-112046098D01*
X130879176Y-112046108D01*
X130749865Y-112230785D01*
X130714195Y-112307281D01*
X130667277Y-112360566D01*
X130599000Y-112380027D01*
X130531040Y-112359485D01*
X130485805Y-112307281D01*
X130450134Y-112230785D01*
X130320823Y-112046108D01*
X130320814Y-112046098D01*
X130161401Y-111886685D01*
X130161391Y-111886676D01*
X129976714Y-111757365D01*
X129772379Y-111662082D01*
X129772374Y-111662080D01*
X129671304Y-111634998D01*
X129554600Y-111603728D01*
X129330000Y-111584078D01*
X129105400Y-111603728D01*
X129047048Y-111619363D01*
X128887625Y-111662080D01*
X128887620Y-111662082D01*
X128683285Y-111757365D01*
X128498608Y-111886676D01*
X128498598Y-111886685D01*
X128339185Y-112046098D01*
X128339176Y-112046108D01*
X128209865Y-112230785D01*
X128209862Y-112230790D01*
X128174193Y-112307282D01*
X128127275Y-112360567D01*
X128058998Y-112380027D01*
X127991038Y-112359484D01*
X127945804Y-112307280D01*
X127910136Y-112230788D01*
X127910134Y-112230785D01*
X127780823Y-112046108D01*
X127780814Y-112046098D01*
X127621401Y-111886685D01*
X127621391Y-111886676D01*
X127436714Y-111757365D01*
X127232379Y-111662082D01*
X127232374Y-111662080D01*
X127131304Y-111634998D01*
X127014600Y-111603728D01*
X126790000Y-111584078D01*
X126565400Y-111603728D01*
X126507048Y-111619363D01*
X126347625Y-111662080D01*
X126347620Y-111662082D01*
X126143285Y-111757365D01*
X125958608Y-111886676D01*
X125958598Y-111886685D01*
X125799185Y-112046098D01*
X125799176Y-112046108D01*
X125669865Y-112230785D01*
X125574582Y-112435120D01*
X125574580Y-112435125D01*
X125554920Y-112508500D01*
X125516228Y-112652900D01*
X125496578Y-112877500D01*
X108305359Y-112877500D01*
X108313504Y-112800000D01*
X108293542Y-112610072D01*
X108234527Y-112428444D01*
X108153440Y-112287998D01*
X108136703Y-112219005D01*
X108153441Y-112162000D01*
X108234527Y-112021556D01*
X108293542Y-111839928D01*
X108313504Y-111650000D01*
X108293542Y-111460072D01*
X108234527Y-111278444D01*
X108139040Y-111113056D01*
X108139038Y-111113053D01*
X108139007Y-111113000D01*
X108122269Y-111044005D01*
X108139007Y-110987000D01*
X108139038Y-110986946D01*
X108139040Y-110986944D01*
X108234527Y-110821556D01*
X108293542Y-110639928D01*
X108313504Y-110450000D01*
X108293542Y-110260072D01*
X108234527Y-110078444D01*
X108153441Y-109937999D01*
X108136703Y-109869004D01*
X108153439Y-109812003D01*
X108234527Y-109671556D01*
X108293542Y-109489928D01*
X108313504Y-109300000D01*
X108293542Y-109110072D01*
X108234527Y-108928444D01*
X108139040Y-108763056D01*
X108139038Y-108763054D01*
X108139034Y-108763048D01*
X108011255Y-108621135D01*
X107856752Y-108508882D01*
X107682288Y-108431206D01*
X107495487Y-108391500D01*
X107304513Y-108391500D01*
X107117711Y-108431206D01*
X106943246Y-108508883D01*
X106943243Y-108508884D01*
X106856855Y-108571649D01*
X106789988Y-108595508D01*
X106720836Y-108579427D01*
X106708734Y-108571649D01*
X106656752Y-108533882D01*
X106482288Y-108456206D01*
X106295487Y-108416500D01*
X106104513Y-108416500D01*
X105917709Y-108456206D01*
X105785748Y-108514959D01*
X105715381Y-108524393D01*
X105651084Y-108494286D01*
X105613271Y-108434197D01*
X105608500Y-108399852D01*
X105608500Y-106872773D01*
X144341788Y-106872773D01*
X144351683Y-107181355D01*
X144351684Y-107181364D01*
X144400960Y-107486157D01*
X144400961Y-107486160D01*
X144488805Y-107782136D01*
X144488805Y-107782137D01*
X144550404Y-107921289D01*
X144613783Y-108064463D01*
X144695366Y-108199041D01*
X144773837Y-108328487D01*
X144966333Y-108569871D01*
X144966341Y-108569880D01*
X145148409Y-108746202D01*
X145188126Y-108784666D01*
X145317160Y-108880966D01*
X145435555Y-108969327D01*
X145435557Y-108969328D01*
X145435561Y-108969331D01*
X145704579Y-109120839D01*
X145990763Y-109236702D01*
X146289413Y-109315018D01*
X146595626Y-109354500D01*
X146595631Y-109354500D01*
X146827106Y-109354500D01*
X146919114Y-109348592D01*
X147058114Y-109339668D01*
X147261803Y-109300000D01*
X175786569Y-109300000D01*
X175806265Y-109562826D01*
X175806266Y-109562830D01*
X175864911Y-109819775D01*
X175961202Y-110065120D01*
X175961205Y-110065128D01*
X176092982Y-110293372D01*
X176092984Y-110293375D01*
X176092985Y-110293376D01*
X176257314Y-110499438D01*
X176450519Y-110678706D01*
X176450525Y-110678710D01*
X176668275Y-110827170D01*
X176668279Y-110827172D01*
X176668285Y-110827176D01*
X176905746Y-110941532D01*
X176905749Y-110941532D01*
X176905754Y-110941535D01*
X177157589Y-111019215D01*
X177157591Y-111019215D01*
X177157600Y-111019218D01*
X177418219Y-111058500D01*
X177418223Y-111058500D01*
X177681777Y-111058500D01*
X177681781Y-111058500D01*
X177942400Y-111019218D01*
X177942410Y-111019215D01*
X178194245Y-110941535D01*
X178194247Y-110941534D01*
X178194254Y-110941532D01*
X178431716Y-110827176D01*
X178649481Y-110678706D01*
X178842686Y-110499438D01*
X179007015Y-110293376D01*
X179138796Y-110065124D01*
X179235087Y-109819780D01*
X179293735Y-109562826D01*
X179313431Y-109300000D01*
X179293735Y-109037174D01*
X179235087Y-108780220D01*
X179138796Y-108534876D01*
X179138795Y-108534875D01*
X179138794Y-108534871D01*
X179007017Y-108306627D01*
X178921220Y-108199041D01*
X178842686Y-108100562D01*
X178649481Y-107921294D01*
X178649474Y-107921289D01*
X178431725Y-107772829D01*
X178431718Y-107772825D01*
X178194257Y-107658469D01*
X178194245Y-107658464D01*
X177942410Y-107580784D01*
X177942402Y-107580782D01*
X177942400Y-107580782D01*
X177681781Y-107541500D01*
X177418219Y-107541500D01*
X177157600Y-107580782D01*
X177157598Y-107580782D01*
X177157589Y-107580784D01*
X176905754Y-107658464D01*
X176905742Y-107658469D01*
X176668283Y-107772825D01*
X176668275Y-107772829D01*
X176450525Y-107921289D01*
X176450520Y-107921293D01*
X176257315Y-108100561D01*
X176092982Y-108306627D01*
X175961205Y-108534871D01*
X175961202Y-108534879D01*
X175864911Y-108780224D01*
X175808244Y-109028502D01*
X175806265Y-109037174D01*
X175786569Y-109300000D01*
X147261803Y-109300000D01*
X147361168Y-109280649D01*
X147654187Y-109183360D01*
X147932359Y-109049399D01*
X148125714Y-108923539D01*
X148191110Y-108880971D01*
X148191112Y-108880969D01*
X148191117Y-108880966D01*
X148426212Y-108680827D01*
X148633784Y-108452268D01*
X148810424Y-108199041D01*
X148953231Y-107925305D01*
X148954708Y-107921293D01*
X149005918Y-107782137D01*
X149059862Y-107635555D01*
X149128565Y-107334548D01*
X149158212Y-107027227D01*
X149148316Y-106718637D01*
X149099040Y-106413847D01*
X149054699Y-106264448D01*
X149011194Y-106117863D01*
X149011194Y-106117862D01*
X148999537Y-106091529D01*
X148886217Y-105835537D01*
X148726164Y-105571514D01*
X148627451Y-105447732D01*
X148533666Y-105330128D01*
X148533658Y-105330119D01*
X148311875Y-105115335D01*
X148311874Y-105115334D01*
X148212305Y-105041024D01*
X148064444Y-104930672D01*
X147803581Y-104783757D01*
X147795421Y-104779161D01*
X147795419Y-104779160D01*
X147509241Y-104663299D01*
X147210588Y-104584982D01*
X147159551Y-104578401D01*
X146904374Y-104545500D01*
X146672901Y-104545500D01*
X146672894Y-104545500D01*
X146441880Y-104560332D01*
X146138847Y-104619347D01*
X146138826Y-104619352D01*
X145845812Y-104716640D01*
X145567643Y-104850599D01*
X145308889Y-105019028D01*
X145308887Y-105019030D01*
X145100355Y-105196556D01*
X145073788Y-105219173D01*
X144866216Y-105447732D01*
X144748758Y-105616118D01*
X144689575Y-105700961D01*
X144546766Y-105974699D01*
X144440137Y-106264448D01*
X144371434Y-106565454D01*
X144341788Y-106872773D01*
X105608500Y-106872773D01*
X105608500Y-106051367D01*
X105608499Y-106051350D01*
X105601990Y-105990803D01*
X105601988Y-105990795D01*
X105550889Y-105853797D01*
X105550887Y-105853792D01*
X105463261Y-105736738D01*
X105346207Y-105649112D01*
X105346202Y-105649110D01*
X105209204Y-105598011D01*
X105209196Y-105598009D01*
X105148649Y-105591500D01*
X105148638Y-105591500D01*
X102651362Y-105591500D01*
X102651350Y-105591500D01*
X102590803Y-105598009D01*
X102590795Y-105598011D01*
X102453797Y-105649110D01*
X102453792Y-105649112D01*
X102336738Y-105736738D01*
X102249112Y-105853792D01*
X102249110Y-105853797D01*
X102198011Y-105990795D01*
X102198009Y-105990803D01*
X102191500Y-106051350D01*
X102191500Y-108548649D01*
X102198009Y-108609196D01*
X102198011Y-108609204D01*
X102249110Y-108746202D01*
X102249112Y-108746207D01*
X102336738Y-108863261D01*
X102453792Y-108950887D01*
X102453794Y-108950888D01*
X102453796Y-108950889D01*
X102512875Y-108972924D01*
X102590795Y-109001988D01*
X102590803Y-109001990D01*
X102651350Y-109008499D01*
X102651355Y-109008499D01*
X102651362Y-109008500D01*
X102651368Y-109008500D01*
X103130354Y-109008500D01*
X103198475Y-109028502D01*
X103244968Y-109082158D01*
X103255072Y-109152432D01*
X103225578Y-109217012D01*
X103185024Y-109248022D01*
X103043352Y-109316247D01*
X103043345Y-109316251D01*
X102831787Y-109460490D01*
X102831782Y-109460494D01*
X102644070Y-109634665D01*
X102484410Y-109834872D01*
X102356376Y-110056633D01*
X102356374Y-110056637D01*
X102262827Y-110294994D01*
X102262826Y-110294997D01*
X102205845Y-110544643D01*
X102186709Y-110800000D01*
X99400500Y-110800000D01*
X99400500Y-102800000D01*
X102186709Y-102800000D01*
X102205845Y-103055356D01*
X102262826Y-103305002D01*
X102262827Y-103305005D01*
X102356374Y-103543362D01*
X102356376Y-103543366D01*
X102484410Y-103765127D01*
X102484412Y-103765130D01*
X102484413Y-103765131D01*
X102644069Y-103965334D01*
X102831781Y-104139505D01*
X102831787Y-104139509D01*
X103043345Y-104283748D01*
X103043352Y-104283752D01*
X103043355Y-104283754D01*
X103176360Y-104347806D01*
X103274060Y-104394856D01*
X103274073Y-104394861D01*
X103518746Y-104470332D01*
X103518748Y-104470332D01*
X103518757Y-104470335D01*
X103771966Y-104508500D01*
X103771970Y-104508500D01*
X104028030Y-104508500D01*
X104028034Y-104508500D01*
X104281243Y-104470335D01*
X104297456Y-104465334D01*
X104525929Y-104394860D01*
X104525930Y-104394859D01*
X104525935Y-104394858D01*
X104756646Y-104283754D01*
X104968219Y-104139505D01*
X105152072Y-103968914D01*
X105215612Y-103937244D01*
X105286189Y-103944953D01*
X105341394Y-103989596D01*
X105357604Y-104022340D01*
X105365473Y-104046556D01*
X105365476Y-104046561D01*
X105446558Y-104186999D01*
X105463296Y-104255994D01*
X105446558Y-104312999D01*
X105365476Y-104453438D01*
X105365473Y-104453445D01*
X105306457Y-104635072D01*
X105286496Y-104825000D01*
X105306457Y-105014927D01*
X105336526Y-105107470D01*
X105365473Y-105196556D01*
X105365476Y-105196561D01*
X105460958Y-105361941D01*
X105460965Y-105361951D01*
X105588744Y-105503864D01*
X105588747Y-105503866D01*
X105743248Y-105616118D01*
X105917712Y-105693794D01*
X106104513Y-105733500D01*
X106295487Y-105733500D01*
X106482288Y-105693794D01*
X106656752Y-105616118D01*
X106743146Y-105553348D01*
X106810010Y-105529492D01*
X106879162Y-105545572D01*
X106891265Y-105553350D01*
X106943248Y-105591118D01*
X107117712Y-105668794D01*
X107304513Y-105708500D01*
X107495487Y-105708500D01*
X107682288Y-105668794D01*
X107856752Y-105591118D01*
X108011253Y-105478866D01*
X108139040Y-105336944D01*
X108234527Y-105171556D01*
X108293542Y-104989928D01*
X108313504Y-104800000D01*
X108293542Y-104610072D01*
X108234527Y-104428444D01*
X108153440Y-104287998D01*
X108136703Y-104219005D01*
X108153441Y-104162000D01*
X108234527Y-104021556D01*
X108293542Y-103839928D01*
X108313504Y-103650000D01*
X108293542Y-103460072D01*
X108241531Y-103299999D01*
X182736709Y-103299999D01*
X182755845Y-103555356D01*
X182812826Y-103805002D01*
X182812827Y-103805005D01*
X182906374Y-104043362D01*
X182906376Y-104043366D01*
X183034410Y-104265127D01*
X183034412Y-104265130D01*
X183034413Y-104265131D01*
X183194069Y-104465334D01*
X183381781Y-104639505D01*
X183381787Y-104639509D01*
X183593345Y-104783748D01*
X183593352Y-104783752D01*
X183593355Y-104783754D01*
X183726360Y-104847806D01*
X183824060Y-104894856D01*
X183824073Y-104894861D01*
X184068746Y-104970332D01*
X184068748Y-104970332D01*
X184068757Y-104970335D01*
X184321966Y-105008500D01*
X184321970Y-105008500D01*
X184578030Y-105008500D01*
X184578034Y-105008500D01*
X184831243Y-104970335D01*
X184831253Y-104970332D01*
X185075929Y-104894860D01*
X185075930Y-104894859D01*
X185075935Y-104894858D01*
X185306646Y-104783754D01*
X185518219Y-104639505D01*
X185705931Y-104465334D01*
X185865587Y-104265131D01*
X185993622Y-104043369D01*
X186087174Y-103805001D01*
X186144155Y-103555353D01*
X186163291Y-103300000D01*
X186144155Y-103044647D01*
X186087174Y-102794999D01*
X186082013Y-102781849D01*
X185993625Y-102556637D01*
X185993623Y-102556633D01*
X185865589Y-102334872D01*
X185865587Y-102334869D01*
X185705931Y-102134666D01*
X185518219Y-101960495D01*
X185485307Y-101938056D01*
X185333965Y-101834872D01*
X185306646Y-101816246D01*
X185306643Y-101816245D01*
X185306641Y-101816243D01*
X185306640Y-101816242D01*
X185075936Y-101705142D01*
X185075929Y-101705139D01*
X184963311Y-101670402D01*
X184904113Y-101631210D01*
X184875500Y-101566234D01*
X184886559Y-101496104D01*
X184933777Y-101443086D01*
X184963311Y-101429598D01*
X185075929Y-101394860D01*
X185075930Y-101394859D01*
X185075935Y-101394858D01*
X185306646Y-101283754D01*
X185518219Y-101139505D01*
X185705931Y-100965334D01*
X185865587Y-100765131D01*
X185993622Y-100543369D01*
X185997346Y-100533882D01*
X186087172Y-100305005D01*
X186087174Y-100305001D01*
X186144155Y-100055353D01*
X186163291Y-99800000D01*
X186144155Y-99544647D01*
X186087174Y-99294999D01*
X186082013Y-99281849D01*
X185993625Y-99056637D01*
X185993623Y-99056633D01*
X185865589Y-98834872D01*
X185865587Y-98834869D01*
X185705931Y-98634666D01*
X185518219Y-98460495D01*
X185306646Y-98316246D01*
X185306643Y-98316245D01*
X185306641Y-98316243D01*
X185306640Y-98316242D01*
X185075936Y-98205142D01*
X185075929Y-98205139D01*
X184831253Y-98129667D01*
X184831245Y-98129665D01*
X184831243Y-98129665D01*
X184578034Y-98091500D01*
X184321966Y-98091500D01*
X184068757Y-98129665D01*
X184068755Y-98129665D01*
X184068746Y-98129667D01*
X183824073Y-98205138D01*
X183824060Y-98205143D01*
X183593352Y-98316247D01*
X183593345Y-98316251D01*
X183381787Y-98460490D01*
X183381782Y-98460494D01*
X183194070Y-98634665D01*
X183034410Y-98834872D01*
X182906376Y-99056633D01*
X182906374Y-99056637D01*
X182812827Y-99294994D01*
X182812826Y-99294997D01*
X182755845Y-99544643D01*
X182736709Y-99800000D01*
X182755845Y-100055356D01*
X182812826Y-100305002D01*
X182812827Y-100305005D01*
X182906374Y-100543362D01*
X182906376Y-100543366D01*
X183034410Y-100765127D01*
X183034412Y-100765130D01*
X183034413Y-100765131D01*
X183194069Y-100965334D01*
X183381781Y-101139505D01*
X183381787Y-101139509D01*
X183593345Y-101283748D01*
X183593352Y-101283752D01*
X183593355Y-101283754D01*
X183726360Y-101347806D01*
X183824060Y-101394856D01*
X183824073Y-101394861D01*
X183936688Y-101429598D01*
X183995887Y-101468790D01*
X184024499Y-101533766D01*
X184013440Y-101603896D01*
X183966222Y-101656914D01*
X183936688Y-101670402D01*
X183824073Y-101705138D01*
X183824060Y-101705143D01*
X183593352Y-101816247D01*
X183593345Y-101816251D01*
X183381787Y-101960490D01*
X183381782Y-101960494D01*
X183194070Y-102134665D01*
X183034410Y-102334872D01*
X182906376Y-102556633D01*
X182906374Y-102556637D01*
X182812827Y-102794994D01*
X182812826Y-102794997D01*
X182755845Y-103044643D01*
X182736709Y-103299999D01*
X108241531Y-103299999D01*
X108234527Y-103278444D01*
X108139040Y-103113056D01*
X108139038Y-103113053D01*
X108139007Y-103113000D01*
X108122269Y-103044005D01*
X108139007Y-102987000D01*
X108139038Y-102986946D01*
X108139040Y-102986944D01*
X108234527Y-102821556D01*
X108293542Y-102639928D01*
X108313504Y-102450000D01*
X108293542Y-102260072D01*
X108234527Y-102078444D01*
X108153441Y-101937999D01*
X108136703Y-101869004D01*
X108153439Y-101812003D01*
X108234527Y-101671556D01*
X108293542Y-101489928D01*
X108313504Y-101300000D01*
X108293542Y-101110072D01*
X108234527Y-100928444D01*
X108139040Y-100763056D01*
X108139038Y-100763054D01*
X108139034Y-100763048D01*
X108011255Y-100621135D01*
X107856752Y-100508882D01*
X107682288Y-100431206D01*
X107495487Y-100391500D01*
X107304513Y-100391500D01*
X107117711Y-100431206D01*
X106943246Y-100508883D01*
X106943243Y-100508884D01*
X106856855Y-100571649D01*
X106789988Y-100595508D01*
X106720836Y-100579427D01*
X106708734Y-100571649D01*
X106656752Y-100533882D01*
X106482288Y-100456206D01*
X106295487Y-100416500D01*
X106104513Y-100416500D01*
X105917709Y-100456206D01*
X105785748Y-100514959D01*
X105715381Y-100524393D01*
X105651084Y-100494286D01*
X105613271Y-100434197D01*
X105608500Y-100399852D01*
X105608500Y-98051367D01*
X105608499Y-98051350D01*
X105601990Y-97990803D01*
X105601988Y-97990795D01*
X105550889Y-97853797D01*
X105550887Y-97853792D01*
X105463261Y-97736738D01*
X105346207Y-97649112D01*
X105346202Y-97649110D01*
X105209204Y-97598011D01*
X105209196Y-97598009D01*
X105148649Y-97591500D01*
X105148638Y-97591500D01*
X102651362Y-97591500D01*
X102651350Y-97591500D01*
X102590803Y-97598009D01*
X102590795Y-97598011D01*
X102453797Y-97649110D01*
X102453792Y-97649112D01*
X102336738Y-97736738D01*
X102249112Y-97853792D01*
X102249110Y-97853797D01*
X102198011Y-97990795D01*
X102198009Y-97990803D01*
X102191500Y-98051350D01*
X102191500Y-100548649D01*
X102198009Y-100609196D01*
X102198011Y-100609204D01*
X102249110Y-100746202D01*
X102249112Y-100746207D01*
X102336738Y-100863261D01*
X102453792Y-100950887D01*
X102453794Y-100950888D01*
X102453796Y-100950889D01*
X102492524Y-100965334D01*
X102590795Y-101001988D01*
X102590803Y-101001990D01*
X102651350Y-101008499D01*
X102651355Y-101008499D01*
X102651362Y-101008500D01*
X102651368Y-101008500D01*
X103130354Y-101008500D01*
X103198475Y-101028502D01*
X103244968Y-101082158D01*
X103255072Y-101152432D01*
X103225578Y-101217012D01*
X103185024Y-101248022D01*
X103043352Y-101316247D01*
X103043345Y-101316251D01*
X102831787Y-101460490D01*
X102831782Y-101460494D01*
X102644070Y-101634665D01*
X102484410Y-101834872D01*
X102356376Y-102056633D01*
X102356374Y-102056637D01*
X102262827Y-102294994D01*
X102262826Y-102294997D01*
X102205845Y-102544643D01*
X102186709Y-102800000D01*
X99400500Y-102800000D01*
X99400500Y-94800000D01*
X102186709Y-94800000D01*
X102205845Y-95055356D01*
X102262826Y-95305002D01*
X102262827Y-95305005D01*
X102356374Y-95543362D01*
X102356376Y-95543366D01*
X102484410Y-95765127D01*
X102484412Y-95765130D01*
X102484413Y-95765131D01*
X102644069Y-95965334D01*
X102831781Y-96139505D01*
X102831787Y-96139509D01*
X103043345Y-96283748D01*
X103043352Y-96283752D01*
X103043355Y-96283754D01*
X103176360Y-96347806D01*
X103274060Y-96394856D01*
X103274073Y-96394861D01*
X103518746Y-96470332D01*
X103518748Y-96470332D01*
X103518757Y-96470335D01*
X103771966Y-96508500D01*
X103771970Y-96508500D01*
X104028030Y-96508500D01*
X104028034Y-96508500D01*
X104281243Y-96470335D01*
X104281253Y-96470332D01*
X104525929Y-96394860D01*
X104525930Y-96394859D01*
X104525935Y-96394858D01*
X104756646Y-96283754D01*
X104968219Y-96139505D01*
X105155931Y-95965334D01*
X105211126Y-95896120D01*
X105269234Y-95855335D01*
X105340171Y-95852438D01*
X105401414Y-95888353D01*
X105429468Y-95935745D01*
X105465473Y-96046556D01*
X105519137Y-96139505D01*
X105546558Y-96186999D01*
X105563296Y-96255994D01*
X105546558Y-96312999D01*
X105465476Y-96453438D01*
X105465473Y-96453445D01*
X105406457Y-96635072D01*
X105386496Y-96824999D01*
X105406457Y-97014927D01*
X105436526Y-97107470D01*
X105465473Y-97196556D01*
X105465476Y-97196561D01*
X105560958Y-97361941D01*
X105560965Y-97361951D01*
X105688744Y-97503864D01*
X105688747Y-97503866D01*
X105843248Y-97616118D01*
X106017712Y-97693794D01*
X106204513Y-97733500D01*
X106395487Y-97733500D01*
X106582288Y-97693794D01*
X106756752Y-97616118D01*
X106843146Y-97553348D01*
X106910010Y-97529492D01*
X106979162Y-97545572D01*
X106991265Y-97553350D01*
X107043248Y-97591118D01*
X107217712Y-97668794D01*
X107404513Y-97708500D01*
X107595487Y-97708500D01*
X107782288Y-97668794D01*
X107956752Y-97591118D01*
X108111253Y-97478866D01*
X108239040Y-97336944D01*
X108334527Y-97171556D01*
X108393542Y-96989928D01*
X108413504Y-96800000D01*
X108393542Y-96610072D01*
X108334527Y-96428444D01*
X108253440Y-96287998D01*
X108236703Y-96219005D01*
X108253441Y-96162000D01*
X108318105Y-96050000D01*
X165636496Y-96050000D01*
X165656457Y-96239927D01*
X165672096Y-96288056D01*
X165715473Y-96421556D01*
X165715476Y-96421561D01*
X165810958Y-96586941D01*
X165810965Y-96586951D01*
X165938744Y-96728864D01*
X165938747Y-96728866D01*
X166093248Y-96841118D01*
X166267712Y-96918794D01*
X166454513Y-96958500D01*
X166645487Y-96958500D01*
X166832288Y-96918794D01*
X167006752Y-96841118D01*
X167161253Y-96728866D01*
X167161255Y-96728864D01*
X167289034Y-96586951D01*
X167289035Y-96586949D01*
X167289040Y-96586944D01*
X167384527Y-96421556D01*
X167443542Y-96239928D01*
X167463504Y-96050000D01*
X167443542Y-95860072D01*
X167384527Y-95678444D01*
X167289040Y-95513056D01*
X167289038Y-95513054D01*
X167289034Y-95513048D01*
X167161255Y-95371135D01*
X167006752Y-95258882D01*
X166832288Y-95181206D01*
X166645487Y-95141500D01*
X166454513Y-95141500D01*
X166267711Y-95181206D01*
X166093247Y-95258882D01*
X165938744Y-95371135D01*
X165810965Y-95513048D01*
X165810958Y-95513058D01*
X165715476Y-95678438D01*
X165715473Y-95678445D01*
X165656457Y-95860072D01*
X165636496Y-96050000D01*
X108318105Y-96050000D01*
X108334527Y-96021556D01*
X108393542Y-95839928D01*
X108413504Y-95650000D01*
X108393542Y-95460072D01*
X108334527Y-95278444D01*
X108239040Y-95113056D01*
X108239038Y-95113053D01*
X108239007Y-95113000D01*
X108222269Y-95044005D01*
X108239007Y-94987000D01*
X108239038Y-94986946D01*
X108239040Y-94986944D01*
X108334527Y-94821556D01*
X108393542Y-94639928D01*
X108413504Y-94450000D01*
X108393542Y-94260072D01*
X108334527Y-94078444D01*
X108253440Y-93937998D01*
X108236703Y-93869005D01*
X108253441Y-93812000D01*
X108334527Y-93671556D01*
X108393542Y-93489928D01*
X108413504Y-93300000D01*
X108393542Y-93110072D01*
X108334527Y-92928444D01*
X108239040Y-92763056D01*
X108239038Y-92763054D01*
X108239034Y-92763048D01*
X108111255Y-92621135D01*
X107956752Y-92508882D01*
X107782288Y-92431206D01*
X107595487Y-92391500D01*
X107404513Y-92391500D01*
X107217711Y-92431206D01*
X107043246Y-92508883D01*
X107043243Y-92508884D01*
X106956855Y-92571649D01*
X106889988Y-92595508D01*
X106820836Y-92579427D01*
X106808734Y-92571649D01*
X106756752Y-92533882D01*
X106582288Y-92456206D01*
X106395487Y-92416500D01*
X106204513Y-92416500D01*
X106017711Y-92456206D01*
X105843247Y-92533882D01*
X105808560Y-92559084D01*
X105741692Y-92582942D01*
X105672540Y-92566860D01*
X105623061Y-92515946D01*
X105608500Y-92457147D01*
X105608500Y-91799999D01*
X182736709Y-91799999D01*
X182755845Y-92055356D01*
X182812826Y-92305002D01*
X182812827Y-92305005D01*
X182906374Y-92543362D01*
X182906376Y-92543366D01*
X183034410Y-92765127D01*
X183034412Y-92765130D01*
X183034413Y-92765131D01*
X183194069Y-92965334D01*
X183381781Y-93139505D01*
X183381787Y-93139509D01*
X183593345Y-93283748D01*
X183593352Y-93283752D01*
X183593355Y-93283754D01*
X183726360Y-93347806D01*
X183824060Y-93394856D01*
X183824073Y-93394861D01*
X184068746Y-93470332D01*
X184068748Y-93470332D01*
X184068757Y-93470335D01*
X184321966Y-93508500D01*
X184321970Y-93508500D01*
X184578030Y-93508500D01*
X184578034Y-93508500D01*
X184831243Y-93470335D01*
X184863160Y-93460490D01*
X185075929Y-93394860D01*
X185075930Y-93394859D01*
X185075935Y-93394858D01*
X185306646Y-93283754D01*
X185518219Y-93139505D01*
X185705931Y-92965334D01*
X185865587Y-92765131D01*
X185993622Y-92543369D01*
X185997346Y-92533882D01*
X186087172Y-92305005D01*
X186087174Y-92305001D01*
X186144155Y-92055353D01*
X186163291Y-91800000D01*
X186144155Y-91544647D01*
X186087174Y-91294999D01*
X186082013Y-91281849D01*
X185993625Y-91056637D01*
X185993623Y-91056633D01*
X185865589Y-90834872D01*
X185865587Y-90834869D01*
X185705931Y-90634666D01*
X185518219Y-90460495D01*
X185306646Y-90316246D01*
X185306643Y-90316245D01*
X185306641Y-90316243D01*
X185306640Y-90316242D01*
X185075936Y-90205142D01*
X185075929Y-90205139D01*
X184963311Y-90170402D01*
X184904113Y-90131210D01*
X184875500Y-90066234D01*
X184886559Y-89996104D01*
X184933777Y-89943086D01*
X184963311Y-89929598D01*
X185075929Y-89894860D01*
X185075930Y-89894859D01*
X185075935Y-89894858D01*
X185306646Y-89783754D01*
X185518219Y-89639505D01*
X185705931Y-89465334D01*
X185865587Y-89265131D01*
X185993622Y-89043369D01*
X186087174Y-88805001D01*
X186144155Y-88555353D01*
X186163291Y-88300000D01*
X186144155Y-88044647D01*
X186087174Y-87794999D01*
X186050713Y-87702098D01*
X185993625Y-87556637D01*
X185993623Y-87556633D01*
X185865589Y-87334872D01*
X185865587Y-87334869D01*
X185705931Y-87134666D01*
X185518219Y-86960495D01*
X185516736Y-86959484D01*
X185425632Y-86897370D01*
X185306646Y-86816246D01*
X185306643Y-86816245D01*
X185306641Y-86816243D01*
X185306640Y-86816242D01*
X185075936Y-86705142D01*
X185075929Y-86705139D01*
X184831253Y-86629667D01*
X184831245Y-86629665D01*
X184831243Y-86629665D01*
X184578034Y-86591500D01*
X184321966Y-86591500D01*
X184068757Y-86629665D01*
X184068755Y-86629665D01*
X184068746Y-86629667D01*
X183824073Y-86705138D01*
X183824060Y-86705143D01*
X183593352Y-86816247D01*
X183593345Y-86816251D01*
X183381787Y-86960490D01*
X183381782Y-86960494D01*
X183194070Y-87134665D01*
X183034410Y-87334872D01*
X182906376Y-87556633D01*
X182906374Y-87556637D01*
X182812827Y-87794994D01*
X182812826Y-87794997D01*
X182755845Y-88044643D01*
X182736709Y-88300000D01*
X182755845Y-88555356D01*
X182812826Y-88805002D01*
X182812827Y-88805005D01*
X182906374Y-89043362D01*
X182906376Y-89043366D01*
X183034410Y-89265127D01*
X183034412Y-89265130D01*
X183034413Y-89265131D01*
X183194069Y-89465334D01*
X183381781Y-89639505D01*
X183381787Y-89639509D01*
X183593345Y-89783748D01*
X183593352Y-89783752D01*
X183593355Y-89783754D01*
X183726360Y-89847806D01*
X183824060Y-89894856D01*
X183824073Y-89894861D01*
X183936688Y-89929598D01*
X183995887Y-89968790D01*
X184024499Y-90033766D01*
X184013440Y-90103896D01*
X183966222Y-90156914D01*
X183936688Y-90170402D01*
X183824073Y-90205138D01*
X183824060Y-90205143D01*
X183593352Y-90316247D01*
X183593345Y-90316251D01*
X183381787Y-90460490D01*
X183381782Y-90460494D01*
X183194070Y-90634665D01*
X183034410Y-90834872D01*
X182906376Y-91056633D01*
X182906374Y-91056637D01*
X182812827Y-91294994D01*
X182812826Y-91294997D01*
X182755845Y-91544643D01*
X182736709Y-91799999D01*
X105608500Y-91799999D01*
X105608500Y-90051367D01*
X105608499Y-90051350D01*
X105601990Y-89990803D01*
X105601988Y-89990795D01*
X105572924Y-89912875D01*
X105550889Y-89853796D01*
X105550888Y-89853794D01*
X105550887Y-89853792D01*
X105463261Y-89736738D01*
X105346207Y-89649112D01*
X105346202Y-89649110D01*
X105209204Y-89598011D01*
X105209196Y-89598009D01*
X105148649Y-89591500D01*
X105148638Y-89591500D01*
X102651362Y-89591500D01*
X102651350Y-89591500D01*
X102590803Y-89598009D01*
X102590795Y-89598011D01*
X102453797Y-89649110D01*
X102453792Y-89649112D01*
X102336738Y-89736738D01*
X102249112Y-89853792D01*
X102249110Y-89853797D01*
X102198011Y-89990795D01*
X102198009Y-89990803D01*
X102191500Y-90051350D01*
X102191500Y-92548649D01*
X102198009Y-92609196D01*
X102198011Y-92609204D01*
X102249110Y-92746202D01*
X102249112Y-92746207D01*
X102336738Y-92863261D01*
X102453792Y-92950887D01*
X102453794Y-92950888D01*
X102453796Y-92950889D01*
X102492524Y-92965334D01*
X102590795Y-93001988D01*
X102590803Y-93001990D01*
X102651350Y-93008499D01*
X102651355Y-93008499D01*
X102651362Y-93008500D01*
X102651368Y-93008500D01*
X103130354Y-93008500D01*
X103198475Y-93028502D01*
X103244968Y-93082158D01*
X103255072Y-93152432D01*
X103225578Y-93217012D01*
X103185024Y-93248022D01*
X103043352Y-93316247D01*
X103043345Y-93316251D01*
X102831787Y-93460490D01*
X102831782Y-93460494D01*
X102644070Y-93634665D01*
X102484410Y-93834872D01*
X102356376Y-94056633D01*
X102356374Y-94056637D01*
X102262827Y-94294994D01*
X102262826Y-94294997D01*
X102205845Y-94544643D01*
X102186709Y-94800000D01*
X99400500Y-94800000D01*
X99400500Y-87477500D01*
X125496578Y-87477500D01*
X125516228Y-87702100D01*
X125520000Y-87716177D01*
X125574580Y-87919874D01*
X125574582Y-87919879D01*
X125669865Y-88124214D01*
X125799176Y-88308891D01*
X125799185Y-88308901D01*
X125958598Y-88468314D01*
X125958608Y-88468323D01*
X126143285Y-88597634D01*
X126143288Y-88597635D01*
X126143289Y-88597636D01*
X126347624Y-88692919D01*
X126565400Y-88751272D01*
X126790000Y-88770922D01*
X127014600Y-88751272D01*
X127232376Y-88692919D01*
X127436711Y-88597636D01*
X127436714Y-88597634D01*
X127621391Y-88468323D01*
X127621393Y-88468320D01*
X127621396Y-88468319D01*
X127780819Y-88308896D01*
X127782743Y-88306149D01*
X127910134Y-88124214D01*
X127910134Y-88124213D01*
X127910136Y-88124211D01*
X127945805Y-88047717D01*
X127992722Y-87994433D01*
X128060999Y-87974972D01*
X128128959Y-87995514D01*
X128174195Y-88047718D01*
X128209865Y-88124214D01*
X128339176Y-88308891D01*
X128339185Y-88308901D01*
X128498598Y-88468314D01*
X128498608Y-88468323D01*
X128683285Y-88597634D01*
X128683288Y-88597635D01*
X128683289Y-88597636D01*
X128887624Y-88692919D01*
X129105400Y-88751272D01*
X129330000Y-88770922D01*
X129554600Y-88751272D01*
X129772376Y-88692919D01*
X129976711Y-88597636D01*
X129976714Y-88597634D01*
X130161391Y-88468323D01*
X130161393Y-88468320D01*
X130161396Y-88468319D01*
X130320819Y-88308896D01*
X130322743Y-88306149D01*
X130450134Y-88124214D01*
X130450134Y-88124213D01*
X130450136Y-88124211D01*
X130485805Y-88047717D01*
X130532722Y-87994433D01*
X130600999Y-87974972D01*
X130668959Y-87995514D01*
X130714195Y-88047718D01*
X130749865Y-88124214D01*
X130879176Y-88308891D01*
X130879185Y-88308901D01*
X131038598Y-88468314D01*
X131038608Y-88468323D01*
X131223285Y-88597634D01*
X131223288Y-88597635D01*
X131223289Y-88597636D01*
X131427624Y-88692919D01*
X131645400Y-88751272D01*
X131870000Y-88770922D01*
X132094600Y-88751272D01*
X132312376Y-88692919D01*
X132516711Y-88597636D01*
X132516714Y-88597634D01*
X132701391Y-88468323D01*
X132701393Y-88468320D01*
X132701396Y-88468319D01*
X132860819Y-88308896D01*
X132862743Y-88306149D01*
X132990134Y-88124214D01*
X132990138Y-88124207D01*
X133025804Y-88047720D01*
X133072720Y-87994434D01*
X133140997Y-87974972D01*
X133208957Y-87995513D01*
X133254193Y-88047717D01*
X133289863Y-88124210D01*
X133289865Y-88124214D01*
X133419176Y-88308891D01*
X133419185Y-88308901D01*
X133578598Y-88468314D01*
X133578608Y-88468323D01*
X133763285Y-88597634D01*
X133763288Y-88597635D01*
X133763289Y-88597636D01*
X133967624Y-88692919D01*
X134185400Y-88751272D01*
X134410000Y-88770922D01*
X134634600Y-88751272D01*
X134852376Y-88692919D01*
X135056711Y-88597636D01*
X135056714Y-88597634D01*
X135241391Y-88468323D01*
X135241393Y-88468320D01*
X135241396Y-88468319D01*
X135400819Y-88308896D01*
X135402743Y-88306149D01*
X135530134Y-88124214D01*
X135530134Y-88124213D01*
X135530136Y-88124211D01*
X135565805Y-88047717D01*
X135612722Y-87994433D01*
X135680999Y-87974972D01*
X135748959Y-87995514D01*
X135794195Y-88047718D01*
X135829865Y-88124214D01*
X135959176Y-88308891D01*
X135959185Y-88308901D01*
X136118598Y-88468314D01*
X136118608Y-88468323D01*
X136303285Y-88597634D01*
X136303288Y-88597635D01*
X136303289Y-88597636D01*
X136507624Y-88692919D01*
X136725400Y-88751272D01*
X136950000Y-88770922D01*
X137174600Y-88751272D01*
X137392376Y-88692919D01*
X137596711Y-88597636D01*
X137596714Y-88597634D01*
X137781391Y-88468323D01*
X137781393Y-88468320D01*
X137781396Y-88468319D01*
X137940819Y-88308896D01*
X137942743Y-88306149D01*
X138070134Y-88124214D01*
X138070134Y-88124213D01*
X138070136Y-88124211D01*
X138165419Y-87919876D01*
X138223772Y-87702100D01*
X138243422Y-87477500D01*
X140736578Y-87477500D01*
X140756228Y-87702100D01*
X140760000Y-87716177D01*
X140814580Y-87919874D01*
X140814582Y-87919879D01*
X140909865Y-88124214D01*
X141039176Y-88308891D01*
X141039185Y-88308901D01*
X141198598Y-88468314D01*
X141198608Y-88468323D01*
X141383285Y-88597634D01*
X141383288Y-88597635D01*
X141383289Y-88597636D01*
X141587624Y-88692919D01*
X141805400Y-88751272D01*
X142030000Y-88770922D01*
X142254600Y-88751272D01*
X142472376Y-88692919D01*
X142676711Y-88597636D01*
X142676714Y-88597634D01*
X142861391Y-88468323D01*
X142861393Y-88468320D01*
X142861396Y-88468319D01*
X143020819Y-88308896D01*
X143022743Y-88306149D01*
X143150134Y-88124214D01*
X143150134Y-88124213D01*
X143150136Y-88124211D01*
X143185805Y-88047717D01*
X143232722Y-87994433D01*
X143300999Y-87974972D01*
X143368959Y-87995514D01*
X143414195Y-88047718D01*
X143449865Y-88124214D01*
X143579176Y-88308891D01*
X143579185Y-88308901D01*
X143738598Y-88468314D01*
X143738608Y-88468323D01*
X143923285Y-88597634D01*
X143923288Y-88597635D01*
X143923289Y-88597636D01*
X144127624Y-88692919D01*
X144345400Y-88751272D01*
X144570000Y-88770922D01*
X144794600Y-88751272D01*
X145012376Y-88692919D01*
X145216711Y-88597636D01*
X145216714Y-88597634D01*
X145401391Y-88468323D01*
X145401393Y-88468320D01*
X145401396Y-88468319D01*
X145560819Y-88308896D01*
X145562743Y-88306149D01*
X145690134Y-88124214D01*
X145690134Y-88124213D01*
X145690136Y-88124211D01*
X145725805Y-88047717D01*
X145772722Y-87994433D01*
X145840999Y-87974972D01*
X145908959Y-87995514D01*
X145954195Y-88047718D01*
X145989865Y-88124214D01*
X146119176Y-88308891D01*
X146119185Y-88308901D01*
X146278598Y-88468314D01*
X146278608Y-88468323D01*
X146463285Y-88597634D01*
X146463288Y-88597635D01*
X146463289Y-88597636D01*
X146667624Y-88692919D01*
X146885400Y-88751272D01*
X147110000Y-88770922D01*
X147334600Y-88751272D01*
X147552376Y-88692919D01*
X147756711Y-88597636D01*
X147756714Y-88597634D01*
X147941391Y-88468323D01*
X147941393Y-88468320D01*
X147941396Y-88468319D01*
X148100819Y-88308896D01*
X148102743Y-88306149D01*
X148230134Y-88124214D01*
X148230134Y-88124213D01*
X148230136Y-88124211D01*
X148265805Y-88047717D01*
X148312722Y-87994433D01*
X148380999Y-87974972D01*
X148448959Y-87995514D01*
X148494195Y-88047718D01*
X148529865Y-88124214D01*
X148659176Y-88308891D01*
X148659185Y-88308901D01*
X148818598Y-88468314D01*
X148818608Y-88468323D01*
X149003285Y-88597634D01*
X149003288Y-88597635D01*
X149003289Y-88597636D01*
X149207624Y-88692919D01*
X149425400Y-88751272D01*
X149650000Y-88770922D01*
X149874600Y-88751272D01*
X150092376Y-88692919D01*
X150296711Y-88597636D01*
X150296714Y-88597634D01*
X150481391Y-88468323D01*
X150481393Y-88468320D01*
X150481396Y-88468319D01*
X150640819Y-88308896D01*
X150642743Y-88306149D01*
X150770134Y-88124214D01*
X150770134Y-88124213D01*
X150770136Y-88124211D01*
X150805805Y-88047717D01*
X150852722Y-87994433D01*
X150920999Y-87974972D01*
X150988959Y-87995514D01*
X151034195Y-88047718D01*
X151069865Y-88124214D01*
X151199176Y-88308891D01*
X151199185Y-88308901D01*
X151358598Y-88468314D01*
X151358608Y-88468323D01*
X151543285Y-88597634D01*
X151543288Y-88597635D01*
X151543289Y-88597636D01*
X151747624Y-88692919D01*
X151965400Y-88751272D01*
X152190000Y-88770922D01*
X152414600Y-88751272D01*
X152632376Y-88692919D01*
X152836711Y-88597636D01*
X152836714Y-88597634D01*
X153021391Y-88468323D01*
X153021393Y-88468320D01*
X153021396Y-88468319D01*
X153180819Y-88308896D01*
X153182743Y-88306149D01*
X153310134Y-88124214D01*
X153310134Y-88124213D01*
X153310136Y-88124211D01*
X153345805Y-88047717D01*
X153392722Y-87994433D01*
X153460999Y-87974972D01*
X153528959Y-87995514D01*
X153574195Y-88047718D01*
X153609865Y-88124214D01*
X153739176Y-88308891D01*
X153739185Y-88308901D01*
X153898598Y-88468314D01*
X153898608Y-88468323D01*
X154083285Y-88597634D01*
X154083288Y-88597635D01*
X154083289Y-88597636D01*
X154287624Y-88692919D01*
X154505400Y-88751272D01*
X154730000Y-88770922D01*
X154954600Y-88751272D01*
X155172376Y-88692919D01*
X155376711Y-88597636D01*
X155376714Y-88597634D01*
X155561391Y-88468323D01*
X155561393Y-88468320D01*
X155561396Y-88468319D01*
X155720819Y-88308896D01*
X155722743Y-88306149D01*
X155850134Y-88124214D01*
X155850134Y-88124213D01*
X155850136Y-88124211D01*
X155885805Y-88047717D01*
X155932722Y-87994433D01*
X156000999Y-87974972D01*
X156068959Y-87995514D01*
X156114195Y-88047718D01*
X156149865Y-88124214D01*
X156279176Y-88308891D01*
X156279185Y-88308901D01*
X156438598Y-88468314D01*
X156438608Y-88468323D01*
X156623285Y-88597634D01*
X156623288Y-88597635D01*
X156623289Y-88597636D01*
X156827624Y-88692919D01*
X157045400Y-88751272D01*
X157270000Y-88770922D01*
X157494600Y-88751272D01*
X157712376Y-88692919D01*
X157916711Y-88597636D01*
X157916714Y-88597634D01*
X158101391Y-88468323D01*
X158101393Y-88468320D01*
X158101396Y-88468319D01*
X158260819Y-88308896D01*
X158262743Y-88306149D01*
X158390134Y-88124214D01*
X158390134Y-88124213D01*
X158390136Y-88124211D01*
X158425805Y-88047717D01*
X158472722Y-87994433D01*
X158540999Y-87974972D01*
X158608959Y-87995514D01*
X158654195Y-88047718D01*
X158689865Y-88124214D01*
X158819176Y-88308891D01*
X158819185Y-88308901D01*
X158978598Y-88468314D01*
X158978608Y-88468323D01*
X159163285Y-88597634D01*
X159163288Y-88597635D01*
X159163289Y-88597636D01*
X159367624Y-88692919D01*
X159585400Y-88751272D01*
X159810000Y-88770922D01*
X160034600Y-88751272D01*
X160252376Y-88692919D01*
X160456711Y-88597636D01*
X160456714Y-88597634D01*
X160641391Y-88468323D01*
X160641393Y-88468320D01*
X160641396Y-88468319D01*
X160800819Y-88308896D01*
X160802743Y-88306149D01*
X160930134Y-88124214D01*
X160930134Y-88124213D01*
X160930136Y-88124211D01*
X160965805Y-88047717D01*
X161012722Y-87994433D01*
X161080999Y-87974972D01*
X161148959Y-87995514D01*
X161194195Y-88047718D01*
X161229865Y-88124214D01*
X161359176Y-88308891D01*
X161359185Y-88308901D01*
X161518598Y-88468314D01*
X161518608Y-88468323D01*
X161703285Y-88597634D01*
X161703288Y-88597635D01*
X161703289Y-88597636D01*
X161907624Y-88692919D01*
X162125400Y-88751272D01*
X162350000Y-88770922D01*
X162574600Y-88751272D01*
X162792376Y-88692919D01*
X162996711Y-88597636D01*
X162996714Y-88597634D01*
X163181391Y-88468323D01*
X163181393Y-88468320D01*
X163181396Y-88468319D01*
X163340819Y-88308896D01*
X163342743Y-88306149D01*
X163470134Y-88124214D01*
X163470134Y-88124213D01*
X163470136Y-88124211D01*
X163505805Y-88047717D01*
X163552722Y-87994433D01*
X163620999Y-87974972D01*
X163688959Y-87995514D01*
X163734195Y-88047718D01*
X163769865Y-88124214D01*
X163899176Y-88308891D01*
X163899185Y-88308901D01*
X164058598Y-88468314D01*
X164058608Y-88468323D01*
X164243285Y-88597634D01*
X164243288Y-88597635D01*
X164243289Y-88597636D01*
X164447624Y-88692919D01*
X164665400Y-88751272D01*
X164890000Y-88770922D01*
X165114600Y-88751272D01*
X165332376Y-88692919D01*
X165536711Y-88597636D01*
X165536714Y-88597634D01*
X165721391Y-88468323D01*
X165721393Y-88468320D01*
X165721396Y-88468319D01*
X165880819Y-88308896D01*
X165882743Y-88306149D01*
X166010134Y-88124214D01*
X166010138Y-88124207D01*
X166045804Y-88047720D01*
X166092720Y-87994434D01*
X166160997Y-87974972D01*
X166228957Y-87995513D01*
X166274193Y-88047717D01*
X166309863Y-88124210D01*
X166309865Y-88124214D01*
X166439176Y-88308891D01*
X166439185Y-88308901D01*
X166598598Y-88468314D01*
X166598608Y-88468323D01*
X166783285Y-88597634D01*
X166783288Y-88597635D01*
X166783289Y-88597636D01*
X166987624Y-88692919D01*
X167205400Y-88751272D01*
X167430000Y-88770922D01*
X167654600Y-88751272D01*
X167872376Y-88692919D01*
X168076711Y-88597636D01*
X168076714Y-88597634D01*
X168261391Y-88468323D01*
X168261393Y-88468320D01*
X168261396Y-88468319D01*
X168420819Y-88308896D01*
X168422743Y-88306149D01*
X168550134Y-88124214D01*
X168550134Y-88124213D01*
X168550136Y-88124211D01*
X168585805Y-88047717D01*
X168632722Y-87994433D01*
X168700999Y-87974972D01*
X168768959Y-87995514D01*
X168814195Y-88047718D01*
X168849865Y-88124214D01*
X168979176Y-88308891D01*
X168979185Y-88308901D01*
X169138598Y-88468314D01*
X169138608Y-88468323D01*
X169323285Y-88597634D01*
X169323288Y-88597635D01*
X169323289Y-88597636D01*
X169527624Y-88692919D01*
X169745400Y-88751272D01*
X169970000Y-88770922D01*
X170194600Y-88751272D01*
X170412376Y-88692919D01*
X170616711Y-88597636D01*
X170616714Y-88597634D01*
X170801391Y-88468323D01*
X170801393Y-88468320D01*
X170801396Y-88468319D01*
X170960819Y-88308896D01*
X170994460Y-88260850D01*
X171049917Y-88216521D01*
X171120536Y-88209211D01*
X171183897Y-88241241D01*
X171219882Y-88302442D01*
X171222952Y-88319651D01*
X171228010Y-88366697D01*
X171228011Y-88366704D01*
X171279110Y-88503702D01*
X171279112Y-88503707D01*
X171366738Y-88620761D01*
X171483792Y-88708387D01*
X171483794Y-88708388D01*
X171483796Y-88708389D01*
X171542875Y-88730424D01*
X171620795Y-88759488D01*
X171620803Y-88759490D01*
X171681350Y-88765999D01*
X171681355Y-88765999D01*
X171681362Y-88766000D01*
X171681368Y-88766000D01*
X173338632Y-88766000D01*
X173338638Y-88766000D01*
X173338645Y-88765999D01*
X173338649Y-88765999D01*
X173399196Y-88759490D01*
X173399199Y-88759489D01*
X173399201Y-88759489D01*
X173536204Y-88708389D01*
X173556870Y-88692919D01*
X173653261Y-88620761D01*
X173740887Y-88503707D01*
X173740887Y-88503706D01*
X173740889Y-88503704D01*
X173791989Y-88366701D01*
X173791989Y-88366699D01*
X173791990Y-88366696D01*
X173798499Y-88306149D01*
X173798500Y-88306132D01*
X173798500Y-86648867D01*
X173798499Y-86648850D01*
X173791990Y-86588303D01*
X173791988Y-86588295D01*
X173762924Y-86510375D01*
X173740889Y-86451296D01*
X173740888Y-86451294D01*
X173740887Y-86451292D01*
X173653261Y-86334238D01*
X173536207Y-86246612D01*
X173536202Y-86246610D01*
X173399204Y-86195511D01*
X173399196Y-86195509D01*
X173338649Y-86189000D01*
X173338638Y-86189000D01*
X171681362Y-86189000D01*
X171681350Y-86189000D01*
X171620803Y-86195509D01*
X171620795Y-86195511D01*
X171483797Y-86246610D01*
X171483792Y-86246612D01*
X171366738Y-86334238D01*
X171279112Y-86451292D01*
X171279110Y-86451297D01*
X171228011Y-86588295D01*
X171228009Y-86588303D01*
X171222952Y-86635348D01*
X171195783Y-86700940D01*
X171137464Y-86741431D01*
X171066513Y-86743965D01*
X171005455Y-86707737D01*
X170994461Y-86694149D01*
X170960823Y-86646108D01*
X170960814Y-86646098D01*
X170801401Y-86486685D01*
X170801391Y-86486676D01*
X170616714Y-86357365D01*
X170412379Y-86262082D01*
X170412374Y-86262080D01*
X170311304Y-86234998D01*
X170194600Y-86203728D01*
X169970000Y-86184078D01*
X169745400Y-86203728D01*
X169727591Y-86208500D01*
X169527625Y-86262080D01*
X169527620Y-86262082D01*
X169323285Y-86357365D01*
X169138608Y-86486676D01*
X169138598Y-86486685D01*
X168979185Y-86646098D01*
X168979176Y-86646108D01*
X168849865Y-86830785D01*
X168814195Y-86907281D01*
X168767277Y-86960566D01*
X168699000Y-86980027D01*
X168631040Y-86959485D01*
X168585805Y-86907281D01*
X168550134Y-86830785D01*
X168420823Y-86646108D01*
X168420814Y-86646098D01*
X168261401Y-86486685D01*
X168261391Y-86486676D01*
X168076714Y-86357365D01*
X167872379Y-86262082D01*
X167872374Y-86262080D01*
X167771304Y-86234998D01*
X167654600Y-86203728D01*
X167430000Y-86184078D01*
X167205400Y-86203728D01*
X167187591Y-86208500D01*
X166987625Y-86262080D01*
X166987620Y-86262082D01*
X166783285Y-86357365D01*
X166598608Y-86486676D01*
X166598598Y-86486685D01*
X166439185Y-86646098D01*
X166439176Y-86646108D01*
X166309865Y-86830785D01*
X166309862Y-86830790D01*
X166274193Y-86907282D01*
X166227275Y-86960567D01*
X166158998Y-86980027D01*
X166091038Y-86959484D01*
X166045804Y-86907280D01*
X166010136Y-86830788D01*
X166010134Y-86830785D01*
X165880823Y-86646108D01*
X165880814Y-86646098D01*
X165721401Y-86486685D01*
X165721391Y-86486676D01*
X165536714Y-86357365D01*
X165332379Y-86262082D01*
X165332374Y-86262080D01*
X165231304Y-86234998D01*
X165114600Y-86203728D01*
X164890000Y-86184078D01*
X164889999Y-86184078D01*
X164833741Y-86189000D01*
X164665400Y-86203728D01*
X164647591Y-86208500D01*
X164447625Y-86262080D01*
X164447620Y-86262082D01*
X164243285Y-86357365D01*
X164058608Y-86486676D01*
X164058598Y-86486685D01*
X163899185Y-86646098D01*
X163899176Y-86646108D01*
X163769865Y-86830785D01*
X163734195Y-86907281D01*
X163687277Y-86960566D01*
X163619000Y-86980027D01*
X163551040Y-86959485D01*
X163505805Y-86907281D01*
X163470134Y-86830785D01*
X163340823Y-86646108D01*
X163340814Y-86646098D01*
X163181401Y-86486685D01*
X163181391Y-86486676D01*
X162996714Y-86357365D01*
X162792379Y-86262082D01*
X162792374Y-86262080D01*
X162691304Y-86234998D01*
X162574600Y-86203728D01*
X162350000Y-86184078D01*
X162125400Y-86203728D01*
X162107591Y-86208500D01*
X161907625Y-86262080D01*
X161907620Y-86262082D01*
X161703285Y-86357365D01*
X161518608Y-86486676D01*
X161518598Y-86486685D01*
X161359185Y-86646098D01*
X161359176Y-86646108D01*
X161229865Y-86830785D01*
X161194195Y-86907281D01*
X161147277Y-86960566D01*
X161079000Y-86980027D01*
X161011040Y-86959485D01*
X160965805Y-86907281D01*
X160930134Y-86830785D01*
X160800823Y-86646108D01*
X160800814Y-86646098D01*
X160641401Y-86486685D01*
X160641391Y-86486676D01*
X160456714Y-86357365D01*
X160252379Y-86262082D01*
X160252374Y-86262080D01*
X160151304Y-86234998D01*
X160034600Y-86203728D01*
X159810000Y-86184078D01*
X159809999Y-86184078D01*
X159753741Y-86189000D01*
X159585400Y-86203728D01*
X159567591Y-86208500D01*
X159367625Y-86262080D01*
X159367620Y-86262082D01*
X159163285Y-86357365D01*
X158978608Y-86486676D01*
X158978598Y-86486685D01*
X158819185Y-86646098D01*
X158819176Y-86646108D01*
X158689865Y-86830785D01*
X158654195Y-86907281D01*
X158607277Y-86960566D01*
X158539000Y-86980027D01*
X158471040Y-86959485D01*
X158425805Y-86907281D01*
X158390134Y-86830785D01*
X158260823Y-86646108D01*
X158260814Y-86646098D01*
X158101401Y-86486685D01*
X158101391Y-86486676D01*
X157916714Y-86357365D01*
X157712379Y-86262082D01*
X157712374Y-86262080D01*
X157611304Y-86234998D01*
X157494600Y-86203728D01*
X157270000Y-86184078D01*
X157045400Y-86203728D01*
X157027591Y-86208500D01*
X156827625Y-86262080D01*
X156827620Y-86262082D01*
X156623285Y-86357365D01*
X156438608Y-86486676D01*
X156438598Y-86486685D01*
X156279185Y-86646098D01*
X156279176Y-86646108D01*
X156149865Y-86830785D01*
X156114195Y-86907281D01*
X156067277Y-86960566D01*
X155999000Y-86980027D01*
X155931040Y-86959485D01*
X155885805Y-86907281D01*
X155850134Y-86830785D01*
X155720823Y-86646108D01*
X155720814Y-86646098D01*
X155561401Y-86486685D01*
X155561391Y-86486676D01*
X155376714Y-86357365D01*
X155172379Y-86262082D01*
X155172374Y-86262080D01*
X155071304Y-86234998D01*
X154954600Y-86203728D01*
X154730000Y-86184078D01*
X154729999Y-86184078D01*
X154673741Y-86189000D01*
X154505400Y-86203728D01*
X154487591Y-86208500D01*
X154287625Y-86262080D01*
X154287620Y-86262082D01*
X154083285Y-86357365D01*
X153898608Y-86486676D01*
X153898598Y-86486685D01*
X153739185Y-86646098D01*
X153739176Y-86646108D01*
X153609865Y-86830785D01*
X153609862Y-86830790D01*
X153574193Y-86907282D01*
X153527275Y-86960567D01*
X153458998Y-86980027D01*
X153391038Y-86959484D01*
X153345804Y-86907280D01*
X153310136Y-86830788D01*
X153310134Y-86830785D01*
X153180823Y-86646108D01*
X153180814Y-86646098D01*
X153021401Y-86486685D01*
X153021391Y-86486676D01*
X152836714Y-86357365D01*
X152632379Y-86262082D01*
X152632374Y-86262080D01*
X152531304Y-86234998D01*
X152414600Y-86203728D01*
X152190000Y-86184078D01*
X152189999Y-86184078D01*
X152133741Y-86189000D01*
X151965400Y-86203728D01*
X151947591Y-86208500D01*
X151747625Y-86262080D01*
X151747620Y-86262082D01*
X151543285Y-86357365D01*
X151358608Y-86486676D01*
X151358598Y-86486685D01*
X151199185Y-86646098D01*
X151199176Y-86646108D01*
X151069865Y-86830785D01*
X151034195Y-86907281D01*
X150987277Y-86960566D01*
X150919000Y-86980027D01*
X150851040Y-86959485D01*
X150805805Y-86907281D01*
X150770134Y-86830785D01*
X150640823Y-86646108D01*
X150640814Y-86646098D01*
X150481401Y-86486685D01*
X150481391Y-86486676D01*
X150296714Y-86357365D01*
X150092379Y-86262082D01*
X150092374Y-86262080D01*
X149991304Y-86234998D01*
X149874600Y-86203728D01*
X149650000Y-86184078D01*
X149649999Y-86184078D01*
X149593741Y-86189000D01*
X149510748Y-86196260D01*
X149441145Y-86182272D01*
X149390152Y-86132872D01*
X149373962Y-86063746D01*
X149379935Y-86031804D01*
X149393542Y-85989928D01*
X149413504Y-85800000D01*
X149393542Y-85610072D01*
X149334527Y-85428444D01*
X149239040Y-85263056D01*
X149239038Y-85263054D01*
X149239034Y-85263048D01*
X149111255Y-85121135D01*
X148956752Y-85008882D01*
X148782288Y-84931206D01*
X148595487Y-84891500D01*
X148404513Y-84891500D01*
X148217711Y-84931206D01*
X148043247Y-85008882D01*
X147888744Y-85121135D01*
X147760965Y-85263048D01*
X147760958Y-85263058D01*
X147665476Y-85428438D01*
X147665473Y-85428445D01*
X147606457Y-85610072D01*
X147586496Y-85799999D01*
X147606457Y-85989929D01*
X147636764Y-86083203D01*
X147638791Y-86154171D01*
X147602129Y-86214969D01*
X147538416Y-86246294D01*
X147484322Y-86243846D01*
X147334600Y-86203728D01*
X147110000Y-86184078D01*
X146885400Y-86203728D01*
X146867591Y-86208500D01*
X146667625Y-86262080D01*
X146667620Y-86262082D01*
X146463285Y-86357365D01*
X146278608Y-86486676D01*
X146278598Y-86486685D01*
X146119185Y-86646098D01*
X146119176Y-86646108D01*
X145989865Y-86830785D01*
X145954195Y-86907281D01*
X145907277Y-86960566D01*
X145839000Y-86980027D01*
X145771040Y-86959485D01*
X145725805Y-86907281D01*
X145690134Y-86830785D01*
X145560823Y-86646108D01*
X145560814Y-86646098D01*
X145401401Y-86486685D01*
X145401391Y-86486676D01*
X145216714Y-86357365D01*
X145012379Y-86262082D01*
X145012374Y-86262080D01*
X144911304Y-86234998D01*
X144794600Y-86203728D01*
X144570000Y-86184078D01*
X144345400Y-86203728D01*
X144327591Y-86208500D01*
X144127625Y-86262080D01*
X144127620Y-86262082D01*
X143923285Y-86357365D01*
X143738608Y-86486676D01*
X143738598Y-86486685D01*
X143579185Y-86646098D01*
X143579176Y-86646108D01*
X143449865Y-86830785D01*
X143449862Y-86830790D01*
X143414193Y-86907282D01*
X143367275Y-86960567D01*
X143298998Y-86980027D01*
X143231038Y-86959484D01*
X143185804Y-86907280D01*
X143150136Y-86830788D01*
X143150134Y-86830785D01*
X143020823Y-86646108D01*
X143020814Y-86646098D01*
X142861401Y-86486685D01*
X142861391Y-86486676D01*
X142676714Y-86357365D01*
X142472379Y-86262082D01*
X142472374Y-86262080D01*
X142371304Y-86234998D01*
X142254600Y-86203728D01*
X142030000Y-86184078D01*
X142029999Y-86184078D01*
X141973741Y-86189000D01*
X141805400Y-86203728D01*
X141787591Y-86208500D01*
X141587625Y-86262080D01*
X141587620Y-86262082D01*
X141383285Y-86357365D01*
X141198608Y-86486676D01*
X141198598Y-86486685D01*
X141039185Y-86646098D01*
X141039176Y-86646108D01*
X140909865Y-86830785D01*
X140814582Y-87035120D01*
X140814580Y-87035125D01*
X140778500Y-87169779D01*
X140756228Y-87252900D01*
X140736578Y-87477500D01*
X138243422Y-87477500D01*
X138223772Y-87252900D01*
X138165419Y-87035124D01*
X138070136Y-86830789D01*
X138070135Y-86830788D01*
X138070134Y-86830785D01*
X137940823Y-86646108D01*
X137940814Y-86646098D01*
X137781401Y-86486685D01*
X137781391Y-86486676D01*
X137596714Y-86357365D01*
X137392379Y-86262082D01*
X137392374Y-86262080D01*
X137291304Y-86234998D01*
X137174600Y-86203728D01*
X136950000Y-86184078D01*
X136949999Y-86184078D01*
X136893741Y-86189000D01*
X136725400Y-86203728D01*
X136707591Y-86208500D01*
X136507625Y-86262080D01*
X136507620Y-86262082D01*
X136303285Y-86357365D01*
X136118608Y-86486676D01*
X136118598Y-86486685D01*
X135959185Y-86646098D01*
X135959176Y-86646108D01*
X135829865Y-86830785D01*
X135794195Y-86907281D01*
X135747277Y-86960566D01*
X135679000Y-86980027D01*
X135611040Y-86959485D01*
X135565805Y-86907281D01*
X135530134Y-86830785D01*
X135400823Y-86646108D01*
X135400814Y-86646098D01*
X135241401Y-86486685D01*
X135241391Y-86486676D01*
X135056714Y-86357365D01*
X134852379Y-86262082D01*
X134852374Y-86262080D01*
X134751304Y-86234998D01*
X134634600Y-86203728D01*
X134410000Y-86184078D01*
X134185400Y-86203728D01*
X134167591Y-86208500D01*
X133967625Y-86262080D01*
X133967620Y-86262082D01*
X133763285Y-86357365D01*
X133578608Y-86486676D01*
X133578598Y-86486685D01*
X133419185Y-86646098D01*
X133419176Y-86646108D01*
X133289865Y-86830785D01*
X133289862Y-86830790D01*
X133254193Y-86907282D01*
X133207275Y-86960567D01*
X133138998Y-86980027D01*
X133071038Y-86959484D01*
X133025804Y-86907280D01*
X132990136Y-86830788D01*
X132990134Y-86830785D01*
X132860823Y-86646108D01*
X132860814Y-86646098D01*
X132701401Y-86486685D01*
X132701391Y-86486676D01*
X132516714Y-86357365D01*
X132312379Y-86262082D01*
X132312374Y-86262080D01*
X132211304Y-86234998D01*
X132094600Y-86203728D01*
X131870000Y-86184078D01*
X131645400Y-86203728D01*
X131627591Y-86208500D01*
X131427625Y-86262080D01*
X131427620Y-86262082D01*
X131223285Y-86357365D01*
X131038608Y-86486676D01*
X131038598Y-86486685D01*
X130879185Y-86646098D01*
X130879176Y-86646108D01*
X130749865Y-86830785D01*
X130714195Y-86907281D01*
X130667277Y-86960566D01*
X130599000Y-86980027D01*
X130531040Y-86959485D01*
X130485805Y-86907281D01*
X130450134Y-86830785D01*
X130320823Y-86646108D01*
X130320814Y-86646098D01*
X130161401Y-86486685D01*
X130161391Y-86486676D01*
X129976714Y-86357365D01*
X129772379Y-86262082D01*
X129772374Y-86262080D01*
X129671304Y-86234998D01*
X129554600Y-86203728D01*
X129330000Y-86184078D01*
X129329999Y-86184078D01*
X129273741Y-86189000D01*
X129105400Y-86203728D01*
X129087591Y-86208500D01*
X128887625Y-86262080D01*
X128887620Y-86262082D01*
X128683285Y-86357365D01*
X128498608Y-86486676D01*
X128498598Y-86486685D01*
X128339185Y-86646098D01*
X128339176Y-86646108D01*
X128209865Y-86830785D01*
X128174195Y-86907281D01*
X128127277Y-86960566D01*
X128059000Y-86980027D01*
X127991040Y-86959485D01*
X127945805Y-86907281D01*
X127910134Y-86830785D01*
X127780823Y-86646108D01*
X127780814Y-86646098D01*
X127621401Y-86486685D01*
X127621391Y-86486676D01*
X127436714Y-86357365D01*
X127232379Y-86262082D01*
X127232374Y-86262080D01*
X127131304Y-86234998D01*
X127014600Y-86203728D01*
X126790000Y-86184078D01*
X126565400Y-86203728D01*
X126547591Y-86208500D01*
X126347625Y-86262080D01*
X126347620Y-86262082D01*
X126143285Y-86357365D01*
X125958608Y-86486676D01*
X125958598Y-86486685D01*
X125799185Y-86646098D01*
X125799176Y-86646108D01*
X125669865Y-86830785D01*
X125574582Y-87035120D01*
X125574580Y-87035125D01*
X125538500Y-87169779D01*
X125516228Y-87252900D01*
X125496578Y-87477500D01*
X99400500Y-87477500D01*
X99400500Y-84100000D01*
X107161496Y-84100000D01*
X107181457Y-84289927D01*
X107211526Y-84382470D01*
X107240473Y-84471556D01*
X107240476Y-84471561D01*
X107335958Y-84636941D01*
X107339843Y-84642288D01*
X107338290Y-84643416D01*
X107365018Y-84699103D01*
X107356257Y-84769557D01*
X107349784Y-84782412D01*
X107265476Y-84928438D01*
X107265473Y-84928445D01*
X107206457Y-85110072D01*
X107186496Y-85299999D01*
X107206457Y-85489927D01*
X107236526Y-85582470D01*
X107265473Y-85671556D01*
X107265476Y-85671561D01*
X107360958Y-85836941D01*
X107360965Y-85836951D01*
X107488744Y-85978864D01*
X107488747Y-85978866D01*
X107643248Y-86091118D01*
X107817712Y-86168794D01*
X108004513Y-86208500D01*
X108195487Y-86208500D01*
X108382288Y-86168794D01*
X108556752Y-86091118D01*
X108600939Y-86059013D01*
X108667805Y-86035155D01*
X108736957Y-86051234D01*
X108749053Y-86059008D01*
X108775781Y-86078428D01*
X108793246Y-86091117D01*
X108793247Y-86091117D01*
X108793248Y-86091118D01*
X108967712Y-86168794D01*
X109154513Y-86208500D01*
X109345487Y-86208500D01*
X109532288Y-86168794D01*
X109706752Y-86091118D01*
X109775939Y-86040849D01*
X109842806Y-86016992D01*
X109911958Y-86033072D01*
X109924059Y-86040849D01*
X109993248Y-86091118D01*
X110167712Y-86168794D01*
X110354513Y-86208500D01*
X110545487Y-86208500D01*
X110732288Y-86168794D01*
X110906752Y-86091118D01*
X110950939Y-86059013D01*
X111017805Y-86035155D01*
X111086957Y-86051234D01*
X111099053Y-86059008D01*
X111125781Y-86078428D01*
X111143246Y-86091117D01*
X111143247Y-86091117D01*
X111143248Y-86091118D01*
X111317712Y-86168794D01*
X111504513Y-86208500D01*
X111695487Y-86208500D01*
X111882288Y-86168794D01*
X112056752Y-86091118D01*
X112211253Y-85978866D01*
X112339040Y-85836944D01*
X112434527Y-85671556D01*
X112493542Y-85489928D01*
X112513504Y-85300000D01*
X112493542Y-85110072D01*
X112434527Y-84928444D01*
X112339040Y-84763056D01*
X112339037Y-84763053D01*
X112335157Y-84757712D01*
X112336709Y-84756583D01*
X112309982Y-84700898D01*
X112318741Y-84630444D01*
X112325205Y-84617604D01*
X112409527Y-84471556D01*
X112468542Y-84289928D01*
X112488504Y-84100000D01*
X112468542Y-83910072D01*
X112409527Y-83728444D01*
X112382125Y-83680982D01*
X112365388Y-83611991D01*
X112388608Y-83544899D01*
X112444414Y-83501011D01*
X112515089Y-83494262D01*
X112535274Y-83499928D01*
X112540799Y-83501989D01*
X112540802Y-83501989D01*
X112540803Y-83501990D01*
X112601350Y-83508499D01*
X112601355Y-83508499D01*
X112601362Y-83508500D01*
X112601368Y-83508500D01*
X115098632Y-83508500D01*
X115098638Y-83508500D01*
X115098645Y-83508499D01*
X115098649Y-83508499D01*
X115159195Y-83501990D01*
X115159196Y-83501989D01*
X115159201Y-83501989D01*
X115164719Y-83499930D01*
X115235531Y-83494863D01*
X115297845Y-83528885D01*
X115331873Y-83591196D01*
X115326812Y-83662012D01*
X115317873Y-83680984D01*
X115290478Y-83728433D01*
X115290473Y-83728445D01*
X115231457Y-83910072D01*
X115211496Y-84099999D01*
X115231457Y-84289927D01*
X115261526Y-84382470D01*
X115290473Y-84471556D01*
X115290476Y-84471561D01*
X115385958Y-84636941D01*
X115389843Y-84642288D01*
X115388290Y-84643416D01*
X115415018Y-84699103D01*
X115406257Y-84769557D01*
X115399784Y-84782412D01*
X115315476Y-84928438D01*
X115315473Y-84928445D01*
X115256457Y-85110072D01*
X115236496Y-85300000D01*
X115256457Y-85489927D01*
X115286526Y-85582470D01*
X115315473Y-85671556D01*
X115315476Y-85671561D01*
X115410958Y-85836941D01*
X115410965Y-85836951D01*
X115538744Y-85978864D01*
X115538747Y-85978866D01*
X115693248Y-86091118D01*
X115867712Y-86168794D01*
X116054513Y-86208500D01*
X116245487Y-86208500D01*
X116432288Y-86168794D01*
X116606752Y-86091118D01*
X116650939Y-86059013D01*
X116717805Y-86035155D01*
X116786957Y-86051234D01*
X116799053Y-86059008D01*
X116825781Y-86078428D01*
X116843246Y-86091117D01*
X116843247Y-86091117D01*
X116843248Y-86091118D01*
X117017712Y-86168794D01*
X117204513Y-86208500D01*
X117395487Y-86208500D01*
X117582288Y-86168794D01*
X117756752Y-86091118D01*
X117825939Y-86040849D01*
X117892806Y-86016992D01*
X117961958Y-86033072D01*
X117974059Y-86040849D01*
X118043248Y-86091118D01*
X118217712Y-86168794D01*
X118404513Y-86208500D01*
X118595487Y-86208500D01*
X118782288Y-86168794D01*
X118956752Y-86091118D01*
X119000939Y-86059013D01*
X119067805Y-86035155D01*
X119136957Y-86051234D01*
X119149053Y-86059008D01*
X119175781Y-86078428D01*
X119193246Y-86091117D01*
X119193247Y-86091117D01*
X119193248Y-86091118D01*
X119367712Y-86168794D01*
X119554513Y-86208500D01*
X119745487Y-86208500D01*
X119932288Y-86168794D01*
X120106752Y-86091118D01*
X120261253Y-85978866D01*
X120389040Y-85836944D01*
X120484527Y-85671556D01*
X120543542Y-85489928D01*
X120563504Y-85300000D01*
X120543542Y-85110072D01*
X120484527Y-84928444D01*
X120389040Y-84763056D01*
X120389037Y-84763053D01*
X120385157Y-84757712D01*
X120386709Y-84756583D01*
X120359982Y-84700898D01*
X120368741Y-84630444D01*
X120375205Y-84617604D01*
X120459527Y-84471556D01*
X120518542Y-84289928D01*
X120538504Y-84100000D01*
X120518542Y-83910072D01*
X120459527Y-83728444D01*
X120438761Y-83692476D01*
X120422023Y-83623481D01*
X120445243Y-83556389D01*
X120501051Y-83512502D01*
X120561348Y-83504198D01*
X120601362Y-83508500D01*
X120601368Y-83508500D01*
X123098632Y-83508500D01*
X123098638Y-83508500D01*
X123098645Y-83508499D01*
X123098649Y-83508499D01*
X123159196Y-83501990D01*
X123159199Y-83501989D01*
X123159201Y-83501989D01*
X123164722Y-83499930D01*
X123179918Y-83494262D01*
X123296204Y-83450889D01*
X123364987Y-83399399D01*
X123413261Y-83363261D01*
X123500887Y-83246207D01*
X123500887Y-83246206D01*
X123500889Y-83246204D01*
X123551989Y-83109201D01*
X123558500Y-83048638D01*
X123558500Y-81800000D01*
X124636709Y-81800000D01*
X124655845Y-82055356D01*
X124712826Y-82305002D01*
X124712827Y-82305005D01*
X124806374Y-82543362D01*
X124806376Y-82543366D01*
X124934410Y-82765127D01*
X124934412Y-82765130D01*
X124934413Y-82765131D01*
X125094069Y-82965334D01*
X125281781Y-83139505D01*
X125281787Y-83139509D01*
X125493345Y-83283748D01*
X125493352Y-83283752D01*
X125493355Y-83283754D01*
X125626360Y-83347806D01*
X125724060Y-83394856D01*
X125724073Y-83394861D01*
X125968746Y-83470332D01*
X125968748Y-83470332D01*
X125968757Y-83470335D01*
X126221966Y-83508500D01*
X126221970Y-83508500D01*
X126478030Y-83508500D01*
X126478034Y-83508500D01*
X126731243Y-83470335D01*
X126794286Y-83450889D01*
X126975929Y-83394860D01*
X126975930Y-83394859D01*
X126975935Y-83394858D01*
X127166086Y-83303286D01*
X127206640Y-83283757D01*
X127206640Y-83283756D01*
X127206646Y-83283754D01*
X127418219Y-83139505D01*
X127605931Y-82965334D01*
X127765587Y-82765131D01*
X127893622Y-82543369D01*
X127893627Y-82543358D01*
X127944213Y-82414464D01*
X127987174Y-82305001D01*
X128044155Y-82055353D01*
X128063291Y-81800000D01*
X131636709Y-81800000D01*
X131655845Y-82055356D01*
X131712826Y-82305002D01*
X131712827Y-82305005D01*
X131806374Y-82543362D01*
X131806376Y-82543366D01*
X131934410Y-82765127D01*
X131934412Y-82765130D01*
X131934413Y-82765131D01*
X132094069Y-82965334D01*
X132281781Y-83139505D01*
X132281787Y-83139509D01*
X132493345Y-83283748D01*
X132493352Y-83283752D01*
X132493355Y-83283754D01*
X132626360Y-83347806D01*
X132724060Y-83394856D01*
X132724073Y-83394861D01*
X132968746Y-83470332D01*
X132968748Y-83470332D01*
X132968757Y-83470335D01*
X133221966Y-83508500D01*
X133221970Y-83508500D01*
X133478030Y-83508500D01*
X133478034Y-83508500D01*
X133731243Y-83470335D01*
X133794286Y-83450889D01*
X133975929Y-83394860D01*
X133975930Y-83394859D01*
X133975935Y-83394858D01*
X134166086Y-83303286D01*
X134206640Y-83283757D01*
X134206640Y-83283756D01*
X134206646Y-83283754D01*
X134418219Y-83139505D01*
X134605931Y-82965334D01*
X134765587Y-82765131D01*
X134893622Y-82543369D01*
X134893625Y-82543362D01*
X134893627Y-82543358D01*
X134898210Y-82531681D01*
X134941716Y-82475576D01*
X135008648Y-82451899D01*
X135077756Y-82468167D01*
X135127098Y-82519215D01*
X135141500Y-82577713D01*
X135141500Y-83048649D01*
X135148009Y-83109196D01*
X135148011Y-83109204D01*
X135199110Y-83246202D01*
X135199112Y-83246207D01*
X135286738Y-83363261D01*
X135403792Y-83450887D01*
X135403794Y-83450888D01*
X135403796Y-83450889D01*
X135462875Y-83472924D01*
X135540795Y-83501988D01*
X135540803Y-83501990D01*
X135601350Y-83508499D01*
X135601355Y-83508499D01*
X135601362Y-83508500D01*
X135601368Y-83508500D01*
X138098632Y-83508500D01*
X138098638Y-83508500D01*
X138098645Y-83508499D01*
X138098649Y-83508499D01*
X138159196Y-83501990D01*
X138159199Y-83501989D01*
X138159201Y-83501989D01*
X138164722Y-83499930D01*
X138179918Y-83494262D01*
X138296204Y-83450889D01*
X138364987Y-83399399D01*
X138413261Y-83363261D01*
X138500887Y-83246207D01*
X138500887Y-83246206D01*
X138500889Y-83246204D01*
X138551989Y-83109201D01*
X138558500Y-83048638D01*
X138558500Y-81800000D01*
X157736709Y-81800000D01*
X157755845Y-82055356D01*
X157812826Y-82305002D01*
X157812827Y-82305005D01*
X157906374Y-82543362D01*
X157906376Y-82543366D01*
X158034410Y-82765127D01*
X158034412Y-82765130D01*
X158034413Y-82765131D01*
X158194069Y-82965334D01*
X158381781Y-83139505D01*
X158381787Y-83139509D01*
X158593345Y-83283748D01*
X158593352Y-83283752D01*
X158593355Y-83283754D01*
X158726360Y-83347806D01*
X158824060Y-83394856D01*
X158824073Y-83394861D01*
X159068746Y-83470332D01*
X159068748Y-83470332D01*
X159068757Y-83470335D01*
X159321966Y-83508500D01*
X159321970Y-83508500D01*
X159578030Y-83508500D01*
X159578034Y-83508500D01*
X159831243Y-83470335D01*
X159894286Y-83450889D01*
X160075929Y-83394860D01*
X160075930Y-83394859D01*
X160075935Y-83394858D01*
X160266086Y-83303286D01*
X160306640Y-83283757D01*
X160306640Y-83283756D01*
X160306646Y-83283754D01*
X160518219Y-83139505D01*
X160705931Y-82965334D01*
X160865587Y-82765131D01*
X160993622Y-82543369D01*
X160993625Y-82543362D01*
X161082710Y-82316376D01*
X161126216Y-82260272D01*
X161193149Y-82236595D01*
X161262256Y-82252864D01*
X161311598Y-82303912D01*
X161317290Y-82316376D01*
X161406374Y-82543362D01*
X161406376Y-82543366D01*
X161534410Y-82765127D01*
X161534412Y-82765130D01*
X161534413Y-82765131D01*
X161694069Y-82965334D01*
X161881781Y-83139505D01*
X161881787Y-83139509D01*
X162093345Y-83283748D01*
X162093352Y-83283752D01*
X162093355Y-83283754D01*
X162226360Y-83347806D01*
X162324060Y-83394856D01*
X162324073Y-83394861D01*
X162568746Y-83470332D01*
X162568748Y-83470332D01*
X162568757Y-83470335D01*
X162821966Y-83508500D01*
X162821970Y-83508500D01*
X163078030Y-83508500D01*
X163078034Y-83508500D01*
X163331243Y-83470335D01*
X163394286Y-83450889D01*
X163575929Y-83394860D01*
X163575930Y-83394859D01*
X163575935Y-83394858D01*
X163766086Y-83303286D01*
X163806640Y-83283757D01*
X163806640Y-83283756D01*
X163806646Y-83283754D01*
X164018219Y-83139505D01*
X164205931Y-82965334D01*
X164365587Y-82765131D01*
X164493622Y-82543369D01*
X164493627Y-82543358D01*
X164544213Y-82414464D01*
X164587174Y-82305001D01*
X164644155Y-82055353D01*
X164663291Y-81800000D01*
X164663291Y-81799999D01*
X169236709Y-81799999D01*
X169255845Y-82055356D01*
X169312826Y-82305002D01*
X169312827Y-82305005D01*
X169406374Y-82543362D01*
X169406376Y-82543366D01*
X169534410Y-82765127D01*
X169534412Y-82765130D01*
X169534413Y-82765131D01*
X169694069Y-82965334D01*
X169881781Y-83139505D01*
X169881787Y-83139509D01*
X170093345Y-83283748D01*
X170093352Y-83283752D01*
X170093355Y-83283754D01*
X170226360Y-83347806D01*
X170324060Y-83394856D01*
X170324073Y-83394861D01*
X170568746Y-83470332D01*
X170568748Y-83470332D01*
X170568757Y-83470335D01*
X170821966Y-83508500D01*
X170821970Y-83508500D01*
X171078030Y-83508500D01*
X171078034Y-83508500D01*
X171331243Y-83470335D01*
X171394286Y-83450889D01*
X171575929Y-83394860D01*
X171575930Y-83394859D01*
X171575935Y-83394858D01*
X171766086Y-83303286D01*
X171806640Y-83283757D01*
X171806640Y-83283756D01*
X171806646Y-83283754D01*
X172018219Y-83139505D01*
X172205931Y-82965334D01*
X172365587Y-82765131D01*
X172493622Y-82543369D01*
X172493625Y-82543362D01*
X172582710Y-82316376D01*
X172626216Y-82260272D01*
X172693149Y-82236595D01*
X172762256Y-82252864D01*
X172811598Y-82303912D01*
X172817290Y-82316376D01*
X172906374Y-82543362D01*
X172906376Y-82543366D01*
X173034410Y-82765127D01*
X173034412Y-82765130D01*
X173034413Y-82765131D01*
X173194069Y-82965334D01*
X173381781Y-83139505D01*
X173381787Y-83139509D01*
X173593345Y-83283748D01*
X173593352Y-83283752D01*
X173593355Y-83283754D01*
X173726360Y-83347806D01*
X173824060Y-83394856D01*
X173824073Y-83394861D01*
X174068746Y-83470332D01*
X174068748Y-83470332D01*
X174068757Y-83470335D01*
X174321966Y-83508500D01*
X174321970Y-83508500D01*
X174578030Y-83508500D01*
X174578034Y-83508500D01*
X174831243Y-83470335D01*
X174894286Y-83450889D01*
X175075929Y-83394860D01*
X175075930Y-83394859D01*
X175075935Y-83394858D01*
X175266086Y-83303286D01*
X175306640Y-83283757D01*
X175306640Y-83283756D01*
X175306646Y-83283754D01*
X175518219Y-83139505D01*
X175705931Y-82965334D01*
X175865587Y-82765131D01*
X175993622Y-82543369D01*
X175993627Y-82543358D01*
X176044213Y-82414464D01*
X176087174Y-82305001D01*
X176144155Y-82055353D01*
X176163291Y-81800000D01*
X176144155Y-81544647D01*
X176087174Y-81294999D01*
X176058828Y-81222773D01*
X182491788Y-81222773D01*
X182501683Y-81531355D01*
X182501684Y-81531364D01*
X182550960Y-81836157D01*
X182550961Y-81836160D01*
X182638805Y-82132136D01*
X182638805Y-82132137D01*
X182685046Y-82236595D01*
X182763783Y-82414463D01*
X182845366Y-82549041D01*
X182923837Y-82678487D01*
X183116333Y-82919871D01*
X183116341Y-82919880D01*
X183308690Y-83106159D01*
X183338126Y-83134666D01*
X183467160Y-83230966D01*
X183585555Y-83319327D01*
X183585557Y-83319328D01*
X183585561Y-83319331D01*
X183854579Y-83470839D01*
X184140763Y-83586702D01*
X184439413Y-83665018D01*
X184745626Y-83704500D01*
X184745631Y-83704500D01*
X184977106Y-83704500D01*
X185069114Y-83698592D01*
X185208114Y-83689668D01*
X185511168Y-83630649D01*
X185804187Y-83533360D01*
X186082359Y-83399399D01*
X186317703Y-83246207D01*
X186341110Y-83230971D01*
X186341112Y-83230969D01*
X186341117Y-83230966D01*
X186576212Y-83030827D01*
X186783784Y-82802268D01*
X186960424Y-82549041D01*
X187103231Y-82275305D01*
X187209862Y-81985555D01*
X187278565Y-81684548D01*
X187308212Y-81377227D01*
X187307009Y-81339727D01*
X187298316Y-81068644D01*
X187298316Y-81068637D01*
X187249040Y-80763847D01*
X187204699Y-80614448D01*
X187161194Y-80467863D01*
X187161194Y-80467862D01*
X187149537Y-80441529D01*
X187036217Y-80185537D01*
X186876164Y-79921514D01*
X186777451Y-79797732D01*
X186683666Y-79680128D01*
X186683658Y-79680119D01*
X186461875Y-79465335D01*
X186461874Y-79465334D01*
X186362305Y-79391024D01*
X186214444Y-79280672D01*
X185945419Y-79129160D01*
X185659241Y-79013299D01*
X185360588Y-78934982D01*
X185309551Y-78928401D01*
X185054374Y-78895500D01*
X184822901Y-78895500D01*
X184822894Y-78895500D01*
X184591880Y-78910332D01*
X184288847Y-78969347D01*
X184288826Y-78969352D01*
X183995812Y-79066640D01*
X183717643Y-79200599D01*
X183458889Y-79369028D01*
X183458887Y-79369030D01*
X183223789Y-79569172D01*
X183016216Y-79797732D01*
X182839575Y-80050961D01*
X182696766Y-80324699D01*
X182590137Y-80614448D01*
X182521434Y-80915454D01*
X182491788Y-81222773D01*
X176058828Y-81222773D01*
X176025125Y-81136900D01*
X175993625Y-81056637D01*
X175993623Y-81056633D01*
X175865589Y-80834872D01*
X175865587Y-80834869D01*
X175705931Y-80634666D01*
X175518219Y-80460495D01*
X175306646Y-80316246D01*
X175306643Y-80316245D01*
X175306641Y-80316243D01*
X175306640Y-80316242D01*
X175075936Y-80205142D01*
X175075929Y-80205139D01*
X174831253Y-80129667D01*
X174831245Y-80129665D01*
X174831243Y-80129665D01*
X174578034Y-80091500D01*
X174321966Y-80091500D01*
X174068757Y-80129665D01*
X174068755Y-80129665D01*
X174068746Y-80129667D01*
X173824073Y-80205138D01*
X173824060Y-80205143D01*
X173593352Y-80316247D01*
X173593345Y-80316251D01*
X173381787Y-80460490D01*
X173381782Y-80460494D01*
X173194070Y-80634665D01*
X173034410Y-80834872D01*
X172906376Y-81056633D01*
X172906374Y-81056637D01*
X172817290Y-81283623D01*
X172773784Y-81339727D01*
X172706851Y-81363404D01*
X172637744Y-81347135D01*
X172588402Y-81296087D01*
X172582710Y-81283623D01*
X172493625Y-81056637D01*
X172493623Y-81056633D01*
X172365589Y-80834872D01*
X172365587Y-80834869D01*
X172205931Y-80634666D01*
X172018219Y-80460495D01*
X171806646Y-80316246D01*
X171806643Y-80316245D01*
X171806641Y-80316243D01*
X171806640Y-80316242D01*
X171575936Y-80205142D01*
X171575929Y-80205139D01*
X171331253Y-80129667D01*
X171331245Y-80129665D01*
X171331243Y-80129665D01*
X171078034Y-80091500D01*
X170821966Y-80091500D01*
X170568757Y-80129665D01*
X170568755Y-80129665D01*
X170568746Y-80129667D01*
X170324073Y-80205138D01*
X170324060Y-80205143D01*
X170093352Y-80316247D01*
X170093345Y-80316251D01*
X169881787Y-80460490D01*
X169881782Y-80460494D01*
X169694070Y-80634665D01*
X169534410Y-80834872D01*
X169406376Y-81056633D01*
X169406374Y-81056637D01*
X169312827Y-81294994D01*
X169312826Y-81294997D01*
X169255845Y-81544643D01*
X169236709Y-81799999D01*
X164663291Y-81799999D01*
X164644155Y-81544647D01*
X164587174Y-81294999D01*
X164525125Y-81136900D01*
X164493625Y-81056637D01*
X164493623Y-81056633D01*
X164365589Y-80834872D01*
X164365587Y-80834869D01*
X164205931Y-80634666D01*
X164018219Y-80460495D01*
X163806646Y-80316246D01*
X163806643Y-80316245D01*
X163806641Y-80316243D01*
X163806640Y-80316242D01*
X163575936Y-80205142D01*
X163575929Y-80205139D01*
X163331253Y-80129667D01*
X163331245Y-80129665D01*
X163331243Y-80129665D01*
X163078034Y-80091500D01*
X162821966Y-80091500D01*
X162568757Y-80129665D01*
X162568755Y-80129665D01*
X162568746Y-80129667D01*
X162324073Y-80205138D01*
X162324060Y-80205143D01*
X162093352Y-80316247D01*
X162093345Y-80316251D01*
X161881787Y-80460490D01*
X161881782Y-80460494D01*
X161694070Y-80634665D01*
X161534410Y-80834872D01*
X161406376Y-81056633D01*
X161406374Y-81056637D01*
X161317290Y-81283623D01*
X161273784Y-81339727D01*
X161206851Y-81363404D01*
X161137744Y-81347135D01*
X161088402Y-81296087D01*
X161082710Y-81283623D01*
X160993625Y-81056637D01*
X160993623Y-81056633D01*
X160865589Y-80834872D01*
X160865587Y-80834869D01*
X160705931Y-80634666D01*
X160518219Y-80460495D01*
X160306646Y-80316246D01*
X160306643Y-80316245D01*
X160306641Y-80316243D01*
X160306640Y-80316242D01*
X160075936Y-80205142D01*
X160075929Y-80205139D01*
X159831253Y-80129667D01*
X159831245Y-80129665D01*
X159831243Y-80129665D01*
X159578034Y-80091500D01*
X159321966Y-80091500D01*
X159068757Y-80129665D01*
X159068755Y-80129665D01*
X159068746Y-80129667D01*
X158824073Y-80205138D01*
X158824060Y-80205143D01*
X158593352Y-80316247D01*
X158593345Y-80316251D01*
X158381787Y-80460490D01*
X158381782Y-80460494D01*
X158194070Y-80634665D01*
X158034410Y-80834872D01*
X157906376Y-81056633D01*
X157906374Y-81056637D01*
X157812827Y-81294994D01*
X157812826Y-81294997D01*
X157755845Y-81544643D01*
X157736709Y-81800000D01*
X138558500Y-81800000D01*
X138558500Y-80551362D01*
X138558499Y-80551350D01*
X138551990Y-80490803D01*
X138551988Y-80490795D01*
X138500889Y-80353797D01*
X138500887Y-80353792D01*
X138413261Y-80236738D01*
X138296207Y-80149112D01*
X138296202Y-80149110D01*
X138159204Y-80098011D01*
X138159196Y-80098009D01*
X138098649Y-80091500D01*
X138098638Y-80091500D01*
X135601362Y-80091500D01*
X135601350Y-80091500D01*
X135540803Y-80098009D01*
X135540795Y-80098011D01*
X135403797Y-80149110D01*
X135403792Y-80149112D01*
X135286738Y-80236738D01*
X135199112Y-80353792D01*
X135199110Y-80353797D01*
X135148011Y-80490795D01*
X135148009Y-80490803D01*
X135141500Y-80551350D01*
X135141500Y-81022286D01*
X135121498Y-81090407D01*
X135067842Y-81136900D01*
X134997568Y-81147004D01*
X134932988Y-81117510D01*
X134898211Y-81068321D01*
X134893626Y-81056641D01*
X134893623Y-81056633D01*
X134765589Y-80834872D01*
X134765587Y-80834869D01*
X134605931Y-80634666D01*
X134418219Y-80460495D01*
X134206646Y-80316246D01*
X134206643Y-80316245D01*
X134206641Y-80316243D01*
X134206640Y-80316242D01*
X133975936Y-80205142D01*
X133975929Y-80205139D01*
X133731253Y-80129667D01*
X133731245Y-80129665D01*
X133731243Y-80129665D01*
X133478034Y-80091500D01*
X133221966Y-80091500D01*
X132968757Y-80129665D01*
X132968755Y-80129665D01*
X132968746Y-80129667D01*
X132724073Y-80205138D01*
X132724060Y-80205143D01*
X132493352Y-80316247D01*
X132493345Y-80316251D01*
X132281787Y-80460490D01*
X132281782Y-80460494D01*
X132094070Y-80634665D01*
X131934410Y-80834872D01*
X131806376Y-81056633D01*
X131806374Y-81056637D01*
X131712827Y-81294994D01*
X131712826Y-81294997D01*
X131655845Y-81544643D01*
X131636709Y-81800000D01*
X128063291Y-81800000D01*
X128044155Y-81544647D01*
X127987174Y-81294999D01*
X127925125Y-81136900D01*
X127893625Y-81056637D01*
X127893623Y-81056633D01*
X127765589Y-80834872D01*
X127765587Y-80834869D01*
X127605931Y-80634666D01*
X127418219Y-80460495D01*
X127206646Y-80316246D01*
X127206643Y-80316245D01*
X127206641Y-80316243D01*
X127206640Y-80316242D01*
X126975936Y-80205142D01*
X126975929Y-80205139D01*
X126731253Y-80129667D01*
X126731245Y-80129665D01*
X126731243Y-80129665D01*
X126478034Y-80091500D01*
X126221966Y-80091500D01*
X125968757Y-80129665D01*
X125968755Y-80129665D01*
X125968746Y-80129667D01*
X125724073Y-80205138D01*
X125724060Y-80205143D01*
X125493352Y-80316247D01*
X125493345Y-80316251D01*
X125281787Y-80460490D01*
X125281782Y-80460494D01*
X125094070Y-80634665D01*
X124934410Y-80834872D01*
X124806376Y-81056633D01*
X124806374Y-81056637D01*
X124712827Y-81294994D01*
X124712826Y-81294997D01*
X124655845Y-81544643D01*
X124636709Y-81800000D01*
X123558500Y-81800000D01*
X123558500Y-80551362D01*
X123558499Y-80551350D01*
X123551990Y-80490803D01*
X123551988Y-80490795D01*
X123500889Y-80353797D01*
X123500887Y-80353792D01*
X123413261Y-80236738D01*
X123296207Y-80149112D01*
X123296202Y-80149110D01*
X123159204Y-80098011D01*
X123159196Y-80098009D01*
X123098649Y-80091500D01*
X123098638Y-80091500D01*
X120601362Y-80091500D01*
X120601350Y-80091500D01*
X120540803Y-80098009D01*
X120540795Y-80098011D01*
X120403797Y-80149110D01*
X120403792Y-80149112D01*
X120286738Y-80236738D01*
X120199112Y-80353792D01*
X120199110Y-80353797D01*
X120148011Y-80490795D01*
X120148009Y-80490803D01*
X120141500Y-80551350D01*
X120141500Y-81022286D01*
X120121498Y-81090407D01*
X120067842Y-81136900D01*
X119997568Y-81147004D01*
X119932988Y-81117510D01*
X119898211Y-81068321D01*
X119893626Y-81056641D01*
X119893623Y-81056633D01*
X119765589Y-80834872D01*
X119765587Y-80834869D01*
X119605931Y-80634666D01*
X119418219Y-80460495D01*
X119206646Y-80316246D01*
X119206643Y-80316245D01*
X119206641Y-80316243D01*
X119206640Y-80316242D01*
X118975936Y-80205142D01*
X118975929Y-80205139D01*
X118731253Y-80129667D01*
X118731245Y-80129665D01*
X118731243Y-80129665D01*
X118478034Y-80091500D01*
X118221966Y-80091500D01*
X117968757Y-80129665D01*
X117968755Y-80129665D01*
X117968746Y-80129667D01*
X117724073Y-80205138D01*
X117724060Y-80205143D01*
X117493352Y-80316247D01*
X117493345Y-80316251D01*
X117281787Y-80460490D01*
X117281782Y-80460494D01*
X117094070Y-80634665D01*
X116934410Y-80834872D01*
X116806376Y-81056633D01*
X116806374Y-81056637D01*
X116712827Y-81294994D01*
X116712826Y-81294997D01*
X116655845Y-81544643D01*
X116636709Y-81800000D01*
X116655845Y-82055356D01*
X116712826Y-82305002D01*
X116712827Y-82305005D01*
X116806374Y-82543362D01*
X116806376Y-82543366D01*
X116934410Y-82765127D01*
X117094072Y-82965338D01*
X117130339Y-82998988D01*
X117166671Y-83059984D01*
X117164258Y-83130940D01*
X117123866Y-83189327D01*
X117070836Y-83214599D01*
X116992715Y-83231204D01*
X116818243Y-83308884D01*
X116774061Y-83340985D01*
X116707193Y-83364843D01*
X116638042Y-83348763D01*
X116625939Y-83340985D01*
X116581756Y-83308884D01*
X116542897Y-83291583D01*
X116407288Y-83231206D01*
X116220487Y-83191500D01*
X116029513Y-83191500D01*
X115842711Y-83231206D01*
X115713724Y-83288635D01*
X115643357Y-83298069D01*
X115579060Y-83267963D01*
X115541246Y-83207874D01*
X115541922Y-83136880D01*
X115544420Y-83129495D01*
X115551988Y-83109204D01*
X115551990Y-83109196D01*
X115558499Y-83048649D01*
X115558500Y-83048632D01*
X115558500Y-80551367D01*
X115558499Y-80551350D01*
X115551990Y-80490803D01*
X115551988Y-80490795D01*
X115500889Y-80353797D01*
X115500887Y-80353792D01*
X115413261Y-80236738D01*
X115296207Y-80149112D01*
X115296202Y-80149110D01*
X115159204Y-80098011D01*
X115159196Y-80098009D01*
X115098649Y-80091500D01*
X115098638Y-80091500D01*
X112601362Y-80091500D01*
X112601350Y-80091500D01*
X112540803Y-80098009D01*
X112540795Y-80098011D01*
X112403797Y-80149110D01*
X112403792Y-80149112D01*
X112286738Y-80236738D01*
X112199112Y-80353792D01*
X112199110Y-80353797D01*
X112148011Y-80490795D01*
X112148009Y-80490803D01*
X112141500Y-80551350D01*
X112141500Y-81022286D01*
X112121498Y-81090407D01*
X112067842Y-81136900D01*
X111997568Y-81147004D01*
X111932988Y-81117510D01*
X111898211Y-81068321D01*
X111893626Y-81056641D01*
X111893623Y-81056633D01*
X111765589Y-80834872D01*
X111765587Y-80834869D01*
X111605931Y-80634666D01*
X111418219Y-80460495D01*
X111206646Y-80316246D01*
X111206643Y-80316245D01*
X111206641Y-80316243D01*
X111206640Y-80316242D01*
X110975936Y-80205142D01*
X110975929Y-80205139D01*
X110731253Y-80129667D01*
X110731245Y-80129665D01*
X110731243Y-80129665D01*
X110478034Y-80091500D01*
X110221966Y-80091500D01*
X109968757Y-80129665D01*
X109968755Y-80129665D01*
X109968746Y-80129667D01*
X109724073Y-80205138D01*
X109724060Y-80205143D01*
X109493352Y-80316247D01*
X109493345Y-80316251D01*
X109281787Y-80460490D01*
X109281782Y-80460494D01*
X109094070Y-80634665D01*
X108934410Y-80834872D01*
X108806376Y-81056633D01*
X108806374Y-81056637D01*
X108712827Y-81294994D01*
X108712826Y-81294997D01*
X108655845Y-81544643D01*
X108636709Y-81800000D01*
X108655845Y-82055356D01*
X108712826Y-82305002D01*
X108712827Y-82305005D01*
X108806374Y-82543362D01*
X108806376Y-82543366D01*
X108934410Y-82765127D01*
X108934412Y-82765130D01*
X108934413Y-82765131D01*
X109094069Y-82965334D01*
X109094072Y-82965336D01*
X109094073Y-82965338D01*
X109121020Y-82990342D01*
X109157351Y-83051339D01*
X109154937Y-83122294D01*
X109114545Y-83180681D01*
X109061516Y-83205952D01*
X108942715Y-83231204D01*
X108768243Y-83308884D01*
X108724061Y-83340985D01*
X108657193Y-83364843D01*
X108588042Y-83348763D01*
X108575939Y-83340985D01*
X108531756Y-83308884D01*
X108492897Y-83291583D01*
X108357288Y-83231206D01*
X108170487Y-83191500D01*
X107979513Y-83191500D01*
X107792711Y-83231206D01*
X107618247Y-83308882D01*
X107463744Y-83421135D01*
X107335965Y-83563048D01*
X107335958Y-83563058D01*
X107240476Y-83728438D01*
X107240473Y-83728445D01*
X107181457Y-83910072D01*
X107161496Y-84100000D01*
X99400500Y-84100000D01*
X99400500Y-81222773D01*
X100991788Y-81222773D01*
X101001683Y-81531355D01*
X101001684Y-81531364D01*
X101050960Y-81836157D01*
X101050961Y-81836160D01*
X101138805Y-82132136D01*
X101138805Y-82132137D01*
X101185046Y-82236595D01*
X101263783Y-82414463D01*
X101345366Y-82549041D01*
X101423837Y-82678487D01*
X101616333Y-82919871D01*
X101616341Y-82919880D01*
X101808690Y-83106159D01*
X101838126Y-83134666D01*
X101967160Y-83230966D01*
X102085555Y-83319327D01*
X102085557Y-83319328D01*
X102085561Y-83319331D01*
X102354579Y-83470839D01*
X102640763Y-83586702D01*
X102939413Y-83665018D01*
X103245626Y-83704500D01*
X103245631Y-83704500D01*
X103477106Y-83704500D01*
X103569114Y-83698592D01*
X103708114Y-83689668D01*
X104011168Y-83630649D01*
X104304187Y-83533360D01*
X104582359Y-83399399D01*
X104817703Y-83246207D01*
X104841110Y-83230971D01*
X104841112Y-83230969D01*
X104841117Y-83230966D01*
X105076212Y-83030827D01*
X105283784Y-82802268D01*
X105460424Y-82549041D01*
X105603231Y-82275305D01*
X105709862Y-81985555D01*
X105778565Y-81684548D01*
X105808212Y-81377227D01*
X105807009Y-81339727D01*
X105798316Y-81068644D01*
X105798316Y-81068637D01*
X105749040Y-80763847D01*
X105704699Y-80614448D01*
X105661194Y-80467863D01*
X105661194Y-80467862D01*
X105649537Y-80441529D01*
X105536217Y-80185537D01*
X105376164Y-79921514D01*
X105277451Y-79797732D01*
X105183666Y-79680128D01*
X105183658Y-79680119D01*
X104961875Y-79465335D01*
X104961874Y-79465334D01*
X104862305Y-79391024D01*
X104714444Y-79280672D01*
X104445419Y-79129160D01*
X104159241Y-79013299D01*
X103860588Y-78934982D01*
X103809551Y-78928401D01*
X103554374Y-78895500D01*
X103322901Y-78895500D01*
X103322894Y-78895500D01*
X103091880Y-78910332D01*
X102788847Y-78969347D01*
X102788826Y-78969352D01*
X102495812Y-79066640D01*
X102217643Y-79200599D01*
X101958889Y-79369028D01*
X101958887Y-79369030D01*
X101723789Y-79569172D01*
X101516216Y-79797732D01*
X101339575Y-80050961D01*
X101196766Y-80324699D01*
X101090137Y-80614448D01*
X101021434Y-80915454D01*
X100991788Y-81222773D01*
X99400500Y-81222773D01*
X99400500Y-77426500D01*
X99420502Y-77358379D01*
X99474158Y-77311886D01*
X99526500Y-77300500D01*
X188773500Y-77300500D01*
X188841621Y-77320502D01*
G37*
G04 #@! TD.AperFunction*
M02*
