G04 #@! TF.GenerationSoftware,KiCad,Pcbnew,7.0.7*
G04 #@! TF.CreationDate,2023-09-27T11:52:32+02:00*
G04 #@! TF.ProjectId,PCB_Layout_MOSFET,5043425f-4c61-4796-9f75-745f4d4f5346,rev?*
G04 #@! TF.SameCoordinates,Original*
G04 #@! TF.FileFunction,Paste,Top*
G04 #@! TF.FilePolarity,Positive*
%FSLAX46Y46*%
G04 Gerber Fmt 4.6, Leading zero omitted, Abs format (unit mm)*
G04 Created by KiCad (PCBNEW 7.0.7) date 2023-09-27 11:52:32*
%MOMM*%
%LPD*%
G01*
G04 APERTURE LIST*
G04 Aperture macros list*
%AMRoundRect*
0 Rectangle with rounded corners*
0 $1 Rounding radius*
0 $2 $3 $4 $5 $6 $7 $8 $9 X,Y pos of 4 corners*
0 Add a 4 corners polygon primitive as box body*
4,1,4,$2,$3,$4,$5,$6,$7,$8,$9,$2,$3,0*
0 Add four circle primitives for the rounded corners*
1,1,$1+$1,$2,$3*
1,1,$1+$1,$4,$5*
1,1,$1+$1,$6,$7*
1,1,$1+$1,$8,$9*
0 Add four rect primitives between the rounded corners*
20,1,$1+$1,$2,$3,$4,$5,0*
20,1,$1+$1,$4,$5,$6,$7,0*
20,1,$1+$1,$6,$7,$8,$9,0*
20,1,$1+$1,$8,$9,$2,$3,0*%
G04 Aperture macros list end*
%ADD10R,2.400000X2.800000*%
%ADD11RoundRect,0.250000X1.500000X0.550000X-1.500000X0.550000X-1.500000X-0.550000X1.500000X-0.550000X0*%
%ADD12RoundRect,0.250000X-1.500000X-0.550000X1.500000X-0.550000X1.500000X0.550000X-1.500000X0.550000X0*%
%ADD13R,1.528000X0.650000*%
%ADD14R,0.650000X1.528000*%
%ADD15R,1.600000X1.400000*%
%ADD16RoundRect,0.250000X-0.312500X-0.625000X0.312500X-0.625000X0.312500X0.625000X-0.312500X0.625000X0*%
%ADD17RoundRect,0.250000X1.000000X0.650000X-1.000000X0.650000X-1.000000X-0.650000X1.000000X-0.650000X0*%
%ADD18RoundRect,0.250000X0.650000X-1.000000X0.650000X1.000000X-0.650000X1.000000X-0.650000X-1.000000X0*%
%ADD19RoundRect,0.250000X-1.000000X-0.650000X1.000000X-0.650000X1.000000X0.650000X-1.000000X0.650000X0*%
%ADD20R,0.400000X0.400000*%
%ADD21R,0.400000X0.300000*%
%ADD22R,2.650000X2.200000*%
%ADD23R,0.300000X0.400000*%
%ADD24R,2.200000X2.650000*%
%ADD25R,0.300000X0.750000*%
%ADD26R,2.550000X1.850000*%
%ADD27RoundRect,0.250000X-0.262500X-0.450000X0.262500X-0.450000X0.262500X0.450000X-0.262500X0.450000X0*%
%ADD28RoundRect,0.250000X0.262500X0.450000X-0.262500X0.450000X-0.262500X-0.450000X0.262500X-0.450000X0*%
%ADD29RoundRect,0.250000X-0.450000X0.262500X-0.450000X-0.262500X0.450000X-0.262500X0.450000X0.262500X0*%
%ADD30R,0.700000X1.550000*%
%ADD31RoundRect,0.250000X0.375000X1.075000X-0.375000X1.075000X-0.375000X-1.075000X0.375000X-1.075000X0*%
%ADD32RoundRect,0.225000X-0.225000X-0.250000X0.225000X-0.250000X0.225000X0.250000X-0.225000X0.250000X0*%
%ADD33RoundRect,0.250000X0.475000X-0.250000X0.475000X0.250000X-0.475000X0.250000X-0.475000X-0.250000X0*%
%ADD34RoundRect,0.250000X-1.950000X-1.000000X1.950000X-1.000000X1.950000X1.000000X-1.950000X1.000000X0*%
%ADD35RoundRect,0.250000X-0.475000X0.250000X-0.475000X-0.250000X0.475000X-0.250000X0.475000X0.250000X0*%
%ADD36RoundRect,0.225000X0.250000X-0.225000X0.250000X0.225000X-0.250000X0.225000X-0.250000X-0.225000X0*%
%ADD37RoundRect,0.250000X-0.850000X0.375000X-0.850000X-0.375000X0.850000X-0.375000X0.850000X0.375000X0*%
%ADD38RoundRect,0.218750X-0.256250X0.218750X-0.256250X-0.218750X0.256250X-0.218750X0.256250X0.218750X0*%
%ADD39RoundRect,0.250000X0.450000X-0.262500X0.450000X0.262500X-0.450000X0.262500X-0.450000X-0.262500X0*%
%ADD40RoundRect,0.200000X0.200000X0.275000X-0.200000X0.275000X-0.200000X-0.275000X0.200000X-0.275000X0*%
%ADD41RoundRect,0.225000X0.225000X0.250000X-0.225000X0.250000X-0.225000X-0.250000X0.225000X-0.250000X0*%
%ADD42RoundRect,0.225000X-0.250000X0.225000X-0.250000X-0.225000X0.250000X-0.225000X0.250000X0.225000X0*%
G04 APERTURE END LIST*
D10*
X143057500Y-132100000D03*
X143057500Y-138200000D03*
X154457500Y-138200000D03*
X154457500Y-132100000D03*
D11*
X145550000Y-122900000D03*
X140150000Y-122900000D03*
D12*
X166000000Y-118000000D03*
X171400000Y-118000000D03*
D13*
X154611000Y-123155000D03*
X154611000Y-121885000D03*
X154611000Y-120615000D03*
X154611000Y-119345000D03*
X149189000Y-119345000D03*
X149189000Y-120615000D03*
X149189000Y-121885000D03*
X149189000Y-123155000D03*
D14*
X133445000Y-124189000D03*
X134715000Y-124189000D03*
X135985000Y-124189000D03*
X137255000Y-124189000D03*
X137255000Y-129611000D03*
X135985000Y-129611000D03*
X134715000Y-129611000D03*
X133445000Y-129611000D03*
D15*
X149900000Y-83050000D03*
X141900000Y-83050000D03*
X149900000Y-78550000D03*
X141900000Y-78550000D03*
D16*
X140662500Y-136300000D03*
X137737500Y-136300000D03*
X137737500Y-136300000D03*
X140662500Y-136300000D03*
D17*
X122150000Y-130800000D03*
X118150000Y-130800000D03*
D18*
X159400000Y-121750000D03*
X159400000Y-117750000D03*
X109400000Y-103050000D03*
X109400000Y-99050000D03*
D19*
X118150000Y-87300000D03*
X122150000Y-87300000D03*
D17*
X114150000Y-130800000D03*
X110150000Y-130800000D03*
D18*
X109400000Y-119050000D03*
X109400000Y-115050000D03*
D19*
X131340489Y-90809511D03*
X135340489Y-90809511D03*
D17*
X176510000Y-91709511D03*
X172510000Y-91709511D03*
D19*
X110150000Y-87300000D03*
X114150000Y-87300000D03*
D18*
X109400000Y-95050000D03*
X109400000Y-91050000D03*
X109400000Y-127050000D03*
X109400000Y-123050000D03*
X109400000Y-111050000D03*
X109400000Y-107050000D03*
D20*
X123425000Y-92700000D03*
X124075000Y-92700000D03*
X124725000Y-92700000D03*
X125375000Y-92700000D03*
D21*
X125375000Y-89550000D03*
X124725000Y-89550000D03*
X124075000Y-89550000D03*
X123425000Y-89550000D03*
D22*
X124400000Y-90800000D03*
D20*
X124275000Y-128175000D03*
X124275000Y-127525000D03*
X124275000Y-126875000D03*
X124275000Y-126225000D03*
D23*
X121125000Y-126225000D03*
X121125000Y-126875000D03*
X121125000Y-127525000D03*
X121125000Y-128175000D03*
D24*
X122375000Y-127200000D03*
D20*
X115920000Y-128175000D03*
X115920000Y-127525000D03*
X115920000Y-126875000D03*
X115920000Y-126225000D03*
D23*
X112770000Y-126225000D03*
X112770000Y-126875000D03*
X112770000Y-127525000D03*
X112770000Y-128175000D03*
D24*
X114020000Y-127200000D03*
D20*
X113975000Y-121625000D03*
X113325000Y-121625000D03*
X112675000Y-121625000D03*
X112025000Y-121625000D03*
D21*
X112025000Y-124775000D03*
X112675000Y-124775000D03*
X113325000Y-124775000D03*
X113975000Y-124775000D03*
D22*
X113000000Y-123525000D03*
D20*
X114755000Y-115225000D03*
X114755000Y-114575000D03*
X114755000Y-113925000D03*
X114755000Y-113275000D03*
D23*
X111605000Y-113275000D03*
X111605000Y-113925000D03*
X111605000Y-114575000D03*
X111605000Y-115225000D03*
D24*
X112855000Y-114250000D03*
D20*
X114700000Y-108025000D03*
X114700000Y-107375000D03*
X114700000Y-106725000D03*
X114700000Y-106075000D03*
D23*
X111550000Y-106075000D03*
X111550000Y-106725000D03*
X111550000Y-107375000D03*
X111550000Y-108025000D03*
D24*
X112800000Y-107050000D03*
D20*
X111975000Y-101800000D03*
X112625000Y-101800000D03*
X113275000Y-101800000D03*
X113925000Y-101800000D03*
D21*
X113925000Y-98650000D03*
X113275000Y-98650000D03*
X112625000Y-98650000D03*
X111975000Y-98650000D03*
D22*
X112950000Y-99900000D03*
D20*
X111975000Y-93870000D03*
X112625000Y-93870000D03*
X113275000Y-93870000D03*
X113925000Y-93870000D03*
D21*
X113925000Y-90720000D03*
X113275000Y-90720000D03*
X112625000Y-90720000D03*
X111975000Y-90720000D03*
D22*
X112950000Y-91970000D03*
D20*
X115525000Y-92700000D03*
X116175000Y-92700000D03*
X116825000Y-92700000D03*
X117475000Y-92700000D03*
D21*
X117475000Y-89550000D03*
X116825000Y-89550000D03*
X116175000Y-89550000D03*
X115525000Y-89550000D03*
D22*
X116500000Y-90800000D03*
D25*
X128950000Y-137800000D03*
X129450000Y-137800000D03*
X129950000Y-137800000D03*
X130450000Y-137800000D03*
X130950000Y-137800000D03*
X130950000Y-134800000D03*
X130450000Y-134800000D03*
X129950000Y-134800000D03*
X129450000Y-134800000D03*
X128950000Y-134800000D03*
D26*
X129950000Y-136300000D03*
D27*
X116187500Y-110600000D03*
X118012500Y-110600000D03*
X117287500Y-122150000D03*
X119112500Y-122150000D03*
X119187500Y-92700000D03*
X121012500Y-92700000D03*
X147337500Y-125050000D03*
X149162500Y-125050000D03*
D28*
X156552989Y-104009511D03*
X154727989Y-104009511D03*
D27*
X117887500Y-104850000D03*
X119712500Y-104850000D03*
D29*
X115800000Y-100787500D03*
X115800000Y-102612500D03*
D30*
X130005000Y-106675000D03*
X131275000Y-106675000D03*
X132545000Y-106675000D03*
X133815000Y-106675000D03*
X135085000Y-106675000D03*
X136355000Y-106675000D03*
X137625000Y-106675000D03*
X138895000Y-106675000D03*
X138895000Y-101225000D03*
X137625000Y-101225000D03*
X136355000Y-101225000D03*
X135085000Y-101225000D03*
X133815000Y-101225000D03*
X132545000Y-101225000D03*
X131275000Y-101225000D03*
X130005000Y-101225000D03*
D31*
X162700000Y-125300000D03*
X159900000Y-125300000D03*
D32*
X130275000Y-127150000D03*
X131825000Y-127150000D03*
D29*
X156100000Y-82887500D03*
X156100000Y-84712500D03*
D33*
X128050000Y-103125000D03*
X128050000Y-101225000D03*
D34*
X166217500Y-127150000D03*
X174617500Y-127150000D03*
D27*
X117687500Y-100787500D03*
X119512500Y-100787500D03*
X146537500Y-117450000D03*
X148362500Y-117450000D03*
X116537500Y-120100000D03*
X118362500Y-120100000D03*
D35*
X172300000Y-101000000D03*
X172300000Y-102900000D03*
D27*
X119187500Y-90650000D03*
X121012500Y-90650000D03*
D36*
X129950000Y-132385000D03*
X129950000Y-130835000D03*
X128397500Y-132385000D03*
X128397500Y-130835000D03*
D27*
X116587500Y-98200000D03*
X118412500Y-98200000D03*
X124275000Y-121900000D03*
X126100000Y-121900000D03*
D33*
X156650000Y-120600000D03*
X156650000Y-118700000D03*
D36*
X131497500Y-132385000D03*
X131497500Y-130835000D03*
D27*
X116187500Y-112600000D03*
X118012500Y-112600000D03*
X117287500Y-124150000D03*
X119112500Y-124150000D03*
D30*
X170302989Y-97452500D03*
X169032989Y-97452500D03*
X167762989Y-97452500D03*
X166492989Y-97452500D03*
X165222989Y-97452500D03*
X163952989Y-97452500D03*
X162682989Y-97452500D03*
X161412989Y-97452500D03*
X161412989Y-102902500D03*
X162682989Y-102902500D03*
X163952989Y-102902500D03*
X165222989Y-102902500D03*
X166492989Y-102902500D03*
X167762989Y-102902500D03*
X169032989Y-102902500D03*
X170302989Y-102902500D03*
D27*
X117887500Y-106900000D03*
X119712500Y-106900000D03*
D28*
X138212500Y-108800000D03*
X136387500Y-108800000D03*
D37*
X162700000Y-120625000D03*
X162700000Y-122775000D03*
D27*
X126987500Y-92700000D03*
X128812500Y-92700000D03*
D38*
X140400000Y-127687500D03*
X140400000Y-129262500D03*
D27*
X150237500Y-80800000D03*
X152062500Y-80800000D03*
D39*
X157250000Y-91612500D03*
X157250000Y-89787500D03*
D28*
X156552989Y-107009511D03*
X154727989Y-107009511D03*
D27*
X150037500Y-117450000D03*
X151862500Y-117450000D03*
D29*
X154100000Y-82887500D03*
X154100000Y-84712500D03*
D27*
X116537500Y-118050000D03*
X118362500Y-118050000D03*
X133445000Y-132250000D03*
X135270000Y-132250000D03*
D40*
X132372500Y-139335000D03*
X130722500Y-139335000D03*
D27*
X118087500Y-96200000D03*
X119912500Y-96200000D03*
D41*
X129172500Y-139335000D03*
X127622500Y-139335000D03*
D29*
X152100000Y-82887500D03*
X152100000Y-84712500D03*
D39*
X131350000Y-124162500D03*
X131350000Y-122337500D03*
X142300000Y-129262500D03*
X142300000Y-127437500D03*
D32*
X132525000Y-134650000D03*
X134075000Y-134650000D03*
D28*
X156552989Y-110009511D03*
X154727989Y-110009511D03*
D29*
X137250000Y-132250000D03*
X137250000Y-134075000D03*
X133450000Y-120187500D03*
X133450000Y-122012500D03*
D27*
X126987500Y-94700000D03*
X128812500Y-94700000D03*
D42*
X127300000Y-134800000D03*
X127300000Y-136350000D03*
D27*
X124275000Y-124100000D03*
X126100000Y-124100000D03*
M02*
